<?xml version='1.0' encoding='utf-8'?>
<svg xmlns="http://www.w3.org/2000/svg" id="Layer_2" data-name="Layer 2" viewBox="0 0 179.819 160.152">
  <g id="Color" fill="#00ABF6">
    <path d="M87.1,43.269c0,1.551,1.258,2.81,2.81,2.81s2.809-1.258,2.809-2.81V2.81c0-1.552-1.258-2.81-2.809-2.81s-2.81,1.258-2.81,2.81v40.46Z" />
    <path d="M91.022.229c14.255,9.394,23.461-6.171,40.459,3.923v22.477c-13.705-8.678-24.448,2.679-40.459-3.923V.229Z" fill-rule="evenodd" />
  </g>
  <g id="Grey" fill="#282828">
    <path d="M89.909,43.269h0c49.451,0,89.91,40.459,89.91,89.91v26.973h-38.232v-1.031c0-1.311-1.648-1.908-2.489-.894-.208.257-.32.562-.32.894v1.031h-20.49v-46.079c0-7.805-3.191-14.9-8.335-20.043-5.142-5.143-12.237-8.335-20.043-8.335h0c-7.805,0-14.9,3.192-20.043,8.335s-8.335,12.238-8.335,20.043v46.079h-20.489v-1.221c0-1.311-1.647-1.907-2.489-.894-.208.256-.32.562-.32.894v1.221H0v-26.973C0,83.728,40.459,43.269,89.909,43.269h0ZM138.641,117.081c.066.879.904,1.478,1.758,1.258.651-.171,1.096-.788,1.045-1.461l-.007-.105-.026-.346-.028-.345-.03-.344-.032-.344-.034-.343-.036-.343-.038-.342-.04-.341-.003-.019c-.102-.833-.855-1.299-1.568-1.217l-.959,4.292h0ZM139.6,112.789c.384-.061.75-.283.985-.686.166-.293.222-.611.166-.943l-.03-.177-.061-.334-.062-.334-.063-.333-.065-.333-.068-.332-.068-.331-.072-.331-.07-.317c-.133-.57-.577-.985-1.155-1.08-.18-.026-.353-.019-.516.017.695-.204,1.193-.941.967-1.733l-.041-.148-.092-.322-.094-.321-.096-.32-.097-.32-.1-.318-.101-.317-.103-.317-.104-.316-.021-.058c-.156-.462-.549-.816-1.026-.919-.267-.058-.524-.038-.754.041.686-.268,1.101-1.057.799-1.824l-.017-.043-.122-.307-.124-.306-.125-.305-.127-.304-.129-.303-.13-.303-.133-.301-.134-.3-.083-.184c-.341-.757-1.189-.983-1.845-.703.644-.343.961-1.168.588-1.892l-.088-.168-.151-.289-.153-.288-.155-.287-.156-.286-.158-.285-.159-.284-.161-.282-.163-.282-.045-.076c-.448-.739-1.311-.85-1.923-.496.611-.4.863-1.255.404-1.956l-.148-.226-.18-.27-.181-.268-.183-.266-.184-.266-.185-.265-.186-.262-.189-.262-.191-.26-.017-.025c-.209-.284-.505-.465-.848-.54-1.263-.252-2.171,1.178-1.409,2.214l.009.011.18.247.179.248.178.249.176.251.175.252.173.253.172.254.17.255.149.226c.244.374.648.597,1.092.626.292.014.556-.055.777-.183-.34.223-.59.597-.622,1.092-.015.285.05.543.192.79l.037.062.154.268.153.269.151.269.149.27.149.271.147.273.146.274.145.274.087.169c.245.458.68.729,1.197.755.217.007.418-.033.598-.11-.279.149-.513.398-.64.742-.134.346-.114.738.037,1.075l.077.169.127.286.125.286.124.287.122.289.121.289.119.289.117.291.115.292.017.042c.183.464.583.781,1.069.87.247.041.483.017.694-.056-.663.257-1.083,1.006-.826,1.765l.015.042.099.3.098.301.096.302.095.302.092.303.091.304.089.305.088.306.041.148c.123.433.431.766.849.93.27.104.54.119.789.065-.677.201-1.136.898-.97,1.656l.066.3.067.314.066.315.064.316.062.316.06.317.06.317.057.318.03.178c.149.807.866,1.226,1.547,1.152l.069-.01h0ZM139.53,112.798c-.333.055-.652.232-.886.551-.216.294-.308.649-.264,1.01v.003s.039.324.039.324l.036.325.034.326.032.326.031.328.028.327.026.328.025.329.007.106.89-4.283h0ZM138.777,156.311c0,1.311,1.648,1.908,2.489.894.208-.257.32-.562.32-.894v-2.81c0-1.311-1.648-1.907-2.489-.894-.208.257-.32.562-.32.894v2.81h0ZM138.777,150.692c0,1.311,1.648,1.907,2.489.894.208-.257.32-.562.32-.894v-2.81c0-1.311-1.648-1.907-2.489-.894-.208.256-.32.562-.32.894v2.81h0ZM138.777,145.073c0,1.311,1.648,1.908,2.489.894.208-.257.32-.562.32-.894v-2.81c0-1.311-1.648-1.907-2.489-.894-.208.257-.32.562-.32.894v2.81h0ZM138.777,139.454c0,1.311,1.648,1.907,2.489.894.208-.256.32-.562.32-.894v-2.81c0-1.311-1.648-1.907-2.489-.893-.208.256-.32.562-.32.893v2.81h0ZM138.777,133.834c0,1.311,1.648,1.908,2.489.894.208-.257.32-.562.32-.894v-2.809c0-1.311-1.648-1.908-2.489-.894-.208.257-.32.562-.32.894v2.809h0ZM138.777,128.215c0,1.311,1.648,1.907,2.489.894.208-.256.32-.562.32-.894v-2.81c0-1.311-1.648-1.907-2.489-.894-.208.256-.32.562-.32.894v2.81h0ZM138.777,122.596c0,1.311,1.648,1.907,2.489.894.208-.257.32-.562.32-.894v-1.986s-.004-.352-.004-.352l-.006-.351-.003-.155c-.043-1.4-1.871-1.888-2.606-.694-.142.239-.207.484-.203.762l.004.138.005.334.003.334v.334s0,1.635,0,1.635h0ZM126.794,86.997c.865,1.03,2.531.394,2.486-.957-.016-.31-.123-.594-.321-.834l-.191-.233-.205-.247-.207-.245-.208-.244-.209-.243-.211-.241-.212-.24-.213-.239-.215-.237-.014-.015c-.499-.532-1.297-.607-1.881-.169-.035.026-.068.054-.1.083.23-.23.386-.545.404-.922.014-.41-.127-.784-.422-1.073l-.207-.203-.228-.223-.231-.221-.231-.219-.233-.218-.233-.216-.235-.215-.236-.213-.237-.212-.035-.031c-.647-.557-1.524-.403-1.996.146.107-.131.194-.285.254-.459.182-.563-.004-1.173-.469-1.54l-.195-.154-.25-.195-.252-.194-.253-.192-.254-.19-.255-.189-.256-.187-.258-.187-.258-.184-.08-.057c-.684-.48-1.551-.242-1.966.358.237-.362.314-.837.109-1.323-.12-.268-.299-.477-.548-.633l-.159-.099-.27-.166-.271-.165-.272-.163-.273-.161-.274-.16-.275-.158-.275-.156-.277-.154-.144-.079c-.468-.251-1.016-.227-1.458.068-.199.137-.35.31-.452.501.323-.664.089-1.531-.661-1.887l-.109-.053-.287-.135-.289-.133-.289-.131-.291-.13-.291-.127-.292-.126-.293-.124-.293-.122-.208-.085c-.524-.206-1.077-.099-1.492.279-.152.146-.265.315-.338.494.244-.711-.12-1.529-.878-1.786l-.069-.024-.303-.101-.304-.1-.305-.098-.305-.096-.307-.094-.307-.092-.308-.09-.309-.088-.249-.069c-.665-.18-1.356.139-1.648.764-.358.8.059,1.704.902,1.945l.232.064.291.083.29.085.289.086.288.088.288.091.287.092.286.094.285.096.069.024c.587.199,1.239-.011,1.598-.518.063-.091.115-.185.155-.283-.23.671.075,1.458.802,1.756l.191.079.277.115.276.117.275.119.274.12.274.123.272.124.272.126.272.127.11.052c.436.208.936.174,1.347-.079.218-.138.381-.32.49-.522-.31.64-.104,1.462.592,1.846l.128.07.262.146.261.148.26.149.259.151.259.153.257.154.257.156.255.157.158.099c.714.434,1.506.164,1.898-.4-.156.238-.242.531-.221.856.036.433.239.806.597,1.057l.066.047.244.174.243.176.242.178.241.179.24.181.239.182.238.184.237.185.194.154c.625.481,1.46.359,1.93-.187-.212.259-.336.601-.31.995.03.369.196.703.475.948l.022.02.226.201.224.202.223.204.222.205.22.206.22.208.218.209.217.211.207.203c.578.566,1.428.495,1.941.021-.531.525-.568,1.383-.048,1.951l.003.003.203.225.202.226.201.227.199.229.199.23.197.231.195.232.195.234.19.232h0ZM99.475,70.043c.54.109,1.062-.086,1.404-.517.627-.831.193-2.011-.822-2.233l-.064-.013-.316-.066-.317-.064-.317-.061-.318-.06-.318-.058-.319-.056-.32-.053-.321-.051-.234-.036c-.816-.125-1.476.46-1.596,1.166.059-.73-.469-1.439-1.278-1.514l-.132-.012-.327-.028-.328-.025-.328-.023-.329-.021-.329-.019-.33-.017-.33-.015-.331-.012-.124-.004c-.837-.025-1.418.646-1.442,1.367-.005-.354-.144-.712-.446-.995-.275-.257-.63-.39-1.006-.378l-.305.009-.331.012-.33.015-.33.017-.33.019-.328.021-.329.023-.327.025-.271.023c-.859.079-1.343.83-1.273,1.547-.047-.394-.26-.773-.663-1.021-.285-.17-.608-.24-.938-.189l-.102.015-.321.049-.32.051-.32.053-.319.055-.319.058-.317.06-.318.061-.316.064-.194.041c-.823.18-1.23.958-1.084,1.662-.089-.334-.304-.643-.655-.848-.333-.189-.703-.238-1.074-.138l-.123.034-.309.086-.309.088-.308.09-.307.092-.307.094-.305.096-.305.098-.304.1-.192.064c-.396.134-.716.44-.862.832-.123.324-.119.648-.023.934-.279-.674-1.063-1.064-1.826-.764l-.089.036-.294.121-.295.123-.293.124-.292.126-.291.127-.29.13-.289.131-.289.134-.226.106c-1.186.563-1.018,2.308.258,2.632.316.08.65.046.945-.093l.209-.099.272-.125.273-.124.274-.123.274-.12.275-.119.276-.117.277-.115.278-.114.089-.036c.477-.195.8-.618.866-1.129.025-.221.001-.43-.062-.619.265.64.996,1.06,1.754.803l.175-.059.286-.094.287-.092.287-.09.289-.088.289-.086.29-.085.291-.083.291-.081.124-.033c.781-.223,1.142-.976,1.002-1.649.081.309.273.599.584.811.323.209.686.278,1.065.202l.176-.037.299-.06.299-.058.3-.056.3-.054.302-.052.302-.05.302-.048.303-.046.102-.015c.816-.126,1.256-.849,1.189-1.538.044.377.242.743.62.995.269.174.576.256.896.227l.252-.021.31-.024.309-.022.31-.02.31-.018.311-.016.311-.014.312-.012.305-.01c.805-.024,1.332-.678,1.356-1.367.004.318.118.643.368.916.258.284.615.445.999.457l.105.003.312.012.311.014.311.016.311.018.31.02.309.022.31.024.308.026.133.012c.526.049,1.031-.208,1.314-.652.103-.165.166-.339.196-.514-.024.287.042.587.221.863.217.343.574.569.974.63l.217.033.302.048.302.05.301.052.301.054.3.056.299.059.299.06.298.062.064.014h0ZM67.777,74.705c1.211-.668.836-2.497-.541-2.632-.281-.028-.556.033-.805.165l-.031.017-.277.153-.277.154-.276.156-.274.158-.274.159-.273.162-.273.163-.27.165-.268.165c-.792.495-.893,1.591-.212,2.227.472.431,1.148.491,1.692.161l.254-.156.256-.155.257-.154.258-.152.259-.151.261-.149.261-.148.262-.146.263-.144.031-.017h0ZM63.144,77.578c1.124-.806.538-2.573-.846-2.55-.287.009-.544.093-.779.258l-.228.161-.259.185-.257.186-.256.187-.255.189-.254.19-.253.192-.252.194-.251.195-.052.041c-.674.542-.661,1.421-.221,1.98-.48-.556-1.368-.686-1.997-.134l-.171.15-.237.212-.236.214-.235.215-.233.216-.233.218-.231.219-.23.22-.229.222-.077.077c-.387.378-.515.947-.342,1.457.073.21.187.388.329.532-.316-.297-.77-.455-1.286-.334-.278.071-.511.207-.706.419l-.136.148-.215.238-.213.238-.212.24-.211.241-.209.243-.208.245-.207.245-.205.246-.076.092c-.889,1.106.215,2.677,1.558,2.214.247-.09.451-.232.618-.436l.065-.079.194-.234.196-.232.197-.231.198-.23.2-.229.201-.228.202-.226.203-.225.136-.148c.559-.622.434-1.453-.052-1.942.523.492,1.387.531,1.953-.023l.066-.064.216-.21.219-.21.219-.207.221-.206.222-.205.223-.204.224-.202.225-.201.171-.15c.345-.31.511-.742.465-1.203-.032-.279-.138-.52-.29-.714.27.311.68.509,1.179.468.279-.027.526-.126.748-.299l.039-.031.237-.185.238-.183.238-.182.241-.181.24-.178.243-.178.243-.176.244-.175.228-.161h0ZM51.468,89c.742-1.009-.124-2.422-1.364-2.216-.363.06-.685.26-.902.556l-.126.17-.189.26-.188.262-.186.263-.185.265-.184.266-.183.267-.181.268-.18.269-.05.075c-.299.457-.305,1.036-.022,1.502.113.185.261.333.426.441-.336-.204-.763-.271-1.203-.108-.304.11-.564.331-.727.61l-.136.232-.163.281-.161.283-.159.284-.158.285-.156.286-.155.287-.153.288-.152.289c-.598,1.156.551,2.432,1.779,1.949.318-.137.549-.344.713-.65l.144-.274.145-.274.147-.273.149-.271.15-.27.151-.27.153-.269.154-.267.137-.232c.413-.714.122-1.51-.458-1.89.616.373,1.472.234,1.906-.431l.04-.061.171-.255.172-.255.173-.253.175-.252.176-.251.178-.25.179-.248.18-.248.126-.171h0ZM45.919,98.419c.498-1.108-.533-2.279-1.698-1.923-.383.125-.692.388-.858.758l-.026.057-.136.3-.133.3-.133.301-.131.303-.128.303-.127.304-.125.305-.124.307-.069.173c-.209.531-.076,1.136.337,1.531.131.125.277.219.432.282-.316-.105-.677-.099-1.027.067-.352.166-.61.458-.735.826l-.077.23-.104.316-.103.317-.101.317-.1.319-.097.319-.096.32-.094.321-.082.288c-.334,1.17.901,2.188,1.986,1.635.352-.176.61-.495.718-.872l.078-.271.089-.306.091-.304.092-.303.095-.303.096-.302.098-.301.099-.3.077-.229c.258-.759-.169-1.483-.807-1.748.676.223,1.466-.096,1.75-.82l.063-.159.117-.29.119-.29.121-.289.122-.288.124-.287.125-.286.127-.286.129-.284.026-.058h0ZM42.411,108.771c.3-1.369-1.356-2.287-2.358-1.308-.195.196-.319.42-.382.689l-.039.171-.074.33-.071.331-.069.331-.067.332-.065.333-.063.333-.061.334-.059.325c-.233,1.381,1.462,2.218,2.418,1.193.187-.204.299-.436.35-.707l.055-.309.059-.317.061-.316.062-.316.064-.315.065-.315.068-.314.069-.312.039-.172h0ZM41.462,114.163c.153-1.239-1.284-2.048-2.269-1.269-.291.231-.475.563-.52.932l-.024.199-.04.341-.039.342-.035.343-.035.343-.031.343-.03.345-.028.345-.02.262c-.092,1.205,1.299,1.954,2.262,1.212.317-.245.51-.61.541-1.009l.017-.245.027-.328.028-.328.03-.327.033-.326.034-.326.036-.325.038-.325.024-.199h0ZM41.058,119.622c.021-1.318-1.622-1.937-2.477-.932-.209.252-.326.553-.331.881l-.007.336-.006.351-.003.352v.352s0,1.445,0,1.445c0,1.311,1.647,1.907,2.489.894.208-.257.32-.562.32-.894v-1.779s.004-.334.004-.334l.005-.334.007-.336h0ZM41.042,125.215c0-1.311-1.647-1.907-2.489-.894-.208.256-.32.562-.32.894v2.81c0,1.311,1.647,1.907,2.489.893.208-.256.32-.562.32-.893v-2.81h0ZM41.042,130.835c0-1.312-1.647-1.908-2.489-.894-.208.257-.32.562-.32.894v2.81c0,1.311,1.647,1.907,2.489.894.208-.257.32-.562.32-.894v-2.81h0ZM41.042,136.454c0-1.311-1.647-1.907-2.489-.893-.208.256-.32.562-.32.893v2.81c0,1.311,1.647,1.907,2.489.894.208-.256.32-.562.32-.894v-2.81h0ZM41.042,142.074c0-1.311-1.647-1.908-2.489-.894-.208.257-.32.562-.32.894v2.81c0,1.311,1.647,1.907,2.489.894.208-.256.32-.562.32-.894v-2.81h0ZM41.042,147.693c0-1.311-1.647-1.907-2.489-.894-.208.256-.32.562-.32.894v2.81c0,1.311,1.647,1.907,2.489.894.208-.256.32-.562.32-.894v-2.81h0ZM41.042,153.312c0-1.311-1.647-1.907-2.489-.894-.208.257-.32.562-.32.894v2.81c0,1.311,1.647,1.907,2.489.894.208-.257.32-.562.32-.894v-2.81Z" fill-rule="evenodd" fill="#282828" />
  </g>
</svg>