<?xml version='1.0' encoding='utf-8'?>
<svg xmlns="http://www.w3.org/2000/svg" id="Layer_2" data-name="Layer 2" viewBox="0 0 179.819 130.727">
  <g id="Color" fill="#00ABF6">
    <path d="M54.298,60.504l-24.206.096c.759,2.632,1.074,5.287,1.044,7.945-.037,3.268-.593,6.528-1.482,9.749-3.592,13.01-6.859,26.274-10.113,39.484l-.196.794h20.301l14.652-58.069h0ZM32.396,106.006c1.035,0,1.873.838,1.873,1.873s-.838,1.873-1.873,1.873-1.873-.838-1.873-1.873.839-1.873,1.873-1.873h0ZM40.096,72.469c1.034,0,1.873.839,1.873,1.873s-.839,1.873-1.873,1.873-1.874-.838-1.874-1.873.839-1.873,1.874-1.873Z" fill-rule="evenodd" />
  </g>
  <g id="Grey" fill="#282828">
    <path d="M106.351,48.383c0-1.552-1.257-2.81-2.809-2.81s-2.81,1.258-2.81,2.81v18.83c0,2.153-.743,4.087-1.94,5.469-1.102,1.271-2.594,2.06-4.209,2.06h-33.281c-1.552,0-2.809,1.258-2.809,2.81s1.258,2.81,2.809,2.81h33.281c3.312,0,6.3-1.538,8.446-4.014,2.05-2.366,3.323-5.601,3.323-9.134v-18.83Z" />
    <path d="M79.8,51.325c.346-1.509-.598-3.013-2.107-3.358-1.509-.346-3.013.598-3.358,2.107-.011.045-3.813,15.8,8.991,22.769,1.357.739,3.058.238,3.797-1.12.74-1.358.238-3.058-1.119-3.797-9.019-4.908-6.211-16.567-6.204-16.6Z" />
    <path d="M69.306,50.7l-18.66,73.958c-.842,3.335-4.237,6.069-7.575,6.069H9.888c-3.338,0-5.391-2.73-4.563-6.069,2.807-11.311,9.81-38.287,12.617-49.599,5.049-16.582-7.497-16.839-7.497-28.025v-9.676h122.985v13.341h-64.124ZM28.155,57.809v-.005c-.776.003-1.402.634-1.399,1.411,0,.213.049.416.135.597,1.052,2.866,1.48,5.782,1.447,8.712-.034,2.994-.552,6.017-1.383,9.025-3.621,13.117-6.885,26.366-10.135,39.561l-.624,2.534h-.003c-.185.752.275,1.514,1.028,1.699.122.029.244.042.363.041h23.156c.684,0,1.253-.489,1.379-1.136l15.343-60.805h.002c.19-.751-.266-1.516-1.019-1.706-.16-.04-.32-.051-.476-.037l-27.813.11h0ZM136.24,37.358h34.617v2.51c0,2.015-1.65,3.665-3.665,3.665h-30.952v-6.175Z" fill-rule="evenodd" />
    <path d="M12.231,19.968c1.479,1.439,3.844,1.405,5.283-.073,1.438-1.479,1.406-3.845-.073-5.283-.02-.019-6.851-6.679-13.405-7.202C1.975,7.247.173,8.787.012,10.848c-.162,2.061,1.378,3.863,3.439,4.024,3.864.309,8.767,5.082,8.781,5.096Z" />
    <path d="M20.303,11.642c0,.775.629,1.404,1.405,1.404s1.405-.629,1.405-1.404V1.405c0-.776-.629-1.405-1.405-1.405s-1.405.629-1.405,1.405v10.238Z" />
    <path d="M33.834,13.047h-13.531V4.774h7.489c3.324,0,6.042,2.719,6.042,6.042v2.231Z" fill-rule="evenodd" />
    <path d="M161.534,13.352h-13.618v-2.475c0-3.688,3.017-6.704,6.705-6.704h.209c3.687,0,6.704,3.017,6.704,6.704v2.475Z" fill-rule="evenodd" />
    <path d="M103.471,22.869h-30.943c-3.137,0-6.001-1.145-8.087-2.988-1.997-1.766-3.285-4.168-3.44-6.833h-14.351v21.501h133.17v-16.784h-8.962v-1.052c0-2.015-1.649-3.665-3.665-3.665h-5.658v.305h-13.618v-.305h-32.923c-.169,2.665-1.44,5.065-3.42,6.828-2.076,1.848-4.934,2.994-8.102,2.994Z" fill-rule="evenodd" />
    <path d="M72.527,20.059h30.943c2.457,0,4.655-.873,6.236-2.28,1.393-1.24,2.302-2.899,2.469-4.732h-48.357c.152,1.833,1.072,3.495,2.478,4.737,1.588,1.404,3.793,2.275,6.232,2.275Z" fill-rule="evenodd" />
    <rect x="35.107" y="13.047" width="8.732" height="21.501" />
    <rect x="23.564" y="13.047" width="8.734" height="21.501" />
    <path d="M20.754,34.549V13.047h-.451s-4.648,0-4.648,0h-1.545c-2.016,0-3.665,1.649-3.665,3.665v17.836h10.309Z" fill-rule="evenodd" />
  </g>
</svg>