<?xml version='1.0' encoding='utf-8'?>
<svg xmlns="http://www.w3.org/2000/svg" id="Layer_2" data-name="Layer 2" viewBox="0 0 174.2 98.985">
  <g id="Color" fill="#00ABF6">
    <path d="M51.361,3.546h54.396c1.735,0,3.155,1.42,3.155,3.155v7.993h-60.707v-7.993c0-1.735,1.42-3.155,3.156-3.155h0ZM108.912,17.504v10.358h-60.707v-10.358h60.707ZM108.912,30.672v7.993c0,1.735-1.42,3.155-3.155,3.155h-54.396c-1.736,0-3.156-1.42-3.156-3.155v-7.993h60.707Z" fill-rule="evenodd" />
    <path d="M48.205,10.787c-3.477,1.576-12.537-3.6-13.915-8.569L26.061,0l.16,6.221s7.315,1.624,6.889,7.195c-.212,4.771,9.81,13.373,15.096,13.456V10.787Z" fill-rule="evenodd" />
  </g>
  <g id="Grey" fill="#282828">
    <path d="M61.807,44.99c.01-.128.017-.248.021-.36h-5.291c-.273.383-.453.839-.505,1.34-.004.036-1.455,12.562,9.787,14.62,1.521.279,2.98-.728,3.26-2.25.278-1.521-.729-2.98-2.25-3.26-5.373-.983-5.347-5.946-5.022-10.09Z" />
    <path d="M86.152,37.777c.03-1.545-1.198-2.823-2.744-2.853-1.545-.03-2.822,1.198-2.854,2.744l-.458,27.042h-40.073c-1.552,0-2.811,1.258-2.811,2.81s1.259,2.809,2.811,2.809h42.814c1.524,0,2.776-1.219,2.809-2.75l-2.809-.059,2.799.055.517-29.797Z" />
    <path d="M63.155,44.63c-4.841,1.518-9.332,3.806-12.635,7.219-8.943,9.244-4.244,40.66,1.992,47.137H0s7.432-9.144,12.811-17.728c7.296-11.639,4.652-11.673,6.175-23.935,1.263-10.163,7.549-22.794,26.411-25.017v6.359c0,3.286,2.679,5.965,5.965,5.965h11.794Z" fill-rule="evenodd" />
    <polygon points="111.722 11.922 174.2 11.922 174.2 33.444 111.722 33.444 111.722 27.862 111.722 11.922" fill-rule="evenodd" />
    <path d="M169.62,12.335h-17.924c0-4.949,4.013-8.962,8.962-8.962s8.962,4.013,8.962,8.962Z" fill-rule="evenodd" />
  </g>
</svg>