<?xml version='1.0' encoding='utf-8'?>
<svg xmlns="http://www.w3.org/2000/svg" id="Layer_2" data-name="Layer 2" viewBox="0 0 170.744 179.82">
  <g id="Color" fill="#00ABF6">
    <path d="M132.486,19.614l-35.855,35.855,8.332,8.333,35.856-35.856-8.333-8.333h0ZM106.942,65.781l35.856-35.855,8.332,8.333-35.855,35.856-8.333-8.333Z" fill-rule="evenodd" />
    <polygon points="124.173 11.301 132.486 19.614 121.951 30.148 124.173 11.301" fill-rule="evenodd" />
  </g>
  <g id="Grey" fill="#282828">
    <path d="M78.505,140.983c-1.162,1.024-1.273,2.797-.248,3.958,1.024,1.162,2.796,1.273,3.958.249l12.885-11.28.004.004c.876-.767,1.161-1.959.816-2.999l-4.663-19.851c-.356-1.504-1.864-2.436-3.368-2.08-1.504.355-2.435,1.864-2.08,3.368l4.333,18.444-11.637,10.188Z" />
    <path d="M73.722,125.541c-1.333-.793-3.057-.355-3.85.979-.793,1.332-.355,3.057.978,3.849.031.019,11.031,6.642,16.645,1.089,1.097-1.088,1.104-2.861.015-3.958-1.089-1.097-2.861-1.104-3.958-.016-2.486,2.46-9.81-1.93-9.831-1.943Z" />
    <path d="M0,150.324l10.903-1.827,27.669-27.669c4.246,4.246,7.099,7.099,11.345,11.344l.172.035-21.087,29.956.495,17.656L0,150.324Z" fill-rule="evenodd" />
    <path d="M38.572,120.828l-2.105-16.046,45.215-45.215,13.759,13.758-52.186,52.185-4.683-4.683h0ZM97.419,75.304l-52.185,52.185,4.682,4.683,15.075,3.076,46.186-46.186-13.759-13.758Z" fill-rule="evenodd" />
    <rect x="94.458" y="61.531" width="13.468" height="16.044" transform="translate(-19.542 91.931) rotate(-45.003)" />
    <rect x="136.704" y="10.546" width="34.855" height="12.133" transform="translate(33.398 113.854) rotate(-45)" />
    <path d="M72.074,126.519l-7.538,7.538,11.371,36.086s1.888,2.031,7.42-2.801c3.572-3.121,9.118-3.041,9.867-4.422.411-.758-.174-1.969-2.38-4.415-3.412-3.782-10.373-16.106-13.82-22.487-2.846-5.27-4.919-9.499-4.919-9.499Z" fill-rule="evenodd" />
    <path d="M102.198,96.73l-13.891,13.891s34.83,31.68,42.55,21.883l11.622-16.56c-15.858,2.216-40.281-19.214-40.281-19.214Z" fill-rule="evenodd" />
    <rect x="49.917" y="72.643" width="13.395" height="10.745" transform="translate(-38.583 62.883) rotate(-45)" />
    <rect x="26.485" y="63.376" width="43.883" height="12.903" transform="translate(-35.191 54.694) rotate(-45)" />
    <rect x="25.51" y="84.104" width="9.447" height="7.831" transform="translate(-53.384 47.159) rotate(-45)" />
    <polygon points="67.843 59.539 76.593 54.928 63.326 41.661 58.714 50.41 67.843 59.539" fill-rule="evenodd" />
  </g>
</svg>