<?xml version='1.0' encoding='utf-8'?>
<svg xmlns="http://www.w3.org/2000/svg" id="Layer_2" data-name="Layer 2" viewBox="0 0 179.82 128.194">
  <g id="Color" fill="#00ABF6">
    <path d="M174.027,58.156c0-1.571-1.274-2.846-2.845-2.846s-2.845,1.274-2.845,2.846v57.129c0,1.571,1.274,2.846,2.845,2.846s2.845-1.274,2.845-2.846v-57.129Z" />
    <path d="M171.182,8.046c4.771,0,8.638,11.602,8.638,25.914s-3.867,25.914-8.638,25.914-8.638-11.602-8.638-25.914,3.868-25.914,8.638-25.914h0ZM171.182,26.785c-1.047,0-1.897,3.212-1.897,7.175s.85,7.175,1.897,7.175,1.896-3.212,1.896-7.175-.849-7.175-1.896-7.175Z" fill-rule="evenodd" />
  </g>
  <g id="Grey" fill="#282828">
    <path d="M104.981,27.611l-44.251,7.79c-1.39-.608-2.582-1.266-4.141-1.266h-16.534c-3.321,0-6.041,2.717-6.041,6.037v44.497c0,2.881,2.056,4.62,3.81,6.629l-5.108,15.689-27.419,6.263c-8.126,1.856-6.835,13.919,3.416,11.581l28.296-6.455c2.769-.632,4.856-1.06,5.988-3.999l7.643-23.499,29.03,6.1c3.136,9.088,6.575,17.972,9.303,26.956,2.259,7.438,13.666,4.404,11.556-3.482l-9.994-28.997c-.374-1.084-.947-2.897-1.718-3.736-.68-.741-1.593-1.472-2.599-1.687l-23.573-4.945v-33.75l44.964-7.907c5.502-.968,8.836-11.734-2.627-11.817Z" fill-rule="evenodd" />
    <polygon points="111.952 33.322 103.966 28.758 107.733 20.658 108.193 19.609 109.326 19.609 126.063 19.609 127.806 19.609 127.806 21.353 127.806 24.226 127.806 25.938 120.576 25.962 114.58 28.508 111.952 33.322" />
    <path d="M62.206,12.778c0,7.579-6.163,17.641-13.742,17.641s-13.75-10.062-13.75-17.641S40.885,0,48.464,0s13.742,5.199,13.742,12.778Z" />
  </g>
</svg>