<?xml version='1.0' encoding='utf-8'?>
<svg xmlns="http://www.w3.org/2000/svg" id="Layer_2" data-name="Layer 2" viewBox="0 0 123.564 69.757">
  <g id="Color" fill="#00ABF6">
    <path d="M43.114,4.733H4.637C2.076,4.733,0,6.809,0,9.37h38.478c2.561,0,4.637-2.076,4.637-4.637Z" />
    <path d="M85.086,9.37h38.478c0-2.561-2.076-4.637-4.637-4.637h-38.478c0,2.561,2.076,4.637,4.637,4.637Z" />
    <path d="M72.131,42.179h-20.698c-1.9,0-3.44,1.54-3.44,3.44v20.698c0,1.9,1.54,3.44,3.44,3.44h20.698c1.9,0,3.44-1.54,3.44-3.44v-20.698c0-1.9-1.54-3.44-3.44-3.44ZM61.782,66.182c-5.641,0-10.214-4.573-10.214-10.214s4.573-10.214,10.214-10.214,10.214,4.573,10.214,10.214-4.573,10.214-10.214,10.214Z" />
    <path d="M65.034,55.742c-1.671,0-3.026-1.355-3.026-3.026,0-1.2.704-2.227,1.716-2.717-.612-.199-1.263-.31-1.942-.31-3.467,0-6.278,2.811-6.278,6.278s2.811,6.278,6.278,6.278,6.278-2.811,6.278-6.278c0-.678-.111-1.33-.31-1.942-.489,1.012-1.517,1.716-2.717,1.716Z" />
  </g>
  <g id="Grey" fill="#282828">
    <path d="M76.49,12.031h0c0-6.644-5.386-12.031-12.031-12.031h-5.354c-6.644,0-12.031,5.386-12.031,12.031h0c9.8-1.185,19.616-1.185,29.416,0Z" />
    <path d="M95.961,21.984c-22.786-6.765-45.572-6.765-68.358,0v-8.557h-12.091v17.807c0,3.329,2.604,6.184,5.933,6.245,3.391.062,6.159-2.668,6.159-6.045v-.475h9.012l-10.983,15.405c-.524.735-.87,1.584-1.008,2.476l-2.633,16.977c-.321,2.07,1.28,3.939,3.375,3.939,1.541,0,2.891-1.031,3.295-2.518l4.229-15.525,12.711-13.8h32.361l12.711,13.8,4.229,15.525c.405,1.486,1.755,2.518,3.296,2.518,2.095,0,3.696-1.869,3.375-3.939l-2.633-16.977c-.138-.893-.484-1.741-1.008-2.476l-10.983-15.405h9.012v.274c0,3.329,2.604,6.184,5.933,6.245,3.391.062,6.159-2.668,6.159-6.045V13.427h-12.091v8.557Z" />
  </g>
</svg>