<?xml version='1.0' encoding='utf-8'?>
<svg xmlns="http://www.w3.org/2000/svg" id="Layer_2" data-name="Layer 2" viewBox="0 0 122.521 97.266">
  <g id="Color" fill="#00ABF6">
    <path d="M42.751,4.693H4.598C2.058,4.693,0,6.752,0,9.291h38.153c2.539,0,4.598-2.059,4.598-4.598Z" />
    <path d="M84.368,9.291h38.153c0-2.539-2.058-4.598-4.598-4.598h-38.153c0,2.539,2.058,4.598,4.597,4.598Z" />
    <path d="M83.038,52.04h-16.02v9.154c0,.695-.903.969-1.292.39l-1.324-1.988c-.301-.447-.974-.407-1.217.08l-1.452,2.904c-.221.447-.832.522-1.16.146l-1.799-2.073c-.292-.337-.82-.321-1.092.032l-.912,1.186c-.407.536-1.261.243-1.261-.429v-9.402h-16.025c-1.469,0-2.66,1.191-2.66,2.66v39.907c0,1.469,1.191,2.66,2.66,2.66h43.554c1.469,0,2.66-1.191,2.66-2.66v-39.907c0-1.469-1.191-2.66-2.66-2.66ZM78.622,93.167h-20.216c-1.428,0-2.587-1.158-2.587-2.587s1.158-2.587,2.587-2.587h.504v-9.622h-2.326c-.306,0-.475-.355-.283-.593l4.915-6.07c.147-.177.421-.177.562,0l4.915,6.07c.193.238.023.593-.283.593h-2.327v9.622h8.862v-9.622h-2.326c-.306,0-.476-.355-.283-.593l4.914-6.069c.142-.177.421-.177.562,0l4.914,6.069c.193.238.023.593-.283.593h-2.326v9.622h.504c1.428,0,2.587,1.158,2.587,2.587s-1.158,2.587-2.587,2.587Z" />
  </g>
  <g id="Grey" fill="#282828">
    <path d="M75.845,11.929h0c0-6.588-5.341-11.929-11.929-11.929h-5.309c-6.588,0-11.929,5.341-11.929,11.929h0c9.717-1.175,19.45-1.175,29.168,0Z" />
    <path d="M95.151,21.799c-22.594-6.708-45.188-6.708-67.781,0v-8.485h-11.989v17.656c0,3.301,2.582,6.132,5.882,6.193,3.362.062,6.107-2.645,6.107-5.994v-.471h8.936l-10.891,15.275c-.52.729-.862,1.57-1,2.456l-2.611,16.834c-.318,2.053,1.269,3.906,3.347,3.906h0c1.528,0,2.866-1.023,3.268-2.497l4.193-15.394,12.604-13.684h32.088l12.604,13.684,4.193,15.394c.401,1.474,1.74,2.497,3.268,2.497,2.077,0,3.665-1.853,3.347-3.906l-2.611-16.834c-.137-.885-.48-1.726-1-2.456l-10.891-15.275h8.936v.272c0,3.301,2.582,6.132,5.882,6.193,3.362.062,6.107-2.645,6.107-5.994V13.314h-11.989v8.485Z" />
  </g>
</svg>