<?xml version='1.0' encoding='utf-8'?>
<svg xmlns="http://www.w3.org/2000/svg" id="Layer_2" data-name="Layer 2" viewBox="0 0 125.674 108.054">
  <g id="Color" fill="#00ABF6">
    <path d="M40.791,3.23v-.5H5.622C2.522,2.73,0,5.252,0,8.352v.5h35.168c3.101,0,5.623-2.522,5.623-5.622Z" />
    <path d="M120.051,2.73h-35.169v.5c0,3.1,2.522,5.622,5.623,5.622h35.169v-.5c0-3.1-2.522-5.622-5.623-5.622Z" />
    <path d="M42.431,76.6c-5.557,0-10.062,4.505-10.062,10.062s4.505,10.062,10.062,10.062,10.062-4.505,10.062-10.062-4.505-10.062-10.062-10.062ZM42.431,92.34c-3.136,0-5.678-2.542-5.678-5.677s2.542-5.678,5.678-5.678,5.677,2.542,5.677,5.678-2.542,5.677-5.677,5.677Z" />
    <path d="M70.868,80.049c0,1.908,1.547,3.455,3.455,3.455s3.455-1.547,3.455-3.455-1.547-3.455-3.455-3.455-3.455,1.547-3.455,3.455Z" />
    <path d="M74.323,89.81c-1.908,0-3.455,1.547-3.455,3.455s1.547,3.455,3.455,3.455,3.455-1.547,3.455-3.455-1.547-3.455-3.455-3.455Z" />
    <path d="M80.93,83.202c-1.908,0-3.455,1.547-3.455,3.455s1.547,3.455,3.455,3.455,3.455-1.547,3.455-3.455-1.547-3.455-3.455-3.455Z" />
    <path d="M67.715,83.202c-1.908,0-3.455,1.547-3.455,3.455s1.547,3.455,3.455,3.455,3.455-1.547,3.455-3.455-1.547-3.455-3.455-3.455Z" />
    <path d="M58.379,62.127c-2.245,0-4.064,1.82-4.064,4.064s1.82,4.065,4.064,4.065,4.064-1.82,4.064-4.065-1.82-4.064-4.064-4.064Z" />
    <circle cx="71.779" cy="66.191" r="4.065" />
    <circle cx="44.98" cy="66.191" r="4.065" />
  </g>
  <g id="Grey" fill="#282828">
    <path d="M77.086,13.292h0c0-7.341-5.951-13.292-13.292-13.292h-1.916c-7.341,0-13.292,5.951-13.292,13.292h0c10.827-1.309,17.672-1.31,28.499,0Z" />
    <path d="M98.599,24.289c-25.174-7.474-46.349-7.474-71.523,0v-9.454h-13.359v19.895c0,3.689,2.991,6.679,6.679,6.679s6.679-2.99,6.679-6.679v-.524h19.565v6.403c0,1.768,1.433,3.202,3.202,3.202h25.989c1.768,0,3.202-1.433,3.202-3.202v-6.403h19.565v.524c0,3.689,2.99,6.679,6.679,6.679s6.679-2.99,6.679-6.679V14.835h-13.359v9.454Z" />
    <path d="M100.691,50.996H24.982c-3.219,0-5.829,2.61-5.829,5.829v45.4c0,3.219,2.61,5.829,5.829,5.829h75.709c3.219,0,5.829-2.61,5.829-5.829v-45.4c0-3.219-2.61-5.829-5.829-5.829ZM91.891,99.796c0,1.341-1.087,2.429-2.429,2.429H27.297c-1.341,0-2.429-1.087-2.429-2.429v-40.542c0-1.341,1.087-2.429,2.429-2.429h62.165c1.341,0,2.429,1.087,2.429,2.429v40.542ZM101.374,84.086c0,1.198-.971,2.169-2.169,2.169s-2.169-.971-2.169-2.169v-9.122c0-1.198.971-2.169,2.169-2.169s2.169.971,2.169,2.169v9.122Z" />
  </g>
</svg>