<?xml version='1.0' encoding='utf-8'?>
<svg xmlns="http://www.w3.org/2000/svg" id="Layer_2" data-name="Layer 2" viewBox="0 0 98.68 123.242">
  <g id="Color" fill="#00ABF6">
    <circle cx="28.117" cy="61.931" r="8.354" transform="translate(-35.557 38.021) rotate(-45)" />
    <path d="M74.19,58.305v-6.12c-1.129-.424-2.349-.653-3.627-.653s-2.498.229-3.627.653v6.12h-6.12c-.424,1.129-.653,2.349-.653,3.627s.229,2.498.653,3.627h6.12v6.12c1.129.424,2.349.653,3.627.653s2.498-.229,3.627-.653v-6.12h6.12c.424-1.129.653-2.349.653-3.627s-.229-2.498-.653-3.627h-6.12Z" />
    <path d="M30.987,102.302h-4.011v6.143c0,1.107.898,2.006,2.006,2.006h6.137v-4.011h-4.131v-4.137Z" />
    <path d="M69.696,86.67h-6.137v4.011h4.132v4.137h4.011v-6.143c0-1.108-.898-2.006-2.006-2.006Z" />
    <path d="M67.69,106.44h-4.132v4.011h6.137c1.108,0,2.006-.898,2.006-2.006v-6.143h-4.011v4.137Z" />
    <path d="M26.976,88.676v6.143h4.011v-4.137h4.131v-4.011h-6.137c-1.108,0-2.006.898-2.006,2.006Z" />
  </g>
  <g id="Grey" fill="#282828">
    <path d="M92.949,38.625h-19.833c0-2.951-2.392-5.343-5.343-5.343h-14.095v-12.825c4.051-1.802,6.778-6.042,6.299-10.861-.493-4.952-4.471-8.981-9.416-9.529-6.451-.714-11.912,4.317-11.912,10.624,0,4.359,2.612,8.102,6.353,9.766v12.825h-14.095c-2.951,0-5.343,2.392-5.343,5.343H5.73c-3.165,0-5.73,2.566-5.73,5.73v73.156c0,3.165,2.565,5.73,5.73,5.73h87.219c3.165,0,5.73-2.565,5.73-5.73V44.356c0-3.165-2.566-5.73-5.73-5.73ZM13.788,61.931c0-7.913,6.415-14.329,14.329-14.329s14.329,6.415,14.329,14.329-6.415,14.329-14.329,14.329-14.329-6.415-14.329-14.329ZM76.002,108.445c0,3.481-2.822,6.303-6.303,6.303H28.981c-3.481,0-6.303-2.822-6.303-6.303v-19.769c0-3.481,2.822-6.303,6.303-6.303h40.717c3.481,0,6.303,2.822,6.303,6.303v19.769ZM70.563,76.26c-7.914,0-14.329-6.415-14.329-14.329s6.415-14.329,14.329-14.329,14.329,6.415,14.329,14.329-6.415,14.329-14.329,14.329Z" />
  </g>
</svg>