<?xml version='1.0' encoding='utf-8'?>
<svg xmlns="http://www.w3.org/2000/svg" id="Layer_2" data-name="Layer 2" viewBox="0 0 124.524 97.703">
  <g id="Color" fill="#00ABF6">
    <path d="M75.797,66.381h-11.734l6.621-19.088c.483-1.421-1.362-2.461-2.315-1.304l-21.724,26.383c-1.45,1.758-.19,4.409,2.08,4.409h11.719l-6.636,19.132c-.483,1.421,1.362,2.446,2.315,1.289,7.251-8.804,14.502-17.608,21.754-26.412,1.45-1.758.19-4.409-2.08-4.409Z" />
    <path d="M43.449,4.77H4.673C2.092,4.77,0,6.862,0,9.443h38.776c2.581,0,4.673-2.092,4.673-4.673Z" />
    <path d="M85.747,9.443h38.776c0-2.581-2.092-4.673-4.673-4.673h-38.777c0,2.581,2.092,4.673,4.673,4.673Z" />
  </g>
  <g id="Grey" fill="#282828">
    <path d="M77.084,12.124c0-6.696-5.428-12.124-12.124-12.124h-5.396c-6.696,0-12.124,5.428-12.124,12.124h0c9.876-1.194,19.768-1.194,29.644,0Z" />
    <path d="M96.706,22.155c-22.963-6.817-45.926-6.817-68.889,0v-8.623h-12.185v17.945c0,3.355,2.624,6.232,5.978,6.294,3.417.062,6.207-2.689,6.207-6.092v-.478h9.082l-11.069,15.525c-.529.741-.877,1.596-1.016,2.496l-2.653,17.109c-.324,2.086,1.29,3.97,3.401,3.97,1.553,0,2.913-1.039,3.321-2.537l4.262-15.645,12.81-13.907h32.612l12.81,13.907,4.262,15.645c.408,1.498,1.768,2.537,3.321,2.537,2.111,0,3.725-1.883,3.401-3.97l-2.653-17.109c-.14-.9-.488-1.754-1.016-2.496l-11.069-15.525h9.082v.276c0,3.355,2.625,6.232,5.979,6.294,3.417.062,6.207-2.689,6.207-6.092V13.532h-12.185v8.623Z" />
  </g>
</svg>