<?xml version='1.0' encoding='utf-8'?>
<svg xmlns="http://www.w3.org/2000/svg" id="Layer_2" data-name="Layer 2" viewBox="0 0 125.578 93.414">
  <g id="Color" fill="#00ABF6">
    <path d="M45.841,4.542H8.918c-2.457,0-4.449,1.992-4.449,4.449h36.923c2.457,0,4.449-1.992,4.449-4.449Z" />
    <path d="M84.186,8.991h36.923c0-2.457-1.992-4.449-4.449-4.449h-36.923c0,2.457,1.992,4.449,4.449,4.449Z" />
    <path d="M62.786,47.623c-3.861,0-7.67.116-11.39.341l-4.17,5.335-1.12,4.105c5.322-.508,10.933-.772,16.679-.772s11.358.264,16.686.772l-1.12-4.105-4.163-5.335c-3.726-.225-7.535-.341-11.403-.341Z" />
    <path d="M105.359,53.215c-.624-.2-1.261-.386-1.905-.573l.927,9.736c8.906,3.089,12.188,6.506,12.188,8.14,0,1.737-3.706,5.489-13.925,8.713-10.579,3.34-24.736,5.174-39.858,5.174s-29.273-1.834-39.858-5.174c-10.212-3.224-13.919-6.976-13.919-8.713,0-1.635,3.282-5.058,12.188-8.14l.927-9.736c-.643.187-1.281.373-1.905.573C3.507,58.492,0,65.538,0,70.519s3.507,12.027,20.219,17.304c11.435,3.603,26.557,5.592,42.567,5.592s31.139-1.988,42.574-5.592c16.712-5.277,20.219-12.323,20.219-17.304s-3.507-12.027-20.219-17.304Z" />
  </g>
  <g id="Grey" fill="#282828">
    <path d="M75.937,11.545c0-6.376-5.169-11.545-11.545-11.545h-3.207c-6.376,0-11.545,5.169-11.545,11.545h0c9.404-1.137,16.893-1.137,26.297,0Z" />
    <path d="M100.037,35.953c3.379.219,6.188-2.457,6.188-5.789V12.885h-11.603v8.211c-21.865-6.491-41.8-6.491-63.665,0v-8.211h-11.603v17.081c0,3.09,2.332,5.788,5.415,5.988,3.379.219,6.188-2.457,6.188-5.789v-.456h8.648l-8.391,15.24c-.224.407-.362.855-.406,1.317l-1.609,16.955c-.189,1.994,1.379,3.717,3.381,3.717,1.532,0,2.875-1.026,3.277-2.504l4.034-14.81,8.336-10.668h29.123l8.336,10.668,4.034,14.81c.403,1.478,1.745,2.504,3.277,2.504,2.003,0,3.571-1.724,3.381-3.717l-1.609-16.955c-.044-.462-.182-.911-.406-1.317l-8.391-15.24h8.648v.257c0,3.09,2.332,5.788,5.415,5.988Z" />
  </g>
</svg>