<?xml version='1.0' encoding='utf-8'?>
<svg xmlns="http://www.w3.org/2000/svg" id="Layer_2" data-name="Layer 2" viewBox="0 0 122.645 97.15">
  <g id="Color" fill="#00ABF6">
    <path d="M42.794,4.698H4.602C2.06,4.698,0,6.759,0,9.3h38.192c2.542,0,4.602-2.06,4.602-4.602Z" />
    <path d="M84.454,9.3h38.192c0-2.542-2.06-4.602-4.602-4.602h-38.192c0,2.542,2.06,4.602,4.602,4.602Z" />
    <path d="M73.409,50.668h-4.188c-.735,0-1.331-.596-1.331-1.331v-2.746c0-.735-.596-1.331-1.331-1.331h-10.473c-.735,0-1.331.596-1.331,1.331v2.746c0,.735-.596,1.331-1.331,1.331h-4.188c-.735,0-1.331.596-1.331,1.331v43.819c0,.735.596,1.331,1.331,1.331h24.173c.735,0,1.331-.596,1.331-1.331v-43.819c0-.735-.596-1.331-1.331-1.331ZM68.084,68.75h-13.523v-11.426h13.523v11.426Z" />
  </g>
  <g id="Grey" fill="#282828">
    <path d="M75.921,11.941c0-6.595-5.346-11.941-11.941-11.941h-5.314c-6.595,0-11.941,5.346-11.941,11.941h0c9.727-1.176,19.47-1.177,29.197,0Z" />
    <path d="M95.248,21.821c-22.617-6.714-45.233-6.714-67.85,0v-8.493h-12.002v17.674c0,3.304,2.585,6.138,5.888,6.199,3.365.062,6.113-2.648,6.113-6v-.471h8.945l-10.902,15.291c-.521.73-.863,1.572-1.001,2.458l-2.613,16.851c-.319,2.055,1.271,3.91,3.35,3.91,1.529,0,2.869-1.024,3.271-2.499l4.197-15.409,12.617-13.697h32.12l12.617,13.697,4.198,15.409c.402,1.475,1.742,2.499,3.271,2.499,2.079,0,3.669-1.855,3.35-3.91l-2.613-16.851c-.137-.886-.48-1.728-1-2.458l-10.902-15.291h8.945v.272c0,3.304,2.585,6.138,5.888,6.199,3.366.062,6.113-2.648,6.113-6V13.327h-12.001v8.493Z" />
  </g>
</svg>