<?xml version="1.0" encoding="UTF-8"?>
<svg id="Layer_2" data-name="Layer 2" xmlns="http://www.w3.org/2000/svg" viewBox="0 0 48 32.063">
  <g id="War_and_Army" data-name="War and Army">
    <g id="_39" data-name="39">
      <rect y="11.974" width="48" height="16.34" fill="#c7754f"/>
      <g>
        <g>
          <path d="M38.129,4.72c0-1.885,1.142-3.532,1.9-4.417.346-.404.97-.404,1.316,0,.758.885,1.9,2.532,1.9,4.417v4.871h-5.117v-4.871Z" fill="#fd982e"/>
          <rect x="38.13" y="6.963" width="5.118" height="2.629" fill="#e87f21"/>
          <g>
            <path d="M37.634,30.422v.856c0,.083.023.165.067.235l.209.337c.081.132.225.212.38.212h4.795c.155,0,.299-.08.38-.212l.209-.337c.044-.071.067-.152.067-.235v-.856s-6.107,0-6.107,0Z" fill="#fcb73e"/>
            <path d="M39.809,32.057h-1.512c-.155,0-.31-.078-.388-.213l-.213-.33c-.039-.078-.058-.155-.058-.233v-.853h1.512v.853c0,.078.019.155.058.233l.213.33c.078.136.233.213.388.213Z" fill="#fd982e"/>
            <path d="M36.851,11.584v16.649c0,.192.062.379.176.533l.606.818h6.107s.606-.818.606-.818c.114-.154.176-.341.176-.533V11.585c0-.216-.078-.425-.22-.588l-.692-.794v-1.712c0-.247-.2-.447-.447-.447h-4.958c-.247,0-.447.2-.447.447v1.712s-.689.794-.689.794c-.141.163-.219.371-.219.586Z" fill="#fcb73e"/>
            <path d="M39.713,8.041c-.252,0-.446.213-.446.446v1.726l-.698.776c-.136.175-.213.388-.213.601v16.648c0,.194.058.368.175.523l.601.814h-1.493l-.601-.814c-.116-.155-.194-.33-.194-.523V11.589c0-.213.078-.427.233-.601l.679-.776v-1.726c0-.233.213-.446.446-.446h1.512Z" fill="#fd982e"/>
            <rect x="37.759" y="9.247" width="5.852" height=".921" fill="#e83d62"/>
            <rect x="37.754" y="9.243" width="1.512" height=".931" fill="#ce2955"/>
            <rect x="37.634" y="29.584" width="6.107" height=".838" fill="#fd982e"/>
          </g>
        </g>
        <g>
          <path d="M27.007,4.72c0-1.885,1.142-3.532,1.9-4.417.346-.404.97-.404,1.316,0,.758.885,1.9,2.532,1.9,4.417v4.871h-5.117v-4.871Z" fill="#fd982e"/>
          <rect x="27.008" y="6.963" width="5.118" height="2.629" fill="#e87f21"/>
          <g>
            <path d="M26.512,30.422v.856c0,.083.023.165.067.235l.209.337c.081.132.225.212.38.212h4.795c.155,0,.299-.08.38-.212l.209-.337c.044-.071.067-.152.067-.235v-.856s-6.107,0-6.107,0Z" fill="#fcb73e"/>
            <path d="M28.687,32.057h-1.512c-.155,0-.31-.078-.388-.213l-.213-.33c-.039-.078-.058-.155-.058-.233v-.853h1.512v.853c0,.078.019.155.058.233l.213.33c.078.136.233.213.388.213Z" fill="#fd982e"/>
            <path d="M25.729,11.584v16.649c0,.192.062.379.176.533l.606.818h6.107s.606-.818.606-.818c.114-.154.176-.341.176-.533V11.585c0-.216-.078-.425-.22-.588l-.692-.794v-1.712c0-.247-.2-.447-.447-.447h-4.958c-.247,0-.447.2-.447.447v1.712s-.689.794-.689.794c-.141.163-.219.371-.219.586Z" fill="#fcb73e"/>
            <path d="M28.591,8.041c-.252,0-.446.213-.446.446v1.726l-.698.776c-.136.175-.213.388-.213.601v16.648c0,.194.058.368.175.523l.601.814h-1.493l-.601-.814c-.116-.155-.194-.33-.194-.523V11.589c0-.213.078-.427.233-.601l.679-.776v-1.726c0-.233.213-.446.446-.446h1.512Z" fill="#fd982e"/>
            <rect x="26.637" y="9.247" width="5.852" height=".921" fill="#e83d62"/>
            <rect x="26.632" y="9.243" width="1.512" height=".931" fill="#ce2955"/>
            <rect x="26.512" y="29.584" width="6.107" height=".838" fill="#fd982e"/>
          </g>
        </g>
        <g>
          <path d="M15.885,4.72c0-1.885,1.142-3.532,1.9-4.417.346-.404.97-.404,1.316,0,.758.885,1.9,2.532,1.9,4.417v4.871h-5.117v-4.871Z" fill="#fd982e"/>
          <rect x="15.886" y="6.963" width="5.118" height="2.629" fill="#e87f21"/>
          <g>
            <path d="M15.39,30.422v.856c0,.083.023.165.067.235l.209.337c.081.132.225.212.38.212h4.795c.155,0,.299-.08.38-.212l.209-.337c.044-.071.067-.152.067-.235v-.856s-6.107,0-6.107,0Z" fill="#fcb73e"/>
            <path d="M17.565,32.057h-1.512c-.155,0-.31-.078-.388-.213l-.213-.33c-.039-.078-.058-.155-.058-.233v-.853h1.512v.853c0,.078.019.155.058.233l.213.33c.078.136.233.213.388.213Z" fill="#fd982e"/>
            <path d="M14.607,11.584v16.649c0,.192.062.379.176.533l.606.818h6.107s.606-.818.606-.818c.114-.154.176-.341.176-.533V11.585c0-.216-.078-.425-.22-.588l-.692-.794v-1.712c0-.247-.2-.447-.447-.447h-4.958c-.247,0-.447.2-.447.447v1.712s-.689.794-.689.794c-.141.163-.219.371-.219.586Z" fill="#fcb73e"/>
            <path d="M17.468,8.041c-.252,0-.446.213-.446.446v1.726l-.698.776c-.136.175-.213.388-.213.601v16.648c0,.194.058.368.175.523l.601.814h-1.493l-.601-.814c-.116-.155-.194-.33-.194-.523V11.589c0-.213.078-.427.233-.601l.679-.776v-1.726c0-.233.213-.446.446-.446h1.512Z" fill="#fd982e"/>
            <rect x="15.515" y="9.247" width="5.852" height=".921" fill="#e83d62"/>
            <rect x="15.51" y="9.243" width="1.512" height=".931" fill="#ce2955"/>
            <rect x="15.39" y="29.584" width="6.107" height=".838" fill="#fd982e"/>
          </g>
        </g>
        <g>
          <path d="M4.763,4.72c0-1.885,1.142-3.532,1.9-4.417.346-.404.97-.404,1.316,0,.758.885,1.9,2.532,1.9,4.417v4.871h-5.117v-4.871Z" fill="#fd982e"/>
          <rect x="4.764" y="6.963" width="5.118" height="2.629" fill="#e87f21"/>
          <g>
            <path d="M4.268,30.422v.856c0,.083.023.165.067.235l.209.337c.081.132.225.212.38.212h4.795c.155,0,.299-.08.38-.212l.209-.337c.044-.071.067-.152.067-.235v-.856s-6.107,0-6.107,0Z" fill="#fcb73e"/>
            <path d="M6.443,32.057h-1.512c-.155,0-.31-.078-.388-.213l-.213-.33c-.039-.078-.058-.155-.058-.233v-.853h1.512v.853c0,.078.019.155.058.233l.213.33c.078.136.233.213.388.213Z" fill="#fd982e"/>
            <path d="M3.485,11.584v16.649c0,.192.062.379.176.533l.606.818h6.107s.606-.818.606-.818c.114-.154.176-.341.176-.533V11.585c0-.216-.078-.425-.22-.588l-.692-.794v-1.712c0-.247-.2-.447-.447-.447h-4.958c-.247,0-.447.2-.447.447v1.712s-.689.794-.689.794c-.141.163-.219.371-.219.586Z" fill="#fcb73e"/>
            <path d="M6.346,8.041c-.252,0-.446.213-.446.446v1.726l-.698.776c-.136.175-.213.388-.213.601v16.648c0,.194.058.368.175.523l.601.814h-1.493l-.601-.814c-.116-.155-.194-.33-.194-.523V11.589c0-.213.078-.427.233-.601l.679-.776v-1.726c0-.233.213-.446.446-.446h1.512Z" fill="#fd982e"/>
            <rect x="4.393" y="9.247" width="5.852" height=".921" fill="#e83d62"/>
            <rect x="4.388" y="9.243" width="1.512" height=".931" fill="#ce2955"/>
            <rect x="4.268" y="29.584" width="6.107" height=".838" fill="#fd982e"/>
          </g>
        </g>
      </g>
      <g>
        <rect y="14.91" width="48" height="1.76" fill="#ab604b"/>
        <rect y="23.618" width="48" height="1.76" fill="#ab604b"/>
      </g>
    </g>
  </g>
</svg>