<?xml version='1.0' encoding='utf-8'?>
<svg xmlns="http://www.w3.org/2000/svg" id="Layer_2" data-name="Layer 2" viewBox="0 0 31.999 48.003">
  <g id="War_and_Army" data-name="War and Army">
    <g id="_34" data-name="34">
      <g>
        <g>
          <path d="M30.681,15.998l-14.682,13.838L1.318,15.998H.156l15.57,14.676c.077.072.175.109.273.109s.197-.036.273-.109l15.57-14.676h-1.162Z" fill="#312e4b" filter="url(#greyscale)" />
          <path d="M25.4,15.998l-9.4,13.682L6.599,15.998h-.967l10.039,14.612c.074.108.197.173.329.173s.254-.065.329-.173l10.039-14.612h-.967Z" fill="#312e4b" filter="url(#greyscale)" />
          <path d="M19.357,15.998l-3.357,12.813-3.358-12.813h-.825l3.796,14.487c.046.175.204.298.386.298s.34-.122.386-.298l3.796-14.487h-.825Z" fill="#312e4b" filter="url(#greyscale)" />
          <path d="M31.998,15.998H0C0,7.161,7.161,0,15.997,0s16.001,7.161,16.001,15.997Z" fill="#65b9ff" filter="url(#greyscale)" />
          <path d="M16.657.012C8.124.356,1.317,7.384,1.317,15.998H.002C.002,7.163,7.161,0,15.995,0,16.216,0,16.437.004,16.657.012Z" fill="#179c5f" filter="url(#greyscale)" />
          <path d="M26.36,15.998H5.638C5.638,7.161,10.275,0,15.998,0s10.363,7.161,10.363,15.997Z" fill="#deddff" filter="url(#greyscale)" />
          <path d="M15.343.031c5.418.526,9.702,7.473,9.702,15.967h1.316C26.36,7.163,21.724,0,16.001,0c-.221,0-.441.012-.658.031Z" fill="#c6c6f7" filter="url(#greyscale)" />
          <path d="M16.657.031C11.239.557,6.956,7.503,6.956,15.998h-1.316C5.64,7.163,10.276,0,15.999,0,16.22,0,16.44.012,16.657.031Z" fill="#c6c6f7" filter="url(#greyscale)" />
          <path d="M19.951,15.998h-7.903C12.048,7.161,13.816,0,15.999,0s3.952,7.161,3.952,15.997Z" fill="#46cc6b" filter="url(#greyscale)" />
          <path d="M16.657.224c-1.869,1.265-3.293,7.848-3.293,15.773h-1.316C12.048,7.163,13.817,0,15.999,0,16.224,0,16.444.077,16.657.224Z" fill="#179c5f" filter="url(#greyscale)" />
        </g>
        <path d="M15.343.012c8.533.344,15.34,7.372,15.34,15.986h1.316C31.999,7.163,24.84,0,16.005,0c-.221,0-.441.004-.662.012Z" fill="#179c5f" filter="url(#greyscale)" />
        <g>
          <path d="M30.681,15.998l-14.682,13.838L1.318,15.998H.156l15.57,14.676c.077.072.175.109.273.109s.197-.036.273-.109l15.57-14.676h-1.162Z" fill="#312e4b" filter="url(#greyscale)" />
          <path d="M25.4,15.998l-9.4,13.682L6.599,15.998h-.967l10.039,14.612c.074.108.197.173.329.173s.254-.065.329-.173l10.039-14.612h-.967Z" fill="#312e4b" filter="url(#greyscale)" />
          <path d="M19.357,15.998l-3.357,12.813-3.358-12.813h-.825l3.796,14.487c.046.175.204.298.386.298s.34-.122.386-.298l3.796-14.487h-.825Z" fill="#312e4b" filter="url(#greyscale)" />
          <path d="M16.657.012C8.124.356,1.317,7.384,1.317,15.998H.002C.002,7.163,7.161,0,15.995,0,16.216,0,16.437.004,16.657.012Z" fill="#3e7fff" filter="url(#greyscale)" />
          <path d="M26.36,15.998H5.638C5.638,7.161,10.275,0,15.998,0s10.363,7.161,10.363,15.997Z" fill="#deddff" filter="url(#greyscale)" />
          <path d="M15.343.031c5.418.526,9.702,7.473,9.702,15.967h1.316C26.36,7.163,21.724,0,16.001,0c-.221,0-.441.012-.658.031Z" fill="#c6c6f7" filter="url(#greyscale)" />
          <path d="M16.657.031C11.239.557,6.956,7.503,6.956,15.998h-1.316C5.64,7.163,10.276,0,15.999,0,16.22,0,16.44.012,16.657.031Z" fill="#c6c6f7" filter="url(#greyscale)" />
          <path d="M19.951,15.998h-7.903C12.048,7.161,13.816,0,15.999,0s3.952,7.161,3.952,15.997Z" fill="#65b9ff" filter="url(#greyscale)" />
          <path d="M16.657.224c-1.869,1.265-3.293,7.848-3.293,15.773h-1.316C12.048,7.163,13.817,0,15.999,0,16.224,0,16.444.077,16.657.224Z" fill="#3e7fff" filter="url(#greyscale)" />
        </g>
        <path d="M15.343.012c8.533.344,15.34,7.372,15.34,15.986h1.316C31.999,7.163,24.84,0,16.005,0c-.221,0-.441.004-.662.012Z" fill="#3e7fff" filter="url(#greyscale)" />
      </g>
      <g>
        <g>
          <rect x="8.082" y="29.014" width="15.835" height="15.835" fill="#ca7147" filter="url(#greyscale)" />
          <polygon points="23.917 41.14 23.917 44.849 20.208 44.849 8.082 32.723 8.082 29.014 11.779 29.014 23.917 41.14" fill="#ab604b" filter="url(#greyscale)" />
          <g>
            <rect x="8.082" y="40.673" width="15.835" height="1.128" fill="#ab604b" filter="url(#greyscale)" />
            <rect x="8.082" y="36.367" width="15.835" height="1.128" fill="#ab604b" filter="url(#greyscale)" />
            <rect x="8.082" y="32.062" width="15.835" height="1.128" fill="#ab604b" filter="url(#greyscale)" />
          </g>
          <path d="M27.068,27.026v1.988H4.931v-1.988c0-.642.521-1.163,1.163-1.163h19.812c.642,0,1.163.521,1.163,1.163Z" fill="#ef9851" filter="url(#greyscale)" />
          <path d="M27.068,44.849v1.988c0,.642-.521,1.163-1.163,1.163H6.093c-.642,0-1.163-.521-1.163-1.163v-1.988h22.137Z" fill="#ef9851" filter="url(#greyscale)" />
          <path d="M8.082,48h-1.988c-.642,0-1.163-.521-1.163-1.163v-19.812c0-.642.521-1.163,1.163-1.163h1.988v22.137Z" fill="#ef9851" filter="url(#greyscale)" />
          <path d="M7.114,48.003h-1.02c-.64,0-1.16-.52-1.16-1.17v-19.81c0-.64.52-1.16,1.16-1.16h1.02c-.64,0-1.16.52-1.16,1.16v19.81c0,.65.52,1.17,1.16,1.17Z" fill="#ca7147" filter="url(#greyscale)" />
          <path d="M25.905,48h-1.988v-22.137h1.988c.642,0,1.163.521,1.163,1.163v19.812c0,.642-.521,1.163-1.163,1.163Z" fill="#ef9851" filter="url(#greyscale)" />
          <path d="M27.068,45.768v1.07c0,.642-.521,1.163-1.163,1.163h-1.07L4.931,28.095v-1.07c0-.642.521-1.163,1.163-1.163h1.058l19.916,19.905Z" fill="#ca7147" filter="url(#greyscale)" />
        </g>
        <path d="M27.064,46.032v.804c0,.647-.51,1.157-1.157,1.157H6.093c-.647,0-1.157-.51-1.157-1.157v-.804c0,.647.51,1.177,1.157,1.177h19.814c.647,0,1.157-.53,1.157-1.177Z" fill="#ca7147" filter="url(#greyscale)" />
      </g>
      <path d="M18.997,42.115c-2.89,1.606-6.53.642-8.136-2.195-1.659-2.837-.696-6.477,2.141-8.136,2.89-1.659,6.531-.696,8.136,2.195,1.659,2.837.696,6.477-2.141,8.136Z" fill="#deddff" filter="url(#greyscale)" />
      <path d="M21.074,40.083c-.5.81-1.2,1.51-2.08,2.03-2.89,1.61-6.53.64-8.13-2.19-1.64-2.8-.73-6.38,2.02-8.07-1.1,1.81-1.21,4.15-.06,6.11,1.6,2.83,5.24,3.8,8.13,2.19.04-.02.08-.05.12-.07Z" fill="#c6c6f7" filter="url(#greyscale)" />
      <g>
        <path d="M17.059,34.263c-.888.888-.802,2.412-.802,2.412,0,0,1.524.085,2.412-.802.593-.593.752-1.47.792-1.987.018-.236-.178-.432-.414-.414-.517.04-1.394.199-1.987.792Z" fill="#fd982e" filter="url(#greyscale)" />
        <path d="M12.548,38.462l-.269.269c-.026.026-.044.059-.053.095l-.04.172c-.016.067.004.137.053.186l1.508,1.508c.049.049.119.069.186.053l.172-.04c.036-.008.069-.027.095-.053l.269-.269-1.921-1.921Z" fill="#fcb73e" filter="url(#greyscale)" />
        <path d="M12.718,39.661l-.476-.476c-.049-.049-.073-.122-.055-.189l.037-.171c.012-.037.03-.067.055-.092l.268-.268.476.476-.268.268c-.024.024-.043.055-.055.091l-.037.171c-.018.067.006.14.055.189Z" fill="#fd982e" filter="url(#greyscale)" />
        <path d="M15.577,34.941l-2.587,2.587c-.06.06-.1.138-.112.223l-.066.448,1.921,1.921.448-.066c.084-.013.163-.052.223-.112l2.586-2.586c.068-.068.109-.158.116-.254l.032-.467.539-.539c.078-.078.078-.204,0-.281l-1.56-1.56c-.078-.078-.204-.078-.281,0l-.539.539-.466.033c-.096.007-.185.048-.253.116Z" fill="#fcb73e" filter="url(#greyscale)" />
        <path d="M17.592,34.726c-.079-.079-.207-.073-.281,0l-.543.543-.464.024c-.098.012-.189.055-.256.122l-2.586,2.586c-.061.061-.098.134-.11.22l-.067.445-.47-.47.067-.445c.012-.085.043-.165.104-.226l2.586-2.586c.067-.067.159-.11.262-.116l.457-.03.543-.543c.073-.073.207-.073.281,0l.476.476Z" fill="#fd982e" filter="url(#greyscale)" />
        <rect x="17.169" y="34.255" width=".41" height="2.604" transform="translate(-20.053 22.699) rotate(-45)" fill="#e83d62" filter="url(#greyscale)" />
        <rect x="16.482" y="34.536" width=".414" height=".673" transform="translate(-19.77 22.015) rotate(-45)" fill="#ce2955" filter="url(#greyscale)" />
        <rect x="13.454" y="37.932" width=".373" height="2.717" transform="translate(-23.787 21.153) rotate(-45)" fill="#fd982e" filter="url(#greyscale)" />
      </g>
    </g>
  </g>
<defs><filter id="greyscale"><feColorMatrix type="matrix" values="0.299 0.587 0.114 0 0 0.299 0.587 0.114 0 0 0.299 0.587 0.114 0 0 0 0 0 1 0" /></filter></defs></svg>