<?xml version="1.0" encoding="UTF-8"?>
<svg id="Layer_2" data-name="Layer 2" xmlns="http://www.w3.org/2000/svg" viewBox="0 0 41.422 48">
  <g id="War_and_Army" data-name="War and Army">
    <g id="_24" data-name="24">
      <g>
        <path d="M25.345,6.802v1.184h-8.679c-.334,0-.605-.135-.605-.302v-.579c0-.167.271-.302.605-.302h8.679Z" fill="#312e4b"/>
        <g>
          <path d="M16.223,6.211v2.368h-2.016c-.334,0-.605-.271-.605-.605v-1.159c0-.334.271-.605.605-.605h2.016Z" fill="#312e4b"/>
          <path d="M25.196,6.211v2.368s2.016,0,2.016,0c.334,0,.605-.271.605-.605v-1.159c0-.334-.271-.605-.605-.605h-2.016Z" fill="#312e4b"/>
        </g>
        <path d="M25.803,9.606h-1.208c-.278,0-.504-.226-.504-.504v-3.406c0-1.614-1.09-3.082-2.67-3.407-2.173-.446-4.092,1.212-4.092,3.308v3.504c0,.278-.226.504-.504.504h-1.208c-.278,0-.504-.226-.504-.504v-3.256c0-2.922,2.131-5.536,5.04-5.819,3.337-.325,6.156,2.299,6.156,5.57v3.504c0,.278-.226.504-.504.504Z" fill="#deddff"/>
        <path d="M16.463,5.846v3.26c0,.24.18.44.41.49-.02.01-.03.01-.05.01h-1.21c-.27,0-.5-.23-.5-.5v-3.26C15.112,2.926,17.242.306,20.153.026c.43-.04.84-.03,1.24.02-2.85.33-4.93,2.92-4.93,5.8Z" fill="#c6c6f7"/>
        <path d="M41.418,28.662c-.081,2.398-.534,4.444-.917,5.784-.202.715-1.149.877-1.582.262l-.534-.756c-2.842,8.082-13.423,11.357-14.521,11.649-.806.222-2.157,1.562-2.792,2.247-.201.201-.524.201-.725,0-.635-.685-1.985-2.026-2.791-2.247-1.098-.292-11.679-3.567-14.521-11.649l-.534.756c-.433.615-1.381.453-1.582-.262C.534,33.106.081,31.06,0,28.662c-.024-.706.755-1.155,1.353-.781,1.317.824,3.311,2.152,4.773,3.442.574.506.294,1.451-.464,1.561l-.836.121s5.421,6.963,10.51,4.212c1.864-1.008,2.973-3.003,2.973-5.129l.254-14.564c.01-.563-.444-1.025-1.008-1.025h-6.684v-2.892h6.77c.549,0,.997-.44,1.008-.989l.121-6.616c.017-.952.677-1.823,1.616-1.973,1.201-.191,2.233.717,2.255,1.869l.123,6.72c.01.549.458.989,1.008.989h6.518v2.892h-6.432c-.563,0-1.017.462-1.008,1.025l.255,14.564c0,2.126,1.108,4.122,2.972,5.129,5.089,2.751,10.511-4.212,10.511-4.212l-.836-.121c-.756-.101-1.038-1.048-.464-1.552,1.451-1.29,3.456-2.62,4.767-3.446.594-.373,1.38.07,1.361.776Z" fill="#deddff"/>
        <path d="M41.422,28.666c-.09,2.39-.54,4.44-.92,5.78-.2.72-1.15.88-1.58.26l-.54-.75c-2.84,8.08-13.42,11.35-14.52,11.65-.81.22-2.16,1.56-2.79,2.24-.2.2-.52.2-.73,0-.63-.68-1.98-2.02-2.79-2.24-1.1-.3-11.68-3.57-14.52-11.65l-.53.75c-.44.62-1.38.46-1.59-.26-.38-1.34-.83-3.39-.91-5.78-.01-.17.03-.33.11-.46.18,1.7.51,3.15.8,4.18.21.71,1.15.87,1.59.26l.53-.76c2.84,8.09,13.42,11.36,14.52,11.65.81.22,2.16,1.56,2.79,2.25.21.2.53.2.73,0,.63-.69,1.98-2.03,2.79-2.25,1.1-.29,11.68-3.56,14.52-11.65l.54.76c.43.61,1.38.45,1.58-.26.29-1.03.63-2.48.8-4.19.08.14.12.3.12.47Z" fill="#c6c6f7"/>
      </g>
      <g>
        <circle cx="30.292" cy="15.016" r="2.395" fill="#5b5e8b"/>
        <path d="M32.482,15.986c-.36.84-1.21,1.42-2.19,1.42-1.33,0-2.4-1.06-2.4-2.39,0-.98.58-1.82,1.43-2.19-.14.29-.21.62-.21.97,0,1.33,1.07,2.4,2.4,2.4.35,0,.67-.07.97-.21Z" fill="#312e4b"/>
      </g>
      <g>
        <circle cx="10.949" cy="15.016" r="2.395" fill="#5b5e8b"/>
        <path d="M13.139,15.986c-.36.84-1.21,1.42-2.19,1.42-1.33,0-2.4-1.06-2.4-2.39,0-.98.58-1.82,1.43-2.19-.14.29-.21.62-.21.97,0,1.33,1.07,2.4,2.4,2.4.35,0,.67-.07.97-.21Z" fill="#312e4b"/>
      </g>
    </g>
  </g>
</svg>