<?xml version="1.0" encoding="UTF-8"?>
<svg id="Layer_2" data-name="Layer 2" xmlns="http://www.w3.org/2000/svg" viewBox="0 0 40 48">
  <g id="War_and_Army" data-name="War and Army">
    <g id="_97" data-name="97">
      <g>
        <path d="M16.084,8.19h-4.076L9.705.646C9.607.325,9.847,0,10.183,0h3.03C13.433,0,13.627.144,13.692.354l2.392,7.836Z" fill="#5b5e8b"/>
        <path d="M23.912,8.19h4.076s2.303-7.544,2.303-7.544C30.388.325,30.148,0,29.812,0h-3.03c-.22,0-.414.144-.478.354l-2.392,7.836Z" fill="#5b5e8b"/>
      </g>
      <g>
        <path d="M16.083,8.19h-4.08l-.82-2.7-1.48-4.84C9.604.327,9.845,0,10.184,0h1.269C11.123,0,10.873.32,10.972.65l.658,2.153c.488,1.597,1.962,2.687,3.632,2.687h0l.82,2.7Z" fill="#312e4b"/>
        <path d="M28.813,5.49l-.82,2.7h-4.08l.82-2.7,1.57-5.14C26.373.14,26.563,0,26.782,0h1.27C27.833,0,27.643.14,27.573.35l-.749,2.453c-.408,1.337.592,2.687,1.989,2.687h0Z" fill="#312e4b"/>
      </g>
      <path d="M34.538,11.192v26.81c0,3.314-2.686,6-6,6H11.458c-3.314,0-6-2.686-6-6V11.192c0-1.657,1.343-3,3-3h23.08c1.657,0,3,1.343,3,3Z" fill="#fcb73e"/>
      <path d="M14.833,44h-3.37c-3.32,0-6-2.68-6-6V11.19c0-1.65,1.34-3,3-3h3.37c-1.66,0-3,1.35-3,3v26.81c0,3.32,2.69,6,6,6Z" fill="#fd982e"/>
      <rect x="3.998" y="41.905" width="32" height="6.095" rx="1.473" ry="1.473" fill="#65b9ff"/>
      <path d="M36.003,44.58v1.95c0,.81-.66,1.47-1.48,1.47H5.472c-.82,0-1.47-.66-1.47-1.47v-1.95c0,.81.65,1.47,1.47,1.47h29.05c.82,0,1.48-.66,1.48-1.47Z" fill="#3e7fff"/>
      <g>
        <path d="M39.235,26.942v7.091c0,1.53-1.24,2.77-2.77,2.77h-1.923v-9.861h4.693Z" fill="#fcb73e"/>
        <rect x="34.542" y="26.94" width="1.12" height="9.86" fill="#fd982e"/>
        <path d="M40,24.742v1.277c0,.51-.413.923-.923.923h-4.534v-3.123h4.534c.51,0,.923.413.923.923Z" fill="#e83d62"/>
        <rect x="34.542" y="23.82" width="1.12" height="3.12" fill="#ce2955"/>
      </g>
      <g>
        <path d="M.765,26.942v7.091c0,1.53,1.24,2.77,2.77,2.77h1.923s0-9.861,0-9.861H.765Z" fill="#fd982e"/>
        <rect x="4.338" y="26.94" width="1.12" height="9.86" fill="#fd982e"/>
        <path d="M0,24.742v1.277c0,.51.413.923.923.923h4.534s0-3.123,0-3.123H.923C.413,23.819,0,24.232,0,24.742Z" fill="#ce2955"/>
        <rect x="4.338" y="23.82" width="1.12" height="3.12" fill="#ce2955"/>
      </g>
      <path d="M29.376,27.655v8.544c0,1.976-1.602,3.578-3.578,3.578h-11.601c-1.976,0-3.578-1.602-3.578-3.578v-8.544h18.757Z" fill="#fd982e"/>
      <path d="M16.693,39.78h-2.5c-1.97,0-3.57-1.61-3.57-3.58v-8.54h2.49v8.54c0,1.97,1.61,3.58,3.58,3.58Z" fill="#e87f21"/>
      <rect x="9.434" y="27.098" width="21.127" height="4.934" rx="1.4" ry="1.4" fill="#e83d62"/>
      <path d="M14.513,32.03h-3.68c-.77,0-1.4-.63-1.4-1.4v-2.13c0-.78.63-1.4,1.4-1.4h3.68c-.77,0-1.4.62-1.4,1.4v2.13c0,.77.63,1.4,1.4,1.4Z" fill="#ce2955"/>
      <path d="M31.313,8.676v7.732c0,2.761-2.239,5-5,5h-12.63c-2.761,0-5-2.239-5-5v-7.732c0-1.105.895-2,2-2h18.63c1.105,0,2,.895,2,2Z" fill="#e83d62"/>
      <path d="M16.883,21.41h-3.2c-2.76,0-5-2.24-5-5v-7.73c0-1.11.9-2,2-2h3.2c-1.1,0-2,.89-2,2v7.73c0,2.76,2.24,5,5,5Z" fill="#ce2955"/>
      <g>
        <g>
          <path d="M15.809,30.22v3.624c0,.739-.6,1.346-1.346,1.346s-1.346-.608-1.346-1.346v-3.624c0-.746.6-1.346,1.346-1.346s1.346.6,1.346,1.346Z" fill="#5b5e8b"/>
          <g>
            <circle cx="14.463" cy="30.239" r=".485" fill="#312e4b"/>
            <circle cx="14.463" cy="33.824" r=".485" fill="#312e4b"/>
          </g>
        </g>
        <g>
          <path d="M26.878,30.22v3.624c0,.739-.6,1.346-1.346,1.346s-1.346-.608-1.346-1.346v-3.624c0-.746.6-1.346,1.346-1.346s1.346.6,1.346,1.346Z" fill="#5b5e8b"/>
          <g>
            <circle cx="25.532" cy="30.239" r=".485" fill="#312e4b"/>
            <circle cx="25.532" cy="33.824" r=".485" fill="#312e4b"/>
          </g>
        </g>
      </g>
      <g>
        <path d="M27.119,16.006v11.092h-3.173v-11.092c0-.221.179-.4.4-.4h2.373c.221,0,.4.179.4.4Z" fill="#312e4b"/>
        <path d="M27.977,25.029c0,.205-.084.392-.219.527-.135.135-.322.219-.527.219h-3.4c-.411,0-.745-.334-.745-.745,0-.206.083-.392.219-.528.135-.135.321-.218.527-.218h3.4c.411,0,.745.333.745.745Z" fill="#fd982e"/>
        <path d="M25.419,25.774h-1.587c-.411,0-.745-.334-.745-.745,0-.206.083-.392.219-.528.135-.135.321-.218.527-.218h1.587c-.206,0-.393.083-.527.218-.136.135-.219.322-.219.528,0,.411.334.745.745.745Z" fill="#e87f21"/>
        <path d="M27.779,20.364v2.407c0,.182-.148.33-.33.33s-.33-.147-.33-.33v-2.283c0-.58-.469-1.05-1.05-1.05h-1.074c-.58,0-1.05.47-1.05,1.05v2.283c0,.182-.148.33-.33.33s-.33-.147-.33-.33v-2.407c0-.876.71-1.586,1.586-1.586h1.322c.876,0,1.586.71,1.586,1.586Z" fill="#deddff"/>
        <path d="M26.164,21.506c0,.349-.283.632-.632.632s-.633-.283-.633-.632.283-.632.633-.632.632.283.632.632Z" fill="#deddff"/>
        <path d="M25.862,18.278v3.53c0,.182-.148.33-.33.33s-.33-.147-.33-.33v-3.53c0-.182.148-.33.33-.33.092,0,.174.037.234.096.059.06.096.143.096.234Z" fill="#deddff"/>
      </g>
      <g>
        <path d="M16.049,16.006v11.092h-3.173v-11.092c0-.221.179-.4.4-.4h2.373c.221,0,.4.179.4.4Z" fill="#312e4b"/>
        <path d="M16.908,25.029c0,.205-.084.392-.219.527-.135.135-.322.219-.527.219h-3.4c-.411,0-.745-.334-.745-.745,0-.206.083-.392.219-.528.135-.135.321-.218.527-.218h3.4c.411,0,.745.333.745.745Z" fill="#fd982e"/>
        <path d="M14.35,25.774h-1.587c-.411,0-.745-.334-.745-.745,0-.206.083-.392.219-.528.135-.135.321-.218.527-.218h1.587c-.206,0-.393.083-.527.218-.136.135-.219.322-.219.528,0,.411.334.745.745.745Z" fill="#e87f21"/>
        <path d="M16.71,20.364v2.407c0,.182-.148.33-.33.33s-.33-.147-.33-.33v-2.283c0-.58-.469-1.05-1.05-1.05h-1.074c-.58,0-1.05.47-1.05,1.05v2.283c0,.182-.148.33-.33.33s-.33-.147-.33-.33v-2.407c0-.876.71-1.586,1.586-1.586h1.322c.876,0,1.586.71,1.586,1.586Z" fill="#deddff"/>
        <path d="M15.095,21.506c0,.349-.283.632-.632.632s-.633-.283-.633-.632.283-.632.633-.632.632.283.632.632Z" fill="#deddff"/>
        <path d="M14.793,18.278v3.53c0,.182-.148.33-.33.33s-.33-.147-.33-.33v-3.53c0-.182.148-.33.33-.33.092,0,.174.037.234.096.059.06.096.143.096.234Z" fill="#deddff"/>
      </g>
      <path d="M23.029,11.723c0,1.683-1.354,3.037-3.025,3.037-1.683,0-3.037-1.354-3.037-3.037,0-1.672,1.354-3.037,3.037-3.037,1.672,0,3.025,1.365,3.025,3.037Z" fill="#deddff"/>
      <path d="M22.753,12.99c-.48,1.05-1.53,1.77-2.75,1.77-1.68,0-3.04-1.35-3.04-3.04,0-1.22.72-2.27,1.77-2.75-.18.38-.28.81-.28,1.26,0,1.69,1.36,3.04,3.04,3.04.45,0,.88-.1,1.26-.28Z" fill="#c6c6f7"/>
      <rect x="23.693" y="41.9" width="3.46" height="6.1" fill="#5b5e8b"/>
      <rect x="12.62" y="41.905" width="3.46" height="6.095" fill="#5b5e8b"/>
      <rect x="23.693" y="46.05" width="3.46" height="1.95" fill="#312e4b"/>
      <rect x="12.62" y="46.05" width="3.46" height="1.95" fill="#312e4b"/>
    </g>
  </g>
</svg>