<?xml version="1.0" encoding="UTF-8"?>
<svg id="Layer_2" data-name="Layer 2" xmlns="http://www.w3.org/2000/svg" viewBox="0 0 38.268 47.968">
  <g id="War_and_Army" data-name="War and Army">
    <g id="_14" data-name="14">
      <g>
        <g>
          <path d="M38.268,33.326v8.224c0,1.619-1.313,2.931-2.931,2.931h-3.827v-14.086h3.827c1.619,0,2.931,1.313,2.931,2.931Z" fill="#e87f21"/>
          <path d="M38.268,34.018v-.692c0-1.619-1.312-2.931-2.931-2.931h-3.827v3.623h6.758Z" fill="#fd982e"/>
        </g>
        <g>
          <path d="M0,33.326v8.224c0,1.619,1.313,2.931,2.931,2.931h3.827s0-14.086,0-14.086h-3.827C1.313,30.394,0,31.707,0,33.326Z" fill="#e87f21"/>
          <path d="M0,34.018v-.692c0-1.619,1.312-2.931,2.931-2.931h3.827v3.623H0Z" fill="#fd982e"/>
        </g>
      </g>
      <path d="M34.459,14.758v26.692c0,3.607-2.918,6.514-6.514,6.514H10.319c-3.596,0-6.514-2.907-6.514-6.514V14.758c0-.215.022-.431.032-.646.334-3.295,3.112-5.868,6.482-5.868h17.626c3.381,0,6.159,2.573,6.482,5.868.021.215.032.431.032.646Z" fill="#fcb73e"/>
      <path d="M34.458,36.732v4.722c0,3.597-2.917,6.514-6.514,6.514H10.323c-3.597,0-6.514-2.917-6.514-6.514v-4.722c0,3.597,2.917,6.514,6.514,6.514h17.621c3.597,0,6.514-2.917,6.514-6.514Z" fill="#fcb73e"/>
      <path d="M34.458,36.732v4.722c0,3.597-2.917,6.514-6.514,6.514H10.323c-3.597,0-6.514-2.917-6.514-6.514v-4.722c0,3.597,2.917,6.514,6.514,6.514h17.621c3.597,0,6.514-2.917,6.514-6.514Z" fill="#fd982e"/>
      <path d="M34.459,14.758v.926c0,3.596-2.918,6.514-6.514,6.514H10.319c-3.596,0-6.514-2.918-6.514-6.514v-.926c0-.215.022-.431.032-.646.334-3.295,3.112-5.868,6.482-5.868h17.626c3.381,0,6.159,2.573,6.482,5.868.021.215.032.431.032.646Z" fill="#fd982e"/>
      <path d="M34.426,14.109c-.327,3.291-3.104,5.861-6.481,5.861H10.323c-3.377,0-6.154-2.57-6.481-5.861.327-3.291,3.104-5.861,6.481-5.861h17.621c3.377,0,6.154,2.57,6.481,5.861Z" fill="#fcb73e"/>
      <path d="M13.899,19.969v10.019c0,1.041-.845,1.885-1.885,1.885s-1.885-.844-1.885-1.885v-10.019h3.77Z" fill="#deddff"/>
      <path d="M28.073,19.969v10.956c0,.97-.787,1.757-1.757,1.757s-1.757-.787-1.757-1.757v-10.956h3.515Z" fill="#deddff"/>
      <path d="M26.996,26.751c0,.376-.304.68-.68.68s-.681-.304-.681-.68.304-.68.681-.68.68.304.68.68Z" fill="#312e4b"/>
      <path d="M12.695,26.751c0,.376-.304.68-.68.68s-.681-.304-.681-.68.304-.68.681-.68.68.304.68.68Z" fill="#312e4b"/>
      <circle cx="19.135" cy="36.303" r="4.762" fill="#fd982e"/>
      <g>
        <path d="M28.735,25.521v2.591c0,.196-.159.356-.356.356s-.356-.159-.356-.356v-2.458c0-.625-.506-1.13-1.13-1.13h-1.156c-.625,0-1.13.506-1.13,1.13v2.458c0,.196-.159.356-.356.356s-.356-.159-.356-.356v-2.591c0-.943.764-1.708,1.708-1.708h1.423c.943,0,1.708.764,1.708,1.708Z" fill="#5b5e8b"/>
        <path d="M26.671,23.275v3.801c0,.196-.159.356-.356.356s-.356-.158-.356-.356v-3.801c0-.196.159-.356.356-.356.099,0,.187.04.252.104.064.065.104.154.104.252Z" fill="#5b5e8b"/>
      </g>
      <g>
        <path d="M14.434,25.521v2.591c0,.196-.159.356-.356.356s-.356-.159-.356-.356v-2.458c0-.625-.506-1.13-1.13-1.13h-1.156c-.625,0-1.13.506-1.13,1.13v2.458c0,.196-.159.356-.356.356s-.356-.159-.356-.356v-2.591c0-.943.764-1.708,1.708-1.708h1.423c.943,0,1.708.764,1.708,1.708Z" fill="#5b5e8b"/>
        <path d="M12.37,23.275v3.801c0,.196-.159.356-.356.356s-.356-.158-.356-.356v-3.801c0-.196.159-.356.356-.356.099,0,.187.04.252.104.064.065.104.154.104.252Z" fill="#5b5e8b"/>
      </g>
      <g>
        <path d="M20.983,37.036c-.071.07-.105.172-.087.27l.277,1.621c.011.064.002.125-.021.177-.068.149-.254.231-.42.144l-1.455-.766c-.089-.046-.194-.046-.283,0l-1.456.766c-.223.118-.484-.072-.441-.321l.278-1.621c.017-.098-.016-.2-.087-.27l-1.179-1.148c-.18-.176-.08-.482.169-.519l1.628-.237c.099-.014.185-.076.229-.166l.728-1.475c.113-.226.434-.226.546,0l.729,1.475c.044.089.13.152.229.166l.371.054,1.257.183c.249.036.349.343.169.519l-1.179,1.148Z" fill="#fcb73e"/>
        <path d="M18.115,36.735c.071.07.103.172.087.27l-.278,1.621c-.025.147.056.274.173.328l-.56.294c-.223.118-.484-.072-.441-.321l.278-1.621c.017-.098-.016-.2-.087-.27l-1.179-1.148c-.18-.176-.08-.482.169-.519l.58-.084c-.029.1-.008.216.079.301l1.179,1.148Z" fill="#fd982e"/>
        <g opacity=".15">
          <path d="M20.983,37.036c-.071.07-.105.172-.087.27l.277,1.621c.011.064.002.125-.021.177-.146-.121-.301-.229-.458-.334-.372-.248-.763-.486-1.062-.821-.298-.336-.496-.795-.402-1.233.085-.389.384-.695.699-.936.267-.201.558-.374.807-.594l1.257.183c.249.036.349.343.169.519l-1.179,1.148Z" fill="#fff"/>
        </g>
      </g>
      <rect x="12.199" y="13.231" width="13.869" height="1.083" rx=".539" ry=".539" fill="#fd982e"/>
      <path d="M15.062,13.229v1.841c0,.485-.388.872-.872.872s-.872-.388-.872-.872v-1.841h1.744Z" fill="#5b5e8b"/>
      <g>
        <g>
          <path d="M15.193,8.248h-4.105L8.769.651C8.671.327,8.913,0,9.251,0h3.052C12.524,0,12.72.145,12.785.357l2.409,7.891Z" fill="#5b5e8b"/>
          <path d="M23.077,8.248h4.105s2.319-7.597,2.319-7.597C29.599.327,29.357,0,29.019,0h-3.052c-.221,0-.417.145-.482.357l-2.409,7.891Z" fill="#5b5e8b"/>
        </g>
        <g>
          <path d="M15.192,8.248h-4.109l-.826-2.719-1.49-4.874C8.668.329,8.911,0,9.252,0h1.278C10.197,0,9.946.322,10.046.655l.663,2.168c.492,1.608,1.976,2.706,3.657,2.706h0l.826,2.719Z" fill="#312e4b"/>
          <path d="M28.012,5.529l-.826,2.719h-4.109l.826-2.719,1.581-5.176C25.555.141,25.746,0,25.968,0h1.279C27.025,0,26.834.141,26.763.353l-.754,2.47c-.411,1.346.596,2.706,2.003,2.706h0Z" fill="#312e4b"/>
        </g>
      </g>
    </g>
  </g>
</svg>