<?xml version="1.0" encoding="UTF-8"?>
<svg id="Layer_2" data-name="Layer 2" xmlns="http://www.w3.org/2000/svg" viewBox="0 0 37.715 48.005">
  <g id="War_and_Army" data-name="War and Army">
    <g id="_91" data-name="91">
      <path d="M35.995,26.145v19.85c0,1.11-.9,2.01-2,2.01H3.726c-1.11,0-2-.9-2-2.01v-19.85c0-.65.31-1.26.84-1.63,3.38-2.4,2.53-10.3-.04-20.46-.12-.44.14-.89.58-1.02l1.89-.55,4.81-1.4c.54-.16,1.08.25,1.08.81,0,2.2.89,4.19,2.34,5.63,1.44,1.45,3.43,2.34,5.63,2.34s4.19-.89,5.63-2.34c1.45-1.44,2.34-3.43,2.34-5.63,0-.48.39-.84.84-.84.08,0,.16.01.24.03l6.71,1.95c.43.13.69.58.58,1.02-2.58,10.16-3.42,18.06-.04,20.46.52.37.84.98.84,1.63Z" fill="#46cc6b"/>
      <path d="M6.596,48.005h-2.87c-1.11,0-2-.9-2-2.01v-19.85c0-.65.31-1.26.84-1.63,3.38-2.4,2.53-10.3-.04-20.46-.12-.44.14-.89.58-1.02l1.89-.55c2.51,9.99,3.77,19.67.44,22.03-.52.37-.84.98-.84,1.63v19.85c0,1.11.9,2.01,2,2.01Z" fill="#179c5f"/>
      <rect x="34.273" y="26.631" width="3.442" height="20.016" rx=".922" ry=".922" fill="#5b5e8b"/>
      <rect x="5.835" y="31.845" width="26.045" height="2.66" rx=".8" ry=".8" fill="#179c5f"/>
      <rect x="5.835" y="36.533" width="26.045" height="2.66" rx=".8" ry=".8" fill="#179c5f"/>
      <rect x="5.835" y="27.157" width="26.045" height="2.66" rx=".8" ry=".8" fill="#179c5f"/>
      <rect x="5.835" y="41.221" width="26.045" height="2.66" rx=".8" ry=".8" fill="#179c5f"/>
      <rect x="8.051" y="14.323" width="21.613" height="4.662" rx=".7" ry=".7" fill="#179c5f"/>
      <rect x="0" y="26.631" width="3.442" height="20.016" rx=".922" ry=".922" fill="#312e4b"/>
      <path d="M6.426,8.918L4.011,1.736c-.085-.254.052-.529.306-.614L7.647.025c.254-.085.528.052.613.306l2.415,7.183c.085.254-.052.529-.304.614l-3.331,1.095c-.254.085-.529-.051-.614-.304Z" fill="#5b5e8b"/>
      <path d="M31.75,9.046l2.415-7.183c.085-.254-.052-.529-.306-.614l-3.331-1.096c-.254-.085-.528.052-.613.306l-2.415,7.183c-.085.254.052.529.304.614l3.331,1.095c.254.085.529-.051.614-.304Z" fill="#5b5e8b"/>
      <path d="M29.581,1.08h1.459c.268,0,.485.217.485.485v9.303c0,.267-.217.484-.484.484h-1.461c-.268,0-.485-.217-.485-.485V1.566c0-.268.217-.485.485-.485Z" transform="translate(14.755 32.963) rotate(-71.409)" fill="#deddff"/>
      <path d="M2.752,5.001h9.302c.268,0,.485.217.485.485v1.459c0,.268-.217.485-.485.485H2.753c-.268,0-.485-.217-.485-.485v-1.46c0-.267.217-.484.484-.484Z" transform="translate(-1.595 2.685) rotate(-18.591)" fill="#deddff"/>
    </g>
  </g>
</svg>