<?xml version="1.0" encoding="UTF-8"?>
<svg id="Layer_2" data-name="Layer 2" xmlns="http://www.w3.org/2000/svg" viewBox="0 0 48.001 44.288">
  <g id="War_and_Army" data-name="War and Army">
    <g id="_27" data-name="27">
      <path d="M48,32.118v7.784H0v-7.774c.38-.13.79-.19,1.2-.19h.01c1.055,0,2.098.389,2.815,1.163.914.988,2.523.969,3.445.057.76-.78,1.78-1.21,2.85-1.21,1.09,0,2.11.43,2.87,1.21.91.9,2.49.9,3.39,0,.76-.78,1.78-1.21,2.85-1.21,1.09,0,2.11.43,2.87,1.21.91.9,2.5.9,3.39,0,1.53-1.55,4.2-1.55,5.72,0,.887.878,2.421.899,3.331.065.653-.598,1.415-1.095,2.291-1.227,1.329-.201,2.591.231,3.498,1.162.9.9,2.49.9,3.39,0,.78-.8,1.78-1.22,2.87-1.22h.01c.41,0,.82.06,1.2.18Z" fill="#3e7fff"/>
      <g>
        <rect x="31.936" y="11.139" width="9.858" height="1.559" transform="translate(-1.705 15.581) rotate(-23.34)" fill="#474646"/>
        <polygon points="41.704 10.686 40.056 11.394 32.646 14.589 32.029 13.153 39.43 9.959 41.078 9.25 41.704 10.686" fill="#5b5e8b"/>
        <polygon points="41.704 10.686 40.056 11.394 39.43 9.959 41.078 9.25 41.704 10.686" fill="#312e4b"/>
        <path d="M41.111,7.949h3.029c.389,0,.704.316.704.704v1.565c0,.389-.316.705-.705.705h-3.029c-.389,0-.704-.316-.704-.704v-1.565c0-.389.316-.704.704-.704Z" transform="translate(-.25 17.66) rotate(-23.34)" fill="#5b5e8b"/>
        <path d="M6.82,17.312l-1.489,7.918h35.464l-1.489-7.918c-.246-1.305-1.386-2.251-2.714-2.251H9.534c-1.328,0-2.468.946-2.714,2.251Z" fill="#e4e3ff"/>
        <path d="M40.792,25.23H5.334l.184-.976,1.298-6.941c.249-1.307,1.39-2.255,2.716-2.255h27.063c1.325,0,2.467.948,2.706,2.255l.727,3.857.764,4.059Z" fill="#deddff"/>
        <path d="M40.794,25.226H5.334l.18-.97.09-.48,1.21-6.46c.25-1.31,1.39-2.26,2.72-2.26h1.85c-1.32,0-2.47.95-2.71,2.26l-.546,2.914c-.345,1.843,1.069,3.546,2.943,3.546h29.453l.27,1.45Z" fill="#c6c6f7"/>
        <rect x="12.828" y="17.727" width="4.823" height="4.834" rx=".644" ry=".644" fill="#65b9ff"/>
        <path d="M14.974,22.566h-1.5c-.36,0-.65-.29-.65-.65v-3.54c0-.36.29-.65.65-.65h1.5c-.36,0-.65.29-.65.65v3.54c0,.36.29.65.65.65Z" fill="#3e7fff"/>
        <rect x="20.652" y="17.727" width="4.823" height="4.834" rx=".644" ry=".644" fill="#65b9ff"/>
        <path d="M22.794,22.566h-1.5c-.35,0-.64-.29-.64-.65v-3.54c0-.36.29-.65.64-.65h1.5c-.35,0-.64.29-.64.65v3.54c0,.36.29.65.64.65Z" fill="#3e7fff"/>
        <rect x="28.476" y="17.727" width="4.823" height="4.834" rx=".644" ry=".644" fill="#65b9ff"/>
        <path d="M30.624,22.566h-1.5c-.36,0-.65-.29-.65-.65v-3.54c0-.36.29-.65.65-.65h1.5c-.36,0-.65.29-.65.65v3.54c0,.36.29.65.65.65Z" fill="#3e7fff"/>
        <path d="M22.614,13.067v1.991h-12.535v-1.991c0-.508.412-.921.921-.921h10.694c.508,0,.921.412.921.921Z" fill="#e83d62"/>
        <rect x="10.084" y="13.976" width="12.53" height="1.08" fill="#ce2955"/>
        <path d="M13.886,4.601v7.548h-1.574v-7.548c0-.433.35-.782.782-.782h.009c.433,0,.783.35.783.782Z" fill="#46cc6b"/>
        <rect x="12.315" y="11.1" width="1.57" height="1.05" fill="#179c5f"/>
        <path d="M17.203.782v11.367h-1.574V.782c0-.433.35-.782.782-.782h.009c.433,0,.783.35.783.782Z" fill="#fcb73e"/>
        <rect x="15.625" y="11.1" width="1.58" height="1.05" fill="#fd982e"/>
        <path d="M35.888,10.9v4.158h-11.874v-4.158c0-.508.412-.921.921-.921h10.033c.508,0,.921.412.921.921Z" fill="#deddff"/>
        <path d="M35.884,13.446v1.61h-11.87v-4.16c0-.5.41-.92.92-.92h.69c0,1.916,1.554,3.47,3.47,3.47h6.79Z" fill="#c6c6f7"/>
        <path d="M47.587,25.23v2.73l-2.342,2.032c-2.399,2.081-3.778,5.102-3.778,8.278v.71H2.477v-8.96c0-.57-.23-1.09-.6-1.46s-.89-.6-1.46-.6v-2.73h47.17Z" fill="#deddff"/>
        <path d="M5.324,30.016v8.96h-2.85v-8.96c0-.57-.23-1.09-.6-1.46s-.89-.6-1.46-.6v-2.73h2.85v2.73c.57,0,1.09.23,1.46.6.37.37.6.89.6,1.46Z" fill="#c6c6f7"/>
        <path d="M41.984,34.976c-.33,1.06-.52,2.16-.52,3.29v.71H2.474v-4h39.51Z" fill="#e83d62"/>
        <rect x="2.474" y="34.976" width="2.85" height="4" fill="#ce2955"/>
      </g>
      <path d="M48.001,37.118v7.17H.001v-7.16c.38-.13.79-.19,1.2-.19h.01c1.05,0,2.1.39,2.81,1.16.92.99,2.53.97,3.45.06.76-.78,1.78-1.21,2.85-1.21,1.09,0,2.11.43,2.87,1.21.91.9,2.49.9,3.39,0,.76-.78,1.78-1.21,2.85-1.21,1.09,0,2.11.43,2.87,1.21.91.9,2.5.9,3.39,0,1.53-1.55,4.2-1.55,5.72,0,.89.88,2.42.9,3.33.07.65-.6,1.42-1.1,2.29-1.23,1.33-.2,2.59.23,3.5,1.16.9.9,2.49.9,3.39,0,.78-.8,1.78-1.22,2.87-1.22h.01c.41,0,.82.06,1.2.18Z" fill="#65b9ff"/>
      <g>
        <path d="M41.364,29.742c0,1.63-1.33,2.96-2.97,2.96s-2.96-1.33-2.96-2.96c0-1.64,1.32-2.97,2.96-2.97s2.97,1.33,2.97,2.97Z" fill="#312e4b"/>
        <path d="M40.253,29.74c0,1.019-.832,1.851-1.857,1.851s-1.851-.832-1.851-1.851c0-1.026.825-1.857,1.851-1.857s1.857.832,1.857,1.857Z" fill="#65b9ff"/>
      </g>
      <g>
        <path d="M33.853,29.742c0,1.63-1.33,2.96-2.97,2.96s-2.96-1.33-2.96-2.96c0-1.64,1.32-2.97,2.96-2.97s2.97,1.33,2.97,2.97Z" fill="#312e4b"/>
        <path d="M32.742,29.74c0,1.019-.832,1.851-1.857,1.851s-1.851-.832-1.851-1.851c0-1.026.825-1.857,1.851-1.857s1.857.832,1.857,1.857Z" fill="#65b9ff"/>
      </g>
    </g>
  </g>
</svg>