<?xml version="1.0" encoding="UTF-8"?>
<svg id="Layer_2" data-name="Layer 2" xmlns="http://www.w3.org/2000/svg" viewBox="0 0 48 47.438">
  <g id="War_and_Army" data-name="War and Army">
    <g id="_94" data-name="94">
      <g>
        <g>
          <path d="M42.343,12.984v18.887H5.657V12.984c0-.966.791-1.757,1.757-1.757h33.171c.966,0,1.757.791,1.757,1.757Z" fill="#46cc6b"/>
          <path d="M12.492,11.227c-.966,0-1.757.791-1.757,1.757v18.887h-5.078V12.984c0-.966.791-1.757,1.757-1.757h5.078Z" fill="#179c5f"/>
          <path d="M20.802,31.871H5.657v-9.962c.105-.018.193-.018.299-.018h9.786c2.512,0,4.586,1.968,4.744,4.463l.316,5.517Z" fill="#179c5f"/>
          <path d="M18.43,5.499v5.728H7.44v-5.728c0-.873.708-1.581,1.581-1.581h7.828c.873,0,1.581.708,1.581,1.581Z" fill="#46cc6b"/>
          <rect x="7.432" y="9.821" width="10.999" height="1.406" fill="#179c5f"/>
          <path d="M15.905,1.054v2.864h-5.939V1.054C9.966.472,10.438,0,11.02,0h3.83C15.433,0,15.905.472,15.905,1.054Z" fill="#5b5e8b"/>
          <path d="M12.703,0C12.105,0,11.649.474,11.649,1.054v2.864h-1.687V1.054C9.962.474,10.436,0,11.016,0h1.687Z" fill="#312e4b"/>
          <rect x="9.962" y="2.952" width="5.939" height=".966" fill="#312e4b"/>
          <path d="M12.439,3.918c-.878,0-1.581.703-1.581,1.581v5.728h-3.426v-5.728c0-.878.72-1.581,1.581-1.581h3.426Z" fill="#179c5f"/>
          <rect x="0" y="41.956" width="21.698" height="5.482" rx="1.406" ry="1.406" fill="#5b5e8b"/>
          <path d="M6.184,47.438H1.406c-.773,0-1.406-.633-1.406-1.406v-2.671c0-.773.632-1.406,1.406-1.406h4.779c-.773,0-1.406.633-1.406,1.406v2.671c0,.773.632,1.406,1.406,1.406Z" fill="#312e4b"/>
          <path d="M19.251,26.427l.922,15.529H1.525l.922-15.529c.11-1.856,1.648-3.306,3.508-3.306h9.787c1.86,0,3.397,1.449,3.508,3.306Z" fill="#46cc6b"/>
          <polygon points="1.63 40.197 1.525 41.956 20.173 41.956 20.069 40.197 1.63 40.197" fill="#179c5f"/>
          <path d="M10.735,23.122c-1.862,0-3.409,1.441-3.514,3.303l-.914,15.531H1.529l.914-15.531c.123-1.862,1.652-3.303,3.514-3.303h4.779Z" fill="#179c5f"/>
        </g>
        <g>
          <path d="M27.198,31.871h15.145s0-9.962,0-9.962c-.105-.018-.193-.018-.299-.018h-9.786c-2.512,0-4.586,1.968-4.744,4.463l-.316,5.517Z" fill="#179c5f"/>
          <path d="M29.57,5.499v5.728s10.99,0,10.99,0v-5.728c0-.873-.708-1.581-1.581-1.581h-7.828c-.873,0-1.581.708-1.581,1.581Z" fill="#46cc6b"/>
          <rect x="29.57" y="9.821" width="10.999" height="1.406" fill="#179c5f"/>
          <path d="M32.095,1.054v2.864s5.939,0,5.939,0V1.054C38.034.472,37.562,0,36.98,0h-3.83c-.582,0-1.054.472-1.054,1.054Z" fill="#5b5e8b"/>
          <path d="M35.297,0c.597,0,1.054.474,1.054,1.054v2.864s1.687,0,1.687,0V1.054C38.038.474,37.564,0,36.984,0h-1.687Z" fill="#312e4b"/>
          <rect x="32.1" y="2.952" width="5.939" height=".966" fill="#312e4b"/>
          <path d="M35.561,3.918c.878,0,1.581.703,1.581,1.581v5.728s3.426,0,3.426,0v-5.728c0-.878-.72-1.581-1.581-1.581h-3.426Z" fill="#179c5f"/>
          <rect x="26.302" y="41.956" width="21.698" height="5.482" rx="1.406" ry="1.406" fill="#5b5e8b"/>
          <path d="M41.816,47.438h4.779c.773,0,1.406-.633,1.406-1.406v-2.671c0-.773-.632-1.406-1.406-1.406h-4.779c.773,0,1.406.633,1.406,1.406v2.671c0,.773-.632,1.406-1.406,1.406Z" fill="#312e4b"/>
          <path d="M28.749,26.427l-.922,15.529h18.647s-.922-15.529-.922-15.529c-.11-1.856-1.648-3.306-3.508-3.306h-9.787c-1.86,0-3.397,1.449-3.508,3.306Z" fill="#46cc6b"/>
          <polygon points="46.37 40.197 46.475 41.956 27.827 41.956 27.931 40.197 46.37 40.197" fill="#179c5f"/>
          <path d="M37.265,23.122c1.862,0,3.409,1.441,3.514,3.303l.914,15.531h4.779s-.914-15.531-.914-15.531c-.123-1.862-1.652-3.303-3.514-3.303h-4.779Z" fill="#179c5f"/>
        </g>
      </g>
      <path d="M31.343,17.442c0,1.921-1.558,3.45-3.45,3.45h-8.22c-1.9,0-3.45-1.55-3.45-3.45s1.531-3.45,3.45-3.45h8.22c1.91,0,3.45,1.54,3.45,3.45Z" fill="#179c5f"/>
      <g>
        <path d="M20.818,17.448c0,.759-.612,1.371-1.371,1.371s-1.371-.612-1.371-1.371c0-.771.612-1.383,1.371-1.383s1.371.612,1.371,1.383Z" fill="#34ba5d"/>
        <path d="M29.49,17.448c0,.759-.612,1.371-1.371,1.371s-1.371-.612-1.371-1.371c0-.771.612-1.383,1.371-1.383s1.371.612,1.371,1.383Z" fill="#34ba5d"/>
      </g>
    </g>
  </g>
</svg>