<?xml version="1.0" encoding="UTF-8"?>
<svg id="Layer_2" data-name="Layer 2" xmlns="http://www.w3.org/2000/svg" viewBox="0 0 48 35.572">
  <g id="War_and_Army" data-name="War and Army">
    <g id="_7" data-name="7">
      <g>
        <path d="M36.509,35.572H2.639l-1.732-2.317c-.897-1.046-1.146-2.504-.673-3.799.498-1.345,1.694-2.292,3.114-2.479l1.333-.162-1.221-5.369c-.262-1.134,0-2.317.722-3.239,1.029-1.308,2.714-1.749,4.198-1.271l3.276,1.059,2.603-6.565c.573-1.47,1.968-2.429,3.55-2.429,1.881,0,3.438,1.295,3.787,3.139l1.47,7.947h6.178c1.37,0,2.641.735,3.326,1.931.673,1.196.66,2.666-.037,3.849l-2.342,3.974,3.588.922c1.271.311,2.292,1.258,2.703,2.529.237.76.249,1.545.025,2.28Z" fill="#5b5e8b"/>
        <g>
          <path d="M34.047,35.509l-.059.06H5.437l-2.782-3.719c-.863-.952-.298-2.485.982-2.648l2.038-.253c.937-.119,1.562-1.026,1.354-1.934l-1.383-6.07c-.283-1.205.863-2.261,2.038-1.875l3.868,1.25c.803.253,1.666-.164,1.964-.937l2.827-7.126c.58-1.488,2.752-1.279,3.05.297l1.577,8.48c.149.759.803,1.294,1.562,1.294h6.71c1.22,0,1.994,1.339,1.369,2.395l-2.782,4.731c-.535.922-.045,2.098.982,2.351l4.418,1.131c1.146.283,1.577,1.681.818,2.574Z" fill="#fcb73e"/>
          <path d="M19.392,12.553l.06.327c-.729-.223-1.607.074-1.949.937l-2.827,7.126c-.298.773-1.161,1.19-1.964.937l-3.868-1.25c-1.175-.387-2.321.67-2.038,1.875l1.383,6.07c.208.908-.417,1.815-1.354,1.934l-2.038.253c-1.16.149-1.741,1.428-1.175,2.381l-.967-1.294c-.863-.952-.298-2.485.982-2.648l2.038-.253c.937-.119,1.562-1.026,1.354-1.934l-1.383-6.07c-.283-1.205.863-2.261,2.038-1.875l3.868,1.25c.803.253,1.666-.164,1.964-.937l2.827-7.126c.58-1.488,2.752-1.279,3.05.297Z" fill="#fd982e"/>
        </g>
      </g>
      <g>
        <g>
          <path d="M14.335,24.478l14.718-14.718,9.19,9.191-14.718,14.718c-2.534,2.534-6.643,2.534-9.177,0l-.014-.014c-2.534-2.534-2.534-6.643,0-9.177Z" fill="#e83d62"/>
          <path d="M13.388,32.452c2.5,1.533,5.812,1.218,7.978-.948l14.713-14.713,2.161,2.161-14.713,14.713c-2.538,2.538-6.643,2.534-9.177,0l-.015-.015c-.372-.372-.687-.774-.948-1.199Z" fill="#ce2955"/>
          <path d="M23.525,33.668c-2.534,2.534-6.643,2.534-9.177,0l-.014-.014c-2.534-2.534-2.534-6.643,0-9.177l9.19,9.191Z" fill="#ce2955"/>
          <path d="M29.052,9.76l-.636-6.504c-.028-.287.074-.571.277-.775l2.199-2.199c.376-.376.986-.376,1.362,0l5.882,5.882-6.34,6.34-2.744-2.744Z" fill="#5b5e8b"/>
          <path d="M38.238,18.946l6.504.637c.287.028.571-.074.775-.277l2.199-2.199c.376-.376.376-.986,0-1.362l-5.882-5.882-6.34,6.34,2.744,2.744Z" fill="#5b5e8b"/>
          <path d="M46.131,14.156l1.586,1.586c.377.377.377.986,0,1.364l-2.2,2.2c-.203.203-.488.305-.774.28l-6.508-.638-1.586-1.586,6.503.633c.29.029.575-.073.778-.276l2.2-2.2c.377-.377.377-.986,0-1.363Z" fill="#312e4b"/>
          <path d="M31.804,12.509l6.154-6.154c1.021-1.021,2.655-1.021,3.676,0l.013.013c1.021,1.021,1.021,2.655,0,3.676l-6.154,6.154-3.69-3.69Z" fill="#e83d62"/>
          <path d="M40.668,5.743c.353.121.687.329.967.609l.015.015c1.02,1.02,1.02,2.654,0,3.675l-6.155,6.155-1.586-1.586,6.155-6.155c.74-.74.943-1.803.604-2.712Z" fill="#ce2955"/>
        </g>
        <g>
          <path d="M27.616,16.758c2.718.777,4.337,3.56,3.592,6.246-.712,2.718-3.496,4.337-6.214,3.625-2.751-.744-4.369-3.528-3.592-6.246.712-2.718,3.495-4.337,6.214-3.625Z" fill="#312e4b"/>
          <g>
            <path d="M25.276,25.539c-1.426-.382-2.457-1.505-2.788-2.844-.043-.173.063-.348.236-.39l2.927-.72.777.884-.762,2.843c-.045.169-.218.274-.386.228-.001,0-.002,0-.003,0Z" fill="#ffbc50"/>
            <path d="M30.303,20.739c.382,1.426-.075,2.88-1.068,3.837-.128.123-.333.119-.456-.009l-2.087-2.175.377-1.115,2.843-.762c.169-.045.346.052.391.22,0,.001,0,.002,0,.003Z" fill="#ffbc50"/>
            <path d="M23.5,18.673c1.044-1.044,2.532-1.375,3.857-.993.171.049.269.229.22.399l-.84,2.895-1.154.231-2.081-2.081c-.123-.123-.128-.325-.005-.449,0,0,.002-.002.002-.002Z" fill="#ffbc50"/>
            <path d="M26.591,20.595c.61.174.973.799.806,1.401-.16.61-.784.973-1.394.813-.617-.167-.98-.791-.806-1.401.16-.61.784-.973,1.394-.813Z" fill="#ffbc50"/>
          </g>
          <path d="M26.457,21.094c.335.096.535.439.443.77-.088.335-.431.535-.766.447-.339-.092-.539-.435-.443-.77.088-.335.431-.535.766-.447Z" fill="#312e4b"/>
        </g>
      </g>
    </g>
  </g>
</svg>