<?xml version="1.0" encoding="UTF-8"?>
<svg id="Layer_2" data-name="Layer 2" xmlns="http://www.w3.org/2000/svg" viewBox="0 0 47.998 39.184">
  <g id="War_and_Army" data-name="War and Army">
    <g id="_76" data-name="76">
      <g>
        <g>
          <g>
            <rect x="35.984" y="18.107" width="9.319" height="9.319" fill="#ca7147"/>
            <polygon points="45.303 25.243 45.303 27.426 43.12 27.426 35.984 20.29 35.984 18.107 38.16 18.107 45.303 25.243" fill="#ab604b"/>
            <g>
              <rect x="35.984" y="24.968" width="9.319" height=".664" fill="#ab604b"/>
              <rect x="35.984" y="22.435" width="9.319" height=".664" fill="#ab604b"/>
              <rect x="35.984" y="19.901" width="9.319" height=".664" fill="#ab604b"/>
            </g>
            <path d="M47.157,16.937v1.17h-13.027v-1.17c0-.378.306-.684.684-.684h11.659c.378,0,.684.306.684.684Z" fill="#ef9851"/>
            <path d="M47.157,27.426v1.17c0,.378-.306.684-.684.684h-11.659c-.378,0-.684-.306-.684-.684v-1.17h13.027Z" fill="#ef9851"/>
            <path d="M35.984,29.28h-1.17c-.378,0-.684-.306-.684-.684v-11.659c0-.378.306-.684.684-.684h1.17v13.027Z" fill="#ef9851"/>
            <path d="M46.473,29.28h-1.17v-13.027h1.17c.378,0,.684.306.684.684v11.659c0,.378-.306.684-.684.684Z" fill="#ef9851"/>
            <path d="M47.157,27.966v.629c0,.378-.306.684-.684.684h-.629l-11.714-11.714v-.629c0-.378.306-.684.684-.684h.623l11.72,11.714Z" fill="#ca7147"/>
          </g>
          <g>
            <rect x="35.736" y="6.575" width="8.072" height="8.072" fill="#ca7147"/>
            <polygon points="43.808 12.756 43.808 14.647 41.918 14.647 35.736 8.465 35.736 6.575 37.621 6.575 43.808 12.756" fill="#ab604b"/>
            <g>
              <rect x="35.736" y="12.518" width="8.072" height=".575" fill="#ab604b"/>
              <rect x="35.736" y="10.323" width="8.072" height=".575" fill="#ab604b"/>
              <rect x="35.736" y="8.129" width="8.072" height=".575" fill="#ab604b"/>
            </g>
            <path d="M45.414,5.561v1.013h-11.284v-1.013c0-.327.265-.593.593-.593h10.099c.327,0,.593.265.593.593Z" fill="#ef9851"/>
            <path d="M45.414,14.647v1.013c0,.327-.265.593-.593.593h-10.099c-.327,0-.593-.265-.593-.593v-1.013h11.284Z" fill="#ef9851"/>
            <path d="M35.736,16.253h-1.013c-.327,0-.593-.265-.593-.593V5.561c0-.327.265-.593.593-.593h1.013v11.284Z" fill="#ef9851"/>
            <path d="M44.822,16.253h-1.013V4.969h1.013c.327,0,.593.265.593.593v10.099c0,.327-.265.593-.593.593Z" fill="#ef9851"/>
            <path d="M45.414,15.115v.545c0,.327-.265.593-.593.593h-.545l-10.146-10.146v-.545c0-.327.265-.593.593-.593h.539l10.152,10.146Z" fill="#ca7147"/>
          </g>
        </g>
        <path d="M45.412,15.25v.41c0,.33-.26.59-.59.59h-10.1c-.33,0-.59-.26-.59-.59v-.41c0,.33.26.6.59.6h10.1c.33,0,.59-.27.59-.6Z" fill="#ca7147"/>
      </g>
      <g>
        <rect x="2.082" y="18.107" width="9.319" height="9.319" fill="#ca7147"/>
        <polygon points="11.4 25.243 11.4 27.426 9.218 27.426 2.082 20.29 2.082 18.107 4.257 18.107 11.4 25.243" fill="#ab604b"/>
        <g>
          <rect x="2.082" y="24.968" width="9.319" height=".664" fill="#ab604b"/>
          <rect x="2.082" y="22.435" width="9.319" height=".664" fill="#ab604b"/>
          <rect x="2.082" y="19.901" width="9.319" height=".664" fill="#ab604b"/>
        </g>
        <path d="M13.255,16.937v1.17H.227v-1.17c0-.378.306-.684.684-.684h11.659c.378,0,.684.306.684.684Z" fill="#ef9851"/>
        <path d="M13.255,27.426v1.17c0,.378-.306.684-.684.684H.912c-.378,0-.684-.306-.684-.684v-1.17h13.027Z" fill="#ef9851"/>
        <path d="M2.082,29.28H.912c-.378,0-.684-.306-.684-.684v-11.659c0-.378.306-.684.684-.684h1.17v13.027Z" fill="#ef9851"/>
        <path d="M12.57,29.28h-1.17v-13.027h1.17c.378,0,.684.306.684.684v11.659c0,.378-.306.684-.684.684Z" fill="#ef9851"/>
        <path d="M13.255,27.966v.629c0,.378-.306.684-.684.684h-.629L.227,17.567v-.629c0-.378.306-.684.684-.684h.623l11.72,11.714Z" fill="#ca7147"/>
      </g>
      <path d="M43.972,25.754v3.526h-.569v-3.402L24.013,6.458,4.621,25.878v3.402h-.569v-3.526c0-.076.028-.142.085-.199L23.813,5.851c.104-.104.294-.104.398,0l19.685,19.704c.047.057.076.123.076.199Z" fill="#312e4b"/>
      <g>
        <rect y="29.283" width="47.998" height="9.901" fill="#46cc6b"/>
        <path d="M13.426,32.097c0,.314-2.89.565-6.46.565s-6.46-.251-6.46-.565c0-.306,2.9-.565,6.46-.565s6.46.259,6.46.565Z" fill="#34ba5d"/>
        <path d="M26.719,32.097c0,.314-1.723.565-3.85.565s-3.85-.251-3.85-.565c0-.306,1.729-.565,3.85-.565s3.85.259,3.85.565Z" fill="#34ba5d"/>
        <path d="M13.614,35.578c0,.255-2.352.46-5.258.46s-5.258-.204-5.258-.46c0-.249,2.36-.46,5.258-.46s5.258.211,5.258.46Z" fill="#34ba5d"/>
        <path d="M30.183,36.63c0,.329-2.89.592-6.46.592s-6.46-.263-6.46-.592c0-.321,2.9-.592,6.46-.592s6.46.271,6.46.592Z" fill="#34ba5d"/>
        <path d="M44.079,36.63c0,.329-2.228.592-4.979.592s-4.979-.263-4.979-.592c0-.321,2.235-.592,4.979-.592s4.979.271,4.979.592Z" fill="#34ba5d"/>
        <path d="M47.041,31.756c0,.329-2.89.592-6.46.592s-6.46-.263-6.46-.592c0-.321,2.9-.592,6.46-.592s6.46.271,6.46.592Z" fill="#34ba5d"/>
      </g>
      <g>
        <polygon points="41.266 29.282 6.741 29.282 7.353 20.641 7.403 19.867 14.595 15.534 23.985 4.309 33.412 15.534 40.592 19.867 40.642 20.641 41.266 29.282" fill="#deddff"/>
        <path d="M31.193,29.283h-14.387c7.024-5.035,7.193-15.805,7.193-15.805,0,0,.19,10.769,7.194,15.805Z" fill="#c6c6f7"/>
        <path d="M24.674,18.332c-.824,3.521-2.61,8.129-6.543,10.951h-1.324c7.017-5.032,7.192-15.808,7.192-15.808,0,0,.037,2.085.674,4.857Z" fill="#b5b5ea"/>
      </g>
      <path d="M40.644,20.642c-7.255-.599-12.836-4.895-16.632-12.786-2.349,4.853-5.372,8.351-9.039,10.461-3.972,2.286-6.545,6.395-6.869,10.966h0s-1.361,0-1.361,0l.612-8.641.05-.774,7.192-4.333,9.39-11.225.687.812,8.74,10.414,7.18,4.333.05.774Z" fill="#c6c6f7"/>
      <path d="M41.785,19.955c-8.25-.249-14.042-5.196-17.771-13.902-3.758,8.706-9.521,13.653-17.799,13.902,6.357-3.925,12.149-11.608,17.799-19.955,5.622,8.347,11.414,16.03,17.771,19.955Z" fill="#deddff"/>
    </g>
  </g>
</svg>