<?xml version="1.0" encoding="UTF-8"?>
<svg id="Layer_2" data-name="Layer 2" xmlns="http://www.w3.org/2000/svg" viewBox="0 0 29.636 48">
  <g id="War_and_Army" data-name="War and Army">
    <g id="_89" data-name="89">
      <path d="M29.636,15.713v17.142c0,4.106-3.329,7.435-7.435,7.435H7.435c-4.106,0-7.435-3.329-7.435-7.435V15.713c0-4.334,3.514-7.848,7.848-7.848h13.94c4.334,0,7.848,3.514,7.848,7.848Z" fill="#46cc6b"/>
      <path d="M29.636,21.152v19.413c0,4.106-3.329,7.435-7.435,7.435H7.435c-4.106,0-7.435-3.329-7.435-7.435v-19.413c0-3.08,2.497-5.576,5.576-5.576h18.484c3.08,0,5.576,2.497,5.576,5.576Z" fill="#34ba5d"/>
      <path d="M29.636,37.296v3.269c0,4.106-3.329,7.435-7.435,7.435H7.435c-4.106,0-7.435-3.329-7.435-7.435v-3.269c0,4.106,3.329,7.435,7.435,7.435h14.767c4.106,0,7.435-3.329,7.435-7.435Z" fill="#179c5f"/>
      <path d="M26.022,8.693v9.722c0,2.281-1.849,4.131-4.131,4.131H7.745c-2.281,0-4.131-1.849-4.131-4.131v-9.723c0-.333.204-.631.514-.752l2.051-.8c.376-.147.797.011.999.361,1.528,2.632,4.377,4.4,7.639,4.4s6.11-1.768,7.639-4.399c.203-.349.623-.507.999-.361l2.052.799c.31.121.515.42.515.753Z" fill="#179c5f"/>
      <g>
        <path d="M10.894,18.967c0,1.064-.863,1.927-1.927,1.927s-1.927-.863-1.927-1.927.863-1.929,1.927-1.929,1.927.863,1.927,1.929Z" fill="#deddff"/>
        <path d="M10.781,19.585c-.25.76-.96,1.31-1.81,1.31-1.07,0-1.93-.86-1.93-1.93,0-.85.55-1.57,1.32-1.83-.07.19-.11.4-.11.62,0,1.06.86,1.93,1.93,1.93.21,0,.41-.03.6-.1Z" fill="#c6c6f7"/>
        <path d="M22.597,18.967c0,1.064-.863,1.927-1.927,1.927s-1.927-.863-1.927-1.927.863-1.929,1.927-1.929,1.927.863,1.927,1.929Z" fill="#deddff"/>
        <path d="M22.501,19.575c-.25.77-.98,1.32-1.83,1.32-1.06,0-1.93-.86-1.93-1.93,0-.85.55-1.57,1.32-1.82-.07.19-.11.4-.11.61,0,1.06.87,1.93,1.93,1.93.22,0,.43-.04.62-.11Z" fill="#c6c6f7"/>
      </g>
      <path d="M21.02,7.866h0s-12.404,0-12.404,0h0c0-.69.559-1.249,1.249-1.249h9.905c.69,0,1.249.559,1.249,1.249Z" fill="#34ba5d"/>
      <rect x="10.823" y="5.256" width="7.99" height="1.361" fill="#179c5f"/>
      <rect x="9.139" width="11.359" height="5.622" rx="1.34" ry="1.34" fill="#5b5e8b"/>
      <g>
        <path d="M11.72,1.212v3.195c0,.244-.196.44-.44.44-.242,0-.438-.196-.438-.44V1.212c0-.242.196-.438.438-.438.122,0,.231.05.312.128.078.078.128.19.128.31Z" fill="#312e4b"/>
        <path d="M14.078,1.212v3.195c0,.244-.196.44-.44.44-.242,0-.438-.196-.438-.44V1.212c0-.242.196-.438.438-.438.122,0,.231.05.312.128.078.078.128.19.128.31Z" fill="#312e4b"/>
        <path d="M16.436,1.212v3.195c0,.244-.196.44-.44.44-.242,0-.438-.196-.438-.44V1.212c0-.242.196-.438.438-.438.122,0,.231.05.312.128.078.078.128.19.128.31Z" fill="#312e4b"/>
        <path d="M18.794,1.212v3.195c0,.244-.196.44-.44.44-.242,0-.438-.196-.438-.44V1.212c0-.242.196-.438.438-.438.122,0,.231.05.312.128.078.078.128.19.128.31Z" fill="#312e4b"/>
      </g>
      <rect x="7.04" y="28.517" width="15.557" height="9.157" rx="2.018" ry="2.018" fill="#179c5f"/>
      <path d="M18.61,36.745h-2.386c-.171,0-.31-.139-.31-.31s.139-.31.31-.31h2.386c.171,0,.31.139.31.31s-.139.31-.31.31ZM13.838,36.745h-2.386c-.171,0-.31-.139-.31-.31s.139-.31.31-.31h2.386c.171,0,.31.139.31.31s-.139.31-.31.31ZM9.067,36.745h-.009c-.601,0-1.089-.488-1.089-1.089v-1.162c0-.171.139-.31.31-.31s.31.139.31.31v1.162c0,.259.211.469.469.469.171,0,.314.139.314.31s-.134.31-.305.31ZM20.709,36.485c-.088-.147-.039-.337.108-.425.142-.085.231-.24.231-.404v-1.578c0-.171.139-.31.31-.31s.31.139.31.31v1.578c0,.382-.205.741-.534.937-.147.088-.337.039-.425-.108ZM8.279,32.419c-.171,0-.31-.139-.31-.31v-1.574c0-.385.207-.745.539-.94.147-.086.337-.037.424.111.087.148.037.337-.111.424-.144.084-.233.24-.233.405v1.574c0,.171-.139.31-.31.31ZM21.358,32.002c-.171,0-.31-.139-.31-.31v-1.157c0-.259-.211-.469-.469-.469-.171,0-.312-.139-.312-.31s.136-.31.307-.31h.005c.601,0,1.089.488,1.089,1.089v1.157c0,.171-.139.31-.31.31ZM18.188,30.066h-2.386c-.171,0-.31-.139-.31-.31s.139-.31.31-.31h2.386c.171,0,.31.139.31.31s-.139.31-.31.31ZM13.417,30.066h-2.386c-.171,0-.31-.139-.31-.31s.139-.31.31-.31h2.386c.171,0,.31.139.31.31s-.139.31-.31.31Z" fill="#0a7a44"/>
    </g>
  </g>
</svg>