<?xml version="1.0" encoding="UTF-8"?>
<svg id="Layer_2" data-name="Layer 2" xmlns="http://www.w3.org/2000/svg" viewBox="0 0 47.998 48">
  <g id="War_and_Army" data-name="War and Army">
    <g id="_11" data-name="11">
      <g>
        <rect y="38.099" width="47.998" height="9.901" fill="#46cc6b"/>
        <path d="M13.426,40.913c0,.314-2.89.565-6.46.565s-6.46-.251-6.46-.565c0-.306,2.9-.565,6.46-.565s6.46.259,6.46.565Z" fill="#34ba5d"/>
        <path d="M26.719,40.913c0,.314-1.723.565-3.85.565s-3.85-.251-3.85-.565c0-.306,1.729-.565,3.85-.565s3.85.259,3.85.565Z" fill="#34ba5d"/>
        <path d="M13.614,44.394c0,.255-2.352.46-5.258.46s-5.258-.204-5.258-.46c0-.249,2.36-.46,5.258-.46s5.258.211,5.258.46Z" fill="#34ba5d"/>
        <path d="M30.183,45.446c0,.329-2.89.592-6.46.592s-6.46-.263-6.46-.592c0-.321,2.9-.592,6.46-.592s6.46.271,6.46.592Z" fill="#34ba5d"/>
        <path d="M44.079,45.446c0,.329-2.228.592-4.979.592s-4.979-.263-4.979-.592c0-.321,2.235-.592,4.979-.592s4.979.271,4.979.592Z" fill="#34ba5d"/>
        <path d="M47.041,40.573c0,.329-2.89.592-6.46.592s-6.46-.263-6.46-.592c0-.321,2.9-.592,6.46-.592s6.46.271,6.46.592Z" fill="#34ba5d"/>
      </g>
      <g>
        <path d="M24.885.628v9.839h-1.256V.628c0-.345.283-.628.628-.628.35,0,.628.283.628.628Z" fill="#312e4b"/>
        <path d="M42.769,27.189v10.125c0,.434-.351.785-.785.785H6.014c-.434,0-.785-.351-.785-.785v-10.125c0-10.366,8.404-18.77,18.77-18.77h0c10.366,0,18.77,8.404,18.77,18.77Z" fill="#ce2955"/>
        <path d="M6.705,35.838v-8.225c0-9.365,7.268-17.351,16.626-17.705,9.839-.372,17.962,7.523,17.962,17.281v8.649c0,.434-.351.785-.785.785H7.49c-.434,0-.785-.351-.785-.785Z" fill="#e83d62"/>
        <rect x="19.091" y="22.466" width="9.815" height="14.331" rx=".392" ry=".392" fill="#5b5e8b"/>
        <path d="M21.172,36.798h-1.686c-.224,0-.395-.181-.395-.395v-13.542c0-.224.171-.395.395-.395h1.686c-.213,0-.395.171-.395.395v13.542c0,.213.181.395.395.395Z" fill="#312e4b"/>
        <path d="M29.405,37.794h-10.813c-.275,0-.499-.223-.499-.499v-15.328c0-.275.223-.499.499-.499h10.813c.275,0,.499.223.499.499v15.328c0,.275-.223.499-.499.499ZM19.484,36.796h9.031c.217,0,.392-.176.392-.392v-13.546c0-.217-.176-.392-.392-.392h-9.031c-.217,0-.392.176-.392.392v13.546c0,.217.176.392.392.392Z" fill="#ce2955"/>
        <path d="M27.161,17.616c-.19.332-.619.478-.989.265l-1.45-.837v1.677c0,.396-.324.723-.723.723s-.723-.327-.723-.723v-1.677l-1.45.837c-.368.212-.797.068-.989-.265-.2-.344-.083-.785.265-.985l1.454-.837-1.454-.84c-.348-.2-.465-.641-.265-.985.2-.348.644-.465.989-.265l1.45.837v-1.674c0-.4.324-.727.723-.727s.723.327.723.727v1.674l1.45-.837c.344-.2.789-.083.989.265.2.344.083.785-.265.985l-1.454.84,1.454.837c.348.2.465.641.265.985Z" fill="#fcb73e"/>
        <g>
          <path d="M38.299,26.116v4.567c0,.416-.341.768-.768.768h-4.567c-.427,0-.768-.352-.768-.768v-4.567c0-.427.341-.768.768-.768h4.567c.427,0,.768.341.768.768Z" fill="#312e4b"/>
          <path d="M15.803,26.116v4.567c0,.416-.341.768-.768.768h-4.567c-.427,0-.768-.352-.768-.768v-4.567c0-.427.341-.768.768-.768h4.567c.427,0,.768.341.768.768Z" fill="#312e4b"/>
        </g>
        <path d="M29.812,1.709v2.835c0,.465-.377.842-.842.842h-5.343V.867h5.343c.465,0,.842.377.842.842Z" fill="#fcb73e"/>
      </g>
    </g>
  </g>
</svg>