<?xml version="1.0" encoding="UTF-8"?>
<svg id="Layer_2" data-name="Layer 2" xmlns="http://www.w3.org/2000/svg" viewBox="0 0 48.035 26.245">
  <g id="War_and_Army" data-name="War and Army">
    <g id="_69" data-name="69">
      <path d="M7.563,6.969c-.258,0-.466-.208-.466-.466v-3.204c0-.124.049-.242.137-.329l1.96-1.96c.182-.182.477-.182.659,0s.182.477,0,.659l-1.823,1.823v3.011c0,.258-.208.466-.466.466Z" fill="#5b5e8b"/>
      <path d="M9.268,6.197v8.456h-3.411V6.197c0-.257.209-.466.466-.466h2.479c.257,0,.466.209.466.466Z" fill="#179c5f"/>
      <path d="M21.135,4.5v16.46H1.371v-6.578c0-1.622,1.277-2.96,2.889-3.031.051-.01.101-.01.152-.01h3.904c.44,0,.829-.284.965-.702l1.627-5.042c.406-1.258,1.577-2.111,2.9-2.111h6.314c.56,0,1.014.454,1.014,1.014Z" fill="#46cc6b"/>
      <path d="M3.963,18.741v2.22H.375c-.203,0-.375-.162-.375-.375,0-.618.253-1.166.659-1.571s.953-.649,1.571-.649h1.368c.203,0,.365.162.365.375Z" fill="#deddff"/>
      <path d="M1.898,19.014c-.405.405-.659.953-.659,1.571,0,.213.172.375.375.375H.378c-.203,0-.375-.162-.375-.375,0-.618.253-1.166.659-1.571s.953-.649,1.571-.649h1.237c-.618,0-1.166.243-1.571.649Z" fill="#c6c6f7"/>
      <path d="M4.259,11.352v3.183c0,.56-.454,1.014-1.014,1.014h-1.875v-1.166c0-1.622,1.277-2.96,2.889-3.031Z" fill="#fcb73e"/>
      <path d="M48.035,21.771v.639c0,.446-.365.811-.811.811H2.182c-.446,0-.811-.365-.811-.811v-1.449h45.853c.446,0,.811.365.811.811Z" fill="#312e4b"/>
      <g>
        <path d="M18.685,22.226c0,2.212-1.789,4.016-4.016,4.016-2.212,0-4.016-1.804-4.016-4.016,0-2.228,1.804-4.032,4.016-4.032,2.228,0,4.016,1.804,4.016,4.032Z" fill="#5b5e8b"/>
        <path d="M17.919,24.594c-.733,1-1.919,1.651-3.256,1.651-2.209,0-4.012-1.803-4.012-4.024,0-1.337.651-2.523,1.663-3.256-.488.663-.779,1.488-.779,2.384,0,2.209,1.802,4.012,4.012,4.012.895,0,1.709-.291,2.372-.768Z" fill="#312e4b"/>
        <path d="M16.515,22.222c0,1.017-.822,1.846-1.846,1.846-1.017,0-1.846-.829-1.846-1.846,0-1.024.829-1.853,1.846-1.853,1.024,0,1.846.829,1.846,1.853Z" fill="#deddff"/>
        <path d="M16.268,23.14c-.314.558-.907.93-1.605.93-1.012,0-1.837-.837-1.837-1.849,0-.686.372-1.279.919-1.593-.151.267-.244.581-.244.919,0,1.012.837,1.837,1.849,1.837.337,0,.651-.093.919-.244Z" fill="#c6c6f7"/>
      </g>
      <path d="M19.716,10.189v-4.574c0-.392-.318-.709-.709-.709h-5.868c-.308,0-.581.199-.675.492l-1.476,4.574c-.148.458.194.927.675.927h7.344c.392,0,.709-.318.709-.709Z" fill="#deddff"/>
      <path d="M14.557,4.906c-.304,0-.578.203-.679.486l-1.47,4.581c-.152.456.193.922.669.922h-1.419c-.476,0-.821-.466-.669-.922l1.47-4.581c.101-.284.375-.486.679-.486h1.419Z" fill="#c6c6f7"/>
      <path d="M19.716,12.71c0,.274-.223.497-.486.497h-2.22c-.274,0-.497-.223-.497-.497,0-.264.223-.487.497-.487h2.22c.264,0,.486.223.486.487Z" fill="#179c5f"/>
      <path d="M47.349,1.014v19.947h-25.327V1.014c0-.56.454-1.014,1.014-1.014h23.3c.56,0,1.014.454,1.014,1.014Z" fill="#46cc6b"/>
      <g>
        <path d="M45.636,9.381v11.58h-9.06v-11.58c0-.596.484-1.08,1.08-1.08h6.901c.596,0,1.08.484,1.08,1.08Z" fill="#179c5f"/>
        <rect x="37.736" y="9.335" width="6.746" height="4.48" rx=".541" ry=".541" fill="#deddff"/>
        <path d="M39.9,13.809h-1.623c-.303,0-.541-.238-.541-.541v-3.397c0-.292.238-.541.541-.541h1.623c-.303,0-.541.249-.541.541v3.397c0,.303.238.541.541.541Z" fill="#c6c6f7"/>
        <path d="M38.507,15.323v1.407c0,.196-.16.352-.352.352-.196,0-.356-.155-.356-.352v-1.407c0-.196.16-.356.356-.356.192,0,.352.16.352.356Z" fill="#deddff"/>
      </g>
      <path d="M47.349,5.303V1.014c0-.56-.454-1.014-1.014-1.014h-23.3c-.56,0-1.014.454-1.014,1.014v4.289h25.327Z" fill="#179c5f"/>
      <g>
        <path d="M32.873,22.226c0,2.212-1.789,4.016-4.016,4.016-2.212,0-4.016-1.804-4.016-4.016,0-2.228,1.804-4.032,4.016-4.032,2.228,0,4.016,1.804,4.016,4.032Z" fill="#5b5e8b"/>
        <path d="M32.107,24.594c-.733,1-1.919,1.651-3.256,1.651-2.209,0-4.012-1.803-4.012-4.024,0-1.337.651-2.523,1.663-3.256-.488.663-.779,1.488-.779,2.384,0,2.209,1.802,4.012,4.012,4.012.895,0,1.709-.291,2.372-.768Z" fill="#312e4b"/>
        <path d="M30.702,22.222c0,1.017-.822,1.846-1.846,1.846-1.017,0-1.846-.829-1.846-1.846,0-1.024.829-1.853,1.846-1.853,1.024,0,1.846.829,1.846,1.853Z" fill="#deddff"/>
        <path d="M30.455,23.14c-.314.558-.907.93-1.605.93-1.012,0-1.837-.837-1.837-1.849,0-.686.372-1.279.919-1.593-.151.267-.244.581-.244.919,0,1.012.837,1.837,1.849,1.837.337,0,.651-.093.919-.244Z" fill="#c6c6f7"/>
      </g>
      <g>
        <path d="M44.533,22.226c0,2.212-1.789,4.016-4.016,4.016-2.212,0-4.016-1.804-4.016-4.016,0-2.228,1.804-4.032,4.016-4.032,2.228,0,4.016,1.804,4.016,4.032Z" fill="#5b5e8b"/>
        <path d="M43.767,24.594c-.733,1-1.919,1.651-3.256,1.651-2.209,0-4.012-1.803-4.012-4.024,0-1.337.651-2.523,1.663-3.256-.488.663-.779,1.488-.779,2.384,0,2.209,1.802,4.012,4.012,4.012.895,0,1.709-.291,2.372-.768Z" fill="#312e4b"/>
        <path d="M42.362,22.222c0,1.017-.822,1.846-1.846,1.846-1.017,0-1.846-.829-1.846-1.846,0-1.024.829-1.853,1.846-1.853,1.024,0,1.846.829,1.846,1.853Z" fill="#deddff"/>
        <path d="M42.115,23.14c-.314.558-.907.93-1.605.93-1.012,0-1.837-.837-1.837-1.849,0-.686.372-1.279.919-1.593-.151.267-.244.581-.244.919,0,1.012.837,1.837,1.849,1.837.337,0,.651-.093.919-.244Z" fill="#c6c6f7"/>
      </g>
      <path d="M31.856,2.25v1.115c0,.345-.284.628-.628.628h-4.743c-.345,0-.628-.284-.628-.628v-1.115c0-.355.284-.628.628-.628h4.743c.345,0,.628.274.628.628Z" fill="#deddff"/>
      <path d="M27.984,3.993h-1.5c-.345,0-.628-.284-.628-.628v-1.115c0-.355.284-.628.628-.628h1.5c-.345,0-.628.274-.628.628v1.115c0,.345.284.628.628.628Z" fill="#c6c6f7"/>
      <path d="M43.394,2.25v1.115c0,.345-.284.628-.628.628h-4.743c-.345,0-.628-.284-.628-.628v-1.115c0-.355.284-.628.628-.628h4.743c.345,0,.628.274.628.628Z" fill="#deddff"/>
      <path d="M39.518,3.993h-1.5c-.345,0-.628-.284-.628-.628v-1.115c0-.355.284-.628.628-.628h1.5c-.345,0-.628.274-.628.628v1.115c0,.345.284.628.628.628Z" fill="#c6c6f7"/>
      <g>
        <rect x="25.855" y="9.335" width="6.746" height="4.48" rx=".541" ry=".541" fill="#deddff"/>
        <path d="M28.019,13.809h-1.623c-.303,0-.541-.238-.541-.541v-3.397c0-.292.238-.541.541-.541h1.623c-.303,0-.541.249-.541.541v3.397c0,.303.238.541.541.541Z" fill="#c6c6f7"/>
      </g>
    </g>
  </g>
</svg>