<?xml version="1.0" encoding="UTF-8"?>
<svg id="Layer_2" data-name="Layer 2" xmlns="http://www.w3.org/2000/svg" viewBox="0 0 23.114 47.936">
  <g id="War_and_Army" data-name="War and Army">
    <g id="_50" data-name="50">
      <rect y="25.201" width="23.114" height="20.589" rx="1.998" ry="1.998" fill="#46cc6b"/>
      <path d="M1.998,26.501h19.118c.385,0,.698.313.698.698v16.593c0,.386-.313.699-.699.699H1.999c-.386,0-.699-.313-.699-.699v-16.593c0-.385.313-.698.698-.698Z" fill="#179c5f"/>
      <rect y="2.145" width="23.114" height="20.589" rx="1.998" ry="1.998" fill="#46cc6b"/>
      <path d="M3.792,22.737h-1.79C.892,22.737.002,21.837.002,20.737V4.147C.002,3.037.892,2.147,2.002,2.147h1.79c-1.11,0-2,.89-2,2v16.59c0,1.1.89,2,2,2Z" fill="#179c5f"/>
      <rect x="5.365" y="22.731" width="12.384" height="2.473" fill="#312e4b"/>
      <path d="M15.157,45.791v1.152c0,.548-.445.993-.993.993h-5.214c-.548,0-.993-.445-.993-.993v-1.152h7.2Z" fill="#46cc6b"/>
      <path d="M9.598,46.475s-.07,1.46,1,1.46h-1.65c-.55,0-.99-.44-.99-.99v-1.15h7.2v.68h-5.56Z" fill="#179c5f"/>
      <path d="M7.957,2.145V.993C7.957.445,8.402,0,8.95,0h5.214c.548,0,.993.445.993.993v1.152h-7.2Z" fill="#312e4b"/>
      <circle cx="11.558" cy="35.495" r="8.571" fill="#312e4b"/>
      <circle cx="11.558" cy="35.495" r="7.263" fill="#deddff"/>
      <g>
        <g>
          <path d="M12.92,36.857l-2.723-2.723,5.782-3.189c.084-.046.177.046.13.13l-3.189,5.782Z" fill="#3e7fff"/>
          <path d="M10.196,34.133l2.723,2.723-5.782,3.189c-.084.046-.177-.046-.13-.13l3.189-5.782Z" fill="#fcb73e"/>
        </g>
        <circle cx="11.558" cy="35.495" r="1.179" fill="#deddff"/>
        <circle cx="11.558" cy="35.495" r=".736" fill="#312e4b"/>
      </g>
      <g>
        <path d="M11.892,29.345v1.521c0,.184-.146.338-.33.338s-.338-.153-.338-.338v-1.521c0-.184.154-.33.338-.33s.33.146.33.33Z" fill="#312e4b"/>
        <path d="M11.892,40.116v1.521c0,.184-.146.338-.33.338s-.338-.153-.338-.338v-1.521c0-.184.154-.33.338-.33s.33.146.33.33Z" fill="#312e4b"/>
      </g>
      <g>
        <path d="M5.408,35.161h1.521c.184,0,.338.146.338.33s-.153.338-.338.338h-1.521c-.184,0-.33-.154-.33-.338s.146-.33.33-.33Z" fill="#312e4b"/>
        <path d="M16.179,35.161h1.521c.184,0,.338.146.338.33s-.153.338-.338.338h-1.521c-.184,0-.33-.154-.33-.338s.146-.33.33-.33Z" fill="#312e4b"/>
      </g>
      <g>
        <circle cx="11.558" cy="12.44" r="8.571" fill="#312e4b"/>
        <circle cx="11.558" cy="12.44" r="7.263" fill="#deddff"/>
      </g>
    </g>
  </g>
</svg>