<?xml version="1.0" encoding="UTF-8"?>
<svg id="Layer_2" data-name="Layer 2" xmlns="http://www.w3.org/2000/svg" viewBox="0 0 42.024 48">
  <g id="War_and_Army" data-name="War and Army">
    <g id="_54" data-name="54">
      <g>
        <g>
          <path d="M36.4,30.367l5.622,3.768c-.162-3.188-.837-6.148-2.387-8.728-.292-.486-1.031-.485-1.323,0-.918,1.529-1.533,3.195-1.912,4.96Z" fill="#e83d62"/>
          <path d="M42.019,34.135l-5.622-3.768c.11-.512.244-1.012.39-1.5l5.061,3.402c.085.61.134,1.232.171,1.866Z" fill="#ce2955"/>
        </g>
        <g>
          <path d="M5.624,30.367L.002,34.135c.162-3.188.837-6.148,2.387-8.728.292-.486,1.031-.485,1.323,0,.918,1.529,1.533,3.195,1.912,4.96Z" fill="#e83d62"/>
          <path d="M.005,34.135l5.622-3.768c-.11-.512-.244-1.012-.39-1.5L.176,32.269c-.085.61-.134,1.232-.171,1.866Z" fill="#ce2955"/>
        </g>
        <path d="M27.675,36.331v2.084l7.174,5.408c.394.297.513.837.279,1.272l-.7,1.302c-.174.324-.513.526-.881.526h-6.327v-1.413c0-1.222-.99-2.212-2.212-2.212h-.003c-1.222,0-2.212.99-2.212,2.212v1.24h-3.56v-1.24c0-1.222-.99-2.212-2.212-2.212h-.003c-1.222,0-2.212.99-2.212,2.212v1.413l-6.328-.003c-.368,0-.706-.202-.88-.526l-.699-1.299c-.234-.435-.116-.975.279-1.273l7.173-5.408v-2.084l-14.35,3.296v-5.511l15.673-11.818,3.042-13.922c.26-1.192.423-2.406.527-3.622.16-1.866.681-3.369,1.478-4.595.135-.208.453-.208.587,0,.794,1.225,1.315,2.728,1.475,4.592.104,1.215.266,2.426.526,3.617.961,4.398,3.043,13.93,3.043,13.93l15.673,11.818v5.515l-14.35-3.299Z" fill="#65b9ff"/>
        <path d="M23.003,6.652c-.093-.646-.166-1.296-.225-1.947-.164-1.842-.683-3.33-1.47-4.544-.138-.214-.451-.214-.589,0-.789,1.215-1.308,2.702-1.473,4.545-.059.651-.131,1.301-.225,1.947h3.981Z" fill="#312e4b"/>
        <polygon points="27.675 36.33 27.675 34.391 42.022 38.326 42.022 39.629 27.675 36.33" fill="#3e7fff"/>
        <path d="M26.688,40.572v2.651c0,.05-.005.099-.016.148l-.427,1.963c-.07.32-.353.547-.68.547l-1.118-.002c-.326,0-.608-.227-.677-.546l-.43-1.962c-.011-.049-.016-.099-.016-.149v-2.651c0-.928.753-1.681,1.681-1.681h.003c.928,0,1.681.753,1.681,1.681Z" fill="#312e4b"/>
        <path d="M26.671,43.371l-.427,1.962c-.069.319-.351.549-.677.549l-1.118-.003c-.326,0-.608-.226-.677-.545l-.431-1.962h3.33Z" fill="#e83d62"/>
        <polygon points="42.024 34.116 42.024 36.158 21.014 24.305 21.014 18.273 42.024 34.116" fill="#3e7fff"/>
        <polygon points="0 34.116 21.014 18.273 21.01 24.305 0 36.154 0 34.116" fill="#3e7fff"/>
        <polygon points="14.349 36.33 14.349 34.391 .002 38.326 .002 39.629 14.349 36.33" fill="#3e7fff"/>
        <path d="M15.336,40.572v2.651c0,.05.005.099.016.148l.427,1.963c.07.32.353.547.68.547l1.118-.002c.326,0,.608-.227.677-.546l.43-1.962c.011-.049.016-.099.016-.149v-2.651c0-.928-.753-1.681-1.681-1.681h-.003c-.928,0-1.681.753-1.681,1.681Z" fill="#312e4b"/>
        <rect x="19.232" y="46.75" width="3.56" height="1.25" fill="#e83d62"/>
        <path d="M24.327,26.173v8.942c0,.575-.466,1.042-1.042,1.042h-4.546c-.575,0-1.042-.466-1.042-1.042v-8.942l3.313-1.865.003-.003v.003l3.313,1.865Z" fill="#e83d62"/>
        <path d="M24.327,26.173v1.108l-3.313-1.865h-.003c-1.296.729-2.098,2.101-2.098,3.588v6.112c0,.576.465,1.042,1.042,1.042h-1.215c-.575,0-1.042-.466-1.042-1.042v-8.942l3.313-1.865h.003l.608.34,2.705,1.525Z" fill="#ce2955"/>
        <path d="M18.684,43.371l-.427,1.962c-.069.319-.351.549-.677.549l-1.118-.003c-.326,0-.608-.226-.677-.545l-.431-1.962h3.33Z" fill="#e83d62"/>
      </g>
      <g>
        <path d="M23.23,11.201l-.22,3.918c-.058,1.033-.913,1.841-1.947,1.841h0c-1.035,0-1.889-.808-1.947-1.841l-.22-3.918c-.07-1.245.921-2.293,2.168-2.293h0c1.247,0,2.238,1.048,2.168,2.293Z" fill="#deddff"/>
        <path d="M21.715,16.846c-.202.072-.424.111-.653.111-.516,0-.986-.202-1.338-.529-.352-.333-.574-.796-.607-1.312l-.222-3.916c-.072-1.247.92-2.291,2.167-2.291.229,0,.444.033.646.098-.92.294-1.566,1.175-1.514,2.193l.222,3.916c.026.516.261.979.607,1.312.196.183.431.326.692.418Z" fill="#c6c6f7"/>
      </g>
    </g>
  </g>
</svg>