<?xml version="1.0" encoding="UTF-8"?>
<svg id="Layer_2" data-name="Layer 2" xmlns="http://www.w3.org/2000/svg" viewBox="0 0 30.276 48">
  <g id="War_and_Army" data-name="War and Army">
    <g id="_46" data-name="46">
      <g>
        <g>
          <rect x="6.134" y="13.085" width="24.142" height="2.631" rx="1.315" ry="1.315" fill="#e83d62"/>
          <path d="M14.314,15.715h-6.862c-.731,0-1.315-.589-1.315-1.315,0-.363.146-.693.382-.928.24-.24.57-.386.933-.386h6.862c-.363,0-.693.146-.929.386-.24.236-.386.566-.386.928,0,.726.589,1.315,1.315,1.315Z" fill="#ce2955"/>
          <rect x="6.134" y="45.369" width="24.142" height="2.631" rx="1.315" ry="1.315" fill="#e83d62"/>
          <path d="M14.314,48h-6.862c-.731,0-1.315-.589-1.315-1.315,0-.363.146-.693.382-.928.24-.24.57-.386.933-.386h6.862c-.363,0-.693.146-.929.386-.24.236-.386.566-.386.928,0,.726.589,1.315,1.315,1.315Z" fill="#ce2955"/>
          <rect x="7.369" y="15.716" width="21.672" height="29.65" fill="#ce2955"/>
          <rect x="7.369" y="17.483" width="21.672" height="26.116" fill="#e83d62"/>
          <rect x="7.371" y="17.483" width="2.856" height="26.115" fill="#ce2955"/>
        </g>
        <path d="M15.501,1.969v6.188h-4.388c-4.571,0-8.276,3.705-8.276,8.276v21.61c0,.783-.635,1.419-1.419,1.419h0c-.783,0-1.419-.635-1.419-1.419V15.161C0,9.057,5.759,3.472,11.91,1.969h3.591Z" fill="#312e4b"/>
        <rect x="11.912" y="1.969" width="12.351" height="11.116" fill="#5b5e8b"/>
        <polygon points="27.511 3.305 27.511 6.408 24.263 11.646 24.263 3.305 27.511 3.305" fill="#312e4b"/>
        <path d="M17.111,5.31c0,.886-.721,1.607-1.607,1.607-.891,0-1.612-.721-1.612-1.607,0-.891.721-1.612,1.612-1.612.886,0,1.607.721,1.607,1.612Z" fill="#312e4b"/>
        <rect x="10.167" y="24.947" width="15.842" height="11.704" rx="1.084" ry="1.084" fill="#deddff"/>
        <path d="M14.549,36.652h-3.299c-.599,0-1.084-.485-1.084-1.084v-9.539c0-.599.485-1.084,1.084-1.084h3.299c-.599,0-1.084.485-1.084,1.084v9.539c0,.599.485,1.084,1.084,1.084Z" fill="#c6c6f7"/>
        <g>
          <path d="M23.045,28.206v.005c0,.302-.245.547-.547.547h-8.818c-.306,0-.551-.245-.551-.547v-.005c0-.302.245-.547.551-.547h8.818c.302,0,.547.245.547.547Z" fill="#5b5e8b"/>
          <path d="M23.045,30.796v.005c0,.302-.245.547-.547.547h-8.818c-.306,0-.551-.245-.551-.547v-.005c0-.302.245-.547.551-.547h8.818c.302,0,.547.245.547.547Z" fill="#5b5e8b"/>
          <path d="M23.045,33.387v.005c0,.302-.245.547-.547.547h-8.818c-.306,0-.551-.245-.551-.547v-.005c0-.302.245-.547.551-.547h8.818c.302,0,.547.245.547.547Z" fill="#5b5e8b"/>
        </g>
        <g>
          <path d="M16.882,28.758h-3.2c-.306,0-.551-.245-.551-.547v-.005c0-.302.245-.547.551-.547h3.2c-.306,0-.551.245-.551.547v.005c0,.302.245.547.551.547Z" fill="#312e4b"/>
          <path d="M16.882,31.345h-3.2c-.306,0-.551-.245-.551-.542v-.009c0-.302.245-.547.551-.547h3.2c-.306,0-.551.245-.551.547v.009c0,.297.245.542.551.542Z" fill="#312e4b"/>
          <path d="M16.882,33.938h-3.2c-.306,0-.551-.245-.551-.547v-.005c0-.302.245-.547.551-.547h3.2c-.306,0-.551.245-.551.547v.005c0,.302.245.547.551.547Z" fill="#312e4b"/>
        </g>
      </g>
      <path d="M11.031,10.511c-2.897,0-5.253-2.358-5.253-5.257S8.134,0,11.031,0s5.257,2.357,5.257,5.253-2.358,5.257-5.257,5.257ZM11.031,1.638c-1.994,0-3.615,1.622-3.615,3.615s1.622,3.619,3.615,3.619,3.619-1.623,3.619-3.619-1.623-3.615-3.619-3.615Z" fill="#fcb73e"/>
    </g>
  </g>
</svg>