<?xml version="1.0" encoding="UTF-8"?>
<svg id="Layer_2" data-name="Layer 2" xmlns="http://www.w3.org/2000/svg" viewBox="0 0 47.987 47.988">
  <g id="War_and_Army" data-name="War and Army">
    <g id="_17" data-name="17">
      <g>
        <g>
          <path d="M13.424,10.922h-6.962v9.041c-3.049-1.749-4.964-5.001-4.964-8.576C1.498,5.935,5.933,1.5,11.385,1.5c2.536,0,4.927.951,6.768,2.684v2.699h1.498v-3.326l-.219-.219C17.281,1.186,14.423.002,11.385.002,5.107.002,0,5.109,0,11.387c0,4.568,2.715,8.679,6.917,10.473l1.043.445v-9.886h5.464v-1.498Z" fill="#312e4b"/>
          <path d="M44.606,28.509l-1.276-1.261v8.214h-1.891v1.498h3.389v-5.845c1.081,1.611,1.661,3.504,1.661,5.488,0,5.452-4.435,9.887-9.887,9.887-3.736,0-7.063-2.049-8.755-5.305h5.29v-1.624h-1.498v.126h-6.043l.394,1.019c1.712,4.424,5.877,7.282,10.612,7.282,6.278,0,11.385-5.107,11.385-11.385,0-3.064-1.201-5.938-3.381-8.094Z" fill="#312e4b"/>
        </g>
        <g>
          <g>
            <path d="M36.601,0c-2.886,0-5.642,1.093-7.764,3.081l-1.383,1.293h3.086v4.208h1.498V2.876h-.449c1.508-.894,3.236-1.378,5.013-1.378,5.452,0,9.886,4.439,9.886,9.891,0,3.42-1.738,6.526-4.549,8.319v1.728c3.705-1.962,6.047-5.787,6.047-10.046,0-6.281-5.108-11.389-11.384-11.389Z" fill="#312e4b"/>
            <polygon points="36.165 13.075 36.097 13.075 36.097 17.209 37.541 17.209 37.541 10.339 36.165 10.339 36.165 13.075" fill="#fff"/>
          </g>
          <path d="M11.374,38.414v-5.355h-1.498v6.853h10.817c-1.383,3.918-5.083,6.579-9.308,6.579-5.452,0-9.887-4.435-9.887-9.887,0-3.336,1.663-6.358,4.319-8.164v-1.756c-3.547,1.984-5.817,5.737-5.817,9.92,0,6.278,5.107,11.385,11.385,11.385,5.241,0,9.781-3.555,11.04-8.646l.23-.929h-11.28Z" fill="#312e4b"/>
        </g>
      </g>
      <path d="M23.994.015C10.759.015.027,10.748.027,23.982c0,5.152,1.626,9.93,4.388,13.841,1.568,2.223,3.507,4.166,5.72,5.744,3.911,2.785,8.693,4.421,13.86,4.421,13.249,0,23.967-10.757,23.967-24.006S37.243.015,23.994.015ZM23.994,37.671c-2.116,0-4.118-.482-5.904-1.337-2.814-1.358-5.098-3.647-6.434-6.467-.85-1.78-1.326-3.772-1.326-5.871,0-7.549,6.115-13.664,13.664-13.664s13.664,6.115,13.664,13.664-6.115,13.675-13.664,13.675Z" fill="#e83d62"/>
      <path d="M23.994,5.679C13.875,5.679,5.682,13.877,5.682,23.996c0,2.814.639,5.482,1.775,7.868,1.791,3.777,4.854,6.845,8.626,8.664,2.392,1.147,5.076,1.797,7.912,1.797,10.119,0,18.312-8.22,18.312-18.329S34.113,5.679,23.994,5.679ZM23.994,37.671c-2.116,0-4.118-.482-5.904-1.337-2.814-1.358-5.098-3.647-6.434-6.467-.85-1.78-1.326-3.772-1.326-5.871,0-7.549,6.115-13.664,13.664-13.664s13.664,6.115,13.664,13.664-6.115,13.675-13.664,13.675Z" fill="#ce2955"/>
      <path d="M14.67,8.227c-2.652,1.569-4.87,3.793-6.44,6.445l3.431,3.431c1.208-2.528,3.304-4.807,5.926-6.174.168-.092.346-.184.52-.265l-3.436-3.436Z" fill="#e5f5f9"/>
      <path d="M11.656,29.868l-3.436,3.431c1.564,2.657,3.788,4.887,6.44,6.461l3.431-3.425c-2.814-1.358-5.098-3.647-6.434-6.467Z" fill="#e5f5f9"/>
      <path d="M36.327,29.884c-1.291,2.713-3.508,5.033-6.429,6.45l3.431,3.431c2.652-1.575,4.865-3.799,6.434-6.45l-3.436-3.431Z" fill="#f14448"/>
      <path d="M43.872,10.584l-7.539,7.539c-.067-.1-.549-1.197-1.361-2.256-.203-.514-2.307-2.813-5.08-4.2l7.539-7.534c2.535,1.717,4.724,3.911,6.442,6.451Z" fill="#deddff"/>
      <path d="M18.09,36.337l-7.534,7.519c-.144-.091-.284-.188-.423-.289-2.213-1.578-4.152-3.522-5.72-5.744-.101-.14-.197-.284-.289-.428l7.529-7.529c1.337,2.819,3.622,5.109,6.437,6.471Z" fill="#deddff"/>
      <path d="M18.09,36.334l-3.431,3.425c-2.652-1.575-4.876-3.804-6.44-6.461l3.436-3.431c1.337,2.819,3.62,5.108,6.434,6.467Z" fill="#c6c6f7"/>
      <path d="M43.862,37.414c-1.713,2.54-3.902,4.729-6.432,6.446l-7.534-7.524c3.066-1.485,5.325-4.046,6.413-6.418.01-.01.014-.024.019-.034l7.534,7.529Z" fill="#deddff"/>
      <path d="M39.763,33.315c-1.569,2.652-3.783,4.876-6.434,6.45l-3.431-3.431c2.873-1.394,5.114-3.686,6.429-6.45l3.436,3.431Z" fill="#c6c6f7"/>
      <path d="M18.105,11.662c-.01.005-.024.01-.034.019-.197.091-.395.192-.587.303-2.55,1.338-4.706,3.72-5.802,6.081-.005.014-.014.024-.019.038l-7.539-7.529c1.717-2.54,3.906-4.729,6.442-6.451l7.539,7.539Z" fill="#deddff"/>
      <path d="M18.106,11.664c-.173.081-.352.173-.52.265-2.626,1.37-4.718,3.646-5.926,6.174l-3.431-3.431c1.569-2.652,3.788-4.876,6.44-6.445l3.436,3.436Z" fill="#c6c6f7"/>
      <path d="M39.768,14.689l-3.436,3.436c-1.46-2.916-3.529-5.045-6.44-6.456l3.436-3.436c2.652,1.575,4.87,3.799,6.44,6.456Z" fill="#c6c6f7"/>
    </g>
  </g>
</svg>