<?xml version="1.0" encoding="UTF-8"?>
<svg id="Layer_2" data-name="Layer 2" xmlns="http://www.w3.org/2000/svg" viewBox="0 0 48 45.425">
  <g id="War_and_Army" data-name="War and Army">
    <g id="_90" data-name="90">
      <g>
        <path d="M40.755,16.707l-3.439,17.416c-.665,3.363-2.471,6.26-4.971,8.314-.144.119-.291.234-.44.347-4.73,3.591-11.389,3.504-16.046-.181-2.606-2.062-4.495-5.023-5.177-8.48l-3.435-17.416C5.537,8.059,12.16,0,20.979,0h6.041c8.819,0,15.442,8.059,13.735,16.707Z" fill="#5b5e8b"/>
        <path d="M25.445,45.347c-3.351.366-6.821-.553-9.584-2.742-2.607-2.062-4.497-5.023-5.178-8.481l-3.435-17.416C5.537,8.059,12.16,0,20.979,0h2.854c-8.819,0-15.442,8.059-13.731,16.707l3.435,17.416c.681,3.459,2.571,6.42,5.174,8.481,1.982,1.568,4.33,2.487,6.734,2.742Z" fill="#312e4b"/>
        <path d="M41.086,16.158l-.665,3.057c-.884,4.044-5.409,6.105-9.042,4.119l-7.379-4.04-7.379,4.04c-3.634,1.986-8.159-.076-9.042-4.119l-.665-3.057c-.848-3.868,2.101-7.53,6.061-7.53h7.522c1.934,0,3.502,1.568,3.502,3.498,0-1.93,1.568-3.498,3.502-3.498h7.522c3.96,0,6.909,3.661,6.061,7.53Z" fill="#deddff"/>
        <path d="M13.652,21.711c.637,0,1.251-.159,1.824-.472l4.688-2.567c.893-.489,1.448-1.426,1.448-2.444v-2.426c0-1.539-1.247-2.786-2.786-2.786h-5.731c-1.044,0-2.074.372-2.812,1.112-.936.937-1.313,2.251-1.035,3.519l.665,3.06c.386,1.767,1.924,3.003,3.739,3.003Z" fill="#65b9ff"/>
        <path d="M14.842,21.519c-.382.127-.78.191-1.19.191-1.815,0-3.355-1.234-3.741-3.005l-.665-3.057c-.279-1.27.099-2.583,1.035-3.522.74-.736,1.767-1.11,2.814-1.11h2.388c-1.047,0-2.073.374-2.814,1.11-.935.939-1.313,2.253-1.035,3.522l.665,3.057c.298,1.365,1.278,2.408,2.543,2.814Z" fill="#3e7fff"/>
        <path d="M32.093,33.996c0,4.468-3.621,8.092-8.092,8.092s-8.089-3.625-8.089-8.092,3.621-8.092,8.089-8.092,8.092,3.625,8.092,8.092Z" fill="#312e4b"/>
        <path d="M29.78,33.996c0,3.191-2.586,5.779-5.779,5.779s-5.777-2.589-5.777-5.779,2.586-5.779,5.777-5.779,5.779,2.589,5.779,5.779Z" fill="#5b5e8b"/>
        <path d="M29.895,38.854l-1.033,1.033-3.763-3.763c-.329.172-.704.266-1.099.266s-.767-.095-1.095-.266l-3.763,3.763-1.033-1.033,3.763-3.76c-.172-.329-.266-.704-.266-1.099,0-1.069.701-1.975,1.668-2.285v-4.103h1.46v4.106c.967.31,1.664,1.216,1.664,2.281,0,.394-.095.767-.266,1.095l3.763,3.763Z" fill="#312e4b"/>
        <path d="M34.348,21.711c-.637,0-1.251-.159-1.824-.472l-4.688-2.567c-.893-.489-1.448-1.426-1.448-2.444v-2.426c0-1.539,1.247-2.786,2.786-2.786h5.731c1.044,0,2.074.372,2.812,1.112.936.937,1.313,2.251,1.035,3.519l-.665,3.06c-.386,1.767-1.924,3.003-3.739,3.003Z" fill="#65b9ff"/>
        <path d="M33.157,21.519c.382.127.78.191,1.19.191,1.815,0,3.355-1.234,3.741-3.005l.665-3.057c.279-1.27-.099-2.583-1.035-3.522-.74-.736-1.767-1.11-2.814-1.11h-2.388c1.047,0,2.073.374,2.814,1.11.935.939,1.313,2.253,1.035,3.522l-.665,3.057c-.298,1.365-1.278,2.408-2.543,2.814Z" fill="#3e7fff"/>
      </g>
      <g>
        <g>
          <path d="M47.879,34.016c-.556,4.94-2.836,8.738-5.098,8.483-2.262-.252-3.644-4.463-3.088-9.399.552-4.94,2.836-8.738,5.094-8.486,2.262.255,3.644,4.463,3.092,9.403Z" fill="#312e4b"/>
          <path d="M42.786,33.527c-.556,4.317-2.836,7.636-5.098,7.413-2.262-.22-3.644-3.9-3.088-8.214.552-4.317,2.836-7.636,5.094-7.416,2.262.223,3.644,3.9,3.092,8.217Z" fill="#312e4b"/>
          <path d="M39.693,33.099c-.556,4.94.826,9.147,3.088,9.403h-3.144c-2.262-.255-3.644-4.463-3.092-9.403.556-4.94,2.836-8.738,5.098-8.483h2.724c-2.115.222-4.155,3.851-4.673,8.483Z" fill="#5b5e8b"/>
        </g>
        <g>
          <path d="M.121,34.016c.556,4.94,2.836,8.738,5.098,8.483,2.262-.252,3.644-4.463,3.088-9.399-.552-4.94-2.836-8.738-5.094-8.486-2.262.255-3.644,4.463-3.092,9.403Z" fill="#312e4b"/>
          <path d="M5.214,33.527c.556,4.317,2.836,7.636,5.098,7.413,2.262-.22,3.644-3.9,3.088-8.214-.552-4.317-2.836-7.636-5.094-7.416-2.262.223-3.644,3.9-3.092,8.217Z" fill="#312e4b"/>
          <path d="M8.307,33.099c.556,4.94-.826,9.147-3.088,9.403h3.144c2.262-.255,3.644-4.463,3.092-9.403-.556-4.94-2.836-8.738-5.098-8.483h-2.724c2.115.222,4.155,3.851,4.673,8.483Z" fill="#5b5e8b"/>
        </g>
      </g>
    </g>
  </g>
</svg>