<?xml version="1.0" encoding="UTF-8"?>
<svg id="Layer_2" data-name="Layer 2" xmlns="http://www.w3.org/2000/svg" viewBox="0 0 44.152 48">
  <g id="War_and_Army" data-name="War and Army">
    <g id="_80" data-name="80">
      <g>
        <path d="M10.142,4.096l9.616-.209,4.808-.105c5.491-.207,10.516,1.797,14.277,5.505,1.266,1.237,2.348,2.668,3.214,4.221.879,1.53,1.498,3.316,1.981,4.759l.009.027c.353,1.053-.215,2.193-1.269,2.546-1.053.353-2.193-.215-2.546-1.269-.008-.024-.018-.056-.025-.08-.467-1.615-.853-2.891-1.509-4.18-.637-1.275-1.456-2.468-2.44-3.515-1.955-2.103-4.507-3.682-7.315-4.459-3.437-.857-4.292-.457-9.185-.686l-9.616-.209c-.648-.014-1.162-.551-1.147-1.199.014-.63.524-1.133,1.147-1.147Z" fill="#312e4b"/>
        <path d="M35.391,31.142c0,8.637-6.75,16.858-16.786,16.858-14.536,0-22.177-17.248-12.405-28.009l5.067-5.589h14.668l5.074,5.589c3.022,3.332,4.381,7.284,4.381,11.151Z" fill="#65b9ff"/>
        <path d="M20.871,47.849c-.731.101-1.488.147-2.266.147-14.538,0-22.18-17.246-12.407-28.005l5.067-5.59h14.673l5.074,5.59h-8.179c-16.902,0-19.413,24.79-2.769,27.734.266.047.535.088.806.123Z" fill="#3e7fff"/>
        <path d="M26.803,13.115c0,.707-.574,1.287-1.287,1.287h-13.821c-1.145,0-1.715-1.389-.912-2.192.235-.235.556-.375.912-.375h13.821c.711,0,1.287.57,1.287,1.28Z" fill="#deddff"/>
        <path d="M17.392,14.402h-5.697c-1.145,0-1.715-1.389-.912-2.192.235-.235.556-.375.912-.375h5.697c-.723,0-1.287.582-1.287,1.28,0,.711.576,1.287,1.287,1.287Z" fill="#c6c6f7"/>
        <path d="M23.13,3.396v8.439h-9.049V3.396c0-.74.6-1.341,1.341-1.341h6.368c.74,0,1.341.6,1.341,1.341Z" fill="#5b5e8b"/>
        <path d="M23.13,10.058v1.776h-9.049V3.396c0-.737.603-1.341,1.341-1.341h3.103c-.744,0-1.341.603-1.341,1.341v.717c0,3.284,2.662,5.945,5.945,5.945h0Z" fill="#312e4b"/>
        <path d="M7.48,10.333c-2.848,0-5.165-2.318-5.165-5.168S4.632,0,7.48,0s5.168,2.317,5.168,5.165-2.318,5.168-5.168,5.168ZM7.48,1.611c-1.96,0-3.554,1.594-3.554,3.554s1.594,3.558,3.554,3.558,3.557-1.596,3.557-3.558-1.596-3.554-3.557-3.554Z" fill="#fcb73e"/>
      </g>
      <rect x=".004" y="29.859" width="37.202" height="3.75" rx="1.87" ry="1.87" fill="#3e7fff"/>
      <path d="M10.86,33.609H1.87c-1.03,0-1.87-.84-1.87-1.87v-.01c0-1.03.84-1.87,1.87-1.87h8.99c-1.03,0-1.87.84-1.87,1.87v.01c0,1.03.84,1.87,1.87,1.87Z" fill="#1e69e0"/>
    </g>
  </g>
</svg>