<?xml version="1.0" encoding="UTF-8"?>
<svg id="Layer_2" data-name="Layer 2" xmlns="http://www.w3.org/2000/svg" viewBox="0 0 48.001 26.067">
  <g id="War_and_Army" data-name="War and Army">
    <g id="_77" data-name="77">
      <g>
        <rect x="28.976" y="5.745" width=".847" height="4.504" transform="translate(2.1 21.525) rotate(-41.576)" fill="#312e4b"/>
        <path d="M29.54,4.52c.149.168.133.424-.034.573l-3.004,2.664c-.168.149-.421.13-.57-.037s-.136-.421.031-.57l3.004-2.664c.168-.149.424-.133.573.034Z" fill="#312e4b"/>
      </g>
      <path d="M29.706,12.397l-.79-3.048c-.118-.456.226-.902.698-.902h1.541l1.811,4.728-2.576.082-.682-.861Z" fill="#5b5e8b"/>
      <rect x="4.504" y="6.837" width="17.398" height="1.61" fill="#3e7fff"/>
      <path d="M21.738,2.351l3.269,11.386h-2.31l-3.093-10.774c-.204-.709.329-1.416,1.067-1.416h0c.495,0,.93.328,1.067.804Z" fill="#312e4b"/>
      <g>
        <path d="M48.001,12.92c0,1.12-.91,2.03-2.02,2.03-1.12,0-2.03-.91-2.03-2.03s.91-2.03,2.03-2.03c1.11,0,2.02.91,2.02,2.03Z" fill="#fcb73e"/>
        <path d="M47.11,11.647v5H4.51l.01-8.2h17.46c.55,0,1,.45,1,1v1.95c0,.55.45,1,1,1h6.94c.66,0,1.14-.63.97-1.26l-.74-2.69h12.76c1.76,0,3.2,1.44,3.2,3.2Z" fill="#65b9ff"/>
        <path d="M45.721,9.008c.348.512.542,1.116.542,1.771v3.961c0,.565-.458,1.023-1.023,1.023H4.525v.87h42.608v-4.984c0-1.095-.563-2.067-1.412-2.641Z" fill="#3e7fff"/>
        <path d="M18.27,16.647h-8.84c1.11-1.18,2.68-1.91,4.42-1.91s3.31.73,4.42,1.91Z" fill="#3e7fff"/>
        <path d="M48,17.497v1.73c0,.48-.38.86-.85.86H4.13c-.48,0-.86-.38-.86-.86v-1.73c0-.48.38-.86.86-.86h43.02c.47,0,.85.38.85.86Z" fill="#312e4b"/>
        <path d="M19.91,20.087H7.79c.16-1.33.76-2.53,1.65-3.45h8.82c.89.92,1.49,2.12,1.65,3.45Z" fill="#5b5e8b"/>
        <path d="M43.331,16.647h-8.84c1.11-1.18,2.68-1.91,4.42-1.91s3.31.73,4.42,1.91Z" fill="#3e7fff"/>
        <path d="M44.971,20.087h-12.12c.16-1.33.76-2.53,1.65-3.45h8.82c.89.92,1.49,2.12,1.65,3.45Z" fill="#5b5e8b"/>
        <path d="M13.851,15.641c-2.871,0-5.212,2.342-5.212,5.212,0,2.887,2.342,5.212,5.212,5.212s5.212-2.326,5.212-5.212c0-2.871-2.342-5.212-5.212-5.212Z" fill="#5b5e8b"/>
        <path d="M15.24,24.677c-2.87,0-5.21-2.33-5.21-5.22,0-1.07.33-2.08.89-2.91-1.38.94-2.28,2.53-2.28,4.31,0,2.88,2.34,5.21,5.21,5.21,1.79,0,3.37-.91,4.31-2.28-.84.56-1.84.89-2.92.89Z" fill="#312e4b"/>
        <circle cx="13.851" cy="20.853" r="2.005" fill="#e4e3ff"/>
        <path d="M38.911,15.641c-2.871,0-5.212,2.342-5.212,5.212,0,2.887,2.342,5.212,5.212,5.212s5.212-2.326,5.212-5.212c0-2.871-2.342-5.212-5.212-5.212Z" fill="#5b5e8b"/>
        <path d="M40.36,24.617c-2.87,0-5.21-2.32-5.21-5.21,0-1.08.33-2.07.88-2.9-1.4.94-2.33,2.54-2.33,4.35,0,2.88,2.34,5.21,5.21,5.21,1.81,0,3.41-.93,4.34-2.33-.82.56-1.82.88-2.89.88Z" fill="#312e4b"/>
        <circle cx="38.911" cy="20.853" r="2.005" fill="#deddff"/>
        <path d="M40.66,21.847c-.35.6-1,1.01-1.75,1.01-1.11,0-2-.9-2-2,0-.75.4-1.4,1.01-1.75-.17.29-.26.63-.26.99,0,1.11.9,2.01,2,2.01.37,0,.71-.09,1-.26Z" fill="#c6c6f7"/>
        <rect x=".003" y="4.883" width="4.501" height="10.757" rx=".819" ry=".819" fill="#5b5e8b"/>
        <path d="M2.55,15.637H.82c-.45,0-.82-.36-.82-.82V5.707c0-.46.37-.82.82-.82h1.73c-.46,0-.82.36-.82.82v9.11c0,.46.36.82.82.82Z" fill="#312e4b"/>
        <g>
          <path d="M7.253,11.179v3.283c0,.283-.229.512-.512.512s-.512-.229-.512-.512v-3.283c0-.283.229-.512.512-.512s.512.229.512.512Z" fill="#3e7fff"/>
          <path d="M9.151,11.179v3.283c0,.283-.229.512-.512.512s-.512-.229-.512-.512v-3.283c0-.283.229-.512.512-.512s.512.229.512.512Z" fill="#3e7fff"/>
          <path d="M11.049,11.179v3.283c0,.283-.229.512-.512.512s-.512-.229-.512-.512v-3.283c0-.283.229-.512.512-.512s.512.229.512.512Z" fill="#3e7fff"/>
        </g>
        <g>
          <path d="M37.329,10.305v3.283c0,.283-.229.512-.512.512s-.512-.229-.512-.512v-3.283c0-.283.229-.512.512-.512s.512.229.512.512Z" fill="#3e7fff"/>
          <path d="M39.227,10.305v3.283c0,.283-.229.512-.512.512s-.512-.229-.512-.512v-3.283c0-.283.229-.512.512-.512s.512.229.512.512Z" fill="#3e7fff"/>
          <path d="M41.125,10.305v3.283c0,.283-.229.512-.512.512s-.512-.229-.512-.512v-3.283c0-.283.229-.512.512-.512s.512.229.512.512Z" fill="#3e7fff"/>
        </g>
        <path d="M20.481,10.265c0,.277-.228.505-.511.505h-2.497c-.283,0-.51-.228-.51-.505,0-.283.227-.51.51-.51h2.497c.283,0,.511.227.511.51Z" fill="#3e7fff"/>
      </g>
      <path d="M15.596,21.847c-.35.6-1,1.01-1.75,1.01-1.11,0-2-.9-2-2,0-.75.4-1.4,1.01-1.75-.17.29-.26.63-.26.99,0,1.11.9,2.01,2,2.01.37,0,.71-.09,1-.26Z" fill="#c6c6f7"/>
      <path d="M31.263.785l2.081,7.662h-2.19l-1.936-7.116c-.179-.672.327-1.331,1.022-1.331h0c.479,0,.899.322,1.022.785Z" fill="#65b9ff"/>
      <path d="M11.472,2.016v4.821h-6.418V2.016c0-.811.658-1.469,1.469-1.469h3.48c.811,0,1.469.658,1.469,1.469Z" fill="#5b5e8b"/>
      <path d="M11.47,5.797v1.04h-6.42V2.017c0-.68.47-1.26,1.1-1.42-.03.12-.05.25-.05.38h0c0,2.662,2.158,4.82,4.82,4.82h.55Z" fill="#312e4b"/>
      <path d="M18.67,2.016v4.821h-6.418V2.016c0-.811.658-1.469,1.469-1.469h3.48c.811,0,1.469.658,1.469,1.469Z" fill="#5b5e8b"/>
      <path d="M18.67,5.797v1.04h-6.42V2.017c0-.68.47-1.26,1.1-1.41-.04.12-.06.24-.06.37h0c0,2.662,2.158,4.82,4.82,4.82h.56Z" fill="#312e4b"/>
    </g>
  </g>
</svg>