<?xml version="1.0" encoding="UTF-8"?>
<svg id="Layer_2" data-name="Layer 2" xmlns="http://www.w3.org/2000/svg" viewBox="0 0 48 35.874">
  <g id="War_and_Army" data-name="War and Army">
    <g id="_81" data-name="81">
      <path d="M39.277,4.505v29.669c0,1.102-1.035,1.909-2.099,1.638l-8.206-2.048c-.267-.067-.549-.067-.819,0l-8.109,2.027c-.3.076-.616.067-.912-.025l-7.915-2.475c-.329-.102-.68-.102-1.009,0l-8.012,2.504c-1.09.342-2.196-.473-2.196-1.613V4.51c0-.739.481-1.394,1.187-1.613L10.208.079c.329-.106.68-.106,1.009,0l8.02,2.504c.3.093.612.101.916.025l7.999-1.998c.27-.067.553-.067.819,0l9.025,2.255c.752.186,1.28.862,1.28,1.639" fill="#deddff"/>
      <path d="M39.277,32.05v2.124c0,1.102-1.035,1.909-2.099,1.639l-8.206-2.049c-.267-.067-.549-.067-.819,0l-8.109,2.027c-.3.076-.616.067-.912-.025l-7.915-2.475c-.329-.101-.68-.101-1.009,0l-8.012,2.504c-1.09.342-2.196-.473-2.196-1.614v-2.124c0,1.14,1.106,1.955,2.196,1.613l8.012-2.504c.329-.101.68-.101,1.009,0l7.915,2.475c.295.093.612.101.912.025l8.109-2.027c.27-.067.553-.067.819,0l8.206,2.049c1.064.27,2.099-.537,2.099-1.639" fill="#c6c6f7"/>
      <path d="M10.713,1.79v29.473l-7.829,2.447c-.544.17-1.096-.236-1.096-.806V5.2c0-.369.24-.696.592-.806L10.713,1.79Z" fill="#65b9ff"/>
      <polygon points="19.638 4.579 19.638 34.053 10.713 31.264 10.713 1.79 19.638 4.579" fill="#3e7fff"/>
      <polygon points="28.564 2.348 28.564 31.822 19.639 34.053 19.639 4.579 28.564 2.348" fill="#43a1ff"/>
      <polygon points="28.564 2.348 28.564 31.822 19.639 34.053 19.639 4.579 28.564 2.348" fill="#65b9ff"/>
      <path d="M37.489,5.239v27.732c0,.55-.516.953-1.049.82l-7.876-1.969V2.348l8.286,2.071c.376.094.64.432.64.819" fill="#3e7fff"/>
      <path d="M10.713,7.638v19.841h-.343c-.207,0-.405.081-.551.226l-2.865,2.833c-.146.145-.344.227-.551.227h-.451c-.433,0-.785-.351-.785-.784v-1.869c0-.433-.351-.784-.785-.784h-.101c-.434,0-.786-.351-.784-.786.089-8.8-.185-8.659.237-9.082,2.638-2.743,2.952-2.71,2.952-3.277v-.714c0-.433.351-.784.784-.784s.785-.354.785-.785c.063-2.007-.159-2.387.23-2.776,1.128-1.046,1.272-1.486,1.811-1.486h.416Z" fill="#fcb73e"/>
      <path d="M19.638,9.931v14.224h-2.033c-.475,0-.929.188-1.263.523l-2.277,2.277c-.335.335-.789.523-1.263.523h-2.089V7.638c1.935.08,2.52-.209,3.057.327l4.187,4.187c.14.141.381.04.381-.158v-.669c0-.164.052-.113,1.301-1.394Z" fill="#fd982e"/>
      <path d="M24.766,15.343v2.014c0,.556.451,1.006,1.006,1.006h1.824c.267,0,.523.106.712.294l.257.257v10.749l-3.446-3.447c-.189-.189-.445-.295-.712-.295h-2.584c-.267,0-.523-.106-.712-.294l-1.471-1.471v-14.224l.36-.36h.361c.555,0,1.006-.451,1.006-1.006,0-.278.113-.529.294-.712.706-.701,2.088.096,2.772-.589l2.659-2.659c.188-.189.444-.294.712-.294h.76v8.433h-.248c-.267,0-.523.106-.712.294l-.872.872c-.55.55-.987.039-1.539.589l-.132.133c-.189.189-.295.444-.295.712" fill="#fcb73e"/>
      <path d="M5.849,24.779c-.208-.029-.334-.243-.261-.437.053-.153.237-.666.55-1.355.074-.164.266-.238.432-.162.164.074.237.268.162.432-.305.671-.481,1.164-.527,1.299-.051.147-.201.245-.355.224ZM7.506,21.099c-.151-.098-.193-.301-.094-.451.535-.819,1.108-1.518,1.702-2.076.132-.123.338-.116.461.015.123.131.117.338-.015.461-.556.522-1.095,1.181-1.602,1.957-.098.15-.3.194-.452.095ZM11.223,17.545c-.056-.171.038-.355.209-.411.889-.291,1.825-.308,2.752-.062.174.046.277.225.231.399-.046.174-.231.274-.399.231-.804-.213-1.612-.2-2.381.051-.168.056-.355-.035-.412-.209ZM16.574,18.345c-.165-.023-.289-.168-.281-.338.008-.18.161-.319.341-.311.84.039,1.6-.173,2.26-.63.147-.102.351-.066.454.082.103.148.066.351-.083.454-.78.541-1.676.792-2.662.746-.01,0-.02-.001-.03-.003ZM20.595,15.646c-.159-.085-.219-.282-.134-.441.633-1.186.838-2.349.84-2.361.03-.177.181-.302.377-.266.178.031.297.199.266.377-.009.052-.226,1.28-.907,2.557-.086.16-.284.218-.442.134Z" fill="#fff"/>
      <path d="M7.038,25.367c0,.81-.66,1.471-1.476,1.471s-1.476-.661-1.476-1.471c0-.815.661-1.476,1.476-1.476s1.476.661,1.476,1.476" fill="#e83d62"/>
      <path d="M6.956,25.845c-.196.574-.748.992-1.396.992-.813,0-1.474-.661-1.474-1.47,0-.644.413-1.192.992-1.392-.337.985.404,1.953,1.396,1.953.17,0,.331-.03.483-.083Z" fill="#ce2955"/>
      <path d="M30.005,22.012l4.678,4.031c.311.267.328.743.039,1.033l-1.518,1.519c-.275.276-.722.276-.997,0-.275-.275-.722-.275-.997,0l-1.358,1.358c-.275.276-.722.276-.997,0l-.289-.289v-10.749l.989.989c.132.132.207.312.207.498v1.075c0,.205.09.4.245.534" fill="#fd982e"/>
      <path d="M36.312,14.382v5.425c0,.566-.459,1.025-1.025,1.025h-1.544c-.566,0-1.026-.459-1.026-1.025v-.075c0-.272-.108-.533-.3-.725l-2.528-2.528c-.192-.192-.3-.453-.3-.725v-1.986c0-.566-.459-1.025-1.025-1.025V4.31h.752c.272,0,.533.108.725.301l2.818,2.818c.192.192.3.453.3.725v2.226c0,.272.108.532.3.725l2.553,2.552c.192.192.3.453.3.725" fill="#fd982e"/>
      <g>
        <circle cx="38.137" cy="25.967" r="9.863" fill="#e83d62"/>
        <circle cx="38.137" cy="25.967" r="7.941" fill="#ce2955"/>
        <path d="M45.286,25.967c0,.136-.004.272-.012.406-.202,3.626-3.105,6.529-6.731,6.731-.134.008-.27.012-.406.012s-.272-.004-.406-.012c-3.626-.202-6.529-3.105-6.731-6.731-.008-.134-.012-.27-.012-.406s.004-.272.012-.406c.202-3.626,3.105-6.529,6.731-6.731.134-.008.27-.012.406-.012s.272.004.406.012c3.626.202,6.529,3.105,6.731,6.731.008.134.012.27.012.406Z" fill="#deddff"/>
        <g>
          <path d="M38.543,18.83v1.796h-.812v-1.796c.134-.008.27-.012.406-.012s.272.004.406.012Z" fill="#312e4b"/>
          <path d="M38.543,31.308v1.796c-.134.008-.27.012-.406.012s-.272-.004-.406-.012v-1.796h.812Z" fill="#312e4b"/>
        </g>
        <g>
          <path d="M32.796,25.561v.812h-1.796c-.008-.134-.012-.27-.012-.406s.004-.272.012-.406h1.796Z" fill="#312e4b"/>
          <path d="M45.286,25.967c0,.136-.004.272-.012.406h-1.796v-.812h1.796c.008.134.012.27.012.406Z" fill="#312e4b"/>
        </g>
        <g>
          <path d="M39.23,27.059l-2.184-2.184,4.638-2.558c.067-.037.142.037.104.104l-2.558,4.638Z" fill="#3e7fff"/>
          <path d="M37.045,24.875l2.184,2.184-4.638,2.558c-.067.037-.142-.037-.104-.104l2.558-4.638Z" fill="#fcb73e"/>
        </g>
        <circle cx="38.137" cy="25.967" r=".946" fill="#deddff"/>
        <circle cx="38.137" cy="25.967" r=".59" fill="#312e4b"/>
      </g>
      <path d="M22.843,13.032c.137.137.137.368,0,.505-.134.134-.357.154-.512,0l-.721-.721-.728.721c-.139.139-.363.149-.512,0-.144-.137-.144-.368,0-.505l.728-.728-.728-.728c-.144-.137-.144-.368,0-.505.144-.144.367-.144.512,0l.728.728.721-.728c.137-.144.367-.144.512,0,.137.137.137.368,0,.505l-.728.728.728.728Z" fill="#312e4b"/>
    </g>
  </g>
</svg>