<?xml version="1.0" encoding="UTF-8"?>
<svg id="Layer_2" data-name="Layer 2" xmlns="http://www.w3.org/2000/svg" viewBox="0 0 47.938 40.091">
  <g id="War_and_Army" data-name="War and Army">
    <g id="_42" data-name="42">
      <g>
        <g>
          <rect x="29.708" y="22.374" width="2.673" height=".968" transform="translate(-7.07 28.647) rotate(-45)" fill="#312e4b"/>
          <rect x="24.37" y="17.036" width="2.673" height=".968" transform="translate(-4.859 23.309) rotate(-45)" fill="#312e4b"/>
        </g>
        <polyline points="25.485 15.487 33.254 23.255 35.243 21.266 27.474 13.498" fill="#5b5e8b"/>
        <rect x="29.236" y="13.555" width=".908" height="10.984" transform="translate(-4.772 26.573) rotate(-45)" fill="#312e4b"/>
        <path d="M24.925,11.259l-1.684,1.684c-.231.231-.231.606,0,.837l1.721,1.721c.308.308.808.308,1.116,0l1.405-1.405c.308-.308.308-.808,0-1.116l-1.721-1.721c-.231-.231-.606-.231-.837,0Z" fill="#e83d62"/>
        <path d="M24.155,12.034l-.912.912c-.233.233-.232.605,0,.837l1.721,1.721c.307.307.809.307,1.116,0l.912-.912c-.307.307-.809.307-1.116,0l-1.721-1.721c-.233-.233-.233-.605,0-.837Z" fill="#ce2955"/>
        <rect x="32.447" y="21.765" width="4.196" height="1.575" rx=".286" ry=".286" transform="translate(-5.83 31.032) rotate(-45)" fill="#312e4b"/>
      </g>
      <polygon points="9.106 39.068 7.742 38.746 13.454 14.587 18.176 38.772 16.801 39.041 13.324 21.225 9.106 39.068" fill="#5b5e8b"/>
      <polygon points="8.642 2.319 43.545 37.223 30.898 37.221 2.319 8.642 8.642 2.319" fill="#5b5e8b"/>
      <path d="M43.541,37.221h-12.64L2.321,8.641l1.56-1.56,24.706,24.706c2.48,2.48,5.844,3.874,9.352,3.874h4.042l1.56,1.56Z" fill="#312e4b"/>
      <rect x="-.779" y="3.032" width="10.491" height="2.869" rx=".621" ry=".621" transform="translate(-1.85 4.466) rotate(-45)" fill="#fcb73e"/>
      <path d="M17.311,10.771l-6.54,6.54c-.25.24-.64.24-.88,0l-1.15-1.15c-.25-.25-.25-.64,0-.88l1.67-1.67,4.87-4.87c.24-.24.63-.24.88,0l1.15,1.15c.24.24.24.63,0,.88Z" fill="#fcb73e"/>
      <path d="M27.991,21.971l-4.61,4.61-1.41,1.41c-.38.39-1.01.39-1.4,0-.19-.2-.28-.45-.28-.7s.09-.5.28-.7l1.41-1.41,4.61-4.61c.39-.38,1.01-.38,1.4,0,.39.39.39,1.02,0,1.4Z" fill="#fcb73e"/>
      <rect x="26.806" y="37.223" width="21.132" height="2.869" rx=".621" ry=".621" fill="#5b5e8b"/>
      <path d="M32.021,40.091h-4.59c-.35,0-.63-.28-.63-.62v-1.63c0-.34.28-.62.63-.62h4.59c-.34,0-.62.28-.62.62v1.63c0,.34.28.62.62.62Z" fill="#312e4b"/>
      <rect x="6.632" y="37.723" width="4.132" height="2.369" rx=".621" ry=".621" fill="#312e4b"/>
      <rect x="15.524" y="37.723" width="4.132" height="2.369" rx=".621" ry=".621" fill="#312e4b"/>
      <path d="M23.381,26.581l-1.41,1.41c-.38.39-1.01.39-1.4,0-.19-.2-.28-.45-.28-.7s.09-.5.28-.7l1.41-1.41,1.4,1.4Z" fill="#fd982e"/>
      <path d="M12.441,15.641l-1.67,1.67c-.25.24-.64.24-.88,0l-1.15-1.15c-.25-.25-.25-.64,0-.88l1.67-1.67,2.03,2.03Z" fill="#fd982e"/>
    </g>
  </g>
</svg>