<?xml version="1.0" encoding="UTF-8"?>
<svg id="Layer_2" data-name="Layer 2" xmlns="http://www.w3.org/2000/svg" viewBox="0 0 31.999 48">
  <g id="War_and_Army" data-name="War and Army">
    <g id="_95" data-name="95">
      <g>
        <g>
          <path d="M30.681,15.998l-14.682,13.838L1.318,15.998H.156l15.57,14.676c.077.072.175.109.273.109s.197-.036.273-.109l15.57-14.676h-1.162Z" fill="#5b5e8b"/>
          <path d="M25.4,15.998l-9.4,13.682L6.599,15.998h-.967l10.039,14.612c.074.108.197.173.329.173s.254-.065.329-.173l10.039-14.612h-.967Z" fill="#5b5e8b"/>
          <path d="M19.357,15.998l-3.357,12.813-3.358-12.813h-.825l3.796,14.487c.046.175.204.298.386.298s.34-.122.386-.298l3.796-14.487h-.825Z" fill="#5b5e8b"/>
          <path d="M31.998,15.998H0C0,7.161,7.161,0,15.997,0s16.001,7.161,16.001,15.997Z" fill="#46cc6b"/>
          <path d="M16.657.012C8.124.356,1.317,7.384,1.317,15.998H.002C.002,7.163,7.161,0,15.995,0,16.216,0,16.437.004,16.657.012Z" fill="#179c5f"/>
          <path d="M26.36,15.998H5.638C5.638,7.161,10.275,0,15.998,0s10.363,7.161,10.363,15.997Z" fill="#deddff"/>
          <path d="M15.343.031c5.418.526,9.702,7.473,9.702,15.967h1.316C26.36,7.163,21.724,0,16.001,0c-.221,0-.441.012-.658.031Z" fill="#c6c6f7"/>
          <path d="M16.657.031C11.239.557,6.956,7.503,6.956,15.998h-1.316C5.64,7.163,10.276,0,15.999,0,16.22,0,16.44.012,16.657.031Z" fill="#c6c6f7"/>
          <path d="M19.951,15.998h-7.903C12.048,7.161,13.816,0,15.999,0s3.952,7.161,3.952,15.997Z" fill="#46cc6b"/>
          <path d="M16.657.224c-1.869,1.265-3.293,7.848-3.293,15.773h-1.316C12.048,7.163,13.817,0,15.999,0,16.224,0,16.444.077,16.657.224Z" fill="#179c5f"/>
        </g>
        <g>
          <rect x="8.523" y="26.784" width="21.985" height="21.215" rx="1.412" ry="1.412" fill="#c6c6f7"/>
          <rect x="1.49" y="26.784" width="21.985" height="21.215" rx="1.412" ry="1.412" fill="#deddff"/>
          <path d="M5.281,48h-2.38c-.78,0-1.41-.63-1.41-1.41v-18.39c0-.78.63-1.42,1.41-1.42h2.38c-.78,0-1.42.64-1.42,1.42v18.39c0,.78.64,1.41,1.42,1.41Z" fill="#c6c6f7"/>
        </g>
        <path d="M15.343.012c8.533.344,15.34,7.372,15.34,15.986h1.316C31.999,7.163,24.84,0,16.005,0c-.221,0-.441.004-.662.012Z" fill="#179c5f"/>
        <path d="M16.502,39.71c-.242.422-.787.607-1.256.337l-1.843-1.064v2.132c0,.503-.412.919-.919.919s-.919-.416-.919-.919v-2.132l-1.843,1.064c-.467.269-1.013.087-1.256-.337-.254-.438-.105-.998.337-1.252l1.847-1.064-1.847-1.068c-.442-.254-.591-.814-.337-1.252.254-.442.819-.591,1.256-.337l1.843,1.064v-2.128c0-.508.412-.924.919-.924s.919.416.919.924v2.128l1.843-1.064c.438-.254,1.003-.105,1.256.337.254.438.105.998-.337,1.252l-1.847,1.068,1.847,1.064c.442.254.591.814.337,1.252Z" fill="#e83d62"/>
        <path d="M9.741,36.33l1.85,1.06-1.85,1.07c-.44.25-.59.81-.34,1.25.08.15.2.26.33.33l-.01.01c-.419.239-1,.119-1.26-.34-.25-.44-.1-1,.34-1.25l1.85-1.07-1.85-1.06c-.44-.26-.59-.82-.34-1.26.26-.44.82-.59,1.26-.33-.13.08-.24.19-.32.33-.25.44-.1,1,.34,1.26Z" fill="#ce2955"/>
      </g>
      <g>
        <g>
          <path d="M30.681,15.998l-14.682,13.838L1.318,15.998H.156l15.57,14.676c.077.072.175.109.273.109s.197-.036.273-.109l15.57-14.676h-1.162Z" fill="#5b5e8b"/>
          <path d="M25.4,15.998l-9.4,13.682L6.599,15.998h-.967l10.039,14.612c.074.108.197.173.329.173s.254-.065.329-.173l10.039-14.612h-.967Z" fill="#5b5e8b"/>
          <path d="M19.357,15.998l-3.357,12.813-3.358-12.813h-.825l3.796,14.487c.046.175.204.298.386.298s.34-.122.386-.298l3.796-14.487h-.825Z" fill="#5b5e8b"/>
          <path d="M31.998,15.998H0C0,7.161,7.161,0,15.997,0s16.001,7.161,16.001,15.997Z" fill="#46cc6b"/>
          <path d="M16.657.012C8.124.356,1.317,7.384,1.317,15.998H.002C.002,7.163,7.161,0,15.995,0,16.216,0,16.437.004,16.657.012Z" fill="#179c5f"/>
          <path d="M26.36,15.998H5.638C5.638,7.161,10.275,0,15.998,0s10.363,7.161,10.363,15.997Z" fill="#deddff"/>
          <path d="M15.343.031c5.418.526,9.702,7.473,9.702,15.967h1.316C26.36,7.163,21.724,0,16.001,0c-.221,0-.441.012-.658.031Z" fill="#c6c6f7"/>
          <path d="M16.657.031C11.239.557,6.956,7.503,6.956,15.998h-1.316C5.64,7.163,10.276,0,15.999,0,16.22,0,16.44.012,16.657.031Z" fill="#c6c6f7"/>
          <path d="M19.951,15.998h-7.903C12.048,7.161,13.816,0,15.999,0s3.952,7.161,3.952,15.997Z" fill="#46cc6b"/>
          <path d="M16.657.224c-1.869,1.265-3.293,7.848-3.293,15.773h-1.316C12.048,7.163,13.817,0,15.999,0,16.224,0,16.444.077,16.657.224Z" fill="#179c5f"/>
        </g>
        <g>
          <rect x="8.523" y="26.784" width="21.985" height="21.215" rx="1.412" ry="1.412" fill="#c6c6f7"/>
          <rect x="1.49" y="26.784" width="21.985" height="21.215" rx="1.412" ry="1.412" fill="#deddff"/>
          <path d="M5.281,48h-2.38c-.78,0-1.41-.63-1.41-1.41v-18.39c0-.78.63-1.42,1.41-1.42h2.38c-.78,0-1.42.64-1.42,1.42v18.39c0,.78.64,1.41,1.42,1.41Z" fill="#c6c6f7"/>
        </g>
        <path d="M15.343.012c8.533.344,15.34,7.372,15.34,15.986h1.316C31.999,7.163,24.84,0,16.005,0c-.221,0-.441.004-.662.012Z" fill="#179c5f"/>
        <path d="M16.502,39.71c-.242.422-.787.607-1.256.337l-1.843-1.064v2.132c0,.503-.412.919-.919.919s-.919-.416-.919-.919v-2.132l-1.843,1.064c-.467.269-1.013.087-1.256-.337-.254-.438-.105-.998.337-1.252l1.847-1.064-1.847-1.068c-.442-.254-.591-.814-.337-1.252.254-.442.819-.591,1.256-.337l1.843,1.064v-2.128c0-.508.412-.924.919-.924s.919.416.919.924v2.128l1.843-1.064c.438-.254,1.003-.105,1.256.337.254.438.105.998-.337,1.252l-1.847,1.068,1.847,1.064c.442.254.591.814.337,1.252Z" fill="#e83d62"/>
        <path d="M9.741,36.33l1.85,1.06-1.85,1.07c-.44.25-.59.81-.34,1.25.08.15.2.26.33.33l-.01.01c-.419.239-1,.119-1.26-.34-.25-.44-.1-1,.34-1.25l1.85-1.07-1.85-1.06c-.44-.26-.59-.82-.34-1.26.26-.44.82-.59,1.26-.33-.13.08-.24.19-.32.33-.25.44-.1,1,.34,1.26Z" fill="#ce2955"/>
      </g>
    </g>
  </g>
</svg>