<?xml version="1.0" encoding="UTF-8"?>
<svg id="Layer_2" data-name="Layer 2" xmlns="http://www.w3.org/2000/svg" viewBox="0 0 48 46.91">
  <g id="War_and_Army" data-name="War and Army">
    <g id="_12" data-name="12">
      <g>
        <g>
          <g>
            <path d="M40.199,11.635v2.895c0,.171-.142.313-.313.313s-.313-.142-.313-.313v-2.895c0-.171.142-.308.313-.308s.313.137.313.308Z" fill="#5b5e8b"/>
            <rect x="36.232" y="11.961" width="7.308" height=".771" rx=".385" ry=".385" fill="#deddff"/>
          </g>
          <g>
            <path d="M41.681,14.585v2.715c0,1.58-.405,3.133-1.162,4.491-.274.496-.979.496-1.253,0-.77-1.371-1.175-2.924-1.175-4.504v-2.715l3.59.013Z" fill="#e83d62"/>
            <path d="M41.68,14.046v.54h-3.589v-.54c0-.236.191-.416.416-.416h2.756c.225,0,.416.18.416.416Z" fill="#ce2955"/>
          </g>
        </g>
        <g>
          <g>
            <path d="M8.431,11.635v2.895c0,.171-.142.313-.313.313s-.313-.142-.313-.313v-2.895c0-.171.142-.308.313-.308s.313.137.313.308Z" fill="#5b5e8b"/>
            <rect x="4.464" y="11.961" width="7.308" height=".771" rx=".385" ry=".385" fill="#deddff"/>
          </g>
          <g>
            <path d="M9.913,14.585v2.715c0,1.58-.405,3.133-1.162,4.491-.274.496-.979.496-1.253,0-.77-1.371-1.175-2.924-1.175-4.504v-2.715l3.59.013Z" fill="#e83d62"/>
            <path d="M9.912,14.046v.54h-3.589v-.54c0-.236.191-.416.416-.416h2.756c.225,0,.416.18.416.416Z" fill="#ce2955"/>
          </g>
        </g>
      </g>
      <g>
        <path d="M46.457,20.339c0,1.004-.82,1.824-1.824,1.824s-1.824-.82-1.824-1.824.82-1.824,1.824-1.824,1.824.82,1.824,1.824Z" fill="#deddff"/>
        <path d="M45.259,20.588c-.024.024-.035.058-.03.092l.094.55c.004.022,0,.042-.007.06-.023.05-.086.078-.142.049l-.493-.26c-.03-.016-.066-.016-.096,0l-.494.26c-.076.04-.164-.025-.15-.109l.094-.55c.006-.033-.005-.068-.03-.092l-.4-.389c-.061-.06-.027-.164.057-.176l.552-.08c.034-.005.063-.026.078-.056l.247-.5c.038-.077.147-.077.185,0l.247.5c.015.03.044.051.078.056l.126.018.426.062c.085.012.118.116.057.176l-.4.389Z" fill="#fcb73e"/>
      </g>
      <path d="M33.49,45.43c0,.82-.67,1.48-1.49,1.48h-8v-3.75l2.63.25,5.52.54c.76.07,1.34.71,1.34,1.48Z" fill="#65b9ff"/>
      <path d="M33.473,45.663c-.102.72-.745,1.247-1.473,1.247h-8s0-3.75,0-3.75l2.63.25h0c-.284,1.406.791,2.72,2.225,2.72h3.145c.68,0,1.26-.46,1.43-1.09.061.184.076.392.043.623Z" fill="#3e7fff"/>
      <path d="M24,43.16v3.75h-8c-.82,0-1.48-.66-1.48-1.48,0-.77.58-1.41,1.34-1.48l5.52-.54,2.62-.25Z" fill="#65b9ff"/>
      <path d="M24,43.16v3.75h-7.999c-.722,0-1.358-.524-1.463-1.238-.034-.235-.021-.445.042-.632.16.63.74,1.09,1.42,1.09h3.155c1.435,0,2.509-1.314,2.225-2.72h0s2.62-.25,2.62-.25Z" fill="#3e7fff"/>
      <path d="M24.552.54v5.08c0,.3-.25.55-.55.55s-.55-.25-.55-.55V.54c0-.3.25-.54.55-.54s.55.24.55.54Z" fill="#5b5e8b"/>
      <rect x="15.872" y="1.557" width="16.259" height="1.715" rx=".857" ry=".857" fill="#deddff"/>
      <g>
        <path d="M48,20.44c0,1.61-1.21,2.96-2.79,3.18l-14.74,1.94-5.92.78v-9.11h20.24c1.77,0,3.21,1.44,3.21,3.21Z" fill="#65b9ff"/>
        <path d="M48,20.44c0,1.61-1.21,2.96-2.79,3.18l-14.74,1.94-5.92.78v-9.11h6.43c.002.024.005.048.007.072.373,3.842,3.756,6.663,7.583,6.16l6.639-.872c1.4-.19,2.5-1.27,2.75-2.63.03.16.04.32.04.48Z" fill="#3e7fff"/>
        <g>
          <path d="M46.457,20.339c0,1.004-.82,1.824-1.824,1.824s-1.824-.82-1.824-1.824.82-1.824,1.824-1.824,1.824.82,1.824,1.824Z" fill="#deddff"/>
          <path d="M45.259,20.588c-.024.024-.035.058-.03.092l.094.55c.004.022,0,.042-.007.06-.023.05-.086.078-.142.049l-.493-.26c-.03-.016-.066-.016-.096,0l-.494.26c-.076.04-.164-.025-.15-.109l.094-.55c.006-.033-.005-.068-.03-.092l-.4-.389c-.061-.06-.027-.164.057-.176l.552-.08c.034-.005.063-.026.078-.056l.247-.5c.038-.077.147-.077.185,0l.247.5c.015.03.044.051.078.056l.126.018.426.062c.085.012.118.116.057.176l-.4.389Z" fill="#e83d62"/>
        </g>
      </g>
      <g>
        <path d="M24.55,17.02v9.54l-7-.93-14.62-1.93c-1.66-.23-2.93-1.64-2.93-3.32,0-1.85,1.51-3.36,3.36-3.36h21.19Z" fill="#65b9ff"/>
        <path d="M24.55,17.02v9.54l-7-.93-14.62-1.93c-1.66-.23-2.93-1.64-2.93-3.32,0-.17.01-.34.04-.5.24,1.44,1.41,2.58,2.89,2.79l6.174.814c3.983.525,7.507-2.394,7.928-6.389l.008-.075h7.51Z" fill="#3e7fff"/>
        <g>
          <path d="M1.619,20.271c0,1.052.858,1.91,1.91,1.91s1.91-.858,1.91-1.91c0-1.052-.858-1.91-1.91-1.91s-1.91.858-1.91,1.91Z" fill="#deddff"/>
          <path d="M2.873,20.532c.025.025.037.061.031.096l-.098.575c-.004.023,0,.044.007.063.024.053.09.082.149.051l.517-.272c.032-.016.069-.016.101,0l.517.272c.079.042.172-.026.157-.114l-.099-.575c-.006-.035.006-.071.031-.096l.418-.407c.064-.062.029-.171-.06-.184l-.578-.084c-.035-.005-.066-.027-.081-.059l-.258-.524c-.04-.08-.154-.08-.194,0l-.259.524c-.016.032-.046.054-.081.059l-.132.019-.446.065c-.088.013-.124.122-.06.184l.418.407Z" fill="#e83d62"/>
        </g>
      </g>
      <path d="M29.532,24.623l-4.202,21.2c-.285,1.45-2.372,1.45-2.657,0l-4.202-21.2c-1.003-5.097-.393-10.396,1.776-15.127l1.518-3.307c.868-1.925,3.606-1.925,4.473,0l1.518,3.307c2.169,4.731,2.779,10.03,1.776,15.127Z" fill="#65b9ff"/>
      <g>
        <path d="M26.891,14.902l-.262,4.657c-.069,1.228-1.085,2.188-2.314,2.188h0c-1.23,0-2.245-.96-2.314-2.188l-.262-4.657c-.083-1.48,1.094-2.725,2.576-2.725h0c1.482,0,2.66,1.246,2.576,2.725Z" fill="#deddff"/>
        <path d="M25.09,21.612c-.241.085-.504.132-.776.132-.613,0-1.171-.241-1.59-.628-.419-.396-.683-.946-.721-1.559l-.264-4.655c-.085-1.482,1.094-2.723,2.576-2.723.272,0,.528.039.768.116-1.094.349-1.862,1.397-1.8,2.607l.264,4.655c.031.613.31,1.164.721,1.559.233.217.512.388.822.497Z" fill="#c6c6f7"/>
      </g>
      <g>
        <path d="M26.003,38.683c0,1.102-.899,2.001-2.001,2.001s-2.001-.899-2.001-2.001.899-2.001,2.001-2.001,2.001.899,2.001,2.001Z" fill="#deddff"/>
        <path d="M24.689,38.956c-.027.026-.039.064-.033.101l.103.603c.004.024,0,.046-.008.066-.025.055-.095.086-.156.053l-.541-.285c-.033-.017-.072-.017-.105,0l-.542.285c-.083.044-.18-.027-.164-.119l.104-.603c.006-.037-.006-.074-.033-.101l-.438-.427c-.067-.065-.03-.179.063-.193l.606-.088c.037-.005.069-.028.085-.062l.271-.549c.042-.084.161-.084.203,0l.271.549c.016.033.048.056.085.062l.138.02.468.068c.093.013.13.127.063.193l-.438.427Z" fill="#e83d62"/>
      </g>
    </g>
  </g>
</svg>