<?xml version="1.0" encoding="UTF-8"?>
<svg id="Layer_2" data-name="Layer 2" xmlns="http://www.w3.org/2000/svg" viewBox="0 0 47.778 20.268">
  <g id="War_and_Army" data-name="War and Army">
    <g id="_59" data-name="59">
      <path d="M21.35,10.059c-.056.077-.147.119-.231.119-.049,0-.098-.014-.147-.042-.28-.161-.504-.364-.665-.602-.154-.238-.266-.518-.329-.826-.056-.252-.07-.518-.063-.847.021-.322.056-.574.119-.847.063-.224.287-.357.511-.301.231.056.364.287.308.511,0,.014-.007.021-.014.035v.007c-.063.182-.119.427-.154.658-.028.259-.035.476-.014.672.028.224.091.427.182.609.091.161.224.308.413.448l.021.014c.126.091.154.266.063.392Z" fill="#312e4b"/>
      <rect x="17.552" y="10.478" width="5.3" height=".732" fill="#312e4b"/>
      <g>
        <path d="M12.041,3.111v4.152L1.293,10.404c-.646.187-1.293-.298-1.293-.97V3.313c0-.556.45-1.01,1.01-1.01h5.53c.348,0,.677.146.909.404.232.258.561.404.909.404h3.682Z" fill="#c7754f"/>
        <path d="M12.041,3.111v1.727h-3.682c-.347,0-.677-.147-.91-.405s-.56-.404-.909-.404h-.625c-2.104,0-3.809,1.705-3.809,3.809v1.595c0,.258.096.49.248.662l-1.062.308c-.646.188-1.292-.297-1.292-.97V3.313c0-.556.45-1.01,1.01-1.01h5.53c.347,0,.677.147.91.405s.56.404.909.404h3.682Z" fill="#ab604b"/>
        <path d="M31.142,17.839l-2.061,2.126c-.414.424-1.101.399-1.495-.045-3.273-3.737-5.465-7.894-6.005-12.687l-9.54.03V3.111l.937-1.023c.287-.314.693-.492,1.118-.492h10.682v-.823c0-.278.227-.505.505-.505h4.702c.278,0,.505.227.505.505v1.879c0,.558-.452,1.01-1.01,1.01h-.141c-.558,0-1.01.452-1.01,1.01v1.879h-1.813c.303,3.823,2.02,7.056,4.652,9.909.359.389.348.995-.025,1.379Z" fill="#5b5e8b"/>
        <path d="M28.935,20.086c-.419.293-1,.227-1.349-.167-3.273-3.737-5.465-7.889-6.005-12.682h.01c.646,0,1.192.47,1.303,1.106.732,4.328,2.833,8.131,5.849,11.576.061.066.121.121.192.167Z" fill="#312e4b"/>
        <rect x="13.197" y="7.245" width="8.384" height=".005" transform="translate(-.022 .052) rotate(-.172)" fill="#312e4b"/>
        <path d="M17.333,14.147c.02.758-.55,1.237-1.151,1.237-.182,0-.359-.04-.53-.131l-2.808-1.45c-.242-.126-.343-.424-.222-.672l1.992-4.056c.142-.29.075-.638-.164-.855l-.002-.002c-.195-.175-.279-.443-.22-.698l.062-.268,5.237-.015-2.879,5.939.049.023c.372.172.627.538.638.947Z" fill="#c7754f"/>
        <path d="M19.111,8.098h-3.82l.27.98-2.39,4.9-.33-.17c-.24-.13-.34-.43-.22-.68l1.99-4.05c.14-.29.08-.64-.16-.86-.091-.091-.22-.251-.22-.38-.056-.204.006-.301.06-.59.103,0,5.578-.011,5.23-.01l-.41.86Z" fill="#ab604b"/>
        <path d="M28.329,6.551v-1.878c0-.558.452-1.01,1.01-1.01h.142c.558,0,1.01-.452,1.01-1.01v-1.081h4.261v3.883h-3.496l-2.928,1.097Z" fill="#c7754f"/>
        <path d="M31.551,1.568v1.09c0,.55-.45,1.01-1.01,1.01h-.14c-.56,0-1.01.45-1.01,1.01v1.48l-1.06.39v-1.87c0-.56.45-1.01,1.01-1.01h.14c.56,0,1.01-.46,1.01-1.01v-1.09h1.06Z" fill="#ab604b"/>
        <path d="M47.778,3.98v.955c0,.283-.227.505-.505.505h-12.52V1.571h3.319c.422,0,.826.244.969.642.096.267.251.508.45.707.343.343.818.556,1.343.556h6.439c.278,0,.505.227.505.505Z" fill="#5b5e8b"/>
        <path d="M46.264,3.473V1.025C46.264.46,45.805.001,45.24.001h0c-.363,0-.699.192-.883.505l-1.744,2.967h3.651Z" fill="#5b5e8b"/>
        <path d="M46.263,2.884v.591h-3.652l.348-.591,1.399-2.379c.182-.313.52-.505.879-.505.111,0,.222.02.323.05-.232.076-.439.237-.566.455l-.048.082c-.596,1.017.137,2.296,1.316,2.296h0Z" fill="#312e4b"/>
      </g>
      <g>
        <g>
          <path d="M24.761,2.826c0,.197-.159.356-.356.356h-9.86c-.197,0-.356-.159-.356-.356s.159-.356.356-.356h9.86c.197,0,.356.159.356.356Z" fill="#312e4b"/>
          <path d="M26.761,4.435c0,.197-.159.356-.356.356h-11.86c-.197,0-.356-.159-.356-.356s.159-.356.356-.356h11.86c.197,0,.356.159.356.356Z" fill="#312e4b"/>
        </g>
        <path d="M24.761,6.043c0,.197-.159.356-.356.356h-9.86c-.197,0-.356-.159-.356-.356s.159-.356.356-.356h9.86c.197,0,.356.159.356.356Z" fill="#312e4b"/>
      </g>
      <g>
        <path d="M29.194,16.638c-3.048-2.163-3.827-7.072-3.858-7.28-.025-.164.087-.317.251-.342.165-.027.317.087.342.251.008.048.774,4.867,3.613,6.881.135.096.167.283.071.418-.097.136-.285.166-.418.071Z" fill="#312e4b"/>
        <path d="M27.883,17.208c-3.049-2.163-3.828-7.072-3.859-7.279-.025-.164.087-.317.251-.342.167-.027.317.087.342.251.008.048.774,4.867,3.613,6.881.135.096.167.283.071.418-.098.139-.288.165-.418.071Z" fill="#312e4b"/>
      </g>
      <path d="M36.106,2.661v1.557c0,.139-.113.255-.255.255s-.255-.116-.255-.255v-1.557c0-.142.113-.255.255-.255s.255.113.255.255Z" fill="#312e4b"/>
      <path d="M37.275,2.661v1.557c0,.139-.113.255-.255.255s-.255-.116-.255-.255v-1.557c0-.142.113-.255.255-.255s.255.113.255.255Z" fill="#312e4b"/>
      <path d="M38.443,2.661v1.557c0,.139-.113.255-.255.255s-.255-.116-.255-.255v-1.557c0-.142.113-.255.255-.255s.255.113.255.255Z" fill="#312e4b"/>
    </g>
  </g>
</svg>