<?xml version="1.0" encoding="UTF-8"?>
<svg id="Layer_2" data-name="Layer 2" xmlns="http://www.w3.org/2000/svg" viewBox="0 0 45.195 48">
  <g id="War_and_Army" data-name="War and Army">
    <g id="_45" data-name="45">
      <path d="M1.699,39.399l6.908,6.908c.217.217.217.58-.007.804l-.72.72c-.224.224-.587.224-.804.007L.168,40.93c-.224-.224-.224-.587,0-.811l.72-.72c.224-.224.587-.224.811,0Z" fill="#c7754f"/>
      <path d="M10.56,30.3l1.545,1.545-1.463,1.463c-.534.534-.534,1.399,0,1.932h0c.338.338.475.827.361,1.291l-2.397,9.775-7.027-7.027,8.98-8.98Z" fill="#5b5e8b"/>
      <path d="M11.388,31.124l.721.721-1.405,1.405c-.535.535-.628,1.446-.08,1.967.352.334.502.84.385,1.317l-2.164,8.797-.237.977-7.029-7.029.607-.607h0c2.607,2.607,7.063,1.364,7.944-2.216l.156-.633c.11-.445.026-.949-.312-1.258-.582-.532-.598-1.428-.046-1.979l1.46-1.46Z" fill="#312e4b"/>
      <rect x="9.572" y="30.706" width="2.065" height="2.19" transform="translate(-19.381 16.813) rotate(-45)" fill="#312e4b"/>
      <rect x="25.076" y="16.175" width="5.014" height="2.874" transform="translate(-4.374 24.663) rotate(-45)" fill="#312e4b"/>
      <g>
        <rect x="31.827" y="6.198" width="12.441" height="1.899" transform="translate(6.09 28.997) rotate(-45)" fill="#5b5e8b"/>
        <polygon points="42.558 2.861 43.118 3.421 34.32 12.219 32.976 10.875 36.852 6.998 37.636 7.783 42.558 2.861" fill="#312e4b"/>
        <rect x="40.934" y=".762" width="4.139" height="2.859" rx=".683" ry=".683" transform="translate(11.046 31.05) rotate(-45)" fill="#5b5e8b"/>
        <path d="M43.858,3.354l-.829.829c-.261.261-.695.261-.956,0l-1.061-1.061c-.261-.261-.261-.695,0-.956l.829-.829c-.269.269-.269.702-.007.963l1.061,1.061c.261.261.695.261.963-.007Z" fill="#312e4b"/>
        <rect x="26.78" y="10.51" width="11.798" height="4.011" rx=".739" ry=".739" transform="translate(.722 26.774) rotate(-45)" fill="#5b5e8b"/>
        <path d="M36.897,8.388l.851.851c.291.291.291.754,0,1.046l-7.297,7.297c-.291.291-.754.291-1.046,0l-.851-.851c.284.284.754.291,1.046,0l7.297-7.297c.291-.291.284-.762,0-1.046Z" fill="#312e4b"/>
        <g>
          <rect x="29.482" y="13.262" width=".887" height="4.014" transform="translate(-2.032 25.633) rotate(-45)" fill="#312e4b"/>
          <rect x="31.318" y="11.426" width=".887" height="4.014" transform="translate(-.196 26.393) rotate(-45)" fill="#312e4b"/>
          <rect x="33.154" y="9.59" width=".887" height="4.014" transform="translate(1.64 27.154) rotate(-45)" fill="#312e4b"/>
          <rect x="34.99" y="7.754" width=".887" height="4.014" transform="translate(3.476 27.914) rotate(-45)" fill="#312e4b"/>
        </g>
      </g>
      <g>
        <path d="M26.042,29.679c.026.163-.06.344-.265.4-1.167.315-2.089-.192-2.932-1.072-.265-.302-.456-.554-.641-.85-.142-.253-.062-.567.185-.714.252-.154.573-.068.721.179.012.012.012.025.018.043l.006.006c.105.216.271.48.443.714,1.102,1.369,1.911.974,2.063,1.004.191-.031.37.099.4.289Z" fill="#312e4b"/>
        <rect x="22.093" y="31.062" width="6.984" height=".91" transform="translate(-14.792 27.323) rotate(-45)" fill="#312e4b"/>
        <path d="M41.504,27.909l.053,3.677c.009.748-.625,1.328-1.355,1.284-6.167-.413-11.753-2.146-16.442-5.885l-8.453,8.501c-.437.44-1.149.441-1.588.002l-3.391-3.391c-.438-.438-.438-1.147,0-1.585l13.969-13.969c.486-.486,1.274-.486,1.759,0l2.595,2.595c.486.486.486,1.274,0,1.759l-1.152,1.152c3.624,3.097,7.988,4.434,12.809,4.627.66.026,1.179.563,1.196,1.232Z" fill="#5b5e8b"/>
        <path d="M41.536,31.827c-.111.626-.68,1.08-1.333,1.04-6.167-.409-11.747-2.133-16.439-5.874l.009-.009c.569-.569,1.462-.635,2.119-.173,4.452,3.163,9.646,4.661,15.328,5.038.111.004.213,0,.315-.022Z" fill="#312e4b"/>
        <rect x="13.808" y="31.127" width="11.675" height=".006" transform="translate(-16.28 23.106) rotate(-45.154)" fill="#312e4b"/>
        <g>
          <g>
            <path d="M22.681,20.316c.173.173.173.453,0,.626l-8.674,8.674c-.173.173-.453.173-.626,0s-.173-.453,0-.626l8.674-8.674c.173-.173.453-.173.626,0Z" fill="#312e4b"/>
            <path d="M25.855,19.971c.173.173.173.453,0,.626l-10.433,10.433c-.173.173-.453.173-.626,0s-.173-.453,0-.626l10.433-10.433c.173-.173.453-.173.626,0Z" fill="#312e4b"/>
          </g>
          <path d="M25.51,23.146c.173.173.173.453,0,.626l-8.674,8.674c-.173.173-.453.173-.626,0s-.173-.453,0-.626l8.674-8.674c.173-.173.453-.173.626,0Z" fill="#312e4b"/>
        </g>
        <g>
          <path d="M38.731,28.566c-4.584.778-9.588-2.855-9.798-3.01-.166-.122-.202-.356-.08-.521.121-.169.355-.202.521-.08.049.036,4.962,3.6,9.232,2.875.203-.034.396.103.43.306.034.205-.105.397-.306.43Z" fill="#312e4b"/>
          <path d="M38.079,30.221c-4.585.78-9.589-2.853-9.799-3.009-.166-.122-.202-.356-.08-.521.123-.17.355-.202.521-.08.049.036,4.962,3.6,9.232,2.875.203-.035.396.102.43.305.035.209-.109.398-.305.43Z" fill="#312e4b"/>
        </g>
      </g>
      <path d="M25.042,38.913l.32-.202c.522-.33,1.214-.077,1.401.511v.004c.135.422-.043.881-.427,1.102l-4.102,2.362c-.363.209-.826.022-.942-.38l-2.865-9.934,3.584-3.629,3.03,10.168Z" fill="#c7754f"/>
      <path d="M22.015,28.749l.009.009-.009.009.361,1.188h0c-1.645,1.645-2.266,4.053-1.621,6.288l1.806,6.266-.325.185c-.361.202-.827.018-.941-.378l-2.525-8.753-.343-1.188,3.589-3.624Z" fill="#ab604b"/>
      <g>
        <g>
          <rect x="12.246" y="25.5" width="1.204" height="2.082" transform="translate(-15.004 16.858) rotate(-44.999)" fill="#312e4b"/>
          <rect x="18.888" y="18.858" width="1.204" height="2.082" transform="translate(-8.362 19.609) rotate(-44.999)" fill="#312e4b"/>
        </g>
        <polyline points="20.204 17.81 10.54 27.474 8.065 25 17.73 15.335" fill="#5b5e8b"/>
        <rect x="8.14" y="21.675" width="13.666" height="1.129" transform="translate(-11.34 17.101) rotate(-45)" fill="#312e4b"/>
        <path d="M20.901,12.55l2.095,2.095c.288.288.288.754,0,1.041l-2.141,2.141c-.383.383-1.005.383-1.389,0l-1.747-1.747c-.383-.383-.383-1.005,0-1.389l2.141-2.141c.288-.288.754-.288,1.041,0Z" fill="#e83d62"/>
        <path d="M21.859,13.513l1.134,1.134c.289.289.289.752,0,1.041l-2.141,2.141c-.382.382-1.007.382-1.389,0l-1.134-1.134c.382.382,1.007.382,1.389,0l2.141-2.141c.289-.289.289-.752,0-1.042Z" fill="#ce2955"/>
        <rect x="7.954" y="23.991" width="1.96" height="5.22" rx=".356" ry=".356" transform="translate(-16.193 14.108) rotate(-45)" fill="#312e4b"/>
      </g>
    </g>
  </g>
</svg>