<?xml version="1.0" encoding="UTF-8"?>
<svg id="Layer_2" data-name="Layer 2" xmlns="http://www.w3.org/2000/svg" viewBox="0 0 44.334 48">
  <g id="War_and_Army" data-name="War and Army">
    <g id="_5" data-name="5">
      <path d="M24.477,27.565c.019.121-.044.255-.196.296-.869.235-1.552-.148-2.171-.793-.196-.223-.337-.41-.474-.629-.105-.187-.046-.42.137-.529.187-.114.424-.05.534.132.009.009.009.018.014.032l.005.005c.078.16.201.356.328.529.424.526.85.845,1.505.748l.023-.005c.141-.023.274.073.296.214Z" fill="#312e4b"/>
      <g>
        <g>
          <polygon points="41.473 1.74 42.598 2.865 35.247 10.234 34.122 9.109 41.473 1.74" fill="#5b5e8b"/>
          <path d="M42.129,2.396l.469.469-7.352,7.37-1.127-1.126,3.239-3.247h0c.363.363.951.362,1.313,0l3.456-3.465Z" fill="#312e4b"/>
          <path d="M43.282.168l.885.884c.223.223.224.586.001.809l-1.638,1.642c-.223.223-.585.223-.808,0l-.885-.884c-.223-.223-.224-.586-.001-.809l1.638-1.642c.223-.223.585-.223.808,0Z" fill="#5b5e8b"/>
          <path d="M43.217,2.809l-.693.694c-.218.219-.581.219-.8,0l-.889-.888c-.219-.219-.22-.582-.001-.801l.693-.694c-.225.225-.224.588-.005.807l.889.888c.219.219.581.219.806-.006Z" fill="#312e4b"/>
        </g>
        <rect x="20.791" y="28.259" width="6.849" height=".74" transform="translate(-13.151 25.508) rotate(-45)" fill="#312e4b"/>
        <path d="M16.958,24.061l5.652,5.652s-1.301,2.031,1.137,3.626c0,0-1.26,2.867,1.148,5.472.314.339.134.891-.318.985l-4.046.846c-.324.068-.64-.139-.708-.463l-1.403-6.813c-.115-.56-.68-.908-1.233-.76s-1.198.539-1.631,1.502l-6.039,13.309c-.26.576-.985.766-1.495.391L.407,42.232c-.493-.36-.547-1.074-.115-1.506l16.666-16.666Z" fill="#312e4b"/>
        <path d="M23.044,14.146l-10.613,8.15c-.31.236-.401.663-.218,1.006l1.575,2.948.942.942,11.17-11.17-1.807-1.807c-.283-.283-.73-.311-1.048-.069ZM23.626,15.304c-.001.106-.041.213-.121.293l-7.925,7.925c-.196.196-.524.149-.659-.093l-.721-1.303c-.099-.18-.052-.407.111-.531l8.645-6.622c.166-.127.398-.111.546.037.08.08.122.187.122.294Z" fill="#312e4b"/>
        <rect x="12.679" y="20.166" width="17.09" height="6.531" rx=".796" ry=".796" transform="translate(-10.352 21.871) rotate(-45)" fill="#5b5e8b"/>
        <polygon points="37.899 26.675 35.216 31.508 23.935 25.339 27.828 21.446 37.899 26.675" fill="#5b5e8b"/>
        <polygon points="28.509 21.801 26.008 26.471 23.935 25.339 27.828 21.446 28.509 21.801" fill="#312e4b"/>
        <g>
          <path d="M34.206,29.252l-6.544-3.378c-.147-.076-.204-.256-.128-.402.075-.147.256-.204.402-.128l6.544,3.378c.147.076.204.256.128.402-.074.144-.253.205-.402.128Z" fill="#312e4b"/>
          <path d="M35.083,27.587l-6.544-3.378c-.147-.076-.204-.256-.128-.402.075-.148.256-.204.402-.128l6.544,3.378c.147.076.204.256.128.402-.074.144-.253.205-.402.128Z" fill="#312e4b"/>
        </g>
        <path d="M26.458,17.837c.139.139.208.321.208.501.001.182-.069.365-.207.502l-7.248,7.248c-.277.277-.726.276-1.003-.001-.139-.139-.207-.319-.208-.501,0-.18.07-.363.208-.501l7.248-7.248c.277-.277.725-.277,1.002,0Z" fill="#312e4b"/>
        <rect x="26.747" y="15.294" width="2.227" height="2.227" transform="translate(-3.442 24.506) rotate(-45)" fill="#312e4b"/>
        <path d="M37.592,6.745c.305.305.464.704.476,1.106.007.246-.042.493-.148.719-.066.148-.156.286-.27.411l-.089.097-.835.925-.411.456-.836.926-.411.456-.835.925-.411.456-.835.925-.411.456-.836.926-.411.456-.835.925-.279.31c-.045.051-.093.096-.144.135-.467.372-1.153.345-1.587-.09l-1.413-1.413c-.435-.435-.463-1.122-.09-1.587.039-.051.084-.099.135-.144l.31-.279.925-.835.456-.411.926-.836.456-.411.925-.835.456-.411.925-.835.456-.411.926-.836.456-.411.925-.835.097-.089c.125-.114.263-.204.411-.27.601-.277,1.333-.165,1.825.328Z" fill="#fcb73e"/>
        <path d="M37.592,6.745c.305.305.464.704.476,1.106.007.246-.042.493-.148.719-.066.148-.156.286-.27.411l-.089.097-.835.925-.411.456-.836.926-.411.456-.835.925-.411.456-.835.925-.411.456-.836.926-.411.456-.835.925-.279.31c-.045.051-.093.096-.144.135-.467.372-1.153.345-1.587-.09l-.469-.469c.435.435,1.12.462,1.587.09.051-.039.099-.084.144-.135l.279-.31.835-.925.411-.456.836-.926.411-.456.835-.925.411-.456.835-.925.411-.456.836-.926.411-.456.835-.925.089-.097c.114-.125.204-.263.27-.411.106-.227.155-.473.148-.719-.008-.296-.097-.59-.265-.847.091.061.177.129.258.21Z" fill="#fd982e"/>
        <g>
          <path d="M27.428,13.841l3.068,3.068-.279.31c-.045.051-.093.096-.144.135l-3.09-3.091c.039-.051.084-.099.135-.144l.31-.279Z" fill="#fd982e"/>
          <polygon points="28.809 12.595 31.742 15.528 31.331 15.984 28.353 13.006 28.809 12.595" fill="#fd982e"/>
          <polygon points="30.191 11.348 32.989 14.146 32.578 14.602 29.735 11.759 30.191 11.348" fill="#fd982e"/>
          <polygon points="31.571 10.103 34.234 12.765 33.823 13.221 31.115 10.514 31.571 10.103" fill="#fd982e"/>
          <polygon points="32.952 8.857 35.48 11.385 35.069 11.841 32.496 9.268 32.952 8.857" fill="#fd982e"/>
          <polygon points="34.334 7.61 36.726 10.003 36.316 10.459 33.878 8.021 34.334 7.61" fill="#fd982e"/>
          <path d="M35.767,6.417l2.153,2.153c-.066.148-.156.286-.27.411l-.089.097-2.302-2.302.097-.089c.125-.114.263-.204.411-.27Z" fill="#fd982e"/>
        </g>
        <g>
          <path d="M15.597,27.308l1.39,1.39c.142.142.142.373,0,.515s-.374.144-.517.001l-1.39-1.39c-.142-.142-.141-.374.001-.516s.373-.142.515,0Z" fill="#312e4b"/>
          <path d="M16.805,26.1l1.39,1.39c.142.142.142.373,0,.515s-.374.144-.517.001l-1.39-1.39c-.142-.142-.141-.374.001-.516s.373-.142.515,0Z" fill="#312e4b"/>
        </g>
      </g>
    </g>
  </g>
</svg>