<?xml version="1.0" encoding="UTF-8"?>
<svg id="Layer_2" data-name="Layer 2" xmlns="http://www.w3.org/2000/svg" viewBox="0 0 41.728 48">
  <g id="War_and_Army" data-name="War and Army">
    <g id="_8" data-name="8">
      <g>
        <path d="M12.47,27.113L.351,39.232c-.468.468-.468,1.227,0,1.695l6.72,6.72c.577.577,1.548.421,1.916-.306l6.432-12.719c.914-1.806.563-3.995-.868-5.426l-2.082-2.082Z" fill="#ca7147"/>
        <path d="M2.829,38.449l6.718,6.718c.119.119.256.21.402.265l-.965,1.907c-.366.732-1.335.887-1.916.306L.35,40.927c-.466-.466-.466-1.226,0-1.692l2.479-2.479c-.467.467-.467,1.226,0,1.692Z" fill="#ab604b"/>
        <path d="M40.785.111l.77.77c.148.148.148.388,0,.537l-10.107,10.107-1.306-1.306L40.249.111c.148-.148.388-.148.537,0Z" fill="#5b5e8b"/>
        <rect x="30.643" y="9.57" width="1.06" height="1.85" transform="translate(1.709 25.116) rotate(-45)" fill="#312e4b"/>
        <path d="M31.448,11.524l-1.73-1.73c-.312-.312-.818-.312-1.13,0L11.473,26.91c-.312.312-.312.818,0,1.13l2.066,2.066c.312.312.818.312,1.13,0l17.68-17.68-.901-.901Z" fill="#312e4b"/>
        <path d="M40.223,2.749l1.271,1.271c.312.312.312.818,0,1.13l-7.646,7.646c-.312.312-.818.312-1.13,0l-1.271-1.271,8.775-8.775Z" fill="#ca7147"/>
        <rect x="29.813" y="7.061" width="12.41" height=".515" transform="translate(5.374 27.612) rotate(-45)" fill="#ab604b"/>
        <rect x="24.129" y="14.556" width="9.102" height="1.274" transform="translate(-2.343 24.73) rotate(-45)" fill="#5b5e8b"/>
        <path d="M39.043,22.799c.09.103.136.233.136.363,0,.138-.054.28-.161.387l-3.619,3.619c-.326.326-.855.326-1.181,0l-8.359-8.359,3.707-3.707,8.173,8.173.478-.478c.228-.228.615-.24.827.002Z" fill="#5b5e8b"/>
        <rect x="25.435" y="16.812" width="5.242" height=".973" transform="translate(-4.014 24.905) rotate(-45)" fill="#312e4b"/>
        <path d="M18.826,25.948l1.79,8.785c.068.328.392.536.718.462l4.784-1.078c.334-.075.537-.415.445-.745l-2.461-8.818-1.103-.203-1.553-1.023-2.621,2.621Z" fill="#ca7147"/>
        <path d="M22.376,33.838l4.061-.915.128.448c.091.329-.114.672-.444.745l-4.788,1.075c-.325.078-.649-.128-.718-.462l-1.793-8.781,1.102-1.102,1.733,8.53c.069.325.389.535.718.462Z" fill="#ab604b"/>
        <path d="M25.513,19.261l1.7,1.7c.234.234.234.613,0,.847l-3.026,3.026c-.206.206-.532.233-.77.064-1.173-.837-2.811-.73-3.865.323l2.377-2.377,1.302,1.302c.226.226.593.226.819,0l2.336-2.336c.226-.226.225-.592-.001-.818l-1.302-1.302.431-.431Z" fill="#5b5e8b"/>
        <g>
          <rect x="31.182" y="19.072" width=".699" height="7.638" rx=".349" ry=".349" transform="translate(-6.952 29.001) rotate(-45)" fill="#312e4b"/>
          <rect x="32.241" y="18.013" width=".699" height="7.638" rx=".349" ry=".349" transform="translate(-5.893 29.439) rotate(-45)" fill="#312e4b"/>
          <rect x="33.3" y="16.954" width=".699" height="7.638" rx=".349" ry=".349" transform="translate(-4.833 29.878) rotate(-45)" fill="#312e4b"/>
        </g>
        <path d="M39.77,5.355c.163.163.147.418,0,.565l-5.151,5.151c-.155.155-.41.155-.565,0-.154-.154-.154-.411,0-.565l5.151-5.151c.155-.155.409-.155.565,0Z" fill="#ab604b"/>
      </g>
      <rect x="17.011" y="18.848" width="8.51" height="1.48" rx=".38" ry=".38" transform="translate(-7.622 20.775) rotate(-45)" fill="#5b5e8b"/>
      <rect x="17.011" y="19.288" width="8.51" height=".6" transform="translate(-7.622 20.775) rotate(-45)" fill="#deddff"/>
      <g>
        <rect x="25.261" y="14.087" width=".576" height="2.172" rx=".287" ry=".287" transform="translate(-3.246 22.51) rotate(-45)" fill="#5b5e8b"/>
        <rect x="26.172" y="13.176" width=".576" height="2.172" rx=".287" ry=".287" transform="translate(-2.335 22.887) rotate(-45)" fill="#5b5e8b"/>
        <rect x="27.082" y="12.266" width=".576" height="2.172" rx=".287" ry=".287" transform="translate(-1.425 23.264) rotate(-45)" fill="#5b5e8b"/>
        <rect x="27.993" y="11.355" width=".576" height="2.172" rx=".287" ry=".287" transform="translate(-.514 23.641) rotate(-45)" fill="#5b5e8b"/>
      </g>
    </g>
  </g>
</svg>