<?xml version="1.0" encoding="UTF-8"?>
<svg id="Layer_2" data-name="Layer 2" xmlns="http://www.w3.org/2000/svg" viewBox="0 0 41.578 48">
  <g id="War_and_Army" data-name="War and Army">
    <g id="_9" data-name="9">
      <g>
        <g>
          <path d="M10.137,27.525L.421,37.24c-.562.562-.562,1.473,0,2.035l8.304,8.304c.562.562,1.473.562,2.035,0l.812-.812c.314-.314.47-.756.41-1.196-.702-5.161-.058-9.886,2.072-14.129l-3.917-3.917Z" fill="#5b5e8b"/>
          <path d="M9.308,28.353l4.229,4.229c.165-.383.327-.766.516-1.141l-3.917-3.917-.828.828Z" fill="#312e4b"/>
          <path d="M10.928,31.07c.267.267.399.614.399.964.002.348-.132.698-.399.964l-.301.301c-.531.531-1.396.533-1.929,0-.267-.267-.399-.614-.399-.964s.134-.7.399-.964l.301-.301c.533-.533,1.396-.533,1.929,0Z" fill="#fff"/>
          <path d="M7.033,42.493l-3.427-3.427c-.337-.337-.337-.884,0-1.221l3.444-3.444c.487-.487,1.324-.236,1.458.44.532,2.687.61,5.161-.037,7.296-.189.623-.977.816-1.437.356Z" fill="#fff"/>
        </g>
        <g>
          <g>
            <path d="M26.662,27.661c.024.155-.056.326-.251.379-.368.099-.724.117-1.057.053-.7-.15-1.235-.56-1.722-1.068-.251-.286-.432-.525-.607-.805-.134-.239-.058-.537.175-.677.239-.146.543-.064.683.169.012.012.012.023.017.041l.006.006c.323.666.906,1.364,1.629,1.605.21.058.444.07.718.029l.029-.006c.181-.029.35.093.379.274Z" fill="#312e4b"/>
            <path d="M28.079,28.596c-.219.219-.502.373-.818.434l-5.278,1.024c-.192.037-.378-.088-.415-.28-.038-.191.088-.378.28-.415l5.278-1.024c.689-.134.949-.981.452-1.478l-2.14-2.14c-.138-.138-.138-.362,0-.5s.362-.138.5,0l2.14,2.14c.629.629.606,1.633,0,2.239Z" fill="#312e4b"/>
          </g>
          <path d="M9.68,25.629L32.127,3.183l5.115,5.115h0c-1.122-.179-2.262.191-3.065.995l-4.669,4.669c-.561.561-.561,1.469,0,2.03l2.355,2.355-3.999,3.999-2.655-2.655c-.395-.395-1.035-.395-1.429,0l-10.734,10.734-3.365-3.365c-.395-.395-.395-1.035,0-1.429Z" fill="#312e4b"/>
          <path d="M13.045,30.424l1.681,1.681c.933-.933,2.445-.933,3.378,0l9.76-9.76-2.655-2.655c-.395-.395-1.035-.395-1.429,0l-10.734,10.734Z" fill="#5b5e8b"/>
          <path d="M31.863,18.346s4.036,3.891,8.912,3.659c.456-.022.838.331.801.786l-.336,4.136c-.033.406-.393.716-.799.68-4.616-.404-8.933-1.759-12.577-5.262l3.999-3.999Z" fill="#5b5e8b"/>
          <path d="M27.209,37.605l.162-.082c.461-.234,1.024-.046,1.253.418h0c.229.465.033,1.028-.436,1.25l-4.625,2.189c-.462.219-1.014.023-1.235-.439l-4.226-8.831,3.534-3.534,5.573,9.029Z" fill="#ab604b"/>
          <path d="M28.673,38.057c.113.338.019.708-.224.951-.074.074-.161.134-.261.183l-4.625,2.19c-.463.218-1.013.021-1.235-.441l-4.226-8.832.842-.842,4.045,8.456c.222.463.774.657,1.235.438l4.448-2.102Z" fill="#8b4f4f"/>
          <path d="M33.118,1.657l5.803,5.803c.35.35.35.908,0,1.258s-.908.35-1.258,0l-5.803-5.803c-.35-.35-.35-.908,0-1.258s.908-.35,1.258,0Z" fill="#5b5e8b"/>
          <path d="M13.835,20.32l.572.572-3.787,3.787-1.326-1.326c-.229-.229-.229-.601,0-.83l1.842-1.842c.098-.098.229-.159.367-.17l2.331-.19Z" fill="#5b5e8b"/>
          <g>
            <rect x="21.851" y="13.077" width="6.088" height="2.648" rx=".418" ry=".418" transform="translate(-2.892 21.821) rotate(-45)" fill="#5b5e8b"/>
            <rect x="21.854" y="13.662" width="6.082" height="1.479" transform="translate(-2.892 21.821) rotate(-45)" fill="#deddff"/>
          </g>
          <path d="M18.902,27.601c.572,0,1.028.486.985,1.071-.036.493-.456.896-.946.913-.454.021-.529-.188-1.071-.407l-1.015-.403c-.165-.066-.165-.301.003-.367l1.019-.4c.463-.181.608-.407,1.025-.407Z" fill="#312e4b"/>
          <g>
            <path d="M38.12,24.926c.214.043.357.257.314.472-.044.247-.286.366-.472.329-2.659-.5-4.845-1.329-6.668-2.537-.193-.122-.243-.372-.121-.565.129-.186.379-.236.565-.107,1.737,1.151,3.823,1.937,6.382,2.408Z" fill="#312e4b"/>
            <path d="M38.849,23.726c-.059.205-.278.341-.5.286-2.265-.622-4.159-1.429-5.796-2.48-.193-.121-.243-.372-.121-.565.114-.186.372-.243.557-.114,1.572,1.001,3.395,1.78,5.574,2.373.214.057.343.286.286.5Z" fill="#312e4b"/>
          </g>
          <g>
            <path d="M19.493,18.576c.14.14.142.369.002.509l-6.743,6.743c-.14.14-.369.138-.509-.002s-.142-.369-.002-.509l6.743-6.743c.14-.14.369-.138.509.002Z" fill="#5b5e8b"/>
            <path d="M20.807,19.89c.14.14.142.369.002.509l-6.743,6.743c-.14.14-.369.138-.509-.002s-.142-.369-.002-.509l6.743-6.743c.14-.14.369-.138.509.002Z" fill="#5b5e8b"/>
          </g>
          <path d="M28.636,9.337l1.323,1.323c.145.145.145.384,0,.53s-.384.145-.53,0l-1.323-1.323c-.145-.145-.145-.384,0-.53s.384-.145.53,0Z" fill="#5b5e8b"/>
          <path d="M30.125,7.848l1.323,1.323c.145.145.145.384,0,.53s-.384.145-.53,0l-1.323-1.323c-.145-.145-.145-.384,0-.53s.384-.145.53,0Z" fill="#5b5e8b"/>
          <path d="M31.614,6.359l1.323,1.323c.145.145.145.384,0,.53s-.384.145-.53,0l-1.323-1.323c-.145-.145-.145-.384,0-.53s.384-.145.53,0Z" fill="#5b5e8b"/>
        </g>
      </g>
      <g>
        <path d="M35.862,2.233l2.484,2.484c.121.121.121.318,0,.439l-.864.864-2.923-2.923.864-.864c.121-.121.318-.121.439,0Z" fill="#5b5e8b"/>
        <rect x="35.954" y="2.329" width=".445" height="4.143" transform="translate(7.484 26.87) rotate(-45)" fill="#312e4b"/>
      </g>
      <path d="M36.288,2.659l1.631,1.631,2.477-2.477c.243-.243.243-.636,0-.879l-.752-.752c-.243-.243-.636-.243-.879,0l-2.477,2.477Z" fill="#5b5e8b"/>
      <path d="M40.393.935c.242.242.242.637,0,.879l-2.476,2.476-1.633-1.633.439-.439h0c.659.659,1.728.659,2.388,0l1.282-1.282Z" fill="#312e4b"/>
    </g>
  </g>
</svg>