<?xml version="1.0" encoding="UTF-8"?>
<svg id="Layer_2" data-name="Layer 2" xmlns="http://www.w3.org/2000/svg" viewBox="0 0 47.976 48">
  <g id="War_and_Army" data-name="War and Army">
    <g id="_53" data-name="53">
      <path d="M26.464,26.709c.012.078-.016.155-.065.204-.029.029-.065.049-.11.061-.258.069-.507.082-.74.037-.229-.049-.458-.147-.675-.29-.18-.114-.343-.262-.532-.458-.176-.2-.303-.368-.425-.564-.094-.168-.041-.376.123-.474.168-.102.38-.045.478.119.008.008.008.016.012.029l.004.004c.069.143.18.319.294.474.135.168.258.298.384.401.147.114.303.196.462.249.147.041.311.049.503.02l.02-.004c.127-.02.245.065.266.192Z" fill="#5b5e8b"/>
      <path d="M27.911,27.002l-2.479,2.479c-.154.154-.404.154-.558,0s-.154-.403,0-.558l2.248-2.248-1.425-2.092c-.122-.18-.069-.427.104-.548.181-.123.426-.076.549.104l1.608,2.362c.106.157.087.367-.048.501Z" fill="#312e4b"/>
      <path d="M1.713,40.378l5.907,5.907c.394.394.394,1.024,0,1.418s-1.024.394-1.418,0L.295,41.796c-.394-.394-.394-1.024,0-1.418s1.024-.394,1.418,0Z" fill="#5b5e8b"/>
      <polygon points="7.372 37.944 10.051 40.622 7.618 46.283 1.711 40.376 7.372 37.944" fill="#5b5e8b"/>
      <path d="M8.327,36.989l2.678,2.678c.266.266.256.689,0,.945-.266.266-.689.276-.955.01l-2.678-2.678c-.256-.256-.256-.689.01-.955.256-.256.689-.256.945,0Z" fill="#5b5e8b"/>
      <path d="M10.083,38.749l.921.921c.26.26.26.688,0,.949s-.688.26-.949,0l-2.074,4.809-.363.847.009.009c.391.391.391,1.023-.009,1.423-.391.391-1.023.391-1.414,0l-1.479-1.479c.391.391,1.023.391,1.414,0,.4-.4.4-1.033.009-1.423l-4.437-4.437.847-.363,1.014,1.014c1.777,1.777,4.781,1.191,5.777-1.107l-.214-.214c.27.27.688.26.949,0s.27-.679,0-.949Z" fill="#312e4b"/>
      <rect x="7.967" y="32.362" width="11.605" height="3.725" transform="translate(-20.168 19.761) rotate(-45)" fill="#ab604b"/>
      <rect x="8.835" y="34.46" width="11.603" height="1.276" transform="translate(-20.531 20.629) rotate(-45)" fill="#8b4f4f"/>
      <path d="M23.468,26.235l1.272,1.272.512,1.319,2.885,2.885c.276.276.276.709,0,.985l-1.132,1.132c-.276.276-.709.276-.985,0l-2.885-2.885-1.319-.512-1.272-1.272,2.924-2.924Z" fill="#5b5e8b"/>
      <path d="M21.939,29.628l1.734.778,2.884,2.884c.279.279.716.27.986,0l-.54.54c-.279.279-.707.279-.986,0l-2.884-2.884-1.312-.512-1.274-1.274,2.921-2.921.93.93-2.46,2.46Z" fill="#312e4b"/>
      <path d="M33.999,29.931l-4.479-5.372-1.319-.512-.807-.807,2.924-2.924.807.807.512,1.319,5.372,4.479c.297.248.317.697.044.97l-2.083,2.083c-.273.273-.723.253-.97-.044Z" fill="#5b5e8b"/>
      <path d="M35.701,29.243l-.735.735c-.27.27-.716.251-.967-.056l-4.484-5.358-1.312-.512-.809-.809.735-.735.809.809,1.312.512,4.474,5.367c.26.298.707.316.977.046Z" fill="#312e4b"/>
      <rect x="15.541" y="19.371" width="22.439" height="3.725" transform="translate(-7.176 25.142) rotate(-45)" fill="#5b5e8b"/>
      <rect x="16.345" y="21.308" width="22.442" height="1.46" transform="translate(-7.509 25.947) rotate(-45)" fill="#312e4b"/>
      <path d="M47.917.963l-2.698,6.538c-.482,1.191-1.378,2.186-2.521,2.796l-3.377,1.802c-.986.526-1.792,1.335-2.315,2.322h0c-.205.387-.726.466-1.036.156l-2.573-2.573c-.31-.31-.231-.831.156-1.036h0c.988-.523,1.796-1.329,2.322-2.315l1.802-3.377c.61-1.142,1.605-2.038,2.796-2.52L47.011.057c.57-.235,1.141.335.906.906Z" fill="#fcb73e"/>
      <path d="M29.787,15.573c.049-.429-.212-1.425.585-2.223l.743-.743-1.351-1.351.263-.263h.819s1.761,1.761,1.761,1.761l-2.819,2.819Z" fill="#5b5e8b"/>
      <path d="M32.399,12.545l.205.205-2.819,2.819c.049-.42-.214-1.423.586-2.223l.316-.316c-.735.735-.56,1.629-.586,1.814l2.298-2.298Z" fill="#312e4b"/>
      <g>
        <rect x="19.016" y="22.629" width=".968" height="2.673" transform="translate(-11.235 20.808) rotate(-45)" fill="#312e4b"/>
        <rect x="24.355" y="17.29" width=".968" height="2.673" transform="translate(-5.896 23.019) rotate(-45)" fill="#312e4b"/>
      </g>
      <polyline points="25.059 16.594 17.291 24.362 15.302 22.373 23.071 14.605" fill="#5b5e8b"/>
      <rect x="15.363" y="19.701" width="10.984" height=".908" transform="translate(-8.143 20.65) rotate(-45)" fill="#312e4b"/>
      <path d="M25.619,12.367l1.684,1.684c.231.231.231.606,0,.837l-1.721,1.721c-.308.308-.808.308-1.116,0l-1.405-1.405c-.308-.308-.308-.808,0-1.116l1.721-1.721c.231-.231.606-.231.837,0Z" fill="#e83d62"/>
      <path d="M26.389,13.141l.912.912c.233.233.232.605,0,.837l-1.721,1.721c-.307.307-.809.307-1.116,0l-.912-.912c.307.307.809.307,1.116,0l1.721-1.721c.233-.233.233-.605,0-.837Z" fill="#ce2955"/>
      <path d="M17.523,27.862l2.608,2.608c.439.439.423,1.139,0,1.563-.439.439-1.139.456-1.579.016l-2.608-2.608c-.423-.423-.423-1.139.016-1.579.423-.423,1.139-.423,1.562,0Z" fill="#ab604b"/>
      <path d="M18.576,28.917l1.553,1.553c.437.437.428,1.135,0,1.563-.437.437-1.144.456-1.581.019l-1.553-1.553c.437.437,1.144.419,1.581-.019.428-.428.437-1.126,0-1.563Z" fill="#8b4f4f"/>
      <path d="M47.924.964l-2.707,6.539c-.484,1.191-1.377,2.177-2.512,2.791l-3.386,1.805c-.986.521-1.786,1.339-2.307,2.326-.037.056-.065.102-.112.149-.251.251-.66.27-.93,0l-1.042-1.042c.26.26.67.242.912,0,.046-.046.093-.093.121-.158.521-.986,1.33-1.795,2.316-2.316l3.377-1.814c1.144-.605,2.037-1.591,2.511-2.791L46.78.155l.233-.102c.567-.233,1.144.344.912.912Z" fill="#fd982e"/>
      <rect x="15.213" y="21.562" width="1.575" height="4.196" rx=".286" ry=".286" transform="translate(-12.044 18.244) rotate(-45)" fill="#312e4b"/>
    </g>
  </g>
</svg>