<?xml version="1.0" encoding="UTF-8"?>
<svg id="Layer_2" data-name="Layer 2" xmlns="http://www.w3.org/2000/svg" viewBox="0 0 48 37.129">
  <g id="War_and_Army" data-name="War and Army">
    <g id="_68" data-name="68">
      <g>
        <path d="M47.399,24.865v2.906c0,.552-.448,1-1,1H5.499v-3.906h41.9Z" fill="#312e4b"/>
        <path d="M47.468,25.454h-10.86l-1.45,3.06h-17.34l-1.05-3.06H6.898l-1.04,3.06H.528V8.934c0-1.02.83-1.86,1.86-1.86h28.8c.82,0,1.55.55,1.78,1.34l2.99,10.2h8.46c.87,0,1.62.6,1.82,1.45l.13.55.55,2.44.55,2.4Z" fill="#46cc6b"/>
        <path d="M2.388,7.074h1.85c-1.03,0-1.86.84-1.86,1.86v19.58H.528V8.934c0-1.02.83-1.86,1.86-1.86Z" fill="#34ba5d"/>
        <path d="M48,25.272v.372c0,.279-.229.504-.504.504h-10.129c-.194,0-.372.112-.453.291l-1.178,2.48c-.081.178-.26.291-.453.291h-17.599c-.213,0-.407-.14-.477-.341l-.81-2.379c-.07-.202-.264-.341-.477-.341H7.755c-.213,0-.407.14-.477.341l-.814,2.379c-.07.202-.26.341-.477.341H.504c-.279,0-.504-.229-.504-.504v-.376c0-.275.225-.504.504-.504h4.499c.213,0,.407-.136.477-.341l.814-2.376c.07-.202.26-.341.477-.341h10.134c.217,0,.407.14.477.341l.814,2.376c.07.205.264.341.477.341h15.734c.198,0,.372-.112.457-.287l1.174-2.48c.085-.178.26-.291.457-.291h11.001c.275,0,.504.225.504.504Z" fill="#5b5e8b"/>
        <g>
          <path d="M17.128,32.596l-.193.829c-.042.188-.221.311-.41.287l-.316-.033c-.057.132-.118.264-.188.396l.226.221c.137.137.151.353.028.504l-.532.669c-.118.151-.335.184-.495.08l-.273-.174c-.113.104-.226.198-.344.273l.108.302c.066.184-.019.382-.193.466l-.763.372c-.174.08-.382.024-.485-.141l-.17-.273c-.132.042-.273.075-.419.09l-.033.33c-.024.188-.184.335-.377.335h-.858c-.193,0-.353-.146-.377-.335l-.033-.33c-.141-.014-.278-.047-.419-.09l-.17.273c-.104.165-.311.221-.485.141l-.763-.372c-.174-.085-.259-.283-.193-.466l.108-.302c-.118-.075-.231-.17-.344-.273l-.273.174c-.16.104-.377.071-.495-.08l-.532-.669c-.123-.151-.108-.368.028-.504l.226-.221c-.071-.132-.132-.264-.188-.396l-.316.033c-.188.024-.368-.099-.41-.287l-.193-.829c-.042-.188.066-.377.245-.438l.311-.108c-.014-.071-.014-.141-.014-.212,0-.075,0-.151.014-.221l-.311-.108c-.179-.061-.287-.25-.245-.438l.193-.829c.042-.188.221-.311.41-.287l.316.033c.057-.137.127-.269.193-.396l-.226-.221c-.141-.137-.155-.358-.033-.509l.532-.664c.118-.151.335-.184.495-.08l.273.174c.113-.104.226-.198.344-.273l-.108-.302c-.066-.184.019-.382.193-.466l.763-.372c.174-.08.382-.024.485.141l.17.273c.141-.042.278-.075.419-.09l.033-.33c.024-.188.184-.335.377-.335h.858c.193,0,.353.146.377.335l.033.33c.146.014.287.047.419.09l.17-.273c.104-.165.311-.221.485-.141l.763.372c.174.085.259.283.193.466l-.108.302c.118.075.231.17.344.273l.273-.174c.16-.104.377-.071.495.08l.532.664c.123.151.108.372-.033.509l-.226.221c.066.127.137.259.193.396l.316-.033c.188-.024.368.099.41.287l.193.829c.042.188-.066.377-.245.438l-.311.108c.014.071.014.146.014.221,0,.071,0,.141-.014.212l.311.108c.179.061.287.25.245.438Z" fill="#5b5e8b"/>
          <path d="M15.183,31.833c0,1.832-1.487,3.307-3.319,3.307s-3.307-1.475-3.307-3.307,1.475-3.307,3.307-3.307,3.319,1.475,3.319,3.307Z" fill="#deddff"/>
          <g>
            <g>
              <path d="M12.281,29.749c0,.221-.179.411-.411.411-.221,0-.411-.189-.411-.411,0-.232.189-.421.411-.421.232,0,.411.189.411.421Z" fill="#5b5e8b"/>
              <path d="M12.281,33.927c0,.221-.179.411-.411.411-.221,0-.411-.189-.411-.411,0-.232.189-.421.411-.421.232,0,.411.189.411.421Z" fill="#5b5e8b"/>
            </g>
            <g>
              <path d="M10.687,30.069c.156.156.164.417,0,.581-.156.156-.424.156-.581,0-.164-.164-.164-.432-.007-.588.164-.164.424-.156.588.007Z" fill="#5b5e8b"/>
              <path d="M13.641,33.023c.156.156.164.417,0,.581-.156.156-.424.156-.581,0-.164-.164-.164-.432-.007-.588.164-.164.424-.156.588.007Z" fill="#5b5e8b"/>
            </g>
            <g>
              <path d="M9.787,31.422c.221,0,.411.179.411.411,0,.221-.189.411-.411.411-.232,0-.421-.189-.421-.411,0-.232.189-.411.421-.411Z" fill="#5b5e8b"/>
              <path d="M13.964,31.422c.221,0,.411.179.411.411,0,.221-.189.411-.411.411-.232,0-.421-.189-.421-.411,0-.232.189-.411.421-.411Z" fill="#5b5e8b"/>
            </g>
            <g>
              <path d="M10.107,33.016c.156-.156.417-.164.581,0,.156.156.156.424,0,.581-.164.164-.432.164-.588.007-.164-.164-.156-.424.007-.588Z" fill="#5b5e8b"/>
              <path d="M13.06,30.062c.156-.156.417-.164.581,0,.156.156.156.424,0,.581-.164.164-.432.164-.588.007-.164-.164-.156-.424.007-.588Z" fill="#5b5e8b"/>
            </g>
          </g>
          <circle cx="11.87" cy="31.833" r=".892" fill="#5b5e8b"/>
        </g>
        <g>
          <path d="M47.39,32.596l-.193.829c-.042.188-.221.311-.41.287l-.316-.033c-.057.132-.118.264-.188.396l.226.221c.137.137.151.353.028.504l-.532.669c-.118.151-.335.184-.495.08l-.273-.174c-.113.104-.226.198-.344.273l.108.302c.066.184-.019.382-.193.466l-.763.372c-.174.08-.382.024-.485-.141l-.17-.273c-.132.042-.273.075-.419.09l-.033.33c-.024.188-.184.335-.377.335h-.858c-.193,0-.353-.146-.377-.335l-.033-.33c-.141-.014-.278-.047-.419-.09l-.17.273c-.104.165-.311.221-.485.141l-.763-.372c-.174-.085-.259-.283-.193-.466l.108-.302c-.118-.075-.231-.17-.344-.273l-.273.174c-.16.104-.377.071-.495-.08l-.532-.669c-.123-.151-.108-.368.028-.504l.226-.221c-.071-.132-.132-.264-.188-.396l-.316.033c-.188.024-.368-.099-.41-.287l-.193-.829c-.042-.188.066-.377.245-.438l.311-.108c-.014-.071-.014-.141-.014-.212,0-.075,0-.151.014-.221l-.311-.108c-.179-.061-.287-.25-.245-.438l.193-.829c.042-.188.221-.311.41-.287l.316.033c.057-.137.127-.269.193-.396l-.226-.221c-.141-.137-.155-.358-.033-.509l.532-.664c.118-.151.335-.184.495-.08l.273.174c.113-.104.226-.198.344-.273l-.108-.302c-.066-.184.019-.382.193-.466l.763-.372c.174-.08.382-.024.485.141l.17.273c.141-.042.278-.075.419-.09l.033-.33c.024-.188.184-.335.377-.335h.858c.193,0,.353.146.377.335l.033.33c.146.014.287.047.419.09l.17-.273c.104-.165.311-.221.485-.141l.763.372c.174.085.259.283.193.466l-.108.302c.118.075.231.17.344.273l.273-.174c.16-.104.377-.071.495.08l.532.664c.123.151.108.372-.033.509l-.226.221c.066.127.137.259.193.396l.316-.033c.188-.024.368.099.41.287l.193.829c.042.188-.066.377-.245.438l-.311.108c.014.071.014.146.014.221,0,.071,0,.141-.014.212l.311.108c.179.061.287.25.245.438Z" fill="#5b5e8b"/>
          <path d="M45.445,31.833c0,1.832-1.487,3.307-3.319,3.307s-3.307-1.475-3.307-3.307,1.475-3.307,3.307-3.307,3.319,1.475,3.319,3.307Z" fill="#deddff"/>
          <g>
            <g>
              <path d="M42.542,29.749c0,.221-.179.411-.411.411-.221,0-.411-.189-.411-.411,0-.232.189-.421.411-.421.232,0,.411.189.411.421Z" fill="#5b5e8b"/>
              <path d="M42.542,33.927c0,.221-.179.411-.411.411-.221,0-.411-.189-.411-.411,0-.232.189-.421.411-.421.232,0,.411.189.411.421Z" fill="#5b5e8b"/>
            </g>
            <g>
              <path d="M40.949,30.069c.156.156.164.417,0,.581-.156.156-.424.156-.581,0-.164-.164-.164-.432-.007-.588.164-.164.424-.156.588.007Z" fill="#5b5e8b"/>
              <path d="M43.902,33.023c.156.156.164.417,0,.581-.156.156-.424.156-.581,0-.164-.164-.164-.432-.007-.588.164-.164.424-.156.588.007Z" fill="#5b5e8b"/>
            </g>
            <g>
              <path d="M40.048,31.422c.221,0,.411.179.411.411,0,.221-.189.411-.411.411-.232,0-.421-.189-.421-.411,0-.232.189-.411.421-.411Z" fill="#5b5e8b"/>
              <path d="M44.225,31.422c.221,0,.411.179.411.411,0,.221-.189.411-.411.411-.232,0-.421-.189-.421-.411,0-.232.189-.411.421-.411Z" fill="#5b5e8b"/>
            </g>
            <g>
              <path d="M40.368,33.016c.156-.156.417-.164.581,0,.156.156.156.424,0,.581-.164.164-.432.164-.588.007-.164-.164-.156-.424.007-.588Z" fill="#5b5e8b"/>
              <path d="M43.322,30.062c.156-.156.417-.164.581,0,.156.156.156.424,0,.581-.164.164-.432.164-.588.007-.164-.164-.156-.424.007-.588Z" fill="#5b5e8b"/>
            </g>
          </g>
          <circle cx="42.132" cy="31.833" r=".892" fill="#5b5e8b"/>
        </g>
        <path d="M30.329,9.074h-9.543c-.552,0-1,.448-1,1v11.094c0,.152.035.302.102.439l2.124,4.346c.168.343.516.561.898.561h10.548c.552,0,1-.448,1-1v-4.757c0-.095-.014-.19-.04-.281l-3.129-10.683c-.125-.426-.516-.719-.96-.719Z" fill="#34ba5d"/>
        <path d="M24.868,26.514h-1.96c-.38,0-.73-.22-.9-.56l-2.12-4.35c-.07-.13-.1-.28-.1-.44v-11.09c0-.55.45-1,1-1h1.96c-.56,0-1,.45-1,1v11.09c0,.16.03.31.1.44l2.12,4.35c.17.34.52.56.9.56Z" fill="#179c5f"/>
        <path d="M31.478,17.904h-9.79c-.39,0-.7-.32-.7-.7v-6.23c0-.39.31-.7.7-.7h7.97c.31,0,.58.2.67.5l1.82,6.23c.13.45-.2.9-.67.9Z" fill="#deddff"/>
        <rect x="23.998" y="10.013" width=".75" height="8.151" fill="#34ba5d"/>
        <g>
          <rect x="2.383" y="9.074" width="6.97" height="4.7" rx=".696" ry=".696" fill="#deddff"/>
          <path d="M5.038,13.774h-1.96c-.38,0-.7-.31-.7-.7v-3.3c0-.39.32-.7.7-.7h1.96c-.38,0-.7.31-.7.7v3.3c0,.39.32.7.7.7Z" fill="#c6c6f7"/>
          <rect x="11.584" y="9.074" width="6.97" height="4.7" rx=".696" ry=".696" fill="#deddff"/>
          <path d="M14.238,13.774h-1.96c-.38,0-.69-.31-.69-.7v-3.3c0-.39.31-.7.69-.7h1.96c-.38,0-.7.31-.7.7v3.3c0,.39.32.7.7.7Z" fill="#c6c6f7"/>
        </g>
        <path d="M21.748,10.274v7.63h-.06c-.39,0-.7-.32-.7-.7v-6.23c0-.39.31-.7.7-.7h.06Z" fill="#c6c6f7"/>
        <path d="M26.578,19.294c0,.22-.17.4-.39.4h-1.79c-.22,0-.4-.18-.4-.4s.18-.4.4-.4h1.79c.22,0,.39.18.39.4Z" fill="#179c5f"/>
        <path d="M46.918,23.054h-2.09c-.67,0-1.22-.55-1.22-1.22,0-.68.55-1.22,1.22-1.22h1.54l.55,2.44Z" fill="#fcb73e"/>
        <path d="M45.908,23.054h-1.08c-.67,0-1.22-.55-1.22-1.22,0-.68.55-1.22,1.22-1.22h1.08c-.67,0-1.22.54-1.22,1.22,0,.67.55,1.22,1.22,1.22Z" fill="#fd982e"/>
        <g>
          <rect x="11.943" y="5.274" width="2.295" height="1.8" fill="#179c5f"/>
          <rect x="17.407" y="1.565" width="2.295" height="5.508" fill="#179c5f"/>
        </g>
        <g>
          <path d="M21.828.426c-1.729.304-2.855,2.118-2.855,2.118,0,0,1.677,1.322,3.406,1.018,1.155-.203,2.041-1.08,2.502-1.64.21-.256.143-.638-.142-.807-.624-.369-1.756-.892-2.911-.689Z" fill="#312e4b"/>
          <path d="M10.268,2.144l-.525.092c-.051.009-.098.032-.137.066l-.184.164c-.072.064-.106.161-.089.256l.516,2.939c.017.095.081.174.171.21l.229.092c.048.019.1.025.151.016l.525-.092-.658-3.742Z" fill="#fcb73e"/>
          <path d="M9.5,3.653l-.163-.927c-.017-.095.014-.198.089-.261l.179-.166c.043-.032.089-.052.136-.061l.523-.092.163.927-.523.092c-.048.008-.093.029-.136.061l-.179.166c-.075.062-.106.166-.089.261Z" fill="#fd982e"/>
          <path d="M19.588.013l-8.063,1.416c-.118.021-.225.079-.307.165l-.436.46.658,3.742.566.284c.107.053.228.071.345.05l8.063-1.416c.132-.023.252-.094.336-.198l.412-.509,1.049-.184c.151-.027.252-.171.226-.322l-.534-3.038c-.027-.151-.171-.252-.322-.226l-1.049.184-.561-.337c-.115-.069-.251-.094-.383-.071Z" fill="#5b5e8b"/>
          <path d="M22.067,1.385c-.027-.154-.179-.25-.321-.225l-1.058.186-.55-.344c-.122-.064-.261-.089-.391-.066l-8.063,1.416c-.119.021-.219.075-.302.163l-.434.456-.161-.915.434-.456c.083-.088.181-.154.3-.175L19.584.008c.131-.023.27.002.393.078l.548.332,1.058-.186c.143-.025.296.083.321.225l.163.927Z" fill="#312e4b"/>
          <rect x="20.864" y=".34" width=".573" height="3.641" transform="translate(-.055 3.693) rotate(-9.965)" fill="#e83d62"/>
          <rect x="20.626" y=".357" width=".579" height=".941" transform="translate(.172 3.632) rotate(-9.965)" fill="#ce2955"/>
          <rect x="10.592" y="2.07" width=".522" height="3.8" transform="translate(-.523 1.938) rotate(-9.965)" fill="#fd982e"/>
        </g>
      </g>
      <path d="M43.258,18.074v.54h-5.89v-.54c0-.27.22-.5.5-.5h4.89c.27,0,.5.23.5.5Z" fill="#179c5f"/>
    </g>
  </g>
</svg>