<?xml version="1.0" encoding="UTF-8"?>
<svg id="Layer_2" data-name="Layer 2" xmlns="http://www.w3.org/2000/svg" viewBox="0 0 48 47.999">
  <g id="War_and_Army" data-name="War and Army">
    <g id="_31" data-name="31">
      <path d="M21.487,34.331l-.764.764c-.036.036-.076.067-.108.099-.503.395-1.236.364-1.699-.099l-6.008-6.008c-.463-.463-.494-1.195-.099-1.699.031-.031.063-.072.099-.108l.764-.764,7.815,7.815Z" fill="#e83d62"/>
      <rect x="16.858" y="25.197" width=".845" height="11.052" transform="translate(-16.663 21.218) rotate(-45)" fill="#ce2955"/>
      <rect x="28.719" y="27.608" width="2.431" height="4.6" transform="translate(-12.381 29.927) rotate(-45)" fill="#312e4b"/>
      <g>
        <path d="M47.373,40.512l-6.86,6.86c-.837.836-2.193.836-3.03,0l-9.612-9.612c-.836-.836-.836-2.193,0-3.03l6.86-6.86c.836-.836,2.193-.836,3.03,0l9.612,9.612c.836.837.836,2.194,0,3.03" fill="#e83d62"/>
        <path d="M40.099,47.688c-.822.502-1.907.393-2.616-.316l-9.613-9.614c-.837-.836-.837-2.19,0-3.026l6.862-6.862c.713-.713,1.793-.819,2.62-.32-.149.084-.288.193-.415.32l-6.859,6.859c-.837.836-.836,2.198,0,3.034l9.609,9.61c.124.123.262.233.411.316" fill="#ce2955"/>
        <path d="M40.544,33.766l-2.392,2.392c-.294.294-.769.294-1.062,0l-3.677-3.676c-.293-.294-.293-.769,0-1.062l2.392-2.392c.29-.29.768-.294,1.061,0l3.677,3.677c.293.293.293.768,0,1.062" fill="#deddff"/>
        <path d="M38.364,35.947l-.211.211c-.294.295-.768.295-1.063,0l-3.675-3.675c-.295-.295-.295-.768,0-1.063l2.39-2.391c.292-.291.768-.295,1.063,0l.211.211-2.179,2.18c-.291.291-.295.768,0,1.063l3.464,3.464Z" fill="#c6c6f7"/>
        <path d="M32.479,33.416l3.677,3.677c.293.293.293.768,0,1.062l-2.388,2.388c-.293.293-.768.293-1.062,0l-3.676-3.677c-.294-.293-.294-.768,0-1.062l2.388-2.388c.293-.293.768-.293,1.061,0" fill="#deddff"/>
        <path d="M33.979,40.331l-.211.211c-.294.295-.768.295-1.062,0l-3.675-3.675c-.295-.295-.295-.768,0-1.063l2.387-2.387c.295-.294.768-.294,1.063,0l.211.211-2.176,2.176c-.295.295-.295.768,0,1.063l3.464,3.464Z" fill="#c6c6f7"/>
        <path d="M46.214,39.436l-2.392,2.392c-.294.293-.769.293-1.062,0l-3.673-3.673c-.294-.294-.294-.769,0-1.062l2.392-2.392c.293-.293.768-.293,1.062,0l3.673,3.673c.294.294.29.772,0,1.062" fill="#deddff"/>
        <path d="M44.032,41.616l-.211.211c-.295.295-.768.295-1.063,0l-3.671-3.671c-.295-.294-.295-.768,0-1.062l2.39-2.391c.295-.295.768-.295,1.063,0l.211.211-2.18,2.18c-.291.291-.291.771,0,1.062l3.46,3.46Z" fill="#c6c6f7"/>
        <path d="M38.152,39.09l3.673,3.673c.294.294.294.769,0,1.062l-2.388,2.388c-.293.293-.768.293-1.061,0l-3.673-3.673c-.294-.293-.294-.768,0-1.062l2.388-2.388c.293-.293.768-.293,1.061,0" fill="#deddff"/>
        <path d="M39.648,46l-.211.211c-.294.294-.768.294-1.063,0l-3.671-3.671c-.295-.295-.295-.768,0-1.063l2.387-2.387c.294-.294.767-.294,1.062,0l.211.211-2.175,2.176c-.295.295-.291.772,0,1.063l3.46,3.46Z" fill="#c6c6f7"/>
        <rect x="16.877" y="15.765" width="2.431" height="4.6" transform="translate(-7.475 18.084) rotate(-45)" fill="#312e4b"/>
        <path d="M20.131,13.27l-6.86,6.86c-.836.836-2.193.836-3.03,0L.628,10.517c-.836-.836-.836-2.193,0-3.03L7.489.628c.837-.836,2.193-.836,3.03,0l9.612,9.612c.836.836.836,2.193,0,3.03" fill="#e83d62"/>
        <path d="M12.859,20.445c-.827.503-1.905.395-2.615-.315L.626,10.514c-.836-.836-.836-2.184.004-3.024L7.493.627c.71-.71,1.789-.818,2.62-.319-.153.081-.292.193-.418.319L2.837,7.485c-.836.836-.84,2.198,0,3.038l9.608,9.608c.126.126.261.234.413.315Z" fill="#ce2955"/>
        <path d="M13.302,6.524l-2.392,2.392c-.293.294-.768.294-1.061,0l-3.677-3.676c-.293-.294-.293-.768,0-1.062l2.392-2.392c.29-.29.768-.293,1.062,0l3.676,3.677c.294.293.294.768,0,1.061" fill="#deddff"/>
        <path d="M11.122,8.704l-.211.211c-.295.295-.768.295-1.063,0l-3.675-3.675c-.295-.295-.295-.768,0-1.063l2.391-2.39c.291-.291.768-.295,1.061,0l.212.211-2.179,2.179c-.291.291-.295.768,0,1.063l3.464,3.464Z" fill="#c6c6f7"/>
        <path d="M5.237,6.174l3.676,3.677c.294.293.294.768,0,1.062l-2.388,2.388c-.293.294-.768.294-1.062,0l-3.676-3.676c-.294-.294-.294-.769,0-1.062l2.388-2.388c.293-.293.768-.293,1.062,0" fill="#deddff"/>
        <path d="M6.737,13.089l-.211.211c-.295.295-.768.295-1.063,0l-3.675-3.675c-.295-.295-.295-.768,0-1.063l2.386-2.387c.295-.294.768-.294,1.063,0l.211.211-2.175,2.176c-.295.295-.295.768,0,1.063l3.464,3.464Z" fill="#c6c6f7"/>
        <path d="M18.972,12.194l-2.392,2.392c-.294.294-.769.294-1.062,0l-3.673-3.673c-.293-.294-.293-.769,0-1.062l2.392-2.392c.293-.294.768-.294,1.062,0l3.673,3.673c.294.294.29.772,0,1.062" fill="#deddff"/>
        <path d="M16.791,14.373l-.211.211c-.295.295-.768.295-1.063,0l-3.671-3.671c-.295-.295-.295-.768,0-1.063l2.39-2.391c.295-.294.768-.294,1.063,0l.211.211-2.179,2.18c-.291.291-.291.771,0,1.062l3.46,3.46Z" fill="#c6c6f7"/>
        <path d="M10.911,11.848l3.673,3.673c.293.294.293.769,0,1.062l-2.388,2.388c-.293.293-.768.293-1.061,0l-3.673-3.673c-.294-.294-.294-.769,0-1.062l2.388-2.388c.293-.293.768-.293,1.062,0" fill="#deddff"/>
        <path d="M12.406,18.758l-.211.211c-.295.295-.768.294-1.063,0l-3.671-3.671c-.295-.295-.294-.768,0-1.063l2.387-2.386c.294-.295.768-.295,1.062,0l.212.211-2.176,2.175c-.295.295-.291.772,0,1.063l3.46,3.46Z" fill="#c6c6f7"/>
        <rect x="31.302" y="14.042" width="2.963" height="2.348" transform="translate(-1.157 27.638) rotate(-45)" fill="#24272b"/>
        <path d="M26.416,13.768l.766-.766c.497-.496,1.307-.499,1.806,0l6.01,6.01c.5.499.497,1.309,0,1.806l-.766.766-7.816-7.816Z" fill="#e83d62"/>
        <path d="M26.417,13.769l.764-.764c.036-.037.072-.066.105-.099l7.808,7.808c-.032.032-.062.069-.098.105l-.765.765-7.815-7.816Z" fill="#ce2955"/>
        <path d="M17.703,15.961h12.595c1.593,0,2.886,1.293,2.886,2.886v10.306c0,1.593-1.293,2.886-2.886,2.886h-12.595c-1.593,0-2.887-1.294-2.887-2.887v-10.305c0-1.593,1.293-2.886,2.886-2.886Z" transform="translate(-9.941 24) rotate(-45)" fill="#e83d62"/>
        <path d="M28.415,15.422c-1.13-1.1-2.95-1.09-4.06.02l-8.91,8.91c-1.12,1.12-1.12,2.95,0,4.08l-1.58-1.58c-1.13-1.13-1.13-2.96,0-4.08l8.9-8.91c1.13-1.12,2.96-1.12,4.09,0l1.56,1.56Z" fill="#ce2955"/>
        <path d="M43.97,15.228c-3.114,2.737-7.86,2.611-10.835-.364-2.975-2.975-3.101-7.72-.368-10.839.193-.22.535-.22.742-.013l10.475,10.475c.211.211.211.553-.013.741Z" fill="#e83d62"/>
        <path d="M32.772,4.022c.191-.216.527-.216.737-.006l10.474,10.474c.21.21.21.547-.006.737-.222.191-.451.375-.686.534l-9.107-9.101c-.203-.209-.547-.209-.737.013-1.455,1.659-2.097,3.774-1.932,5.847-1.252-2.765-.833-6.107,1.258-8.497" fill="#ce2955"/>
        <rect x="38.395" y="7.81" width="2.403" height="1.183" transform="translate(5.656 30.46) rotate(-45)" fill="#24272b"/>
        <path d="M42.053,8.202c-.622.622-1.634.626-2.26,0-.622-.622-.618-1.633.004-2.256.622-.622,1.63-.622,2.252,0,.627.627.627,1.634.004,2.256" fill="#fcb73e"/>
        <path d="M41.66,8.487c-.602.315-1.357.225-1.865-.283-.625-.625-.62-1.636,0-2.256.508-.508,1.267-.602,1.869-.288-.139.076-.27.171-.386.288-.62.62-.625,1.631-.004,2.251.117.117.252.216.386.288Z" fill="#fd982e"/>
        <path d="M27.262,26.533c-1.6,1.6-4.195,1.6-5.795,0-1.6-1.601-1.6-4.194,0-5.795,1.6-1.6,4.195-1.6,5.795,0,1.6,1.6,1.6,4.194,0,5.795" fill="#312e4b"/>
        <path d="M26.352,25.622c-1.098,1.098-2.876,1.098-3.974,0-1.098-1.098-1.098-2.876,0-3.974s2.876-1.098,3.974,0c1.098,1.098,1.098,2.876,0,3.974" fill="#43a1ff"/>
        <path d="M25.275,26.292c-.984.337-2.117.112-2.899-.67-1.097-1.097-1.097-2.876,0-3.973.791-.791,1.923-1.007,2.908-.67-.4.13-.768.355-1.083.67-1.097,1.097-1.096,2.876,0,3.973.315.315.683.539,1.074.67Z" fill="#3e7fff"/>
      </g>
    </g>
  </g>
</svg>