<?xml version="1.0" encoding="UTF-8"?>
<svg id="Layer_2" data-name="Layer 2" xmlns="http://www.w3.org/2000/svg" viewBox="0 0 48 48">
  <g id="War_and_Army" data-name="War and Army">
    <g id="_67" data-name="67">
      <g>
        <g>
          <path d="M48,24v.05c-.03,13.21-10.79,23.95-24,23.95S0,37.23,0,24,10.76,0,24,0c6.72,0,12.81,2.78,17.17,7.26,4.23,4.32,6.83,10.23,6.83,16.74Z" fill="#34ba5d"/>
          <path d="M23.997,41.143c-9.452,0-17.143-7.69-17.143-17.143S14.545,6.857,23.997,6.857s17.143,7.69,17.143,17.143-7.69,17.143-17.143,17.143Z" fill="#46cc6b"/>
          <path d="M23.997,34.286c-5.672,0-10.286-4.614-10.286-10.286s4.614-10.286,10.286-10.286,10.286,4.614,10.286,10.286-4.614,10.286-10.286,10.286Z" fill="#34ba5d"/>
          <path d="M23.997,41.703c-9.762,0-17.704-7.942-17.704-17.704S14.236,6.296,23.997,6.296s17.704,7.942,17.704,17.704-7.942,17.704-17.704,17.704ZM23.997,7.418c-9.143,0-16.582,7.439-16.582,16.582s7.439,16.582,16.582,16.582,16.582-7.439,16.582-16.582S33.14,7.418,23.997,7.418Z" fill="#179c5f"/>
          <path d="M23.997,34.847c-5.981,0-10.846-4.866-10.846-10.847s4.864-10.846,10.846-10.846,10.847,4.864,10.847,10.846-4.866,10.847-10.847,10.847ZM23.997,14.276c-5.361,0-9.724,4.363-9.724,9.724s4.363,9.726,9.724,9.726,9.726-4.363,9.726-9.726-4.363-9.724-9.726-9.724Z" fill="#179c5f"/>
          <path d="M9.108,33.727c-1.063,0-1.925-.862-1.925-1.92s.862-1.925,1.925-1.925,1.92.862,1.92,1.925-.862,1.92-1.92,1.92Z" fill="#fcb73e"/>
          <path d="M9.109,33.729c-1.06,0-1.93-.86-1.93-1.92,0-.78.47-1.45,1.13-1.75-.11.24-.17.51-.17.79,0,1.06.86,1.92,1.93,1.92.28,0,.55-.06.79-.17-.3.67-.97,1.13-1.75,1.13Z" fill="#fd982e"/>
          <path d="M33.09,31.152c-1.063,0-1.925-.862-1.925-1.92s.862-1.925,1.925-1.925,1.92.862,1.92,1.925-.862,1.92-1.92,1.92Z" fill="#65b9ff"/>
          <path d="M33.088,31.149c-1.06,0-1.92-.86-1.92-1.92,0-.74.42-1.39,1.04-1.71-.15.27-.23.58-.23.91,0,1.05.86,1.92,1.92,1.92.32,0,.62-.08.89-.23-.32.61-.96,1.03-1.7,1.03Z" fill="#3e7fff"/>
          <path d="M41.167,7.26l-16.8,16.79c-.1.1-.24.15-.37.15s-.27-.05-.37-.15c-.2-.2-.2-.53,0-.74L40.417,6.52c.26.24.51.48.75.74Z" fill="#179c5f"/>
        </g>
        <path d="M36.72,11.71l-.79.79c2.88,2.98,4.65,7.04,4.65,11.5v.05h1.12v-.05c0-4.77-1.89-9.1-4.98-12.29Z" fill="#179c5f"/>
        <path d="M31.87,16.55l-.79.8c1.64,1.74,2.64,4.08,2.64,6.65v.05h1.12v-.05c0-2.88-1.13-5.5-2.97-7.45Z" fill="#179c5f"/>
        <g>
          <path d="M39.403,18.621c-1.063,0-1.925-.862-1.925-1.92s.862-1.925,1.925-1.925,1.92.862,1.92,1.925-.862,1.92-1.92,1.92Z" fill="#fcb73e"/>
          <path d="M39.401,18.617c-1.06,0-1.92-.86-1.92-1.92,0-.74.42-1.39,1.04-1.71-.15.27-.23.58-.23.91,0,1.05.86,1.92,1.92,1.92.32,0,.62-.08.89-.23-.32.61-.96,1.03-1.7,1.03Z" fill="#fd982e"/>
        </g>
        <g>
          <path d="M14.852,11.262c-1.063,0-1.925-.862-1.925-1.92s.862-1.925,1.925-1.925,1.92.862,1.92,1.925-.862,1.92-1.92,1.92Z" fill="#e83d62"/>
          <path d="M14.85,11.259c-1.06,0-1.92-.86-1.92-1.92,0-.74.42-1.39,1.04-1.71-.15.27-.23.58-.23.91,0,1.05.86,1.92,1.92,1.92.32,0,.62-.08.89-.23-.32.61-.96,1.03-1.7,1.03Z" fill="#ce2955"/>
        </g>
        <path d="M42.14,39.68c-4.39,5.09-10.9,8.32-18.14,8.32C10.76,48,0,37.23,0,24c0-7.23,3.22-13.73,8.3-18.13-3.66,4.21-5.87,9.7-5.87,15.7,0,13.23,10.76,24,24,24,6.01,0,11.5-2.22,15.71-5.89Z" fill="#179c5f"/>
      </g>
      <path d="M48,24v.05c0,.17,0,.35-.01.52h-23.42v23.42c-.19.01-.39.01-.57.01-.19,0-.39,0-.58-.01v-23.42H.01c-.01-.19-.01-.39-.01-.57,0-.19,0-.39.01-.58h23.41V.01c.19-.01.39-.01.58-.01.18,0,.38,0,.57.01v23.41h23.42c.01.19.01.38.01.58Z" fill="#179c5f"/>
      <g opacity=".3">
        <path d="M47.99,23.42h-22.99l6.08-6.07.79-.8,4.06-4.05,5.24-5.24c4.1,4.19,6.67,9.88,6.82,16.16Z" fill="#deddff"/>
      </g>
      <path d="M23.867,26.499c-1.378,0-2.5-1.121-2.5-2.5s1.121-2.5,2.5-2.5,2.5,1.121,2.5,2.5-1.121,2.5-2.5,2.5Z" fill="#e4e3ff"/>
      <path d="M25.007,21.77c.17.34.27.73.27,1.14,0,1.37-1.13,2.5-2.5,2.5-.41,0-.79-.1-1.13-.27.41.81,1.25,1.36,2.22,1.36,1.38,0,2.5-1.12,2.5-2.5,0-.97-.55-1.81-1.36-2.23Z" fill="#c2c2ef"/>
    </g>
  </g>
</svg>