<?xml version='1.0' encoding='utf-8'?>
<svg xmlns="http://www.w3.org/2000/svg" id="Layer_2" data-name="Layer 2" viewBox="0 0 108.992 179.82">
  <g id="Grey" fill="#282828">
    <polygon points="105.931 52.046 63.901 90.924 105.873 128.073 108.992 130.834 105.902 133.619 60.86 174.218 54.645 179.82 54.645 171.452 54.645 99.486 54.645 90.987 54.645 82.731 54.645 8.411 54.645 0 60.875 5.66 105.917 46.572 108.91 49.291 105.931 52.046" fill="#282828" />
    <path d="M97.822,49.341L62.137,16.928v65.422l35.685-33.009h0ZM62.137,99.368v63.612l35.608-32.096-35.608-31.517Z" fill-rule="evenodd" fill="#282828" />
    <rect x="26.777" y="23.708" width="7.452" height="78.823" transform="translate(-35.698 40.056) rotate(-45)" fill="#282828" />
    <rect x="-8.909" y="115.129" width="78.823" height="7.452" transform="translate(-75.109 56.381) rotate(-45)" fill="#282828" />
  </g>
  <g id="Color" fill="#00ABF6">
    <path d="M92.277,49.366l-26.394-23.975v48.39l26.394-24.415h0ZM65.883,107.687v46.874l26.238-23.65-26.238-23.224Z" fill-rule="evenodd" fill="#00ABF6" />
  </g>
</svg>