<?xml version='1.0' encoding='utf-8'?>
<svg xmlns="http://www.w3.org/2000/svg" id="Layer_2" data-name="Layer 2" viewBox="0 0 179.82 119.88">
  <g id="Color">
    <rect x="18.73" y="11.239" width="142.359" height="78.671" fill="#64b5f6" />
  </g>
  <g id="Grey">
    <path d="M1.17,104.895h70.008v3.746h37.462v-3.746h70.008c.644,0,1.171.526,1.171,1.17v12.643c0,.644-.526,1.171-1.171,1.171H1.17c-.643,0-1.17-.526-1.17-1.171v-12.643c0-.644.527-1.17,1.17-1.17Z" fill="#282828" fill-rule="evenodd" />
    <path d="M14.129,0h151.561c1.819,0,3.475.745,4.676,1.946,1.21,1.21,1.962,2.87,1.962,4.689v87.877c0,1.819-.752,3.48-1.962,4.689-1.202,1.201-2.857,1.946-4.676,1.946H14.129c-1.819,0-3.475-.745-4.676-1.946-1.21-1.209-1.962-2.87-1.962-4.689V6.636c0-1.819.751-3.479,1.962-4.689,1.202-1.201,2.857-1.946,4.676-1.946h0ZM164.835,7.493H14.984v86.163h149.851V7.493Z" fill="#282828" />
  </g>
</svg>