<?xml version="1.0" encoding="UTF-8"?>
<svg id="Layer_2" data-name="Layer 2" xmlns="http://www.w3.org/2000/svg" viewBox="0 0 178.166 120.25">
  <g id="Color">
    <path d="M89.076,82.787c5.172,0,9.855,2.097,13.245,5.487,3.39,3.39,5.486,8.073,5.486,13.245s-2.097,9.855-5.486,13.245c-3.39,3.39-8.073,5.487-13.245,5.487s-9.854-2.097-13.245-5.487c-3.39-3.39-5.486-8.073-5.486-13.245s2.097-9.855,5.486-13.245c3.39-3.39,8.073-5.487,13.245-5.487Z" fill="#64b5f6"/>
  </g>
  <g id="Grey">
    <path d="M0,42.661c10.792-13.471,24.364-24.134,39.562-31.432C54.767,3.928,71.572,0,88.824,0c17.409,0,34.349,3.992,49.641,11.405,15.278,7.406,28.904,18.236,39.701,31.919l-5.853,4.624c-10.078-12.771-22.81-22.887-37.097-29.812-14.271-6.918-30.102-10.644-46.392-10.644-16.162,0-31.868,3.661-46.042,10.468-14.181,6.81-26.858,16.776-36.957,29.383l-5.824-4.683Z" fill="#424242"/>
    <path d="M22.793,59.372c7.788-10.402,17.802-18.667,29.121-24.333,11.336-5.674,23.955-8.742,36.932-8.742,13.129,0,25.876,3.132,37.291,8.916,11.411,5.782,21.479,14.212,29.25,24.809l-6.029,4.419c-7.068-9.637-16.219-17.302-26.587-22.555-10.365-5.252-21.961-8.097-33.925-8.097-11.845,0-23.322,2.781-33.595,7.923-10.29,5.15-19.399,12.67-26.487,22.138l-5.971-4.478Z" fill="#424242"/>
    <path d="M46.561,77.028c4.973-6.682,11.384-11.996,18.64-15.641,7.263-3.649,15.347-5.623,23.656-5.623,8.451,0,16.663,2.041,24.015,5.804,7.337,3.755,13.793,9.228,18.747,16.099l-6.059,4.36c-4.253-5.899-9.792-10.596-16.083-13.816-6.277-3.213-13.328-4.956-20.62-4.956-7.173,0-14.116,1.687-20.32,4.803-6.211,3.12-11.706,7.678-15.976,13.417l-6-4.449Z" fill="#424242"/>
  </g>
</svg>