<?xml version='1.0' encoding='utf-8'?>
<svg xmlns="http://www.w3.org/2000/svg" id="Layer_2" data-name="Layer 2" viewBox="0 0 159.874 179.82">
  <g id="Color" fill="#00ABF6">
    <path d="M47.366,101.305l-3.479,3.479c-.684.684-.684,1.802,0,2.485l28.664,28.664c.684.683,1.802.683,2.484,0l3.48-3.479c.684-.684.684-1.802,0-2.485l-28.664-28.664c-.684-.683-1.802-.683-2.485,0Z" fill-rule="evenodd" />
    <rect x="8.735" y="129.769" width="59.208" height="23.425" transform="translate(-88.814 68.55) rotate(-45)" />
    <path d="M1.23,150.098h0c-1.641,1.641-1.641,4.324,0,5.964l22.528,22.528c1.64,1.64,4.323,1.64,5.964,0h0c1.641-1.64,1.641-4.324,0-5.964l-22.528-22.528c-1.64-1.64-4.323-1.64-5.964,0Z" fill-rule="evenodd" />
  </g>
  <g id="Grey" fill="#D3D3D3">
    <path d="M55.679,103.158l7.097-8.392,2.299,2.002c.777.68,1.958.601,2.639-.176.68-.777.601-1.959-.176-2.639l-2.347-2.043,7.022-8.303,2.247,1.958c.777.68,1.959.601,2.639-.176.681-.777.602-1.958-.176-2.639l-2.295-1.999,7.022-8.303,2.196,1.913c.777.68,1.959.601,2.639-.176.68-.777.602-1.958-.176-2.639l-2.244-1.954,7.022-8.303,2.146,1.869c.777.68,1.958.601,2.639-.176.68-.777.601-1.958-.176-2.639l-2.193-1.91,7.02-8.303,2.095,1.824c.777.68,1.959.601,2.639-.176.681-.777.602-1.958-.176-2.639l-2.142-1.865,7.021-8.304,2.043,1.78c.777.68,1.959.601,2.639-.176.68-.777.601-1.959-.176-2.639l-2.091-1.821,6.22-7.356c8.924-8.923,25.292-7.927,40.688-28.759,7.746,61.97-62.47,77.413-84.488,122.272l-19.113-19.114Z" fill-rule="evenodd" fill="#D3D3D3" />
  </g>
</svg>