<?xml version='1.0' encoding='utf-8'?>
<svg xmlns="http://www.w3.org/2000/svg" id="Layer_2" data-name="Layer 2" viewBox="0 0 158.799 179.82">
  <g id="Color" fill="#00ABF6">
    <rect x="91.482" y="50.663" width="32.616" height="17.038" transform="translate(-10.278 93.55) rotate(-44.999)" />
    <rect x="111.64" y="25.729" width="52.452" height="6.756" transform="translate(19.798 106.011) rotate(-45)" />
    <polygon points="140.468 0 151.643 11.175 140.468 22.351 140.468 0" fill-rule="evenodd" />
  </g>
  <g id="Grey" fill="#D3D3D3">
    <path d="M51.484,103.475l12.16,11.9c2.892,4.112.06,3.931,5.266,9.475l-2.407,1.426c-6.829,4.044-32.899,33.143-41.22,43.633-2.647,3.338-5.316,6.629-8.03,9.912-1.443-3.002-4.205-6.464-5.275-9.662-1.307-3.908-5.82-16.56-9.14-18.442l-2.838-1.609,2.45-2.154c10.164-8.932,34.189-29.264,42.002-35.882,1.344-1.139,4.763-7.225,7.032-8.596h0ZM42.453,139.155c2.907-3.094,5.854-6.154,8.858-9.142,1.89-1.879,4.279-4.279,6.672-6.321-.066-.105-.131-.207-.195-.308-1.291-2.021-2.582-4.044-3.91-6.041-.515-.774-1.285-1.966-2.117-3.17-1.063,1.495-2.23,3.094-3.456,4.146-4.784,4.103-9.581,8.204-14.375,12.312l8.522,8.523Z" />
    <rect x="49.305" y="82.807" width="52.682" height="17.038" transform="translate(-42.421 80.238) rotate(-45)" />
    <rect x="60.158" y="78.76" width="11.803" height="9.469" transform="translate(-39.691 71.163) rotate(-44.998)" />
    <rect x="39.927" y="70.879" width="39.305" height="11.37" transform="translate(-36.689 64.554) rotate(-45)" />
    <rect x="38.246" y="89.153" width="10.588" height="6.901" transform="translate(-52.729 57.914) rotate(-45.002)" />
    <polygon points="77.047 67.141 84.757 63.077 73.066 51.387 69.003 59.097 77.047 67.141" fill-rule="evenodd" />
    <path d="M64.227,123.003c-.763-.129-1.485.386-1.614,1.148-.128.763.386,1.485,1.149,1.614,5.731.953,10.667.989,14.96-.635,4.355-1.647,7.958-4.95,10.93-10.647l-1.241-.652,1.245.649c.154-.295.193-.62.133-.923-.276-2.5-2.058-5.062-4.469-7.18-2.6-2.283-5.991-4.111-8.97-4.77-.754-.167-1.502.309-1.669,1.062-.167.755.309,1.502,1.063,1.669,2.53.561,5.45,2.149,7.721,4.143,1.824,1.602,3.19,3.42,3.499,5.083-2.584,4.8-5.627,7.577-9.235,8.943-3.767,1.425-8.24,1.37-13.501.495Z" />
    <path d="M68.061,110.942c-.551-.542-1.436-.535-1.979.016-.542.551-.535,1.436.015,1.979.024.022,8.21,8.219,14.023,2.405.549-.549.549-1.438,0-1.986-.548-.549-1.438-.549-1.986,0-3.825,3.824-10.055-2.395-10.072-2.414Z" />
    <path d="M82.92,96.1l13.469-13.468,18.081,18.081-13.469,13.468-18.081-18.081h0ZM104.093,105.791c.549.549,1.438.549,1.987,0,.549-.548.549-1.437,0-1.986l-12.784-12.783c-.548-.549-1.437-.549-1.986,0-.549.548-.549,1.437,0,1.986l12.783,12.783Z" fill-rule="evenodd" />
  </g>
</svg>