<?xml version='1.0' encoding='utf-8'?>
<svg xmlns="http://www.w3.org/2000/svg" id="Layer_2" data-name="Layer 2" viewBox="0 0 179.82 75.542">
  <g id="Color" fill="#00ABF6">
    <path d="M121.184,2.81c0-1.552-1.258-2.81-2.809-2.81s-2.81,1.258-2.81,2.81v38.51c0,1.552,1.258,2.81,2.81,2.81s2.809-1.258,2.809-2.81V2.81Z" />
    <path d="M108.924,9.854c0-1.552-1.258-2.81-2.81-2.81s-2.809,1.258-2.809,2.81v32.636c0,1.552,1.258,2.81,2.809,2.81s2.81-1.258,2.81-2.81V9.854Z" />
    <circle cx="110.403" cy="56.898" r="5.603" />
    <path d="M127.18,56.898c0,3.095,2.509,5.603,5.603,5.603s5.602-2.508,5.602-5.603-2.508-5.603-5.602-5.603-5.603,2.509-5.603,5.603Z" fill-rule="evenodd" />
    <path d="M155.163,51.295c-3.094,0-5.603,2.509-5.603,5.603s2.509,5.603,5.603,5.603,5.603-2.508,5.603-5.603-2.509-5.603-5.603-5.603Z" fill-rule="evenodd" />
  </g>
  <g id="Grey" fill="#D3D3D3">
    <path d="M16.295,48.468c5.001.358,25.801.479,29.94.419,17.731-.26,35.194-8.435,77.689-10.269l-.015-.002,8.973-24.76h26.911v24.759c.611.023,1.216.044,1.834.069,24.256,0,24.256,35.875,0,36.436-71.557,2.914-93.152-10.207-115.711-10.207-4.051,0-24.748.075-29.621.423v-16.868h0ZM102.927,56.898c0,4.128,3.348,7.476,7.476,7.476s7.476-3.348,7.476-7.476-3.348-7.476-7.476-7.476-7.476,3.348-7.476,7.476h0ZM132.783,64.374c4.128,0,7.476-3.348,7.476-7.476s-3.348-7.476-7.476-7.476-7.476,3.348-7.476,7.476,3.348,7.476,7.476,7.476h0ZM155.163,64.374c4.128,0,7.476-3.348,7.476-7.476s-3.348-7.476-7.476-7.476-7.476,3.348-7.476,7.476,3.348,7.476,7.476,7.476Z" fill-rule="evenodd" />
    <path d="M45.585,64.909v-16.015s-8.115-1.961-10.355-9.703h-10.05v35.368h10.05c2.24-7.742,10.355-9.65,10.355-9.65Z" fill-rule="evenodd" />
    <path d="M16.295,59.756c1.577,0,2.854-1.278,2.854-2.854s-1.278-2.855-2.854-2.855H5.854c-1.576,0-2.854,1.278-2.854,2.855s1.278,2.854,2.854,2.854h10.441Z" />
    <path d="M5.597,44.504c-.388-1.521-1.935-2.439-3.456-2.051-1.521.388-2.439,1.935-2.052,3.456l3.012,11.695c.388,1.521,1.936,2.439,3.457,2.052s2.439-1.936,2.052-3.457l-3.012-11.695Z" />
    <path d="M.089,67.895c-.388,1.521.53,3.069,2.052,3.457,1.521.388,3.069-.531,3.456-2.052l3.012-11.695c.388-1.522-.531-3.069-2.052-3.457-1.521-.388-3.069.531-3.457,2.052L.089,67.895Z" />
  </g>
</svg>