<?xml version="1.0" encoding="UTF-8"?>
<svg id="Layer_2" data-name="Layer 2" xmlns="http://www.w3.org/2000/svg" viewBox="0 0 48 44.104">
  <g id="Color3">
    <path d="M38.401,32.84H.001v-1.3C.001,27.571,3.113,24.521,6.991,24.33c3.37-.16,6.39-.7,9.03-1.65,1.14-.412,1.175-.489,1.73-.64,2.28-.58,3.89-2.64,3.89-5.01V1.17c0-.64.52-1.17,1.17-1.17h13.76c.64,0,1.16.53,1.16,1.17v21.26c.9,3.53,1.16,7,.67,10.41Z" fill="#ef9851"/>
    <path d="M47.757,40.481H9.356v-1.297c0-4.029,3.167-7.026,6.987-7.209,3.372-.163,6.393-.704,9.035-1.651h.001c1.095-.395,1.19-.499,1.733-.641,2.275-.584,3.887-2.639,3.887-5.013v-15.861c0-.643.522-1.165,1.165-1.165h13.76c.643,0,1.165.522,1.165,1.165v21.265c.895,3.522,1.158,6.994.669,10.407Z" fill="#ef9851"/>
  </g>
  <g id="Color2">
    <path d="M38.401,32.84H10.181c1.58-1.57,3.74-2.55,6.08-2.66,6.407-.319,9.084-1.892,10.39-2.24,1.51-.38,2.55-1.73,2.55-3.27v-15.86c0-1.64,1.33-2.97,2.96-2.97h5.57v16.59c.9,3.53,1.16,7,.67,10.41Z" fill="#ca7147"/>
    <rect x="21.643" y="2.441" width="16.089" height="2.135" fill="#ca7147"/>
    <path d="M38.401,32.84h-9.479c-.259-8.735,8.81-10.407,8.81-10.407.895,3.522,1.158,6.994.669,10.407Z" fill="#c7754f"/>
    <path d="M25.428,32.84H0v-1.297c0-4.029,3.167-7.026,6.987-7.209,3.372-.163,6.393-.704,9.035-1.651h.001c.84,2.737,2.739,5.018,5.263,6.369,1.639.877,3.359,2.133,4.142,3.788Z" fill="#c7754f"/>
    <circle cx="24.479" cy="8.135" r="1.229" fill="#c7754f"/>
    <circle cx="24.479" cy="11.823" r="1.229" fill="#c7754f"/>
    <circle cx="24.479" cy="15.511" r="1.229" fill="#c7754f"/>
    <circle cx="23.695" cy="19.199" r="1.229" fill="#c7754f"/>
    <rect x="30.999" y="10.081" width="16.089" height="2.135" fill="#ca7147"/>
    <path d="M47.757,40.481h-9.479c-.259-8.735,8.81-10.407,8.81-10.407.895,3.522,1.158,6.994.669,10.407Z" fill="#c7754f"/>
    <path d="M34.784,40.481H9.356v-1.297c0-4.029,3.167-7.026,6.987-7.209,3.372-.163,6.393-.704,9.035-1.651h.001c.055.101,1.033,4.105,5.263,6.369,1.639.877,3.359,2.133,4.142,3.788Z" fill="#c7754f"/>
    <circle cx="33.835" cy="15.775" r="1.229" fill="#c7754f"/>
    <circle cx="33.835" cy="19.463" r="1.229" fill="#c7754f"/>
    <circle cx="33.835" cy="23.151" r="1.229" fill="#c7754f"/>
    <circle cx="33.051" cy="26.839" r="1.229" fill="#c7754f"/>
  </g>
  <g id="Color">
    <path d="M38.401,32.84v3.009c0,.339-.275.615-.615.615h-12.164c-.339,0-.615-.275-.615-.615v-.863c0-.339-.275-.615-.615-.615h-3.947c-.339,0-.615.275-.615.615v.863c0,.339-.275.615-.615.615h-1.05c-.273,0-.513-.18-.59-.442h0c-.077-.262-.317-.442-.59-.442h-1.008c-.273,0-.513.18-.59.442h0c-.077.262-.317.442-.59.442h-1.002c-.273,0-.513-.18-.59-.442h0c-.077-.262-.317-.442-.59-.442h-1.01c-.273,0-.513.18-.59.442h0c-.077.262-.317.442-.59.442h-1.002c-.273,0-.513-.18-.59-.442h0c-.077-.262-.317-.442-.59-.442h-1.008c-.273,0-.513.18-.59.442h0c-.077.262-.317.442-.59.442h-1.002c-.273,0-.513-.18-.59-.442h0c-.077-.262-.317-.442-.59-.442h-1.01c-.273,0-.513.18-.59.442h0c-.077.262-.317.442-.59.442H.615c-.339,0-.615-.275-.615-.615v-3.009h38.401Z" fill="#312e4b"/>
    <path d="M25.04,8.135c0,.397-.319.731-.733.731h-3.469c-.405,0-.731-.326-.731-.731s.324-.731.731-.731h3.469c.405,0,.733.326.733.731Z" fill="#312e4b"/>
    <path d="M25.04,11.823c0,.397-.319.731-.733.731h-3.469c-.405,0-.731-.326-.731-.731s.324-.731.731-.731h3.469c.405,0,.733.326.733.731Z" fill="#312e4b"/>
    <path d="M25.04,15.511c0,.397-.319.731-.733.731h-3.469c-.405,0-.731-.326-.731-.731s.324-.731.731-.731h3.469c.405,0,.733.326.733.731Z" fill="#312e4b"/>
    <path d="M24.256,19.199c0,.397-.319.731-.733.731h-3.469c-.405,0-.731-.326-.731-.731s.324-.731.731-.731h3.469c.405,0,.733.326.733.731Z" fill="#312e4b"/>
    <path d="M47.757,40.481v3.009c0,.339-.275.615-.615.615h-12.164c-.339,0-.615-.275-.615-.615v-.863c0-.339-.275-.615-.615-.615h-3.947c-.339,0-.615.275-.615.615v.863c0,.339-.275.615-.615.615h-1.05c-.273,0-.513-.18-.59-.442h0c-.077-.262-.317-.442-.59-.442h-1.008c-.273,0-.513.18-.59.442h0c-.077.262-.317.442-.59.442h-1.002c-.273,0-.513-.18-.59-.442h0c-.077-.262-.317-.442-.59-.442h-1.01c-.273,0-.513.18-.59.442h0c-.077.262-.317.442-.59.442h-1.002c-.273,0-.513-.18-.59-.442h0c-.077-.262-.317-.442-.59-.442h-1.008c-.273,0-.513.18-.59.442h0c-.077.262-.317.442-.59.442h-1.002c-.273,0-.513-.18-.59-.442h0c-.077-.262-.317-.442-.59-.442h-1.01c-.273,0-.513.18-.59.442h0c-.077.262-.317.442-.59.442h-1.072c-.339,0-.615-.275-.615-.615v-3.009h38.401Z" fill="#312e4b"/>
  </g>
</svg>