<?xml version="1.0" encoding="UTF-8"?>
<svg id="Layer_2" data-name="Layer 2" xmlns="http://www.w3.org/2000/svg" viewBox="0 0 48 38.001">
  <g id="Color3">
    <rect x="25.182" y="21.044" width=".995" height="5.61" transform="translate(-9.343 25.143) rotate(-45)" fill="#5b5e8b"/>
    <rect x="27.415" y="23.583" width="1.606" height="5.61" transform="translate(-10.394 27.683) rotate(-45)" fill="#5b5e8b"/>
    <rect x="25.182" y="17.028" width=".995" height="5.61" transform="translate(-6.503 23.967) rotate(-45)" fill="#5b5e8b"/>
    <rect x="27.415" y="19.568" width="1.606" height="5.61" transform="translate(-7.555 26.506) rotate(-45)" fill="#5b5e8b"/>
    <rect x="15.646" y="3.628" width="11.004" height="3.209" transform="translate(.21 11.25) rotate(-29.93)" fill="#5b5e8b"/>
    <rect x="15.076" y="3.778" width="11.004" height=".925" transform="translate(.629 10.833) rotate(-29.93)" fill="#5b5e8b"/>
    <rect x="16.681" y="6.566" width="11.004" height=".925" transform="translate(-.548 12.005) rotate(-29.93)" fill="#5b5e8b"/>
    <rect x="18.85" y="9.193" width="11.004" height="3.209" transform="translate(-2.14 13.59) rotate(-29.93)" fill="#5b5e8b"/>
    <rect x="18.282" y="9.348" width="11.004" height=".925" transform="translate(-1.723 13.175) rotate(-29.93)" fill="#5b5e8b"/>
    <path d="M48,30.578v1.262c0,.321-.252.574-.574.574h-1.411c0-.034,0-.069-.011-.092l-.516-2.318h1.939c.321,0,.574.252.574.574Z" fill="#5b5e8b"/>
    <path d="M0,30.578v1.262c0,.321.252.574.574.574h1.411c0-.034,0-.069.011-.092l.516-2.318H.574C.252,30.004,0,30.256,0,30.578Z" fill="#5b5e8b"/>
    <path d="M0,31.346v.493c0,.321.252.574.574.574h1.411c0-.034,0-.069.011-.092l.516-2.318h-.528s-.425,1.916-.425,1.916h-.987C.252,31.92,0,31.668,0,31.346Z" fill="#5b5e8b"/>
    <rect x="3.209" y="28.49" width="10.475" height="3.924" fill="#5b5e8b"/>
    <path d="M46.015,32.413c.034.333-.195.654-.539.734-.046.011-.103.011-.149.011-.31,0-.597-.218-.665-.539l-.86-3.855h-8.272l-.849,3.855c-.08.31-.356.539-.677.539H13.994c-.321,0-.597-.229-.665-.539l-.86-3.855H4.195l-.86,3.855c-.08.367-.447.608-.815.528-.367-.092-.608-.459-.528-.826l.987-4.394c.069-.31.344-.539.665-.539h9.374c.321,0,.597.229.665.539l.86,3.855h18.908l.86-3.855c.069-.31.344-.539.665-.539h9.374c.321,0,.597.229.665.539l.47,2.077.516,2.318c.011.023.011.057.011.092Z" fill="#5b5e8b"/>
    <path d="M12.409,34.036c0,2.183-1.765,3.963-3.963,3.963-2.183,0-3.963-1.78-3.963-3.963,0-2.198,1.78-3.978,3.963-3.978,2.198,0,3.963,1.78,3.963,3.978Z" fill="#5b5e8b"/>
    <path d="M43.674,34.036c0,2.183-1.765,3.963-3.963,3.963-2.183,0-3.963-1.78-3.963-3.963,0-2.198,1.78-3.978,3.963-3.978,2.198,0,3.963,1.78,3.963,3.978Z" fill="#5b5e8b"/>
    <rect x="17.249" y="6.411" width="11.004" height="3.209" transform="translate(-.965 12.42) rotate(-29.93)" fill="#5b5e8b"/>
    <path d="M48,31.346v.493c0,.321-.252.574-.574.574h-1.411c0-.034,0-.069-.011-.092l-.516-2.318h.528l.425,1.916h.987c.321,0,.574-.252.574-.574Z" fill="#5b5e8b"/>
    <rect x="34.473" y="28.49" width="10.475" height="3.924" fill="#5b5e8b"/>
    <path d="M11.653,36.372c-.723.987-1.893,1.629-3.212,1.629-2.18,0-3.958-1.778-3.958-3.97,0-1.319.642-2.49,1.641-3.212-.482.654-.769,1.469-.769,2.352,0,2.18,1.778,3.958,3.958,3.958.883,0,1.687-.287,2.34-.757Z" fill="#5b5e8b"/>
    <path d="M42.918,36.372c-.723.987-1.893,1.629-3.212,1.629-2.18,0-3.958-1.778-3.958-3.97,0-1.319.642-2.49,1.641-3.212-.482.654-.769,1.469-.769,2.352,0,2.18,1.778,3.958,3.958,3.958.883,0,1.687-.287,2.34-.757Z" fill="#5b5e8b"/>
  </g>
  <g id="Color2">
    <path d="M24.975,26.781v1.25h-13.286v-1.25c0-.38.308-.688.688-.688h11.909c.38,0,.688.308.688.688Z" fill="#8abce6"/>
    <polygon points="24.136 12.519 24.136 26.092 12.536 26.092 12.536 17.533 24.136 12.519" fill="#8abce6"/>
    <rect x="5.888" y="6.598" width="19.347" height="11.106" rx=".812" ry=".812" transform="translate(-3.988 9.385) rotate(-29.93)" fill="#8abce6"/>
    <path d="M18.471,7.699l-10.386,5.979c-.338.195-.771.078-.965-.26-.199-.345-.082-.778.256-.972l10.386-5.979c.338-.195.778-.082.976.263.195.338.071.775-.267.969Z" fill="#8abce6"/>
    <path d="M20.027,10.401l-10.386,5.979c-.338.195-.771.078-.965-.26-.199-.345-.082-.778.256-.972l10.386-5.979c.338-.195.778-.082.976.263.195.338.071.775-.267.969Z" fill="#8abce6"/>
    <path d="M21.583,13.104l-10.386,5.979c-.338.195-.771.078-.965-.26-.199-.345-.082-.778.256-.972l10.386-5.979c.338-.195.778-.082.976.263.195.338.071.775-.267.969Z" fill="#8abce6"/>
    <polygon points="35.311 28.031 33.808 32.413 14.108 32.413 13.202 28.031 35.311 28.031" fill="#8abce6"/>
    <path d="M47.105,21.434v10.211h-17.164V13.334c0-.631.505-1.147,1.147-1.147h11.255c.459,0,.86.264,1.044.677l.723,1.629,2.891,6.482c.069.138.103.298.103.459Z" fill="#8abce6"/>
    <rect x="11.685" y="27.388" width="13.286" height=".642" fill="#8abce6"/>
    <path d="M24.136,15.077l-6.541,3.765c-2.683,1.545-1.72,5.772,1.376,5.814.024,0,.047,0,.071,0h5.094v1.434h-11.599v-8.559l11.599-5.014v2.558Z" fill="#8abce6"/>
    <rect x="21.914" y="2.66" width=".983" height="11.106" transform="translate(-1.11 12.275) rotate(-29.93)" fill="#8abce6"/>
    <rect x="20.933" y="3.338" width=".59" height="11.106" transform="translate(-1.605 11.778) rotate(-29.93)" fill="#8abce6"/>
    <polygon points="35.311 28.031 33.808 32.413 14.108 32.413 13.202 28.031 13.558 28.031 14.108 30.681 33.808 30.681 34.714 28.031 35.311 28.031" fill="#8abce6"/>
    <path d="M39.51,23.017c0,.218-.184.402-.413.402h-2.123c-.218,0-.402-.184-.402-.402,0-.229.184-.413.402-.413h2.123c.229,0,.413.184.413.413Z" fill="#8abce6"/>
  </g>
  <g id="Color">
    <path d="M26.717,3.878l-1.601-2.781C26.348.387,27.747.013,29.166.002l1.069.003-.538.919c-.722,1.223-1.748,2.244-2.98,2.953Z" fill="#e83d62"/>
    <path d="M29.77.8h-.143c-1.42.012-2.818.386-4.051,1.096l-.461-.801c1.232-.71,2.631-1.084,4.051-1.095l1.069.003-.465.797Z" fill="#e83d62"/>
    <path d="M28.319,6.661l-1.601-2.781c1.232-.71,2.631-1.084,4.051-1.095l1.069.003-.538.919c-.722,1.223-1.748,2.244-2.98,2.953Z" fill="#e83d62"/>
    <path d="M31.375,3.588h-.143c-1.42.012-2.818.386-4.051,1.096l-.461-.801c1.232-.71,2.631-1.084,4.051-1.095l1.069.003-.465.797Z" fill="#e83d62"/>
    <path d="M29.921,9.443l-1.601-2.781c1.232-.71,2.631-1.084,4.051-1.095l1.069.003-.538.919c-.722,1.223-1.748,2.244-2.98,2.953Z" fill="#e83d62"/>
    <path d="M32.976,6.37h-.143c-1.42.012-2.818.386-4.051,1.096l-.461-.801c1.232-.71,2.631-1.084,4.051-1.095l1.069.003-.465.797Z" fill="#e83d62"/>
    <path d="M10.267,34.032c0,1.003-.811,1.821-1.821,1.821-1.003,0-1.821-.818-1.821-1.821,0-1.01.818-1.828,1.821-1.828,1.01,0,1.821.818,1.821,1.828Z" fill="#e83d62"/>
    <path d="M10.024,34.937c-.31.551-.895.918-1.583.918-.998,0-1.813-.826-1.813-1.824,0-.677.367-1.262.906-1.572-.149.264-.241.574-.241.906,0,.998.826,1.813,1.824,1.813.333,0,.642-.092.906-.241Z" fill="#e83d62"/>
    <path d="M41.532,34.032c0,1.003-.811,1.821-1.821,1.821-1.003,0-1.821-.818-1.821-1.821,0-1.01.818-1.828,1.821-1.828,1.01,0,1.821.818,1.821,1.828Z" fill="#e83d62"/>
    <path d="M41.289,34.937c-.31.551-.895.918-1.583.918-.998,0-1.813-.826-1.813-1.824,0-.677.367-1.262.906-1.572-.149.264-.241.574-.241.906,0,.998.826,1.813,1.824,1.813.333,0,.642-.092.906-.241Z" fill="#e83d62"/>
    <path d="M47.105,21.434v.08h-9.729c-.444,0-.803-.36-.803-.803v-5.415c0-.444.36-.803.803-.803h6.735l2.891,6.482c.069.138.103.298.103.459Z" fill="#e83d62"/>
    <path d="M38.753,21.514h-1.377c-.447,0-.803-.356-.803-.803v-5.415c0-.447.356-.803.803-.803h1.377c-.436,0-.803.356-.803.803v5.415c0,.447.367.803.803.803Z" fill="#e83d62"/>
    <rect x="31.146" y="14.492" width="3.889" height="7.022" rx=".505" ry=".505" fill="#e83d62"/>
    <path d="M33.028,21.514h-1.377c-.275,0-.505-.229-.505-.505v-6.012c0-.275.229-.505.505-.505h1.377c-.275,0-.505.229-.505.505v6.012c0,.275.229.505.505.505Z" fill="#e83d62"/>
    <path d="M47.105,24.405v2.581h-1.583c-.317,0-.574-.257-.574-.574v-1.434c0-.317.257-.574.574-.574h1.583Z" fill="#e83d62"/>
  </g>
</svg>