<?xml version="1.0" encoding="UTF-8"?>
<svg id="Layer_2" data-name="Layer 2" xmlns="http://www.w3.org/2000/svg" viewBox="0 0 20.04 17.52">
  <g id="Layer_1-2" data-name="Layer 1">
    <path d="M12.525,2.503v1.376h-4.885v-1.376h4.885ZM7.014,0l-.376.125h-.376l-.376.25-.251.25-.25.25-.125.25-.125.375v2.378H1.503l-.376.125-.25.125-.251.25-.25.25-.25.375v.375l-.125.375v3.003h20.04v-3.379l-.125-.375-.125-.375-.25-.25-.376-.25-.25-.125-.376-.125h-3.507V1.502l-.125-.375-.125-.25-.25-.25-.25-.25-.376-.25h-.376l-.376-.125h-6.137ZM0,10.011v5.631l.125.375v.375l.25.375.25.25.251.25.25.125.376.125h17.034l.376-.125.25-.125.376-.25.25-.25.125-.375.125-.375v-6.007h-7.515v2.127l-.125.25-.251.125h-4.133l-.25-.125-.125-.25v-2.127H0Z" fill="#282828" fill-rule="evenodd"/>
  </g>
</svg>