<?xml version="1.0" encoding="UTF-8"?>
<svg id="Layer_2" data-name="Layer 2" xmlns="http://www.w3.org/2000/svg" viewBox="0 0 20.04 20.04">
  <g id="Layer_1-2" data-name="Layer 1">
    <path d="M10.271,8.768l.25.125.25.125.125.125.251.25v.125l.125.25v.501l-.125.25v.25l-.251.25-.125.125-.25.125h-1.002l-.25-.125-.125-.125-.25-.25v-.25l-.125-.25v-.501l.125-.25v-.125l.25-.25.125-.125.25-.125.25-.125h.501ZM14.279,4.885l-.25.125-5.762,2.63-.25.125-.125.125-.25.125v.25l-2.755,5.887v.376l.125.25.125.25.125.125h.752l5.887-2.63.125-.125.125-.125.251-.25v-.25l2.755-5.761.125-.25-.125-.25v-.25l-.125-.125-.251-.125-.25-.125h-.25ZM10.02,2.004h.877l.752.125.752.25.751.251.752.376.626.376.626.501.626.501.501.501.501.626.376.626.376.751.251.751.125.877.125.751v1.628l-.125.751-.125.877-.251.626-.376.751-.376.626-.501.626-.501.626-.626.501-.626.501-.626.376-.752.376-.751.25-.752.25h-.752l-.877.125-.877-.125h-.752l-.751-.25-.752-.25-.751-.376-.626-.376-.626-.501-.626-.501-.501-.626-.376-.626-.501-.626-.376-.751-.25-.626-.125-.877-.125-.751v-1.628l.125-.751.125-.877.25-.751.376-.751.501-.626.376-.626.501-.501.626-.501.626-.501.626-.376.751-.376.752-.251.751-.25.752-.125h.877ZM10.02,0l-1.002.125-1.002.125-1.002.25-.877.25-.877.501-.877.501-.751.501-.752.752-.626.626-.501.751-.626.877-.376.877-.251,1.002-.25.877-.25,1.002v2.004l.25,1.127.25.877.251,1.002.376.751.626.877.501.751.626.751.752.626.751.626.877.376.877.501.877.376,1.002.25,1.002.125h2.004l1.002-.125,1.002-.25.877-.376,1.002-.501.752-.376.752-.626.751-.626.626-.751.626-.751.501-.877.376-.751.25-1.002.25-.877.25-1.127v-2.004l-.25-1.002-.25-.877-.25-1.002-.376-.877-.501-.877-.626-.751-.626-.626-.751-.752-.752-.501-.752-.501-1.002-.501-.877-.25-1.002-.25-1.002-.125-1.002-.125h0Z" fill="#282828" fill-rule="evenodd"/>
  </g>
</svg>