<?xml version="1.0" encoding="UTF-8"?>
<svg id="Layer_2" data-name="Layer 2" xmlns="http://www.w3.org/2000/svg" viewBox="0 0 16.949 20.08">
  <g id="Layer_1-2" data-name="Layer 1">
    <path d="M16.807,9.692c.501-2.753-.25-6.758-3.38-8.635C11.424.056,9.171-.32,7.043.306,3.913,1.057,1.785,3.31,1.034,6.188c-.125.5-.25,1.126-.125,1.627,0,.5.125.751.25,1.126.125.501.125.876.125,1.377,0,.626-.375,1.252-.751,1.627-.376.626-.626,1.001-.501,1.627.125.125.501.375.876.5h.375v.25c0,.626,0,1.126.25,1.251v.125c0,.25,0,.501.25.626.125,0,.25.125.501.25v.5c-.125.501-.125,1.252,1.001,1.627.125,0,.375.125.626.125,1.001-.125,2.003-.375,2.879-.626.376.5.501,1.001.501,1.502,0,.125,0,.25.125.25,0,.125.125.125.25.125h8.262c.25,0,.376-.125.376-.25.125-.125,0-.25-.125-.25-.25-.375-1.502-3.129-1.502-4.13.125-.25.25-.5.376-.751.876-1.627,1.502-3.254,1.753-5.006h0ZM15.304,19.454h-7.386c0-.5-.125-1.126-.501-1.502,1.001-.375,1.878-.876,2.253-1.377.25-.25.125-.375,0-.501-.25-.125-.376,0-.501.125-1.001,1.251-4.882,2.128-5.758,1.877-.626-.25-.501-.5-.501-1.001v-.375c0-.5-.25-.751-.501-.876h-.25c.125-.125.25-.125.25-.25.125,0,.125-.125.125-.25,0-.25,0-.375-.25-.375h-.376v-.626c0-.25,0-.501-.25-.626-.25-.25-.376-.375-.751-.375-.25,0-.25-.125-.376-.125,0-.125.376-.626.626-.876.25-.5.751-1.251.751-2.002,0-.375,0-.751-.125-1.251.376-.25.751-.5,1.252-.751.25,0,.376,0,.501.125.25,0,.376-.125.376-.125,0-.25,0-.5-.125-.5-.375-.125-.501-.125-.876-.125-.376.125-1.001.375-1.252.626-.125,0-.125-.25-.125-.5,0-.501,0-1.001.25-1.502C2.411,3.685,4.414,1.683,7.168.932c2.003-.5,4.131-.25,6.009.751,2.754,1.752,3.505,5.256,3.004,8.01-.25,1.627-.876,3.254-1.627,4.631-.25.375-.376.626-.501,1.001-.125,0-.125.125-.125.125,0,.876.751,2.879,1.377,4.005h0ZM14.804,10.443c0-.5-.376-.876-.876-1.001l-.626-.876c0-.125,0-.25.125-.25l.626-.25c.125.25.751.375,1.001.25.501-.125.751-.626.626-1.001,0-.375-.25-.876-.751-.876l-.501-1.001c.376-.375.501-1.001.125-1.251-.376-.501-1.001-.501-1.377-.375l-.501-.375c0-.125.125-.25.125-.375,0-.375-.376-.751-.626-.876-.501-.25-.876-.125-1.252.25l-.876-.25c-.125-.501-.626-.751-1.001-.751s-.876.25-1.001.751l-1.377.25c-.25-.375-.876-.501-1.252-.125-.376.25-.501.751-.25,1.251l-.626.751c-.626.125-.876.626-.876,1.001,0,.501.25,1.001.751,1.001l.501,1.377c-.25.25-.376.626-.25,1.126.25.375.626.626,1.001.626s.876-.375,1.001-.751h1.753c.125.501.626.876,1.001.751l1.252,1.627c-.375.375-.375.751-.125,1.251.25.25.501.501.876.375.501,0,.876-.375.876-.751l.876-.751c.25.125.376.25.501.25.501,0,1.001-.375,1.127-1.001h0ZM14.804,7.064c.125,0,.25.125.25.25,0,.25-.125.375-.125.375-.25,0-.501,0-.501-.125l-.125-.125c0-.25.25-.375.501-.375h0ZM13.677,4.311c.25,0,.376.25.376.375,0,.25-.125.375-.376.375h-.125c-.125,0-.125-.25-.125-.375,0-.25.125-.375.25-.375h0ZM13.677,5.687h.125l.376.751c-.25.25-.501.626-.501,1.001l-.376.25c-.125-.125-.125-.25-.25-.375l.626-1.627h0ZM13.051,5.562l-.626,1.502-1.001-.876c0-.125.125-.375.25-.501l1.252-.25s.125,0,.125.125h0ZM12.676,8.191c0,.125-.125.25-.376.125-.125,0-.25,0-.25-.25s.125-.375.25-.375h.25c.125.125.25.25.125.501h0ZM10.798,6.564l.876.751c-.125.125-.25.375-.25.375l-1.127.375c-.125-.125-.125-.25-.25-.375l.751-1.126h0ZM10.297,5.437c0-.25.25-.375.501-.375,0,0,.25.125.25.375s-.25.25-.25.25c-.25,0-.501,0-.501-.25h0ZM11.674,2.684c.25,0,.376.25.376.375s-.125.375-.376.375-.25-.25-.25-.375,0-.375.25-.375h0ZM9.922,2.809l.876.25h0c0,.626.376,1.001.876,1.001.25,0,.376,0,.501-.125l.626.375v.501l-1.252.25c-.125-.375-.376-.626-.751-.751l-1.252-1.126c.25-.125.376-.125.376-.375h0ZM9.046,2.058c.125,0,.376.125.376.375,0,.125-.25.25-.376.25-.25,0-.376-.125-.376-.25,0-.25.125-.375.376-.375h0ZM7.043,3.059h0l1.001-.25c.125.25.25.25.501.375l-.626,1.126-1.127-.626c.125-.25.25-.5.25-.626h0ZM8.294,5.437c0,.25-.125.25-.25.25-.25,0-.376,0-.376-.25s.125-.375.376-.375c.125,0,.25.125.25.375h0ZM5.916,2.684c.25,0,.376.25.376.375s-.125.375-.376.375c-.125,0-.25-.25-.25-.375s.125-.375.25-.375h0ZM5.666,3.935c.25.125.375.125.626.125l1.001.626c0,.125-.125.25-.25.375h-1.502c0-.125-.25-.375-.25-.501l.376-.626h0ZM4.539,5.687s-.25,0-.25-.25.25-.375.25-.375c.25,0,.501.125.501.375s-.25.25-.501.25h0ZM5.666,8.691c-.25,0-.376-.125-.376-.375,0,0,.125-.25.376-.25s.25.25.25.25c0,.25,0,.375-.25.375h0ZM5.916,7.44h-.375l-.376-1.126c.125-.125.376-.375.376-.626h1.502c.125.25.25.375.25.501l-1.377,1.251h0ZM8.42,8.065h-1.753c0-.125-.125-.25-.25-.25l1.627-1.377.626,1.251c-.125,0-.25.25-.25.375h0ZM8.545,4.561l.501-.876,1.001.876c-.125.125-.25.375-.25.501h-.876c-.125-.125-.25-.375-.376-.501h0ZM8.92,5.687h.876c0,.25.25.501.376.626l-.751,1.126h-.125l-.626-1.251c.125-.125.25-.375.25-.501h0ZM9.421,8.691c-.25,0-.376-.125-.376-.375,0,0,.125-.25.376-.25.125,0,.25.25.25.25,0,.25-.125.375-.25.375h0ZM11.424,12.07c-.25,0-.376-.125-.376-.375,0-.125.125-.25.376-.25.125,0,.25.125.25.25,0,.25-.125.375-.25.375h0ZM12.801,10.318v.375l-.626.501c-.125-.25-.626-.501-1.001-.375l-1.127-1.752c.125,0,.25-.25.25-.375l1.127-.25c.25.626.751.751,1.377.626l.375.501c-.375.125-.375.5-.375.751h0ZM13.677,10.819c-.125,0-.25-.25-.25-.501,0,0,.125-.25.25-.25.25,0,.376.25.376.25,0,.25-.125.501-.376.501h0Z" fill="#282828" fill-rule="evenodd"/>
  </g>
</svg>