<?xml version="1.0" encoding="UTF-8"?>
<svg id="Layer_2" data-name="Layer 2" xmlns="http://www.w3.org/2000/svg" viewBox="0 0 16.56 20.04">
  <g id="Layer_1-2" data-name="Layer 1">
    <path d="M9.712,2.505v1.754c3.113.626,5.229,3.507,5.229,6.889,0,4.133-3.113,7.265-6.724,7.265-3.735,0-6.848-3.131-6.848-7.265,0-3.382,2.366-6.262,5.229-6.889v-1.754C2.864,3.382,0,6.889,0,11.147c0,5.01,3.735,8.893,8.218,8.893,4.607,0,8.342-3.883,8.342-8.893,0-4.259-2.988-7.765-6.848-8.642h0ZM8.093,9.895c.498,0,.872-.501.872-.877V.877c0-.376-.373-.877-.872-.877-.374,0-.747.501-.747.877v8.141c0,.376.374.877.747.877h0Z" fill="#282828" fill-rule="evenodd"/>
  </g>
</svg>