<?xml version='1.0' encoding='utf-8'?>
<svg xmlns="http://www.w3.org/2000/svg" id="Layer_2" data-name="Layer 2" viewBox="0 0 124.4 100.004">
  <g id="Color">
    <path d="M43.406,4.765H4.668C2.09,4.765,0,6.855,0,9.433h38.738c2.578,0,4.668-2.09,4.668-4.668Z" fill="#FF931D" />
    <path d="M85.662,9.433h38.738c0-2.578-2.09-4.668-4.668-4.668h-38.738c0,2.578,2.09,4.668,4.668,4.668Z" fill="#FF931D" />
    <path d="M74.834,84.893h-4.935v-22.797c0-1.417-1.149-2.566-2.566-2.566s-2.566,1.149-2.566,2.566v10.636c0,1.417-1.149,2.566-2.566,2.566h0c-1.417,0-2.566-1.149-2.566-2.566v-5.784c0-1.417-1.149-2.566-2.566-2.566s-2.566,1.149-2.566,2.566v17.945h-4.935c-1.209,0-1.809,1.467-.946,2.314l12.634,12.41c.525.516,1.367.516,1.892,0l12.634-12.41c.862-.847.263-2.314-.946-2.314Z" fill="#FF931D" />
    <rect x="80.583" y="64.499" width="5.133" height="18.563" rx="2.566" ry="2.566" fill="#FF931D" />
    <path d="M41.251,59.742c-1.417,0-2.566,1.149-2.566,2.566v13.43c0,1.417,1.149,2.566,2.566,2.566s2.566-1.149,2.566-2.566v-13.43c0-1.417-1.149-2.566-2.566-2.566Z" fill="#FF931D" />
    <path d="M57.067,58.337c1.417,0,2.566-1.149,2.566-2.566v-9.369c0-1.417-1.149-2.566-2.566-2.566s-2.566,1.149-2.566,2.566v9.369c0,1.417,1.149,2.566,2.566,2.566Z" fill="#FF931D" />
  </g>
  <g id="Grey">
    <path d="M77.007,12.112h0c0-6.689-5.423-12.112-12.112-12.112h-5.391c-6.689,0-12.112,5.423-12.112,12.112h0c9.866-1.193,19.749-1.193,29.615,0Z" fill="#D6E101" />
    <path d="M96.61,22.137c-22.938-6.814-45.876-6.814-68.822,0v-8.616h-12.171v17.918c0,3.36,2.624,6.238,5.976,6.297,3.411.059,6.196-2.692,6.196-6.094v-.474h9.074l-11.054,15.515c-.525.736-.88,1.591-1.016,2.488l-2.649,17.098c-.33,2.074,1.287,3.961,3.394,3.961.779,0,1.507-.254,2.082-.711.592-.44,1.033-1.075,1.236-1.82l4.257-15.633,12.798-13.89h32.587l12.789,13.89,4.257,15.633c.406,1.49,1.769,2.531,3.318,2.531,1.93,0,3.445-1.583,3.445-3.436,0-.178-.017-.356-.042-.525l-2.649-17.098c-.144-.897-.491-1.752-1.016-2.488l-11.062-15.515h9.073v.271c0,3.36,2.624,6.238,5.976,6.297,3.411.059,6.204-2.692,6.204-6.094V13.52h-12.18v8.616Z" fill="#D6E101" />
  </g>
</svg>