<?xml version="1.0" encoding="UTF-8"?>
<svg id="Layer_2" data-name="Layer 2" xmlns="http://www.w3.org/2000/svg" viewBox="0 0 123.792 99.005">
  <g id="Color">
    <path d="M77.459,81.009c1.242-.981,1.366-2.822.246-3.942-.939-.939-2.43-1.028-3.474-.207-.138.108-.277.215-.417.319-7.035,5.274-16.795,5.274-23.839,0-.14-.104-.279-.211-.417-.319-1.043-.822-2.535-.733-3.474.206-1.119,1.119-.996,2.961.246,3.942,9.092,7.175,22.036,7.175,31.128,0Z" fill="#2b78c2"/>
    <path d="M82.358,85.176c-.076.066-.152.131-.229.196-11.661,9.786-28.806,9.786-40.459,0-.081-.068-.162-.137-.243-.205-1.046-.894-2.599-.842-3.572.131-1.071,1.071-1.034,2.843.115,3.831,13.718,11.793,34.144,11.793,47.854-.001,1.147-.987,1.184-2.757.114-3.827-.975-.976-2.534-1.024-3.579-.123Z" fill="#2b78c2"/>
    <path d="M77.707,20.905c1.119-1.119.996-2.961-.246-3.942-9.092-7.175-22.036-7.175-31.128,0-1.242.98-1.366,2.822-.246,3.942h0c.939.939,2.43,1.028,3.474.206.137-.108.277-.215.417-.319,7.035-5.274,16.795-5.274,23.839,0,.14.104.279.211.417.319,1.043.822,2.535.733,3.474-.206h0Z" fill="#2b78c2"/>
    <path d="M41.434,12.797c.076-.066.152-.131.229-.196,11.661-9.786,28.806-9.786,40.459,0,.081.068.162.137.243.205,1.046.894,2.599.842,3.572-.131h0c1.071-1.071,1.034-2.843-.115-3.831-13.718-11.793-34.144-11.793-47.854.001-1.147.987-1.184,2.757-.114,3.827.975.975,2.534,1.024,3.579.123Z" fill="#2b78c2"/>
    <path d="M43.194,33.861H4.645c-2.566,0-4.645,2.08-4.645,4.645h38.549c2.565,0,4.645-2.08,4.645-4.645Z" fill="#2b78c2"/>
    <path d="M85.243,38.506h38.549c0-2.566-2.08-4.645-4.645-4.645h-38.549c0,2.565,2.08,4.645,4.645,4.645Z" fill="#2b78c2"/>
  </g>
  <g id="Grey">
    <path d="M64.578,29.119h-5.364c-6.657,0-12.053,5.396-12.053,12.053h0c9.818-1.187,19.652-1.187,29.47,0h0c0-6.657-5.396-12.053-12.053-12.053Z" fill="#3b4652"/>
    <path d="M96.138,51.143c-22.828-6.777-45.656-6.777-68.484,0v-8.573h-12.114v17.84c0,3.335,2.609,6.196,5.943,6.257,3.397.062,6.17-2.673,6.17-6.056v-.476h9.029l-11.004,15.434c-.525.737-.871,1.586-1.01,2.481l-2.638,17.008c-.322,2.074,1.283,3.946,3.381,3.946,1.543,0,2.896-1.033,3.302-2.523l4.237-15.553,12.734-13.825h32.421l12.735,13.825,4.237,15.553c.406,1.489,1.758,2.523,3.301,2.523,2.099,0,3.703-1.872,3.382-3.946l-2.638-17.008c-.139-.894-.485-1.744-1.01-2.481l-11.004-15.434h9.029v.275c0,3.335,2.609,6.196,5.943,6.257,3.397.062,6.17-2.673,6.17-6.056v-18.04h-12.114v8.573Z" fill="#3b4652"/>
  </g>
</svg>