<?xml version="1.0" encoding="UTF-8"?>
<svg id="Layer_2" data-name="Layer 2" xmlns="http://www.w3.org/2000/svg" viewBox="0 0 123.773 104.967">
  <g id="Color">
    <path d="M87.911,44.012c-11.384.239-20.261,10.236-19.866,21.616.588,16.94,12.512,32.23,17.806,38.213,1.328,1.501,3.662,1.503,4.99.002,5.428-6.133,17.831-22.057,17.831-39.511,0-11.37-9.337-20.56-20.761-20.32ZM88.347,75.589c-6.217,0-11.257-5.04-11.257-11.257s5.04-11.257,11.257-11.257,11.257,5.04,11.257,11.257-5.04,11.257-11.257,11.257Z" fill="#2b78c2"/>
    <path d="M43.187,4.741H4.644C2.079,4.741,0,6.821,0,9.386h38.543c2.565,0,4.645-2.079,4.645-4.645Z" fill="#2b78c2"/>
    <path d="M85.23,9.386h38.543c0-2.565-2.079-4.645-4.645-4.645h-38.543c0,2.565,2.079,4.645,4.644,4.645Z" fill="#2b78c2"/>
  </g>
  <g id="Grey">
    <path d="M76.619,12.051h0c0-6.656-5.396-12.051-12.051-12.051h-5.363c-6.656,0-12.051,5.395-12.051,12.051h0c9.817-1.187,19.649-1.187,29.466,0Z" fill="#3b4652"/>
    <path d="M77.246,38.858c3.278-1.464,6.838-2.277,10.506-2.351,1.122-.027,2.244.014,3.345.121l-4.003-5.616h9.028v.263c0,3.227,2.435,6.044,5.655,6.253,3.527.229,6.457-2.559,6.457-6.039V13.453h-12.111v8.571c-22.825-6.778-45.644-6.778-68.469,0v-8.571h-12.111v17.828c0,3.224,2.432,6.039,5.649,6.247,3.527.229,6.462-2.559,6.462-6.039v-.477h9.028l-7.438,15.841c-.22.468-.335.979-.337,1.496l-.081,17.957c-.009,1.971,1.586,3.573,3.557,3.573,1.746,0,3.234-1.268,3.512-2.992l2.427-15.084,7.362-11.809h29.314c.732-.41,1.485-.793,2.25-1.135Z" fill="#3b4652"/>
  </g>
</svg>