<?xml version="1.0" encoding="UTF-8"?>
<svg id="Layer_2" data-name="Layer 2" xmlns="http://www.w3.org/2000/svg" viewBox="0 0 124.824 93.551">
  <g id="Color">
    <path d="M43.554,4.782H4.684C2.097,4.782,0,6.879,0,9.466h38.87c2.587,0,4.684-2.097,4.684-4.684Z" fill="#2b78c2"/>
    <path d="M85.954,9.466h38.87c0-2.587-2.097-4.684-4.684-4.684h-38.87c0,2.587,2.097,4.684,4.684,4.684Z" fill="#2b78c2"/>
    <path d="M63.362,35.88c-.527-.518-1.372-.518-1.899,0l-12.677,12.453c-.865.85-.263,2.321.949,2.321h4.952v24.573c0,1.422,1.153,2.575,2.575,2.575s2.575-1.153,2.575-2.575v-10.672c0-1.422,1.153-2.575,2.575-2.575s2.575,1.153,2.575,2.575v5.804c0,1.422,1.153,2.575,2.575,2.575s2.575-1.153,2.575-2.575v-19.705h4.952c1.213,0,1.815-1.471.949-2.321l-12.677-12.453Z" fill="#2b78c2"/>
    <path d="M39.693,66.93c-1.422,0-2.575,1.153-2.575,2.575v13.476c0,1.422,1.153,2.575,2.575,2.575s2.575-1.153,2.575-2.575v-13.476c0-1.422-1.153-2.575-2.575-2.575Z" fill="#2b78c2"/>
    <path d="M85.132,61.512c-1.422,0-2.575,1.153-2.575,2.575v13.476c0,1.422,1.153,2.575,2.575,2.575s2.575-1.153,2.575-2.575v-13.476c0-1.422-1.153-2.575-2.575-2.575Z" fill="#2b78c2"/>
    <path d="M67.562,79c-1.422,0-2.575,1.153-2.575,2.575v9.401c0,1.422,1.153,2.575,2.575,2.575s2.575-1.153,2.575-2.575v-9.401c0-1.422-1.153-2.575-2.575-2.575Z" fill="#2b78c2"/>
  </g>
  <g id="Grey">
    <path d="M77.27,12.154c0-6.712-5.441-12.154-12.154-12.154h-5.409c-6.712,0-12.154,5.441-12.154,12.154h0c9.9-1.197,19.816-1.197,29.716,0Z" fill="#3b4652"/>
    <path d="M96.942,22.208c-23.019-6.835-46.038-6.835-69.057,0v-8.644h-12.214v17.986c0,3.367,2.629,6.253,5.995,6.314,3.421.061,6.219-2.696,6.219-6.111v-.481h9.105l-11.096,15.568c-.529.738-.881,1.599-1.016,2.5l-2.662,17.153c-.325,2.087,1.294,3.977,3.408,3.977.779,0,1.511-.257,2.093-.711.589-.447,1.037-1.077,1.24-1.829l4.268-15.683,12.844-13.942h5.677l6.158-6.049c2.486-2.446,6.537-2.439,9.023,0l6.158,6.049h5.677l12.837,13.942,4.275,15.683c.407,1.497,1.768,2.54,3.326,2.54,1.938,0,3.455-1.585,3.455-3.448,0-.176-.013-.352-.041-.528l-2.662-17.153c-.142-.901-.488-1.761-1.016-2.5l-11.096-15.568h9.105v.278c0,3.367,2.629,6.253,5.989,6.314,3.428.061,6.226-2.696,6.226-6.111V13.564h-12.214v8.644Z" fill="#3b4652"/>
  </g>
</svg>