<?xml version='1.0' encoding='utf-8'?>
<svg xmlns="http://www.w3.org/2000/svg" id="Layer_2" data-name="Layer 2" viewBox="0 0 124.963 101.804">
  <g id="Color" fill="#00ABF6">
    <path d="M12.491,39.081c0,3.479,2.626,6.517,6.097,6.742,3.804.246,6.967-2.767,6.967-6.518v-3.718h16.359l3.205,10.477h34.73l3.205-10.477h16.359v3.494c0,3.479,2.625,6.517,6.097,6.742,3.804.246,6.967-2.767,6.967-6.518V12.261h12.486c0-2.767-2.243-5.01-5.01-5.01h-33.027c0,2.767,2.243,5.01,5.01,5.01h7.476v11.492c-24.619-7.309-49.239-7.309-73.858,0v-11.492h7.476c2.767,0,5.01-2.243,5.01-5.01H5.014C2.248,7.251.005,9.494.005,12.261h12.486v26.821Z" fill="#D6E101" />
  </g>
  <g id="Grey" fill="#282828">
    <path d="M78.375,12.999h0c0-7.179-5.82-12.999-12.999-12.999h-5.785c-7.179,0-12.999,5.82-12.999,12.999h0c10.588-1.281,21.194-1.281,31.783,0Z" fill="#D6E101" />
    <path d="M0,62.008v39.796h46.57l2.34-4.861c3.248-6.763,7.105-12.81,11.581-18.119C31.816,57.104,0,62.008,0,62.008Z" fill="#D6E101" />
    <path d="M59.016,101.804h65.947v-40.27c-31.76,1.453-53.742,14.876-65.947,40.27Z" fill="#D6E101" />
  </g>
</svg>