<?xml version='1.0' encoding='utf-8'?>
<svg xmlns="http://www.w3.org/2000/svg" id="Layer_2" data-name="Layer 2" viewBox="0 0 179.82 179.82">
  <g id="Color" fill="#00ABF6">
    <path d="M48.656,29.971c4.163,0,7.538,3.374,7.538,7.537s-3.375,7.538-7.538,7.538-7.537-3.375-7.537-7.538,3.374-7.537,7.537-7.537Z" fill-rule="evenodd" />
    <path d="M134.82,48.701c4.163,0,7.538,3.375,7.538,7.538s-3.375,7.537-7.538,7.537-7.537-3.374-7.537-7.537,3.374-7.538,7.537-7.538Z" fill-rule="evenodd" />
    <path d="M52.493,123.536c4.163,0,7.537,3.375,7.537,7.538s-3.374,7.537-7.537,7.537-7.538-3.374-7.538-7.537,3.375-7.538,7.538-7.538Z" fill-rule="evenodd" />
    <path d="M96.853,87.05c-.373-.902-.937-1.729-1.645-2.437s-1.535-1.27-2.436-1.644l.005-.011c-.85-.348-1.815-.539-2.866-.539s-2.017.191-2.865.539l.004.011c-.901.374-1.728.937-2.436,1.644-.708.708-1.27,1.535-1.644,2.437l-.01-.005c-.349.849-.54,1.816-.54,2.865s.191,2.017.54,2.865l.01-.004c.374.901.936,1.728,1.644,2.436s1.535,1.271,2.436,1.645l-.004.011c.849.348,1.816.54,2.865.54s2.017-.192,2.866-.54l-.005-.011c.901-.373,1.729-.937,2.436-1.645.708-.708,1.271-1.535,1.645-2.436l.011.004c.348-.849.54-1.814.54-2.865s-.192-2.017-.54-2.865l-.011.005Z" fill-rule="evenodd" />
  </g>
  <g id="Grey" fill="#282828">
    <path d="M89.91,0c12.154,0,23.764,2.425,34.37,6.818,11.026,4.567,20.932,11.243,29.206,19.517,8.273,8.273,14.949,18.179,19.517,29.206,4.393,10.605,6.817,22.215,6.817,34.369s-2.425,23.764-6.817,34.37c-4.567,11.026-11.243,20.932-19.517,29.206-8.274,8.273-18.18,14.949-29.206,19.517-10.606,4.392-22.216,6.817-34.37,6.817s-23.763-2.425-34.369-6.817c-11.027-4.567-20.933-11.243-29.206-19.517-8.273-8.275-14.949-18.18-19.517-29.206C2.425,113.674,0,102.064,0,89.91s2.425-23.764,6.818-34.369c4.567-11.027,11.243-20.933,19.517-29.206,8.273-8.273,18.179-14.949,29.206-19.517C66.147,2.425,77.756,0,89.91,0h0ZM68.934,63.662c-.43-.076-.869-.116-1.315-.116-1.016,0-2.005.21-2.923.591-.964.398-1.813.966-2.506,1.658-.692.692-1.26,1.542-1.659,2.506-.38.919-.59,1.907-.59,2.923,0,.88.155,1.735.439,2.54-.856,1.545-1.594,3.165-2.199,4.848-.795,2.209-1.367,4.527-1.685,6.932l-.018.141v.015c-.824,6.468.271,12.739,2.853,18.259,1.086,2.321,2.435,4.511,4.015,6.525,5.326,6.79,13.269,11.597,22.58,12.828h.015l.147.019c1.128.144,2.251.231,3.366.267,7.647.237,14.92-2.046,20.851-6.178,1.671-1.164,3.235-2.475,4.674-3.917,3.606-3.615,6.415-8.059,8.09-13.095l18.383,3.71c-1.455,5.164-3.662,9.963-6.48,14.294-3.577,5.498-8.159,10.249-13.453,14.045-5.359,3.841-11.431,6.684-17.913,8.315-6.286,1.581-12.952,2.031-19.724,1.157-2.354-.304-4.705-.776-7.035-1.403-2.367-.637-4.62-1.41-6.75-2.307-1.673-.704-3.345-1.52-5.009-2.441-.673-.371-1.329-.753-1.97-1.142.369-1.115.569-2.298.569-3.517,0-1.498-.307-2.946-.86-4.284-.58-1.4-1.412-2.642-2.433-3.662-1.025-1.026-2.264-1.858-3.647-2.432h-.015c-1.337-.555-2.786-.86-4.283-.86-1.508,0-2.962.306-4.299.86l-.094.039c-1.32-1.809-2.533-3.712-3.629-5.699-1.615-2.931-2.949-6.003-3.973-9.175-1.167-3.617-1.945-7.382-2.295-11.237-.34-3.753-.274-7.607.234-11.511.919-7.037,3.203-13.568,6.554-19.365,3.481-6.023,8.112-11.251,13.558-15.423,5.447-4.174,11.712-7.295,18.459-9.106,6.091-1.636,12.563-2.205,19.169-1.523.453.047.908.1,1.362.158l.428-3.38.041-.322.469-3.702c-8.093-1.045-16.006-.445-23.4,1.54-5.307,1.425-10.352,3.561-15.014,6.311.021-.274.032-.551.032-.829,0-1.506-.308-2.962-.865-4.307-.582-1.406-1.418-2.654-2.443-3.68l-1.098-1.098h-.197c-.73-.541-1.527-.994-2.375-1.346-1.343-.557-2.802-.864-4.316-.864-.098,0-.194,0-.291.004-6.144.102-11.092,5.113-11.092,11.281,0,2.566.856,4.932,2.3,6.827v.069l.26.26c1.739,2.118,4.236,3.592,7.076,4.008-3.264,3.419-6.136,7.232-8.529,11.374-3.828,6.623-6.439,14.093-7.49,22.146-.58,4.447-.653,8.851-.264,13.15.4,4.428,1.289,8.731,2.616,12.848,1.184,3.669,2.705,7.181,4.529,10.492,1.37,2.485,2.927,4.882,4.654,7.171-.167.313-.318.637-.456.968-.554,1.338-.86,2.791-.86,4.299,0,1.498.307,2.946.86,4.284v.015c.573,1.384,1.405,2.621,2.433,3.647,1.019,1.02,2.262,1.852,3.662,2.432,1.337.555,2.785.86,4.284.86,1.508,0,2.961-.306,4.298-.86l-.002-.005c.623-.259,1.215-.568,1.77-.921.983.623,1.975,1.211,2.972,1.763,1.796.992,3.701,1.916,5.712,2.763,2.525,1.063,5.102,1.955,7.716,2.658,2.553.687,5.232,1.218,8.03,1.579,7.742.999,15.337.491,22.475-1.305,7.42-1.865,14.354-5.11,20.459-9.486,6.017-4.313,11.245-9.747,15.356-16.063,3.317-5.098,5.894-10.767,7.555-16.882l15.652,3.158.731-3.658.005-.026.726-3.632-64.865-13.091c-.136-.942-.391-1.855-.75-2.723v-.015c-.572-1.384-1.405-2.621-2.432-3.648-1.026-1.026-2.264-1.858-3.647-2.432h-.015c-1.338-.555-2.786-.86-4.284-.86s-2.946.306-4.284.86h-.015c-1.383.573-2.621,1.405-3.647,2.432-1.026,1.026-1.858,2.264-2.432,3.648v.015c-.555,1.338-.861,2.786-.861,4.284s.307,2.947.861,4.284v.015c.573,1.384,1.405,2.621,2.432,3.647,1.026,1.027,2.265,1.859,3.647,2.433h.015c1.338.554,2.786.86,4.284.86s2.946-.307,4.284-.86h.015c1.384-.573,2.621-1.405,3.647-2.433.652-.651,1.225-1.388,1.704-2.193l16.105,3.25c-1.895,5.086-5.31,9.348-9.635,12.359-5.343,3.723-12.06,5.539-19.006,4.653l-.134-.018v-.002c-7.293-.965-13.505-4.719-17.663-10.02-2.449-3.122-4.185-6.781-5.012-10.723-.572-2.731-.707-5.598-.337-8.516h.003s.018-.14.018-.14c.248-1.877.69-3.676,1.304-5.38.292-.81.621-1.599.986-2.365.466.091.944.139,1.428.139,1.024,0,2.017-.21,2.934-.591.93-.386,1.769-.953,2.476-1.658h.015l.005-.005v-.015c.705-.706,1.272-1.547,1.658-2.476.381-.917.591-1.908.591-2.934,0-.909-.169-1.797-.477-2.632,1.824-1.288,3.813-2.353,5.923-3.162.518-.198,1.045-.383,1.578-.55,3.653-1.146,7.603-1.543,11.635-1.029l.936-7.404c-3.127-.399-6.206-.371-9.177.036-1.924.264-3.802.687-5.618,1.257-4.088,1.282-7.871,3.304-11.164,5.923h0ZM134.877,44.932c-1.507,0-2.958.307-4.295.861-1.366.566-2.6,1.399-3.637,2.434h-.015l-.009.01v.014c-1.034,1.036-1.867,2.27-2.435,3.637-.555,1.337-.861,2.789-.861,4.295s.307,2.95.861,4.29c.58,1.401,1.413,2.644,2.435,3.666l.041.017c1.032,1.026,2.261,1.853,3.619,2.417,1.337.555,2.788.861,4.295.861s2.95-.306,4.29-.861c1.401-.58,2.644-1.412,3.666-2.434,1.02-1.021,1.853-2.265,2.434-3.666.555-1.34.861-2.79.861-4.29s-.307-2.958-.861-4.295c-.563-1.358-1.391-2.587-2.417-3.619l-.017-.041c-1.021-1.021-2.265-1.853-3.666-2.434-1.34-.555-2.79-.861-4.29-.861h0ZM53.88,127.643c-.424-.174-.907-.269-1.432-.269-.52,0-1.004.098-1.431.275-.451.186-.865.468-1.219.822-.353.353-.636.768-.822,1.218-.177.428-.274.911-.274,1.431,0,.525.096,1.008.269,1.433l.005-.002c.186.45.469.864.822,1.218.36.361.77.643,1.204.822.428.178.915.275,1.445.275.519,0,1.003-.098,1.43-.275h.015c.435-.18.844-.461,1.204-.822.36-.36.643-.769.822-1.203v-.015c.177-.428.275-.91.275-1.431,0-.53-.099-1.018-.275-1.445-.18-.434-.462-.843-.822-1.203-.353-.354-.768-.636-1.219-.822l.002-.006h0ZM91.343,86.434c-.424-.174-.907-.269-1.433-.269s-1.008.096-1.433.269l.002.006c-.45.186-.864.468-1.218.822-.354.354-.636.768-.822,1.218l-.006-.002c-.174.425-.269.907-.269,1.433s.096,1.009.269,1.434l.006-.003c.186.451.468.864.822,1.219.354.353.768.636,1.218.822l-.002.005c.425.174.907.27,1.433.27s1.009-.096,1.433-.27l-.002-.005c.45-.187.864-.469,1.219-.822.353-.354.635-.768.822-1.219l.005.003c.174-.425.27-.908.27-1.434s-.096-1.008-.27-1.433l-.005.002c-.187-.45-.469-.864-.822-1.218-.354-.354-.769-.636-1.219-.822l.002-.006Z" fill-rule="evenodd" />
  </g>
</svg>