<?xml version='1.0' encoding='utf-8'?>
<svg xmlns="http://www.w3.org/2000/svg" id="Layer_2" data-name="Layer 2" viewBox="0 0 157.342 179.82">
  <g id="Color" fill="#00ABF6">
    <polygon points="11.222 112.388 41.218 112.388 44.964 112.388 44.964 116.134 44.964 176.074 44.964 179.82 41.218 179.82 11.222 179.82 7.476 179.82 7.476 176.074 7.476 116.134 7.476 112.388 11.222 112.388" />
    <polygon points="11.222 0 41.218 0 44.964 0 44.964 3.747 44.964 59.94 44.964 63.687 41.218 63.687 11.222 63.687 7.476 63.687 7.476 59.94 7.476 3.747 7.476 0 11.222 0" />
    <path d="M120.922,70.639c2.706,2.555,4.823,5.602,6.259,8.932,1.439,3.338,2.204,6.964,2.204,10.668h-.014c0,3.522-.68,6.959-1.966,10.13-1.29,3.18-3.197,6.122-5.647,8.646l-5.356-5.21c1.756-1.808,3.129-3.933,4.067-6.245.941-2.321,1.439-4.806,1.439-7.321h-.015c0-2.684-.552-5.305-1.59-7.712-1.041-2.416-2.565-4.614-4.503-6.444l5.122-5.444Z" />
    <path d="M131.222,62.484c3.853,3.637,6.868,7.979,8.914,12.727,2.051,4.756,3.141,9.923,3.141,15.204,0,4.989-.975,9.886-2.82,14.436-1.84,4.536-4.556,8.727-8.045,12.319l-5.356-5.209c2.793-2.877,4.976-6.252,6.464-9.92,1.482-3.653,2.264-7.597,2.264-11.626,0-4.26-.876-8.422-2.526-12.248-1.653-3.834-4.074-7.327-7.158-10.239l5.122-5.443Z" />
    <path d="M140.512,51.641c5.377,5.076,9.585,11.139,12.446,17.771,2.864,6.641,4.385,13.857,4.385,21.233,0,6.97-1.36,13.809-3.937,20.162-2.571,6.337-6.363,12.191-11.232,17.205l-5.356-5.209c4.174-4.298,7.433-9.335,9.651-14.805,2.213-5.456,3.382-11.342,3.382-17.352,0-6.356-1.309-12.567-3.771-18.277-2.466-5.719-6.081-10.933-10.689-15.284l5.121-5.444Z" />
  </g>
  <g id="Grey" fill="#D3D3D3">
    <rect x="71.179" y="86.178" width="26.224" height="7.464" />
    <path d="M99.069,97.853c-2.022-2.022-3.273-4.828-3.273-7.936s1.251-5.914,3.273-7.936c2.022-2.022,4.828-3.273,7.936-3.273,3.109,0,5.914,1.252,7.936,3.273,2.031,2.031,3.288,4.837,3.288,7.937s-1.256,5.905-3.288,7.936c-2.031,2.031-4.837,3.288-7.936,3.288s-5.905-1.256-7.936-3.288Z" />
    <path d="M45.004,100.965v-29.078l2.853-.638,14.936-3.337,5.036-1.125-.411,4.655c-.316,3.581-.477,10.05-.477,16.584,0,6.468.157,12.919.477,16.619l.418,4.842-5.189-1.365-14.936-3.93-2.707-.712v-2.515Z" />
    <rect x="22.474" y="67.456" width="7.492" height="11.431" />
    <rect x="22.474" y="96.94" width="7.492" height="11.712" />
    <polygon points="3.372 74.925 48.75 74.925 52.122 74.925 52.122 78.671 52.122 97.403 52.122 101.149 48.75 101.149 3.372 101.149 0 101.149 0 97.403 0 78.671 0 74.925 3.372 74.925" />
    <path d="M74.927,33.817c5.252,0,9.356,6.813,11.746,17.827,2.035,9.379,3.293,22.284,3.293,36.494s-1.258,27.114-3.293,36.493c-2.39,11.015-6.494,17.828-11.746,17.828s-9.356-6.813-11.747-17.828c-2.035-9.378-3.293-22.285-3.293-36.493s1.259-27.115,3.293-36.494c2.39-11.014,6.495-17.827,11.747-17.827h0ZM78.699,53.108c-1.581-7.289-2.964-11.798-3.772-11.798s-2.191,4.509-3.772,11.798c-1.936,8.925-3.134,21.307-3.134,35.03s1.198,26.105,3.134,35.03c1.582,7.289,2.964,11.798,3.772,11.798s2.19-4.509,3.772-11.798c1.937-8.926,3.134-21.308,3.134-35.03s-1.197-26.105-3.134-35.03Z" />
  </g>
</svg>