<?xml version='1.0' encoding='utf-8'?>
<svg xmlns="http://www.w3.org/2000/svg" id="Layer_2" data-name="Layer 2" viewBox="0 0 179.82 108.642">
  <g id="Color" fill="#00ABF6">
    <path d="M89.91,0c24.228,0,46.229,3.638,62.215,9.519l.198.074-63.715,22.358-1.112.643-39.458,34.384c-7.495-1.501-14.341-3.393-20.341-5.601C10.584,55.083,0,45.942,0,35.449S10.584,15.815,27.695,9.519C43.681,3.638,65.683,0,89.91,0h0ZM162.295,14.003l-63.753,22.359,45.189,27.74c2.951-.843,5.755-1.752,8.394-2.724,17.111-6.296,27.695-15.436,27.695-25.93,0-8.217-6.491-15.604-17.525-21.446h0ZM133.54,66.618l-43.251-26.551-32.756,28.553c10.034,1.47,20.958,2.279,32.378,2.279,15.85,0,30.747-1.558,43.63-4.281Z" />
  </g>
  <g id="Grey" fill="#282828">
    <path d="M57.022,72.095c10.867,1.593,21.907,2.316,32.887,2.316,14.783,0,29.881-1.297,44.356-4.357l8.616-1.821.327-.329,1.486-.424c2.912-.832,5.799-1.759,8.642-2.805,8.971-3.301,20.712-9.124,26.482-17.93v26.446h0v3.1h-.314c-1.866,9.189-11.978,17.163-27.381,22.83-15.985,5.882-37.987,9.52-62.215,9.52s-46.228-3.639-62.214-9.52c-15.403-5.667-25.516-13.641-27.381-22.83h-.314v-29.546c5.77,8.806,17.512,14.629,26.483,17.93,6.758,2.486,13.808,4.335,20.864,5.749l1.694.339,7.981,1.332Z" fill="#D3D3D3" />
  </g>
</svg>