<?xml version='1.0' encoding='utf-8'?>
<svg xmlns="http://www.w3.org/2000/svg" id="Layer_2" data-name="Layer 2" viewBox="0 0 123.179 118.603">
  <g id="Color" fill="#00ABF6">
    <path d="M16.104,21.971c.301.085.611.148.92.195.479.081.967.127,1.458.136.941.017,1.865-.106,2.76-.348.39-.102.776-.229,1.153-.382,3.184-1.255,5.809-4.024,6.86-7.314.318-.979.496-2.001.505-3.048C29.82,5.198,24.733.043,18.708,0,12.636-.042,7.506,4.94,7.4,10.981c-.021,1.331.233,2.642.717,3.871,1.335,3.413,4.397,6.199,7.988,7.119Z" fill="#FE2001" />
    <path d="M58.155,55.903l-11.854-9.948-11.115-16.404c-.681-1.014-1.79-1.659-3.007-1.761-9.683-.807-19.826-.938-29.141,2.195l-.109.036-.217.058c-.152.051-.304.101-.442.167-1.072.471-1.688,1.34-1.739,2.478-.007.29-.094,1.072-.188,1.905-.109,1.036-.232,2.116-.246,2.587C-.005,41.904-.026,55.417.032,60.975c.014,1.413.036,2.855.065,4.34.029,1.413.319,2.79.862,4.094.551,1.348,1.391,2.688,2.507,3.992.036.036.065.072.109.138.167.217.319.442.435.674.036.536.051,1.08.072,1.623l.029.536c.159,3.463.797,34.358.79,34.873-.014,1.587.239,3.384.964,4.782,1.051,2.014,3.036,2.855,5.34,2.434,2.152-.391,3.76-1.978,4.195-4.268.036-.225.072-.449.087-.688.558-7.101.956-17.382,1.456-24.483.268-3.833.572-7.666.985-11.484.007-.087.036-.181.08-.268.442-.855,1.674-.84,2.217-.051.131.188.225.377.246.58.572,5.507,1.014,11.028,1.507,16.542.493,5.514.927,14.201,1.536,19.708.007.145.029.297.043.449.254,2.304,1.819,3.731,4.13,4.05,3.34.449,5.521-1.848,5.528-5.811.007-7.18.34-36.742.587-55.733.051-3.971.094-7.477.138-10.224l2.101,2.362,2.623,2.942.652.739.297.203,13.571,9.398c.71.493,1.529.732,2.333.732,1.282,0,2.543-.601,3.347-1.724,1.239-1.746.935-4.152-.71-5.528Z" fill="#FE2001" />
  </g>
  <g id="Grey" fill="#282828">
    <path d="M107.075,23.116c-.301.085-.611.148-.92.195-.479.081-.967.127-1.459.136-.941.017-1.865-.106-2.76-.348-.39-.102-.776-.229-1.153-.381-3.184-1.255-5.809-4.024-6.86-7.314-.318-.979-.496-2.001-.504-3.048-.059-6.012,5.029-11.168,11.053-11.21,6.072-.042,11.202,4.939,11.308,10.981.021,1.331-.233,2.641-.717,3.871-1.335,3.413-4.397,6.199-7.988,7.119Z" />
    <path d="M65.024,55.903l11.854-9.948,11.114-16.403c.686-1.012,1.792-1.659,3.01-1.761.673-.056,1.376-.113,1.845-.145,1.014-.08,2.029-.152,3.036-.239.297-.036.565-.029.811.014.13-.029.239-.036.326-.036l.196.022c.413.109.732.406.927.848.043.087.08.181.109.275.043.123.5,1.594,1.087,3.485.732,2.348,1.666,5.354,2.246,7.18l.5-3.811c.058-.435.116-.84.159-1.203l.022-.152c0-.08.014-.159.022-.21l.087-.681c.036-.29.058-.5.072-.601-.101-.254-.21-.5-.355-.819-.058-.145-.138-.311-.196-.449l-.101-.167c-.116-.232-.268-.514-.268-.869,0-.174.348-1.174.427-1.246.145-.21.333-.348.638-.427l.174-.007c.101-.043.188-.043.225-.043.232-.007.804-.007,1.536-.007s1.304,0,1.514.007c.058,0,.145,0,.246.043l.225.022c.246.065.442.203.536.355.058.058.08.08.261.58.188.5.217.623.217.725,0,.326-.13.594-.268.848l-.101.188c-.058.13-.138.297-.232.536-.116.239-.217.478-.319.725.007.116.036.319.072.609l.08.652c.014.08.022.159.022.188.116.906.275,2.123.442,3.355l.246,1.862c.565-1.804,1.478-4.739,2.21-7.072.688-2.21,1.08-3.471,1.123-3.587.116-.348.261-.601.449-.79.167-.167.369-.283.587-.341l.196-.022c.333,0,.964.174,2.116.58l.754.275c.239.087.442.167.565.203,1.63.558,3.217,1.094,4.782,1.58l.217.058c1.348.42,2.123,1.355,2.181,2.645.007.29.094,1.072.188,1.905.109,1.036.232,2.116.246,2.587.101,4.688.123,18.201.065,23.758-.014,1.413-.036,2.855-.065,4.34-.029,1.413-.319,2.79-.862,4.094-.551,1.348-1.391,2.688-2.507,3.992-.036.036-.065.072-.109.138-.167.217-.319.442-.435.674-.036.536-.051,1.08-.073,1.623l-.029.536c-.159,3.463-.797,34.358-.79,34.873.015,1.587-.239,3.384-.964,4.782-1.051,2.014-3.036,2.855-5.34,2.434-2.152-.391-3.76-1.978-4.195-4.268-.036-.225-.073-.449-.087-.688-.558-7.101-.956-17.382-1.456-24.483-.268-3.833-.572-7.666-.985-11.484-.007-.087-.036-.181-.08-.268-.442-.855-1.674-.84-2.217-.051-.13.188-.225.377-.246.58-.572,5.507-1.014,11.028-1.507,16.542-.493,5.514-.927,14.201-1.536,19.708-.007.145-.029.297-.043.449-.254,2.304-1.819,3.731-4.13,4.05-3.34.449-5.521-1.848-5.528-5.811-.007-8.68-.493-50.067-.725-65.956l-4.724,5.304-.652.739-.297.203-13.571,9.398c-.71.493-1.529.732-2.333.732-1.283,0-2.543-.601-3.347-1.724-1.239-1.746-.935-4.152.71-5.528Z" />
  </g>
</svg>