<?xml version="1.0" encoding="UTF-8"?>
<svg id="Layer_2" data-name="Layer 2" xmlns="http://www.w3.org/2000/svg" viewBox="0 0 123.936 99.785">
  <g id="Color">
    <path d="M121.541,40.048c-3.455,0-6.689-.872-9.626-2.594.464-.994.706-2.086.706-3.201,0-4.239-3.444-7.683-7.672-7.683-.993,0-1.976.199-2.892.574-.32-.452-.64-.905-.971-1.369-5.023-7.109-10.222-14.461-18.711-18.324-.121-4.129-3.521-7.451-7.672-7.451-3.665,0-6.811,2.616-7.528,6.16-8.411,2.638-15.178,10.785-20.731,18.578-.607-.155-1.236-.232-1.876-.232-4.228,0-7.672,3.444-7.672,7.672,0,1.601.508,3.168,1.435,4.46-4.062,5.895-7.517,10.354-11.072,12.959-1.976,1.435-4.04,2.583-6.149,3.389-1.336-2.439-3.897-3.985-6.722-3.985-2.539,0-4.868,1.236-6.292,3.29-.486-.398-.971-.828-1.512-1.314-.828-.751-1.777-1.601-2.837-2.329-.519-.364-1.159-.508-1.788-.386-.629.11-1.17.464-1.534.983-.364.53-.497,1.159-.386,1.788s.464,1.181.982,1.534c.806.563,1.568,1.247,2.373,1.965,1.016.916,2.064,1.866,3.334,2.66.265,3.996,3.61,7.164,7.661,7.164,3.83,0,7.065-2.859,7.595-6.601,2.804-.982,5.519-2.428,8.102-4.305,4.073-2.98,7.804-7.749,12.098-13.986.762.265,1.568.386,2.384.386,4.239,0,7.683-3.433,7.683-7.672,0-1.799-.629-3.51-1.766-4.89,4.813-6.745,10.586-13.776,17.32-16.249,1.27,2.616,3.952,4.316,6.899,4.316,2.517,0,4.857-1.236,6.281-3.278,6.988,3.433,11.679,10.056,16.216,16.492.397.552.795,1.115,1.203,1.689-.74,1.192-1.126,2.572-1.126,3.996,0,4.228,3.444,7.672,7.672,7.672,1.292,0,2.539-.32,3.654-.916,3.941,2.539,8.29,3.819,12.937,3.819,1.314,0,2.395-1.071,2.395-2.384,0-1.325-1.082-2.395-2.395-2.395ZM108.703,35.92c-.563,1.269-1.777,2.197-3.157,2.384-.177.033-.386.055-.596.055-2.263,0-4.106-1.843-4.106-4.106,0-.342.044-.684.132-1.004.331-1.347,1.369-2.462,2.694-2.903.408-.133.839-.199,1.28-.199,2.263,0,4.106,1.843,4.106,4.106,0,.574-.122,1.148-.353,1.667ZM74.703,3.566c1.788,0,3.4,1.203,3.919,2.903.121.375.188.784.188,1.203,0,.971-.342,1.91-.971,2.649-.784.927-1.921,1.457-3.135,1.457-1.468,0-2.826-.784-3.565-2.064-.353-.618-.541-1.325-.541-2.042,0-.673.166-1.336.486-1.943.729-1.325,2.109-2.164,3.621-2.164ZM44.568,36.284c-.254,0-.519-.022-.784-.077-1.358-.265-2.517-1.225-3.025-2.517-.199-.475-.298-.983-.298-1.512,0-2.252,1.843-4.095,4.095-4.106,1.413,0,2.694.706,3.455,1.876.441.662.662,1.435.662,2.23,0,2.263-1.832,4.106-4.106,4.106ZM18.086,58.45c-.673,1.413-2.119,2.34-3.698,2.34-1.568,0-3.025-.916-3.698-2.329-.276-.541-.408-1.148-.408-1.777,0-.773.21-1.523.618-2.164.74-1.214,2.042-1.943,3.488-1.943,1.413,0,2.715.718,3.477,1.932.408.651.618,1.402.618,2.175,0,.618-.132,1.225-.397,1.766Z" fill="#70b2e2"/>
  </g>
  <g id="Grey">
    <path d="M36.746,97.136c.002,1.895.727,2.635,2.588,2.639,3.537.009,7.073.011,10.61.001,1.649-.005,2.45-.792,2.452-2.407.009-12.63.009-25.705,0-38.335-.001-1.577-.79-2.382-2.344-2.39-3.484-.019-7.07-.019-10.963,0-1.549.007-2.336.815-2.339,2.401-.009,4.402-.008,10.642-.006,14.255l.002,5.254v5.127c-.002,4.485-.002,8.97.002,13.455Z" fill="#434343"/>
    <path d="M66.935,97.136c.002,1.895.727,2.635,2.588,2.639,3.537.009,7.074.011,10.61.001,1.648-.005,2.45-.792,2.452-2.407.006-7.446-.035-26.689-.07-43.668-.025-11.869-.047-22.72-.051-27.902-.001-1.577-.79-2.382-2.344-2.39-3.48-.019-7.168-.019-10.963,0-1.549.008-2.336.815-2.339,2.401-.008,3.619.032,18.282.066,31.219.026,9.832.05,18.792.05,21.525v5.127c-.002,4.485-.002,8.97.001,13.455Z" fill="#434343"/>
    <path d="M97.124,97.136c.002,1.895.727,2.635,2.588,2.639,3.537.008,7.074.011,10.61.001,1.648-.005,2.45-.792,2.452-2.407.009-12.63.009-30.612,0-43.242-.001-1.577-.79-2.382-2.344-2.39-3.484-.019-7.07-.019-10.964,0-1.549.007-2.336.816-2.339,2.401-.01,4.531-.008,14.416-.006,18.948l.002,5.467v5.18c-.002,4.468-.003,8.935.002,13.403Z" fill="#434343"/>
    <path d="M19.807,72.385c-1.912-.007-3.74-.011-5.506-.011-1.837,0-3.607.004-5.339.012-1.612.007-2.398.812-2.404,2.461-.008,2.167-.006,6.356-.004,9.697v3.483s0,2.575,0,2.575c-.002,2.196-.004,4.393.003,6.589.006,1.829.739,2.578,2.529,2.584,3.499.013,7.067.013,10.607,0,1.738-.006,2.514-.767,2.517-2.467.011-6.14.008-16.246,0-22.471-.003-1.667-.766-2.447-2.401-2.453Z" fill="#434343"/>
  </g>
</svg>