<?xml version="1.0" encoding="UTF-8"?>
<svg id="Layer_2" data-name="Layer 2" xmlns="http://www.w3.org/2000/svg" viewBox="0 0 172.598 179.82">
  <g id="Color">
    <polygon points="3.909 39.091 43.001 39.091 46.91 39.091 46.91 43.001 46.91 90.21 0 90.21 0 43.001 0 39.091 3.909 39.091" fill="#64b5f6"/>
    <polygon points="66.753 0 105.845 0 109.754 0 109.754 3.91 109.754 51.119 62.844 51.119 62.844 3.91 62.844 0 66.753 0" fill="#64b5f6"/>
    <polygon points="129.597 39.091 168.689 39.091 172.598 39.091 172.598 43.001 172.598 90.21 125.688 90.21 125.688 43.001 125.688 39.091 129.597 39.091" fill="#64b5f6"/>
  </g>
  <g id="Grey">
    <polygon points="46.91 98.029 46.91 175.911 46.91 179.82 43.001 179.82 3.909 179.82 0 179.82 0 175.911 0 98.029 46.91 98.029" fill="#424242"/>
    <polygon points="109.754 58.938 109.754 175.91 109.754 179.819 105.845 179.819 66.753 179.819 62.844 179.819 62.844 175.91 62.844 58.938 109.754 58.938" fill="#424242"/>
    <polygon points="172.598 98.029 172.598 175.911 172.598 179.82 168.689 179.82 129.597 179.82 125.688 179.82 125.688 175.911 125.688 98.029 172.598 98.029" fill="#424242"/>
  </g>
</svg>