<?xml version="1.0" encoding="UTF-8"?>
<svg id="Layer_2" data-name="Layer 2" xmlns="http://www.w3.org/2000/svg" viewBox="0 0 124.039 124.52">
  <g id="Color">
    <path d="M85.331,73.905c.069.958-.46,1.661-1.198,2.27-2.947,2.434-5.863,4.905-8.845,7.295-.807.647-.982,1.249-.724,2.235.948,3.616,1.8,7.258,2.698,10.888.342,1.383.018,2.551-1.12,3.428-.992.765-2.329.727-3.593-.066-3.292-2.067-6.594-4.119-9.855-6.233-.709-.459-1.196-.425-1.889.017-3.135,1.998-6.315,3.925-9.467,5.897-.899.563-1.843.876-2.886.628-1.599-.38-2.513-1.978-2.102-3.615.993-3.953,1.976-7.908,3.009-11.85.156-.595.03-.944-.406-1.31-2.799-2.347-5.583-4.712-8.38-7.06-1.032-.866-1.974-1.745-1.863-3.279.107-1.485,1.228-2.66,2.723-2.758,4.11-.269,8.219-.559,12.331-.797.651-.038.844-.383,1.048-.883,1.387-3.407,2.792-6.806,4.191-10.208.128-.312.24-.632.392-.932.584-1.155,1.51-1.805,2.826-1.789,1.327.015,2.229.686,2.718,1.907,1.466,3.664,2.938,7.326,4.372,11.003.287.737.618,1.089,1.508,1.136,3.605.189,7.204.5,10.803.78.537.042,1.083.106,1.599.251,1.319.371,2.115,1.534,2.11,3.047Z" fill="#70b2e2"/>
  </g>
  <g id="Grey">
    <path d="M78.271,18.729c-.047-2.535-.024-5.07-.024-7.604v-1.445c-.118-.002-32.455,0-32.455,0v1.445c0,2.535.024,5.07-.024,7.604h32.502Z" fill="#434343"/>
    <path d="M112.147,9.845c-2.345-.403-4.785-.213-7.154-.284-1.469-.023-7.415,0-9.452,0,0-1.445,0-2.89-.024-4.335-.024-3.625-2.843-5.946-6.041-5.022-1.943.521-3.317,2.132-3.388,4.122-.071,2.511-.024,5.022-.024,7.533,0,2.559-.071,5.117.024,7.675.095,2.203,1.871,4.004,3.98,4.24,2.369.284,4.453-.971,5.14-3.127.19-.616.284-1.279.308-1.919h13.456c3.601,0,5.567,1.966,5.567,5.567v9.263H9.499v-9.263c0-3.601,1.966-5.567,5.567-5.567h13.456c.024.639.118,1.303.308,1.919.687,2.156,2.772,3.411,5.141,3.127,2.108-.237,3.885-2.037,3.98-4.24.095-2.559.024-5.117.024-7.675,0-2.511.047-5.022-.024-7.533-.071-1.99-1.445-3.601-3.388-4.122-3.198-.924-6.017,1.398-6.041,5.022-.024,1.445-.024,2.89-.024,4.335-2.037,0-7.983-.023-9.452,0-2.369.071-4.809-.118-7.154.284C4.714,11.077,0,16.952,0,24.414v85.259c.024,8.576,6.254,14.83,14.806,14.83,15.754.024,31.484.024,47.213,0h0c15.73.024,31.46.024,47.213,0,8.552,0,14.782-6.254,14.806-14.83V24.414c0-7.462-4.714-13.337-11.892-14.569ZM114.539,109.436c0,3.601-1.966,5.591-5.567,5.591H15.067c-3.601,0-5.567-1.99-5.567-5.591V41.328h105.04v68.108Z" fill="#434343"/>
  </g>
</svg>