<?xml version="1.0" encoding="UTF-8"?>
<svg id="Layer_2" data-name="Layer 2" xmlns="http://www.w3.org/2000/svg" viewBox="0 0 125.051 95.376">
  <g id="Color">
    <path d="M87.094,62.874c-.679-.558-1.381-1.083-2.101-1.572,1.485-.448,3.013-.859,4.586-1.228,1.882-.443,3.046-2.33,2.604-4.212-.443-1.881-2.319-3.041-4.212-2.603-4.178.984-8.111,2.234-11.734,3.724-5.865-2.054-12.199-2.981-18.056-3.683-1.879-.227-3.662,1.14-3.891,3.06-.23,1.919,1.14,3.661,3.06,3.891,3.066.367,6.169.782,9.188,1.373-2.142,1.178-4.242,2.529-6.079,4.167-4.709,4.195-6.656,9.814-5.207,15.04,1.499,5.398,6.084,9.662,12.579,11.696,2.693.842,5.491,1.252,8.217,1.252,5.253,0,10.238-1.518,13.673-4.367,3.933-3.265,5.857-8.887,4.903-14.321-.796-4.545-3.47-8.885-7.531-12.218ZM85.248,84.026c-3.356,2.784-9.801,3.55-15.325,1.821-4.184-1.31-7.075-3.823-7.925-6.888-1.037-3.735,1.835-6.798,3.117-7.939,2.675-2.387,6.355-4.129,9.913-5.816l.974-.462c.137-.066.276-.131.416-.197,2.264.987,4.367,2.207,6.234,3.738,2.765,2.273,4.569,5.119,5.076,8.02.519,2.956-.476,6.06-2.48,7.723Z" fill="#70b2e2"/>
    <g>
      <path d="M108.534,15.568c-.065,18.933-.131,37.847-.161,56.774,0,.709.113,1.49.34,2.151,2.104,6.335,4.237,12.658,6.371,18.962.161.501.387,1.001.661,1.407.483.691,1.114.691,1.585-.036.292-.453.512-1.013.709-1.567,1.829-5.286,3.671-10.572,5.465-15.888.644-1.907,1.359-3.754,1.359-5.947.012-18.45.095-36.876.143-55.32.018-.244,0-.501,0-.614-5.512-.018-10.977-.048-16.454-.084,0,0-.018.084-.018.161ZM121.561,72.795c-.113.34-.238.727-.37,1.114-.888,2.604-1.794,5.208-2.67,7.842-.191.566-.453.775-.965.745-.745-.048-1.49,0-2.235-.048-.208-.018-.512-.226-.596-.441-1.037-3.003-2.038-6.013-3.039-9.034-.03-.095-.018-.209-.03-.244,3.278.018,6.543.048,9.904.066Z" fill="#70b2e2"/>
      <path d="M125.025,10.891c-5.517-.028-10.941-.055-16.424-.082-.013-.097-.053-.256-.053-.415.005-2.082.005-4.165.028-6.247.027-2.501,1.376-4.126,3.484-4.138,3.171-.018,6.343-.009,9.514.035,2.106.03,3.462,1.675,3.475,4.16.011,2.222-.014,4.444-.024,6.687Z" fill="#70b2e2"/>
    </g>
  </g>
  <g id="Grey">
    <g id="Checklist">
      <g>
        <path d="M0,39.764h38.167V1.596H0v38.168ZM7.001,8.597h24.165v24.167H7.001V8.597Z" fill="#434343"/>
        <path d="M93.649,1.596h-38.167v38.168h38.167V1.596ZM86.648,32.764h-24.165V8.597h24.165v24.167Z" fill="#434343"/>
        <path d="M0,92.553h38.167v-38.17H0v38.17ZM7.001,61.384h24.165v24.168H7.001v-24.168Z" fill="#434343"/>
      </g>
    </g>
  </g>
</svg>