<?xml version="1.0" encoding="UTF-8"?>
<svg id="Layer_2" data-name="Layer 2" xmlns="http://www.w3.org/2000/svg" viewBox="0 0 126.829 125.596">
  <g id="Color">
    <path d="M91.245,35.257l-19.44,15.09c-2.478-1.691-5.368-2.583-8.387-2.583-8.273,0-15.004,6.731-15.004,15.004s6.731,15.005,15.004,15.005,14.989-6.731,14.989-15.005c0-2.083-.427-4.147-1.238-5.998l19.198-14.9c.886-.686,1.449-1.675,1.588-2.784.138-1.107-.163-2.205-.852-3.093-1.424-1.819-4.052-2.148-5.858-.736Z" fill="#70b2e2"/>
  </g>
  <g id="Grey">
    <path d="M8.371,62.769c0-3.2.277-6.408.822-9.534.192-1.101-.057-2.211-.699-3.126-.643-.914-1.604-1.524-2.705-1.716-1.103-.195-2.211.055-3.126.698s-1.525,1.604-1.718,2.705c-.627,3.602-.945,7.294-.945,10.973,0,2.308,1.878,4.186,4.186,4.186s4.186-1.878,4.186-4.186Z" fill="#434343"/>
    <path d="M37.073,13.893c.652,0,1.28-.149,1.866-.442,5.13-2.555,10.617-4.279,16.307-5.126,1.106-.162,2.082-.746,2.747-1.644.666-.898.939-2.001.772-3.103-.163-1.113-.747-2.093-1.644-2.759-.895-.664-1.998-.938-3.105-.771-6.559.979-12.887,2.966-18.807,5.906-2.071,1.029-2.918,3.55-1.888,5.623.721,1.429,2.159,2.317,3.753,2.317Z" fill="#434343"/>
    <path d="M9.072,38.796h0c.614.324,1.273.489,1.959.489,1.561,0,2.978-.858,3.696-2.235,2.702-5.086,6.155-9.692,10.266-13.691,1.651-1.616,1.683-4.272.073-5.919-.778-.802-1.823-1.251-2.94-1.265-1.175-.059-2.179.409-2.98,1.192-4.751,4.626-8.724,9.932-11.81,15.77-.524.986-.632,2.118-.305,3.188.329,1.071,1.053,1.948,2.04,2.471Z" fill="#434343"/>
    <path d="M55.645,117.273c-5.699-.807-11.201-2.491-16.35-5.005-1.006-.491-2.142-.563-3.198-.199-1.056.363-1.907,1.118-2.398,2.123-.492,1-.563,2.133-.202,3.19.364,1.061,1.118,1.916,2.126,2.408,5.956,2.905,12.297,4.846,18.861,5.771.199.024.387.035.574.035,2.072,0,3.855-1.547,4.149-3.599.157-1.105-.129-2.206-.804-3.099-.674-.892-1.653-1.47-2.758-1.626Z" fill="#434343"/>
    <path d="M126.038,52.715h0c-.367-2.274-2.521-3.833-4.796-3.478-1.105.179-2.074.776-2.729,1.68-.655.905-.918,2.012-.739,3.113.453,2.898.683,5.838.683,8.738,0,2.8-.212,5.62-.632,8.38-.169,1.104.104,2.207.765,3.105.664.9,1.64,1.488,2.736,1.653.208.037.427.051.648.051,2.049,0,3.825-1.528,4.128-3.552.482-3.136.727-6.379.727-9.637,0-3.415-.266-6.797-.79-10.053Z" fill="#434343"/>
    <path d="M118.258,85.57c-2.061-1.034-4.582-.199-5.621,1.865-2.564,5.108-5.911,9.785-9.949,13.904-.787.798-1.214,1.855-1.204,2.975.01,1.119.455,2.165,1.252,2.945.791.778,1.831,1.207,2.931,1.207,1.13,0,2.191-.446,2.989-1.255,4.65-4.734,8.508-10.123,11.467-16.02,1.036-2.062.2-4.582-1.865-5.621Z" fill="#434343"/>
    <path d="M112.473,37.773c.716,1.409,2.146,2.285,3.731,2.285.659,0,1.317-.157,1.903-.455,2.053-1.051,2.869-3.578,1.818-5.633-3.013-5.9-6.906-11.262-11.569-15.934-.783-.795-1.829-1.236-2.946-1.242h-.024c-1.113,0-2.16.432-2.953,1.218-1.628,1.629-1.634,4.284-.011,5.919,4.061,4.081,7.443,8.739,10.05,13.842Z" fill="#434343"/>
    <path d="M72.392,8.457h.002c5.657.927,11.116,2.73,16.225,5.362.596.309,1.241.466,1.916.466,1.58,0,3.009-.866,3.731-2.263,1.05-2.053.24-4.584-1.806-5.643-5.879-3.033-12.175-5.114-18.713-6.186-1.102-.182-2.212.073-3.119.723-.91.653-1.51,1.624-1.69,2.733-.37,2.269,1.18,4.425,3.454,4.807Z" fill="#434343"/>
    <path d="M92.144,111.253c-1.064-.332-2.197-.23-3.187.291-5.085,2.67-10.534,4.514-16.194,5.484-1.103.184-2.068.788-2.714,1.7-.648.913-.899,2.026-.708,3.131.344,2.016,2.079,3.48,4.126,3.48.224,0,.458-.023.706-.06,6.546-1.127,12.828-3.254,18.673-6.321,2.04-1.073,2.829-3.61,1.758-5.656-.521-.989-1.394-1.717-2.459-2.049Z" fill="#434343"/>
    <path d="M36.014,95.329c.786-.795,1.216-1.848,1.211-2.966-.011-2.296-1.889-4.164-4.207-4.164l-20.859.106c-1.875.01-3.633.749-4.953,2.08-1.319,1.332-2.04,3.098-2.03,4.974l.105,20.859c.012,2.296,1.89,4.165,4.207,4.165,1.119-.005,2.167-.446,2.954-1.241.787-.794,1.217-1.848,1.211-2.966l-.072-14.198c1.802,2.291,3.75,4.45,5.804,6.432,1.608,1.551,4.366,1.501,5.919-.108,1.601-1.661,1.553-4.316-.108-5.919-1.828-1.763-3.562-3.692-5.164-5.746l13.029-.066c1.118-.005,2.167-.447,2.954-1.241Z" fill="#434343"/>
  </g>
</svg>