<?xml version="1.0" encoding="UTF-8"?>
<svg id="Layer_2" data-name="Layer 2" xmlns="http://www.w3.org/2000/svg" viewBox="0 0 122.759 124.52">
  <g id="Color">
    <path d="M54.891,119.225s-.006,0-.009,0c-.675-.047-1.359-.11-2.03-.188-.969-.111-1.664-.986-1.553-1.955.111-.969.991-1.666,1.955-1.553.62.071,1.251.129,1.875.173.973.068,1.706.912,1.638,1.885-.068.97-.906,1.702-1.875,1.639Z" fill="#70b2e2"/>
    <path d="M66.597,118.472c-.776-.05-1.453-.613-1.615-1.412-.194-.956.424-1.887,1.38-2.081.613-.124,1.231-.264,1.835-.415.947-.236,1.905.339,2.141,1.285.236.946-.339,1.905-1.285,2.141-.656.164-1.325.315-1.99.45-.157.032-.313.041-.466.032Z" fill="#70b2e2"/>
    <path d="M101.26,71.683c-.026.003-.053.006-.079.009-.971.086-1.829-.631-1.914-1.603-.056-.622-.125-1.252-.208-1.871-.129-.967.55-1.855,1.517-1.984.967-.129,1.855.55,1.984,1.517.09.671.165,1.353.225,2.026.083.945-.593,1.782-1.524,1.906Z" fill="#70b2e2"/>
    <path d="M14.578,73.783c-.006,0-.013,0-.019,0-.974-.041-1.73-.865-1.689-1.839.029-.675.073-1.359.131-2.034.084-.971.941-1.691,1.912-1.607.972.084,1.691.94,1.607,1.912-.054.624-.095,1.256-.121,1.879-.041.968-.854,1.721-1.82,1.69Z" fill="#70b2e2"/>
    <path d="M98.301,59.273c-.782.104-1.565-.329-1.872-1.095-.231-.577-.479-1.159-.738-1.73-.403-.888-.01-1.935.878-2.338.888-.404,1.935-.009,2.338.878.281.62.551,1.251.801,1.877.362.905-.078,1.933-.983,2.295-.14.056-.282.092-.424.111Z" fill="#70b2e2"/>
    <path d="M17.285,60.382c-.187-.006-.377-.042-.562-.111-.913-.341-1.377-1.359-1.036-2.272.238-.638.494-1.277.76-1.9.383-.897,1.421-1.314,2.317-.931.897.382,1.314,1.42.931,2.317-.245.574-.48,1.163-.7,1.751-.272.728-.974,1.171-1.71,1.147Z" fill="#70b2e2"/>
    <path d="M91.28,47.542c-.58.077-1.185-.135-1.588-.616-.4-.478-.818-.953-1.24-1.412-.659-.718-.612-1.835.107-2.495.717-.659,1.835-.612,2.495.106.458.499.91,1.015,1.345,1.533.627.747.528,1.861-.219,2.487-.266.223-.578.354-.899.397Z" fill="#70b2e2"/>
    <path d="M24.034,48.484c-.368-.012-.735-.138-1.044-.385-.762-.608-.886-1.72-.278-2.482.423-.529.863-1.056,1.31-1.567.641-.734,1.758-.809,2.492-.166.734.642.808,1.758.166,2.492-.412.47-.818.957-1.208,1.444-.361.453-.9.681-1.438.663Z" fill="#70b2e2"/>
  </g>
  <g id="Grey">
    <g id="Teamwork_Communication" data-name="Teamwork Communication">
      <g>
        <g>
          <path d="M49.281,19.394c.717,1.477,1.773,2.84,3.231,4.159,1.446,1.31,3.289,2.035,5.342,2.035.007,0,.014,0,.021-.002l.279.007c1.91,0,3.761-.725,5.212-2.039,1.458-1.319,2.514-2.682,3.234-4.164,1.495-3.111,2.265-6.274,2.292-9.422l.006-.356c.009-.365.014-.73-.023-1.101-.369-3.68-2.459-6.329-6.048-7.662-1.487-.546-3.126-.833-4.903-.849-1.745.016-3.384.303-4.876.851-3.583,1.331-5.673,3.98-6.044,7.662-.036.369-.031.734-.022,1.099l.006.369c.026,3.134.797,6.297,2.294,9.413ZM58.152,23.814h0s0,.017,0,.017l-.002-.017Z" fill="#434343"/>
          <path d="M78.313,45.789c1.164,0,2.131-.897,2.207-2.058.151-2.289.266-5.633.266-5.633.024-.273.168-2.735-2.434-4.721-.774-.59-1.729-1.078-2.775-1.429,0,0-7.354-2.79-7.365-2.794-1.555-.59-3.131-.755-4.591.298l-.303.245c-.43.395-.716.851-.944,1.218-.077.122-.151.245-.236.363l-4.198,5.894-.577-.81c-1.443-2.023-2.884-4.047-4.316-6.077-.1-.142-.201-.275-.328-.431-.536-.631-1.131-1.041-1.822-1.255l-.622-.11-2.335.585-7.572,2.851c-1.11.374-2.065.863-2.835,1.452-2.604,1.987-2.46,4.448-2.443,4.563,0,0,.118,3.438.269,5.768.075,1.162,1.041,2.06,2.205,2.061l40.749.021Z" fill="#434343"/>
        </g>
        <g>
          <path d="M14.198,98.126c.717,1.477,1.773,2.84,3.231,4.159,1.446,1.31,3.289,2.035,5.342,2.035.007,0,.014,0,.021-.002l.279.007c1.91,0,3.761-.725,5.212-2.039,1.458-1.319,2.514-2.682,3.234-4.164,1.495-3.111,2.265-6.274,2.292-9.422l.006-.356c.009-.365.014-.729-.023-1.101-.369-3.68-2.459-6.329-6.048-7.662-1.487-.546-3.126-.833-4.903-.849-1.745.016-3.384.303-4.876.851-3.583,1.331-5.673,3.98-6.044,7.662-.036.369-.031.734-.022,1.099l.006.369c.026,3.134.797,6.297,2.294,9.413ZM23.069,102.545h0s0,.017,0,.017v-.017Z" fill="#434343"/>
          <path d="M43.23,124.52c1.164,0,2.131-.897,2.207-2.058.151-2.289.266-5.633.266-5.633.024-.273.167-2.735-2.434-4.721-.774-.59-1.729-1.078-2.775-1.429,0,0-7.354-2.79-7.365-2.794-1.555-.59-3.131-.755-4.591.298l-.303.245c-.43.395-.716.851-.944,1.218-.077.122-.151.245-.236.362l-4.198,5.894-.577-.81c-1.443-2.023-2.884-4.047-4.316-6.077-.1-.142-.201-.275-.328-.431-.536-.631-1.131-1.041-1.822-1.255l-.622-.11-2.335.585-7.572,2.852c-1.11.374-2.065.863-2.836,1.452C-.154,114.095-.01,116.556.007,116.671c0,0,.118,3.438.269,5.767.075,1.162,1.041,2.06,2.205,2.061l40.749.021Z" fill="#434343"/>
        </g>
        <g>
          <path d="M91.245,98.126c.717,1.477,1.773,2.84,3.231,4.159,1.447,1.31,3.289,2.035,5.342,2.035.007,0,.014,0,.021-.002l.279.007c1.91,0,3.761-.725,5.212-2.039,1.458-1.319,2.514-2.682,3.234-4.164,1.495-3.111,2.266-6.274,2.292-9.422l.006-.356c.009-.365.014-.729-.023-1.101-.369-3.68-2.459-6.329-6.048-7.662-1.487-.546-3.126-.833-4.903-.849-1.745.016-3.384.303-4.876.851-3.583,1.331-5.673,3.98-6.044,7.662-.035.369-.031.734-.022,1.099l.006.369c.026,3.134.797,6.297,2.294,9.413ZM100.116,102.545h0s0,.017,0,.017v-.017Z" fill="#434343"/>
          <path d="M120.276,124.52c1.164,0,2.131-.897,2.207-2.058.15-2.289.266-5.633.266-5.633.024-.273.168-2.735-2.434-4.721-.774-.59-1.729-1.078-2.775-1.429,0,0-7.354-2.79-7.365-2.794-1.555-.59-3.131-.755-4.59.298l-.303.245c-.43.395-.716.851-.944,1.218-.077.122-.151.245-.236.362l-4.198,5.894-.577-.81c-1.443-2.023-2.884-4.047-4.316-6.077-.1-.142-.201-.275-.328-.431-.536-.631-1.131-1.041-1.822-1.255l-.622-.11-2.335.585-7.572,2.852c-1.11.374-2.065.863-2.836,1.452-2.604,1.987-2.46,4.448-2.443,4.563,0,0,.118,3.438.269,5.767.075,1.162,1.041,2.06,2.205,2.061l40.749.021Z" fill="#434343"/>
        </g>
      </g>
    </g>
  </g>
</svg>