<?xml version='1.0' encoding='utf-8'?>
<svg xmlns="http://www.w3.org/2000/svg" id="Layer_2" data-name="Layer 2" viewBox="0 0 125.406 87.83">
  <g id="Color" fill="#00ABF6">
    <path d="M43.27,71.246c-1.403-5.931-6.744-10.353-13.097-10.353s-11.695,4.422-13.097,10.353c-.244,1.001-.371,2.043-.371,3.116,0,1.118.137,2.201.396,3.237,1.454,5.87,6.765,10.231,13.072,10.231s11.618-4.361,13.072-10.231c.259-1.037.396-2.119.396-3.237,0-1.072-.127-2.114-.371-3.116ZM30.172,81.223c-2.618,0-4.889-1.469-6.048-3.624-.518-.966-.813-2.068-.813-3.237,0-1.118.269-2.18.747-3.116,1.139-2.221,3.451-3.746,6.114-3.746s4.976,1.525,6.109,3.746c.483.935.752,1.997.752,3.116,0,1.169-.295,2.272-.813,3.237-1.159,2.155-3.436,3.624-6.048,3.624Z" />
    <path d="M108.33,71.266c-1.393-5.941-6.739-10.373-13.102-10.373s-11.695,4.422-13.097,10.353c-.244,1.001-.371,2.043-.371,3.116,0,1.118.137,2.201.396,3.237,1.454,5.87,6.765,10.231,13.072,10.231s11.608-4.351,13.067-10.211c.264-1.042.401-2.135.401-3.258,0-1.067-.122-2.099-.366-3.095ZM95.227,81.223c-2.607,0-4.879-1.459-6.038-3.603-.523-.971-.823-2.079-.823-3.258,0-1.118.269-2.18.747-3.116,1.139-2.221,3.451-3.746,6.114-3.746s4.991,1.53,6.119,3.766c.473.93.742,1.982.742,3.095,0,1.179-.3,2.287-.823,3.258-1.164,2.145-3.436,3.603-6.038,3.603Z" />
  </g>
  <g id="Grey" fill="#282828">
    <path d="M40.463,13.197c-7.602,0-13.792,6.19-13.792,13.793s6.19,13.792,13.792,13.792,13.792-6.19,13.792-13.792-6.19-13.793-13.792-13.793ZM48.135,23.154l-3.171,2.465c.125.429.194.9.194,1.357,0,2.576-2.105,4.681-4.681,4.681s-4.681-2.105-4.681-4.681c0-2.59,2.105-4.681,4.681-4.681.762,0,1.509.18,2.174.54l3.268-2.534c.374-.291.845-.429,1.329-.36.485.055.914.305,1.205.678.609.789.471,1.925-.319,2.534ZM40.463,13.197c-7.602,0-13.792,6.19-13.792,13.793s6.19,13.792,13.792,13.792,13.792-6.19,13.792-13.792-6.19-13.793-13.792-13.793ZM48.135,23.154l-3.171,2.465c.125.429.194.9.194,1.357,0,2.576-2.105,4.681-4.681,4.681s-4.681-2.105-4.681-4.681c0-2.59,2.105-4.681,4.681-4.681.762,0,1.509.18,2.174.54l3.268-2.534c.374-.291.845-.429,1.329-.36.485.055.914.305,1.205.678.609.789.471,1.925-.319,2.534ZM125.406,50.738c.014-4.805-1.592-8.876-5.054-12.352-8.253-8.267-16.354-16.673-24.538-25.009-2.229-2.271-4.861-3.586-8.129-3.531-2.008.042-4.03.014-6.176.014v-5.068c0-2.645-2.146-4.791-4.791-4.791H4.791C2.146,0,0,2.146,0,4.791v63.866c0,2.645,2.146,4.791,4.778,4.791h5.719c.055-1.246.235-2.479.526-3.684,2.105-8.876,9.984-15.108,19.151-15.108s17.061,6.231,19.165,15.149c.277,1.177.457,2.41.512,3.642h25.702c.056-1.246.235-2.479.526-3.684,2.105-8.876,9.984-15.108,19.152-15.108s17.06,6.231,19.165,15.163c.277,1.149.457,2.326.512,3.531,1.495-.014,3.005-.014,4.501-.028,4.847-.014,6.19-1.689,5.968-6.938-.222-5.221.014-10.428.028-15.648ZM40.463,45.642c-10.289,0-18.653-8.364-18.653-18.653s8.364-18.653,18.653-18.653,18.653,8.364,18.653,18.653-8.378,18.653-18.653,18.653ZM81.508,39.785v-22.807h1.592c1.62.014,3.13.014,4.722-.014.9-.014,1.759.222,2.908,1.385,2.673,2.728,5.345,5.47,8.004,8.198,4.237,4.362,8.599,8.821,12.975,13.238h-30.202ZM40.463,13.197c-7.602,0-13.792,6.19-13.792,13.793s6.19,13.792,13.792,13.792,13.792-6.19,13.792-13.792-6.19-13.793-13.792-13.793ZM48.135,23.154l-3.171,2.465c.125.429.194.9.194,1.357,0,2.576-2.105,4.681-4.681,4.681s-4.681-2.105-4.681-4.681c0-2.59,2.105-4.681,4.681-4.681.762,0,1.509.18,2.174.54l3.268-2.534c.374-.291.845-.429,1.329-.36.485.055.914.305,1.205.678.609.789.471,1.925-.319,2.534Z" fill="#D3D3D3" />
  </g>
</svg>