<?xml version='1.0' encoding='utf-8'?>
<svg xmlns="http://www.w3.org/2000/svg" id="Layer_2" data-name="Layer 2" viewBox="0 0 179.819 179.482">
  <g id="Color" fill="#00ABF6">
    <path d="M86.501,86.164V22.728h3.746c18.551,0,35.347,7.519,47.504,19.677,12.158,12.158,19.678,28.954,19.678,47.505s-7.52,35.348-19.678,47.505c-12.157,12.158-28.953,19.678-47.504,19.678s-35.348-7.52-47.505-19.678c-12.158-12.157-19.677-28.953-19.677-47.505v-3.746h63.436Z" />
  </g>
  <g id="Grey" fill="#282828">
    <path d="M90.248.339c24.734,0,47.127,10.025,63.336,26.235,16.209,16.209,26.235,38.603,26.235,63.336s-10.026,47.128-26.235,63.337c-16.209,16.209-38.603,26.235-63.336,26.235s-47.127-10.026-63.337-26.235C10.702,137.038.676,114.644.676,89.91h7.493c0,22.666,9.187,43.186,24.04,58.039,14.852,14.853,35.373,24.04,58.039,24.04s43.186-9.187,58.039-24.04c14.853-14.852,24.04-35.373,24.04-58.039s-9.187-43.186-24.04-58.039c-14.853-14.852-35.373-24.04-58.039-24.04V.339Z" fill="#D3D3D3" />
    <path d="M78.671,78.672H0C0,35.223,35.222,0,78.671,0v78.672Z" fill-rule="evenodd" fill="#D3D3D3" />
  </g>
</svg>