<?xml version="1.0" encoding="UTF-8"?>
<svg id="Layer_2" data-name="Layer 2" xmlns="http://www.w3.org/2000/svg" viewBox="0 0 123.054 111.319">
  <g id="Color">
    <path d="M61.527,46.629C27.599,46.629,0,74.232,0,108.16c0,1.06.029,2.111.082,3.159h122.89c.053-1.047.082-2.099.082-3.159,0-33.928-27.599-61.531-61.527-61.531ZM48.276,54.614c-5.229,5.41-9.509,13.953-12.29,24.535-5.044-2.522-9.645-5.767-13.723-9.69,7.032-7.135,15.987-12.364,26.013-14.845ZM32.47,108.074H6.363c.025-13.892,5.212-26.584,13.736-36.282,4.477,4.297,9.55,7.821,15.116,10.52-1.758,7.763-2.74,16.484-2.744,25.763ZM59.938,108.074h-24.284c.004-8.737.916-17.014,2.534-24.411,6.88,2.937,14.179,4.518,21.749,4.715v19.696ZM59.938,85.195c-7.315-.197-14.364-1.766-21.002-4.67,3.352-13.115,9-23.027,15.748-27.089,1.725-.218,3.479-.349,5.254-.403v32.162ZM100.791,69.459c-4.075,3.919-8.675,7.163-13.723,9.69-2.781-10.581-7.061-19.125-12.29-24.535,10.027,2.481,18.981,7.71,26.013,14.845ZM63.117,53.033c1.774.053,3.528.185,5.258.403,6.745,4.062,12.397,13.974,15.744,27.089-6.63,2.904-13.682,4.473-21.002,4.67v-32.162ZM63.117,108.074v-19.696c7.574-.197,14.873-1.779,21.75-4.715,1.622,7.398,2.53,15.674,2.538,24.411h-24.288ZM90.584,108.074c-.004-9.279-.986-17.999-2.744-25.763,5.57-2.703,10.639-6.227,15.116-10.52,8.523,9.698,13.711,22.39,13.736,36.282h-26.108Z" fill="#70b2e2"/>
  </g>
  <g id="Grey">
    <g id="Global_Communication" data-name="Global Communication">
      <g>
        <g>
          <path d="M25.931,19.19c5.043.09,9.656-4.449,9.707-9.546C35.689,4.472,31.31.035,26.127,0c-5.227-.035-9.64,4.249-9.73,9.448-.086,5.023,4.441,9.652,9.534,9.742Z" fill="#434343"/>
          <path d="M40.648,40.39c0,1.097-.016,2.222-.037,3.385-9.76,3.179-18.554,8.519-25.812,15.453-.074-2.087-.164-4.165-.263-6.198-.016-.131-.016-.242-.016-.374-.021-.464-.045-.879-.07-1.327-.086-.172-.218-.353-.353-.526-.021-.045-.062-.09-.086-.111-.863-1.015-1.503-2.029-1.918-3.068-.419-.99-.641-2.05-.661-3.13-.02-1.417-.045-2.781-.045-4.103-.045-4.038-.025-7.611.045-11.029.021-.378.111-1.191.197-2.013.066-.637.136-1.232.136-1.475.037-.665.349-1.569,1.631-1.967l.177-.041c1.257-.398,2.559-.822,3.684-1.212.086-.025.242-.086.394-.156.201-.066.398-.136.616-.222.378-.131.801-.267,1.13-.353.111-.021.197-.045.267-.07h.107c.152.049.283.136.419.247.045.045.086.107.131.177.255.152,3.454,4.453,4.937,6.461.193.259.477.386.76.382.283.004.567-.123.756-.382,1.487-2.009,4.687-6.309,4.941-6.461.045-.07.086-.131.131-.177.131-.111.267-.197.415-.247h.111c.07.025.156.049.267.07.329.086.752.222,1.125.353.222.086.419.156.62.222.152.07.308.131.394.156,1.126.39,2.428.813,3.684,1.212l.177.041c1.278.398,1.59,1.302,1.631,1.967,0,.242.07.838.136,1.475.086.822.177,1.635.193,2.013.07,3.418.095,6.991.049,11.029Z" fill="#434343"/>
        </g>
        <g>
          <path d="M61.442,19.19c5.043.09,9.656-4.449,9.707-9.546C71.199,4.472,66.821.035,61.637,0c-5.227-.035-9.64,4.249-9.73,9.448-.086,5.023,4.441,9.652,9.534,9.742Z" fill="#434343"/>
          <path d="M76.158,40.39c0,.546-.004,1.105-.012,1.668-4.707-1.039-9.599-1.59-14.619-1.59s-9.912.55-14.619,1.59c-.008-.563-.012-1.121-.012-1.668-.045-4.038-.021-7.611.045-11.029.02-.378.111-1.191.197-2.013.066-.637.136-1.232.136-1.475.041-.665.353-1.569,1.631-1.967l.177-.041c1.257-.398,2.559-.822,3.684-1.212.086-.025.242-.086.394-.156.201-.066.399-.136.62-.222.374-.131.797-.267,1.126-.353.111-.021.197-.045.267-.07h.111c.148.049.283.136.415.247.045.045.086.107.131.177.255.152,3.454,4.453,4.941,6.461.189.259.472.386.756.382.283.004.567-.123.756-.382,1.487-2.009,4.687-6.309,4.941-6.461.045-.07.086-.131.132-.177.136-.111.267-.197.415-.247h.111c.07.025.156.049.267.07.329.086.752.222,1.13.353.218.086.415.156.616.222.152.07.308.131.394.156,1.125.39,2.428.813,3.684,1.212l.177.041c1.277.398,1.59,1.302,1.631,1.967,0,.242.07.838.136,1.475.086.822.177,1.635.197,2.013.066,3.418.09,6.991.045,11.029Z" fill="#434343"/>
        </g>
        <path d="M96.952,19.19c5.043.09,9.656-4.449,9.707-9.546C106.709,4.472,102.331.035,97.148,0c-5.227-.035-9.64,4.249-9.73,9.448-.086,5.023,4.441,9.652,9.535,9.742Z" fill="#434343"/>
        <path d="M111.668,40.39c0,1.323-.025,2.686-.045,4.103-.021,1.08-.242,2.14-.661,3.13-.415,1.039-1.056,2.054-1.918,3.068-.025.021-.066.066-.086.111-.135.173-.267.353-.353.526-.025.448-.045.863-.07,1.327,0,.131,0,.242-.016.374-.095,2.033-.189,4.112-.263,6.198-7.258-6.934-16.052-12.273-25.812-15.453-.021-1.162-.037-2.288-.037-3.385-.045-4.038-.021-7.611.049-11.029.016-.378.107-1.191.193-2.013.066-.637.136-1.232.136-1.475.041-.665.353-1.569,1.631-1.967l.181-.041c1.253-.398,2.555-.822,3.68-1.212.086-.025.242-.086.394-.156.201-.066.398-.136.62-.222.374-.131.797-.267,1.126-.353.111-.021.197-.045.267-.07h.111c.148.049.283.136.415.247.045.045.086.107.131.177.255.152,3.454,4.453,4.941,6.461.189.259.472.386.756.382.283.004.567-.123.76-.382,1.483-2.009,4.683-6.309,4.937-6.461.045-.07.086-.131.131-.177.136-.111.267-.197.419-.247h.107c.07.025.156.049.267.07.329.086.752.222,1.13.353.218.086.415.156.616.222.152.07.308.131.394.156,1.13.39,2.428.813,3.685,1.212l.177.041c1.282.398,1.594,1.302,1.631,1.967,0,.242.07.838.136,1.475.086.822.177,1.635.197,2.013.07,3.418.09,6.991.045,11.029Z" fill="#434343"/>
      </g>
    </g>
  </g>
</svg>