<?xml version="1.0" encoding="UTF-8"?>
<svg id="Layer_2" data-name="Layer 2" xmlns="http://www.w3.org/2000/svg" viewBox="0 0 124.69 120.05">
  <g id="Color">
    <path d="M81.062,0c-19.394,0-35.172,15.778-35.172,35.172s15.778,35.172,35.172,35.172,35.172-15.778,35.172-35.172S100.456,0,81.062,0ZM110.685,24.522c-3.398-.742-6.883-1.122-10.399-1.122-1.692,0-3.368.096-5.025.268-.672-1.645-2.211-2.842-4.051-3.02-1.044-5.912-3.174-11.561-6.323-16.716,11.94,1.454,21.839,9.612,25.798,20.591ZM112.544,35.172c0,3.233-.491,6.354-1.401,9.292-3.771-7.084-9.205-13.065-15.743-17.475.089-.283.151-.578.187-.881,1.55-.158,3.117-.248,4.7-.248,3.814,0,7.589.467,11.245,1.384.66,2.534,1.013,5.19,1.013,7.928ZM107.418,52.358c-4.009,1.115-8.161,1.684-12.364,1.684-1.962,0-3.899-.128-5.807-.367.012-.137.021-.275.021-.415,0-1.496-.673-2.834-1.731-3.731,2.743-5.951,4.264-12.481,4.41-19.278.815-.209,1.547-.62,2.14-1.179,6.783,4.592,12.316,10.963,15.889,18.541-.718,1.661-1.576,3.246-2.557,4.745ZM67.708,45.079c.175-.503.275-1.042.275-1.605,0-1.223-.451-2.338-1.193-3.196,5.389-5.693,12.176-9.946,19.714-12.307.645,1.109,1.712,1.939,2.983,2.273-.145,6.421-1.583,12.59-4.17,18.216-.305-.06-.62-.093-.942-.093-2.067,0-3.831,1.284-4.548,3.096-4.358-1.52-8.44-3.676-12.119-6.384ZM85.843,25.601c-8.093,2.521-15.365,7.115-21.101,13.272-.517-.186-1.072-.292-1.652-.292-.745,0-1.448.171-2.08.469-3.885-4.256-7.009-9.276-9.111-14.89,8.186-3.129,17.031-3.843,25.693-2.056,2.876.594,5.66,1.461,8.325,2.568-.048.275-.078.557-.078.845,0,.028.004.056.004.084ZM81.062,3.69c.258,0,.512.013.768.019,3.507,5.276,5.853,11.146,6.95,17.321-.722.315-1.354.798-1.844,1.4-2.831-1.181-5.79-2.106-8.847-2.737-8.48-1.749-17.126-1.222-25.228,1.508,5.157-10.367,15.858-17.511,28.201-17.511ZM50.558,27.382c2.146,4.931,5.054,9.384,8.559,13.243-.577.803-.92,1.785-.92,2.849,0,1.04.327,2.002.88,2.795-1.401,2.249-2.626,4.631-3.658,7.13-3.67-5.148-5.838-11.438-5.838-18.227,0-2.688.34-5.297.977-7.79ZM57.174,55.642c1.033-2.734,2.31-5.327,3.8-7.761.641.308,1.356.486,2.115.486,1.248,0,2.383-.471,3.248-1.24,4,2.93,8.449,5.245,13.201,6.841.134.921.52,1.759,1.091,2.439-2.425,3.295-5.312,6.295-8.624,8.913-5.835-1.756-10.958-5.164-14.831-9.677ZM81.062,66.653c-2.082,0-4.116-.208-6.086-.596,2.899-2.473,5.462-5.234,7.662-8.227.54.205,1.124.323,1.736.323,1.669,0,3.142-.837,4.025-2.113,2.183.299,4.403.462,6.655.462,3.401,0,6.77-.359,10.065-1.055-5.78,6.846-14.417,11.206-24.057,11.206Z" fill="#70b2e2"/>
  </g>
  <g id="Grey">
    <path d="M121.703,87.016c-1.454-.189-3.095.128-4.499.638-8.45,3.068-16.49,6.645-24.906,9.804-.415.156-.896.331-1.166.65-2.191,2.582-5.078,3.625-8.314,3.663-5.235.062-10.469.237-15.703.362-3.55.084-7.101.176-10.651.24-.897.016-2.027-.983-2.086-2.032-.059-1.05.658-1.408,1.569-1.498.362-.036.726-.062,1.09-.071,4.415-.113,8.829-.222,13.244-.331,4.642-.115,9.289-.148,13.925-.375,3.242-.159,5.446-2.571,5.499-5.677.057-3.335-2.529-5.857-6.045-5.79-5.209.099-11.798-.613-17.14-1.441-6.355-.985-9.447-4.238-15.612-6.22-9.5-3.054-19.225-1.946-29.034-1.745-.017-.683-.033-1.366-.051-2.048-.055-2.158-1.104-3.097-3.288-3.047-5.731.131-11.461.272-17.192.413-.353.009-.704.053-1.342.104.32,3.054.538,6.031.957,8.98,1.564,10.993,5.396,21.157,11.404,30.49.275.427.964.812,1.471.826,1.953.052,3.911-.038,5.866-.106,1.938-.068,3.003-1.167,2.958-3.14-.013-.56-.027-1.119-.039-1.679.009.003.016.006.026.008,4.409,1.254,8.798,2.582,13.202,3.854,8.199,2.367,16.351,4.923,24.623,7.002,6.861,1.725,13.778,1.928,20.3-1.663,13.817-7.607,27.647-15.193,41.452-22.822.689-.381,1.312-1.006,1.771-1.655,1.56-2.208.386-5.347-2.287-5.694Z" fill="#434343"/>
  </g>
</svg>