<?xml version="1.0" encoding="UTF-8"?>
<svg id="Layer_2" data-name="Layer 2" xmlns="http://www.w3.org/2000/svg" viewBox="0 0 178.181 178.181">
  <g id="Color">
    <path d="M87.217,153.914v-9.825h7.493v9.825h-7.493ZM87.217,105.27v-9.825h7.493v9.825h-7.493Z" fill="#64b5f6"/>
    <polygon points="84.09 104.075 97.837 104.075 102.42 104.075 102.42 107.821 102.42 141.538 102.42 145.284 97.837 145.284 84.09 145.284 79.508 145.284 79.508 141.538 79.508 107.821 79.508 104.075 84.09 104.075" fill="#64b5f6"/>
    <path d="M141.756,117.59v-9.825h7.492v9.825h-7.492ZM141.756,68.945v-9.825h7.492v9.825h-7.492Z" fill="#64b5f6"/>
    <polygon points="138.628 67.751 152.375 67.751 156.958 67.751 156.958 71.497 156.958 105.213 156.958 108.96 152.375 108.96 138.628 108.96 134.046 108.96 134.046 105.213 134.046 71.497 134.046 67.751 138.628 67.751" fill="#64b5f6"/>
    <path d="M48.099,81.598v-9.825h7.493v9.825h-7.493ZM48.099,32.954v-9.825h7.493v9.825h-7.493Z" fill="#64b5f6"/>
    <polygon points="44.972 31.759 58.719 31.759 63.302 31.759 63.302 35.505 63.302 69.222 63.302 72.968 58.719 72.968 44.972 72.968 40.39 72.968 40.39 69.222 40.39 35.505 40.39 31.759 44.972 31.759" fill="#64b5f6"/>
    <path d="M96.366,65.142v-9.825h7.492v9.825h-7.492ZM96.366,16.498V6.673h7.492v9.825h-7.492Z" fill="#64b5f6"/>
    <polygon points="93.238 15.303 106.985 15.303 111.568 15.303 111.568 19.05 111.568 52.766 111.568 56.512 106.985 56.512 93.238 56.512 88.655 56.512 88.655 52.766 88.655 19.05 88.655 15.303 93.238 15.303" fill="#64b5f6"/>
  </g>
  <g id="Grey">
    <polygon points="13.346 164.835 178.181 164.835 178.181 178.181 0 178.181 0 0 13.346 0 13.346 164.835" fill="#424242" fill-rule="evenodd"/>
  </g>
</svg>