<?xml version="1.0" encoding="UTF-8"?>
<svg id="Layer_2" data-name="Layer 2" xmlns="http://www.w3.org/2000/svg" viewBox="0 0 104.616 125.632">
  <g id="Color">
    <path d="M54.377,35.38c0,2.538-2.128,4.666-4.647,4.666-2.558,0-4.666-2.089-4.686-4.666,0-2.616,2.03-4.705,4.744-4.744,1.191,0,2.343.488,3.221,1.386.898.898,1.386,2.109,1.367,3.358Z" fill="#70b2e2"/>
    <path d="M61.138,72.607c-.721.293-1.486.451-2.207.451-6.171.023-7.5.023-13.671.023-2.613-.023-4.527-1.779-4.572-4.167,0-2.455,1.869-4.257,4.459-4.324.473,0,.698-.023.833-.023l.225.023h1.757v-5.022c0-1.396,0-2.86-.067-4.279,0-.676-.653-1.396-1.239-1.554-2.387-.676-3.806-2.432-3.558-4.504.248-2.387,2.004-3.896,4.549-3.941.473,0,.969,0,1.441-.023h1.396c.45,0,.923,0,1.374.023,2.725.068,4.482,1.847,4.482,4.527v14.774h1.779l.27-.023c.158,0,.405.023.901.023,2.185.09,3.761,1.419,4.144,3.423.36,2.027-.563,3.874-2.297,4.594Z" fill="#70b2e2"/>
  </g>
  <g id="Grey">
    <path d="M97.822,60.118c-1.672-3.628-.087-7.925,3.541-9.597,1.055-.486,2.166-.695,3.253-.661-.092-2.5-.365-4.96-.802-7.37-2.233.567-4.698.062-6.559-1.573-3.002-2.636-3.299-7.206-.663-10.208.767-.874,1.698-1.516,2.707-1.926-1.095-2.225-2.345-4.363-3.736-6.402-1.809,1.421-4.263,1.958-6.626,1.221-3.814-1.189-5.941-5.245-4.752-9.058.345-1.108.934-2.072,1.686-2.855-1.89-1.582-3.896-3.035-6.006-4.344-1.075,2.037-3.101,3.528-5.562,3.814-3.968.463-7.56-2.379-8.022-6.347-.135-1.154.012-2.275.383-3.298-2.35-.667-4.771-1.178-7.255-1.516-.158,2.294-1.403,4.476-3.532,5.735-3.438,2.035-7.874.897-9.909-2.541-.593-1.002-.914-2.088-.99-3.174-2.471.347-4.892.87-7.249,1.555.793,2.163.543,4.668-.894,6.688-2.315,3.256-6.831,4.018-10.087,1.703-.945-.672-1.679-1.53-2.189-2.489-2.098,1.314-4.099,2.773-5.988,4.366,1.597,1.654,2.382,4.04,1.891,6.464-.793,3.915-4.61,6.446-8.525,5.653-1.139-.231-2.159-.718-3.016-1.389-1.379,2.039-2.618,4.183-3.705,6.421,2.137.861,3.828,2.725,4.365,5.144.866,3.9-1.594,7.763-5.494,8.629-1.132.251-2.26.221-3.314-.042-.26,1.475-.462,2.971-.597,4.49-.086.964-.143,1.925-.176,2.881,2.299-.078,4.596.938,6.067,2.927,2.375,3.212,1.697,7.741-1.515,10.117-.936.692-1.983,1.123-3.057,1.31.599,2.416,1.365,4.772,2.29,7.052,2.071-1.01,4.588-1.016,6.743.206,3.475,1.97,4.695,6.384,2.725,9.86-.571,1.008-1.349,1.825-2.249,2.43,1.611,2.069,3.374,4.017,5.277,5.826,1.467-1.772,3.752-2.816,6.216-2.597.735.066,1.434.24,2.083.504.047,1.383.085,2.511.116,2.939v12.958l-.015,1.913c-.022,1.488-.037,3.022.052,4.592.193,3.528,2.65,6.237,6.103,6.735,1.868.268,3.87.439,6.505.566,1.355.067,1.533.432,1.652.677,2.203,4.517,7.413,7.457,13.314,7.524,5.902-.067,11.111-3.007,13.314-7.524.119-.246.298-.61,1.652-.677,2.635-.126,4.637-.298,6.505-.566,3.453-.498,5.909-3.208,6.103-6.735.089-1.57.074-3.103.052-4.592l-.015-1.913v-12.958c.032-.443.072-1.637.121-3.087,1.844-.936,4.074-1.081,6.124-.203,1.066.456,1.964,1.14,2.666,1.968,1.769-1.722,3.42-3.569,4.935-5.53-1.915-1.278-3.19-3.446-3.224-5.922-.055-3.994,3.14-7.277,7.134-7.331,1.163-.016,2.265.245,3.245.72.908-2.275,1.665-4.633,2.252-7.063-2.269-.39-4.314-1.853-5.351-4.101ZM84.391,54.732c-1.588,17.833-17.331,31.003-35.165,29.416-17.833-1.588-31.003-17.331-29.416-35.165s17.331-31.003,35.165-29.416c17.833,1.588,31.003,17.331,29.416,35.165Z" fill="#434343"/>
  </g>
</svg>