<?xml version="1.0" encoding="UTF-8"?>
<svg id="Layer_2" data-name="Layer 2" xmlns="http://www.w3.org/2000/svg" viewBox="0 0 41.206 41.196">
  <g id="Grey">
    <g>
      <path d="M7.199,14.395v.515c.034-.021.068-.043.102-.065,0,0,.002-.003.004-.003,0-.186.004-.365.009-.545-.037.032-.075.068-.115.099Z" fill="#242528"/>
      <path d="M7.199,11.903v2.001c.053-.061.098-.126.138-.197.096-1.819.395-3.44.86-4.828-.555.916-.896,1.943-.998,3.024Z" fill="#242528"/>
      <path d="M7.199,16.183v.459c.066-.027.134-.058.204-.091-.019-.148-.036-.294-.049-.444-.052.025-.103.054-.155.076Z" fill="#242528"/>
      <path d="M14.344,4.633c-1.852.002-3.609.634-5.025,1.796-.226.368-.437.764-.63,1.19.105-.119.214-.235.327-.35,1.423-1.426,3.315-2.215,5.328-2.218,2.29,0,4.345,1.027,5.731,2.642-.193-.432-.402-.832-.628-1.205-1.383-1.157-3.162-1.855-5.103-1.855Z" fill="#242528"/>
      <path d="M14.564,12.593c0-.116-.094-.21-.209-.21h0c-.115,0-.209.094-.209.21.002,3.017-1.186,5.374-3.534,7.007-.589.409-1.18.721-1.707.952.086.116.175.23.267.342.518-.235,1.089-.54,1.665-.94,1.702-1.18,3.73-3.415,3.726-7.36Z" fill="#242528"/>
      <path d="M16.172,12.591c-.003-1-.817-1.814-1.819-1.814-.484.003-.939.19-1.282.536-.343.342-.531.799-.53,1.283.003,2.458-.955,4.371-2.845,5.686-.547.38-1.11.662-1.596.862.057.132.116.259.179.381.504-.208,1.086-.503,1.656-.898,2.01-1.398,3.026-3.428,3.024-6.03,0-.373.144-.726.408-.989.264-.264.614-.408.985-.408.771,0,1.399.624,1.399,1.392.005,4.46-2.303,6.996-4.238,8.339-.489.34-.98.619-1.444.85.12.099.246.19.373.279.426-.219.869-.479,1.311-.787,2.018-1.398,4.422-4.041,4.418-8.681Z" fill="#242528"/>
      <path d="M14.347,6.17c-1.715.003-3.327.672-4.54,1.888-1.212,1.215-1.878,2.828-1.876,4.541,0,.771-.188,1.296-.617,1.697-.005.18-.008.359-.009.545.714-.5,1.046-1.213,1.045-2.242-.003-1.602.62-3.11,1.753-4.247,1.134-1.134,2.641-1.761,4.244-1.763,3.311,0,6.009,2.689,6.014,5.997.005,4.972-2.002,8.31-4.223,10.484.284-.068.561-.152.831-.254,2.062-2.234,3.814-5.522,3.811-10.23-.006-3.539-2.891-6.416-6.433-6.416Z" fill="#242528"/>
      <path d="M17.708,12.588c-.003-1.844-1.509-3.346-3.356-3.346-.895,0-1.736.35-2.368.984-.633.634-.98,1.476-.979,2.369,0,1.926-.734,3.415-2.186,4.425-.407.283-.831.499-1.208.662.034.139.071.273.109.408.414-.175.886-.411,1.338-.726,1.572-1.094,2.368-2.699,2.366-4.77,0-.781.303-1.52.856-2.072.554-.556,1.29-.863,2.072-.863,1.617,0,2.936,1.314,2.937,2.931.005,5.124-2.66,8.05-4.898,9.6-.267.185-.533.353-.796.507.163.071.328.135.496.19.179-.111.359-.229.538-.352,2.32-1.608,5.084-4.64,5.079-9.947Z" fill="#242528"/>
      <path d="M19.242,12.588c-.002-2.691-2.198-4.883-4.894-4.883-1.304.002-2.531.512-3.453,1.435-.923.926-1.43,2.153-1.428,3.458.002,1.41-.498,2.445-1.528,3.16-.192.135-.392.249-.585.348.013.15.029.297.049.444.252-.122.519-.269.774-.446,1.152-.802,1.71-1.948,1.709-3.506,0-1.192.462-2.316,1.305-3.161.844-.845,1.965-1.311,3.157-1.314,2.465,0,4.473,2.004,4.477,4.465.005,5.541-2.765,8.814-5.228,10.63.209.023.421.035.635.04,2.437-1.923,5.018-5.243,5.011-10.67Z" fill="#242528"/>
    </g>
  </g>
  <g id="Color">
    <rect x="25.908" y="19.797" width="3.396" height="15.607" transform="translate(-11.431 27.621) rotate(-45.024)" fill="#00abf6"/>
    <path d="M23.884,23.88c-5.455,5.459-14.339,5.459-19.793,0C-1.364,18.423-1.364,9.547,4.091,4.092c5.457-5.456,14.34-5.456,19.793,0,5.461,5.455,5.461,14.331,0,19.788ZM5.893,5.889c-4.461,4.454-4.468,11.731,0,16.188,4.459,4.468,11.727,4.468,16.193,0,4.462-4.457,4.462-11.728,0-16.188C17.62,1.429,10.352,1.429,5.893,5.889Z" fill="#00abf6"/>
    <polygon points="37.591 41.196 41.206 37.581 30.96 27.345 27.351 30.952 37.591 41.196" fill="#00abf6"/>
  </g>
</svg>