<?xml version="1.0" encoding="UTF-8"?>
<svg id="Layer_2" data-name="Layer 2" xmlns="http://www.w3.org/2000/svg" viewBox="0 0 35.445 45.747">
  <g id="Grey">
    <path d="M0,0v35.05h11.183c-.035-.094-.067-.188-.107-.284-.302-.73-.717-1.73-.513-3.701.076-.746.182-1.284.269-1.731.104-.52.152-.784.125-1.102l-.14-1.95c-.063-.771.11-1.393.519-1.834.387-.422.925-.632,1.603-.632l.233.005c.362.02,1.3.142,1.987.865v-3.402h-1.472c-.07,0-.128-.059-.128-.127v-7.839c0-.071.058-.127.128-.127h7.888c.069,0,.128.056.128.127v7.134c.737.221,1.387.754,1.694,1.464.267-.094.554-.145.849-.145,1.118,0,2.071.713,2.445,1.71.864-.259,1.902-.02,2.577.657.171.172.306.367.422.573h3.406c.069,0,.128.059.128.129v7.839c0,.068-.058.125-.128.125h-2.413c.014.251.032.497.045.758.019.384-.007.889-.069,1.487h4.786V0H0ZM10.181,32.68c0,.068-.055.125-.127.125H2.168c-.072,0-.128-.057-.128-.125v-7.839c0-.07.056-.129.128-.129h7.886c.072,0,.127.059.127.129v7.839ZM10.181,21.157c0,.068-.055.127-.127.127H2.168c-.072,0-.128-.059-.128-.127v-7.839c0-.071.056-.127.128-.127h7.886c.072,0,.127.056.127.127v7.839ZM10.181,9.638c0,.068-.055.127-.127.127H2.168c-.072,0-.128-.059-.128-.127V1.796c0-.068.056-.124.128-.124h7.886c.072,0,.127.056.127.124v7.842ZM21.703,9.638c0,.068-.059.127-.128.127h-7.888c-.07,0-.128-.059-.128-.127V1.796c0-.068.058-.124.128-.124h7.888c.069,0,.128.056.128.124v7.842ZM33.225,21.157c0,.068-.058.127-.128.127h-7.889c-.068,0-.127-.059-.127-.127v-7.839c0-.071.059-.127.127-.127h7.889c.069,0,.128.056.128.127v7.839ZM33.225,9.638c0,.068-.058.127-.128.127h-7.889c-.068,0-.127-.059-.127-.127V1.796c0-.068.059-.124.127-.124h7.889c.069,0,.128.056.128.124v7.842Z" fill="#242528"/>
  </g>
  <g id="Color">
    <rect x="16.068" y="41.28" width="12.103" height="4.467" fill="#00abf6"/>
    <path d="M16.311,41.59h11.861v.233c.703-2.961,1.464-6.611,1.386-8.202-.202-4.019-.687-6.834-.687-6.837v-.761c.003-.815-.645-1.48-1.439-1.48s-1.437.66-1.437,1.48v.289l-.307-.048v-1.845c0-.814-.647-1.476-1.441-1.476s-1.439.657-1.439,1.476v1.375l-.36-.058v-2.758c0-.813-.643-1.474-1.435-1.474-.798,0-1.442.66-1.442,1.474v2.289l-.361-.059v-8.372c.004-.814-.641-1.476-1.435-1.474-.796,0-1.439.657-1.439,1.474v9.339s0,3.917-.635,5.629c-.28.754-.82-1.561-.922-1.999.073-.558-.089-2.98-.089-2.98.142-1.48-.994-1.804-1.595-1.832-.852-.059-1.18.33-1.107,1.205l.14,1.938c.073.878-.232,1.448-.396,3.047-.225,2.166.382,2.836.651,3.724.585,1.923,2.099,5.719,3.688,6.518.081.04.161.099.242.165Z" fill="#00abf6"/>
  </g>
</svg>