<?xml version="1.0" encoding="UTF-8"?>
<svg id="Layer_2" data-name="Layer 2" xmlns="http://www.w3.org/2000/svg" viewBox="0 0 29.885 39.83">
  <g id="Layer_1-2" data-name="Layer 1">
    <path d="M10.858,5.936h8.17c.359,0,.65.291.65.65v1.74c0,.36-.292.652-.652.652h-8.17c-.359,0-.65-.291-.65-.65v-1.74c0-.36.292-.652.652-.652Z" fill="#363636"/>
  </g>
  <g id="Grey">
    <path d="M10.579,19.225c-.017.104-.021.209-.021.314,0,1.412,1.372,2.605,3.239,2.955v-5.916c-1.727.33-3.035,1.369-3.218,2.646Z" fill="#363636"/>
    <path d="M16.089,30.922c1.866-.354,3.243-1.543,3.243-2.959v-.004c-.008-1.41-1.382-2.598-3.243-2.951v5.914Z" fill="#363636"/>
    <path d="M22.102,10.117H7.784C3.147,13.295,0,19.395,0,26.01c0,9.646,6.691,13.82,14.942,13.82s14.942-4.174,14.942-13.82c0-6.615-3.146-12.715-7.783-15.893ZM21.622,27.963c0,2.645-2.396,4.844-5.533,5.283v.293c0,.633-.514,1.146-1.146,1.146s-1.145-.514-1.145-1.146v-.297c-3.138-.435-5.534-2.635-5.534-5.279,0-.629.514-1.141,1.146-1.141s1.149.512,1.149,1.141c0,1.418,1.372,2.605,3.239,2.961v-6.106c-3.138-.438-5.534-2.639-5.534-5.279,0-.373.047-.73.135-1.078.55-2.147,2.7-3.826,5.399-4.201v-.295c0-.635.514-1.147,1.145-1.147s1.146.512,1.146,1.147v.295c3.137.436,5.533,2.639,5.533,5.279,0,.631-.514,1.145-1.143,1.145-.638,0-1.146-.514-1.146-1.145,0-1.416-1.377-2.609-3.243-2.961v6.109c3.137.435,5.533,2.637,5.533,5.275Z" fill="#363636"/>
  </g>
  <g id="Color">
    <path d="M7.555,4.797h14.775c2.424-1.406,4.244-3.689,2.709-4.5-1.252-.66-4.376-.137-6.93.773C17.417.432,16.555,0,15.619,0,14.507,0,13.5.606,12.758,1.451,10.083.317,6.265-.451,4.846.297c-1.535.811.285,3.094,2.709,4.5Z" fill="#00abf6"/>
  </g>
</svg>