<?xml version="1.0" encoding="UTF-8"?>
<svg id="Layer_2" data-name="Layer 2" xmlns="http://www.w3.org/2000/svg" viewBox="0 0 122.52 122.462">
  <g id="Grey">
    <g id="Options">
      <path d="M118.647,74.305c-4.926-2.282-8.344-7.262-8.344-13.05s3.428-10.783,8.366-13.061c2.961-1.366,4.58-4.63,3.531-7.717-.915-2.694-2.004-5.307-3.254-7.826-1.436-2.894-4.833-4.072-7.89-3.024-5.033,1.725-10.829.585-14.846-3.432s-5.155-9.798-3.44-14.827c1.035-3.036-.147-6.407-3.025-7.823-2.521-1.24-5.136-2.319-7.831-3.225-3.019-1.014-6.22.474-7.692,3.299-2.4,4.605-7.216,7.749-12.768,7.749s-10.368-3.145-12.768-7.749c-1.471-2.822-4.669-4.314-7.686-3.301-2.655.891-5.233,1.951-7.72,3.168-2.819,1.379-4.202,4.629-3.294,7.634,1.485,4.913.292,10.458-3.592,14.342s-9.457,5.084-14.378,3.584c-3.09-.942-6.449.417-7.901,3.303-1.238,2.461-2.323,5.012-3.241,7.641-1.024,2.934.373,6.085,3.11,7.556,4.514,2.427,7.584,7.187,7.584,12.672,0,5.663-3.27,10.561-8.025,12.912-2.751,1.36-4.187,4.464-3.261,7.39.834,2.638,1.834,5.203,2.989,7.682,1.409,3.027,4.88,4.421,8.079,3.465,4.905-1.466,10.437-.264,14.311,3.611,4.089,4.089,5.197,10.022,3.335,15.117-1.069,2.924.077,6.212,2.838,7.652,2.588,1.35,5.279,2.529,8.06,3.522,2.977,1.063,6.181-.432,7.546-3.283,2.317-4.839,7.253-8.182,12.977-8.182,5.812,0,10.809,3.446,13.079,8.405,1.374,3.002,4.656,4.673,7.796,3.653,2.726-.885,5.373-1.948,7.926-3.175,2.892-1.39,4.067-4.788,2.951-7.797-1.896-5.109-.797-11.073,3.309-15.179,4.135-4.135,10.153-5.221,15.286-3.271,3.085,1.172,6.597.039,8.075-2.912,1.263-2.522,2.365-5.138,3.292-7.836,1.054-3.068-.539-6.324-3.482-7.687ZM61.26,92.432c-17.232,0-31.201-13.969-31.201-31.201s13.969-31.201,31.201-31.201,31.201,13.969,31.201,31.201-13.969,31.201-31.201,31.201Z" fill="#434343"/>
    </g>
  </g>
</svg>