<?xml version="1.0" encoding="UTF-8"?>
<svg id="Layer_2" data-name="Layer 2" xmlns="http://www.w3.org/2000/svg" viewBox="0 0 124.329 83.561">
  <g id="Color">
    <path d="M93.771,41.738c-2.979,0-5.682,1.082-7.839,2.817-2.159-1.738-4.866-2.821-7.853-2.821-6.954,0-12.592,5.638-12.592,12.592s5.638,12.592,12.592,12.592c2.986,0,5.692-1.082,7.85-2.819,2.157,1.738,4.861,2.821,7.841,2.821,6.965,0,12.603-5.638,12.603-12.603s-5.638-12.579-12.603-12.579ZM93.771,63.367c-2.027,0-3.88-.697-5.389-1.832,1.433-2.044,2.289-4.522,2.289-7.209s-.855-5.162-2.287-7.206c1.508-1.132,3.361-1.829,5.387-1.829,4.999,0,9.05,4.051,9.05,9.026s-4.051,9.05-9.05,9.05Z" fill="#70b2e2"/>
  </g>
  <g id="Grey">
    <path d="M109.201,0H15.128C6.79,0,0,6.79,0,15.128v53.305c0,8.338,6.79,15.128,15.128,15.128h94.073c8.368,0,15.128-6.79,15.128-15.128V15.128c0-8.338-6.76-15.128-15.128-15.128ZM114.442,68.82c0,2.68-2.174,4.854-4.854,4.854H14.741c-2.68,0-4.854-2.174-4.854-4.854v-33.442h104.555v33.442ZM114.442,23.258H9.887v-8.517c0-2.68,2.174-4.854,4.854-4.854h94.847c2.68,0,4.854,2.174,4.854,4.854v8.517Z" fill="#434343"/>
  </g>
</svg>