<?xml version="1.0" encoding="UTF-8"?>
<svg id="Layer_2" data-name="Layer 2" xmlns="http://www.w3.org/2000/svg" viewBox="0 0 122.235 125.951">
  <g id="Color">
    <path d="M62.879,48.344l18.924,9.66c1.098-2.643,1.706-5.54,1.706-8.581,0-11.773-9.088-21.418-20.63-22.318v21.238Z" fill="#70b2e2"/>
  </g>
  <g id="Grey">
    <g id="Graphical">
      <path d="M75.236,58.421c-3.1,4.857-8.354,7.754-14.121,7.754-9.236,0-16.751-7.515-16.751-16.751,0-8.554,6.572-15.79,15.034-16.651v-5.077l-.046-.591c-11.542.903-20.63,10.544-20.63,22.319,0,12.367,10.026,22.393,22.393,22.393,8.069,0,15.139-4.271,19.082-10.671l-.802-.494-4.159-2.231Z" fill="#434343"/>
      <path d="M118.735,7.781h-53.583c0-1.375.019-2.631-.046-3.96-.074-.932-.471-2.308-1.422-3.083-.702-.554-1.68-.738-2.363-.738h-.415c-.674,0-1.652.184-2.354.738-.96.775-1.357,2.151-1.422,3.083-.074,1.329-.046,2.585-.046,3.96H3.501C1.516,7.966.048,9.489.002,11.4c-.074,1.957,1.578,3.637,3.637,3.729.462.018.978.018,1.578.018h.702v18.96c.028,12.988.046,31.079-.046,44.251-.019,3.498,1.265,6.72,3.664,9.147,2.354,2.372,5.474,3.655,8.861,3.655.111,0,29.048-.064,30.802-.064.018,1.182.018,4.495-.074,5.612v.046c-1.652.258-2.954,1.68-2.954,3.406v.213c0,.258,0,.535.065.858.305,1.329,1.163,2.077,2.381,2.335.323.092.655.138,1.025.138h3.148c0,.028-.028.046-.046.074-.305.351-.517.6-.748.84l-7.274,7.274c-2.381,2.372-4.781,4.8-7.209,7.2-1.929,1.957-2.188,4.246-.6,5.834.674.674,1.514,1.025,2.4,1.025,1.145,0,2.335-.582,3.425-1.652l1.265-1.264c5.031-5.031,10.237-10.237,15.313-15.36.517-.499.96-1.052,1.375-1.615.092-.092.166-.184.24-.277.046.018.065.046.092.065.037-.018.055-.037.092-.055.028.019.055.037.092.055.019-.018.046-.046.092-.065.074.092.139.185.231.277.425.563.868,1.117,1.375,1.615,5.086,5.123,10.283,10.329,15.323,15.36l1.255,1.264c1.099,1.071,2.289,1.652,3.434,1.652.877,0,1.717-.351,2.4-1.025,1.578-1.588,1.329-3.877-.609-5.834-2.428-2.4-4.828-4.828-7.209-7.2l-7.274-7.274c-.231-.24-.443-.489-.738-.84-.028-.028-.046-.046-.046-.074h3.148c.369,0,.692-.046,1.025-.138,1.209-.258,2.068-1.006,2.372-2.335.074-.323.074-.6.074-.858v-.213c0-1.726-1.311-3.148-2.963-3.406v-.046c-.092-1.117-.092-4.431-.074-5.612,1.754,0,30.692.064,30.812.064,3.378,0,6.507-1.283,8.861-3.655,2.4-2.428,3.683-5.649,3.655-9.147-.092-13.172-.065-31.264-.046-44.251V15.147h.701c.609,0,1.117,0,1.588-.018,2.049-.092,3.702-1.772,3.637-3.729-.046-1.911-1.514-3.434-3.498-3.618ZM108.914,79.364c0,2.825-1.56,4.357-4.375,4.357H17.697c-2.825,0-4.385-1.532-4.385-4.357V15.203h95.601v64.162Z" fill="#434343"/>
    </g>
  </g>
</svg>