<?xml version="1.0" encoding="UTF-8"?>
<svg id="Layer_2" data-name="Layer 2" xmlns="http://www.w3.org/2000/svg" viewBox="0 0 76.095 124.771">
  <g id="Color">
    <path d="M14.156,53.752c.987,7.124,2.472,14.657,4.275,21.558-5.23-.843-10.466-2.026-15.696-3.549-2.43,0-3.65-2.939-1.931-4.657l13.352-13.352Z" fill="#70b2e2"/>
    <path d="M73.361,71.761c-5.23,1.522-10.466,2.705-15.696,3.549,1.804-6.901,3.289-14.434,4.275-21.558l13.352,13.352c1.719,1.719.499,4.657-1.931,4.657Z" fill="#70b2e2"/>
    <path d="M50.052,107.034c-.068.271-.135.609-.135.88-.88,4.468-3.385,8.53-4.603,12.93-1.083-1.422-1.625-3.182-1.625-4.942,0-.745.068-1.625-.474-2.099-2.776-2.708-6.228,8.665-5.416,10.832,0,.068,0,.135.068.135-3.182-1.693-4.333-5.551-3.791-8.936.271-1.692.068-3.317-.135-5.01v-.135c0-.135,0-.339-.068-.474,0-.068-.068-.135-.068-.203h.068c-.068-.338-.135-.677-.271-.948,0,0-.068-.068-.068-.135-.068-.203-.203-.406-.338-.609l-.068-.068c0-.068-.068-.068-.068-.068-.135-.203-.203-.339-.406-.474,0,0-.068-.068-.135-.068-1.422-.474-.677,2.64-.542,3.249.135.948.271,1.896.338,2.911,0,.474.068,1.015,0,1.489-.068,1.692-1.625,3.859-1.625,3.452-.068-2.437-1.828-4.671-2.843-6.77-1.219-2.505-2.234-5.551-2.031-8.327.203-3.046,1.963-6.634,4.468-8.462.812-.542,1.625-1.015,2.572-1.422.068,0,.135-.068.135-.068h.135c-.948.88-.88,2.843-.88,3.927.068,2.099.677,4.265,2.031,5.957.88,1.083,2.099,2.031,3.182,2.979.338.271.609.609.88.88l.135.135c.812.948,1.489,1.963,1.828,3.453.068.474,1.286-2.234,1.015-4.13-.271-1.692-.812-3.182-1.354-4.671-.203-.609-1.692-3.859-.068-3.588.271.068.542.271.745.474.542.542.948,1.218,1.219,1.963.271.677,1.151.88,1.625.339.068-.135.203-.203.271-.339.542-.677.88-1.489,1.083-2.302.271-1.015.271-2.031,0-3.046-.135-.474-.271-.948-.474-1.354l.812.406c.203.135.406.203.609.339,4.265,2.505,5.01,7.311,4.265,11.915Z" fill="#70b2e2"/>
  </g>
  <g id="Grey">
    <g id="Project_Launch" data-name="Project Launch">
      <path d="M50.132,12.758L39.83.812c-.445-.515-1.087-.812-1.766-.812h-.021c-.684,0-1.332.302-1.777.817l-10.302,11.941c-5.798,6.731-9.113,15.293-9.135,24.178v.175c0,12.169,3.347,32.693,8.519,47.365.642,1.814,2.355,3.029,4.281,3.029h16.837c1.926,0,3.639-1.215,4.281-3.029,5.172-14.673,8.519-35.196,8.519-47.365v-.175c-.021-8.885-3.337-17.447-9.135-24.178ZM38.048,44.538c-5.596,0-10.137-4.541-10.137-10.137s4.541-10.137,10.137-10.137,10.137,4.541,10.137,10.137-4.541,10.137-10.137,10.137Z" fill="#434343"/>
    </g>
  </g>
</svg>