<?xml version="1.0" encoding="UTF-8"?>
<svg id="Layer_2" data-name="Layer 2" xmlns="http://www.w3.org/2000/svg" viewBox="0 0 122.716 86.341">
  <g id="Color">
    <path d="M69.237,69.427c-.986-.985-2.584-.985-3.57,0l-4.517,4.517-4.517-4.517c-.986-.985-2.584-.985-3.57,0-.986.986-.986,2.584,0,3.57l4.517,4.517-4.517,4.517c-.986.986-.986,2.584,0,3.571.493.493,1.139.739,1.785.739s1.292-.247,1.785-.739l4.517-4.517,4.517,4.517c.493.493,1.139.739,1.785.739s1.292-.247,1.785-.739c.986-.986.986-2.584,0-3.571l-4.517-4.517,4.517-4.517c.986-.986.986-2.584,0-3.57Z" fill="#70b2e2"/>
    <path d="M34.437.739c-.986-.986-2.584-.986-3.57,0l-4.517,4.517L21.832.739c-.986-.986-2.584-.986-3.57,0-.986.986-.986,2.584,0,3.57l4.517,4.517-4.517,4.517c-.986.986-.986,2.584,0,3.57.493.493,1.139.739,1.785.739s1.292-.247,1.785-.739l4.517-4.517,4.517,4.517c.493.493,1.139.739,1.785.739s1.292-.247,1.785-.739c.986-.986.986-2.584,0-3.57l-4.517-4.517,4.517-4.517c.986-.986.986-2.584,0-3.57Z" fill="#70b2e2"/>
    <path d="M121.976,4.082c-.986-.986-2.584-.986-3.57,0l-10.819,10.819-4.867-4.867c-.986-.986-2.584-.986-3.57,0-.986.986-.986,2.584,0,3.57l8.437,8.438,14.39-14.39c.986-.986.986-2.584,0-3.57Z" fill="#70b2e2"/>
  </g>
  <g id="Grey">
    <path d="M92.195,34.845c-.5.218-1.012.425-1.52.616-1.218.457-1.835,1.816-1.378,3.034.23.613.689,1.074,1.243,1.322.547.245,1.186.282,1.791.055.584-.219,1.171-.457,1.746-.708,1.193-.52,1.739-1.908,1.218-3.101-.52-1.193-1.908-1.738-3.101-1.219Z" fill="#434343"/>
    <path d="M104.935,28.432c-.923-.917-2.415-.912-3.332.012-.382.384-.779.762-1.181,1.124-.967.87-1.045,2.36-.175,3.327.227.252.496.444.787.574.825.369,1.826.244,2.541-.399.467-.421.928-.86,1.372-1.307.917-.923.912-2.415-.012-3.332Z" fill="#434343"/>
    <path d="M78.471,42.07c.301.135.636.209.988.204.633-.007,1.265-.03,1.879-.067,1.299-.079,2.287-1.197,2.208-2.496-.079-1.299-1.198-2.287-2.496-2.208-.537.033-1.09.053-1.645.059-1.301.015-2.344,1.081-2.329,2.383.011.949.581,1.761,1.395,2.125Z" fill="#434343"/>
    <path d="M21.213,50.372c.126.088.257.162.392.222,1.01.452,2.231.14,2.89-.8.313-.446.641-.888.974-1.315.803-1.024.622-2.505-.402-3.308-1.024-.802-2.506-.622-3.308.402-.385.492-.763,1.002-1.123,1.516-.747,1.065-.489,2.535.577,3.282Z" fill="#434343"/>
    <path d="M31.725,36.952c-.549.309-1.096.639-1.628.981-1.094.704-1.41,2.162-.706,3.256.257.399.614.694,1.017.875.702.314,1.545.279,2.24-.169.454-.292.922-.574,1.39-.838,1.134-.639,1.535-2.075.897-3.209-.639-1.133-2.076-1.535-3.209-.897Z" fill="#434343"/>
    <path d="M66.734,40.806c.587.119,1.175.235,1.763.346,1.279.24,2.511-.601,2.751-1.88.24-1.279-.602-2.511-1.88-2.751-.566-.107-1.131-.218-1.696-.333-1.275-.259-2.519.565-2.778,1.84-.224,1.101.36,2.178,1.344,2.619.156.07.322.124.496.159Z" fill="#434343"/>
    <path d="M44.4,33.071c-.632.049-1.271.12-1.899.209-1.288.183-2.185,1.376-2.002,2.664.118.832.657,1.501,1.372,1.821.392.175.836.246,1.292.181.53-.075,1.07-.135,1.604-.176,1.297-.101,2.267-1.235,2.166-2.533-.101-1.297-1.235-2.267-2.533-2.166Z" fill="#434343"/>
    <path d="M57.277,34.011c-.595-.109-1.19-.213-1.787-.309-1.285-.208-2.494.666-2.702,1.95-.174,1.077.411,2.101,1.361,2.526.184.082.381.142.589.176.563.091,1.126.189,1.687.292,1.28.235,2.508-.612,2.743-1.892.235-1.28-.613-2.508-1.892-2.743Z" fill="#434343"/>
    <path d="M16.388,60.743c1.188.532,2.582,0,3.113-1.188l.344-.768c.532-1.188,0-2.582-1.188-3.113-1.188-.532-2.582,0-3.113,1.188l-.344.768c-.532,1.188,0,2.582,1.188,3.113Z" fill="#434343"/>
    <path d="M14.303,65.399c-2.475-1.108-5.232-1.186-7.765-.22-2.533.966-4.538,2.861-5.646,5.336-1.108,2.475-1.186,5.233-.219,7.766.966,2.533,2.861,4.538,5.336,5.646.32.144.643.269.969.376,4.877,1.612,10.299-.705,12.443-5.492,2.287-5.108-.008-11.125-5.116-13.412ZM14.811,76.747c-1.149,2.567-4.176,3.717-6.74,2.571-1.244-.557-2.196-1.565-2.682-2.838-.486-1.273-.446-2.659.11-3.903s1.565-2.196,2.838-2.682c1.107-.422,2.3-.448,3.41-.081.166.055.331.119.493.191,2.567,1.149,3.721,4.173,2.571,6.74Z" fill="#434343"/>
  </g>
</svg>