<?xml version="1.0" encoding="UTF-8"?>
<svg id="Layer_2" data-name="Layer 2" xmlns="http://www.w3.org/2000/svg" viewBox="0 0 125.699 112.895">
  <g id="Color">
    <path d="M54.919,26.982c-.438-2.455.438-4.843,2.131-6.432,1.789-1.684,2.131-4.424.809-6.489-.029-.048-.057-.086-.086-.133-1.313-2.027-3.882-2.873-6.137-1.998-2.131.818-4.614.609-6.641-.799-2.008-1.399-3.064-3.644-3.045-5.918.019-2.407-1.655-4.529-4.005-5.043-.086-.019-.171-.038-.257-.057-2.322-.495-4.71.666-5.709,2.816-.951,2.027-2.835,3.577-5.204,4.006-2.369.428-4.681-.381-6.27-1.95-1.684-1.675-4.32-1.931-6.327-.676-.095.067-.2.124-.295.19-1.969,1.275-2.845,3.749-2.074,5.965.714,2.074.457,4.453-.894,6.394-1.37,1.97-3.568,3.035-5.804,3.045-2.341.01-4.358,1.675-4.9,3.948-.028.124-.057.238-.086.362-.523,2.312.618,4.691,2.74,5.737,1.96.97,3.444,2.816,3.863,5.128.428,2.407-.409,4.748-2.026,6.346-1.674,1.646-1.941,4.272-.723,6.279.057.086.114.181.171.276,1.265,2.026,3.787,2.892,6.032,2.093,2.093-.742,4.5-.504,6.46.866,2.055,1.427,3.121,3.73,3.045,6.051-.067,2.379,1.598,4.481,3.91,5.052.086.019.162.038.247.057,2.359.552,4.795-.666,5.785-2.873.932-2.074,2.835-3.663,5.242-4.091,1.418-.257,2.807-.067,4.034.457-.2-.837-.609-1.617-1.218-2.293-1.836-2.027-2.93-4.491-3.235-7.05-.209.057-.419.095-.628.133-8.392,1.503-16.412-4.082-17.915-12.483-1.503-8.392,4.082-16.422,12.483-17.915,8.392-1.503,16.422,4.082,17.916,12.483.181,1.018.257,2.036.238,3.035,1.798-.114,3.634.143,5.404.828,1.598.628,3.406.428,4.824-.514.247-.162.476-.343.685-.552-1.294-1.028-2.226-2.521-2.54-4.281Z" fill="#70b2e2"/>
  </g>
  <g id="Grey">
    <g id="Settings">
      <path d="M114.555,73.807c.724-3.609,3.218-6.406,6.397-7.677,3.355-1.341,5.305-4.913,4.606-8.458-.016-.079-.031-.159-.047-.238-.705-3.48-3.776-6.027-7.327-6.049-3.37-.02-6.669-1.659-8.678-4.676-1.999-3.002-2.246-6.655-.988-9.762,1.332-3.29.171-7.103-2.775-9.083-.107-.072-.213-.143-.321-.214-2.916-1.925-6.816-1.622-9.35.783-2.393,2.271-5.816,3.382-9.297,2.684-3.482-.699-6.211-3.044-7.543-6.064-1.408-3.192-4.883-4.98-8.311-4.331-.17.032-.34.065-.51.099-3.393.682-5.918,3.604-6.068,7.062-.14,3.231-1.765,6.352-4.665,8.283-2.954,1.967-6.539,2.238-9.614,1.046-3.209-1.244-6.881-.057-8.849,2.767-.105.151-.209.303-.313.455-1.96,2.886-1.683,6.763.662,9.346,2.162,2.382,3.205,5.72,2.523,9.117-.709,3.534-3.115,6.294-6.2,7.604-3.185,1.352-4.964,4.813-4.373,8.223.027.158.056.316.085.474.637,3.455,3.628,6.005,7.14,6.122,3.272.109,6.444,1.742,8.396,4.675,2.039,3.063,2.255,6.803.908,9.95-1.38,3.224-.226,7.011,2.64,9.033.1.07.2.14.3.21,2.935,2.036,6.929,1.682,9.484-.814,2.396-2.34,5.866-3.496,9.399-2.787,3.662.735,6.488,3.292,7.732,6.538,1.283,3.348,4.841,5.289,8.369,4.651.075-.014.149-.027.224-.041,3.546-.66,6.113-3.807,6.097-7.414-.014-3.406,1.625-6.752,4.674-8.782,3.109-2.07,6.917-2.261,10.093-.845,3.301,1.472,7.228.348,9.264-2.639.03-.044.06-.088.09-.132,2.029-3,1.618-7.051-.953-9.602-2.417-2.398-3.623-5.922-2.902-9.512ZM75.158,89.026c-12.324-2.472-20.311-14.468-17.838-26.792s14.468-20.311,26.792-17.839c12.324,2.473,20.311,14.468,17.838,26.792-2.472,12.325-14.468,20.311-26.792,17.839Z" fill="#434343"/>
    </g>
  </g>
</svg>