<?xml version="1.0" encoding="UTF-8"?>
<svg id="Layer_2" data-name="Layer 2" xmlns="http://www.w3.org/2000/svg" viewBox="0 0 125.307 118.068">
  <g id="Color">
    <g>
      <rect x="61.71" width="63.597" height="7.534" fill="#70b2e2"/>
      <rect x="85.319" y="19.615" width="39.989" height="7.534" fill="#70b2e2"/>
      <rect x="88.168" y="39.231" width="37.139" height="7.534" fill="#70b2e2"/>
      <rect x="61.71" y="58.846" width="63.597" height="7.534" fill="#70b2e2"/>
    </g>
  </g>
  <g id="Grey">
    <g id="Training">
      <path d="M79.907,37.521c-.697-3.031-3.08-4.991-6.071-4.991-.706,0-1.43.109-2.152.324-4.821,1.432-8.803,2.541-12.534,3.488-1.791.46-3.183.583-4.314.396-4.202-.706-7.912-2.571-10.987-4.305-.763-.43-1.948-.975-3.264-1.127-1.756-.205-3.545-.335-5.275-.46-1.18-.086-2.361-.171-3.537-.28-.342-.036-.655-.028-.943.021-.152-.028-.282-.044-.381-.044l-.221.028c-.486.13-.852.467-1.085.99-.048.102-.089.209-.125.316-.051.146-.584,1.86-1.267,4.055-.852,2.739-1.938,6.232-2.61,8.361l-.588-4.433c-.069-.506-.129-.981-.184-1.407l-.027-.178c0-.089-.014-.182-.026-.241l-.097-.79c-.042-.341-.073-.587-.086-.706.122-.293.246-.574.412-.95.071-.171.159-.364.234-.519l.114-.2c.137-.264.309-.594.309-1.009,0-.196-.402-1.364-.494-1.453-.169-.248-.391-.405-.738-.492l-.202-.016c-.119-.043-.223-.043-.265-.043-.269-.012-.939-.012-1.79-.012s-1.519,0-1.767.012c-.067,0-.166,0-.285.043l-.261.032c-.289.071-.511.228-.625.41-.068.068-.094.093-.304.672-.212.585-.246.728-.246.847,0,.385.148.695.305.993l.119.21c.073.159.161.349.275.628.127.282.248.554.37.845-.015.13-.045.373-.086.708l-.094.763c-.015.086-.029.178-.026.21-.135,1.063-.323,2.473-.514,3.907l-.287,2.167c-.662-2.093-1.724-5.51-2.57-8.229-.801-2.573-1.256-4.037-1.306-4.18-.135-.403-.301-.695-.523-.917-.196-.196-.43-.33-.686-.394l-.226-.027c-.39,0-1.127.203-2.464.679l-.878.319c-.277.102-.509.187-.66.239-1.893.642-3.743,1.266-5.568,1.828l-.248.077c-1.574.483-2.476,1.573-2.538,3.072-.011.341-.111,1.252-.218,2.218-.135,1.211-.273,2.463-.284,3.015-.153,6.84-.155,14.312-.006,22.839.031,1.644.371,3.249,1.008,4.765.638,1.567,1.616,3.126,2.915,4.647.038.041.072.086.123.159.199.253.371.517.514.785.032.628.061,1.257.086,1.89l.028.622c.184,4.032.365,8.188.503,12.274.012.346.038.685.074.972l-.006,13.983c.006,4.207,1.628,7.848,4.566,10.253,2.296,1.881,5.242,2.876,8.566,2.876l3.227.011,3.262-.011c6.829,0,11.899-4.228,12.917-10.772.12-.763.181-1.555.181-2.357v-3.752l1.153-40.917c.128-4.708.257-9.417.406-14.126.013-.446.13-.897.243-1.336.005-.021.011-.043.016-.062.854.328,1.692.66,2.52.988l.339.134c2.293.904,4.207,1.644,6.222,2.268l.627.194c1.912.599,3.89,1.218,5.821,1.218.325,0,.647-.018.966-.057,6.292-.765,12.756-2.405,19.76-5.014,2.768-1.031,4.421-4.082,3.762-6.945Z" fill="#434343"/>
      <path d="M21.597,25.963c6.822.122,13.063-6.019,13.132-12.915C34.798,6.051,28.875.048,21.862,0c-7.071-.048-13.042,5.749-13.164,12.783-.116,6.796,6.008,13.058,12.899,13.179Z" fill="#434343"/>
    </g>
  </g>
</svg>