<?xml version="1.0" encoding="UTF-8"?>
<svg id="Layer_2" data-name="Layer 2" xmlns="http://www.w3.org/2000/svg" viewBox="0 0 89.913 121.984">
  <g id="Color">
    <path d="M64.108,27.33c-.315-.646-.993-1.036-1.71-.997h-.202c-.572-1.994-1.483-3.916-2.685-5.65-.06-.085-.116-.163-.171-.242l-.241-.327c-1.696-2.269-3.872-4.132-6.296-5.399-2.443-1.277-5.145-1.951-7.812-1.951h-.07c-2.667,0-5.369.674-7.811,1.951-2.425,1.267-4.6,3.131-6.296,5.399l-.241.327c-.056.079-.111.157-.171.242-1.202,1.734-2.113,3.656-2.685,5.649h-.202c-.717-.038-1.396.352-1.71.999-1.298,2.67-1.448,5.402-.448,8.197.241.678.873,1.139,1.59,1.18.894-.008,1.787-.018,2.681-.027.025,0,.025-.064.028-.079.117-.61-.107-1.412-.182-2.021-.414-3.306-.379-6.677,1.209-9.699.51-.968,1.159-1.887,1.777-2.766.053-.075.104-.148.157-.221l.212-.288c1.467-1.961,3.349-3.577,5.444-4.671,2.086-1.09,4.386-1.666,6.65-1.666h.07c2.265,0,4.564.575,6.65,1.666,2.095,1.095,3.977,2.71,5.444,4.671l.212.288c.053.074.104.146.157.221.618.879,1.267,1.798,1.777,2.766,1.588,3.022,1.622,6.392,1.209,9.699-.059.475-.208,1.068-.215,1.595-1.639,2.271-4.307,3.754-7.315,3.754h-4.083c-.268-.736-.971-1.262-1.8-1.262h-1.131c-1.059,0-1.917.858-1.917,1.917h0c0,1.059.858,1.917,1.917,1.917h1.131c.828,0,1.532-.527,1.8-1.262h4.083c3.554,0,6.694-1.805,8.553-4.546.501.005,1.002.01,1.503.015.717-.04,1.35-.501,1.59-1.18,1-2.795.85-5.527-.448-8.197Z" fill="#70b2e2"/>
    <path d="M82.683,55.263H7.229c-3.986,0-7.229-3.243-7.229-7.229V7.229C0,3.243,3.243,0,7.229,0h75.454c3.986,0,7.229,3.243,7.229,7.229v40.805c0,3.986-3.243,7.229-7.229,7.229ZM7.229,6.14c-.601,0-1.089.488-1.089,1.089v40.805c0,.601.488,1.089,1.089,1.089h75.454c.601,0,1.089-.488,1.089-1.089V7.229c0-.601-.488-1.089-1.089-1.089H7.229Z" fill="#70b2e2"/>
  </g>
  <g id="Grey">
    <path d="M13.738,79.423c4.568.081,8.746-4.03,8.793-8.647.046-4.685-3.92-8.704-8.615-8.736-4.734-.032-8.732,3.849-8.814,8.559-.078,4.55,4.023,8.743,8.637,8.824Z" fill="#434343"/>
    <path d="M27.028,88.633c-.018-.342-.097-1.079-.175-1.825-.061-.57-.123-1.114-.123-1.333-.035-.605-.316-1.421-1.474-1.781l-.167-.035c-3.588-1.061-7.211-2.123-10.983-2.053-.097,0-.193,0-.29.009-.096-.009-.193-.009-.29-.009-3.772-.07-7.395.991-10.983,2.053l-.167.035c-1.158.36-1.439,1.175-1.474,1.781,0,.219-.061.763-.123,1.333-.079.746-.158,1.482-.175,1.825-.061,3.097-.088,6.333-.044,9.991,0,1.202.017,2.439.044,3.719.018.982.219,1.939.596,2.833.377.947.956,1.86,1.737,2.781.026.017.061.061.079.097.123.158.246.324.325.482.017.404.035.781.061,1.202,0,.114,0,.219.017.333.097,2.219.202,4.5.281,6.772.272,1.202.737,2.211,1.395,3,1.149,1.386,2.86,2.132,5.018,2.14h7.403c2.158-.009,3.868-.754,5.017-2.14.658-.789,1.123-1.798,1.395-3,.079-2.272.184-4.553.281-6.772.017-.114.017-.219.017-.333.026-.421.044-.798.061-1.202.079-.158.202-.325.325-.482.017-.035.053-.079.079-.097.781-.921,1.36-1.833,1.737-2.781.377-.895.579-1.851.597-2.833.026-1.281.044-2.518.044-3.719.044-3.658.017-6.895-.044-9.991Z" fill="#434343"/>
    <path d="M44.879,79.423c4.568.081,8.747-4.03,8.793-8.647.046-4.685-3.92-8.704-8.615-8.736-4.734-.032-8.732,3.849-8.814,8.559-.078,4.55,4.023,8.743,8.637,8.824Z" fill="#434343"/>
    <path d="M58.168,88.633c-.017-.342-.097-1.079-.176-1.825-.061-.57-.123-1.114-.123-1.333-.035-.605-.316-1.421-1.474-1.781l-.167-.035c-3.588-1.061-7.211-2.123-10.983-2.053-.097,0-.193,0-.29.009-.096-.009-.193-.009-.29-.009-3.772-.07-7.395.991-10.983,2.053l-.167.035c-1.158.36-1.439,1.175-1.474,1.781,0,.219-.061.763-.123,1.333-.079.746-.158,1.482-.175,1.825-.061,3.097-.088,6.333-.044,9.991,0,1.202.017,2.439.044,3.719.017.982.219,1.939.596,2.833.377.947.956,1.86,1.737,2.781.026.017.061.061.079.097.123.158.246.324.325.482.018.404.035.781.061,1.202,0,.114,0,.219.017.333.097,2.219.202,4.5.281,6.772.272,1.202.737,2.211,1.395,3,1.149,1.386,2.86,2.132,5.018,2.14h7.403c2.158-.009,3.868-.754,5.018-2.14.658-.789,1.123-1.798,1.395-3,.079-2.272.184-4.553.281-6.772.017-.114.017-.219.017-.333.026-.421.044-.798.061-1.202.079-.158.202-.325.325-.482.017-.035.052-.079.079-.097.781-.921,1.36-1.833,1.737-2.781.377-.895.579-1.851.597-2.833.026-1.281.044-2.518.044-3.719.044-3.658.018-6.895-.044-9.991Z" fill="#434343"/>
    <path d="M76.019,79.423c4.568.081,8.746-4.03,8.792-8.647.046-4.685-3.92-8.704-8.615-8.736-4.734-.032-8.732,3.849-8.814,8.559-.078,4.55,4.023,8.743,8.637,8.824Z" fill="#434343"/>
    <path d="M89.308,88.633c-.017-.342-.097-1.079-.175-1.825-.061-.57-.123-1.114-.123-1.333-.035-.605-.316-1.421-1.474-1.781l-.167-.035c-3.588-1.061-7.211-2.123-10.983-2.053-.096,0-.193,0-.29.009-.096-.009-.193-.009-.289-.009-3.772-.07-7.395.991-10.983,2.053l-.167.035c-1.158.36-1.438,1.175-1.474,1.781,0,.219-.061.763-.123,1.333-.079.746-.158,1.482-.176,1.825-.061,3.097-.088,6.333-.044,9.991,0,1.202.017,2.439.044,3.719.018.982.219,1.939.597,2.833.377.947.956,1.86,1.737,2.781.026.017.061.061.079.097.123.158.246.324.325.482.018.404.035.781.061,1.202,0,.114,0,.219.017.333.097,2.219.202,4.5.281,6.772.272,1.202.737,2.211,1.395,3,1.149,1.386,2.86,2.132,5.018,2.14h7.403c2.158-.009,3.869-.754,5.018-2.14.658-.789,1.123-1.798,1.395-3,.079-2.272.184-4.553.281-6.772.017-.114.017-.219.017-.333.026-.421.044-.798.061-1.202.079-.158.202-.325.325-.482.018-.035.053-.079.079-.097.781-.921,1.36-1.833,1.737-2.781.377-.895.579-1.851.596-2.833.026-1.281.044-2.518.044-3.719.044-3.658.018-6.895-.044-9.991Z" fill="#434343"/>
  </g>
</svg>