<?xml version="1.0" encoding="UTF-8"?>
<svg id="Layer_2" data-name="Layer 2" xmlns="http://www.w3.org/2000/svg" viewBox="0 0 47.97 47.959">
  <g id="Color">
    <circle cx="23.624" cy="24.335" r="23.624" fill="#00abf6"/>
  </g>
  <g id="Grey">
    <path d="M47.143,17.729v-.007c-1.866-6.893-6.643-12.564-13.12-15.542h0c-6.413-2.958-13.978-2.898-20.339.127-5.061,2.406-9.14,6.536-11.483,11.613-.005,0-.005.007-.005.011C-.147,19.02-.634,24.802.825,30.207h0c1.862,6.895,6.649,12.563,13.121,15.545h.01c3.178,1.466,6.539,2.207,10.012,2.207,3.533,0,7.099-.809,10.309-2.332h.011c5.061-2.404,9.139-6.535,11.481-11.625,2.351-5.08,2.836-10.865,1.374-16.273ZM15.104,19.416c-.617.407-2.553.253-3.166-.192-.75-.554-1.458-2.783-1.603-3.684-.203-1.316.914-2.104.85-3.288-.08-1.422-1.868-1.923-2.861-2.519-.673-.41-1.315-.485-1.865-.246-.456.553-.877,1.127-1.279,1.721-.259,1.396,1.621,2.114,2.559,2.844.768.602,2.399,1.624,2.17,2.545-.171.705-.496.838-.934.605-.126-.068-.253-.481-.434-.587-.258-.151-.94-.041-1.23-.028-1.229.066-1.824,1.39-2.21,2.52-.542,1.571,1.367,1.951,2.355.965.561-.559.464-2.188,1.617-1.675.415.183.982.74,1.386,1.025.622.437,1.109,1.039,1.637,1.566,1.596,1.595-.558,2.236-1.737,3.22-.685.573-1.107,1.396-1.77,2.004-.537.491-1.063.6-1.768.82-.502.148-2.148.441-2.097,1.122.041.456,1.149.986,1.518,1.211,1.265.768,2.701,1.393,4.07,1.991,1.059.454,4.326,1.095,4.449,2.508.131,1.376-1.426,2.556-2.225,3.463-.743.839-1.337,1.871-1.969,2.796-.197.294-.485.823-.808,1.359-1.122-.905-2.15-1.903-3.079-2.993.147-.534.278-1.077.314-1.63.092-1.23-.036-2.483-.076-3.696-.045-1.376-.045-1.435-1.335-1.986-.987-.419-1.994-.73-2.99-1.1-.176-.066-.319-.135-.453-.215-.013-.038-.022-.078-.031-.121h-.005c-1.38-5.108-.919-10.565,1.291-15.373.005-.002.005-.009.005-.009.508-1.097,1.114-2.146,1.781-3.149.022-.094.048-.192.09-.294.281-.75.701-1.216,1.189-1.427,2.1-2.565,4.757-4.661,7.787-6.099,1.134-.539,2.305-.979,3.505-1.317,1.456.584,2.646,1.502,2.579,3.061-.065,1.44-.803,2.137-1.481,3.292-.844,1.432.341,3.389-.545,4.889-.389.681-1.079,1.132-1.482,1.823-.382.646-.615,1.354-.823,2.065-.184.631-.291,1.819-.894,2.215ZM29.484,31.669c-.808,1.16-1.299,2.682-1.922,3.949-.809,1.63.135,4.25-2.355,4.579-1.927.252-2.691-.326-2.674-2.194.011-1.276.856-2.932.317-4.19-.372-.87-1.17-1.066-1.959-1.149-.911-.102-1.891-.338-2.719-.798-1.658-.916-1.721-1.791-1.067-3.332.367-.88.555-2.077,1.005-2.886.264-.469,1.4-.901,1.906-.456.32.286.066.773.173,1.131.608,2.073,3.217.492,4.476.931l.306.075c.705.077,1.44.329,2.14.463,1.104.201,3.629.311,3.8,1.673.134,1.062-.925,1.485-1.427,2.204ZM39.102,40.685c-.37-.05-.693-.161-.85-.407-.574-.893,1.207-2.788,1.559-3.48.704-1.374,1.11-2.18,2.606-2.631.381-.107,1.348-.466,1.896-.365-1.282,2.623-3.063,4.956-5.212,6.884ZM45.164,21.761c-.804.855-1.152,2.084-2.068,2.807-.649.523-1.246.823-1.742,1.517-.653.915-1.849,2.142-2.052,3.261-.151.855,1.319,6.626-1.154,4.31-.825-.773-1.003-1.87-.853-2.883.093-.64.135-.812-.281-1.363-.432-.581-.949-1.056-1.515-.516-.832.792-.078,3.037-1.761,3.068-1.676.035-1.007-1.406-1.373-2.272-.118-.28-.715-.755-.936-.991-.561-.58-1.327-.947-2.067-1.299-1.675-.789-3.387-.757-5.076-1.344-2.516-.882-4.929-1.606-5.335-4.519-.109-.751.045-2.168,1.071-1.979.437.078.587.739,1.086.616.396-.105.37-.694.514-.998.314-.674.916-1.204,1.368-1.811.693-.922,1.212-2.67,2.506-2.958,1.075-.243,1.388.785,1.892,1.546.373.575.682,1.128,1.491.863.691-.224.513-.73.508-1.432,0-1.151.233-2.231.231-3.385-.007-1.866,1.454-2.499,3.254-1.866.189,1.043-1.201,1.655-1.758,2.363-.805,1.012.141,2.111,1.305,1.424.316-.18.543-.8.823-1.066.351-.335.787-.619,1.192-.87.476-.296.953-.509,1.479-.709,1.1-.416,2.382-.059,3.382-.402l.146.304c.353.203.613.59,1.011.7.453.114,1.035-.135,1.492-.169.432-.028.861.047,1.277.178,1.146,1.855,2.045,3.894,2.632,6.062v.003c.229.832.381,1.672.513,2.521-.33.395-.733.789-1.202,1.289Z" fill="#242528"/>
  </g>
</svg>