<?xml version='1.0' encoding='utf-8'?>
<svg xmlns="http://www.w3.org/2000/svg" id="Layer_2" data-name="Layer 2" viewBox="0 0 182.208 104.091">
  <g id="Color" fill="#00ABF6">
    <path d="M176.567,35.481c-11.462,3.037-20.17,1.429-19.978,1.281,2.068-5.51,2.379-11.639.995-17.301-.952-3.895-2.699-7.583-5.223-10.717-2.554-3.173-5.895-5.779-10.002-7.471-2.391-.985-11.598-3.539-24.394,3.462,8.821,1.197,19.312,5.886,20.634,15.762,1.13,8.439-2.47,13.044-8.286,15.392-5.699,2.302-13.449,2.775-21.351,2.495,1.102-4.203,1.126-8.675.104-12.855-.806-3.296-2.257-6.427-4.337-9.127-7.515-9.749-21.153-9.133-31.044-3.487,7.786.832,16.766,5.029,17.926,13.692.897,6.7-1.729,10.489-6.101,12.508-4.136,1.909-9.772,2.541-15.739,2.543,1.082-3.798,1.144-7.869.217-11.665-.703-2.878-1.971-5.613-3.79-7.973-6.349-8.236-20.151-9.298-27.401-2.554,6.282,1.117,14.277,4.389,15.248,11.647,1.042,7.79-4.268,10.828-11.315,11.771-8.467,1.134-18.822,2.583-37.087-2.272,5.511,9.835,32.571,10.181,35.541,10.208,11.346.102,23.474,1.018,30.052-1.176,6.161,1.999,39.919.492,51.116-1.747,19.431,2.462,38.054-2.271,54.215-12.417Z" />
    <path d="M171.708,76.232c-5.757.198-8.687,1.395-9.365,1.825-3.02,1.721-6.559,3.792-10.127,3.792s-7.106-2.071-10.127-3.792c-2.695-1.537-6.083-3.586-9.288-3.586s-6.593,2.049-9.289,3.586c-3.02,1.721-6.559,3.792-10.127,3.792s-7.107-2.071-10.127-3.792c-2.695-1.537-6.083-3.586-9.289-3.586s-6.593,2.049-9.289,3.586c-3.02,1.721-6.559,3.792-10.127,3.792s-7.106-2.071-10.127-3.792c-2.695-1.537-6.083-3.586-9.289-3.586s-6.593,2.049-9.289,3.586c-3.02,1.721-6.559,3.792-10.126,3.792s-7.107-2.071-10.127-3.792c-3.474-1.981-12.983-3.216-15.211-1.208-.003.002,13.133,3.264,16.049,4.925,2.696,1.537,6.083,3.587,9.289,3.587s6.593-2.05,9.289-3.587c3.02-1.721,6.559-3.791,10.126-3.791s7.107,2.07,10.127,3.791c2.695,1.537,6.083,3.587,9.289,3.587s6.593-2.05,9.289-3.587c3.02-1.721,6.559-3.791,10.127-3.791s7.106,2.07,10.127,3.791c2.695,1.537,6.083,3.587,9.288,3.587s6.593-2.05,9.289-3.587c3.02-1.721,6.558-3.791,10.126-3.791s7.106,2.07,10.127,3.791c2.695,1.537,6.083,3.587,9.289,3.587s6.593-2.05,9.289-3.587c3.426-1.787,11.369-5.581,10.203-5.542Z" fill-rule="evenodd" />
  </g>
  <g id="Grey" fill="#D3D3D3">
    <path d="M.004,61.477c9.102-.897,17.398,6.9,24.625,11.02,3.621,2.064,7.242,4.128,11.334,4.128s7.713-2.063,11.334-4.128c2.851-1.625,5.702-3.25,8.081-3.25s5.231,1.625,8.081,3.25c3.621,2.064,7.242,4.128,11.334,4.128s7.713-2.063,11.334-4.128c2.851-1.625,5.702-3.25,8.081-3.25s5.23,1.625,8.082,3.25c3.621,2.064,7.242,4.128,11.334,4.128s7.714-2.063,11.335-4.128c2.851-1.625,5.702-3.25,8.081-3.25s5.23,1.625,8.081,3.25c3.621,2.064,7.242,4.128,11.334,4.128,12.997,0,14.459-16.78,27.677-16.78,6.301,0-3.305-2.687-8.262-2.371-4.093,0-7.714,2.064-11.334,4.129-2.851,1.624-5.702,3.249-8.082,3.249s-5.231-1.625-8.081-3.249c-3.621-2.064-7.242-4.129-11.334-4.129s-7.714,2.064-11.335,4.129c-2.851,1.624-5.702,3.249-8.081,3.249s-5.231-1.625-8.081-3.249c-3.621-2.064-7.242-4.129-11.335-4.129s-7.713,2.064-11.334,4.129c-2.851,1.624-5.702,3.249-8.081,3.249s-5.23-1.625-8.081-3.249c-3.621-2.064-7.242-4.129-11.334-4.129s-7.713,2.064-11.334,4.129c-2.851,1.624-5.702,3.249-8.081,3.249s-5.23-1.625-8.081-3.249c-14.345-8.177-28.154-.099-27.878-.125Z" />
    <path d="M.004,88.944c9.102-.898,17.398,6.9,24.625,11.02,3.621,2.064,7.242,4.128,11.334,4.128s7.713-2.063,11.334-4.128c2.851-1.625,5.702-3.25,8.081-3.25s5.231,1.625,8.081,3.25c3.621,2.064,7.242,4.128,11.334,4.128s7.713-2.063,11.334-4.128c2.851-1.625,5.702-3.25,8.081-3.25s5.23,1.625,8.082,3.25c3.621,2.064,7.242,4.128,11.334,4.128s7.714-2.063,11.335-4.128c2.851-1.625,5.702-3.25,8.081-3.25s5.23,1.625,8.081,3.25c3.621,2.063,7.242,4.128,11.334,4.128,12.997,0,14.459-16.78,27.677-16.78,6.301,0-3.305-2.688-8.262-2.371-4.093,0-7.714,2.064-11.334,4.128-2.851,1.625-5.702,3.25-8.082,3.25s-5.231-1.625-8.081-3.25c-3.621-2.064-7.242-4.128-11.334-4.128s-7.714,2.064-11.335,4.128c-2.851,1.625-5.702,3.25-8.081,3.25s-5.231-1.625-8.081-3.25c-3.621-2.064-7.242-4.128-11.335-4.128s-7.713,2.064-11.334,4.128c-2.851,1.625-5.702,3.25-8.081,3.25s-5.23-1.625-8.081-3.25c-3.621-2.064-7.242-4.128-11.334-4.128s-7.713,2.064-11.334,4.128c-2.851,1.625-5.702,3.25-8.081,3.25s-5.23-1.625-8.081-3.25c-14.345-8.176-28.154-.098-27.878-.124Z" />
  </g>
</svg>