<?xml version='1.0' encoding='utf-8'?>
<svg xmlns="http://www.w3.org/2000/svg" id="Layer_2" data-name="Layer 2" viewBox="0 0 178.073 179.82">
  <g id="Color" fill="#00ABF6">
    <path d="M85.675,3.596c0-1.985-1.61-3.596-3.597-3.596s-3.596,1.61-3.596,3.596v123.528c1.098.033,2.193.052,3.285.052,1.417,0,2.752.419,3.908,1.154V3.596Z" />
    <path d="M61.13,73.833c-.3-15.736,3.356-33.173,10.364-51.003-14.365,11.097-27.995,23.933-39.092,36.9-11.248,13.145-19.858,26.363-23.914,37.929.816-.053,1.658-.113,2.529-.176,12.78-.915,31.249-2.236,58.563,10.032-5.493-9.748-8.212-21.184-8.45-33.683Z" />
    <path d="M83.2,13.848c-9.928,21.006-15.251,41.727-14.905,59.873.318,16.677,5.457,31.154,16.27,41.571l-2.487,2.585,2.495-2.59c1.431,1.378,1.473,3.655.095,5.085-1.244,1.292-3.221,1.451-4.646.456-33.239-18.702-54.491-17.183-68.498-16.18-2.937.21-5.576.399-7.927.399C1.61,105.048,0,103.437,0,101.451c0-.382.059-.749.17-1.095,3.48-13.665,13.377-29.625,26.782-45.29,14.211-16.606,32.414-32.974,51.058-45.924l2.051,2.95-2.052-2.954c1.631-1.133,3.872-.729,5.005.902.811,1.166.835,2.644.186,3.807Z" />
    <path d="M98.587,9.969c0-1.986-1.61-3.597-3.597-3.597s-3.596,1.61-3.596,3.597v124.27l.427.474h6.766v-11.881c8.838-.735,15.886-1.258,21.684-1.687,19.854-1.473,27.155-2.014,27.161-7.316.003-2.923-2.706-4.987-6.989-8.25-11.479-8.742-37.595-28.633-41.766-78.06-.016-.191-.047-.378-.091-.559V9.969Z" />
  </g>
  <g id="Grey" fill="#282828">
    <path d="M5.045,117.631c10.198,3.369,24.706,6.746,39.181,9.264,13.934,2.423,27.756,4.027,37.54,4.027,1.129,0,2.138.521,2.796,1.336l5.593,6.2h26.911l10.281-6.914-.007-.01c.717-.482,1.545-.672,2.344-.597l44.806.252-.015,3.582.02-3.596c1.986.011,3.587,1.63,3.576,3.616-.002.384-.064.754-.178,1.1l-11.056,41.258-3.47-.927,3.474.931c-.435,1.627-1.92,2.692-3.53,2.666h-79.371c-21.415,0-36.24-5.609-48.86-15.691-12.364-9.877-22.351-23.909-34.419-41.15l-.012.008c-1.139-1.627-.743-3.869.884-5.008,1.067-.747,2.399-.834,3.511-.347Z" />
  </g>
</svg>