<?xml version='1.0' encoding='utf-8'?>
<svg xmlns="http://www.w3.org/2000/svg" id="Layer_2" data-name="Layer 2" viewBox="0 0 123.589 120.757">
  <g id="Color" fill="#00ABF6">
    <path d="M82.099,42.577c.06.835-.401,1.447-1.044,1.978-2.567,2.12-5.107,4.272-7.704,6.354-.703.563-.856,1.088-.63,1.947.826,3.15,1.568,6.322,2.35,9.483.298,1.205.015,2.222-.976,2.986-.864.666-2.028.633-3.129-.058-2.867-1.8-5.743-3.588-8.584-5.429-.617-.4-1.041-.37-1.645.015-2.731,1.74-5.501,3.419-8.246,5.137-.783.49-1.605.764-2.514.547-1.393-.331-2.189-1.723-1.83-3.149.864-3.443,1.721-6.888,2.621-10.321.136-.519.026-.822-.354-1.141-2.438-2.044-4.862-4.104-7.299-6.149-.899-.754-1.719-1.52-1.623-2.856.093-1.294,1.069-2.317,2.372-2.402,3.58-.234,7.159-.487,10.741-.695.567-.033.736-.334.913-.77,1.208-2.967,2.432-5.928,3.651-8.891.112-.272.209-.551.341-.812.509-1.006,1.315-1.572,2.461-1.559,1.156.014,1.942.598,2.367,1.661,1.277,3.192,2.559,6.381,3.808,9.584.25.642.539.948,1.314.989,3.14.165,6.274.435,9.41.679.468.036.943.092,1.393.218,1.148.323,1.842,1.336,1.838,2.654Z" />
  </g>
  <g id="Grey" fill="#282828">
    <path d="M112.275,10.173h-4.513c.224-2.589-.637-5.164-2.374-7.084-1.765-1.963-4.293-3.088-6.937-3.088H25.138c-2.644,0-5.172,1.126-6.936,3.086-1.739,1.923-2.6,4.499-2.375,7.086h-4.513C5.075,10.173,0,15.246,0,21.482v25.543c0,11.13,9.055,20.185,20.185,20.185h3.467c2.122,5.293,4.936,9.657,8.588,13.323,5.312,5.332,11.996,9.084,19.377,10.885-.247,5.655-.833,10.4-1.785,14.453h-3.267c-4.966,0-9.006,4.04-9.006,9.005v5.881h48.47v-5.881c0-4.966-4.04-9.005-9.006-9.005h-3.267c-.952-4.052-1.538-8.797-1.785-14.453,7.381-1.801,14.065-5.553,19.378-10.885,3.651-3.666,6.465-8.029,8.587-13.323h3.467c11.13,0,20.185-9.055,20.185-20.185v-25.543c0-6.236-5.075-11.309-11.313-11.309ZM20.185,58.963c-6.583,0-11.937-5.355-11.937-11.938v-25.543c0-1.688,1.375-3.062,3.065-3.062h5.326c.913,9.663,1.789,20.347,2.01,23.287.369,4.874.977,11.152,2.423,17.255h-.887ZM99.377,11.071c-.203,1.99-.41,4.101-.613,6.256-.955,10.106-1.851,21.107-2.052,23.761-.404,5.351-1.101,12.3-2.92,18.599-.628,2.186-1.38,4.241-2.237,6.109-1.609,3.526-3.589,6.442-6.051,8.914h.001c-4.09,4.105-9.25,7.064-14.923,8.557-2.719.719-5.509,1.084-8.292,1.084-.098,0-.213,0-.299-.002l-.198-.011-.178.01c-.106.003-.213.003-.318.003-2.783,0-5.573-.365-8.293-1.084-5.672-1.493-10.831-4.451-14.921-8.556-2.462-2.473-4.442-5.389-6.052-8.916-.856-1.866-1.609-3.921-2.237-6.109-1.819-6.297-2.516-13.246-2.92-18.598-.202-2.663-1.1-13.681-2.052-23.763l-.027-.288c-.198-2.05-.391-4.066-.586-5.966l-.165-1.596c-.043-.41.13-.7.277-.863.15-.166.415-.364.814-.364h73.313c.399,0,.664.198.809.358.152.17.324.458.282.865l-.165,1.6ZM115.341,47.025c0,6.583-5.355,11.938-11.937,11.938h-.887c1.445-6.102,2.054-12.381,2.423-17.256.221-2.939,1.096-13.62,2.009-23.286h5.327c1.69,0,3.065,1.374,3.065,3.062v25.543Z" />
  </g>
</svg>