<?xml version='1.0' encoding='utf-8'?>
<svg xmlns="http://www.w3.org/2000/svg" id="Layer_2" data-name="Layer 2" viewBox="0 0 107.141 122.814">
  <g id="Color" fill="#00ABF6">
    <path d="M60.489,53.308c-4.758,3.412-9.373,3.412-14.109.002-.559-.402-1.339-.276-1.741.283-.403.559-.276,1.339.283,1.742,2.818,2.029,5.658,3.044,8.503,3.044s5.689-1.015,8.518-3.042c.56-.402.688-1.181.287-1.741-.401-.56-1.181-.688-1.741-.287Z" />
    <path d="M98.227,122.814H8.914c-.965,0-1.813-.639-2.081-1.566L.2,98.22c-.926-3.213,1.486-6.417,4.829-6.417,31.02-5.924,63.484-5.468,97.083,0,3.344,0,5.755,3.204,4.829,6.417l-6.634,23.028c-.267.927-1.116,1.566-2.081,1.566Z" />
  </g>
  <g id="Grey" fill="#282828">
    <path d="M32.881,46.115c3.955-.841,7.861-1.472,11.713-1.88-3.14-4.245-5.151-8.838-5.347-14.366-.089-2.556.1-5.135.274-7.705,2.003-.249,4.796-1.023,7.615-3.203.441.545.922,1.059,1.431,1.546l-.217-.1c.571.751,1.092,1.536,1.713,2.233,1.316,1.477,2.922,2.592,4.673,3.494,1.386.714,2.844,1.324,3.91,2.513.569.634,1.047,1.35,1.553,2.038.094.128.129.3.298.402-.036-1.389-.49-2.642-1.278-3.736-.415-.576-.866-1.126-1.328-1.674,4.129,1.204,8.35,1.35,11.38.46.328-.591-.029,1.351-.087,2.01v.016c-.511,5.892-2.928,11.39-6.405,16.095,3.776.408,7.603,1.03,11.481,1.855,1.269.269,2.445-.805,2.445-2.224-.001-1.511-1.059-3.004-1.232-4.552-.531-4.738.868-9.268,1.119-13.966.06-1.126.046-2.255-.092-3.389-.464-3.805-1.726-7.51-3.735-10.777C68.956,5.012,62.461.591,55.126.057c-.518-.038-1.037-.057-1.556-.057-7.485,0-14.36,4.21-18.564,10.271-2.113,3.046-3.576,6.557-4.162,10.223-1.23,7.692,3.443,16.097-.409,23.399,0,1.417,1.176,2.492,2.445,2.222Z" />
    <path d="M88.968,62.457v21.18c-24.845-3.008-48.554-3.087-70.798-.236v-20.944s-.44-5.569,6.85-8.012l19.427-5.674c-.63,2.785-4.505,5.595-7.316,6.502-.23.079-.269.394-.105.571,2.194,2.371,4.61,4.394,7.257,6.068.197.125.256.388.125.578l-1.589,2.417c-.217.322-.131.762.197.979,4.092,2.699,7.618,5.898,10.554,9.641,2.936-3.744,6.462-6.942,10.554-9.641.328-.217.414-.657.203-.979l-1.596-2.417c-.131-.19-.072-.453.125-.578,2.647-1.675,5.07-3.697,7.257-6.068.164-.177.125-.492-.105-.571-2.811-.906-6.679-3.717-7.316-6.502l19.427,5.674c7.29,2.443,6.85,8.012,6.85,8.012Z" />
  </g>
</svg>