<?xml version='1.0' encoding='utf-8'?>
<svg xmlns="http://www.w3.org/2000/svg" id="Layer_2" data-name="Layer 2" viewBox="0 0 59.661 123.749">
  <g id="Color" fill="#00ABF6">
    <path d="M29.831,56.688c-1.261,0-2.411-.743-2.93-1.893l-4.918-10.91h-11.593c-5.729,0-10.39-4.661-10.39-10.39V10.39C0,4.661,4.661,0,10.39,0h30.815c10.177,0,18.456,8.28,18.456,18.456v15.039c0,5.729-4.661,10.39-10.39,10.39h-11.593l-4.918,10.911c-.522,1.151-1.67,1.892-2.93,1.892ZM10.39,4.618c-3.182,0-5.772,2.589-5.772,5.772v23.105c0,3.183,2.59,5.772,5.772,5.772h11.705c1.742,0,3.331,1.027,4.05,2.615l3.686,8.177,3.686-8.176c.718-1.59,2.307-2.616,4.05-2.616h11.705c3.182,0,5.772-2.589,5.772-5.772v-15.039c0-7.63-6.208-13.838-13.838-13.838H10.39Z" />
    <path d="M25.878,16.534c-.631,0-1.221.242-1.664.681-1.215,1.204-2.736,2.663-4.079,3.952l-.088.085c-1.262,1.21-2.687,2.577-3.894,3.765l-2.759-2.793c-.52-.526-1.177-.782-1.855-.722-.971.083-1.683.621-2.005,1.515-.32.882-.117,1.779.558,2.46,1.66,1.678,2.729,2.753,4.403,4.425.257.256.579.456.913.568.262.085.523.128.773.128.629,0,1.204-.255,1.709-.757,1.372-1.365,2.991-2.926,4.812-4.679,1.549-1.49,3.305-3.18,4.74-4.607.064-.061.116-.115.166-.171.678-.753.777-1.922.237-2.782-.42-.669-1.155-1.069-1.967-1.069Z" />
    <path d="M47.613,26.743l-3.177-3.177,3.177-3.177c.898-.898.898-2.358.001-3.255s-2.358-.897-3.256,0l-3.177,3.177-3.177-3.177c-.897-.897-2.357-.897-3.254,0s-.898,2.358,0,3.255l3.177,3.177-3.177,3.177c-.897.897-.897,2.357,0,3.255.897.897,2.357.897,3.254,0l3.177-3.177,3.177,3.177c.897.897,2.357.897,3.255,0,.897-.897.897-2.357,0-3.254Z" />
  </g>
  <g id="Grey" fill="#282828">
    <path d="M52.737,105.579s-13.384-4.549-13.769-4.581c-.045.174-.09.347-.138.511-.653,2.431-1.273,4.858-2.006,7.246-.878,2.829-1.861,5.629-2.845,8.426-.006.032-.019.064-.032.096-.109.315-.26.614-.415.919-.18-1.289-.395-2.977-.62-4.636-.235-1.82-.46-3.607-.611-4.797-.016-.132-.129-.231-.264-.231h-4.411c-.135,0-.248.1-.264.231-.151,1.19-.376,2.977-.611,4.797-.225,1.659-.44,3.347-.62,4.636-.154-.305-.305-.604-.415-.919-.013-.032-.026-.064-.032-.096-.984-2.797-1.967-5.597-2.845-8.426-.733-2.389-1.354-4.816-2.006-7.246-.048-.164-.093-.338-.138-.511-.386.032-13.769,4.581-13.769,4.581-5.845,1.958-5.494,5.854-5.494,5.854v7.709c.537,4.697,4.166,4.607,4.166,4.607h48.468s3.63.09,4.166-4.607v-7.709s.35-3.897-5.494-5.854Z" />
    <path d="M33.554,104.127l-.584-1.132c-.126-.244-.377-.397-.651-.397h-4.98c-.274,0-.525.153-.651.397l-.584,1.132c-.105.203-.109.443-.011.649l1.13,2.39c.022.047.07.077.122.077h4.968c.052,0,.1-.03.122-.077l1.13-2.39c.098-.206.093-.446-.011-.649Z" />
    <path d="M43.791,81.025c.02.37,0,.71-.01.98-.03.45-.09.87-.16,1.28-.03.21-.06.42-.08.63-.12.99-.41,2.26-1.54,3.3-.14.13-.29.26-.44.38-.27.23-.52.44-.7.66-.15.19-.22.48-.31.86-.07.28-.15.61-.28.94-.36.88-.73,1.63-1.13,2.28-.9,1.46-2.12,2.73-3.51,3.68-.33.23-.68.44-1.04.64l-.04.02c-.52.27-1.11.52-1.76.75l-.08.03c-.49.2-.98.35-1.46.44-.44.08-.86.12-1.29.12h-.13c-.47.01-.94-.03-1.4-.12-.52-.1-1.02-.25-1.51-.46-.03-.01-.05-.02-.08-.04-.63-.21-1.21-.45-1.73-.72l-.04-.02c-.36-.2-.71-.41-1.04-.64-2.59-1.77-4.35-4.41-5.23-7.83-.02-.06-.02-.09-.07-.13-1.45-.78-2.37-2.24-2.61-4.14-.02-.21-.05-.42-.08-.63-.07-.41-.13-.83-.16-1.28-.01-.27-.03-.62-.01-.98v-.04c-.07-1.22.64-2.63,1.93-2.94.03-.01.06-.01.09-.02-.03-.3-.1-.61-.16-.93l-.02-.09c-.09-.44-.18-.92-.22-1.41-.07-1.01-.14-2.34-.09-3.7.06-1.35.33-2.44.83-3.33.34-.6.89-1.09,1.59-1.4.35-.15.64-.34,1.03-.65.23-.18.29-.29.48-.58.06-.1.13-.2.2-.32.43-.65.96-1.18,1.58-1.57.16-.11.33-.2.5-.29,1.6-.77,3.44-.88,4.79-.96.48-.02.96-.04,1.44-.03,2.26.01,4.44.41,6.48,1.16.39.14.76.3,1.13.46,3.43,1.53,5.4,4.72,5.26,8.54-.04,1.13-.21,2.29-.5,3.45-.08.35-.12.75-.16,1.17-.02.15-.03.29-.05.44,0,.02-.01.06-.01.1,1.15.34,1.81,1.59,1.81,2.7,0,.06-.01.11-.01.17v.07Z" />
  </g>
</svg>