<?xml version='1.0' encoding='utf-8'?>
<svg xmlns="http://www.w3.org/2000/svg" id="Layer_2" data-name="Layer 2" viewBox="0 0 114.643 125.532">
  <g id="Color" fill="#00ABF6">
    <path d="M42.217,13.567v41.435c0,.854,1.036,1.286,1.639.683,2.663-2.64,7.898-7.864,10.8-10.731.102-.102.193-.193.296-.296.319-.319.876-.546,1.331-.546,6.031-.011,12.063-.023,18.094-.023,5.872,0,8.763.774,14.464-.899,4.985-1.457,9.468-4.677,12.666-8.729,1.457-1.866,2.686-3.938,3.608-6.191,2.003-4.893,1.878-9.958,1.73-15.033-.137-4.245-2.231-7.966-5.394-10.356-2.322-1.775-5.235-2.811-8.376-2.811-13.565-.011-23.511.125-37.065-.068-6.851-.102-13.736,5.28-13.793,13.565ZM47.338,13.567c.023-2.925,1.354-4.859,2.469-5.952,1.605-1.559,3.835-2.492,6.009-2.492h.114c9.275.137,16.934.114,25.048.091,3.824-.023,7.773-.034,12.086-.023,1.935,0,3.767.603,5.292,1.764,2.06,1.559,3.289,3.903,3.369,6.441.137,4.62.273,8.99-1.343,12.928-.728,1.775-1.707,3.448-2.902,4.973-2.618,3.323-6.282,5.872-10.072,6.976-3.425,1.001-5.44.922-8.774.797-1.229-.046-2.629-.102-4.233-.102h-.034c-6.031,0-12.063.011-18.094.023-1.809.011-3.642.763-4.928,2.026l-.284.296c-1.024,1.002-2.333,2.31-3.721,3.687V13.567Z" />
    <path d="M85.869,21.905c0,1.743,1.413,3.155,3.156,3.155s3.156-1.413,3.156-3.155-1.413-3.156-3.156-3.156-3.156,1.413-3.156,3.156Z" />
    <path d="M71.277,21.905c0,1.743,1.413,3.155,3.156,3.155s3.156-1.413,3.156-3.155-1.413-3.156-3.156-3.156-3.156,1.413-3.156,3.156Z" />
    <path d="M56.684,21.905c0,1.743,1.413,3.155,3.155,3.155s3.156-1.413,3.156-3.155-1.413-3.156-3.156-3.156-3.155,1.413-3.155,3.156Z" />
  </g>
  <g id="Grey" fill="#282828">
    <path d="M21.158,66.025c7.324.131,14.023-6.461,14.097-13.864.074-7.511-6.285-13.955-13.813-14.006-7.591-.051-14.001,6.171-14.131,13.722-.125,7.296,6.45,14.018,13.847,14.148Z" />
    <path d="M.063,105.736c.01,1.992,1.628,3.597,3.62,3.597h35.196c1.992,0,3.61-1.605,3.62-3.597.017-3.34.03-7.779.03-8.923.065-5.865.036-11.056-.065-16.014-.029-.551-.16-1.733-.29-2.929-.087-.921-.189-1.783-.189-2.139-.058-.964-.515-2.276-2.371-2.856l-.261-.058c-1.82-.58-3.712-1.189-5.35-1.762-.123-.036-.348-.13-.573-.232-.29-.087-.573-.188-.892-.319-.551-.188-1.16-.384-1.638-.507-.159-.036-.29-.065-.391-.101h-.159c-.217.065-.406.196-.602.355-.065.065-.123.159-.196.254-.37.225-5.01,6.467-7.17,9.381-.275.384-.689.565-1.102.558-.413.007-.819-.174-1.102-.558-2.153-2.914-6.8-9.156-7.17-9.381-.065-.094-.123-.188-.196-.254-.189-.159-.384-.29-.602-.355h-.159c-.101.036-.225.065-.384.101-.478.123-1.095.319-1.638.507-.319.131-.609.232-.899.319-.218.102-.45.196-.573.232-1.638.573-3.523,1.182-5.35,1.762l-.261.058c-1.856.58-2.305,1.892-2.363,2.856,0,.355-.101,1.218-.196,2.139-.123,1.196-.261,2.378-.29,2.929-.094,4.959-.13,10.149-.065,16.014,0,1.144.013,5.583.03,8.923Z" />
    <path d="M106.971,66.458c.077-7.876-6.59-14.633-14.484-14.686-7.959-.054-14.68,6.471-14.817,14.389-.131,7.65,6.763,14.698,14.52,14.835,7.68.137,14.704-6.775,14.781-14.537Z" />
    <path d="M114.607,115.448c0,1.099-.023,3.961-.046,6.357-.02,2.064-1.699,3.727-3.763,3.727h-36.952c-2.064,0-3.744-1.663-3.763-3.727-.023-2.396-.046-5.258-.046-6.357-.072-6.148-.029-11.592.08-16.797.029-.573.159-1.812.29-3.067.102-.957.21-1.87.21-2.24.058-1.015.529-2.385,2.472-2.994l.283-.058c6.032-1.783,12.121-3.567,18.465-3.451.159,0,.326,0,.486.015.159-.015.326-.015.486-.015,6.343-.116,12.433,1.667,18.465,3.451l.283.058c1.943.609,2.414,1.979,2.472,2.994,0,.37.109,1.283.21,2.24.13,1.254.261,2.494.29,3.067.109,5.205.152,10.65.08,16.797Z" />
  </g>
</svg>