<?xml version='1.0' encoding='utf-8'?>
<svg xmlns="http://www.w3.org/2000/svg" id="Layer_2" data-name="Layer 2" viewBox="0 0 122.979 98.94">
  <g id="Color" fill="#00ABF6">
    <path d="M23.746,89.558c1.828,0,3.658-.091,5.463-.181,1.686-.084,3.278-.163,4.789-.163,1.864,0,3.375-1.511,3.375-3.375s-1.511-3.375-3.375-3.375c-1.679,0-3.43.087-5.124.171-3.727.185-7.581.376-10.779-.345-2.622-.592-4.981-2.209-6.643-4.553-1.505-2.123-1.85-4.543-2.287-7.606-.065-.456-.131-.916-.202-1.379l-2.252-14.812c-.281-1.844-2.008-3.111-3.844-2.829-1.843.28-3.11,2.002-2.829,3.844l2.252,14.811c.067.443.13.883.192,1.319.499,3.49,1.014,7.1,3.462,10.555,2.626,3.705,6.413,6.275,10.663,7.235,2.329.526,4.731.683,7.138.683Z" />
    <path d="M99.233,89.558c-1.828,0-3.659-.091-5.463-.181-1.686-.084-3.278-.163-4.789-.163-1.864,0-3.375-1.511-3.375-3.375s1.511-3.375,3.375-3.375c1.679,0,3.43.087,5.124.171,3.727.185,7.581.376,10.779-.345,2.622-.592,4.981-2.209,6.643-4.553,1.505-2.123,1.85-4.543,2.287-7.606.065-.456.131-.916.202-1.379l2.252-14.812c.281-1.844,2.008-3.111,3.844-2.829,1.843.28,3.11,2.002,2.829,3.844l-2.252,14.811c-.067.443-.13.883-.192,1.319-.499,3.49-1.014,7.1-3.462,10.555-2.626,3.705-6.413,6.275-10.663,7.235-2.329.526-4.731.683-7.138.683Z" />
    <path d="M84.529,51.553h-46.085c-2.851,0-5.162,2.311-5.162,5.162h0c0,2.851,2.311,5.162,5.162,5.162h17.88v35.099c0,1.018.826,1.844,1.844,1.844h6.637c1.018,0,1.844-.826,1.844-1.844v-35.099h17.88c2.851,0,5.162-2.311,5.162-5.162h0c0-2.851-2.311-5.162-5.162-5.162Z" />
    <path d="M79.12,10.463c-1.32-2.377-3.062-4.425-5.128-6.063-2.062-1.638-4.45-2.869-7.058-3.611-6.894-1.963-14.156-.214-19.434,4.678-2.716,2.519-4.692,5.745-5.71,9.321-1.42,4.992-.892,10.288,1.495,14.916l.396.764-.646.571c-.136.118-.307.25-.539.418l-3.055,2.323c-.46.35-.649.756-.567,1.224.046.239.178.978,2.105,1.538l.164.046c1.581.45,3.055.685,4.375.699l.378.007c.257.007.51.014.796.007.81-.039,1.602-.121,2.48-.264l.414-.068.396.243c1.766,1.199,3.722,2.113,5.809,2.705,6.887,1.963,14.149.214,19.419-4.675,2.716-2.519,4.689-5.738,5.706-9.314,1.488-5.221.849-10.712-1.798-15.465ZM49.099,23.559c-1.77,0-3.204-1.435-3.204-3.208s1.435-3.204,3.204-3.204,3.208,1.434,3.208,3.204-1.438,3.208-3.208,3.208ZM61.356,23.559c-1.77,0-3.204-1.435-3.204-3.208s1.434-3.204,3.204-3.204,3.204,1.434,3.204,3.204-1.435,3.208-3.204,3.208ZM73.614,23.559c-1.77,0-3.204-1.435-3.204-3.208s1.434-3.204,3.204-3.204,3.204,1.434,3.204,3.204-1.435,3.208-3.204,3.208Z" />
  </g>
  <g id="Grey" fill="#282828">
    <path d="M26.762,31.601c-.023,4.219-3.142,7.381-7.286,7.388-4.184.007-7.382-3.135-7.401-7.27-.019-4.084,3.271-7.442,7.284-7.438,4.116.005,7.425,3.278,7.403,7.32Z" />
    <path d="M51.006,93.908c-.41-2.092-.819-4.191-1.214-6.291-.951-4.945-1.865-9.89-2.75-14.849-.424-2.392-1.719-3.665-4.067-3.965-2.18-.285-14.761-.929-14.761-.929l-.519-10.877c-.058-.607-.102-1.214-.146-1.807-.175-2.253-.315-4.396-.658-6.503-.424-2.582-1.902-4.543-3.877-5.515-1.083-.534-2.311-.768-3.592-.644-.066,0-.124.007-.19.015-3.965.476-6.678,3.87-6.43,7.988.402,6.583,1.017,13.167,1.119,19.757.095,6.152,3.387,8.961,9.487,8.917,5.559-.044,10.387.037,15.946-.022,1.175,3.425,1.587,6.751,2.487,9.955.614,2.224.995,4.521,1.748,6.693.739,2.143,2.297,3.657,4.74,2.919,2.253-.68,3.167-2.37,2.677-4.842Z" />
    <path d="M96.217,31.601c.023,4.219,3.142,7.381,7.286,7.388,4.184.007,7.382-3.135,7.401-7.27.019-4.084-3.271-7.442-7.284-7.438-4.116.005-7.425,3.278-7.403,7.32Z" />
    <path d="M71.973,93.908c.41-2.092.819-4.191,1.214-6.291.951-4.945,1.865-9.89,2.75-14.849.424-2.392,1.719-3.665,4.067-3.965,2.18-.285,14.761-.929,14.761-.929l.519-10.877c.058-.607.102-1.214.146-1.807.175-2.253.315-4.396.658-6.503.424-2.582,1.902-4.543,3.877-5.515,1.082-.534,2.311-.768,3.592-.644.066,0,.124.007.19.015,3.965.476,6.678,3.87,6.43,7.988-.402,6.583-1.017,13.167-1.119,19.757-.095,6.152-3.387,8.961-9.487,8.917-5.559-.044-10.387.037-15.946-.022-1.175,3.425-1.587,6.751-2.487,9.955-.615,2.224-.995,4.521-1.748,6.693-.739,2.143-2.297,3.657-4.74,2.919-2.253-.68-3.167-2.37-2.677-4.842Z" />
  </g>
</svg>