<?xml version='1.0' encoding='utf-8'?>
<svg xmlns="http://www.w3.org/2000/svg" id="Layer_2" data-name="Layer 2" viewBox="0 0 77.139 120.218">
  <g id="Grey" fill="#282828">
    <path d="M77.129,0h-6.379v11.043l-35.112,19.813v13.771H4.812c-2.659,0-4.812,2.153-4.812,4.822v70.77h77.139l-.01-120.218ZM35.638,109.96H12.114v-12.739h23.524v12.739ZM35.638,89.571H12.114v-12.729h23.524v12.729ZM35.638,69.192H12.114v-12.729h23.524v12.729ZM65.968,111.567h-19.158v-5.821h19.158v5.821ZM65.968,95.004h-19.158v-5.821h19.158v5.821ZM65.968,78.44h-19.158v-5.821h19.158v5.821ZM65.968,61.891h-19.158v-5.821h19.158v5.821ZM65.968,45.328h-19.158v-5.821h19.158v5.821Z" />
  </g>
</svg>