<?xml version='1.0' encoding='utf-8'?>
<svg xmlns="http://www.w3.org/2000/svg" id="Layer_2" data-name="Layer 2" viewBox="0 0 124.105 100.861">
  <g id="Color" fill="#00ABF6">
    <path d="M102.798,54.063l-15.775,3.225c-.113-3.431-.938-6.965-2.493-10.314-1.546-3.38-3.905-6.491-6.862-9.088-2.957-2.576-6.491-4.719-10.479-5.955-3.977-1.247-8.356-1.731-12.735-1.329-8.768.793-17.681,5.523-23.677,13.292-3.009,3.853-5.286,8.428-6.553,13.405-.412,1.236-.536,2.514-.773,3.802-.258,1.278-.381,2.586-.443,3.895-.134,2.627-.01,5.296.402,7.954l-1.494.402c-.948-3.472-1.453-7.13-1.453-10.912,0-22.966,18.618-41.585,41.595-41.585,20.092,0,36.856,14.26,40.74,33.208Z" />
  </g>
  <g id="Grey" fill="#282828">
    <path d="M110.547,100.861H13.558l-1.544-2.102C4.155,88.058,0,75.367,0,62.059,0,27.84,27.835,0,62.048,0s62.057,27.84,62.057,62.059c0,13.308-4.155,25.999-12.013,36.7l-1.544,2.102ZM18.851,90.557h86.403c5.6-8.46,8.548-18.259,8.548-28.499,0-28.538-23.217-51.755-51.754-51.755S10.304,33.521,10.304,62.059c0,10.239,2.947,20.039,8.548,28.499Z" />
  </g>
</svg>