<?xml version='1.0' encoding='utf-8'?>
<svg xmlns="http://www.w3.org/2000/svg" id="Layer_2" data-name="Layer 2" viewBox="0 0 124.744 121.761">
  <g id="Color" fill="#00ABF6">
    <path d="M62.286,61.327c4.983.089,9.541-4.396,9.592-9.433.05-5.111-4.276-9.495-9.398-9.53-5.165-.035-9.526,4.199-9.615,9.337-.085,4.964,4.388,9.538,9.422,9.626Z" />
    <path d="M76.592,70.45c-.067-.622-.134-1.215-.134-1.454-.038-.66-.344-1.55-1.608-1.943l-.182-.038c-3.914-1.158-7.866-2.316-11.981-2.239-.105,0-.211,0-.316.009-.105-.009-.21-.009-.316-.009-4.115-.077-8.067,1.081-11.981,2.239l-.182.038c-1.263.392-1.569,1.282-1.608,1.943,0,.239-.067.832-.134,1.454-.086.813-.172,1.617-.192,1.99-.067,3.378-.096,6.909-.048,10.899,0,1.311.019,2.66.048,4.057.019,1.072.239,2.115.651,3.091.412,1.034,1.043,2.029,1.895,3.033.029.019.067.067.086.105.134.172.268.354.354.526.019.44.038.852.067,1.311,0,.124,0,.239.019.364.105,2.421.22,4.909.306,7.387.297,1.311.804,2.411,1.522,3.273,1.254,1.512,3.12,2.325,5.474,2.335h8.076c2.354-.01,4.22-.823,5.474-2.335.718-.861,1.225-1.962,1.522-3.273.086-2.478.201-4.966.306-7.387.019-.124.019-.239.019-.364.029-.459.048-.871.067-1.311.086-.172.22-.354.354-.526.019-.038.057-.086.086-.105.852-1.005,1.483-2,1.895-3.033.412-.976.632-2.019.651-3.091.029-1.397.048-2.746.048-4.057.048-3.99.019-7.522-.048-10.899-.019-.373-.105-1.177-.191-1.99Z" />
  </g>
  <g id="Grey" fill="#282828">
    <path d="M122.757,41.065L67.163,1.981c-2.641-2.64-6.939-2.641-9.581,0L1.987,41.065c-1.944,1.945-2.52,4.843-1.468,7.383,1.052,2.54,3.509,4.182,6.259,4.182h27.945v69.131h55.299V52.629h27.945c2.75,0,5.206-1.641,6.259-4.182,1.052-2.54.476-5.438-1.468-7.383ZM118.124,45.921c-.044.105-.084.105-.157.105h-34.549v69.131h-42.09V46.025H6.778c-.073,0-.114,0-.158-.105-.044-.106-.015-.135.037-.186L62.252,6.651c.057-.056.185-.057.241,0l55.594,39.083c.052.052.081.081.037.186Z" />
  </g>
</svg>