<?xml version='1.0' encoding='utf-8'?>
<svg xmlns="http://www.w3.org/2000/svg" id="Layer_2" data-name="Layer 2" viewBox="0 0 122.733 120.943">
  <g id="Color" fill="#00ABF6">
    <path d="M95.453,67.589c-.084-3.702-3.01-6.503-6.808-6.503-3.663,0-6.643,3.018-6.643,6.727,0,3.625,3.063,6.685,6.688,6.685,1.898-.022,3.625-.735,4.866-2.004,1.244-1.272,1.917-3.013,1.898-4.905Z" />
    <path d="M98.704,36.497l2.065-1.839c5.12-4.521,10.732-9.473,10.768-16.292.036-4.66-2.236-9.436-6.079-12.778l-.003-.003c-4.12-3.601-9.865-5.585-16.179-5.585-10.754,0-22.224,6.178-23.341,17.984-.082.75.055,1.119,1.052,1.234,2.782.323,5.602.685,8.373,1.047.59.085,1.019.145,1.351.145.622,0,.774-.13,1.295-1.759,1.566-5.095,5.483-8.144,10.472-8.144,3.879,0,7.482,1.954,8.96,4.863.934,1.836,1.459,4.824-1.327,8.643-1.534,2.107-3.563,3.612-5.525,5.068-2.469,1.833-5.022,3.728-6.396,6.789-1.856,4.096-1.873,9.791-1.743,14.808,0,.72.204.92.91.92,1.625-.041,3.322-.041,4.955-.041.362.01.7.012,1.033.012l1.8-.01c.562,0,1.121.007,1.671.038.847.032,1.037-.165,1.093-.222.168-.175.243-.516.226-1.037,0-2.588.092-4.931.282-7.199.229-3.031,2.292-4.866,4.284-6.642Z" />
  </g>
  <g id="Grey" fill="#282828">
    <path d="M119.793,88.428c-1.432-.186-3.047.126-4.429.628-8.317,3.02-16.231,6.541-24.515,9.65-.409.153-.882.326-1.148.64-2.157,2.541-4.999,3.568-8.183,3.606-5.153.061-10.305.233-15.457.356-3.495.083-6.989.173-10.484.236-.883.016-1.996-.968-2.053-2-.058-1.034.647-1.385,1.544-1.474.356-.035.715-.061,1.073-.07,4.345-.111,8.691-.218,13.036-.326,4.569-.114,9.143-.145,13.707-.369,3.191-.156,5.36-2.531,5.413-5.588.056-3.283-2.489-5.765-5.95-5.699-5.127.097-11.613-.604-16.871-1.418-6.255-.969-9.299-4.171-15.367-6.122-9.351-3.006-18.924-1.916-28.578-1.718-.017-.672-.033-1.344-.05-2.016-.054-2.124-1.086-3.048-3.236-2.999-5.641.129-11.281.268-16.922.407-.347.008-.693.053-1.32.102.315,3.006.529,5.936.942,8.839,1.54,10.82,5.311,20.825,11.225,30.011.271.42.949.799,1.448.813,1.922.052,3.85-.037,5.774-.104,1.908-.067,2.956-1.149,2.912-3.091-.013-.551-.026-1.102-.039-1.653.009.003.016.006.025.008,4.34,1.235,8.66,2.542,12.995,3.794,8.07,2.33,16.094,4.845,24.236,6.892,6.753,1.698,13.562,1.898,19.982-1.637,13.6-7.488,27.213-14.954,40.801-22.463.678-.375,1.292-.99,1.744-1.629,1.536-2.173.38-5.263-2.251-5.604Z" />
  </g>
</svg>