<?xml version='1.0' encoding='utf-8'?>
<svg xmlns="http://www.w3.org/2000/svg" id="Layer_2" data-name="Layer 2" viewBox="0 0 123.54 125.313">
  <g id="Color" fill="#00ABF6">
    <path d="M55.24,119.984s-.006,0-.009,0c-.68-.047-1.367-.111-2.043-.189-.975-.112-1.675-.992-1.563-1.968.112-.975.997-1.677,1.968-1.563.624.071,1.259.13,1.887.174.979.068,1.717.918,1.649,1.897-.068.976-.912,1.712-1.887,1.649Z" />
    <path d="M67.021,119.226c-.781-.05-1.463-.617-1.626-1.421-.195-.962.427-1.899,1.389-2.095.617-.125,1.239-.265,1.847-.417.953-.237,1.917.342,2.155,1.293.238.953-.341,1.917-1.293,2.155-.66.165-1.334.317-2.002.453-.158.032-.315.042-.469.032Z" />
    <path d="M101.904,72.139c-.026.004-.053.006-.08.009-.977.087-1.84-.635-1.927-1.613-.056-.626-.126-1.26-.209-1.883-.13-.973.554-1.867,1.526-1.996s1.867.553,1.996,1.526c.09.675.166,1.361.226,2.039.084.951-.597,1.793-1.534,1.918Z" />
    <path d="M14.67,74.252c-.006,0-.013,0-.019,0-.98-.042-1.742-.87-1.7-1.851.029-.679.073-1.368.132-2.047.085-.977.947-1.702,1.924-1.617.978.085,1.702.946,1.617,1.924-.054.628-.095,1.264-.122,1.891-.041.974-.86,1.732-1.832,1.701Z" />
    <path d="M98.926,59.65c-.787.105-1.575-.331-1.884-1.102-.232-.58-.482-1.166-.743-1.741-.406-.894-.01-1.947.884-2.352.894-.406,1.947-.01,2.353.884.283.624.554,1.259.806,1.889.365.911-.078,1.945-.99,2.31-.14.056-.283.093-.426.112Z" />
    <path d="M17.395,60.767c-.189-.006-.379-.042-.565-.112-.919-.343-1.386-1.367-1.042-2.287.24-.642.497-1.285.765-1.912.385-.903,1.43-1.323,2.332-.937.903.385,1.323,1.429.937,2.332-.246.577-.483,1.17-.704,1.762-.274.733-.98,1.178-1.721,1.155Z" />
    <path d="M91.861,47.845c-.583.078-1.193-.136-1.599-.62-.403-.481-.823-.959-1.247-1.421-.664-.723-.616-1.847.107-2.511.722-.664,1.847-.616,2.511.107.461.502.916,1.021,1.353,1.543.631.752.532,1.873-.221,2.503-.268.224-.582.356-.905.399Z" />
    <path d="M24.187,48.793c-.37-.012-.739-.139-1.051-.388-.767-.612-.892-1.731-.28-2.497.425-.533.869-1.063,1.318-1.577.646-.739,1.769-.814,2.507-.167.738.646.814,1.769.167,2.507-.414.474-.823.963-1.215,1.454-.364.456-.906.685-1.447.668Z" />
    <path d="M65.507,98.205c-.047-2.057-1.672-3.613-3.782-3.613-2.035,0-3.691,1.677-3.691,3.737,0,2.014,1.702,3.714,3.716,3.714,1.054-.013,2.014-.408,2.703-1.113.691-.706,1.065-1.674,1.054-2.725Z" />
    <path d="M67.313,80.931l1.147-1.022c2.845-2.512,5.963-5.263,5.983-9.052.02-2.589-1.242-5.243-3.377-7.099l-.002-.002c-2.289-2.001-5.481-3.103-8.989-3.103-5.975,0-12.347,3.432-12.968,9.992-.046.417.03.622.585.686,1.546.179,3.112.38,4.652.582.328.047.566.081.751.081.345,0,.43-.072.72-.977.87-2.831,3.047-4.525,5.818-4.525,2.155,0,4.157,1.085,4.978,2.702.519,1.02.811,2.68-.737,4.802-.853,1.171-1.98,2.007-3.07,2.816-1.372,1.019-2.79,2.071-3.553,3.772-1.031,2.276-1.04,5.44-.968,8.227,0,.4.113.511.505.511.903-.023,1.845-.023,2.753-.023.201.005.389.007.574.007l1-.006c.312,0,.623.004.928.021.47.018.576-.092.607-.123.093-.097.135-.287.126-.576,0-1.438.051-2.74.157-4,.127-1.684,1.273-2.703,2.38-3.69Z" />
  </g>
  <g id="Grey" fill="#282828">
    <path d="M49.595,19.518c.721,1.487,1.785,2.858,3.252,4.186,1.456,1.318,3.31,2.048,5.376,2.048.007,0,.014,0,.021-.002l.281.007c1.922,0,3.785-.729,5.245-2.052,1.467-1.327,2.53-2.699,3.254-4.19,1.504-3.131,2.28-6.314,2.306-9.482l.006-.358c.009-.367.014-.734-.023-1.108-.372-3.703-2.475-6.37-6.087-7.711-1.496-.549-3.146-.838-4.934-.854-1.756.016-3.405.305-4.907.856-3.606,1.339-5.709,4.006-6.082,7.711-.036.372-.031.739-.022,1.106l.006.372c.027,3.154.802,6.337,2.309,9.473ZM58.522,23.966h0s0,.017,0,.017v-.017Z" />
    <path d="M78.811,46.08c1.171,0,2.144-.902,2.221-2.071.151-2.303.268-5.669.268-5.669.024-.275.169-2.752-2.449-4.751-.779-.593-1.74-1.085-2.792-1.438,0,0-7.401-2.808-7.412-2.812-1.565-.594-3.151-.759-4.62.3l-.305.247c-.433.397-.72.857-.95,1.226-.077.122-.152.247-.238.365l-4.225,5.931-.581-.815c-1.452-2.036-2.902-4.073-4.344-6.116-.1-.143-.202-.277-.33-.434-.539-.635-1.138-1.048-1.833-1.263l-.626-.111-2.35.589-7.62,2.87c-1.117.376-2.078.868-2.853,1.461-2.62,1.999-2.476,4.477-2.459,4.592,0,0,.119,3.46.271,5.804.076,1.169,1.047,2.074,2.219,2.074l41.009.021Z" />
    <path d="M14.289,98.75c.721,1.487,1.785,2.858,3.252,4.186,1.456,1.318,3.309,2.048,5.376,2.048.007,0,.014,0,.021-.002l.28.007c1.922,0,3.785-.73,5.245-2.052,1.467-1.327,2.53-2.699,3.254-4.19,1.504-3.131,2.28-6.314,2.306-9.482l.006-.358c.009-.367.014-.734-.023-1.108-.372-3.703-2.475-6.37-6.087-7.711-1.496-.55-3.145-.838-4.934-.854-1.756.016-3.405.305-4.907.856-3.606,1.339-5.709,4.006-6.082,7.711-.036.372-.031.739-.022,1.106l.006.372c.027,3.154.802,6.337,2.309,9.473ZM23.216,103.198h0s0,.017,0,.017v-.017Z" />
    <path d="M43.505,125.312c1.171,0,2.144-.902,2.221-2.071.152-2.303.268-5.669.268-5.669.024-.275.168-2.752-2.45-4.751-.779-.593-1.74-1.085-2.792-1.438,0,0-7.401-2.808-7.412-2.812-1.565-.594-3.151-.759-4.62.3l-.305.247c-.433.397-.72.857-.95,1.226-.077.122-.152.247-.238.365l-4.225,5.931-.581-.815c-1.452-2.036-2.902-4.073-4.344-6.116-.1-.143-.202-.277-.33-.434-.539-.635-1.138-1.048-1.833-1.263l-.626-.111-2.35.589-7.62,2.87c-1.117.376-2.078.868-2.854,1.461C-.155,114.82-.01,117.298.007,117.413c0,0,.119,3.46.271,5.804.076,1.169,1.047,2.073,2.219,2.074l41.009.021Z" />
    <path d="M91.825,98.75c.721,1.487,1.785,2.858,3.252,4.186,1.456,1.318,3.309,2.048,5.376,2.048.007,0,.014,0,.021-.002l.28.007c1.922,0,3.785-.73,5.245-2.052,1.467-1.327,2.53-2.699,3.254-4.19,1.504-3.131,2.28-6.314,2.306-9.482l.006-.358c.009-.367.014-.734-.023-1.108-.372-3.703-2.475-6.37-6.087-7.711-1.496-.55-3.146-.838-4.934-.854-1.756.016-3.405.305-4.907.856-3.606,1.339-5.709,4.006-6.082,7.711-.036.372-.031.739-.022,1.106l.006.372c.027,3.154.802,6.337,2.309,9.473ZM100.752,103.198h0s0,.017,0,.017l-.002-.017Z" />
    <path d="M121.042,125.312c1.171,0,2.144-.902,2.221-2.071.152-2.303.268-5.669.268-5.669.024-.275.169-2.752-2.449-4.751-.779-.593-1.74-1.085-2.792-1.438,0,0-7.401-2.808-7.412-2.812-1.565-.594-3.151-.759-4.62.3l-.305.247c-.433.397-.72.857-.95,1.226-.077.122-.152.247-.238.365l-4.225,5.931-.581-.815c-1.452-2.036-2.902-4.073-4.344-6.116-.1-.143-.202-.277-.33-.434-.539-.635-1.138-1.048-1.833-1.263l-.626-.111-2.35.589-7.62,2.87c-1.117.376-2.078.868-2.854,1.461-2.62,1.999-2.476,4.476-2.459,4.592,0,0,.119,3.46.271,5.804.076,1.169,1.047,2.073,2.219,2.074l41.009.021Z" />
  </g>
</svg>