<?xml version='1.0' encoding='utf-8'?>
<svg xmlns="http://www.w3.org/2000/svg" id="Layer_2" data-name="Layer 2" viewBox="0 0 125.528 112.543">
  <g id="Color" fill="#00ABF6">
    <path d="M113.511,27.573c-1.232-.894-2.284-2.087-3.037-3.532-1.136-2.177-1.395-4.579-.894-6.806.427-1.974-.928-3.926-2.925-4.185-1.519-.208-3.009-.759-4.359-1.682-2.031-1.389-3.392-3.386-4.016-5.591-.54-1.941-2.66-3.004-4.545-2.295-1.44.54-3.004.754-4.624.585-2.453-.264-4.601-1.384-6.187-3.032-.658-.681-1.536-1.029-2.419-1.035-.889.006-1.766.354-2.424,1.035-1.586,1.648-3.735,2.767-6.182,3.032-1.62.169-3.189-.045-4.624-.585-1.89-.709-4.011.354-4.55,2.295-.624,2.205-1.986,4.202-4.016,5.591-1.35.923-2.841,1.474-4.359,1.682-1.997.259-3.352,2.211-2.919,4.185.495,2.227.236,4.629-.894,6.806-.748,1.446-1.806,2.638-3.043,3.532-1.637,1.176-1.924,3.538-.607,5.062,1.491,1.732,2.407,3.977,2.441,6.435.022,1.637-.337,3.178-1.013,4.556-.878,1.806-.017,4.016,1.862,4.742,2.132.821,3.999,2.368,5.197,4.522.788,1.423,1.198,2.964,1.266,4.489.079,2.019,1.89,3.549,3.898,3.296,2.256-.281,4.629.203,6.694,1.536,1.372.878,2.464,2.042,3.24,3.358,1.018,1.738,3.341,2.222,4.989,1.057,1.457-1.035,3.189-1.682,5.046-1.828,1.851.146,3.583.793,5.04,1.828,1.648,1.164,3.971.68,4.995-1.057.776-1.316,1.862-2.481,3.24-3.358,2.07-1.333,4.438-1.817,6.694-1.536,2.003.253,3.825-1.277,3.904-3.296.062-1.524.467-3.066,1.26-4.489,1.198-2.154,3.06-3.701,5.192-4.522,1.879-.726,2.745-2.936,1.862-4.742-.675-1.378-1.035-2.919-1.013-4.556.039-2.458.956-4.703,2.447-6.435,1.311-1.524,1.024-3.887-.613-5.062ZM95.823,32.24c-2.046,1.688-4.062,3.401-6.128,5.049-.559.454-.68.872-.504,1.557.66,2.504,1.25,5.024,1.869,7.539.237.957.015,1.764-.776,2.373-.69.529-1.618.509-2.489-.045-2.278-1.431-4.57-2.852-6.823-4.314-.499-.322-.831-.297-1.315.01-2.167,1.381-4.374,2.716-6.551,4.087-.625.383-1.28.605-2.006.428-1.104-.257-1.734-1.366-1.456-2.499.69-2.741,1.371-5.477,2.091-8.209.106-.413.015-.655-.282-.907-1.94-1.628-3.87-3.265-5.805-4.893-.721-.595-1.371-1.204-1.295-2.273.076-1.028.852-1.839,1.885-1.91,2.852-.181,5.699-.383,8.546-.549.449-.025.579-.267.726-.61.962-2.363,1.935-4.722,2.903-7.075.091-.217.166-.438.272-.65.403-.801,1.043-1.25,1.96-1.235.917.01,1.542.474,1.88,1.32,1.018,2.54,2.036,5.074,3.029,7.619.202.514.428.756,1.043.791,2.499.131,4.989.343,7.488.539.368.03.746.075,1.104.171.917.262,1.466,1.063,1.461,2.111.045.665-.317,1.154-.826,1.572Z" />
  </g>
  <g id="Grey" fill="#282828">
    <path d="M122.522,79.287c-1.464-.19-3.116.129-4.53.643-8.506,3.089-16.601,6.689-25.074,9.87-.418.157-.902.334-1.174.654-2.206,2.599-5.113,3.649-8.37,3.688-5.27.063-10.539.239-15.809.364-3.574.085-7.148.177-10.723.241-.903.016-2.041-.99-2.1-2.045-.059-1.057.662-1.417,1.579-1.508.364-.036.731-.062,1.097-.072,4.444-.113,8.889-.223,13.333-.334,4.673-.116,9.351-.149,14.019-.378,3.264-.16,5.483-2.588,5.536-5.715.058-3.358-2.546-5.896-6.086-5.829-5.244.099-11.877-.617-17.256-1.451-6.397-.991-9.51-4.266-15.717-6.261-9.564-3.074-19.355-1.959-29.229-1.757-.017-.687-.034-1.375-.051-2.062-.056-2.172-1.111-3.117-3.31-3.067-5.769.132-11.538.274-17.307.416-.355.009-.709.054-1.35.105.322,3.074.541,6.072.963,9.04,1.575,11.067,5.432,21.299,11.48,30.695.277.43.971.818,1.481.831,1.966.053,3.937-.038,5.905-.107,1.951-.068,3.023-1.175,2.978-3.162-.013-.563-.027-1.127-.04-1.69.009.003.016.006.026.008,4.439,1.263,8.857,2.6,13.291,3.88,8.254,2.383,16.461,4.956,24.788,7.049,6.907,1.736,13.871,1.941,20.437-1.674,13.91-7.658,27.832-15.295,41.731-22.975.694-.383,1.321-1.013,1.783-1.666,1.571-2.223.389-5.383-2.302-5.732Z" />
  </g>
</svg>