<?xml version='1.0' encoding='utf-8'?>
<svg xmlns="http://www.w3.org/2000/svg" id="Layer_2" data-name="Layer 2" viewBox="0 0 1284.893 1536">
  <g id="Color" fill="#00ABF6">
    <path d="M300.088,328.227H80.65l10.312-60.243c1.29-7.556,7.794-13.037,15.453-13.037h167.897c7.67,0,14.173,5.481,15.463,13.037l10.312,60.243Z" />
    <path d="M107.272,1172.511v363.489h240.898v-363.489H107.272ZM305.301,1370.766h-45.977c-9.115,0-16.516-7.391-16.516-16.516s7.401-16.516,16.516-16.516h45.977c9.125,0,16.516,7.401,16.516,16.516s-7.391,16.516-16.516,16.516Z" />
    <rect x="486.555" y="1060.201" width="124.655" height="99.148" />
    <rect x="770.715" y="1060.201" width="124.655" height="99.148" />
    <rect x="1054.875" y="1060.201" width="124.655" height="99.148" />
    <rect x="486.555" y="1303.484" width="124.655" height="99.138" />
    <rect x="770.715" y="1303.484" width="124.655" height="99.138" />
    <rect x="1054.875" y="1303.484" width="124.655" height="99.138" />
    <path d="M288.124,16.516c0,36.191-5.75,54.534-11.314,72.279-5.037,16.072-9.796,31.246-9.796,62.39,0,9.125-7.391,16.516-16.516,16.516s-16.516-7.391-16.516-16.516c0-36.191,5.75-54.534,11.314-72.268,5.037-16.083,9.796-31.257,9.796-62.4,0-9.125,7.391-16.516,16.516-16.516s16.516,7.391,16.516,16.516Z" />
    <path d="M217.435,16.516c0,36.191-5.75,54.534-11.303,72.279-5.037,16.072-9.796,31.246-9.796,62.39,0,9.125-7.401,16.516-16.516,16.516s-16.516-7.391-16.516-16.516c0-36.191,5.75-54.534,11.303-72.268,5.037-16.083,9.796-31.257,9.796-62.4,0-9.125,7.401-16.516,16.516-16.516s16.516,7.391,16.516,16.516Z" />
    <path d="M146.756,16.516c0,36.191-5.75,54.534-11.314,72.279-5.037,16.072-9.796,31.246-9.796,62.39,0,9.125-7.391,16.516-16.516,16.516s-16.516-7.391-16.516-16.516c0-36.191,5.75-54.534,11.314-72.268,5.037-16.083,9.796-31.257,9.796-62.4,0-9.125,7.391-16.516,16.516-16.516s16.516,7.391,16.516,16.516Z" />
  </g>
  <g id="Grey" fill="#282828">
    <path d="M0,926.834v609.166h74.24v-380.005c0-9.125,7.401-16.516,16.516-16.516h273.93c9.125,0,16.516,7.391,16.516,16.516v380.005h903.69v-609.166H0ZM644.243,1419.138c0,9.125-7.391,16.516-16.516,16.516h-157.688c-9.115,0-16.516-7.391-16.516-16.516v-132.17c0-9.125,7.401-16.516,16.516-16.516h157.688c9.125,0,16.516,7.391,16.516,16.516v132.17ZM644.243,1175.866c0,9.125-7.391,16.516-16.516,16.516h-157.688c-9.115,0-16.516-7.391-16.516-16.516v-132.181c0-9.115,7.401-16.516,16.516-16.516h157.688c9.125,0,16.516,7.401,16.516,16.516v132.181ZM928.403,1419.138c0,9.125-7.391,16.516-16.516,16.516h-157.688c-9.115,0-16.516-7.391-16.516-16.516v-132.17c0-9.125,7.401-16.516,16.516-16.516h157.688c9.125,0,16.516,7.391,16.516,16.516v132.17ZM928.403,1175.866c0,9.125-7.391,16.516-16.516,16.516h-157.688c-9.115,0-16.516-7.391-16.516-16.516v-132.181c0-9.115,7.401-16.516,16.516-16.516h157.688c9.125,0,16.516,7.401,16.516,16.516v132.181ZM1212.563,1419.138c0,9.125-7.391,16.516-16.516,16.516h-157.688c-9.115,0-16.516-7.391-16.516-16.516v-132.17c0-9.125,7.401-16.516,16.516-16.516h157.688c9.125,0,16.516,7.391,16.516,16.516v132.17ZM1212.563,1175.866c0,9.125-7.391,16.516-16.516,16.516h-157.688c-9.115,0-16.516-7.391-16.516-16.516v-132.181c0-9.115,7.401-16.516,16.516-16.516h157.688c9.125,0,16.516,7.401,16.516,16.516v132.181Z" />
    <path d="M1284.893,805.595v88.207H0v-79.505h481.125c8.981,0,16.31-7.174,16.506-16.145l3.995-178.023,273.672,191.184c5.244,3.665,12.139,3.974,17.693.785,5.553-3.2,8.754-9.311,8.227-15.69l-14.369-172.975,258.797,187.716c5.13,3.716,11.923,4.181,17.507,1.187,5.584-3.004,8.96-8.919,8.692-15.246l-7.184-172.015,220.232,180.521Z" />
    <polygon points="377.672 781.264 3.066 781.264 74.994 361.259 305.745 361.259 377.672 781.264" />
  </g>
</svg>