<?xml version='1.0' encoding='utf-8'?>
<svg xmlns="http://www.w3.org/2000/svg" id="Layer_2" data-name="Layer 2" viewBox="0 0 1519.028 1536">
  <g id="Color" fill="#00ABF6">
    <rect x="97.713" y="656.715" width="1059.618" height="54.16" />
    <rect x="205.076" y="122.597" width="844.892" height="369.608" />
    <path d="M721.696,1127.742c0,51.933-42.241,94.174-94.174,94.174s-94.174-42.242-94.174-94.174c0-3.05,2.582-23.338,53.546-122.977,14.958-29.24,30.031-57.377,40.628-76.905,10.597,19.507,25.638,47.602,40.586,76.822,51.006,99.712,53.588,120.01,53.588,123.06Z" />
    <path d="M1485.718,545.719v90.614c-23.713,2.55-47.457-2.852-68.005-15.677-24.275-15.167-41.201-38.869-47.654-66.756l-38.536-166.603c-12.96-55.982,17.321-111.35,69.806-131.2l1.936,3.081c53.942,85.961,82.453,185.049,82.453,286.54Z" />
  </g>
  <g id="Grey" fill="#282828">
    <path d="M97.713,744.186v643.438h1059.618v-643.438H97.713ZM627.522,1255.226c-70.295,0-127.484-57.189-127.484-127.484,0-12.252,6.506-39.046,57.241-138.227,27.523-53.806,55.42-103.897,55.701-104.396,2.935-5.278,8.505-8.546,14.542-8.546s11.606,3.268,14.552,8.546c.271.5,28.168,50.59,55.69,104.396,50.736,99.181,57.241,125.975,57.241,138.227,0,70.295-57.189,127.484-127.484,127.484Z" />
    <path d="M1110.499,20.387H144.545c-25.826,0-46.832,21.006-46.832,46.832v556.186h1059.618V67.219c0-25.826-21.006-46.832-46.832-46.832ZM1083.278,508.86c0,9.202-7.453,16.655-16.655,16.655H188.421c-9.202,0-16.655-7.453-16.655-16.655V105.942c0-9.192,7.453-16.655,16.655-16.655h878.202c9.202,0,16.655,7.464,16.655,16.655v402.918Z" />
    <path d="M1255.045,1470.868v65.132H0v-65.132c0-27.533,22.401-49.934,49.934-49.934h1155.176c27.533,0,49.934,22.401,49.934,49.934Z" />
    <path d="M1519.028,545.719v497.821c0,93.498-76.062,169.559-169.559,169.559h-158.827v-33.31h158.827c75.125,0,136.249-61.124,136.249-136.249v-497.821c0-101.492-28.511-200.579-82.453-286.54l-1.936-3.081-17.967-28.636-126.714-201.953c-4.893-7.786-2.53-18.071,5.257-22.963,7.786-4.882,18.071-2.529,22.963,5.257l137.498,219.16c.166.239.323.489.468.739l8.64,13.772c57.283,91.28,87.554,196.488,87.554,304.247Z" />
  </g>
</svg>