<?xml version='1.0' encoding='utf-8'?>
<svg xmlns="http://www.w3.org/2000/svg" viewBox="0 0 75.654 123.112">
  <g isolation="isolate">
    <g id="Layer_2" data-name="Layer 2">
      <g id="Grey" fill="#D3D3D3">
        <path d="M15.862,48.754l-5.696,5.294-.003-.003-5.559-3.147S-.689,35.353.249,24.363l7.843-.793,3.415-.346s.067,6.5,1.139,11.928c1.072,5.428,3.216,13.603,3.216,13.603Z" />
        <path d="M25.444,69.326l-1.608,1.34c-.134.804.67,2.881.67,2.881l1.742.536-.804-4.758Z" />
        <path d="M28.978,70.907c-.234-1.552-.622-2.939-1.069-3.976l-.315-2.085-1.376.208c-1.014.153-1.421,3.022-.91,6.407.511,3.386,1.747,6.006,2.76,5.853l1.376-.208-.315-2.085c.122-1.123.082-2.562-.152-4.115Z" />
        <polygon points="65.584 82.425 67.11 82.582 66.646 80.877 65.584 82.425" />
        <polygon points="64.058 82.268 65.584 82.425 65.12 80.719 64.058 82.268" />
        <path d="M67.773,82.103l-.303,2.286-2.182,16.532c-.153,1.158-1.142,2.01-2.289,2.01-.062,0-.123-.003-.185-.008-1.262-.102-2.209-1.198-2.123-2.463.279-4.055.86-12.482,1.169-16.61.104-1.399.174-2.302.193-2.375l5.72.627Z" />
        <polygon points="28.058 37.497 21.491 37.028 23.836 32.739 26.583 32.27 28.058 37.497" />
        <path d="M48.629,37.497c.201,0,8.309,2.144,8.309,2.144l4.691-4.222-6.835-2.077-6.165,4.155Z" />
        <polygon points="31.475 40.713 31.475 47.883 35.697 48.151 40.99 41.115 31.475 40.713" />
        <polygon points="31.475 47.883 24.439 45.136 21.491 37.028 29.8 37.095 31.475 40.713 31.475 47.883" />
        <polygon points="35.697 48.151 48.964 47.548 56.939 39.641 49.299 36.894 40.99 41.115 35.697 48.151" />
        <polygon points="31.475 47.883 32.48 56.997 34.155 57.131 35.697 48.151 31.475 47.883" />
        <polygon points="34.155 57.131 45.547 56.661 48.964 47.548 35.697 48.151 34.155 57.131" />
        <polygon points="32.48 56.997 26.784 55.12 24.439 45.136 31.475 47.883 32.48 56.997" />
        <path d="M46.083,64.032l-.335,3.551-5.026.469-2.68,8.577h-4.825l-3.752-7.572-2.68-.134-.67-4.356c1.431.118,4.372.086,7.567-.005.094-.003.185-.005.279-.011,5.717-.169,12.123-.52,12.123-.52Z" />
        <path d="M42.219,102.205l1.429,10.811-1.876,2.323-.089,4.914s-2.502.357-3.038,0c-.357-4.378-3.574-16.082-4.646-17.065-1.072-.983-2.055-1.966-2.055-1.966l-.179-7.326,2.412.536,1.698,5.718,6.343,2.055Z" />
        <path d="M56.603,114.268l.448,4.825-1.088-.032-.271-.008-1.147-.035-.279-.008-.255-.008-1.072-3.841-2.321-2.412-3.702-13.222-.051-.18.005-.011.976-2.313s-.893-3.573-.893-3.841l2.68-.268,1.608,2.769,3.664,1.072.82,3.176.078.3,2.675,10.373-1.876,3.664Z" />
        <path d="M68.217,78.796c-.102.038-.332.062-.654.07-.083.003-.177.005-.273.005-1.34.008-3.744-.137-5.27-.241-.828-.056-1.396-.102-1.396-.102v-6.253s.499-.104,1.193-.212c.992-.15,2.38-.303,3.275-.145.713-5.72.177-15.369.177-15.369.461-.153,1.19-.212,1.994-.201.088,0,.177,0,.265.003,1.943.054,4.203.461,4.264.826.088.536-2.86,21.352-3.576,21.62Z" />
        <polygon points="70.452 53.959 74.294 54.942 73.043 62.268 69.916 62.715 70.452 53.959" />
        <path d="M74.918,60.301s-1.072-1.876.627-2.948c.445,1.252-.627,2.948-.627,2.948Z" />
        <polygon points="69.737 77.099 68.933 82.728 62.101 82.323 59.908 82.192 59.64 76.295 62.431 76.518 69.737 77.099" />
        <path d="M31.475,40.713c-1.806-.579-3.442-2.305-4.61-3.857-1.126-1.501-1.823-2.844-1.823-2.844,0,0,1.005-10.118,3.686-11.525,0,0,.003.008.011.024.423.772.783,1.71,1.083,2.75,1.75,6.026,1.654,15.452,1.654,15.452Z" />
        <path d="M31.475,40.713c-1.806-.579-3.442-2.305-4.61-3.857-1.193-3.565-1.525-9.164,1.863-14.369,0,0,.003.008.011.024.07.177.501,1.241,1.083,2.75,1.75,6.026,1.654,15.452,1.654,15.452Z" />
        <path d="M54.794,33.342s-2.217,2.855-5.79,5.106c-2.219,1.399-4.959,2.565-8.014,2.667.557-5.503,2.972-10.242,5.492-13.348,2.021-2.493,4.112-3.932,5.363-3.873,2.814.134,2.948,9.448,2.948,9.448Z" />
        <path d="M49.005,38.448c-2.219,1.399-4.959,2.565-8.014,2.667.557-5.503,2.972-10.242,5.492-13.348,4.977,1.71,5.471,6.623,2.522,10.681Z" />
        <path d="M56.166,83.009c.369,1.398.283,2.632-.191,2.757-.474.125-1.157-.907-1.526-2.305-.369-1.398-.283-2.632.191-2.757.474-.125,1.157.907,1.526,2.304Z" />
        <path d="M50.576,69.218c.117,1.18-.428,2.2-.428,2.2,0,0-.734-.893-.851-2.073-.117-1.18.428-2.2.428-2.2,0,0,.734.893.851,2.073Z" />
        <path d="M57.456,97.638c.257.786.039,1.563.039,1.563,0,0-.635-.498-.892-1.284-.257-.787-.039-1.563-.039-1.563,0,0,.635.498.892,1.284Z" />
        <polygon points="42.934 43.952 43.202 42.791 48.294 43.059 48.116 44.31 42.934 43.952" />
        <polygon points=".249 24.363 4.262 26.67 10.903 22.956 6.481 21.281 .249 24.363" />
        <path d="M6.974,23.135l-1.409-10.426-3.121.422,1.409,10.426c.069.513.824.835,1.686.719.862-.116,1.504-.627,1.435-1.141Z" />
        <path d="M4.972,27.425c-.166-1.028-.821-1.776-1.463-1.673-.642.104-1.028,1.021-.862,2.048.166,1.027.821,1.776,1.463,1.673.642-.104,1.028-1.021.862-2.048Z" />
      </g>
      <g id="Color2" fill="#00ABF6">
        <path d="M15.862,48.754l-5.696,5.294-.003-.003c-.088-.249-5.961-16.366-5.902-27.374l3.83-3.101,3.415-.346s.067,6.5,1.139,11.928c1.072,5.428,3.216,13.603,3.216,13.603Z" fill="#697b8c" />
        <path d="M4.203,14.381c-1.355.183-2.543-.322-2.652-1.129L.007,1.83l4.906-.663,1.544,11.422c.109.807-.902,1.61-2.254,1.792Z" fill="#697b8c" />
        <path d="M30.354,70.7c.511,3.386.104,6.254-.91,6.407s-2.249-2.468-2.76-5.853c-.511-3.386-.104-6.254.91-6.407,1.014-.153,2.249,2.468,2.76,5.853Z" fill="#697b8c" />
        <path d="M52.136,123.112h6.344l.179-1.072s-1.429-.894-2.055-3.127-2.323-2.144-2.234-.268c.089,1.876-1.072,3.484-1.787,3.484s-.447.983-.447.983Z" fill="#697b8c" />
        <path d="M41.683,120.253l.983,2.859h-11.793v-1.162s8.041,0,8.398-1.787c.804-1.43,2.412.089,2.412.089Z" fill="#697b8c" />
        <circle cx="38.109" cy="98.453" r="3.574" fill="#697b8c" />
        <polygon points="62.627 81.972 62.616 81.966 62.564 81.937 62.552 81.931 62.555 81.906 62.579 81.701 62.627 81.292 62.722 80.473 61.203 80.316 61.017 81.014 60.994 81.156 60.975 81.299 60.956 81.497 60.923 81.863 61.796 81.929 62.232 81.963 62.433 81.978 62.483 82.046 60.871 82.482 62.551 83.428 62.658 82.124 64.058 82.268 63.594 80.562 62.627 81.972" fill="#697b8c" />
        <polygon points="62.439 84.864 62.551 83.428 60.756 83.922 62.439 84.864" fill="#697b8c" />
        <polygon points="62.328 86.301 62.439 84.864 60.644 85.361 62.328 86.301" fill="#697b8c" />
        <polygon points="62.219 87.738 62.328 86.301 60.534 86.799 62.219 87.738" fill="#697b8c" />
        <polygon points="62.111 89.175 62.219 87.738 60.425 88.237 62.111 89.175" fill="#697b8c" />
        <polygon points="62.003 90.613 60.21 91.114 61.896 92.051 62.003 90.613 62.003 90.613 62.111 89.175 60.317 89.676 62.003 90.613" fill="#697b8c" />
        <polygon points="60.103 92.552 61.789 93.488 61.896 92.051 60.103 92.552" fill="#697b8c" />
        <polygon points="59.996 93.99 61.683 94.926 61.789 93.488 59.996 93.99" fill="#697b8c" />
        <polygon points="59.89 95.428 61.577 96.364 61.683 94.926 59.89 95.428" fill="#697b8c" />
        <polygon points="59.784 96.866 61.471 97.802 61.577 96.364 59.784 96.866" fill="#697b8c" />
        <polygon points="59.678 98.305 61.366 99.24 61.471 97.802 59.678 98.305" fill="#697b8c" />
        <polygon points="59.573 99.743 61.26 100.678 61.366 99.24 59.573 99.743" fill="#697b8c" />
        <path d="M61.259,100.929c-.006-.039-.004-.078-.003-.118.002-.046-.003-.064.004-.134-.151.048-.294.064-.441.108-.146.039-.296.088-.439.145-.281.114-.57.264-.826.448.642.272,1.316.338,1.916.22-.08-.137-.14-.284-.178-.436-.016-.077-.03-.153-.033-.232Z" fill="#697b8c" />
        <path d="M61.47,101.597c-.429.386-.779.898-.982,1.479.692-.124,1.287-.432,1.707-.853-.302-.13-.554-.358-.725-.627Z" fill="#697b8c" />
        <path d="M62.671,102.356c-.166-.021-.328-.062-.476-.132-.123.56-.092,1.148.092,1.746.491-.477.793-1.049.882-1.62-.163.027-.332.031-.498.006Z" fill="#697b8c" />
        <path d="M64.304,103.731c.116-.653.014-1.283-.259-1.8-.241.216-.548.372-.877.419.237.523.624.997,1.135,1.382Z" fill="#697b8c" />
        <path d="M65.815,102.453c-.302-.6-.77-1.062-1.31-1.339-.056.311-.226.593-.46.816.507.295,1.118.483,1.77.523Z" fill="#697b8c" />
        <path d="M64.555,100.803c-.016.118-.034.252-.049.312.301-.007.608-.088.91-.153l.911-.199-1.622-1.032-.1.715-.05.357Z" fill="#697b8c" />
        <polygon points="66.528 99.334 64.906 98.302 64.705 99.731 66.528 99.334" fill="#697b8c" />
        <polygon points="66.728 97.905 65.106 96.873 64.906 98.302 66.728 97.905" fill="#697b8c" />
        <polygon points="66.929 96.476 65.306 95.444 65.106 96.873 66.929 96.476" fill="#697b8c" />
        <polygon points="67.129 95.047 65.507 94.015 65.306 95.444 67.129 95.047" fill="#697b8c" />
        <polygon points="67.329 93.618 65.707 92.585 65.507 94.015 67.329 93.618" fill="#697b8c" />
        <polygon points="67.53 92.189 65.908 91.156 65.707 92.585 67.53 92.189" fill="#697b8c" />
        <polygon points="67.73 90.759 66.108 89.727 65.908 91.156 67.73 90.759" fill="#697b8c" />
        <polygon points="67.931 89.33 66.308 88.298 66.108 89.727 67.931 89.33" fill="#697b8c" />
        <polygon points="68.131 87.901 66.509 86.869 66.308 88.298 68.131 87.901" fill="#697b8c" />
        <polygon points="68.331 86.472 66.709 85.44 66.509 86.869 68.331 86.472" fill="#697b8c" />
        <polygon points="68.532 85.043 66.91 84.011 66.709 85.44 68.532 85.043" fill="#697b8c" />
        <polygon points="68.732 83.614 67.11 82.582 66.91 84.011 68.732 83.614" fill="#697b8c" />
        <circle cx="62.969" cy="100.418" r=".67" fill="#697b8c" />
        <polygon points="63.974 84.001 63.974 84.604 65.784 84.805 65.784 84.269 63.974 84.001" fill="#697b8c" />
        <polygon points="63.617 87.084 63.617 87.687 65.426 87.888 65.426 87.352 63.617 87.084" fill="#697b8c" />
        <path d="M67.773,82.103l-.303,2.286-5.61-.539c.104-1.399.174-2.302.193-2.375l5.72.627Z" fill="#697b8c" mix-blend-mode="multiply" opacity=".4" />
        <polygon points="45.547 56.661 48.629 55.321 54.794 44.466 53.052 42.456 47.49 46.677 45.547 56.661" fill="#697b8c" />
        <polygon points="38.042 76.63 39.248 76.496 41.928 67.785 40.454 67.718 38.042 76.63" fill="#697b8c" />
        <path d="M55.522,83.179c-.169-.641-.404-1.203-.655-1.613l-.227-.861-1.389.547c-.474.125-.56,1.36-.191,2.757.368,1.398,1.052,2.43,1.526,2.305l1.389-.547-.227-.861c.016-.481-.057-1.086-.226-1.727Z" fill="#697b8c" />
        <ellipse cx="48.026" cy="69.594" rx="1.856" ry="6.2" transform="translate(-6.611 5.06) rotate(-5.643)" fill="#b6c9d1" />
        <path d="M35.434,76.63h-.284c-.389-1.772-1.423-6.982-1.469-12.067.094-.003.185-.005.279-.011.043,5.12,1.099,10.376,1.474,12.078Z" fill="#697b8c" />
        <path d="M40.384,120.363c-1.411-9.346-5.224-18.726-5.263-18.82l-.023-.056.651-1.395.252.118-.6,1.285c.322.8,3.899,9.829,5.257,18.827l-.275.042Z" fill="#697b8c" />
        <polygon points="50.825 101.314 54.545 119.017 54.266 119.009 50.589 101.491 46.917 99.526 46.801 99.464 46.866 99.346 46.871 99.335 46.927 99.228 50.825 101.314" fill="#697b8c" />
        <polygon points="53.352 102.611 55.963 119.06 55.692 119.052 53.065 102.514 55.727 99.931 56.153 99.518 56.341 99.711 55.805 100.231 53.352 102.611" fill="#697b8c" />
        <path d="M66.074,58.783l-3.216.089.089,2.591h3.127s.804-2.68,0-2.68Z" fill="#6f8694" />
        <polygon points="66.163 65.484 62.858 65.663 62.947 68.165 65.985 68.433 66.163 65.484" fill="#6f8694" />
        <path d="M68.74,68.589l-1.177,10.276-.037.327-.268-.032.032-.289,1.166-10.148-1.67-1.067.003-.078c.056-1.651.316-8.952.474-11.231.088,0,.177,0,.265.003-.121,1.798-.332,7.296-.469,11.161l1.681,1.078Z" fill="#697b8c" />
        <polygon points="69.29 53.78 68.844 62.625 69.916 62.715 70.452 53.959 69.29 53.78" fill="#697b8c" />
        <path d="M74.918,60.301l-3.125-.088s-.984-2.412.445-4.02c0,0,2.056.536,3.307,1.161.445,1.252-.627,2.948-.627,2.948Z" fill="#697b8c" />
        <path d="M62.02,78.63c-.828-.056-1.396-.102-1.396-.102v-6.253s.499-.104,1.193-.212l.204,6.567Z" fill="#697b8c" />
        <path d="M62.431,76.518c-.102,1.386-.255,4.302-.33,5.806l-2.192-.131-.268-5.897,2.79.222Z" fill="#697b8c" />
        <path d="M31.475,40.713c-5.026-5.83-4.288-16.685-2.747-18.226,1.541-1.541,5.361,2.546,7.706,5.83-.737,2.479-4.959,12.397-4.959,12.397Z" fill="#697b8c" />
        <path d="M48.488,69.549c-.154-1.562-.47-2.967-.864-4.026l-.207-2.098-1.385.137c-1.02.101-1.574,2.945-1.237,6.352.337,3.407,1.437,6.088,2.457,5.987l1.385-.137-.207-2.098c.179-1.115.214-2.555.059-4.117Z" fill="#697b8c" />
        <path d="M49.725,67.145l-1.997-.573s-.771,1.442-.606,3.111c.165,1.669,1.203,2.933,1.203,2.933l1.822-1.198-.422-4.273Z" fill="#697b8c" />
        <path d="M56.083,98.177c-.34-1.041-.767-1.951-1.195-2.613l-.457-1.398-.923.302c-.68.222-.629,2.243.114,4.514.743,2.271,1.896,3.932,2.576,3.709l.923-.302-.457-1.398c-.046-.787-.239-1.773-.58-2.814Z" fill="#697b8c" />
        <path d="M57.007,97.875c.743,2.271.794,4.292.114,4.514-.68.222-1.833-1.438-2.576-3.709-.743-2.271-.794-4.292-.114-4.515.68-.222,1.833,1.438,2.576,3.709Z" fill="#b6c9d1" />
        <path d="M56.564,96.353l-1.447-.089s-.308,1.099.056,2.211c.364,1.112,1.262,1.817,1.262,1.817l1.061-1.091-.931-2.848Z" fill="#697b8c" />
        <polygon points="64.444 83.532 64.041 88.759 64.779 88.759 65.315 83.532 64.444 83.532" fill="#697b8c" />
        <path d="M5.437,27.35c-.166-1.028-.821-1.776-1.463-1.673s-1.028,1.021-.862,2.048c.166,1.027.821,1.776,1.463,1.673.642-.104,1.028-1.021.862-2.048Z" fill="#697b8c" />
      </g>
      <g id="Color" fill="#00ABF6">
        <path d="M17.91,62.367c-3.49,0-6.526-3.657-9.028-10.88l1.342-.418c2.299,6.636,5.142,10.174,7.966,9.947,3.552-.277,6.963-6.209,7.802-11.359l1.396.205c-.784,4.812-4.213,12.11-9.082,12.49-.132.01-.265.016-.396.016Z" />
        <path d="M72.18,55.523l-1.312-.27c2.397-11.651-.714-18.426-4.425-20.881-2.743-1.815-6.125-1.607-9.28.572l-.762-1.103c3.628-2.506,7.558-2.72,10.781-.587,4.076,2.698,7.529,9.964,4.998,22.269Z" />
        <path d="M47.088,55.321c-1.943,5.696-1.675,9.984-1.675,9.984l-17.154.201s-.402-8.778-1.005-10.721c-.603-1.943,19.835.536,19.835.536Z" />
        <path d="M27.924,68.79c0,.201,5.093,28.948,5.093,28.948l2.613,5.495,5.83.067-3.015-7.103v-16.819l9.381,19.433,6.5-1.943-7.304-21.51-1.876-8.309-7.907-.201-9.314,1.943Z" />
        <path d="M22.652,38.055l-6.612,8.756-4.869-18.896-4.155.983s2.68,19.79,6.79,25.24c7.237-2.502,11.883-9.381,11.883-9.381l-3.038-6.701Z" />
        <path d="M34.088,31.667c-2.479,3.954-2.613,9.046-2.613,9.046l9.515.402,6.366-9.18-1.541-.938-11.727.67Z" />
        <path d="M58.122,37.698c0,.268,11.079,13.938,11.079,13.938l-2.412,21.89-3.306.089-.179-19.924-10.989-10.721,5.807-5.271Z" />
        <polygon points="48.562 71.47 53.476 81.745 54.28 81.298 49.635 71.113 48.562 71.47" />
        <polygon points="55.799 96.845 54.727 85.676 55.71 85.408 57.03 97.777 55.799 96.845" />
        <path d="M9.025,41.902c-.016.133.617,2.727.617,2.727,0,0,4.254,1.422,5.603-1.899.194-.967-.675-2.427-.675-2.427,0,0-1.692,2.82-5.545,1.598Z" />
        <path d="M7.233,32.446l.577,2.187s2.87,1.412,5.004-1.498c0-1.039-.436-1.915-.436-1.915,0,0-1.787,2.323-5.145,1.226Z" />
        <path d="M4.277,4.682c-.053-.39-.398-.666-.77-.616-.373.05-.632.408-.579.798.053.391.398.666.77.616.373-.05.632-.408.579-.798Z" />
        <path d="M4.676,7.639c-.053-.39-.398-.666-.77-.616-.373.05-.632.408-.579.798s.398.666.77.616c.373-.05.632-.408.579-.798Z" />
        <path d="M5.076,10.596c-.053-.39-.398-.666-.77-.616-.373.05-.632.408-.579.798s.398.666.771.616c.373-.05.632-.408.579-.798Z" />
        <path d="M1.097,5.055c-.051-.379-.377-.651-.737-.619l.19,1.41c.355-.065.598-.414.547-.791Z" />
        <path d="M1.497,8.012c-.051-.379-.377-.651-.737-.619l.191,1.41c.355-.065.598-.414.547-.791Z" />
        <path d="M1.896,10.969c-.051-.379-.377-.651-.737-.619l.19,1.41c.356-.065.598-.414.547-.79Z" />
        <path d="M2.987,6.549c-.053-.39-.398-.666-.77-.616-.373.05-.632.408-.579.798.053.39.398.666.77.616.373-.05.632-.408.579-.798Z" />
        <path d="M3.387,9.506c-.053-.391-.398-.666-.77-.616-.373.05-.632.408-.579.798s.398.666.771.616c.373-.05.632-.408.579-.798Z" />
        <path d="M3.787,12.462c-.053-.391-.398-.666-.771-.616-.373.05-.632.408-.579.798s.398.666.77.616c.373-.05.632-.408.579-.798Z" />
        <path d="M5.542,6.518c-.372.05-.717-.225-.77-.615-.053-.391.207-.75.579-.8.032-.004.064-.006.094-.007l.19,1.405c-.029.007-.06.014-.092.018Z" />
        <path d="M5.942,9.475c-.372.05-.717-.225-.77-.615-.053-.391.207-.748.579-.798.032-.004.064-.006.094-.007l.19,1.402c-.029.007-.06.014-.092.018Z" />
        <path d="M6.341,12.431c-.372.05-.717-.225-.77-.615-.053-.391.207-.748.579-.798.032-.004.064-.006.094-.007l.19,1.403c-.029.007-.06.014-.092.018Z" />
        <path d="M2.263.037C.909.22-.101,1.023.008,1.83c.109.807,1.295,1.312,2.65,1.13,1.354-.183,2.364-.986,2.255-1.792C4.804.36,3.617-.146,2.263.037Z" />
        <path d="M2.34.608c-.825.111-1.44.6-1.374,1.092.066.492.789.8,1.614.688.825-.112,1.44-.6,1.374-1.092-.066-.492-.789-.8-1.614-.688Z" />
        <polygon points="4.158 27.021 11.216 23.715 11.707 24.832 4.381 28.183 4.158 27.021" />
      </g>
      <g id="Face">
        <path d="M7.092,29.188s4.257-1.033,4.221-1.162c-.035-.129-.19-4.396-.19-4.396l-4.004,1.612-.026,3.946Z" fill="#645220" />
        <path d="M11.614,22.383c-.251-.028-.617.167-.91.359-.116-.052-.481-.183-.879.041-.481.271-.453.542-.453.542,0,0-.341-.23-.901-.076s-1.385,1.03-1.385,1.03l1.875.92s.426,1.041,1.005.789c.39-.17.346-.618.275-.894.115.318.356.846.653.731.151-.058.173-.472.141-.978.161.174.625.623.884.325.316-.365.174-2.735-.304-2.789Z" fill="#645220" />
        <path d="M36.233,27.178l-1.206,4.892s1.274,1.301,4.624,1.206c4.758-.134,8.376-2.546,8.376-2.546l-2.077-7.438-1.675-.335-4.155,3.886-3.886.335Z" fill="#645220" />
        <path d="M36.166,11.095l-2.345,2.613-.201,13.804s8.614,1.575,10.587-.201c1.34-1.206,1.206-6.232,1.206-6.232l-.067-4.289s1.675-1.876.67-3.819c-1.005-1.943-8.443-1.876-8.979-1.809-.536.067-.871-.067-.871-.067Z" fill="#645220" />
        <path d="M36.434,17.193c-.402,2.881-.268,4.691-.134,5.026.134.335,3.283-.201,3.283-.201,0,0-2.479,0-2.814-.402-.335-.402-.335-4.423-.335-4.423Z" fill="#645220" />
        <path d="M44.944,21.113c2.278-2.111,4.021-2.144,4.188-.771.167,1.374-1.106,2.848-1.876,3.082-.771.234-2.211-.302-2.211-.302l-.101-2.01Z" fill="#645220" />
        <path d="M7.092,29.188s-1.053-4.668-.713-4.947c.34-.279,2.216-.703,2.33-.456.114.247.489,1.976-.04,2.075-.529.099-.647-.866-.8-.917-.153-.051-.477.456-.477.456,0,0,.835,3.708-.301,3.789Z" fill="#645220" />
        <path d="M11.313,28.026s1.147-1.891,1.295-2.534-.02-1.755-.244-2.064c-.224-.309-2.934.113-3.134.399-.199.287.546.637.935,1.04.389.403,1.5-.274,1.5-.274,0,0-1.438,1.508-1.473,1.888-.034.38,1.12,1.545,1.12,1.545Z" fill="#645220" />
      </g>
      <g id="Hair">
        <path d="M49.903,12.637c-1.742,3.82-2.01,7.773-2.01,7.773l-3.015.402s-.067-5.495.469-6.433c.445-.777-6.717-1.879-9.172-2.233-.507-.072-.812-.113-.812-.113l-.737-3.216,2.077-.603s.322-.054.874-.099c2.318-.196,8.7-.241,12.327,4.522Z" fill="#D6E101" />
        <path d="M38.021,11.698l-1.847.448c-.507-.072-.812-.113-.812-.113l-.737-3.216,2.077-.603s.322-.054.874-.099c.153,1.353.445,3.584.445,3.584Z" fill="#D6E101" mix-blend-mode="multiply" opacity=".5" />
        <path d="M41.057,17.495c0,.555-.33,1.005-.737,1.005s-.737-.45-.737-1.005.33-1.005.737-1.005.737.45.737,1.005Z" fill="#D6E101" />
        <path d="M36.233,17.361c0,.555-.33,1.005-.737,1.005s-.737-.45-.737-1.005.33-1.005.737-1.005.737.45.737,1.005Z" fill="#D6E101" />
        <path d="M37.283,23.884c2.392-.397,4.227-2.098,4.227-2.098l.611,1.936s-3.894.68-4.837.162Z" fill="#D6E101" />
        <polygon points="37.64 15.317 37.908 17.327 42.666 17.193 42.599 15.652 37.64 15.317" fill="#D6E101" />
        <polygon points="36.501 15.384 36.434 17.193 33.15 17.126 33.083 15.451 36.501 15.384" fill="#D6E101" />
      </g>
    </g>
  </g>
</svg>