<?xml version='1.0' encoding='utf-8'?>
<svg xmlns="http://www.w3.org/2000/svg" id="Layer_2" data-name="Layer 2" viewBox="0 0 125.9 119.681">
  <g id="Color" fill="#00ABF6">
    <rect x="-43.803" y="46.931" width="101.309" height="7.508" transform="translate(-43.891 57.1) rotate(-89.506)" />
    <path d="M122.146,119.681h-7.56c-2.074,0-3.754-1.68-3.754-3.754s1.68-3.754,3.754-3.754h7.56c2.074,0,3.754,1.68,3.754,3.754s-1.68,3.754-3.754,3.754Z" />
    <path d="M93.8,119.681h-7.559c-2.074,0-3.754-1.68-3.754-3.754s1.68-3.754,3.754-3.754h7.559c2.074,0,3.754,1.68,3.754,3.754s-1.68,3.754-3.754,3.754ZM65.453,119.681h-7.56c-2.074,0-3.754-1.68-3.754-3.754s1.68-3.754,3.754-3.754h7.56c2.074,0,3.754,1.68,3.754,3.754s-1.68,3.754-3.754,3.754ZM37.107,119.681h-7.56c-2.074,0-3.754-1.68-3.754-3.754s1.68-3.754,3.754-3.754h7.56c2.074,0,3.754,1.68,3.754,3.754s-1.68,3.754-3.754,3.754Z" />
    <path d="M8.76,119.681H3.754c-2.074,0-3.754-1.68-3.754-3.754s1.68-3.754,3.754-3.754h5.006c2.074,0,3.754,1.68,3.754,3.754s-1.68,3.754-3.754,3.754Z" />
  </g>
  <g id="Grey" fill="#D3D3D3">
    <path d="M23.029,30.209c.002-2.903,1.783-4.703,4.657-4.718,4.138-.022,8.277-.02,12.415,0,2.849.013,4.647,1.836,4.653,4.727.015,7.185-.269,36.117-.269,43.302,0,7.003.005,14.007-.002,21.01-.003,3.258-1.716,4.992-4.939,4.999-4.002.01-8.004.012-12.006.001-2.975-.008-4.781-1.78-4.784-4.736-.011-14.28.263-50.306.274-64.585Z" />
    <path d="M90.735,69.068c4.093-.015,8.185-.017,12.278,0,2.948.013,4.716,1.814,4.726,4.793.012,3.456.003,6.912.004,10.368.001,3.456.01,6.912-.002,10.368-.01,3.165-1.74,4.921-4.87,4.932-4.002.014-8.003.014-12.005,0-3.075-.01-4.851-1.759-4.857-4.802-.013-6.957-.01-13.915.001-20.873.005-2.993,1.765-4.776,4.724-4.788Z" />
    <path d="M71.458,47.233c-4.142-.013-8.284-.013-12.413,0-2.878.025-4.655,1.814-4.655,4.718v6.132c0,1.677,0,3.341-.012,5.005v20.585c.012,1.677.012,3.341.012,5.005v6.119c0,2.953,1.802,4.73,4.78,4.73,4.004.012,7.996.012,12.001,0,3.229,0,4.943-1.739,4.943-4.993v-42.571c-.013-2.891-1.802-4.718-4.655-4.73ZM71.733,88.678h-12.964c0-1.664,0-3.329-.013-5.005h12.977v5.005ZM71.733,75.877h-12.977v-5.005h12.977v5.005ZM71.733,63.088h-12.977c.013-1.664.013-3.329.013-5.005h12.964v5.005Z" />
  </g>
</svg>