<?xml version='1.0' encoding='utf-8'?>
<svg xmlns="http://www.w3.org/2000/svg" id="Layer_2" data-name="Layer 2" viewBox="0 0 108.519 124">
  <g id="Grey" fill="#D3D3D3">
    <path d="M95.262,12.534c-.945-.88-1.895-1.715-2.854-2.501-3.312-2.725-6.733-4.908-10.248-6.554-3.571-1.672-7.242-2.785-10.995-3.334-1.45-.212-2.929-.195-4.37.073l-.021.004c-.04.005-.08.015-.119.02-.527.099-.895.562-.766,1.084.338,1.348.631,2.7.885,4.062.462,2.466.796,4.958.999,7.469.065.82-.343,1.576-.999,1.984-.284.179-.612.293-.97.313-1.705.104-3.501-.457-5.201-.373-1.964.112-3.85,1.056-5.097,5.067-.069.223-.114.463-.114.697,0,2.153,1.224,4.171,3.128,5.171,2.392,1.253,4.774.075,7.28.234.358.02.691.134.975.318.651.408,1.059,1.164.989,1.984-.204,2.486-.532,4.948-.989,7.389-.259,1.387-.562,2.765-.905,4.137-.129.522.244.96.766,1.084.045.01.095.02.139.03,4.252,1.027,8.694,1.1,13.038.82.403-.025.781-.129,1.119-.303.676-.353,1.169-.98,1.248-1.79.244-2.486-1.034-5.326.124-7.638.97-1.924,3.163-3.297,5.316-3.292h.065c2.153,0,4.346,1.372,5.311,3.297,1.164,2.312-.124,5.151.119,7.643.08.805.567,1.432,1.243,1.78,1.434.738,3.402.47,4.985.456,2.182-.019,4.365-.103,6.521-.438.891-.138,1.776-.303,2.655-.516-.428-11.298-6.091-21.705-13.257-28.378Z" />
    <path d="M78.293,57.116c-.403,3.975-1.582,8.016-3.736,11.969-.904,1.662-1.79,3.368-2.641,5.012l-.43.829c-1.325,2.57-2.557,4.954-3.917,7.347-3.855,6.807-6.275,13.338-7.387,19.91-.284,1.56-.487,3.164-.616,4.795-.293,3.767-2.779,8.278-6.612,12.04-7.6,6.656-19.883,6.62-27.417.031-3.868-3.793-6.354-8.309-6.647-12.084-.129-1.617-.332-3.217-.598-4.693-1.13-6.66-3.554-13.197-7.405-19.999-1.347-2.375-2.575-4.75-3.904-7.316l-.554-1.068c-.82-1.582-1.666-3.217-2.53-4.803-8.504-15.625-1.843-32.566,7.945-41.695,7.17-6.687,14.947-10.453,23.158-11.238l.74,2.982.022.098c.142.651.27,1.303.394,1.954.465,2.486.798,4.994,1.006,7.52.062.824-.346,1.586-1.006,1.999-.288.177-.616.292-.979.315-1.715.106-3.523-.461-5.233-.377-.705.04-1.391.186-2.047.536-1.879.997-3.2,3.137-3.2,5.269,0,2.167,1.232,4.196,3.146,5.207,2.411,1.258,4.808.075,7.329.235.363.018.696.133.984.319.656.412,1.064,1.17.993,1.999-.204,2.504-.532,4.981-.993,7.44-.261,1.396-.567,2.783-.913,4.165-.128.523.244.966.771,1.09.044.009.097.018.142.031,4.281,1.033,8.752,1.108,13.126.824.403-.027.784-.129,1.126-.306.177-.093.346-.204.492-.337.421-.359.709-.86.767-1.467.244-2.504-1.041-5.362.124-7.688.975-1.937,3.182-3.319,5.353-3.315h.062c2.167,0,4.378,1.383,5.349,3.319,1.17,2.331-.124,5.189.12,7.697.058.598.341,1.095.758,1.454.151.133.315.244.492.337,1.48.762,3.519.461,5.131.461,2.198-.005,4.4-.115,6.576-.461.611-.097,1.223-.208,1.835-.337h.824Z" />
  </g>
</svg>