<?xml version='1.0' encoding='utf-8'?>
<svg xmlns="http://www.w3.org/2000/svg" id="Layer_2" data-name="Layer 2" viewBox="0 0 73.919 124.426">
  <g id="Color" fill="#00ABF6">
    <path d="M23.717,61.838c2.531-.538,5.032-.942,7.497-1.203-2.01-2.717-3.297-5.657-3.422-9.196-.057-1.636.064-3.286.176-4.931,1.282-.16,3.07-.655,4.874-2.05.282.349.59.678.916.99l-.139-.064c.365.481.699.983,1.096,1.429.842.945,1.87,1.659,2.991,2.236.887.457,1.82.847,2.503,1.609.364.406.67.864.994,1.305.06.082.082.192.191.257-.023-.889-.314-1.691-.818-2.391-.266-.369-.554-.721-.85-1.071,2.643.771,5.345.864,7.284.294.21-.378-.018.865-.056,1.287v.01c-.327,3.771-1.874,7.29-4.1,10.302,2.417.261,4.866.659,7.349,1.188.812.172,1.565-.516,1.565-1.423,0-.967-.678-1.923-.789-2.914-.34-3.033.555-5.932.716-8.939.039-.721.029-1.444-.059-2.169-.297-2.435-1.105-4.807-2.39-6.898-2.438-3.966-6.596-6.795-11.29-7.137-.331-.024-.664-.036-.996-.036-4.791,0-9.192,2.694-11.882,6.574-1.352,1.95-2.289,4.197-2.664,6.543-.787,4.923,2.204,10.303-.262,14.977,0,.907.753,1.595,1.565,1.422Z" />
    <path d="M55.234,67.171l-12.436-3.632c.406,1.78,2.884,3.582,4.683,4.161.147.048.173.251.069.364-1.402,1.518-2.952,2.812-4.646,3.886-.126.08-.162.244-.08.367l1.02,1.547c.138.209.081.49-.128.628-2.62,1.725-4.878,3.775-6.755,6.169-1.878-2.394-4.135-4.444-6.755-6.169-.209-.138-.266-.42-.128-.628l1.02-1.547c.082-.123.046-.287-.08-.367-1.694-1.075-3.244-2.368-4.646-3.886-.105-.113-.079-.316.068-.364,1.799-.579,4.277-2.382,4.683-4.161l-12.436,3.632c-4.663,1.563-4.384,5.128-4.384,5.128v17.664c0,1.183.959,2.142,2.142,2.142h41.033c1.183,0,2.142-.959,2.142-2.142v-17.664s.28-3.565-4.384-5.128Z" />
    <path d="M41.388,66.442c-3.045,2.184-5.999,2.184-9.03.001-.358-.258-.857-.176-1.115.181-.258.358-.176.857.181,1.115,1.804,1.299,3.622,1.948,5.442,1.948s3.641-.649,5.452-1.947c.358-.257.441-.756.184-1.114-.257-.358-.756-.44-1.114-.184Z" />
  </g>
  <g id="Grey" fill="#D3D3D3">
    <path d="M73.86,99.24V9.856C73.86,3.872,69.93,0,63.946,0,45.995,0,28.024.04,10.113,0,4.755-.058-.134,4.029.003,9.954.101,12.535.003,15.077.003,17.658.003,36.235.003,54.812.062,73.388.062,87.057.101,100.745.003,114.414c-.059,5.886,4.693,10.012,10.071,9.953,17.853-.039,35.707-.098,53.56.059,5.436.059,10.344-3.715,10.286-10.207-.039-5.006-.059-9.973-.059-14.979ZM37.117,120.671c-3.207,0-5.886-2.738-5.886-5.984,0-3.207,2.64-5.788,5.886-5.788,3.187,0,5.827,2.581,5.827,5.827,0,3.207-2.64,5.886-5.827,5.945ZM66.899,105.086H7.277V15.781h59.621v89.305Z" />
  </g>
</svg>