<?xml version='1.0' encoding='utf-8'?>
<svg xmlns="http://www.w3.org/2000/svg" id="Layer_2" data-name="Layer 2" viewBox="0 0 114.789 122.37">
  <g id="Grey" fill="#D3D3D3">
    <path d="M109.889,45.423h-25.411v68.078h-5.967V0h-6.498v11.246l-35.736,20.159v14.018H4.9c-2.707,0-4.9,2.193-4.9,4.906v72.041h114.789V50.329c0-2.713-2.193-4.906-4.9-4.906ZM36.278,111.925H12.334v-12.963h23.943v12.963ZM36.278,91.176H12.334v-12.963h23.943v12.963ZM36.278,70.433H12.334v-12.962h23.943v12.962ZM109.194,106.179h-19.493v-4.121h19.493v4.121ZM109.194,94.456h-19.493v-4.12h19.493v4.12ZM109.194,82.734h-19.493v-4.12h19.493v4.12ZM109.194,71.012h-19.493v-4.12h19.493v4.12ZM109.194,59.29h-19.493v-4.12h19.493v4.12Z" />
  </g>
</svg>