<?xml version='1.0' encoding='utf-8'?>
<svg xmlns="http://www.w3.org/2000/svg" id="Layer_2" data-name="Layer 2" viewBox="0 0 125.988 117.923">
  <g id="Color" fill="#00ABF6">
    <path d="M87.422,43.416c-1.475.167-3.814.45-7.065.848-1.699.202-3.601.44-5.535.67-.317-.374-.649-.733-1.006-1.082-1.885-1.878-4.246-3.37-6.877-4.367-2.627-.989-5.533-1.538-8.515-1.369-2.974.166-6.028.933-8.868,2.301-5.671,2.732-10.463,8.131-12.528,14.837-1.048,3.339-1.434,6.972-1.033,10.627.034.934.267,1.822.432,2.736.147.921.399,1.832.682,2.721.565,1.8,1.32,3.557,2.263,5.235l-.903.643c-1.501-2.09-2.757-4.42-3.704-6.953-5.752-15.383,2.051-32.524,17.443-38.28,13.23-4.947,27.746.132,35.214,11.433Z" />
    <path d="M53.715,58.543c-.324,3.966,2.164,7.475,6.05,8.535,2.408.622,4.727.145,7.165-1.485,3.754-2.512,22.491-14.201,23.756-15.004.603-.382.859-1.117.624-1.791-.185-.53-.637-.901-1.172-.996-.14-.025-.287-.031-.435-.017-1.242.127-26.404,3.221-28.705,3.43-3.965.36-6.96,3.374-7.284,7.328Z" />
  </g>
  <g id="Grey" fill="#D3D3D3">
    <path d="M125.947,52.365c-.122-1.445-.855-2.381-2.238-2.869-7.589-2.706-13.185-7.651-17.091-15.159-2.462-4.72-3.825-9.115-4.13-13.429-.122-1.628-.081-3.235.122-4.842.102-1.058.305-2.137.549-3.215.061-.204.081-.407.102-.59.041-.325.041-.651.02-.936-.102-1.119-.733-2.014-1.913-2.726-1.384-.834-2.767-1.669-4.171-2.503l-.814-.488c-2.096-1.262-4.476-2.686-6.735-4.069-1.689-1.058-3.256-.631-4.029-.204-.346.183-.712.448-1.078.733l-.387.305c-1.323,1.058-2.808,2.238-4.375,3.113-.671.366-1.302.651-1.953.875-5.86,2.075-11.333,2.95-16.298,2.666-6.816-.407-12.798-2.991-18.312-7.874-1.79-1.587-3.378-1.302-4.782-.529-3.846,2.238-7.834,4.436-11.903,6.592-.916.509-1.526,1.099-1.811,1.852-.122.264-.203.549-.224.834-.061.488-.041.997.061,1.587.244,1.465.407,2.889.448,4.293-.02.041-.02.081,0,.102.081,1.75.02,3.439-.203,5.087-.224,1.811-.61,3.581-1.18,5.29-2.075,6.287-6.389,12.025-13.022,17.315-.529.427-1.119.814-1.791,1.2-1.567.854-3.377,1.506-4.965,2.055l-.427.163c-.468.143-.875.326-1.221.509-.875.488-1.424,1.119-1.709,1.953-.102.265-.163.529-.203.834-.02.041-.02.102-.02.142-.02.163-.041.326-.041.509v.163c0,.692-.02,1.404-.02,2.096-.02,1.261-.041,2.523-.061,3.744-.02.712-.02,1.404-.041,2.055v.427c-.041,1.668-.081,3.316-.102,4.965v.407c0,.244,0,.468.041.671.183,1.506,1.017,2.483,2.625,3.052,6.816,2.32,12.005,6.877,16.359,14.304,3.662,6.267,5.107,12.595,4.334,19.187-.122,1.119-.326,2.258-.57,3.398-.041.143-.061.265-.061.387-.163,1.404.407,2.503,1.791,3.337,4.517,2.767,8.322,5.087,12.188,7.366.427.244,1.078.57,1.851.61.549.041,1.099-.081,1.587-.366.346-.183.692-.468,1.038-.814,1.282-1.302,2.808-2.442,4.578-3.418,5.168-2.869,12.351-4.171,19.452-3.459,7.264.712,13.571,3.398,17.274,7.386.61.651,1.485,1.404,2.747,1.486h.183c.753,0,1.567-.224,2.543-.773,2.116-1.2,4.192-2.36,5.555-3.113,1.384-.773,3.459-1.913,5.677-3.113,1.201-.651,1.852-1.404,2.177-2.157.122-.285.183-.549.224-.834.102-.692-.02-1.363-.183-1.974-.203-.773-.346-1.546-.468-2.381-.142-1.322-.183-2.706-.082-4.13.102-1.648.407-3.357.834-5.066.59-2.299,1.465-4.659,2.625-6.979,3.194-6.43,8.017-11.761,13.266-14.67,1.75-.977,3.561-1.669,5.351-2.055.794-.183,1.933-.57,2.462-1.811.122-.224.204-.488.244-.753.041-.122.061-.244.061-.366.041-.183.041-.366.061-.57.041-1.078.061-2.137.081-3.215.061-3.724.102-7.427.142-10.926,0-.244,0-.468-.041-.671ZM100.764,63.919c-.418,3.244-1.276,6.424-2.553,9.459-3.181,7.68-8.893,14.397-16.72,18.854-6.466,3.474-13.686,5.085-20.905,4.666-12.535-.753-23.814-7.596-30.154-18.31-4.541-7.659-6.32-16.301-5.19-24.755.209-1.632.523-3.244.963-4.834.502-1.862,1.13-3.662,1.904-5.399.209-.523.46-1.067.732-1.57.042-.084.084-.146.105-.209,3.369-6.738,8.768-12.346,15.736-16.217,6.382-3.536,13.497-5.169,20.612-4.75,2.93.188,5.88.711,8.726,1.59,9.919,3.013,18.059,9.856,22.935,19.315,3.662,7.073,4.834,14.773,3.808,22.16Z" />
  </g>
</svg>