<?xml version='1.0' encoding='utf-8'?>
<svg xmlns="http://www.w3.org/2000/svg" id="Layer_2" data-name="Layer 2" viewBox="0 0 124.329 115.522">
  <g id="Color" fill="#00ABF6">
    <path d="M47.641,41.804c5.313-.646,10.775-2.031,16.693-4.237,2.339-.872,3.736-3.449,3.177-5.867-.588-2.56-2.602-4.216-5.129-4.216-.596,0-1.205.092-1.818.271-3.515,1.047-6.509,1.889-9.291,2.61-.438.117-.867.229-1.297.338-1.514.388-2.69.492-3.645.334-3.553-.596-6.684-2.173-9.282-3.636-.646-.363-1.647-.822-2.761-.951-1.48-.175-2.994-.284-4.453-.388-.997-.075-1.997-.146-2.99-.238-.288-.029-.555-.025-.796.017-.129-.025-.238-.037-.321-.037l-.188.025c-.409.108-.721.396-.917.834-.037.088-.075.179-.104.267-.042.125-.492,1.572-1.072,3.428-.717,2.314-1.635,5.267-2.206,7.064l-.496-3.745c-.054-.43-.108-.83-.154-1.189l-.021-.15c0-.075-.012-.154-.021-.204l-.083-.667c-.037-.288-.062-.496-.075-.596.104-.246.208-.488.35-.805.058-.142.133-.304.196-.438l.096-.167c.117-.225.263-.505.263-.855,0-.167-.342-1.151-.417-1.226-.142-.209-.329-.342-.626-.417l-.171-.013c-.1-.037-.188-.037-.221-.037-.229-.008-.797-.008-1.514-.008s-1.284,0-1.493.008c-.054,0-.142,0-.242.037l-.221.025c-.242.063-.43.196-.526.346-.058.058-.079.079-.258.571-.179.492-.208.613-.208.713,0,.325.125.588.258.838l.1.179c.063.133.138.296.233.53.108.238.209.471.313.713-.013.113-.038.317-.075.601l-.075.642c-.017.075-.025.154-.025.179-.113.896-.271,2.089-.434,3.303l-.242,1.831c-.559-1.772-1.455-4.658-2.173-6.956-.676-2.173-1.059-3.411-1.105-3.528-.113-.342-.254-.588-.442-.776-.163-.167-.363-.279-.575-.334l-.192-.021c-.329,0-.951.171-2.081.571l-.742.271c-.238.083-.434.158-.559.2-1.601.542-3.161,1.072-4.704,1.547l-.208.062c-1.33.409-2.093,1.33-2.148,2.598-.008.288-.092,1.055-.184,1.872-.113,1.022-.229,2.081-.242,2.548C-.005,40.086-.026,53.376.032,58.847c.017,1.389.038,2.806.062,4.266.029,1.389.313,2.744.851,4.028.542,1.322,1.368,2.64,2.465,3.924.033.033.062.071.104.133.167.213.313.438.434.663.029.53.05,1.063.071,1.597l.025.525c.154,3.407.781,33.792.776,34.3-.015,1.563.235,3.331.95,4.706,1.034,1.981,2.986,2.806,5.25,2.394,2.118-.388,3.699-1.943,4.124-4.195.038-.221.071-.446.088-.68.546-6.985.942-17.092,1.435-24.081.263-3.77.563-7.539.967-11.292.01-.089.039-.176.082-.261.43-.847,1.64-.831,2.18-.05.127.184.216.371.236.566.567,5.417,1.001,10.846,1.489,16.271.484,5.425.909,13.969,1.505,19.381.013.146.029.296.046.442.25,2.268,1.785,3.669,4.062,3.982,3.286.446,5.429-1.814,5.433-5.713.008-10.25.692-66.798.817-70.777.012-.375.113-.759.208-1.13.004-.017.008-.033.012-.05.721.275,1.43.555,2.127.834l.288.113c1.939.763,3.553,1.389,5.258,1.914l.53.167c1.614.504,3.286,1.03,4.916,1.03.275,0,.546-.017.817-.05Z" />
    <path d="M15.911,21.609c.296.083.6.146.905.192.471.079.951.125,1.435.133.926.017,1.835-.104,2.715-.342.384-.1.763-.225,1.134-.375,3.132-1.234,5.713-3.957,6.747-7.193.313-.963.488-1.968.496-2.998C29.401,5.113,24.397.042,18.472,0,12.5-.041,7.455,4.858,7.35,10.801c-.021,1.309.229,2.598.705,3.807,1.314,3.357,4.324,6.097,7.856,7.001Z" />
  </g>
  <g id="Grey" fill="#D3D3D3">
    <path d="M121.208,7.381h-45.057c0-1.226.021-2.348-.033-3.528-.071-.826-.421-2.052-1.272-2.731-.621-.5-1.485-.667-2.085-.667h-.375c-.6,0-1.472.167-2.097.667-.851.68-1.201,1.906-1.255,2.731-.071,1.18-.046,2.302-.046,3.528h-35.908c.3,1.197.446,2.431.434,3.686-.008.968-.121,1.939-.338,2.898h79.317v57.02c0,2.502-1.385,3.865-3.899,3.865H37.149c-.025,2.218-.054,4.433-.079,6.601.033.004.063.004.096.004.104,0,23.26-.054,24.816-.054.021,1.055.021,3.999-.058,4.987v.046c-1.472.225-2.631,1.497-2.631,3.027v.179c0,.229,0,.475.058.771.271,1.18,1.03,1.847,2.11,2.072.292.079.588.125.917.125h2.798c0,.012-.021.037-.046.058-.271.317-.45.542-.667.746l-6.459,6.463c-2.11,2.118-4.241,4.274-6.405,6.405-1.714,1.735-1.939,3.774-.534,5.179.601.601,1.347.909,2.131.909,1.022,0,2.072-.513,3.048-1.476l1.122-1.109c4.466-4.479,9.091-9.103,13.602-13.661.467-.43.851-.93,1.226-1.426.079-.079.146-.163.204-.25.046.021.067.046.092.067.033-.021.054-.033.079-.058.033.025.046.037.079.058.021-.021.046-.046.087-.067.058.088.125.171.204.25.375.496.771.997,1.226,1.426,4.512,4.558,9.137,9.182,13.615,13.661l1.109,1.109c.976.963,2.031,1.476,3.048,1.476.784,0,1.53-.309,2.135-.909,1.405-1.405,1.176-3.444-.534-5.179-2.156-2.131-4.299-4.287-6.405-6.405l-6.464-6.463c-.213-.204-.396-.43-.667-.746-.021-.021-.033-.046-.033-.058h2.79c.338,0,.621-.046.917-.125,1.076-.225,1.835-.892,2.106-2.072.071-.296.071-.542.071-.771v-.179c0-1.53-1.168-2.802-2.631-3.027v-.046c-.092-.988-.092-3.932-.067-4.987,1.551,0,24.711.054,24.824.054,3.002,0,5.78-1.13,7.869-3.253,2.131-2.152,3.273-5.008,3.253-8.115-.079-11.709-.058-27.785-.046-39.323V13.92h.621c.546,0,1.001,0,1.405-.021,1.827-.079,3.303-1.576,3.244-3.311-.046-1.701-1.351-3.048-3.119-3.207Z" />
  </g>
</svg>