<?xml version='1.0' encoding='utf-8'?>
<svg xmlns="http://www.w3.org/2000/svg" id="Layer_2" data-name="Layer 2" viewBox="0 0 178.182 178.181">
  <g id="Color" fill="#00ABF6">
    <path d="M96.584,132.172c2.585,0,4.927,1.049,6.621,2.744,1.695,1.694,2.744,4.036,2.744,6.622s-1.049,4.928-2.744,6.622c-1.694,1.695-4.036,2.743-6.621,2.743s-4.928-1.048-6.623-2.743-2.743-4.036-2.743-6.622,1.049-4.928,2.743-6.622c1.695-1.695,4.037-2.744,6.623-2.744Z" />
    <path d="M94.71,89.091c2.587,0,4.928,1.048,6.623,2.743,1.694,1.694,2.743,4.036,2.743,6.622s-1.049,4.928-2.743,6.622c-1.695,1.695-4.036,2.744-6.623,2.744s-4.927-1.049-6.622-2.744-2.743-4.036-2.743-6.622,1.049-4.928,2.743-6.622,4.037-2.743,6.622-2.743Z" />
    <path d="M51.628,68.486c2.586,0,4.928,1.048,6.623,2.743s2.743,4.036,2.743,6.622-1.049,4.928-2.743,6.622c-1.695,1.695-4.037,2.744-6.623,2.744s-4.927-1.049-6.622-2.744c-1.694-1.694-2.743-4.036-2.743-6.622s1.049-4.928,2.743-6.622c1.695-1.695,4.037-2.743,6.622-2.743Z" />
    <path d="M57.248,100.329c2.586,0,4.927,1.049,6.622,2.743,1.694,1.695,2.743,4.037,2.743,6.622s-1.049,4.928-2.743,6.623c-1.695,1.694-4.036,2.743-6.622,2.743s-4.928-1.049-6.622-2.743-2.744-4.037-2.744-6.623,1.049-4.927,2.744-6.622c1.694-1.694,4.036-2.743,6.622-2.743Z" />
    <path d="M70.359,31.023c2.586,0,4.928,1.049,6.622,2.743,1.695,1.695,2.744,4.037,2.744,6.623s-1.049,4.927-2.744,6.622-4.036,2.743-6.622,2.743-4.927-1.049-6.622-2.743c-1.694-1.695-2.743-4.037-2.743-6.622s1.049-4.928,2.743-6.623c1.695-1.694,4.036-2.743,6.622-2.743Z" />
    <path d="M140.535,104.945c2.586,0,4.928,1.049,6.623,2.744,1.694,1.694,2.743,4.036,2.743,6.622s-1.049,4.927-2.743,6.622c-1.695,1.694-4.037,2.743-6.623,2.743s-4.927-1.049-6.622-2.743c-1.694-1.695-2.743-4.036-2.743-6.622s1.049-4.928,2.743-6.622c1.695-1.695,4.036-2.744,6.622-2.744Z" />
    <path d="M36.644,27.277c2.586,0,4.928,1.049,6.622,2.743,1.695,1.695,2.743,4.037,2.743,6.622s-1.048,4.928-2.743,6.623c-1.694,1.694-4.036,2.743-6.622,2.743s-4.928-1.049-6.622-2.743c-1.695-1.695-2.744-4.037-2.744-6.623s1.049-4.927,2.744-6.622,4.036-2.743,6.622-2.743Z" />
  </g>
  <g id="Grey" fill="#D3D3D3">
    <polygon points="13.347 164.835 178.182 164.835 178.182 178.181 0 178.181 0 0 13.347 0 13.347 164.835" fill-rule="evenodd" />
  </g>
</svg>