<?xml version='1.0' encoding='utf-8'?>
<svg xmlns="http://www.w3.org/2000/svg" id="Layer_2" data-name="Layer 2" viewBox="0 0 125.781 122.816">
  <g id="Color" fill="#00ABF6">
    <path d="M87.134,43.234c-2.209-1.807-5.499-1.419-7.517.599l-23.157,23.158-10.296-10.297c-2.018-2.018-5.308-2.405-7.517-.598-2.54,2.077-2.68,5.831-.418,8.092l15.366,15.366c1.582,1.582,4.148,1.582,5.73,0l28.228-28.227c2.261-2.261,2.122-6.015-.418-8.092Z" />
  </g>
  <g id="Grey" fill="#D3D3D3">
    <path d="M123.166,50.352c-2.266-1.633-4.185-3.799-5.561-6.451-2.058-3.977-2.533-8.361-1.632-12.427.791-3.602-1.682-7.163-5.333-7.648-2.77-.376-5.491-1.375-7.955-3.057-3.71-2.543-6.204-6.194-7.332-10.211-.989-3.542-4.868-5.481-8.311-4.185-2.612.979-5.481,1.375-8.44,1.059-4.472-.485-8.4-2.523-11.289-5.531-1.207-1.247-2.81-1.88-4.423-1.9-1.613.02-3.216.653-4.423,1.9-2.889,3.008-6.817,5.046-11.289,5.531-2.958.317-5.828-.079-8.44-1.059-3.443-1.296-7.322.643-8.311,4.185-1.128,4.017-3.621,7.668-7.332,10.211-2.464,1.682-5.185,2.681-7.955,3.057-3.651.485-6.125,4.047-5.333,7.648.9,4.066.425,8.45-1.632,12.427-1.375,2.652-3.295,4.818-5.561,6.451-2.978,2.157-3.503,6.461-1.108,9.241,2.721,3.166,4.393,7.262,4.462,11.754.04,2.978-.623,5.808-1.85,8.311-1.603,3.305-.03,7.341,3.404,8.667,3.888,1.494,7.292,4.314,9.479,8.252,1.445,2.602,2.197,5.412,2.305,8.192.148,3.691,3.463,6.481,7.124,6.026,4.126-.515,8.45.366,12.219,2.79,2.513,1.613,4.502,3.73,5.917,6.134,1.87,3.176,6.105,4.066,9.122,1.929,2.662-1.88,5.818-3.067,9.202-3.324,3.384.257,6.54,1.445,9.202,3.324,3.018,2.137,7.252,1.247,9.122-1.929,1.415-2.404,3.404-4.522,5.917-6.134,3.77-2.424,8.094-3.305,12.219-2.79,3.661.455,6.976-2.335,7.124-6.026.109-2.78.861-5.59,2.305-8.192,2.187-3.938,5.59-6.758,9.479-8.252,3.433-1.326,5.006-5.363,3.404-8.667-1.227-2.503-1.89-5.333-1.85-8.311.069-4.492,1.741-8.588,4.462-11.754,2.394-2.78,1.87-7.084-1.108-9.241ZM62.891,101.754c-22.247,0-40.346-18.099-40.346-40.346S40.644,21.062,62.891,21.062s40.346,18.099,40.346,40.346-18.099,40.346-40.346,40.346Z" />
  </g>
</svg>