<?xml version="1.0" encoding="UTF-8"?>
<svg id="Layer_2" data-name="Layer 2" xmlns="http://www.w3.org/2000/svg" viewBox="0 0 48.052 49.002">
  <g id="Icons">
    <g id="_20" data-name="20">
      <path d="M24.026,45.047V3.956c0-1.918,1.557-3.456,3.475-3.456,1.709,0,3.152,1.253,3.399,2.905.551-.171,1.139-.266,1.747-.266,3.323,0,6.019,2.677,6.019,6,0,.741-.133,1.462-.399,2.108,3.57.627,6.266,3.741,6.266,7.481,0,.342-.019.684-.076,1.025,1.823.798,3.095,2.62,3.095,4.747,0,2.241-1.424,4.158-3.399,4.88.247.722.38,1.519.38,2.336,0,3.836-2.848,7.026-6.551,7.538.057.266.076.532.076.797,0,3.323-2.696,6.019-6,6.019-.418,0-.835-.038-1.234-.133-.38,1.481-1.728,2.564-3.323,2.564-1.918,0-3.475-1.538-3.475-3.456Z" fill="#ffb7bd"/>
      <path d="M24.027,45.047V3.956c0-1.918-1.557-3.456-3.475-3.456-1.709,0-3.152,1.253-3.399,2.905-.551-.171-1.139-.266-1.747-.266-3.323,0-6.019,2.677-6.019,6,0,.741.133,1.462.399,2.108-3.57.627-6.266,3.741-6.266,7.481,0,.342.019.684.076,1.025-1.823.798-3.095,2.62-3.095,4.747,0,2.241,1.424,4.158,3.399,4.88-.247.722-.38,1.519-.38,2.336,0,3.836,2.848,7.026,6.551,7.538-.057.266-.076.532-.076.797,0,3.323,2.696,6.019,6,6.019.418,0,.835-.038,1.234-.133.38,1.481,1.728,2.564,3.323,2.564,1.918,0,3.475-1.538,3.475-3.456Z" fill="#ffb7bd"/>
      <path d="M11.968,4.611l1.682,2.801,4.882-2.327c.005-.184.068-.367.17-.539.369-.618,1.169-.828,1.788-.459.61.364.805,1.168.437,1.786-.364.61-1.159.811-1.769.447-.12-.072-.23-.161-.316-.27l-1.31.615,1.983,5.049c.206.006.425.068.614.18.61.364.811,1.159.442,1.777-.369.618-1.159.811-1.769.447-.618-.369-.833-1.161-.464-1.779.067-.112.15-.213.246-.296l-1.964-4.944-2.446,1.172,1.143,1.928c.305-.062.629-.02.921.154.618.369.814,1.173.445,1.791-.364.61-1.159.811-1.777.442s-.819-1.164-.455-1.774c.01-.017.02-.034.039-.046l-3.408-5.705.886-.45Z" fill="#a96c79"/>
      <path d="M6.673,34.607l2.894,2.795-1.336,1.286.211.056c.07.019.131.037.201.046-.017.124-.019.27-.025.411.132.026.234.107.299.214l2.414-2.327c.171.077.372.123.572.119.72-.014,1.289-.605,1.275-1.315-.014-.72-.605-1.289-1.325-1.275-.72.014-1.289.605-1.275,1.325.003.14.025.28.078.409l-.363.357-2.567-2.472,1.638-1.702,4.383,2.197c.222.116.511.03.647-.182l1.095-1.861c.03.01.05.009.08.008.72-.014,1.289-.605,1.275-1.315-.014-.72-.605-1.299-1.325-1.285-.71.014-1.288.615-1.275,1.335.006.32.132.618.336.834l-.804,1.365-3.696-1.85,1.461-1.518c.141.047.302.074.461.071.71-.014,1.279-.604,1.265-1.314-.014-.72-.605-1.299-1.315-1.285-.72.014-1.299.615-1.285,1.335.004.19.047.369.12.528l-4.139,4.3c-.176.203-.17.523.024.71Z" fill="#a96c79"/>
      <path d="M9.889,15.218l-4.844-1.506.078.233c.014.057.035.12.064.177-.156.113-.29.233-.417.361l-.148.148,1.775.544-.679,3.903c-.028.155.021.318.134.431.071.071.17.127.262.134l2.68.544.304,2.991c.014.113.064.219.148.304.042.042.106.092.205.12l3.161,1.054c.028.283.149.559.368.778.509.509,1.336.502,1.846-.007.502-.502.502-1.322-.007-1.831-.502-.502-1.329-.509-1.831-.007-.028.028-.064.064-.078.106l-2.835-.941-.255-2.376,1.93.389c.057.212.17.41.339.58.502.502,1.322.502,1.831-.007s.509-1.329.007-1.831c-.509-.509-1.336-.516-1.845-.007-.085.085-.148.177-.205.276l-5.084-1.011.566-3.295,2.185.686c.014.311.141.622.382.863.502.502,1.322.502,1.832-.007.509-.509.509-1.329.007-1.831-.509-.509-1.336-.516-1.846-.007-.014.014-.021.021-.028.042Z" fill="#a96c79"/>
      <path d="M19.609,41.039c.195.693-.203,1.418-.887,1.611-.058.016-.106.03-.159.024l-1.077,3.628-.147-.229c-.056-.088-.1-.169-.143-.25-.15.094-.303.179-.468.256l-.256.124,1.122-3.765c-.233-.163-.405-.405-.486-.694-.192-.683.218-1.402.911-1.597.683-.192,1.399.209,1.591.892Z" fill="#a96c79"/>
      <path d="M35.957,4.611l-1.682,2.801-4.882-2.327c-.005-.184-.068-.367-.17-.539-.369-.618-1.169-.828-1.788-.459-.61.364-.806,1.168-.437,1.786.364.61,1.159.811,1.769.447.12-.072.23-.161.316-.27l1.31.615-1.983,5.049c-.206.006-.425.068-.614.18-.61.364-.811,1.159-.442,1.777.369.618,1.159.811,1.769.447.618-.369.833-1.161.464-1.779-.067-.112-.15-.213-.246-.296l1.964-4.944,2.446,1.172-1.144,1.928c-.305-.062-.629-.02-.921.154-.618.369-.814,1.173-.445,1.791.364.61,1.159.811,1.777.442.618-.369.819-1.164.455-1.774-.01-.017-.02-.034-.039-.046l3.408-5.705-.886-.45Z" fill="#a96c79"/>
      <path d="M41.251,34.607l-2.894,2.795,1.336,1.286-.211.056c-.07.019-.131.037-.201.046.017.124.019.27.025.411-.132.026-.234.107-.299.214l-2.414-2.327c-.171.077-.372.123-.572.119-.72-.014-1.289-.605-1.275-1.315.014-.72.605-1.289,1.324-1.275.72.014,1.289.605,1.275,1.325-.003.14-.025.28-.078.409l.363.357,2.567-2.472-1.638-1.702-4.383,2.197c-.222.116-.511.03-.647-.182l-1.095-1.861c-.03.01-.05.009-.08.008-.72-.014-1.289-.605-1.275-1.315.014-.72.605-1.299,1.325-1.285.71.014,1.288.615,1.275,1.335-.006.32-.132.618-.336.834l.804,1.365,3.696-1.85-1.461-1.518c-.141.047-.301.074-.461.071-.71-.014-1.279-.604-1.265-1.314.014-.72.605-1.299,1.315-1.285.72.014,1.299.615,1.285,1.335-.004.19-.047.369-.12.528l4.139,4.3c.176.203.17.523-.023.71Z" fill="#a96c79"/>
      <path d="M38.035,15.218l4.844-1.506-.078.233c-.014.057-.035.12-.064.177.273.198.447.394.566.509l-1.775.544.679,3.903c.028.155-.021.318-.134.431-.071.071-.17.127-.262.134l-2.68.544-.304,2.991c-.014.113-.064.219-.148.304-.042.042-.106.092-.205.12l-3.161,1.054c-.028.283-.148.559-.368.778-.509.509-1.336.502-1.845-.007-.502-.502-.502-1.322.007-1.831.502-.502,1.329-.509,1.831-.007.028.028.064.064.078.106l2.835-.941.255-2.376-1.93.389c-.057.212-.17.41-.339.58-.502.502-1.322.502-1.831-.007s-.509-1.329-.007-1.831c.509-.509,1.336-.516,1.846-.007.085.085.148.177.205.276l5.084-1.011-.566-3.295-2.185.686c-.014.311-.141.622-.382.863-.502.502-1.322.502-1.832-.007-.509-.509-.509-1.329-.007-1.831.509-.509,1.336-.516,1.846-.007.014.014.021.021.028.042Z" fill="#a96c79"/>
      <path d="M28.315,41.039c-.195.693.203,1.418.887,1.611.058.016.106.03.159.024l1.077,3.628.147-.229c.056-.088.1-.169.143-.25.15.094.303.179.468.256l.256.124-1.122-3.765c.233-.163.405-.405.486-.694.192-.683-.218-1.402-.911-1.597-.683-.192-1.399.209-1.591.892Z" fill="#a96c79"/>
      <path d="M27.5,0c1.747,0,3.281,1.166,3.772,2.789.452-.1.912-.15,1.374-.15,3.595,0,6.519,2.916,6.519,6.501,0,.599-.083,1.189-.241,1.737,3.572.894,6.108,4.108,6.108,7.852,0,.262-.011.503-.033.731,1.866.97,3.052,2.91,3.052,5.042,0,2.225-1.304,4.246-3.289,5.168.177.654.269,1.353.269,2.048,0,3.86-2.756,7.193-6.489,7.949.009.123.014.252.014.387,0,3.595-2.916,6.519-6.5,6.519-.313,0-.612-.02-.893-.061-.58,1.488-2.025,2.491-3.664,2.491-2.191,0-3.975-1.775-3.975-3.956V3.956c0-2.181,1.783-3.956,3.975-3.956ZM30.491,4.056l-.086-.577c-.211-1.413-1.459-2.479-2.904-2.479-1.64,0-2.975,1.326-2.975,2.956v41.091c0,1.63,1.334,2.956,2.975,2.956,1.341,0,2.508-.899,2.839-2.188l.122-.476.479.114c.33.079.707.119,1.118.119,3.033,0,5.5-2.476,5.5-5.519,0-.266-.02-.486-.065-.694l-.112-.525.533-.074c3.488-.483,6.119-3.511,6.119-7.043,0-.748-.122-1.499-.353-2.173l-.159-.463.46-.168c1.837-.671,3.071-2.444,3.071-4.411,0-1.862-1.097-3.546-2.796-4.289l-.357-.156.064-.384c.047-.279.069-.587.069-.943,0-3.454-2.461-6.394-5.852-6.988l-.612-.108.236-.575c.236-.574.361-1.237.361-1.918,0-3.033-2.476-5.501-5.519-5.501-.54,0-1.078.082-1.599.244l-.557.173Z" fill="#ffb7bd"/>
      <path d="M20.552,0c2.192,0,3.975,1.774,3.975,3.956v41.091c0,2.181-1.783,3.956-3.975,3.956-1.638,0-3.083-1.003-3.663-2.491-.282.041-.581.061-.894.061-3.584,0-6.5-2.924-6.5-6.519,0-.135.005-.263.014-.387-3.733-.756-6.489-4.089-6.489-7.949,0-.694.092-1.394.269-2.047-1.985-.923-3.289-2.943-3.289-5.168,0-2.132,1.187-4.071,3.052-5.042-.022-.226-.033-.465-.033-.731,0-3.744,2.536-6.958,6.108-7.852-.158-.547-.241-1.138-.241-1.737,0-3.584,2.924-6.501,6.519-6.501.462,0,.922.05,1.374.15.491-1.623,2.025-2.789,3.771-2.789ZM20.552,48.002c1.641,0,2.975-1.326,2.975-2.956V3.956c0-1.63-1.334-2.956-2.975-2.956-1.444,0-2.693,1.066-2.904,2.479l-.086.577-.556-.173c-.521-.162-1.059-.244-1.599-.244-3.043,0-5.519,2.467-5.519,5.501,0,.681.125,1.344.361,1.917l.237.575-.613.108c-3.391.595-5.852,3.534-5.852,6.988,0,.362.022.662.069.943l.064.384-.357.156c-1.699.744-2.796,2.427-2.796,4.289,0,1.967,1.234,3.74,3.071,4.411l.459.168-.158.463c-.23.675-.352,1.426-.352,2.174,0,3.532,2.631,6.56,6.119,7.043l.534.074-.113.526c-.044.207-.065.427-.065.693,0,3.043,2.467,5.519,5.5,5.519.411,0,.787-.04,1.118-.119l.478-.114.122.476c.331,1.288,1.498,2.188,2.838,2.188Z" fill="#ffb7bd"/>
      <path d="M31.544,24.079c0,4.196-3.405,7.601-7.601,7.601s-7.601-3.405-7.601-7.601,3.405-7.588,7.601-7.588,7.601,3.392,7.601,7.588Z" fill="#f45558"/>
      <g>
        <path d="M19.034,27.436c-.041-.041-.061-.093-.061-.155l.02-.093,2.475-6.652c.069-.172.192-.258.371-.258h1.135c.179,0,.302.086.371.258l2.475,6.652.021.093c0,.062-.022.114-.067.155-.045.042-.094.062-.149.062h-.918c-.144,0-.244-.065-.299-.196l-.475-1.248h-3.053l-.474,1.248c-.055.13-.155.196-.299.196h-.918c-.061,0-.113-.02-.155-.062ZM21.241,24.858h2.331l-1.165-3.176-1.165,3.176Z" fill="#d9defb"/>
        <path d="M26.696,21.187c-.048-.048-.072-.106-.072-.175v-.753c0-.076.024-.138.072-.186.048-.048.107-.072.175-.072h.949c.075,0,.137.024.186.072.048.048.072.11.072.186v.753c0,.069-.026.127-.078.175-.051.048-.112.072-.18.072h-.949c-.068,0-.127-.024-.175-.072ZM26.738,27.426c-.048-.048-.072-.106-.072-.175v-4.868c0-.076.024-.136.072-.181.048-.044.106-.067.175-.067h.876c.069,0,.127.024.175.072.048.048.072.106.072.175v4.868c0,.069-.024.127-.072.175-.048.048-.106.072-.175.072h-.876c-.069,0-.127-.024-.175-.072Z" fill="#d9defb"/>
      </g>
    </g>
  </g>
</svg>