<?xml version="1.0" encoding="UTF-8"?>
<svg id="Layer_2" data-name="Layer 2" xmlns="http://www.w3.org/2000/svg" viewBox="0 0 48.005 46.85">
  <g id="Icons">
    <g id="_36" data-name="36">
      <g>
        <path d="M2.77,29.44c-.48,1.01-.76,2.16-.76,3.36,0,.36.02.71.08,1.06.04.34.1.66.2.98.64,2.46,2.45,4.44,4.8,5.35.87,3.83,4.26,6.66,8.34,6.66,4.71,0,8.57-3.84,8.57-8.57V8.57C24,3.84,20.14,0,15.43,0c-3.89,0-7.16,2.58-8.19,6.14-.03.08-.06.17-.08.26-.03.08-.05.16-.07.25-.09.03-.17.07-.26.11s-.17.07-.25.12c-2.7,1.26-4.57,3.99-4.57,7.17,0,1.2.28,2.35.76,3.36-1.44,1.24-2.43,2.98-2.69,4.94-.05.32-.08.65-.08.98v.09c0,2.4,1.07,4.56,2.77,6.02Z" fill="#d9defb"/>
        <path d="M2.16,18h5.31c.2.52.7.88,1.26.88.76,0,1.38-.62,1.38-1.38,0-.75-.62-1.37-1.38-1.37-.56,0-1.05.36-1.26.89H2.6c.05.14.11.26.17.39-.22.19-.42.38-.61.59ZM7.86,17.51l.04-.19c.1-.4.44-.69.83-.69.48,0,.88.39.88.87s-.4.88-.88.88c-.4,0-.74-.28-.83-.69l-.04-.18Z" fill="#455a64"/>
        <path d="M8.72,19.196c.941,0,1.704-.763,1.704-1.704,0-.916-.763-1.678-1.704-1.678-.915,0-1.678.763-1.678,1.678,0,.941.763,1.704,1.678,1.704Z" fill="#ffd54f"/>
        <path d="M7.575,40.466l1.831-2.157h4.881c.196.524.696.887,1.257.887.754,0,1.367-.614,1.367-1.368,0-.759-.613-1.377-1.367-1.377-.561,0-1.053.352-1.255.877h-5.337l-2.288,2.697.339.288c.028-.007.056-.014.086-.016l.006-.007.005.005c.076-.003.155.008.237.045.056.025.111.05.167.075.031.014.046.035.071.052ZM14.677,37.81l.04-.176c.095-.409.428-.684.827-.684.478,0,.867.394.867.877,0,.479-.389.868-.867.868-.394,0-.741-.289-.826-.689l-.041-.197Z" fill="#455a64"/>
        <path d="M15.544,39.456c.909,0,1.621-.737,1.621-1.621,0-.909-.712-1.646-1.621-1.646s-1.621.737-1.621,1.646c0,.884.712,1.621,1.621,1.621Z" fill="#2196f3"/>
        <path d="M2.04,32.09l2.22-4.69h2.61c.21.53.7.88,1.26.88.75,0,1.37-.62,1.37-1.38,0-.75-.62-1.36-1.37-1.36-.56,0-1.06.36-1.26.88h-3.24l-1.24,2.65c.12.14.25.26.38.37-.38.81-.64,1.71-.73,2.65ZM7.26,26.92l.04-.2c.09-.4.43-.68.83-.68.48,0,.87.38.87.86,0,.49-.39.88-.87.88-.4,0-.74-.28-.83-.68l-.04-.18Z" fill="#455a64"/>
        <path d="M8.128,28.602c.943,0,1.682-.764,1.682-1.707,0-.917-.739-1.682-1.682-1.682s-1.682.764-1.682,1.682c0,.943.739,1.707,1.682,1.707Z" fill="#f45558"/>
        <path d="M6.58,6.88l2.87,2.22h4.79c.21.54.69.88,1.26.88.76,0,1.38-.62,1.38-1.38,0-.75-.62-1.37-1.38-1.37-.57,0-1.05.35-1.26.88h-4.45l-2.55-1.97c-.03.08-.06.17-.08.26-.03.08-.05.16-.07.25-.09.03-.17.07-.26.11s-.17.07-.25.12ZM14.62,8.61l.05-.19c.1-.41.43-.69.83-.69.48,0,.88.39.88.87,0,.49-.4.88-.88.88-.4,0-.73-.27-.83-.69l-.05-.18Z" fill="#455a64"/>
        <path d="M15.511,10.221c.867,0,1.59-.723,1.59-1.614s-.723-1.614-1.59-1.614c-.891,0-1.614.723-1.614,1.614s.723,1.614,1.614,1.614Z" fill="#5bb774"/>
        <path d="M2.09,33.86c.04.34.1.66.2.98h7.33c.2.53.7.89,1.27.89.75,0,1.37-.62,1.37-1.38,0-.74-.63-1.37-1.37-1.37-.57,0-1.07.36-1.27.88H2.09ZM10.01,34.35l.04-.18c.09-.41.44-.69.84-.69.47,0,.87.4.87.87,0,.49-.39.88-.87.88-.4,0-.75-.28-.84-.69l-.04-.19Z" fill="#455a64"/>
        <path d="M12.644,34.346c0-.98-.795-1.749-1.749-1.749-.98,0-1.775.768-1.775,1.749s.795,1.775,1.775,1.775c.954,0,1.749-.795,1.749-1.775Z" fill="#ffd54f"/>
        <path d="M0,23.33h10.12c.2.54.7.89,1.27.89.75,0,1.36-.62,1.36-1.38,0-.75-.61-1.37-1.36-1.37-.57,0-1.07.36-1.27.88H.08c-.05.32-.08.65-.08.98ZM10.51,22.84l.04-.18c.09-.41.44-.69.84-.69.47,0,.86.4.86.87,0,.49-.39.88-.86.88-.4,0-.75-.28-.84-.69l-.04-.19Z" fill="#455a64"/>
        <path d="M12.95,22.838c0-.874-.708-1.558-1.558-1.558-.874,0-1.582.685-1.582,1.558s.708,1.582,1.582,1.582c.85,0,1.558-.708,1.558-1.582Z" fill="#ffa14e"/>
      </g>
      <g>
        <path d="M45.235,29.44c.48,1.01.76,2.16.76,3.36,0,.36-.02.71-.08,1.06-.04.34-.1.66-.2.98-.64,2.46-2.45,4.44-4.8,5.35-.87,3.83-4.26,6.66-8.34,6.66-4.71,0-8.57-3.84-8.57-8.57V8.57c0-4.73,3.86-8.57,8.57-8.57,3.89,0,7.16,2.58,8.19,6.14.03.08.06.17.08.26.03.08.05.16.07.25.09.03.17.07.26.11s.17.07.25.12c2.7,1.26,4.57,3.99,4.57,7.17,0,1.2-.28,2.35-.76,3.36,1.44,1.24,2.43,2.98,2.69,4.94.05.32.08.65.08.98v.09c0,2.4-1.07,4.56-2.77,6.02Z" fill="#d9defb"/>
        <path d="M45.235,17.41c.06-.13.12-.25.17-.39h-4.87c-.21-.53-.7-.89-1.26-.89-.76,0-1.38.62-1.38,1.37,0,.76.62,1.38,1.38,1.38.56,0,1.06-.36,1.26-.88h5.31c-.19-.21-.39-.4-.61-.59ZM40.105,17.69c-.09.41-.43.69-.83.69-.48,0-.88-.4-.88-.88s.4-.87.88-.87c.39,0,.73.29.83.69l.04.19-.04.18Z" fill="#455a64"/>
        <path d="M39.284,19.196c-.941,0-1.704-.763-1.704-1.704,0-.916.763-1.678,1.704-1.678.915,0,1.678.763,1.678,1.678,0,.941-.763,1.704-1.678,1.704Z" fill="#ffd54f"/>
        <path d="M40.501,40.414c.056-.025.111-.05.167-.075.082-.037.161-.047.237-.045l.005-.005.006.007c.03.002.057.009.086.016l.339-.288-2.288-2.697h-5.337c-.202-.525-.693-.877-1.255-.877-.754,0-1.367.618-1.367,1.377,0,.754.613,1.368,1.367,1.368.56,0,1.06-.363,1.257-.887h4.881l1.831,2.157c.025-.017.041-.038.071-.052ZM33.287,38.007c-.085.399-.433.689-.826.689-.479,0-.867-.389-.867-.868,0-.484.389-.877.867-.877.399,0,.732.274.827.684l.04.176-.041.197Z" fill="#455a64"/>
        <path d="M32.461,39.456c-.909,0-1.621-.737-1.621-1.621,0-.909.712-1.646,1.621-1.646s1.621.737,1.621,1.646c0,.884-.712,1.621-1.621,1.621Z" fill="#2196f3"/>
        <path d="M45.235,29.44c.13-.11.26-.23.38-.37l-1.24-2.65h-3.24c-.2-.52-.7-.88-1.26-.88-.75,0-1.37.61-1.37,1.36,0,.76.62,1.38,1.37,1.38.56,0,1.05-.35,1.26-.88h2.61l2.22,4.69c-.09-.94-.35-1.84-.73-2.65ZM40.705,27.1c-.09.4-.43.68-.83.68-.48,0-.87-.39-.87-.88,0-.48.39-.86.87-.86.4,0,.74.28.83.68l.04.2-.04.18Z" fill="#455a64"/>
        <path d="M39.877,28.602c-.943,0-1.682-.764-1.682-1.707,0-.917.739-1.682,1.682-1.682s1.682.764,1.682,1.682c0,.943-.739,1.707-1.682,1.707Z" fill="#f45558"/>
        <path d="M41.175,6.76c-.09-.04-.17-.08-.26-.11-.02-.09-.04-.17-.07-.25-.02-.09-.05-.18-.08-.26l-2.55,1.97h-4.45c-.21-.53-.69-.88-1.26-.88-.76,0-1.38.62-1.38,1.37,0,.76.62,1.38,1.38,1.38.57,0,1.05-.34,1.26-.88h4.79l2.87-2.22c-.08-.05-.16-.08-.25-.12ZM33.335,8.79c-.1.42-.43.69-.83.69-.48,0-.88-.39-.88-.88,0-.48.4-.87.88-.87.4,0,.73.28.83.69l.05.19-.05.18Z" fill="#455a64"/>
        <path d="M32.493,10.221c-.867,0-1.59-.723-1.59-1.614s.723-1.614,1.59-1.614c.891,0,1.614.723,1.614,1.614s-.723,1.614-1.614,1.614Z" fill="#5bb774"/>
        <path d="M38.385,33.86c-.2-.52-.7-.88-1.27-.88-.74,0-1.37.63-1.37,1.37,0,.76.62,1.38,1.37,1.38.57,0,1.07-.36,1.27-.89h7.33c.1-.32.16-.64.2-.98h-7.53ZM37.955,34.54c-.09.41-.44.69-.84.69-.48,0-.87-.39-.87-.88,0-.47.4-.87.87-.87.4,0,.75.28.84.69l.04.18-.04.19Z" fill="#455a64"/>
        <path d="M35.361,34.346c0-.98.795-1.749,1.749-1.749.98,0,1.775.768,1.775,1.749s-.795,1.775-1.775,1.775c-.954,0-1.749-.795-1.749-1.775Z" fill="#ffd54f"/>
        <path d="M47.925,22.35h-10.04c-.2-.52-.7-.88-1.27-.88-.75,0-1.36.62-1.36,1.37,0,.76.61,1.38,1.36,1.38.57,0,1.07-.35,1.27-.89h10.12c0-.33-.03-.66-.08-.98ZM37.455,23.03c-.09.41-.44.69-.84.69-.47,0-.86-.39-.86-.88,0-.47.39-.87.86-.87.4,0,.75.28.84.69l.04.18-.04.19Z" fill="#455a64"/>
        <path d="M35.055,22.838c0-.874.708-1.558,1.558-1.558.873,0,1.582.685,1.582,1.558s-.708,1.582-1.582,1.582c-.85,0-1.558-.708-1.558-1.582Z" fill="#ffa14e"/>
      </g>
      <rect x="13.564" y="12.994" width="20.872" height="20.863" rx="1.676" ry="1.676" fill="#455a64"/>
      <path d="M32.189,31.61H15.81v-11.613l4.756-4.756h11.624v16.37ZM16.708,30.712h14.582v-14.572h-10.353l-4.23,4.23v10.343Z" fill="#384c54"/>
      <g>
        <path d="M19.318,27.062c-.043-.043-.065-.092-.065-.146,0-.04.003-.07.01-.09l2.341-6.439c.067-.195.201-.291.402-.291h1.567c.201,0,.335.097.402.291l2.341,6.439c.007.02.01.05.01.09,0,.054-.022.102-.065.146-.043.044-.092.065-.145.065h-1.306c-.161,0-.275-.074-.341-.221l-.362-.975h-2.632l-.362.975c-.067.148-.181.221-.341.221h-1.306c-.054,0-.102-.022-.146-.065ZM21.895,24.425h1.788l-.894-2.562-.894,2.562Z" fill="#ffd54f"/>
        <path d="M27.048,21.105c-.047-.05-.07-.112-.07-.186v-.935c0-.074.025-.135.075-.186.05-.05.109-.076.176-.076h1.256c.074,0,.136.025.186.076.05.05.075.112.075.186v.935c0,.074-.025.136-.075.186-.05.05-.112.075-.186.075h-1.256c-.074,0-.134-.025-.181-.075ZM27.053,27.052c-.05-.05-.075-.109-.075-.176v-4.722c0-.073.025-.134.075-.181.05-.047.109-.071.176-.071h1.256c.074,0,.136.024.186.071.05.047.075.107.075.181v4.722c0,.074-.025.134-.075.181-.05.047-.112.07-.186.07h-1.256c-.067,0-.125-.025-.176-.075Z" fill="#ffd54f"/>
      </g>
    </g>
  </g>
</svg>