<?xml version="1.0" encoding="UTF-8"?>
<svg id="Layer_2" data-name="Layer 2" xmlns="http://www.w3.org/2000/svg" viewBox="0 0 48 36.838">
  <g id="Icons">
    <g id="_248" data-name="248">
      <path d="M33.678,3.48H14.322l1.746-2.711c.309-.479.84-.769,1.41-.769h13.045c.57,0,1.101.29,1.41.769l1.746,2.711Z" fill="#455a64"/>
      <g>
        <path d="M43.025,34.208v1.944c0,.379-.307.686-.686.686h-3.234c-.111,0-.221-.027-.32-.079l-4.85-2.551h9.09Z" fill="#455a64"/>
        <path d="M4.975,34.208h9.09l-4.85,2.551c-.099.052-.208.079-.32.079h-3.234c-.379,0-.687-.307-.687-.686v-1.944Z" fill="#455a64"/>
      </g>
      <rect y="2.618" width="48" height="31.59" rx="1.6" ry="1.6" fill="#2196f3"/>
      <rect x="2" y="4.618" width="44" height="19.368" fill="#d9defb"/>
      <g>
        <path d="M7.554,18.191c-.593-.671-.917-1.55-.972-2.638-.01-.245-.014-.661-.014-1.251,0-.598.004-1.024.014-1.278.045-1.069.372-1.94.978-2.61.608-.671,1.509-1.006,2.707-1.006s2.098.335,2.706,1.006c.608.671.934,1.541.979,2.61.018.508.027.934.027,1.278s-.009.762-.027,1.251c-.054,1.088-.378,1.967-.973,2.638-.593.671-1.498,1.006-2.712,1.006s-2.119-.335-2.713-1.006ZM11.532,17.056c.28-.367.43-.891.448-1.57.009-.263.013-.667.013-1.211s-.004-.938-.013-1.183c-.018-.662-.168-1.178-.448-1.55-.281-.371-.703-.562-1.265-.571-.562.009-.984.2-1.265.571-.281.372-.431.889-.449,1.55-.009.245-.013.639-.013,1.183s.004.948.013,1.211c.019.679.168,1.203.449,1.57.281.367.703.551,1.265.551s.984-.183,1.265-.551Z" fill="#f45558"/>
        <path d="M18.29,18.966c-.064-.063-.095-.141-.095-.231v-7.016l-2.054,1.577c-.054.045-.122.068-.204.068-.109,0-.195-.045-.258-.136l-.585-.761c-.045-.064-.067-.127-.067-.19,0-.109.05-.2.149-.272l3.045-2.366c.1-.064.214-.095.341-.095h1.224c.09,0,.167.032.23.095.064.064.095.141.095.231v8.865c0,.091-.031.168-.095.231-.063.064-.141.095-.23.095h-1.265c-.091,0-.168-.032-.231-.095Z" fill="#f45558"/>
        <path d="M22.015,12.813c-.063-.063-.095-.14-.095-.231v-1.306c0-.1.032-.181.095-.245.063-.064.14-.095.231-.095h1.36c.1,0,.182.032.245.095.063.064.095.145.095.245v1.306c0,.091-.032.168-.095.231-.063.064-.145.095-.245.095h-1.36c-.091,0-.168-.032-.231-.095ZM22.015,17.572c-.063-.063-.095-.14-.095-.231v-1.305c0-.1.032-.181.095-.245.063-.064.14-.096.231-.096h1.36c.1,0,.182.032.245.096.063.063.095.145.095.245v1.305c0,.091-.032.168-.095.231-.063.064-.145.095-.245.095h-1.36c-.091,0-.168-.032-.231-.095Z" fill="#f45558"/>
        <path d="M27.025,18.755c-.549-.253-.963-.589-1.244-1.006-.281-.417-.431-.866-.449-1.346v-.028c0-.073.03-.133.088-.183.059-.05.125-.075.197-.075h1.292c.208,0,.34.091.394.272.127.399.338.693.632.884.294.19.642.286,1.04.286.508,0,.927-.154,1.258-.463.331-.308.497-.734.497-1.278,0-.49-.166-.886-.497-1.19-.331-.303-.75-.455-1.258-.455-.271,0-.493.037-.666.109-.172.073-.34.172-.502.299-.019.01-.06.037-.123.082-.063.045-.121.077-.17.095s-.102.027-.156.027h-1.278c-.082,0-.152-.029-.21-.088-.06-.059-.088-.129-.088-.211l.462-4.636c.009-.118.052-.211.128-.279.077-.068.17-.102.279-.102h5.112c.101,0,.179.029.238.088.06.059.088.138.088.238v.925c0,.091-.029.168-.088.231-.059.063-.137.095-.238.095h-3.929l-.217,2.203c.208-.136.448-.247.72-.333s.625-.13,1.06-.13c.59,0,1.135.125,1.639.374.504.25.906.608,1.211,1.075.303.467.455,1.009.455,1.625,0,.662-.154,1.239-.461,1.733-.309.494-.744.875-1.306,1.142-.562.267-1.215.401-1.959.401-.753,0-1.402-.127-1.951-.381Z" fill="#f45558"/>
        <path d="M35.007,18.191c-.593-.671-.917-1.55-.971-2.638-.01-.245-.014-.661-.014-1.251,0-.598.004-1.024.014-1.278.045-1.069.372-1.94.978-2.61.608-.671,1.509-1.006,2.707-1.006s2.098.335,2.706,1.006c.608.671.934,1.541.979,2.61.018.508.027.934.027,1.278s-.009.762-.027,1.251c-.054,1.088-.378,1.967-.973,2.638-.593.671-1.498,1.006-2.712,1.006s-2.119-.335-2.713-1.006ZM38.985,17.056c.28-.367.43-.891.448-1.57.009-.263.013-.667.013-1.211s-.004-.938-.013-1.183c-.018-.662-.168-1.178-.448-1.55-.281-.371-.703-.562-1.265-.571-.562.009-.984.2-1.265.571-.281.372-.43.889-.449,1.55-.009.245-.013.639-.013,1.183s.004.948.013,1.211c.019.679.168,1.203.449,1.57.281.367.703.551,1.265.551s.984-.183,1.265-.551Z" fill="#f45558"/>
      </g>
      <g>
        <g>
          <path d="M6.614,28.862c0,.96-.776,1.735-1.744,1.735-.96,0-1.735-.776-1.735-1.735s.776-1.744,1.735-1.744c.968,0,1.744.784,1.744,1.744Z" fill="#d9defb"/>
          <path d="M12.472,28.862c0,.96-.776,1.735-1.744,1.735-.959,0-1.735-.776-1.735-1.735s.776-1.744,1.735-1.744c.968,0,1.744.784,1.744,1.744Z" fill="#d9defb"/>
          <path d="M18.331,28.862c0,.96-.776,1.735-1.744,1.735-.959,0-1.735-.776-1.735-1.735s.776-1.744,1.735-1.744c.968,0,1.744.784,1.744,1.744Z" fill="#d9defb"/>
        </g>
        <path d="M45.058,28.854c0,.597-.486,1.083-1.075,1.083h-12.527c-.589,0-1.075-.486-1.075-1.083,0-.589.486-1.075,1.075-1.075h12.527c.589,0,1.075.486,1.075,1.075Z" fill="#ffd54f"/>
      </g>
    </g>
  </g>
</svg>