<?xml version="1.0" encoding="UTF-8"?>
<svg id="Layer_2" data-name="Layer 2" xmlns="http://www.w3.org/2000/svg" viewBox="0 0 48 47.995">
  <g id="Icons">
    <g id="_57" data-name="57">
      <rect x="0" width="34.912" height="47.995" rx="2.478" ry="2.478" fill="#d9defb"/>
      <g>
        <rect x="3.911" y="36.586" width="27.53" height="1.261" fill="#c5cced"/>
        <rect x="3.911" y="39.139" width="27.53" height="1.261" fill="#c5cced"/>
        <rect x="3.911" y="41.693" width="27.53" height="1.261" fill="#c5cced"/>
        <g>
          <rect x="6.74" y="27.876" width="4.193" height="5.89" fill="#2196f3"/>
          <rect x="12.633" y="24.225" width="4.193" height="9.541" fill="#2196f3"/>
          <rect x="18.526" y="25.984" width="4.193" height="7.782" fill="#2196f3"/>
          <rect x="24.42" y="20.881" width="4.193" height="12.885" fill="#2196f3"/>
          <polygon points="9.139 25.388 8.534 24.591 14.674 19.936 20.476 22.811 26.119 15.422 26.914 16.029 20.77 24.072 14.785 21.106 9.139 25.388" fill="#f45558"/>
          <path d="M28.292,15.391c0,.853-.678,1.531-1.531,1.531s-1.551-.678-1.551-1.531.698-1.531,1.551-1.531,1.531.678,1.531,1.531Z" fill="#f45558"/>
          <path d="M22.411,23.46c0,.853-.679,1.531-1.531,1.531s-1.551-.678-1.551-1.531.698-1.531,1.551-1.531,1.531.678,1.531,1.531Z" fill="#f45558"/>
          <path d="M16.41,20.634c0,.853-.678,1.531-1.531,1.531s-1.551-.678-1.551-1.531.698-1.531,1.551-1.531,1.531.678,1.531,1.531Z" fill="#f45558"/>
          <path d="M10.377,24.992c0,.853-.679,1.531-1.531,1.531s-1.551-.678-1.551-1.531.698-1.531,1.551-1.531,1.531.678,1.531,1.531Z" fill="#f45558"/>
        </g>
        <g>
          <path d="M16.824,11.713c0,3.695-2.987,6.682-6.682,6.682s-6.672-2.987-6.672-6.682,2.987-6.672,6.672-6.672,6.682,2.987,6.682,6.672Z" fill="#455a64"/>
          <path d="M14.869,6.996l-4.725,4.717-4.717-4.717c1.204-1.204,2.873-1.952,4.717-1.952s3.513.748,4.725,1.952Z" fill="#f45558"/>
          <path d="M16.82,11.714h-6.677l4.725-4.717c1.204,1.204,1.952,2.873,1.952,4.717Z" fill="#ffd54f"/>
        </g>
      </g>
      <g>
        <rect x="31.534" y="33.414" width="7.31" height="3.54" transform="translate(-14.572 35.187) rotate(-45)" fill="#384c54"/>
        <path d="M18.392,18.394c-4.575,4.575-4.575,11.971,0,16.546s11.978,4.582,16.553.007c4.568-4.568,4.568-11.992,0-16.56-4.575-4.575-11.985-4.561-16.553.007ZM32.013,32.016c-2.953,2.953-7.736,2.945-10.689-.008-2.953-2.953-2.953-7.728,0-10.681,2.953-2.953,7.736-2.961,10.689-.008,2.953,2.953,2.953,7.744,0,10.697Z" fill="#455a64"/>
        <path d="M38.012,34.867l8.796,7.295c1.494,1.239,1.599,3.495.226,4.868h0c-1.373,1.373-3.628,1.268-4.868-.227l-7.295-8.796,3.14-3.14Z" fill="#a96c79"/>
      </g>
    </g>
  </g>
</svg>