<?xml version="1.0" encoding="UTF-8"?>
<svg id="Layer_2" data-name="Layer 2" xmlns="http://www.w3.org/2000/svg" viewBox="0 0 48 48">
  <g id="Icons">
    <g id="_21" data-name="21">
      <g>
        <rect x="43.67" y="8.35" width="4.33" height="2.446" fill="#ffd54f"/>
        <rect x="43.67" y="13.159" width="4.33" height="2.446" fill="#ffd54f"/>
        <rect x="43.67" y="17.968" width="4.33" height="2.446" fill="#ffd54f"/>
        <rect x="43.67" y="22.777" width="4.33" height="2.446" fill="#ffd54f"/>
        <rect x="43.67" y="27.586" width="4.33" height="2.446" fill="#ffd54f"/>
        <rect x="43.67" y="32.395" width="4.33" height="2.446" fill="#ffd54f"/>
        <rect x="43.67" y="37.203" width="4.33" height="2.446" fill="#ffd54f"/>
        <rect x="43.67" y="8.35" width="1.676" height="2.446" fill="#f2c341"/>
        <rect x="43.67" y="13.159" width="1.676" height="2.446" fill="#f2c341"/>
        <rect x="43.67" y="17.968" width="1.676" height="2.446" fill="#f2c341"/>
        <rect x="43.67" y="22.777" width="1.676" height="2.446" fill="#f2c341"/>
        <rect x="43.67" y="27.586" width="1.676" height="2.446" fill="#f2c341"/>
        <rect x="43.67" y="32.395" width="1.676" height="2.446" fill="#f2c341"/>
        <rect x="43.67" y="37.203" width="1.676" height="2.446" fill="#f2c341"/>
      </g>
      <g>
        <rect y="8.35" width="4.33" height="2.446" fill="#ffd54f"/>
        <rect y="13.159" width="4.33" height="2.446" fill="#ffd54f"/>
        <rect y="17.968" width="4.33" height="2.446" fill="#ffd54f"/>
        <rect y="22.777" width="4.33" height="2.446" fill="#ffd54f"/>
        <rect y="27.586" width="4.33" height="2.446" fill="#ffd54f"/>
        <rect y="32.395" width="4.33" height="2.446" fill="#ffd54f"/>
        <rect y="37.203" width="4.33" height="2.446" fill="#ffd54f"/>
        <rect x="2.654" y="8.35" width="1.676" height="2.446" fill="#f2c341"/>
        <rect x="2.654" y="13.159" width="1.676" height="2.446" fill="#f2c341"/>
        <rect x="2.654" y="17.968" width="1.676" height="2.446" fill="#f2c341"/>
        <rect x="2.654" y="22.777" width="1.676" height="2.446" fill="#f2c341"/>
        <rect x="2.654" y="27.586" width="1.676" height="2.446" fill="#f2c341"/>
        <rect x="2.654" y="32.395" width="1.676" height="2.446" fill="#f2c341"/>
        <rect x="2.654" y="37.203" width="1.676" height="2.446" fill="#f2c341"/>
      </g>
      <g>
        <rect x="37.203" y="43.67" width="2.446" height="4.33" fill="#ffd54f"/>
        <rect x="32.394" y="43.67" width="2.446" height="4.33" fill="#ffd54f"/>
        <rect x="27.586" y="43.67" width="2.446" height="4.33" fill="#ffd54f"/>
        <rect x="22.777" y="43.67" width="2.446" height="4.33" fill="#ffd54f"/>
        <rect x="17.968" y="43.67" width="2.446" height="4.33" fill="#ffd54f"/>
        <rect x="13.159" y="43.67" width="2.446" height="4.33" fill="#ffd54f"/>
        <rect x="8.351" y="43.67" width="2.446" height="4.33" fill="#ffd54f"/>
        <rect x="37.203" y="43.67" width="2.446" height="1.676" fill="#f2c341"/>
        <rect x="32.394" y="43.67" width="2.446" height="1.676" fill="#f2c341"/>
        <rect x="27.586" y="43.67" width="2.446" height="1.676" fill="#f2c341"/>
        <rect x="22.777" y="43.67" width="2.446" height="1.676" fill="#f2c341"/>
        <rect x="17.968" y="43.67" width="2.446" height="1.676" fill="#f2c341"/>
        <rect x="13.159" y="43.67" width="2.446" height="1.676" fill="#f2c341"/>
        <rect x="8.351" y="43.67" width="2.446" height="1.676" fill="#f2c341"/>
      </g>
      <g>
        <rect x="37.203" width="2.446" height="4.33" fill="#ffd54f"/>
        <rect x="32.394" width="2.446" height="4.33" fill="#ffd54f"/>
        <rect x="27.586" width="2.446" height="4.33" fill="#ffd54f"/>
        <rect x="22.777" width="2.446" height="4.33" fill="#ffd54f"/>
        <rect x="17.968" width="2.446" height="4.33" fill="#ffd54f"/>
        <rect x="13.159" width="2.446" height="4.33" fill="#ffd54f"/>
        <rect x="8.351" width="2.446" height="4.33" fill="#ffd54f"/>
        <rect x="37.203" y="2.654" width="2.446" height="1.676" fill="#f2c341"/>
        <rect x="32.394" y="2.654" width="2.446" height="1.676" fill="#f2c341"/>
        <rect x="27.586" y="2.654" width="2.446" height="1.676" fill="#f2c341"/>
        <rect x="22.777" y="2.654" width="2.446" height="1.676" fill="#f2c341"/>
        <rect x="17.968" y="2.654" width="2.446" height="1.676" fill="#f2c341"/>
        <rect x="13.159" y="2.654" width="2.446" height="1.676" fill="#f2c341"/>
        <rect x="8.351" y="2.654" width="2.446" height="1.676" fill="#f2c341"/>
      </g>
      <g>
        <rect x="4.328" y="4.329" width="39.341" height="39.341" rx="3.643" ry="3.643" fill="#455a64"/>
        <rect x="31.05" y="24.42" width="8.205" height="1.255" fill="#d9defb"/>
        <polygon points="20.659 25.763 18.001 19.603 9.168 19.603 9.168 18.348 18.826 18.348 21.811 25.266 20.659 25.763" fill="#d9defb"/>
        <polygon points="26.079 38.929 24.824 38.929 24.824 34.131 14.656 34.131 14.656 26.814 15.911 26.814 15.911 32.875 26.079 32.875 26.079 38.929" fill="#d9defb"/>
        <path d="M15.276,27.442c-1.315,0-2.386-1.07-2.386-2.386,0-1.324,1.07-2.402,2.386-2.402,1.324,0,2.402,1.078,2.402,2.402,0,1.315-1.078,2.386-2.402,2.386ZM15.276,23.909c-.623,0-1.13.514-1.13,1.147s.496,1.13,1.13,1.13,1.147-.507,1.147-1.13c0-.632-.514-1.147-1.147-1.147Z" fill="#d9defb"/>
        <path d="M22.125,29.428c-1.315,0-2.386-1.07-2.386-2.386,0-1.325,1.07-2.402,2.386-2.402,1.325,0,2.402,1.078,2.402,2.402,0,1.315-1.077,2.386-2.402,2.386ZM22.125,25.895c-.623,0-1.13.514-1.13,1.147s.497,1.13,1.13,1.13,1.147-.507,1.147-1.13c0-.633-.514-1.147-1.147-1.147Z" fill="#d9defb"/>
        <path d="M29.275,27.442c-1.315,0-2.386-1.07-2.386-2.386,0-1.324,1.07-2.402,2.386-2.402,1.325,0,2.402,1.078,2.402,2.402,0,1.315-1.078,2.386-2.402,2.386ZM29.275,23.909c-.623,0-1.13.514-1.13,1.147s.496,1.13,1.13,1.13,1.147-.507,1.147-1.13c0-.632-.514-1.147-1.147-1.147Z" fill="#d9defb"/>
        <polygon points="15.297 16.113 8.744 16.113 8.744 14.857 14.681 14.857 16.64 12.326 21.235 12.326 21.235 13.581 17.256 13.581 15.297 16.113" fill="#d9defb"/>
        <path d="M23.009,15.348c-1.324,0-2.401-1.078-2.401-2.402,0-1.315,1.077-2.386,2.401-2.386,1.315,0,2.386,1.07,2.386,2.386,0,1.325-1.07,2.402-2.386,2.402ZM23.009,11.815c-.632,0-1.146.507-1.146,1.13,0,.633.514,1.147,1.146,1.147.623,0,1.13-.514,1.13-1.147s-.496-1.13-1.13-1.13Z" fill="#d9defb"/>
        <polygon points="34.252 19.603 26.935 19.603 26.935 18.348 32.997 18.348 32.997 8.808 34.252 8.808 34.252 19.603" fill="#d9defb"/>
        <path d="M25.177,21.369c-1.325,0-2.402-1.07-2.402-2.386,0-1.325,1.078-2.402,2.402-2.402,1.315,0,2.386,1.077,2.386,2.402,0,1.315-1.07,2.386-2.386,2.386ZM25.177,17.837c-.633,0-1.147.514-1.147,1.147,0,.623.514,1.13,1.147,1.13s1.13-.497,1.13-1.13-.507-1.147-1.13-1.147Z" fill="#d9defb"/>
        <path d="M35.358,9.978l2.663,2.663v22.718l-2.663,2.663H12.64l-2.663-2.663V12.641l2.663-2.663h22.718M36.138,8.095H11.86c-1.471,1.471-2.295,2.295-3.766,3.766v24.278c1.471,1.471,2.295,2.295,3.766,3.766h24.278c1.471-1.471,2.295-2.295,3.766-3.766V11.861c-1.471-1.471-2.295-2.295-3.766-3.766h0Z" fill="#384c54"/>
      </g>
    </g>
  </g>
</svg>