<?xml version="1.0" encoding="UTF-8"?>
<svg id="Layer_2" data-name="Layer 2" xmlns="http://www.w3.org/2000/svg" viewBox="0 0 48 48">
  <g id="Icons">
    <g id="_264" data-name="264">
      <g>
        <path d="M47.995,41.356h0c0,3.669-2.975,6.644-6.644,6.644H6.644c-3.669,0-6.644-2.975-6.644-6.644h0c0-3.669,2.975-6.644,6.644-6.644h34.708c3.669,0,6.644,2.975,6.644,6.644Z" fill="#455a64"/>
        <path d="M11.384,41.362c0,2.614-2.121,4.735-4.735,4.735s-4.746-2.121-4.746-4.735,2.121-4.746,4.746-4.746,4.735,2.121,4.735,4.746Z" fill="#384c54"/>
        <path d="M9.608,41.359c0,1.634-1.326,2.961-2.96,2.961s-2.967-1.326-2.967-2.961,1.326-2.967,2.967-2.967,2.96,1.326,2.96,2.967Z" fill="#d9defb"/>
        <path d="M22.902,41.362c0,2.614-2.121,4.735-4.735,4.735s-4.746-2.121-4.746-4.735,2.121-4.746,4.746-4.746,4.735,2.121,4.735,4.746Z" fill="#384c54"/>
        <path d="M21.125,41.359c0,1.634-1.326,2.961-2.961,2.961s-2.967-1.326-2.967-2.961,1.326-2.967,2.967-2.967,2.961,1.326,2.961,2.967Z" fill="#d9defb"/>
        <path d="M34.419,41.362c0,2.614-2.121,4.735-4.735,4.735s-4.746-2.121-4.746-4.735,2.121-4.746,4.746-4.746,4.735,2.121,4.735,4.746Z" fill="#384c54"/>
        <path d="M32.642,41.359c0,1.634-1.326,2.961-2.96,2.961s-2.967-1.326-2.967-2.961,1.326-2.967,2.967-2.967,2.96,1.326,2.96,2.967Z" fill="#d9defb"/>
        <path d="M45.936,41.362c0,2.614-2.121,4.735-4.735,4.735s-4.746-2.121-4.746-4.735,2.121-4.746,4.746-4.746,4.735,2.121,4.735,4.746Z" fill="#384c54"/>
        <path d="M44.16,41.359c0,1.634-1.326,2.961-2.96,2.961s-2.967-1.326-2.967-2.961,1.326-2.967,2.967-2.967,2.96,1.326,2.96,2.967Z" fill="#d9defb"/>
      </g>
      <rect y="1.275" width="48" height="2.397" fill="#455a64"/>
      <g>
        <path d="M12.382,21.66h13.886c.759,0,1.374.616,1.374,1.374v10.304c0,.759-.616,1.375-1.375,1.375h-13.886c-.759,0-1.374-.616-1.374-1.374v-10.304c0-.759.616-1.374,1.374-1.374Z" fill="#ffd54f"/>
        <rect x="16.675" y="21.663" width="5.3" height="3.737" fill="#ffa14e"/>
      </g>
      <g>
        <polygon points="39.02 15.89 35.59 15.65 27.43 15.08 27.37 12.48 35.07 11.61 36.61 11.43 38.92 11.17 38.94 12.13 39.02 15.89" fill="#d9defb"/>
        <polygon points="27.089 13.046 24.724 12.225 24.735 11.499 27.109 11.726 27.089 13.046" fill="#d9defb"/>
        <polygon points="23.395 12.587 24.735 11.499 25.104 12.097 23.765 13.186 23.395 12.587" fill="#d9defb"/>
        <polygon points="27.168 14.317 24.803 15.138 24.813 15.864 27.188 15.637 27.168 14.317" fill="#d9defb"/>
        <polygon points="23.474 14.776 24.813 15.864 25.182 15.266 23.844 14.177 23.474 14.776" fill="#d9defb"/>
        <path d="M27.765,11.497c.101.101.164.239.167.392l.08,3.756c.007.316-.244.577-.56.584-.317.007-.577-.244-.584-.56l-.08-3.756c-.007-.316.244-.577.56-.584.163-.003.31.061.417.167Z" fill="#455a64"/>
        <rect x="36.61" y="2.47" width="4.82" height="9.66" fill="#d9defb"/>
        <rect x="36.605" y="2.473" width="4.827" height="3.941" fill="#c5cced"/>
        <rect x="34.518" y="0" width="9.001" height="4.946" rx=".825" ry=".825" fill="#d9defb"/>
        <path d="M41.43,12.13h-2.49l.08,3.76-3.43-.24c-.52-.7-.82-1.57-.82-2.5,0-.54.1-1.06.3-1.54l1.54-.18v-1.77c.68-.47,1.52-.75,2.42-.75.89,0,1.72.27,2.4.74v2.48Z" fill="#c5cced"/>
        <path d="M42.37,13.153c0,1.851-1.494,3.357-3.346,3.357s-3.357-1.506-3.357-3.357,1.506-3.346,3.357-3.346,3.346,1.495,3.346,3.346Z" fill="#455a64"/>
        <path d="M40.803,13.155c0,.985-.795,1.787-1.781,1.787s-1.787-.801-1.787-1.787.801-1.781,1.787-1.781,1.781.796,1.781,1.781Z" fill="#d9defb"/>
      </g>
    </g>
  </g>
</svg>