<?xml version="1.0" encoding="UTF-8"?>
<svg id="Layer_2" data-name="Layer 2" xmlns="http://www.w3.org/2000/svg" viewBox="0 0 40.315 48">
  <g id="Icons">
    <g id="_93" data-name="93">
      <path d="M9.503,47.089L.911,38.497c-1.215-1.215-1.215-3.192,0-4.406l6.434-6.433c.363-.363.952-.363,1.316,0s.363.953,0,1.316l-6.433,6.434c-.49.489-.489,1.286,0,1.775l8.592,8.592c.489.489,1.285.49,1.775,0l26.133-26.133c.363-.363.953-.363,1.316,0,.363.363.363.952,0,1.316l-26.133,26.133c-1.215,1.215-3.192,1.215-4.406,0Z" fill="#455a64"/>
      <rect x="1.561" y="27.883" width="8.696" height="5.051" transform="translate(-19.771 13.084) rotate(-45)" fill="#4ea863"/>
      <path d="M34.812,5.073c-1.03,1.16-5.792,2.224-5.792,2.224,0,0,1.064-4.762,2.224-5.792.922-.818,3.908-2.083,4.779-1.211s-.393,3.858-1.211,4.779Z" fill="#c5cced"/>
      <path d="M25.185,19.491l-10.524,10.524c-2.178,2.178-5.716,2.534-8.093.575-2.734-2.252-2.889-6.311-.445-8.755l10.703-10.703c.454-.454,1.19-.454,1.644,0l6.715,6.716c.454.454.454,1.19,0,1.644Z" fill="#5bb774"/>
      <rect x="17.93" y="11.555" width="1.843" height="11.822" transform="translate(-6.829 18.445) rotate(-45)" fill="#ffd54f"/>
      <rect x="15.433" y="14.052" width="1.843" height="11.822" transform="translate(-9.326 17.411) rotate(-45)" fill="#ffd54f"/>
      <path d="M31.945,7.427l-8.59,8.59-3.055-3.055,8.59-8.59c.221-.221.58-.221.801,0l2.253,2.253c.221.221.221.58,0,.801Z" fill="#d9defb"/>
      <rect x="25.789" y="7.668" width="1.4" height="4.32" transform="translate(.809 21.61) rotate(-45.003)" fill="#455a64"/>
      <rect x="28.372" y="5.085" width="1.4" height="4.32" transform="translate(3.392 22.679) rotate(-45)" fill="#455a64"/>
    </g>
  </g>
</svg>