<?xml version="1.0" encoding="UTF-8"?>
<svg id="Layer_2" data-name="Layer 2" xmlns="http://www.w3.org/2000/svg" viewBox="0 0 48 48">
  <g id="Icons">
    <g id="_127" data-name="127">
      <g>
        <path d="M36.483,32.6c-.216,0-.433-.083-.598-.248-.33-.33-.33-.865,0-1.196,3.938-3.939,3.938-10.35,0-14.289-.33-.33-.33-.865,0-1.196.33-.33.865-.33,1.196,0,4.598,4.599,4.598,12.081,0,16.681-.165.165-.381.248-.598.248Z" fill="#d9defb"/>
        <path d="M39.121,35.237c-.216,0-.433-.083-.598-.248-.33-.33-.33-.866,0-1.196,2.615-2.615,4.054-6.087,4.055-9.78,0-3.692-1.44-7.164-4.054-9.779-.33-.33-.33-.865,0-1.196.33-.33.865-.33,1.196,0,2.933,2.933,4.55,6.832,4.55,10.976,0,4.143-1.616,8.041-4.55,10.975-.165.165-.382.248-.598.248Z" fill="#d9defb"/>
        <path d="M41.76,37.876c-.216,0-.433-.083-.598-.248-.33-.33-.33-.865,0-1.196,3.319-3.319,5.147-7.727,5.147-12.415s-1.828-9.096-5.147-12.414c-.33-.33-.33-.865,0-1.196.33-.33.865-.33,1.196,0,3.639,3.638,5.642,8.472,5.642,13.61s-2.004,9.973-5.642,13.611c-.165.165-.382.248-.598.248Z" fill="#d9defb"/>
      </g>
      <g>
        <path d="M36.238,23.995c0,1.686-.687,3.222-1.794,4.329-1.106,1.106-2.642,1.794-4.329,1.794h-.43v-12.234h.43c3.383,0,6.122,2.739,6.122,6.112Z" fill="#455a64"/>
        <polygon points="27.673 3.396 27.673 44.604 11.46 35.233 11.46 12.767 27.673 3.396" fill="#ffd54f"/>
        <path d="M0,16.79v14.42c0,2.222,1.801,4.023,4.023,4.023h7.437V12.767h-7.437c-2.222,0-4.023,1.801-4.023,4.023Z" fill="#f45558"/>
        <path d="M31.72,2.019v43.962c0,1.117-.902,2.019-2.019,2.019s-2.033-.902-2.033-2.019V2.019c0-1.117.916-2.019,2.033-2.019s2.019.902,2.019,2.019Z" fill="#f45558"/>
      </g>
    </g>
  </g>
</svg>