<?xml version="1.0" encoding="UTF-8"?>
<svg id="Layer_2" data-name="Layer 2" xmlns="http://www.w3.org/2000/svg" viewBox="0 0 43.845 48">
  <g id="Icons">
    <g id="_113" data-name="113">
      <path d="M5.981,2v44c0,1.105.895,2,2,2h33.86c1.104,0,2-.895,2-2V10.23L33.611,0H7.981c-1.105,0-2,.895-2,2Z" fill="#d9defb"/>
      <path d="M43.845,10.23v35.77c0,1.1-.9,2-2,2H7.985c-1.11,0-2-.9-2-2v-3.07L41.265,7.65l2.58,2.58Z" fill="#c5cced"/>
      <g>
        <path d="M12.706,24.471c-.058-.058-.087-.129-.087-.212v-8.104c0-.091.027-.166.081-.224.055-.058.127-.087.218-.087h1.009c.157,0,.282.079.373.237l2.403,4.456,2.403-4.456c.091-.158.215-.237.373-.237h.996c.091,0,.166.029.224.087.059.058.087.133.087.224v8.104c0,.092-.028.164-.087.218-.058.054-.133.081-.224.081h-1.071c-.083,0-.153-.029-.211-.087-.059-.058-.087-.129-.087-.212v-5.353l-1.731,3.287c-.091.182-.228.273-.41.273h-.523c-.174,0-.316-.091-.423-.273l-1.73-3.287v5.353c0,.083-.027.154-.081.212-.054.058-.127.087-.218.087h-1.071c-.083,0-.153-.029-.212-.087Z" fill="#455a64"/>
        <path d="M22.814,24.471c-.058-.058-.087-.129-.087-.212v-8.104c0-.091.027-.166.081-.224.055-.058.127-.087.218-.087h3.337c1.004,0,1.792.237,2.364.71.573.473.859,1.162.859,2.066,0,.897-.286,1.575-.859,2.035-.572.461-1.36.691-2.364.691h-1.83v2.913c0,.092-.029.164-.087.218-.058.054-.133.081-.224.081h-1.195c-.083,0-.153-.029-.212-.087ZM26.3,19.953c.481,0,.849-.114,1.102-.342.252-.228.379-.562.379-1.002,0-.432-.123-.768-.367-1.008-.245-.241-.616-.361-1.114-.361h-1.792v2.714h1.792Z" fill="#455a64"/>
        <path d="M31.895,24.335c-.51-.233-.892-.525-1.146-.878-.253-.353-.388-.716-.404-1.089,0-.075.024-.137.074-.187.051-.05.112-.075.187-.075h1.145c.182,0,.307.083.374.249.182.59.73.884,1.643.884.505,0,.903-.116,1.188-.349.287-.233.429-.564.429-.996s-.131-.745-.392-.94c-.261-.195-.645-.292-1.151-.292h-1.282c-.083,0-.154-.029-.212-.087-.058-.058-.087-.129-.087-.212v-.535c0-.158.054-.282.162-.373l2.215-2.166h-3.548c-.091,0-.166-.029-.224-.087-.059-.058-.087-.129-.087-.212v-.834c0-.091.028-.166.087-.224.058-.058.133-.087.224-.087h5.353c.091,0,.166.029.224.087.058.058.087.133.087.224v.759c0,.141-.054.257-.162.348l-2.14,2.203.149.013c.797.066,1.429.307,1.898.722.469.415.703,1.008.703,1.78,0,.548-.147,1.025-.442,1.431s-.701.72-1.22.94c-.519.22-1.11.33-1.774.33-.738,0-1.363-.117-1.873-.349Z" fill="#455a64"/>
      </g>
      <path d="M33.611,0v8.23c0,1.105.895,2,2,2h8.23L33.611,0Z" fill="#2196f3"/>
      <path d="M18.349,40.962c0,1.651-1.559,2.956-2.903,3.073-1.853.163-3.269-1.161-3.543-2.603-.248-1.324.163-2.434,1.22-3.256,1.063-.822,2.238-.894,3.451-.326.124.059.248.13.424.222v-5.833c-.137.039-.248.065-.352.104-3.223,1.155-6.446,2.309-9.669,3.451-.32.111-.404.267-.404.594.013,2.492.006,4.984-.006,7.477-.007.509-.013,1.031-.111,1.527-.287,1.455-1.592,2.551-3.027,2.603-1.52.052-2.949-.933-3.301-2.394-.32-1.331-.072-2.492,1.142-3.464,1.05-.848,2.486-.933,3.634-.261.085.046.163.091.294.17.006-.17.02-.3.02-.431.013-3.112.026-6.224.019-9.33,0-.385.091-.561.47-.698,3.333-1.192,9.532-3.445,11.783-4.262.413-.15.848.152.85.591.011,2.46.011,9.362.011,13.046Z" fill="#f45558"/>
    </g>
  </g>
</svg>