<?xml version="1.0" encoding="UTF-8"?>
<svg id="Layer_2" data-name="Layer 2" xmlns="http://www.w3.org/2000/svg" viewBox="0 0 48 15.486">
  <g id="Icons">
    <g id="_10" data-name="10">
      <path d="M29.877,2.422v7.861h-1.494c-.842,0-1.581-.562-1.806-1.374l-.553-1.998c-.137-.496-.588-.839-1.102-.839h0c-.514,0-.965.343-1.102.839l-.553,1.998c-.225.812-.964,1.374-1.806,1.374h-1.48V2.422h9.897Z" fill="#384c54"/>
      <path d="M22.874,3.967l-1.558,8.721c-.289,1.617-1.695,2.795-3.338,2.795h-9.822c-1.643,0-3.05-1.178-3.338-2.795L3.26,3.967h19.614Z" fill="#2196f3"/>
      <path d="M22.874,3.969l-1.554,8.723c-.289,1.614-1.699,2.795-3.337,2.795h-9.831c-1.638,0-3.048-1.181-3.337-2.795l-.759-4.241-.795-4.482h19.614Z" fill="#2196f3"/>
      <path d="M46.585,3.967l-1.558,8.721c-.289,1.617-1.695,2.795-3.338,2.795h-9.822c-1.643,0-3.049-1.178-3.338-2.795l-1.558-8.721h19.614Z" fill="#2196f3"/>
      <g>
        <polygon points="22.63 5.331 22.874 3.967 .248 3.967 .492 5.331 22.63 5.331" fill="#1792e5"/>
        <polygon points="46.341 5.331 46.585 3.967 26.97 3.967 27.214 5.331 46.341 5.331" fill="#1792e5"/>
      </g>
      <g>
        <g opacity=".2">
          <path d="M15.272.222l-1.337,3.747-4.096,11.518h-1.687c-1.638,0-3.048-1.181-3.337-2.795l-.759-4.241,1.602-4.482L6.995.222h8.277Z" fill="#fff"/>
        </g>
        <g opacity=".2">
          <polygon points="22.079 .222 20.742 3.969 16.645 15.486 11.983 15.486 16.079 3.969 17.416 .222 22.079 .222" fill="#fff"/>
        </g>
      </g>
      <g>
        <g opacity=".2">
          <path d="M38.982.222l-1.337,3.747-4.096,11.518h-1.687c-1.638,0-3.048-1.181-3.337-2.795l-.759-4.241,1.602-4.482,1.337-3.747h8.277Z" fill="#fff"/>
        </g>
        <g opacity=".2">
          <polygon points="45.789 .222 44.452 3.969 40.356 15.486 35.693 15.486 39.79 3.969 41.127 .222 45.789 .222" fill="#fff"/>
        </g>
      </g>
      <rect x="1.845" width="46.155" height="3.967" rx=".931" ry=".931" fill="#455a64"/>
      <rect x=".875" y="2.692" width="12.06" height="5.277" rx="1.043" ry="1.043" fill="#ffd54f"/>
      <path d="M.875,3.896v2.869H.333c-.184,0-.333-.149-.333-.333v-2.203c0-.184.149-.333.333-.333h.542Z" fill="#f45558"/>
      <path d="M11.845,5.331c0,.639-.518,1.169-1.169,1.169-.638,0-1.169-.53-1.169-1.169,0-.65.53-1.169,1.169-1.169.651,0,1.169.518,1.169,1.169Z" fill="#f45558"/>
      <g>
        <rect x="1.85" y="4.421" width="7.024" height=".663" fill="#455a64"/>
        <rect x="1.85" y="5.59" width="7.024" height=".651" fill="#455a64"/>
      </g>
    </g>
  </g>
</svg>