<?xml version="1.0" encoding="UTF-8"?>
<svg id="Layer_2" data-name="Layer 2" xmlns="http://www.w3.org/2000/svg" viewBox="0 0 25.198 47.994">
  <g id="Icons">
    <g id="_258" data-name="258">
      <path d="M17.152,1.012v2.596h-9.105V1.012c0-.559.453-1.012,1.012-1.012h7.082c.559,0,1.012.453,1.012,1.012Z" fill="#d9defb"/>
      <rect y="3.608" width="25.198" height="44.386" rx="3.058" ry="3.058" fill="#455a64"/>
      <path d="M25.198,19.52V6.666c0-1.689-1.369-3.058-3.058-3.058H3.058c-1.689,0-3.058,1.369-3.058,3.058v12.854h25.198Z" fill="#ffa14e"/>
      <g>
        <rect x="11.74" y="6.744" width="1.718" height="7.173" fill="#fff"/>
        <rect x="9.013" y="9.471" width="7.173" height="1.717" fill="#fff"/>
      </g>
      <rect x="9.013" y="42.626" width="7.173" height="1.717" fill="#fff"/>
      <polygon points="16.167 22.747 11.525 22.747 8.372 30.481 12.46 30.481 10.382 38.188 16.825 28.877 12.87 28.761 16.167 22.747" fill="#ffd54f"/>
    </g>
  </g>
</svg>