<?xml version="1.0" encoding="UTF-8"?>
<svg id="Layer_2" data-name="Layer 2" xmlns="http://www.w3.org/2000/svg" viewBox="0 0 41.691 47.995">
  <g id="Icons">
    <g id="_39" data-name="39">
      <path d="M39.411,28.085h-3.18v6.59c0,2.16-1.75,3.91-3.9,3.91h-5.59c-4.71,0-8.53-3.82-8.53-8.53V.005c7.46-.17,13.97,4.07,17.08,10.29l.14.27,6.08,14.36c.63,1.5-.47,3.16-2.1,3.16Z" fill="#ffd54f"/>
      <path d="M28.792,38.585v7.44c0,1.09-.88,1.97-1.96,1.97H7.312c-1.08,0-1.96-.88-1.96-1.97v-3.92c0-5.49-1.45-10.82-3.71-15.82C.432,23.585-.168,20.545.042,17.345.652,8.385,7.822.955,16.762.085c.49-.05.97-.07,1.45-.08v30.048c0,4.712,3.82,8.532,8.532,8.532h2.048Z" fill="#d9defb"/>
      <path d="M28.791,38.585v7.44c0,1.09-.88,1.97-1.96,1.97H7.311c-1.08,0-1.96-.88-1.96-1.97v-3.92c0-5.49-1.45-10.82-3.71-15.82C.431,23.585-.169,20.545.041,17.345.651,8.385,7.821.955,16.761.085c.15-.02.3-.03.45-.03.34-.03.67-.04,1-.05v30.05c0,4.71,3.82,8.53,8.53,8.53h2.05Z" fill="#d9defb"/>
      <path d="M4.992,21.655H.252c-.06-.33-.1-.67-.14-1h4.88c.2-.51.69-.88,1.28-.88.75,0,1.37.62,1.37,1.38s-.62,1.37-1.37,1.37c-.59,0-1.08-.36-1.28-.87Z" fill="#455a64"/>
      <path d="M14.762,41.525c0,.75-.63,1.37-1.38,1.37-.76,0-1.37-.62-1.37-1.37,0-.4.17-.76.44-1.01l-1.04-2.7h-6.35c-.04-.33-.09-.66-.14-1h7.18l1.28,3.33c.75,0,1.38.61,1.38,1.38Z" fill="#2196f3"/>
      <path d="M12.102,35.955h-7.34c-.06-.33-.13-.67-.2-1h6.85l1.04-2.7c-.27-.25-.44-.61-.44-1.01,0-.75.61-1.38,1.37-1.38.75,0,1.38.63,1.38,1.38,0,.76-.63,1.37-1.38,1.37l-1.28,3.34Z" fill="#455a64"/>
      <path d="M11.412,12.745H.962c.11-.34.23-.67.37-1h10.77l1.28,3.33c.75,0,1.38.61,1.38,1.38,0,.75-.63,1.37-1.38,1.37-.76,0-1.37-.62-1.37-1.37,0-.41.17-.76.44-1.01l-1.04-2.7Z" fill="#2196f3"/>
      <path d="M12.342,25.165H1.192c-.13-.33-.25-.66-.35-1h11.5c.2-.5.69-.87,1.28-.87.75,0,1.37.62,1.37,1.38s-.62,1.37-1.37,1.37c-.59,0-1.08-.36-1.28-.88Z" fill="#f45558"/>
      <path d="M13.562,8.635H2.942c.22-.35.45-.68.69-1h9.93c.2-.51.69-.87,1.27-.87.75,0,1.38.62,1.38,1.37,0,.76-.63,1.37-1.38,1.37-.58,0-1.08-.36-1.27-.87Z" fill="#f45558"/>
      <path d="M9.922,17.125c0,.29-.1.57-.27.79l1.92,3.31h6.64v1h-7.22l-2.18-3.76c-.08.02-.17.03-.27.03-.76,0-1.37-.62-1.37-1.37,0-.77.61-1.38,1.37-1.38.75,0,1.38.61,1.38,1.38Z" fill="#455a64"/>
      <path d="M11.572,28.115l-1.92,3.31c.17.22.27.5.27.79,0,.77-.63,1.38-1.38,1.38-.76,0-1.37-.61-1.37-1.38,0-.75.61-1.37,1.37-1.37.1,0,.19.01.27.03l2.18-3.76h7.22v1h-6.64Z" fill="#2196f3"/>
      <path d="M28.792,41.345v1h-11.05l-3.14-5.42c-.07.01-.13.02-.21.02-.76,0-1.37-.62-1.37-1.37,0-.77.61-1.38,1.37-1.38s1.38.61,1.38,1.38c0,.32-.12.61-.31.84l2.85,4.93h10.48Z" fill="#f45558"/>
      <path d="M24.851,17.245c-.188,0-.369-.107-.454-.289-.116-.251-.007-.548.243-.664,1.881-.873,3.787-.873,5.667,0,.25.117.359.414.243.664-.117.25-.413.36-.664.243-1.622-.755-3.2-.755-4.823,0-.068.032-.14.046-.21.046Z" fill="#455a64"/>
      <rect x="31.919" y="30.183" width="4.314" height="1" fill="#455a64"/>
      <g opacity=".1">
        <path d="M28.791,38.585v1h-2.05c-5.25,0-9.53-4.27-9.53-9.53V.055c.34-.03.67-.04,1-.05v30.05c0,4.71,3.82,8.53,8.53,8.53h2.05Z" fill="#455a64"/>
      </g>
    </g>
  </g>
</svg>