<?xml version="1.0" encoding="UTF-8"?>
<svg id="Layer_2" data-name="Layer 2" xmlns="http://www.w3.org/2000/svg" viewBox="0 0 48.107 47.996">
  <g id="Icons">
    <g id="_202" data-name="202">
      <g>
        <path d="M1.73,0h38.634c.955,0,1.729.775,1.729,1.729v35.964c0,.955-.775,1.73-1.73,1.73H1.73c-.955,0-1.73-.775-1.73-1.73V1.73C0,.775.775,0,1.73,0Z" fill="#d9defb"/>
        <path d="M42.093,7.453V1.73c0-.955-.774-1.73-1.73-1.73H1.73C.774,0,0,.774,0,1.73v5.723h42.093Z" fill="#455a64"/>
        <g>
          <rect x="2.676" y="11.803" width="9.553" height="2.072" fill="#f45558"/>
          <rect x="15.031" y="11.803" width="24.386" height="5.882" rx=".527" ry=".527" fill="#ffa14e"/>
        </g>
        <rect x="2.676" y="19.982" width="9.553" height="2.072" fill="#f45558"/>
        <rect x="15.031" y="19.982" width="24.386" height="15.751" rx=".527" ry=".527" fill="#c5cced"/>
        <g>
          <path d="M5.517,3.726c0,.718-.586,1.323-1.323,1.323s-1.323-.605-1.323-1.323c0-.737.586-1.323,1.323-1.323s1.323.586,1.323,1.323Z" fill="#2196f3"/>
          <path d="M9.689,3.726c0,.718-.586,1.323-1.323,1.323s-1.323-.605-1.323-1.323c0-.737.586-1.323,1.323-1.323s1.323.586,1.323,1.323Z" fill="#ffd54f"/>
          <path d="M13.861,3.726c0,.718-.586,1.323-1.323,1.323s-1.323-.605-1.323-1.323c0-.737.586-1.323,1.323-1.323s1.323.586,1.323,1.323Z" fill="#f45558"/>
        </g>
      </g>
      <path d="M47.773,34.204l-1.706-.326c-.156-.03-.274-.148-.312-.304-.245-1.009-.645-1.951-1.172-2.812-.082-.141-.082-.304.007-.438l.979-1.447c.111-.163.089-.386-.045-.519l-1.892-1.885c-.141-.141-.356-.156-.519-.052l-1.447.979c-.134.089-.297.089-.438.007-.853-.527-1.803-.92-2.812-1.165-.156-.037-.275-.156-.304-.312l-.319-1.714c-.037-.193-.208-.334-.408-.334h-2.671c-.193,0-.363.141-.401.334l-.326,1.714c-.03.156-.148.275-.304.312-1.009.245-1.959.646-2.812,1.165-.141.082-.304.082-.438-.007l-1.439-.972c-.163-.111-.386-.097-.519.044l-1.892,1.885c-.133.141-.156.356-.052.519l.979,1.447c.089.133.096.297.007.438-.519.853-.92,1.803-1.165,2.812-.037.156-.156.275-.312.304l-1.714.326c-.193.037-.334.208-.334.401v2.671c0,.193.141.363.334.401l1.714.327c.156.03.274.148.312.304.245,1.009.645,1.959,1.165,2.812.089.141.082.304-.007.438l-.979,1.447c-.104.163-.082.378.052.519l1.892,1.884c.134.141.356.156.519.044l1.439-.972c.134-.089.297-.089.438-.007.853.519,1.803.92,2.812,1.165.156.037.274.156.304.312l.326,1.714c.037.193.208.334.401.334h2.671c.2,0,.371-.141.408-.334l.319-1.714c.03-.156.148-.274.304-.312,1.009-.245,1.959-.638,2.812-1.165.141-.082.304-.082.438.007l1.447.979c.163.104.378.089.519-.052l1.892-1.884c.134-.134.156-.356.045-.519l-.979-1.447c-.089-.134-.089-.297-.007-.438.527-.861.927-1.803,1.172-2.812.037-.156.156-.274.312-.304l1.706-.327c.193-.037.334-.208.334-.401v-2.671c0-.193-.141-.364-.334-.401ZM36.051,41.203c-2.911,0-5.268-2.351-5.268-5.262s2.357-5.262,5.268-5.262,5.268,2.351,5.268,5.262-2.363,5.262-5.268,5.262Z" fill="#5bb774"/>
    </g>
  </g>
</svg>