<?xml version="1.0" encoding="UTF-8"?>
<svg id="Layer_2" data-name="Layer 2" xmlns="http://www.w3.org/2000/svg" viewBox="0 0 47.995 42.159">
  <g id="Icons">
    <g id="_120" data-name="120">
      <g>
        <rect width="37.395" height="37.395" rx="1.558" ry="1.558" fill="#c5cced"/>
        <rect x="2.337" y="6.371" width="32.721" height="28.688" fill="#d9defb"/>
        <path d="M37.395,6.371V1.558c0-.861-.698-1.558-1.558-1.558H1.558C.698,0,0,.698,0,1.558v4.813h37.395Z" fill="#455a64"/>
        <g>
          <g>
            <path d="M5.43,3.185c0,.686-.553,1.239-1.239,1.239-.678,0-1.231-.553-1.231-1.239s.553-1.239,1.231-1.239c.686,0,1.239.553,1.239,1.239Z" fill="#f45558"/>
            <path d="M8.78,3.185c0,.686-.553,1.239-1.239,1.239-.678,0-1.231-.553-1.231-1.239s.553-1.239,1.231-1.239c.686,0,1.239.553,1.239,1.239Z" fill="#ffd54f"/>
            <path d="M12.131,3.185c0,.686-.553,1.239-1.239,1.239-.678,0-1.231-.553-1.231-1.239s.553-1.239,1.231-1.239c.686,0,1.239.553,1.239,1.239Z" fill="#2196f3"/>
          </g>
          <rect x="14.522" y="1.947" width="19.913" height="2.478" fill="#384c54"/>
        </g>
      </g>
      <path d="M42.028,33.61l1.276,7.447c.132.769-.675,1.355-1.365.992l-6.689-3.517c-.274-.144-.602-.144-.876,0l-6.689,3.517c-.69.363-1.497-.223-1.365-.992l1.276-7.448c.052-.305-.049-.616-.27-.832l-5.401-5.274c-.558-.545-.249-1.493.523-1.604l7.467-1.08c.307-.044.572-.237.709-.515l3.344-6.78c.345-.7,1.343-.7,1.688,0l3.344,6.78c.137.278.402.471.709.515l7.479,1.08c.772.111,1.081,1.061.522,1.605l-5.411,5.274c-.222.216-.323.528-.271.833Z" fill="#2196f3"/>
    </g>
  </g>
</svg>