<?xml version="1.0" encoding="UTF-8"?>
<svg id="Layer_2" data-name="Layer 2" xmlns="http://www.w3.org/2000/svg" viewBox="0 0 43.85 48">
  <g id="Icons">
    <g id="_149" data-name="149">
      <path d="M43.85,9.181v12.927c0,18.253-21.925,25.891-21.925,25.891,0,0-21.925-7.639-21.925-25.891v-12.927S9.181,5.086,9.181,0h25.487c0,5.086,4.113,9.181,9.181,9.181Z" fill="#ffd54f"/>
      <path d="M21.925,43.689c-4.351-1.886-17.925-8.797-17.925-21.581v-10.474c2.609-1.464,6.415-4.08,8.196-7.635h19.093c1.295,4.057,4.504,7.266,8.561,8.561v9.547c0,12.784-13.574,19.695-17.925,21.581Z" fill="#fff"/>
      <path d="M31.285,4.005c.24.73.53,1.44.9,2.11H14.305c-1.78,3.55-5.59,6.17-8.19,7.63v10.47c0,5.26,2.29,9.52,5.3,12.85-3.97-3.57-7.42-8.52-7.42-14.96v-10.47c2.61-1.46,6.42-4.08,8.2-7.63h19.09Z" fill="#d9defb"/>
      <g>
        <g>
          <path d="M16.568,18.975c-.053,0-.107-.012-.158-.037l-2.193-1.078c-.845-.416-1.543-1.107-1.965-1.948l-1.624-3.234c-.088-.177-.017-.392.159-.48.175-.088.391-.019.481.159l1.624,3.234c.352.702.935,1.28,1.64,1.627l2.193,1.078c.177.087.25.301.163.479-.062.126-.189.2-.321.2Z" fill="#455a64"/>
          <path d="M9.527,26.575c-.054,0-.11-.013-.162-.039-.176-.089-.247-.305-.156-.481l1.063-2.092c.613-1.208,1.775-2.071,3.108-2.308l2.773-.495c.196-.035.38.095.415.289.035.195-.095.38-.289.415l-2.773.495c-1.114.198-2.084.919-2.596,1.928l-1.063,2.092c-.063.124-.189.196-.319.196Z" fill="#455a64"/>
          <path d="M12.713,33.539c-.097,0-.194-.039-.265-.117-.133-.146-.122-.372.024-.505l1.177-1.068c.242-.221.37-.535.348-.863l-.098-1.472c-.048-.73.346-1.407,1.005-1.725l2.334-1.128c.179-.085.393-.011.478.167.086.178.011.391-.166.477l-2.334,1.128c-.395.191-.632.597-.602,1.034l.098,1.472c.036.547-.176,1.071-.581,1.44l-1.176,1.068c-.068.062-.154.093-.24.093Z" fill="#455a64"/>
          <path d="M27.282,18.975c-.132,0-.258-.073-.321-.2-.087-.177-.015-.392.163-.479l2.193-1.078c.706-.347,1.288-.925,1.64-1.627l1.624-3.234c.089-.178.305-.247.481-.159.176.089.247.304.159.48l-1.624,3.234c-.422.841-1.12,1.532-1.964,1.948l-2.193,1.078c-.051.025-.105.037-.158.037Z" fill="#455a64"/>
          <path d="M34.322,26.575c-.13,0-.256-.072-.318-.196l-1.063-2.092c-.513-1.009-1.483-1.73-2.597-1.928l-2.773-.495c-.194-.035-.324-.22-.289-.415.035-.194.218-.324.415-.289l2.773.495c1.333.238,2.495,1.101,3.109,2.308l1.062,2.092c.09.176.02.392-.156.481-.052.026-.108.039-.162.039Z" fill="#455a64"/>
          <path d="M31.137,33.539c-.086,0-.172-.031-.24-.093l-1.176-1.068c-.405-.368-.617-.893-.581-1.439l.098-1.473c.029-.437-.207-.843-.602-1.034l-2.334-1.128c-.177-.086-.252-.3-.166-.477.086-.178.3-.252.478-.167l2.334,1.128c.659.318,1.053.996,1.005,1.725l-.098,1.472c-.022.328.105.642.348.863l1.176,1.068c.147.133.157.359.024.505-.071.078-.168.117-.265.117Z" fill="#455a64"/>
          <g>
            <path d="M24.61,11.858c-.065,0-.131-.024-.182-.071-.108-.101-.115-.27-.015-.379l.757-.819c.423-.456.954-.816,1.537-1.038.743-.283,1.375-.816,1.781-1.5l.277-.466c.075-.128.239-.168.367-.094.127.076.169.24.094.368l-.277.466c-.467.788-1.195,1.401-2.05,1.727-.506.193-.968.504-1.334.901l-.757.818c-.053.057-.125.086-.197.086Z" fill="#384c54"/>
            <path d="M19.239,11.858c-.072,0-.144-.029-.197-.086l-.757-.818c-.367-.397-.829-.708-1.334-.901-.855-.326-1.584-.94-2.05-1.727l-.277-.466c-.075-.128-.034-.292.094-.368.128-.073.293-.034.367.094l.277.466c.406.684,1.038,1.217,1.781,1.5.583.223,1.114.582,1.537,1.038l.757.819c.101.109.094.279-.015.379-.052.047-.117.071-.182.071Z" fill="#384c54"/>
          </g>
          <path d="M27.859,13.928c0,2.461-2.654,4.457-5.938,4.457s-5.93-1.996-5.93-4.457,2.654-4.457,5.93-4.457,5.938,1.996,5.938,4.457Z" fill="#455a64"/>
          <path d="M30.613,22.449c0,4.915-3.892,8.899-8.692,8.899s-8.685-3.985-8.685-8.899,3.892-8.907,8.685-8.907,8.692,3.992,8.692,8.907Z" fill="#f45558"/>
          <path d="M30.613,22.449c0,4.915-3.892,8.899-8.692,8.899s-8.685-3.985-8.685-8.899,3.892-8.907,8.685-8.907,8.692,3.992,8.692,8.907Z" fill="#f45558"/>
          <g>
            <path d="M25.715,16.242c0,.506-.4.906-.906.906s-.932-.4-.932-.906.426-.932.932-.932.906.426.906.932Z" fill="#fff"/>
            <path d="M28.901,19.527c0,.506-.4.906-.906.906s-.932-.4-.932-.906.426-.932.932-.932.906.426.906.932Z" fill="#fff"/>
            <path d="M25.006,22.222c0,.506-.4.906-.906.906s-.932-.4-.932-.906.426-.932.932-.932.906.426.906.932Z" fill="#fff"/>
            <path d="M29.114,24.674c0,.506-.4.906-.906.906s-.932-.4-.932-.906.426-.932.932-.932.906.426.906.932Z" fill="#fff"/>
            <path d="M25.538,28.202c0,.506-.4.906-.906.906s-.932-.4-.932-.906.426-.932.932-.932.906.426.906.932Z" fill="#fff"/>
            <path d="M18.177,16.242c0,.506.4.906.906.906s.932-.4.932-.906-.426-.932-.932-.932-.906.426-.906.932Z" fill="#fff"/>
            <path d="M14.991,19.527c0,.506.4.906.906.906s.932-.4.932-.906-.426-.932-.932-.932-.906.426-.906.932Z" fill="#fff"/>
            <path d="M18.886,22.222c0,.506.4.906.906.906s.932-.4.932-.906-.426-.932-.932-.932-.906.426-.906.932Z" fill="#fff"/>
            <path d="M14.778,24.674c0,.506.4.906.906.906s.932-.4.932-.906-.426-.932-.932-.932-.906.426-.906.932Z" fill="#fff"/>
            <path d="M18.355,28.202c0,.506.4.906.906.906s.932-.4.932-.906-.426-.932-.932-.932-.906.426-.906.932Z" fill="#fff"/>
          </g>
          <g>
            <path d="M25.681,11.568c-.161.457-.85.629-1.531.388-.688-.244-1.108-.808-.947-1.265.162-.457.846-.638,1.534-.395.681.241,1.106.815.944,1.272Z" fill="#fff"/>
            <path d="M18.169,11.568c.162.457.85.629,1.531.388.688-.244,1.108-.808.947-1.265-.161-.457-.845-.638-1.534-.395-.681.241-1.106.815-.944,1.272Z" fill="#fff"/>
          </g>
        </g>
        <path d="M22.679,31.312c-.25.021-.501.036-.758.036-.25,0-.508-.014-.751-.036l.744-14.93.765,14.93Z" fill="#384c54"/>
      </g>
      <rect x="18.921" y="1.927" width="4.31" height="42.448" transform="translate(-10.197 21.683) rotate(-45)" fill="#ffd54f"/>
    </g>
  </g>
</svg>