<?xml version="1.0" encoding="UTF-8"?>
<svg id="Layer_2" data-name="Layer 2" xmlns="http://www.w3.org/2000/svg" viewBox="0 0 35.986 48">
  <g id="Icons">
    <g id="_158" data-name="158">
      <g>
        <path d="M0,9.993v36.603c0,.776.629,1.404,1.404,1.404h33.177c.776,0,1.404-.629,1.404-1.404V1.404c0-.776-.629-1.404-1.404-1.404H9.981L0,9.993Z" fill="#d9defb"/>
        <path d="M35.981,6.009v40.59c0,.77-.62,1.4-1.4,1.4H1.401C.631,47.999,0,47.369,0,46.599v-4.61L35.981,6.009Z" fill="#c5cced"/>
        <path d="M0,9.993h8.577c.776,0,1.404-.629,1.404-1.404V0L0,9.993Z" fill="#2196f3"/>
      </g>
      <g>
        <g>
          <path d="M12.636,27.24c-.053,0-.107-.012-.158-.037l-2.193-1.078c-.845-.416-1.542-1.107-1.964-1.948l-1.624-3.234c-.088-.177-.017-.391.159-.48.175-.088.391-.019.481.159l1.624,3.234c.352.702.935,1.28,1.64,1.627l2.193,1.078c.177.087.25.301.163.479-.062.126-.189.2-.321.2Z" fill="#455a64"/>
          <path d="M5.595,34.84c-.054,0-.11-.013-.162-.039-.176-.089-.247-.305-.156-.481l1.063-2.092c.613-1.208,1.775-2.071,3.108-2.308l2.774-.495c.196-.035.38.095.415.289.035.195-.095.38-.289.415l-2.774.495c-1.113.198-2.084.919-2.596,1.928l-1.063,2.092c-.063.124-.189.196-.319.196Z" fill="#455a64"/>
          <path d="M8.781,41.804c-.097,0-.194-.04-.265-.117-.133-.146-.122-.372.024-.505l1.176-1.068c.242-.221.369-.535.348-.863l-.098-1.472c-.048-.73.346-1.407,1.005-1.725l2.334-1.127c.179-.085.393-.011.478.167.086.178.011.392-.166.477l-2.334,1.128c-.395.191-.632.597-.602,1.034l.098,1.472c.036.547-.176,1.071-.581,1.44l-1.176,1.068c-.068.062-.154.093-.24.093Z" fill="#455a64"/>
          <path d="M23.35,27.24c-.132,0-.259-.073-.321-.2-.087-.177-.015-.392.163-.479l2.193-1.078c.706-.347,1.288-.925,1.64-1.627l1.624-3.234c.089-.178.305-.247.481-.159.176.089.247.304.159.48l-1.624,3.234c-.422.84-1.12,1.532-1.964,1.948l-2.193,1.078c-.051.025-.105.037-.158.037Z" fill="#455a64"/>
          <path d="M30.39,34.84c-.13,0-.256-.072-.319-.196l-1.063-2.092c-.513-1.009-1.483-1.73-2.597-1.928l-2.773-.495c-.194-.035-.324-.22-.289-.415.035-.195.218-.324.415-.289l2.773.495c1.333.238,2.496,1.101,3.109,2.308l1.062,2.092c.09.176.019.392-.156.481-.052.026-.108.039-.162.039Z" fill="#455a64"/>
          <path d="M27.205,41.804c-.086,0-.172-.031-.24-.093l-1.176-1.068c-.405-.369-.617-.893-.581-1.439l.098-1.473c.029-.437-.207-.843-.602-1.034l-2.334-1.128c-.177-.086-.252-.3-.166-.477.086-.179.3-.252.478-.167l2.334,1.127c.659.318,1.053.996,1.005,1.725l-.098,1.472c-.022.328.105.642.348.863l1.176,1.068c.147.133.157.359.024.505-.071.078-.168.117-.265.117Z" fill="#455a64"/>
          <g>
            <path d="M20.678,20.122c-.065,0-.131-.024-.182-.071-.108-.101-.115-.27-.015-.379l.757-.818c.423-.457.954-.816,1.537-1.038.743-.283,1.375-.816,1.781-1.5l.277-.466c.075-.128.239-.168.367-.094.127.076.169.24.094.368l-.277.466c-.467.788-1.195,1.401-2.05,1.727-.506.193-.968.504-1.334.901l-.757.818c-.053.057-.125.086-.197.086Z" fill="#384c54"/>
            <path d="M15.307,20.122c-.072,0-.144-.029-.197-.086l-.757-.818c-.367-.397-.829-.708-1.334-.901-.855-.326-1.584-.94-2.05-1.727l-.277-.466c-.075-.127-.033-.292.094-.368.128-.073.293-.033.367.094l.277.466c.406.684,1.038,1.217,1.781,1.5.583.222,1.114.582,1.537,1.038l.757.818c.101.109.094.279-.015.379-.052.048-.117.071-.182.071Z" fill="#384c54"/>
          </g>
          <path d="M23.927,22.194c0,2.461-2.654,4.457-5.938,4.457s-5.93-1.996-5.93-4.457,2.654-4.457,5.93-4.457,5.938,1.996,5.938,4.457Z" fill="#455a64"/>
          <path d="M26.681,30.714c0,4.915-3.892,8.899-8.692,8.899s-8.685-3.985-8.685-8.899,3.892-8.906,8.685-8.906,8.692,3.992,8.692,8.906Z" fill="#f45558"/>
          <path d="M26.681,30.714c0,4.915-3.892,8.899-8.692,8.899s-8.685-3.985-8.685-8.899,3.892-8.906,8.685-8.906,8.692,3.992,8.692,8.906Z" fill="#f45558"/>
          <g>
            <path d="M21.783,24.507c0,.506-.4.906-.906.906s-.932-.4-.932-.906.426-.932.932-.932.906.426.906.932Z" fill="#fff"/>
            <path d="M24.969,27.792c0,.506-.4.906-.906.906s-.932-.4-.932-.906.426-.932.932-.932.906.426.906.932Z" fill="#fff"/>
            <path d="M21.074,30.487c0,.506-.4.906-.906.906s-.932-.4-.932-.906.426-.932.932-.932.906.426.906.932Z" fill="#fff"/>
            <path d="M25.182,32.939c0,.506-.4.906-.906.906s-.932-.4-.932-.906.426-.932.932-.932.906.426.906.932Z" fill="#fff"/>
            <path d="M21.606,36.467c0,.506-.4.906-.906.906s-.932-.4-.932-.906.426-.932.932-.932.906.426.906.932Z" fill="#fff"/>
            <path d="M14.245,24.507c0,.506.4.906.906.906s.932-.4.932-.906-.426-.932-.932-.932-.906.426-.906.932Z" fill="#fff"/>
            <path d="M11.059,27.792c0,.506.4.906.906.906s.932-.4.932-.906-.426-.932-.932-.932-.906.426-.906.932Z" fill="#fff"/>
            <path d="M14.954,30.487c0,.506.4.906.906.906s.932-.4.932-.906-.426-.932-.932-.932-.906.426-.906.932Z" fill="#fff"/>
            <path d="M10.846,32.939c0,.506.4.906.906.906s.932-.4.932-.906-.426-.932-.932-.932-.906.426-.906.932Z" fill="#fff"/>
            <path d="M14.423,36.467c0,.506.4.906.906.906s.932-.4.932-.906-.426-.932-.932-.932-.906.426-.906.932Z" fill="#fff"/>
          </g>
          <g>
            <path d="M21.749,19.834c-.161.456-.85.629-1.531.388-.688-.244-1.108-.808-.947-1.265.162-.457.846-.638,1.534-.395.681.241,1.106.815.944,1.272Z" fill="#fff"/>
            <path d="M14.237,19.834c.162.456.85.629,1.531.388.688-.244,1.108-.808.947-1.265-.162-.457-.846-.638-1.534-.395-.681.241-1.106.815-.944,1.272Z" fill="#fff"/>
          </g>
        </g>
        <path d="M18.747,39.577c-.25.021-.501.036-.758.036-.25,0-.508-.014-.751-.036l.744-14.93.765,14.93Z" fill="#384c54"/>
      </g>
    </g>
  </g>
</svg>