<?xml version="1.0" encoding="UTF-8"?>
<svg id="Layer_2" data-name="Layer 2" xmlns="http://www.w3.org/2000/svg" viewBox="0 0 48.011 47.921">
  <g id="Icons">
    <g id="_146" data-name="146">
      <path d="M26.083,16.539v29.021c0,1.304-1.057,2.361-2.361,2.361H4.844c-1.304,0-2.361-1.057-2.361-2.361v-29.021h23.6Z" fill="#d9defb"/>
      <path d="M26.083,14.285v10.329c-2.871,3.29-7.09,5.364-11.8,5.364s-8.929-2.074-11.8-5.364v-10.329h23.6Z" fill="#c5cced"/>
      <rect x="7.004" y="16.539" width="14.557" height="31.382" fill="#455a64"/>
      <path d="M21.562,16.535v11.65c-2.17,1.14-4.65,1.79-7.28,1.79s-5.11-.65-7.28-1.79v-11.65h14.56Z" fill="#384c54"/>
      <path d="M28.566,14.283c0,7.897-6.396,14.293-14.283,14.293S0,22.18,0,14.283,6.396,0,14.283,0s14.283,6.396,14.283,14.283Z" fill="#d9defb"/>
      <path d="M25.368,14.284c0,6.13-4.964,11.094-11.086,11.094S3.197,20.414,3.197,14.284,8.161,3.198,14.283,3.198s11.086,4.964,11.086,11.086Z" fill="#2196f3"/>
      <path d="M22.843,7.235c-1.91-1.57-4.36-2.51-7.03-2.51-6.12,0-11.08,4.97-11.08,11.09,0,2.68.95,5.14,2.53,7.05-2.48-2.03-4.07-5.12-4.07-8.58,0-6.12,4.97-11.09,11.09-11.09,3.44,0,6.52,1.57,8.56,4.04Z" fill="#1792e5"/>
      <path d="M21.793,14.285c0,4.153-3.363,7.516-7.51,7.516s-7.51-3.363-7.51-7.516,3.363-7.511,7.51-7.511,7.51,3.363,7.51,7.511Z" fill="#455a64"/>
      <path d="M17.797,14.287c0,1.943-1.574,3.517-3.514,3.517s-3.514-1.574-3.514-3.517,1.574-3.514,3.514-3.514,3.514,1.574,3.514,3.514Z" fill="#384c54"/>
      <path d="M11.85,32.374c0,1.042-.842,1.884-1.884,1.884s-1.884-.842-1.884-1.884.842-1.884,1.884-1.884,1.884.842,1.884,1.884Z" fill="#f45558"/>
      <path d="M11.85,38.226c0,1.042-.842,1.884-1.884,1.884s-1.884-.842-1.884-1.884.842-1.884,1.884-1.884,1.884.842,1.884,1.884Z" fill="#5bb774"/>
      <path d="M13.36,11.272c0,.632-.513,1.158-1.158,1.158-.632,0-1.158-.526-1.158-1.158,0-.645.526-1.171,1.158-1.171.645,0,1.158.526,1.158,1.171Z" fill="#fff"/>
      <path d="M13.239,13.803c0,.338-.274.619-.619.619-.338,0-.619-.281-.619-.619,0-.345.281-.626.619-.626.345,0,.619.282.619.626Z" fill="#fff"/>
      <path d="M14.991,12.384c0,.273-.222.501-.501.501-.273,0-.501-.228-.501-.501,0-.279.228-.507.501-.507.279,0,.501.228.501.507Z" fill="#fff"/>
      <path d="M2.483,27.375v12.14H.819c-.451,0-.816-.365-.816-.816v-10.508c0-.451.365-.816.816-.816h1.664Z" fill="#455a64"/>
      <rect x="26.083" y="29.073" width="2.48" height="9.184" fill="#455a64"/>
      <rect x="28.563" y="23.648" width="19.448" height="20.034" rx="1.116" ry="1.116" fill="#c5cced"/>
    </g>
  </g>
</svg>