<?xml version="1.0" encoding="UTF-8"?>
<svg id="Layer_2" data-name="Layer 2" xmlns="http://www.w3.org/2000/svg" viewBox="0 0 48 36.243">
  <g id="Icons">
    <g id="_199" data-name="199">
      <path d="M10.998,4.131v1.558h-6.137v-1.558c0-.332.269-.602.601-.602h4.934c.332,0,.602.269.602.602Z" fill="#455a64"/>
      <rect x="0" y="5.689" width="48" height="30.554" rx="1.765" ry="1.765" fill="#d9defb"/>
      <path d="M30.442,36.011c-8.296,0-15.045-6.749-15.045-15.045s6.749-15.045,15.045-15.045,15.045,6.749,15.045,15.045-6.749,15.045-15.045,15.045Z" fill="#c5cced"/>
      <rect y="12.041" width="47.93" height="17.85" fill="#455a64"/>
      <path d="M45.49,20.963c0,3.34-1.1,6.43-2.94,8.93h-24.21c-1.84-2.5-2.94-5.59-2.94-8.93s1.1-6.42,2.94-8.92h24.21c1.84,2.5,2.94,5.59,2.94,8.92Z" fill="#384c54"/>
      <circle cx="30.442" cy="20.966" r="13.045" transform="translate(-5.731 13.366) rotate(-22.69)" fill="#455a64"/>
      <circle cx="30.442" cy="20.966" r="10.223" transform="translate(4.785 47.574) rotate(-80.597)" fill="#384c54"/>
      <path d="M35.003,20.966c0,2.52-2.041,4.561-4.561,4.561s-4.561-2.041-4.561-4.561,2.041-4.561,4.561-4.561,4.561,2.041,4.561,4.561Z" fill="#2b3d42"/>
      <path d="M28.943,16.816c0,.758-.618,1.39-1.39,1.39-.758,0-1.376-.632-1.376-1.39s.618-1.39,1.376-1.39c.772,0,1.39.632,1.39,1.39Z" fill="#fff"/>
      <path d="M29.495,19.462c0,.424-.346.778-.778.778-.424,0-.77-.353-.77-.778s.346-.778.77-.778c.432,0,.778.353.778.778Z" fill="#fff"/>
      <rect x="4.32" y="7.644" width="5.46" height="2.82" rx=".376" ry=".376" fill="#f45558"/>
      <path d="M36.936,1.247l1.656,4.442h-18.955l1.656-4.442c.28-.75.996-1.247,1.796-1.247h12.051c.8,0,1.517.497,1.796,1.247Z" fill="#455a64"/>
      <polygon points="20.151 4.309 19.637 5.689 38.592 5.689 38.077 4.309 20.151 4.309" fill="#384c54"/>
      <path d="M34.251,2.849c0,.566-.468,1.042-1.042,1.042h-8.19c-.566,0-1.042-.476-1.042-1.042,0-.574.476-1.05,1.042-1.05h8.19c.574,0,1.042.476,1.042,1.05Z" fill="#d9defb"/>
    </g>
  </g>
</svg>