<?xml version="1.0" encoding="UTF-8"?>
<svg id="Layer_2" data-name="Layer 2" xmlns="http://www.w3.org/2000/svg" viewBox="0 0 43.336 48">
  <g id="Icons">
    <g id="_243" data-name="243">
      <g>
        <path d="M26.25,10.495c.341.355.341.942,0,1.297-.369.341-.942.341-1.297,0-1.816-1.816-4.752-1.816-6.569,0-.355.341-.929.341-1.297,0-.355-.355-.355-.942,0-1.297,2.526-2.526,6.637-2.526,9.164,0Z" fill="#f45558"/>
        <path d="M32.327,5.702c-.355.369-.942.369-1.297,0C25.867.553,17.468.553,12.293,5.702c-.341.369-.929.369-1.284,0-.355-.355-.355-.929,0-1.297,5.872-5.872,15.446-5.872,21.318,0,.355.369.355.942,0,1.297Z" fill="#f45558"/>
        <path d="M29.282,7.45c.355.369.355.942,0,1.298-.355.369-.942.369-1.297,0-3.482-3.496-9.15-3.496-12.646,0-.355.369-.929.355-1.297,0-.355-.355-.355-.929,0-1.298,4.206-4.193,11.048-4.193,15.241,0Z" fill="#f45558"/>
      </g>
      <g>
        <g>
          <path d="M43.28,25.638c0,.596-.246,1.14-.637,1.53-.39.39-.924.637-1.53.637h-3.604c-.144,0-.267-.123-.267-.277v-1.89c0-1.201.965-2.167,2.167-2.167h1.705c1.201,0,2.167.965,2.167,2.167Z" fill="#2196f3"/>
          <path d="M.055,25.638c0,.596.246,1.14.637,1.53.39.39.924.637,1.53.637h3.604c.144,0,.267-.123.267-.277v-1.89c0-1.201-.965-2.167-2.167-2.167h-1.705c-1.201,0-2.167.965-2.167,2.167Z" fill="#2196f3"/>
        </g>
        <g>
          <path d="M41.238,27.796c-.038.009-.085.009-.123.009h-3.608c-.142,0-.264-.123-.264-.283v-1.889c0-.812.444-1.521,1.105-1.889l.472,2.862c.935.113,1.776.557,2.418,1.19Z" fill="#1792e5"/>
          <path d="M6.092,25.633v1.889c0,.16-.123.283-.264.283h-3.608c-.038,0-.085,0-.123-.009.633-.633,1.473-1.077,2.418-1.19l.472-2.862c.661.368,1.105,1.077,1.105,1.889Z" fill="#1792e5"/>
        </g>
        <path d="M36.096,15.838l1.917,11.689H5.322l1.917-11.689c.185-1.129,1.161-1.958,2.305-1.958h24.246c1.144,0,2.12.829,2.305,1.958Z" fill="#2196f3"/>
        <polygon points="5.665 25.439 5.322 27.527 38.013 27.527 37.671 25.439 5.665 25.439" fill="#1792e5"/>
        <path d="M35.759,25.435H7.574l1.53-9.294c.038-.217.217-.368.444-.368h24.246c.217,0,.406.151.434.368l1.53,9.294Z" fill="#d9defb"/>
        <path d="M43.336,39.981h0c0,.965-.782,1.747-1.747,1.747H1.747c-.965,0-1.747-.782-1.747-1.747h0c0-.965.782-1.747,1.747-1.747h39.841c.965,0,1.747.782,1.747,1.747Z" fill="#d9defb"/>
        <path d="M41.503,30.715v7.519H1.833v-7.519c0-1.761,1.427-3.188,3.188-3.188h33.294c1.761,0,3.188,1.427,3.188,3.188Z" fill="#2196f3"/>
        <rect x="1.833" y="36.552" width="39.671" height="1.681" fill="#1792e5"/>
        <g>
          <g>
            <path d="M10.924,41.728v4.938c0,.737-.597,1.334-1.334,1.334h-4.548c-.737,0-1.334-.597-1.334-1.334v-4.938h7.216Z" fill="#455a64"/>
            <rect x="3.708" y="41.728" width="7.216" height="1.634" fill="#384c54"/>
          </g>
          <g>
            <path d="M39.628,41.728v4.938c0,.737-.597,1.334-1.334,1.334h-4.548c-.737,0-1.334-.597-1.334-1.334v-4.938h7.216Z" fill="#455a64"/>
            <rect x="32.412" y="41.728" width="7.216" height="1.634" fill="#384c54"/>
          </g>
        </g>
        <g>
          <path d="M4.928,32.88c0,1.607,1.301,2.907,2.907,2.907s4.884-1.301,4.884-2.907-3.277-2.907-4.884-2.907-2.907,1.301-2.907,2.907Z" fill="#d9defb"/>
          <path d="M38.408,32.88c0,1.607-1.301,2.907-2.907,2.907s-4.884-1.301-4.884-2.907,3.277-2.907,4.884-2.907,2.907,1.301,2.907,2.907Z" fill="#d9defb"/>
        </g>
        <g>
          <path d="M7.835,36.26c-1.864,0-3.38-1.516-3.38-3.38s1.516-3.38,3.38-3.38c1.59,0,5.356,1.312,5.356,3.38s-3.766,3.38-5.356,3.38ZM7.835,30.445c-1.342,0-2.435,1.092-2.435,2.435s1.093,2.435,2.435,2.435c1.543,0,4.411-1.252,4.411-2.435s-2.869-2.435-4.411-2.435Z" fill="#118dd3"/>
          <path d="M35.501,36.26c-1.59,0-5.356-1.312-5.356-3.38s3.766-3.38,5.356-3.38c1.864,0,3.38,1.516,3.38,3.38s-1.516,3.38-3.38,3.38ZM35.501,30.445c-1.543,0-4.411,1.252-4.411,2.435s2.869,2.435,4.411,2.435c1.343,0,2.435-1.093,2.435-2.435s-1.092-2.435-2.435-2.435Z" fill="#118dd3"/>
        </g>
        <g>
          <rect x="18.106" y="30.764" width="1.276" height="4.631" fill="#455a64"/>
          <rect x="22.004" y="30.764" width="1.276" height="4.631" fill="#455a64"/>
          <rect x="20.055" y="30.764" width="1.276" height="4.631" fill="#455a64"/>
          <path d="M28.191,30.764h-2.29v4.631h.115c.178,0,.335-.094.429-.24l2.174-3.638c.199-.335-.042-.753-.429-.753Z" fill="#455a64"/>
          <rect x="23.953" y="30.764" width="1.276" height="4.631" fill="#455a64"/>
          <path d="M17.434,30.764h-2.289c-.387,0-.627.418-.429.753l2.174,3.638c.094.146.251.24.429.24h.115v-4.631Z" fill="#455a64"/>
        </g>
        <polygon points="22.526 15.768 11.645 25.431 7.574 25.431 7.678 24.817 17.87 15.768 22.526 15.768" fill="#fff"/>
        <polygon points="26.9 15.768 16.019 25.431 13.695 25.431 24.576 15.768 26.9 15.768" fill="#fff"/>
      </g>
    </g>
  </g>
</svg>