<?xml version="1.0" encoding="UTF-8"?>
<svg id="Layer_2" data-name="Layer 2" xmlns="http://www.w3.org/2000/svg" viewBox="0 0 48 42.414">
  <g id="Icons">
    <g id="_191" data-name="191">
      <path d="M29.197,4.654C22.996-1.548,12.934-1.555,6.725,4.654.517,10.862.524,20.924,6.725,27.125c6.209,6.208,16.271,6.216,22.479.007s6.201-16.271-.007-22.479ZM14.946,18.907c-1.666-1.666-1.666-4.366,0-6.033,1.666-1.666,4.366-1.666,6.032,0s1.672,4.372.006,6.038c-1.666,1.666-4.366,1.666-6.038-.006Z" fill="#d9defb"/>
      <path d="M4.948,24.984c.525.75,1.108,1.472,1.778,2.141,6.209,6.208,16.271,6.216,22.479.007.672-.672,1.257-1.396,1.783-2.149H4.948Z" fill="#c5cced"/>
      <path d="M12.34,17.636l-8.549,5.452c.735,1.457,1.718,2.821,2.934,4.038,1.223,1.223,2.595,2.199,4.059,2.942l5.445-8.542-3.889-3.889ZM23.597,14.157l8.542-5.445c-.743-1.464-1.718-2.835-2.942-4.059-1.216-1.216-2.581-2.199-4.038-2.935l-5.452,8.549,3.889,3.889Z" fill="#c5cced"/>
      <path d="M22.713,11.138c-2.623-2.623-6.88-2.623-9.503,0s-2.623,6.88,0,9.504c2.63,2.63,6.887,2.63,9.511.007s2.623-6.88-.007-9.511ZM14.946,18.907c-1.666-1.666-1.666-4.366,0-6.033,1.666-1.666,4.366-1.666,6.032,0s1.672,4.372.006,6.038c-1.666,1.666-4.366,1.666-6.038-.006Z" fill="#c5cced"/>
      <g>
        <g>
          <polygon points="7.734 40.694 6.663 42.414 3.422 42.414 3.422 40.694 7.734 40.694" fill="#455a64"/>
          <polygon points="40.266 40.694 41.337 42.414 44.578 42.414 44.578 40.694 40.266 40.694" fill="#455a64"/>
        </g>
        <rect y="26.444" width="48" height="14.25" rx="1.172" ry="1.172" fill="#ffd54f"/>
        <rect x="3.282" y="37.325" width="3.199" height="1.435" fill="#f2c341"/>
        <rect x="8.005" y="37.325" width="3.199" height="1.435" fill="#f2c341"/>
        <rect x="12.728" y="37.325" width="3.199" height="1.435" fill="#f2c341"/>
        <rect x="20.937" y="37.325" width="3.199" height="1.435" fill="#f2c341"/>
        <rect x="25.66" y="37.325" width="3.199" height="1.435" fill="#f2c341"/>
        <path d="M36.98,33.874c0,1.819-1.466,3.286-3.286,3.286s-3.286-1.466-3.286-3.286c0-1.809,1.466-3.286,3.286-3.286s3.286,1.477,3.286,3.286Z" fill="#f2c341"/>
        <rect x="2.07" y="28.753" width="27.11" height="5.78" rx=".749" ry=".749" fill="#455a64"/>
        <rect x="2.07" y="28.753" width="27.11" height="5.78" rx=".749" ry=".749" fill="#455a64"/>
        <rect x="2.07" y="30.973" width="27.11" height=".67" fill="#384c54"/>
        <rect x="2.98" y="37.023" width="3.199" height="1.435" fill="#f45558"/>
        <rect x="7.703" y="37.023" width="3.199" height="1.435" fill="#f45558"/>
        <rect x="12.426" y="37.023" width="3.199" height="1.435" fill="#f45558"/>
        <circle cx="33.421" cy="33.601" r="3.286" fill="#fff"/>
        <path d="M35.496,33.601c0,1.149-.926,2.075-2.075,2.075s-2.075-.926-2.075-2.075c0-1.142.926-2.075,2.075-2.075s2.075.933,2.075,2.075Z" fill="#d9defb"/>
        <rect x="20.635" y="37.023" width="3.199" height="1.435" fill="#fff"/>
        <rect x="25.358" y="37.023" width="3.199" height="1.435" fill="#fff"/>
        <g>
          <rect x="38.533" y="29.976" width="2.642" height="1.106" fill="#455a64"/>
          <rect x="42.002" y="29.976" width="4.267" height="1.106" fill="#455a64"/>
          <rect x="38.533" y="32.065" width="5.349" height="1.106" fill="#455a64"/>
          <rect x="44.709" y="32.065" width="1.56" height="1.106" fill="#455a64"/>
          <rect x="38.533" y="33.966" width="2.642" height="1.106" fill="#455a64"/>
          <rect x="42.002" y="33.966" width="4.267" height="1.106" fill="#455a64"/>
          <rect x="38.533" y="36.055" width="5.349" height="1.106" fill="#455a64"/>
          <rect x="44.709" y="36.055" width="1.56" height="1.106" fill="#455a64"/>
        </g>
      </g>
    </g>
  </g>
</svg>