<?xml version="1.0" encoding="UTF-8"?>
<svg id="Layer_2" data-name="Layer 2" xmlns="http://www.w3.org/2000/svg" viewBox="0 0 26.752 48.021">
  <g id="Icons">
    <g id="_5" data-name="5">
      <g>
        <rect x="12.267" y="9.386" width="2.218" height="4.735" fill="#d9defb"/>
        <path d="M4.713,46.287l-.693-1.483,15.226-7.113-12.43-7.422c-.24-.144-.39-.4-.398-.68-.007-.28.129-.544.36-.701l10.057-6.786-7.528-6.388,1.059-1.248,8.35,7.086c.195.166.301.413.288.669-.014.256-.147.49-.359.633l-9.883,6.669,12.648,7.552c.26.155.412.442.397.744s-.196.572-.471.7l-16.624,7.766Z" fill="#c5cced"/>
        <path d="M22.004,46.287l-16.62-7.766c-.275-.128-.456-.398-.471-.7-.015-.303.137-.589.397-.744l12.65-7.552-9.881-6.669c-.212-.143-.345-.378-.359-.633-.014-.256.093-.503.288-.669l8.353-7.086,1.059,1.248-7.531,6.388,10.055,6.786c.231.157.368.421.36.701-.008.28-.159.536-.398.68l-12.432,7.422,15.222,7.113-.692,1.483Z" fill="#c5cced"/>
        <rect x="12.577" y="14.667" width="1.597" height="31.949" fill="#d9defb"/>
        <polygon points="21.746 46.617 16.23 15.909 10.521 15.909 5.005 46.617 3.394 46.327 9.153 14.273 17.598 14.273 23.357 46.327 21.746 46.617" fill="#d9defb"/>
        <path d="M26.752,46.166v1.854H0v-1.854c0-.687.557-1.244,1.244-1.244h24.264c.687,0,1.244.557,1.244,1.244Z" fill="#455a64"/>
        <rect x="7.585" y="13.586" width="11.582" height="2.357" fill="#455a64"/>
        <path d="M16.218,8.524c0,1.569-1.277,2.837-2.837,2.837-1.569,0-2.846-1.268-2.846-2.837s1.277-2.846,2.846-2.846c1.56,0,2.837,1.277,2.837,2.846Z" fill="#f45558"/>
        <g>
          <g>
            <path d="M20.81,14.456c-.281.281-.729.281-1.01,0-.281-.272-.281-.729,0-1.01,2.724-2.715,2.724-7.135,0-9.859-.281-.281-.272-.729,0-1.01.281-.281.729-.281,1.01,0,3.277,3.277,3.277,8.611,0,11.879Z" fill="#2196f3"/>
            <path d="M18.438,12.093c-.272.272-.729.272-1.01,0-.272-.281-.272-.738,0-1.01,1.415-1.415,1.415-3.708,0-5.123-.272-.281-.272-.729,0-1.011.281-.281.738-.281,1.01,0,1.968,1.968,1.968,5.175,0,7.144Z" fill="#2196f3"/>
            <path d="M23.183,16.828c-.281.281-.729.281-1.01,0-.281-.272-.281-.729,0-1.011,4.024-4.024,4.024-10.57,0-14.603-.281-.272-.281-.729,0-1.01.281-.272.729-.272,1.01,0,4.587,4.587,4.587,12.046,0,16.624Z" fill="#2196f3"/>
          </g>
          <g>
            <path d="M5.941,14.456c.281.281.729.281,1.01,0,.281-.272.281-.729,0-1.01-2.724-2.715-2.724-7.135,0-9.859.281-.281.272-.729,0-1.01-.281-.281-.729-.281-1.01,0-3.277,3.277-3.277,8.611,0,11.879Z" fill="#2196f3"/>
            <path d="M8.314,12.093c.272.272.729.272,1.01,0,.272-.281.272-.738,0-1.01-1.415-1.415-1.415-3.708,0-5.123.272-.281.272-.729,0-1.011-.281-.281-.738-.281-1.01,0-1.968,1.968-1.968,5.175,0,7.144Z" fill="#2196f3"/>
            <path d="M3.569,16.828c.281.281.729.281,1.01,0,.281-.272.281-.729,0-1.011C.555,11.794.555,5.248,4.58,1.215c.281-.272.281-.729,0-1.01-.281-.272-.729-.272-1.01,0C-1.017,4.791-1.017,12.251,3.569,16.828Z" fill="#2196f3"/>
          </g>
        </g>
      </g>
    </g>
  </g>
</svg>