<?xml version="1.0" encoding="UTF-8"?>
<svg id="Layer_2" data-name="Layer 2" xmlns="http://www.w3.org/2000/svg" viewBox="0 0 30.903 48">
  <g id="Icons">
    <g id="_79" data-name="79">
      <path d="M27.536,44.812V9.748h-1.347v35.064c0,1.015-.826,1.841-1.84,1.841h-12.64c-1.014,0-1.84-.826-1.84-1.841v-7.195h-1.347v7.195c0,1.758,1.43,3.188,3.188,3.188h12.64c1.758,0,3.188-1.43,3.188-3.188Z" fill="#384c54"/>
      <rect x="24.046" width="5.633" height="5.015" fill="#d9defb"/>
      <g>
        <rect x="25.051" y=".932" width="1.195" height="1.926" fill="#455a64"/>
        <rect x="27.479" y=".932" width="1.195" height="1.926" fill="#455a64"/>
      </g>
      <rect x="25.643" y="3.721" width="2.439" height=".618" fill="#c5cced"/>
      <rect y="13.873" width="18.389" height="18.439" rx="1.572" ry="1.572" fill="#d9defb"/>
      <path d="M16.13,12.407v1.467H2.259v-1.467c0-.613.497-1.109,1.109-1.109h11.653c.613,0,1.109.497,1.109,1.109Z" fill="#c5cced"/>
      <g>
        <path d="M6.147,3.497v7.795h-1.927V3.497c0-.532.431-.963.963-.963h0c.532,0,.963.431.963.963Z" fill="#455a64"/>
        <path d="M14.169,3.497v7.795h-1.927V3.497c0-.532.431-.963.963-.963h0c.532,0,.963.431.963.963Z" fill="#455a64"/>
      </g>
      <g>
        <path d="M6.147,3.497v2.068h-1.927v-2.068c0-.532.431-.963.963-.963h0c.532,0,.963.431.963.963Z" fill="#d9defb"/>
        <path d="M14.169,3.497v2.068h-1.927v-2.068c0-.532.431-.963.963-.963h0c.532,0,.963.431.963.963Z" fill="#d9defb"/>
      </g>
      <path d="M12.242,32.312v5.623c0,.622-.504,1.126-1.126,1.126h-3.843c-.622,0-1.126-.504-1.126-1.126v-5.623h6.096Z" fill="#455a64"/>
      <rect x="22.823" y="5.015" width="8.08" height="8.108" rx=".805" ry=".805" fill="#455a64"/>
      <path d="M26.171,15.134h1.395c1.107,0,2.007-.9,2.007-2.007h-5.42c0,1.107.9,2.007,2.019,2.007Z" fill="#384c54"/>
      <path d="M9.189,30.03c-3.822,0-6.932-3.115-6.932-6.943s3.109-6.932,6.932-6.932,6.943,3.11,6.943,6.932-3.115,6.943-6.943,6.943ZM9.189,17.155c-3.27,0-5.932,2.661-5.932,5.932s2.661,5.943,5.932,5.943,5.943-2.666,5.943-5.943-2.666-5.932-5.943-5.932Z" fill="#f45558"/>
      <polygon points="10.95 19.295 8.666 19.295 7.115 23.099 9.126 23.099 8.104 26.89 11.273 22.31 9.328 22.253 10.95 19.295" fill="#f45558"/>
    </g>
  </g>
</svg>