<?xml version="1.0" encoding="UTF-8"?>
<svg id="Layer_2" data-name="Layer 2" xmlns="http://www.w3.org/2000/svg" viewBox="0 0 48 40.093">
  <g id="Icons">
    <g id="_85" data-name="85">
      <path d="M0,19.152c0,4.157,3.38,7.537,7.537,7.537h32.926c4.173,0,7.537-3.38,7.537-7.537s-3.364-7.537-7.537-7.537c-.159,0-.333,0-.492.016-.079-3.332-2.809-6.014-6.173-6.014-.762,0-1.492.143-2.158.397-1.047-3.475-4.284-6.014-8.108-6.014-3.713,0-6.871,2.396-7.997,5.728-.381-.079-.762-.111-1.158-.111-3.348,0-6.077,2.682-6.157,6.03-.222-.016-.46-.032-.682-.032-4.157,0-7.537,3.38-7.537,7.537Z" fill="#d9defb"/>
      <g>
        <g>
          <path d="M10.786,34.454c0,3.118,5.922,5.639,13.208,5.639s13.219-2.521,13.219-5.639v-6.771H10.786v6.771Z" fill="#f45558"/>
          <path d="M37.213,27.683c0,3.118-5.922,5.639-13.219,5.639s-13.208-2.521-13.208-5.639,5.922-5.639,13.208-5.639,13.219,2.521,13.219,5.639Z" fill="#455a64"/>
          <path d="M35.479,27.683c0,2.355-5.144,4.258-11.484,4.258s-11.474-1.904-11.474-4.258,5.144-4.258,11.474-4.258,11.484,1.904,11.484,4.258Z" fill="#ffd54f"/>
        </g>
        <g>
          <path d="M10.786,24.665c0,3.118,5.922,5.639,13.208,5.639s13.219-2.521,13.219-5.639v-6.771H10.786v6.771Z" fill="#f45558"/>
          <path d="M37.213,17.895c0,3.118-5.922,5.639-13.219,5.639s-13.208-2.521-13.208-5.639,5.922-5.639,13.208-5.639,13.219,2.521,13.219,5.639Z" fill="#455a64"/>
          <path d="M35.479,17.895c0,2.355-5.144,4.258-11.484,4.258s-11.474-1.904-11.474-4.258,5.144-4.258,11.474-4.258,11.484,1.904,11.484,4.258Z" fill="#ffd54f"/>
        </g>
        <g>
          <path d="M13.963,24.145c0,.6-.48,1.08-1.08,1.08s-1.08-.48-1.08-1.08.48-1.08,1.08-1.08,1.08.48,1.08,1.08Z" fill="#d9defb"/>
          <circle cx="15.719" cy="25.586" r="1.08" fill="#d9defb"/>
        </g>
        <g>
          <circle cx="12.884" cy="33.565" r="1.08" fill="#d9defb"/>
          <path d="M16.798,35.006c0,.6-.48,1.08-1.08,1.08s-1.08-.48-1.08-1.08.48-1.08,1.08-1.08,1.08.48,1.08,1.08Z" fill="#d9defb"/>
        </g>
      </g>
    </g>
  </g>
</svg>