<?xml version="1.0" encoding="UTF-8"?>
<svg id="Layer_2" data-name="Layer 2" xmlns="http://www.w3.org/2000/svg" viewBox="0 0 48.005 30.14">
  <g id="Icons">
    <g id="_124" data-name="124">
      <path d="M48,19.833c0,3.66-2.962,6.622-6.622,6.622H6.633c-3.66,0-6.633-2.962-6.633-6.622s2.962-6.611,6.622-6.622c.011-2.624,2.128-4.73,4.753-4.73.293,0,.586.023.867.09C12.704,3.75,16.769,0,21.702,0c4.584,0,8.402,3.243,9.303,7.557.642-.225,1.329-.349,2.05-.349,3.491,0,6.307,2.816,6.318,6.307.631-.192,1.306-.304,2.005-.304,3.66,0,6.622,2.962,6.622,6.622Z" fill="#d9defb"/>
      <path d="M48.005,19.829c0,3.66-2.97,6.63-6.63,6.63H6.635c-1.83,0-3.49-.74-4.69-1.94l36.06-14.92c.86,1.07,1.37,2.43,1.37,3.92.63-.2,1.3-.31,2-.31,3.66,0,6.63,2.96,6.63,6.62Z" fill="#c5cced"/>
      <path d="M33.574,20.573c0,5.29-4.29,9.568-9.58,9.568s-9.568-4.278-9.568-9.568,4.29-9.58,9.568-9.58,9.58,4.29,9.58,9.58Z" fill="#f45558"/>
      <path d="M33.575,20.569c0,5.29-4.29,9.57-9.58,9.57-2.64,0-5.03-1.07-6.76-2.8v-.01l13.53-13.53c1.74,1.73,2.81,4.12,2.81,6.77Z" fill="#e5454d"/>
      <path d="M27.787,21.367l-5.127,3.503c-.639.436-1.505-.021-1.505-.795v-7.019c0-.774.868-1.231,1.506-.794l5.127,3.516c.558.383.557,1.206-.001,1.588Z" fill="#fff"/>
    </g>
  </g>
</svg>