<?xml version="1.0" encoding="UTF-8"?>
<svg id="Layer_2" data-name="Layer 2" xmlns="http://www.w3.org/2000/svg" viewBox="0 0 44.015 48">
  <g id="Icons">
    <g id="_118" data-name="118">
      <path d="M14.263,33.304h3.152v-3.195c0-1.043.407-2.023,1.147-2.763.738-.739,1.72-1.146,2.762-1.146,2.155,0,3.909,1.754,3.909,3.909v3.195h3.152v-3.195c0-3.894-3.168-7.061-7.061-7.061-1.884,0-3.657.735-4.991,2.069-1.335,1.335-2.07,3.108-2.07,4.992v3.195Z" fill="#455a64"/>
      <rect x="12.451" y="33.304" width="17.741" height="14.696" rx="1.227" ry="1.227" fill="#2196f3"/>
      <path d="M35.616,12.196v-.029c0-3.77-3.042-6.812-6.812-6.812-.985,0-1.914.214-2.756.586-1.485-3.499-4.955-5.941-8.997-5.941C11.653,0,7.269,4.384,7.269,9.797c0,.857.114,1.699.343,2.499-4.313.743-7.612,4.513-7.612,9.054,0,5.07,4.113,9.183,9.168,9.183h25.648c5.084,0,9.197-4.113,9.197-9.183,0-4.798-3.684-8.754-8.397-9.154ZM22.292,27.033c-1.314,0-2.385-1.071-2.385-2.385,0-1.328,1.071-2.399,2.385-2.399,1.328,0,2.399,1.071,2.399,2.399,0,1.314-1.071,2.385-2.399,2.385Z" fill="#d9defb"/>
      <path d="M35.615,12.193v-.08L1.685,26.633c1.65,2.36,4.39,3.9,7.48,3.9h25.65c5.09,0,9.2-4.11,9.2-9.18,0-4.8-3.69-8.76-8.4-9.16ZM22.295,27.033c-1.32,0-2.39-1.07-2.39-2.38,0-1.33,1.07-2.4,2.39-2.4,1.33,0,2.4,1.07,2.4,2.4,0,1.31-1.07,2.38-2.4,2.38Z" fill="#c5cced"/>
      <path d="M21.327,24.86h0c0,.672.414,1.307,1.06,1.49,1.637.464,2.843,1.975,2.843,3.757v3.196h3.16v-3.196c0-3.206-2.152-5.924-5.087-6.782-.991-.29-1.977.502-1.977,1.535Z" fill="#455a64"/>
      <g>
        <path d="M22.956,39.5c0,.9-.728,1.628-1.628,1.628s-1.642-.728-1.642-1.628.743-1.628,1.642-1.628,1.628.728,1.628,1.628Z" fill="#455a64"/>
        <polygon points="22.348 40.558 22.723 43.248 19.92 43.248 20.295 40.558 22.348 40.558" fill="#455a64"/>
      </g>
    </g>
  </g>
</svg>