<?xml version="1.0" encoding="UTF-8"?>
<svg id="Layer_2" data-name="Layer 2" xmlns="http://www.w3.org/2000/svg" viewBox="0 0 47.972 41.535">
  <g id="Icons">
    <g id="_110" data-name="110">
      <path d="M47.972,23.272c0,5.526-4.48,10.006-10.028,10.006H9.985c-5.505,0-9.985-4.48-9.985-10.006,0-4.949,3.586-9.058,8.295-9.876-.251-.872-.381-1.788-.381-2.725C7.914,4.774,12.699,0,18.585,0c4.404,0,8.186,2.66,9.799,6.475.926-.403,1.929-.643,3.008-.643,4.109,0,7.423,3.314,7.423,7.423v.033c5.134.436,9.156,4.753,9.156,9.985Z" fill="#d9defb"/>
      <path d="M47.971,23.272c0,5.53-4.48,10.01-10.03,10.01H9.98c-3.37,0-6.35-1.68-8.15-4.25l36.99-15.84v.1c5.13.43,9.15,4.75,9.15,9.98Z" fill="#c5cced"/>
      <g>
        <g>
          <path d="M15.606,23.513h5.2c.306,0,.554.248.554.554v10.552h-6.307v-10.552c0-.306.248-.554.554-.554Z" fill="#f45558"/>
          <path d="M14.292,34.618h7.828c.443,0,.707.495.459.863l-3.914,5.81c-.219.326-.699.326-.918,0l-3.914-5.81c-.248-.368.016-.863.459-.863Z" fill="#f45558"/>
        </g>
        <g>
          <path d="M27.165,41.535h5.2c.306,0,.554-.248.554-.553v-10.552h-6.307v10.552c0,.306.248.553.554.553Z" fill="#2196f3"/>
          <path d="M25.851,30.43h7.828c.443,0,.707-.495.459-.863l-3.914-5.81c-.219-.326-.699-.326-.918,0l-3.914,5.81c-.248.368.016.863.459.863Z" fill="#2196f3"/>
        </g>
      </g>
    </g>
  </g>
</svg>