<?xml version="1.0" encoding="UTF-8"?>
<svg id="Layer_2" data-name="Layer 2" xmlns="http://www.w3.org/2000/svg" viewBox="0 0 48 48">
  <g id="Icons">
    <g id="_162" data-name="162">
      <g>
        <polygon points="14.794 44.348 6.25 44.348 6.25 42.848 13.294 42.848 13.294 25.947 14.794 25.947 14.794 44.348" fill="#455a64"/>
        <path d="M8.642,43.603c0,1.16-.93,2.09-2.09,2.09s-2.1-.93-2.1-2.09.94-2.1,2.1-2.1,2.09.94,2.09,2.1Z" fill="#2196f3"/>
        <polygon points="41.745 44.348 33.202 44.348 33.202 25.947 34.702 25.947 34.702 42.848 41.745 42.848 41.745 44.348" fill="#455a64"/>
        <rect x="27.865" y="25.947" width="1.5" height="19.958" fill="#455a64"/>
        <path d="M39.354,43.603c0,1.16.93,2.09,2.09,2.09s2.1-.93,2.1-2.09-.94-2.1-2.1-2.1-2.09.94-2.09,2.1Z" fill="#5bb774"/>
        <path d="M26.52,45.91c0,1.16.93,2.09,2.09,2.09s2.1-.93,2.1-2.09-.94-2.1-2.1-2.1-2.09.94-2.09,2.1Z" fill="#ffd54f"/>
        <rect x="18.631" y="25.947" width="1.5" height="19.958" fill="#455a64"/>
        <path d="M17.286,45.91c0,1.16.93,2.09,2.09,2.09s2.1-.93,2.1-2.09-.94-2.1-2.1-2.1-2.09.94-2.09,2.1Z" fill="#f45558"/>
      </g>
      <path d="M47.995,22.197c0,4.753-3.846,8.612-8.599,8.612H8.6c-4.753,0-8.6-3.859-8.6-8.612,0-4.092,2.854-7.522,6.676-8.391-.012-.074-.012-.147-.012-.221,0-4.753,3.859-8.599,8.6-8.599,1.2,0,2.34.245,3.369.674,1.899-3.381,5.512-5.659,9.665-5.659,6.137,0,11.098,4.974,11.098,11.099,0,.858-.098,1.691-.282,2.499.098-.012.184-.012.282-.012,4.753,0,8.599,3.859,8.599,8.612Z" fill="#d9defb"/>
      <path d="M48,22.199c0,4.75-3.85,8.61-8.6,8.61H8.6c-3.54,0-6.59-2.15-7.91-5.21l38.48-12c.08-.01.15-.01.23-.01,4.75,0,8.6,3.86,8.6,8.61Z" fill="#c5cced"/>
    </g>
  </g>
</svg>