<?xml version="1.0" encoding="UTF-8"?>
<svg id="Layer_2" data-name="Layer 2" xmlns="http://www.w3.org/2000/svg" viewBox="0 0 47.981 47.971">
  <g id="Icons">
    <g id="_81" data-name="81">
      <g>
        <rect width="41.515" height="41.506" rx="1.968" ry="1.968" fill="#d9defb"/>
        <path d="M41.515,7.048V1.968c0-1.087-.881-1.968-1.968-1.968H1.968C.881,0,0,.881,0,1.968v5.08h41.515Z" fill="#5bb774"/>
        <g>
          <path d="M15.631,21.996l-4.485-3.069c-.132-.088-.229-.177-.291-.265-.062-.088-.093-.194-.093-.317v-.317c0-.124.029-.229.086-.318.058-.088.157-.181.298-.277l4.485-3.056c.097-.08.185-.119.265-.119.079,0,.143.024.192.072.048.049.073.117.073.205v1.019c0,.115-.027.205-.08.271-.053.066-.137.139-.251.219l-3.202,2.142,3.202,2.144c.115.079.199.152.251.218.053.066.08.152.08.259v1.031c0,.079-.027.144-.08.192-.053.048-.115.072-.185.072-.088,0-.177-.035-.265-.105Z" fill="#455a64"/>
          <path d="M17.417,23.861c-.053-.053-.08-.119-.08-.198,0-.053.009-.102.027-.146l4.498-10.809c.035-.071.088-.135.159-.192.07-.057.159-.086.265-.086h.86c.079,0,.145.026.198.079.053.054.08.119.08.199,0,.053-.009.102-.026.146l-4.525,10.809c-.026.07-.073.134-.139.191-.066.058-.157.086-.272.086h-.86c-.071,0-.132-.026-.185-.079Z" fill="#455a64"/>
          <path d="M24.667,22.029c-.053-.049-.08-.113-.08-.192v-1.031c0-.106.026-.192.08-.259.053-.066.136-.139.251-.218l3.202-2.144-3.202-2.142c-.115-.08-.198-.152-.251-.219-.053-.066-.08-.156-.08-.271v-1.019c0-.088.026-.156.08-.205.053-.048.114-.072.185-.072.08,0,.167.039.265.119l4.485,3.056c.141.097.24.19.297.277.058.089.086.194.086.318v.317c0,.123-.031.229-.093.317-.062.088-.159.177-.291.265l-4.485,3.069c-.088.07-.177.105-.265.105-.071,0-.132-.024-.185-.072Z" fill="#455a64"/>
        </g>
        <path d="M15.771,3.869l1.671,3.384H2.848v-2.865c0-.647.525-1.172,1.172-1.172h10.7c.446,0,.853.253,1.051.653Z" fill="#d9defb"/>
        <path d="M38.681,3.533c0,.714-.571,1.285-1.285,1.285s-1.303-.571-1.303-1.285.589-1.303,1.303-1.303,1.285.589,1.285,1.303Z" fill="#fff"/>
        <path d="M35.076,3.533c0,.714-.571,1.285-1.285,1.285s-1.303-.571-1.303-1.285.589-1.303,1.303-1.303,1.285.589,1.285,1.303Z" fill="#ffd54f"/>
      </g>
      <path d="M47.633,33.59l-1.779-.34c-.162-.031-.286-.155-.325-.317-.255-1.052-.673-2.035-1.222-2.932-.085-.147-.085-.317.008-.457l1.021-1.508c.116-.17.093-.402-.046-.542l-1.973-1.965c-.147-.147-.371-.162-.542-.054l-1.508,1.021c-.139.093-.309.093-.456.008-.89-.549-1.88-.959-2.932-1.214-.162-.039-.286-.163-.317-.325l-.333-1.787c-.039-.201-.217-.348-.425-.348h-2.785c-.201,0-.379.147-.418.348l-.34,1.787c-.031.162-.155.286-.317.325-1.052.255-2.042.673-2.932,1.214-.147.085-.317.085-.456-.008l-1.501-1.013c-.17-.116-.402-.101-.541.046l-1.973,1.965c-.139.147-.162.371-.054.542l1.021,1.508c.093.139.101.309.008.457-.541.89-.959,1.88-1.215,2.932-.039.163-.162.286-.325.317l-1.787.34c-.201.039-.348.217-.348.418v2.785c0,.201.147.379.348.418l1.787.34c.162.031.286.155.325.317.255,1.052.673,2.042,1.215,2.932.093.147.085.317-.008.457l-1.021,1.508c-.108.17-.085.395.054.542l1.973,1.965c.139.147.371.163.541.046l1.501-1.013c.139-.093.309-.093.456-.008.89.541,1.88.959,2.932,1.214.162.039.286.163.317.325l.34,1.787c.039.201.217.348.418.348h2.785c.209,0,.387-.147.425-.348l.333-1.787c.031-.162.155-.286.317-.325,1.052-.255,2.042-.665,2.932-1.214.147-.085.317-.085.456.008l1.508,1.021c.17.108.395.093.542-.054l1.973-1.965c.139-.139.162-.371.046-.542l-1.021-1.508c-.093-.139-.093-.309-.008-.457.549-.897.967-1.88,1.222-2.932.039-.163.162-.286.325-.317l1.779-.34c.201-.039.348-.217.348-.418v-2.785c0-.201-.147-.379-.348-.418ZM35.41,40.382c-2.756,0-4.988-2.226-4.988-4.982s2.232-4.982,4.988-4.982,4.988,2.226,4.988,4.982-2.237,4.982-4.988,4.982Z" fill="#f45558"/>
    </g>
  </g>
</svg>