<?xml version="1.0" encoding="UTF-8"?>
<svg id="Layer_2" data-name="Layer 2" xmlns="http://www.w3.org/2000/svg" xmlns:xlink="http://www.w3.org/1999/xlink" viewBox="0 0 72.693 53.04">
  <defs>
    <clipPath id="clippath">
      <path d="M51.221,22.25c0,6.148-4.985,11.132-11.142,11.132s-11.132-4.985-11.132-11.132,4.985-11.132,11.132-11.132,11.142,4.985,11.142,11.132Z" fill="none"/>
    </clipPath>
  </defs>
  <g id="Icons">
    <g id="_37" data-name="37">
      <g>
        <g>
          <rect x="17.834" width="1.081" height="2.608" fill="#2196f3"/>
          <rect x="17.834" y="4.531" width="1.081" height="1.922" fill="#2196f3"/>
          <rect x="17.834" y="36.242" width="1.081" height="1.922" fill="#455a64"/>
          <rect x="17.834" y="28.555" width="1.081" height="5.766" fill="#2196f3"/>
          <rect x="17.834" y="25.672" width="1.081" height="1.922" fill="#455a64"/>
          <rect x="17.834" y="17.984" width="1.081" height="5.766" fill="#455a64"/>
          <rect x="17.834" y="15.101" width="1.081" height="1.922" fill="#455a64"/>
          <rect x="17.834" y="7.413" width="1.081" height="5.766" fill="#455a64"/>
          <rect x="17.834" y="39.125" width="1.081" height="2.608" fill="#455a64"/>
        </g>
        <g>
          <rect x="22.916" width="1.081" height="1.304" fill="#455a64"/>
          <rect x="22.916" y="2.259" width="1.081" height="4.771" fill="#455a64"/>
          <rect x="22.916" y="33.75" width="1.081" height="4.771" fill="#455a64"/>
          <rect x="22.916" y="29.933" width="1.081" height="2.863" fill="#2196f3"/>
          <rect x="22.916" y="23.253" width="1.081" height="4.771" fill="#455a64"/>
          <rect x="22.916" y="19.436" width="1.081" height="2.863" fill="#455a64"/>
          <rect x="22.916" y="12.756" width="1.081" height="4.771" fill="#455a64"/>
          <rect x="22.916" y="8.939" width="1.081" height="2.863" fill="#455a64"/>
          <rect x="22.916" y="40.429" width="1.081" height="1.304" fill="#455a64"/>
        </g>
        <g>
          <rect x="27.997" width="1.081" height="2.608" fill="#455a64"/>
          <rect x="27.997" y="4.531" width="1.081" height="1.922" fill="#2196f3"/>
          <rect x="27.997" y="36.242" width="1.081" height="1.922" fill="#455a64"/>
          <rect x="27.997" y="28.555" width="1.081" height="5.766" fill="#2196f3"/>
          <rect x="27.997" y="25.672" width="1.081" height="1.922" fill="#455a64"/>
          <rect x="27.997" y="17.984" width="1.081" height="5.766" fill="#455a64"/>
          <rect x="27.997" y="15.101" width="1.081" height="1.922" fill="#455a64"/>
          <rect x="27.997" y="7.413" width="1.081" height="5.766" fill="#2196f3"/>
          <rect x="27.997" y="39.125" width="1.081" height="2.608" fill="#455a64"/>
        </g>
        <g>
          <rect x="33.079" width="1.081" height="1.304" fill="#455a64"/>
          <rect x="33.079" y="2.259" width="1.081" height="4.771" fill="#455a64"/>
          <rect x="33.079" y="33.75" width="1.081" height="4.771" fill="#455a64"/>
          <rect x="33.079" y="29.933" width="1.081" height="2.863" fill="#455a64"/>
          <rect x="33.079" y="23.253" width="1.081" height="4.771" fill="#2196f3"/>
          <rect x="33.079" y="19.436" width="1.081" height="2.863" fill="#455a64"/>
          <rect x="33.079" y="12.756" width="1.081" height="4.771" fill="#455a64"/>
          <rect x="33.079" y="8.939" width="1.081" height="2.863" fill="#455a64"/>
          <rect x="33.079" y="40.429" width="1.081" height="1.304" fill="#455a64"/>
        </g>
        <g>
          <rect x="38.16" width="1.081" height="2.608" fill="#455a64"/>
          <rect x="38.16" y="4.531" width="1.081" height="1.922" fill="#455a64"/>
          <rect x="38.16" y="36.242" width="1.081" height="1.922" fill="#455a64"/>
          <rect x="38.16" y="28.555" width="1.081" height="5.766" fill="#455a64"/>
          <rect x="38.16" y="25.672" width="1.081" height="1.922" fill="#455a64"/>
          <rect x="38.16" y="17.984" width="1.081" height="5.766" fill="#2196f3"/>
          <rect x="38.16" y="15.101" width="1.081" height="1.922" fill="#2196f3"/>
          <rect x="38.16" y="7.413" width="1.081" height="5.766" fill="#455a64"/>
          <rect x="38.16" y="39.125" width="1.081" height="2.608" fill="#455a64"/>
        </g>
        <g>
          <rect x="43.242" width="1.081" height="1.304" fill="#2196f3"/>
          <rect x="43.242" y="2.259" width="1.081" height="4.771" fill="#2196f3"/>
          <rect x="43.242" y="33.75" width="1.081" height="4.771" fill="#455a64"/>
          <rect x="43.242" y="29.933" width="1.081" height="2.863" fill="#2196f3"/>
          <rect x="43.242" y="23.253" width="1.081" height="4.771" fill="#455a64"/>
          <rect x="43.242" y="19.436" width="1.081" height="2.863" fill="#2196f3"/>
          <rect x="43.242" y="12.756" width="1.081" height="4.771" fill="#2196f3"/>
          <rect x="43.242" y="8.939" width="1.081" height="2.863" fill="#455a64"/>
          <rect x="43.242" y="40.429" width="1.081" height="1.304" fill="#455a64"/>
        </g>
        <g>
          <rect x="48.323" width="1.081" height="2.608" fill="#455a64"/>
          <rect x="48.323" y="4.531" width="1.081" height="1.922" fill="#455a64"/>
          <rect x="48.323" y="36.242" width="1.081" height="1.922" fill="#2196f3"/>
          <rect x="48.323" y="28.555" width="1.081" height="5.766" fill="#455a64"/>
          <rect x="48.323" y="25.672" width="1.081" height="1.922" fill="#455a64"/>
          <rect x="48.323" y="17.984" width="1.081" height="5.766" fill="#455a64"/>
          <rect x="48.323" y="15.101" width="1.081" height="1.922" fill="#455a64"/>
          <rect x="48.323" y="7.413" width="1.081" height="5.766" fill="#455a64"/>
          <rect x="48.323" y="39.125" width="1.081" height="2.608" fill="#2196f3"/>
        </g>
        <g>
          <rect x="53.405" width="1.081" height="1.304" fill="#2196f3"/>
          <rect x="53.405" y="2.259" width="1.081" height="4.771" fill="#2196f3"/>
          <rect x="53.405" y="33.75" width="1.081" height="4.771" fill="#455a64"/>
          <rect x="53.405" y="29.933" width="1.081" height="2.863" fill="#455a64"/>
          <rect x="53.405" y="23.253" width="1.081" height="4.771" fill="#2196f3"/>
          <rect x="53.405" y="19.436" width="1.081" height="2.863" fill="#2196f3"/>
          <rect x="53.405" y="12.756" width="1.081" height="4.771" fill="#2196f3"/>
          <rect x="53.405" y="8.939" width="1.081" height="2.863" fill="#455a64"/>
          <rect x="53.405" y="40.429" width="1.081" height="1.304" fill="#455a64"/>
        </g>
        <g>
          <rect x="58.486" width="1.081" height="2.608" fill="#2196f3"/>
          <rect x="58.486" y="4.531" width="1.081" height="1.922" fill="#455a64"/>
          <rect x="58.486" y="36.242" width="1.081" height="1.922" fill="#455a64"/>
          <rect x="58.486" y="28.555" width="1.081" height="5.766" fill="#455a64"/>
          <rect x="58.486" y="25.672" width="1.081" height="1.922" fill="#455a64"/>
          <rect x="58.486" y="17.984" width="1.081" height="5.766" fill="#455a64"/>
          <rect x="58.486" y="15.101" width="1.081" height="1.922" fill="#455a64"/>
          <rect x="58.486" y="7.413" width="1.081" height="5.766" fill="#455a64"/>
          <rect x="58.486" y="39.125" width="1.081" height="2.608" fill="#455a64"/>
        </g>
      </g>
      <g>
        <rect x="47.229" y="31.186" width="7.306" height="3.724" transform="translate(-8.465 45.658) rotate(-45)" fill="#9b5f6f"/>
        <path d="M54.571,22.25c0,7.997-6.484,14.481-14.494,14.481s-14.481-6.484-14.481-14.481,6.484-14.481,14.481-14.481,14.494,6.484,14.494,14.481Z" fill="#a96c79"/>
        <path d="M51.221,22.25c0,6.148-4.985,11.132-11.142,11.132s-11.132-4.985-11.132-11.132,4.985-11.132,11.132-11.132,11.142,4.985,11.142,11.132Z" fill="#fff"/>
        <g clip-path="url(#clippath)">
          <g>
            <path d="M.389,7.539C.155,7.274.027,6.927.005,6.497c-.003-.097-.005-.261-.005-.494,0-.236.002-.405.005-.505.018-.423.147-.766.387-1.031.24-.265.596-.398,1.069-.398s.829.133,1.069.398c.24.265.369.609.387,1.031.007.201.011.369.011.505s-.004.301-.011.494c-.022.43-.15.777-.384,1.042-.234.265-.592.398-1.071.398s-.837-.132-1.072-.398ZM1.96,7.091c.111-.145.17-.352.177-.62.003-.104.005-.263.005-.478s-.002-.37-.005-.467c-.007-.261-.066-.466-.177-.612-.111-.147-.278-.222-.499-.226-.222.004-.389.079-.5.226-.111.147-.17.351-.177.612-.004.097-.005.252-.005.467s.002.374.005.478c.007.268.066.475.177.62.111.145.277.217.5.217s.388-.072.499-.217Z" fill="#455a64"/>
            <path d="M7.026,7.845c-.025-.025-.038-.056-.038-.091v-2.772l-.811.623c-.022.018-.048.027-.081.027-.043,0-.077-.018-.102-.054l-.231-.301c-.018-.025-.027-.05-.027-.075,0-.043.019-.079.059-.107l1.203-.935c.039-.025.084-.038.134-.038h.483c.036,0,.066.012.091.038.025.025.038.055.038.091v3.502c0,.036-.013.066-.038.091-.025.025-.055.038-.091.038h-.499c-.036,0-.066-.012-.091-.038Z" fill="#455a64"/>
            <path d="M11.214,7.539c-.235-.265-.363-.612-.384-1.042-.003-.097-.005-.261-.005-.494,0-.236.002-.405.005-.505.018-.423.147-.766.387-1.031.24-.265.596-.398,1.069-.398s.829.133,1.069.398c.24.265.369.609.387,1.031.007.201.011.369.011.505s-.004.301-.011.494c-.022.43-.15.777-.384,1.042-.234.265-.592.398-1.071.398s-.837-.132-1.072-.398ZM12.785,7.091c.111-.145.17-.352.177-.62.003-.104.005-.263.005-.478s-.002-.37-.005-.467c-.007-.261-.066-.466-.177-.612-.111-.147-.278-.222-.499-.226-.222.004-.389.079-.5.226-.111.147-.17.351-.177.612-.004.097-.005.252-.005.467s.002.374.005.478c.007.268.066.475.177.62.111.145.277.217.5.217s.388-.072.499-.217Z" fill="#455a64"/>
            <path d="M17.851,7.845c-.025-.025-.038-.056-.038-.091v-2.772l-.811.623c-.022.018-.048.027-.081.027-.043,0-.077-.018-.102-.054l-.231-.301c-.018-.025-.027-.05-.027-.075,0-.043.019-.079.059-.107l1.203-.935c.039-.025.084-.038.134-.038h.483c.036,0,.066.012.091.038.025.025.038.055.038.091v3.502c0,.036-.013.066-.038.091-.025.025-.055.038-.091.038h-.499c-.036,0-.066-.012-.091-.038Z" fill="#455a64"/>
            <path d="M22.038,7.539c-.235-.265-.363-.612-.384-1.042-.003-.097-.005-.261-.005-.494,0-.236.002-.405.005-.505.018-.423.147-.766.387-1.031.24-.265.596-.398,1.069-.398s.829.133,1.069.398c.24.265.369.609.387,1.031.007.201.011.369.011.505s-.004.301-.011.494c-.022.43-.15.777-.384,1.042-.234.265-.592.398-1.071.398s-.837-.132-1.072-.398ZM23.609,7.091c.111-.145.17-.352.177-.62.003-.104.005-.263.005-.478s-.002-.37-.005-.467c-.007-.261-.066-.466-.177-.612-.111-.147-.278-.222-.499-.226-.222.004-.389.079-.5.226-.111.147-.17.351-.177.612-.004.097-.005.252-.005.467s.002.374.005.478c.007.268.066.475.177.62s.277.217.5.217.388-.072.499-.217Z" fill="#455a64"/>
            <path d="M28.675,7.845c-.025-.025-.038-.056-.038-.091v-2.772l-.811.623c-.022.018-.048.027-.081.027-.043,0-.077-.018-.102-.054l-.231-.301c-.018-.025-.027-.05-.027-.075,0-.043.019-.079.059-.107l1.203-.935c.039-.025.084-.038.134-.038h.483c.036,0,.066.012.091.038.025.025.038.055.038.091v3.502c0,.036-.013.066-.038.091-.025.025-.055.038-.091.038h-.499c-.036,0-.066-.012-.091-.038Z" fill="#455a64"/>
            <path d="M32.863,7.539c-.235-.265-.362-.612-.384-1.042-.003-.097-.005-.261-.005-.494,0-.236.002-.405.005-.505.018-.423.147-.766.387-1.031.24-.265.596-.398,1.069-.398s.829.133,1.069.398c.24.265.369.609.387,1.031.007.201.011.369.011.505s-.004.301-.011.494c-.022.43-.15.777-.384,1.042-.234.265-.592.398-1.071.398s-.837-.132-1.072-.398ZM34.434,7.091c.111-.145.17-.352.177-.62.003-.104.005-.263.005-.478s-.002-.37-.005-.467c-.007-.261-.066-.466-.177-.612-.111-.147-.278-.222-.499-.226-.222.004-.389.079-.5.226-.111.147-.17.351-.177.612-.004.097-.005.252-.005.467s.002.374.005.478c.007.268.066.475.177.62s.277.217.5.217.388-.072.499-.217Z" fill="#455a64"/>
            <path d="M39.5,7.845c-.025-.025-.038-.056-.038-.091v-2.772l-.811.623c-.022.018-.048.027-.081.027-.043,0-.077-.018-.102-.054l-.231-.301c-.018-.025-.027-.05-.027-.075,0-.043.019-.079.059-.107l1.203-.935c.039-.025.084-.038.134-.038h.483c.036,0,.066.012.091.038.025.025.038.055.038.091v3.502c0,.036-.013.066-.038.091-.025.025-.055.038-.091.038h-.499c-.036,0-.066-.012-.091-.038Z" fill="#455a64"/>
            <path d="M43.687,7.539c-.235-.265-.362-.612-.384-1.042-.003-.097-.005-.261-.005-.494,0-.236.002-.405.005-.505.018-.423.147-.766.387-1.031.24-.265.596-.398,1.069-.398s.829.133,1.069.398c.24.265.369.609.387,1.031.007.201.011.369.011.505s-.004.301-.011.494c-.022.43-.15.777-.384,1.042-.234.265-.592.398-1.071.398s-.837-.132-1.072-.398ZM45.258,7.091c.111-.145.17-.352.177-.62.003-.104.005-.263.005-.478s-.002-.37-.005-.467c-.007-.261-.066-.466-.177-.612-.111-.147-.278-.222-.499-.226-.222.004-.389.079-.5.226-.111.147-.17.351-.177.612-.004.097-.005.252-.005.467s.002.374.005.478c.007.268.066.475.177.62s.277.217.5.217.388-.072.499-.217Z" fill="#455a64"/>
            <path d="M50.324,7.845c-.025-.025-.038-.056-.038-.091v-2.772l-.811.623c-.022.018-.048.027-.081.027-.043,0-.077-.018-.102-.054l-.231-.301c-.018-.025-.027-.05-.027-.075,0-.043.019-.079.059-.107l1.203-.935c.039-.025.084-.038.134-.038h.483c.036,0,.066.012.091.038.025.025.038.055.038.091v3.502c0,.036-.013.066-.038.091-.025.025-.055.038-.091.038h-.499c-.036,0-.066-.012-.091-.038Z" fill="#455a64"/>
            <path d="M54.512,7.539c-.235-.265-.362-.612-.384-1.042-.003-.097-.005-.261-.005-.494,0-.236.002-.405.005-.505.018-.423.147-.766.387-1.031.24-.265.596-.398,1.069-.398s.829.133,1.069.398c.24.265.369.609.387,1.031.007.201.011.369.011.505s-.004.301-.011.494c-.022.43-.15.777-.384,1.042-.234.265-.592.398-1.071.398s-.837-.132-1.072-.398ZM56.083,7.091c.111-.145.17-.352.177-.62.003-.104.005-.263.005-.478s-.002-.37-.005-.467c-.007-.261-.066-.466-.177-.612-.111-.147-.278-.222-.499-.226-.222.004-.389.079-.5.226-.111.147-.17.351-.177.612-.004.097-.005.252-.005.467s.002.374.005.478c.007.268.066.475.177.62s.277.217.5.217.388-.072.499-.217Z" fill="#455a64"/>
            <path d="M61.149,7.845c-.025-.025-.037-.056-.037-.091v-2.772l-.811.623c-.022.018-.048.027-.081.027-.043,0-.077-.018-.102-.054l-.231-.301c-.018-.025-.027-.05-.027-.075,0-.043.019-.079.059-.107l1.203-.935c.039-.025.084-.038.134-.038h.483c.036,0,.066.012.091.038.025.025.038.055.038.091v3.502c0,.036-.013.066-.038.091-.025.025-.055.038-.091.038h-.499c-.036,0-.066-.012-.091-.038Z" fill="#455a64"/>
            <path d="M65.336,7.539c-.235-.265-.362-.612-.384-1.042-.003-.097-.005-.261-.005-.494,0-.236.002-.405.005-.505.018-.423.147-.766.387-1.031.24-.265.596-.398,1.069-.398s.829.133,1.069.398c.24.265.369.609.387,1.031.007.201.011.369.011.505s-.004.301-.011.494c-.022.43-.15.777-.384,1.042-.234.265-.592.398-1.071.398s-.837-.132-1.072-.398ZM66.907,7.091c.111-.145.17-.352.177-.62.003-.104.005-.263.005-.478s-.002-.37-.005-.467c-.007-.261-.066-.466-.177-.612-.111-.147-.278-.222-.499-.226-.222.004-.389.079-.5.226-.111.147-.17.351-.177.612-.004.097-.005.252-.005.467s.002.374.005.478c.007.268.066.475.177.62s.277.217.5.217.388-.072.499-.217Z" fill="#455a64"/>
            <path d="M71.973,7.845c-.025-.025-.037-.056-.037-.091v-2.772l-.811.623c-.022.018-.048.027-.081.027-.043,0-.077-.018-.102-.054l-.231-.301c-.018-.025-.027-.05-.027-.075,0-.043.019-.079.059-.107l1.203-.935c.039-.025.084-.038.134-.038h.483c.036,0,.066.012.091.038.025.025.038.055.038.091v3.502c0,.036-.013.066-.038.091-.025.025-.055.038-.091.038h-.499c-.036,0-.066-.012-.091-.038Z" fill="#455a64"/>
            <path d="M.389,13.982c-.235-.265-.363-.612-.384-1.042-.003-.097-.005-.261-.005-.494,0-.236.002-.405.005-.505.018-.423.147-.766.387-1.031.24-.265.596-.398,1.069-.398s.829.133,1.069.398c.24.265.369.609.387,1.031.007.201.011.369.011.505s-.004.301-.011.494c-.022.43-.15.777-.384,1.042-.234.265-.592.398-1.071.398s-.837-.132-1.072-.398ZM1.96,13.534c.111-.145.17-.352.177-.62.003-.104.005-.263.005-.478s-.002-.37-.005-.467c-.007-.261-.066-.466-.177-.612-.111-.147-.278-.222-.499-.225-.222.004-.389.079-.5.225-.111.147-.17.351-.177.612-.004.097-.005.252-.005.467s.002.374.005.478c.007.268.066.475.177.62.111.145.277.217.5.217s.388-.072.499-.217Z" fill="#455a64"/>
            <path d="M7.026,14.289c-.025-.025-.038-.056-.038-.091v-2.771l-.811.623c-.022.018-.048.027-.081.027-.043,0-.077-.018-.102-.054l-.231-.301c-.018-.025-.027-.05-.027-.075,0-.043.019-.079.059-.108l1.203-.935c.039-.025.084-.038.134-.038h.483c.036,0,.066.012.091.038.025.025.038.056.038.091v3.502c0,.036-.013.066-.038.091-.025.025-.055.038-.091.038h-.499c-.036,0-.066-.012-.091-.038Z" fill="#455a64"/>
            <path d="M11.214,13.982c-.235-.265-.363-.612-.384-1.042-.003-.097-.005-.261-.005-.494,0-.236.002-.405.005-.505.018-.423.147-.766.387-1.031.24-.265.596-.398,1.069-.398s.829.133,1.069.398c.24.265.369.609.387,1.031.007.201.011.369.011.505s-.004.301-.011.494c-.022.43-.15.777-.384,1.042-.234.265-.592.398-1.071.398s-.837-.132-1.072-.398ZM12.785,13.534c.111-.145.17-.352.177-.62.003-.104.005-.263.005-.478s-.002-.37-.005-.467c-.007-.261-.066-.466-.177-.612-.111-.147-.278-.222-.499-.225-.222.004-.389.079-.5.225-.111.147-.17.351-.177.612-.004.097-.005.252-.005.467s.002.374.005.478c.007.268.066.475.177.62.111.145.277.217.5.217s.388-.072.499-.217Z" fill="#455a64"/>
            <path d="M17.851,14.289c-.025-.025-.038-.056-.038-.091v-2.771l-.811.623c-.022.018-.048.027-.081.027-.043,0-.077-.018-.102-.054l-.231-.301c-.018-.025-.027-.05-.027-.075,0-.043.019-.079.059-.108l1.203-.935c.039-.025.084-.038.134-.038h.483c.036,0,.066.012.091.038.025.025.038.056.038.091v3.502c0,.036-.013.066-.038.091-.025.025-.055.038-.091.038h-.499c-.036,0-.066-.012-.091-.038Z" fill="#455a64"/>
            <path d="M22.038,13.982c-.235-.265-.363-.612-.384-1.042-.003-.097-.005-.261-.005-.494,0-.236.002-.405.005-.505.018-.423.147-.766.387-1.031.24-.265.596-.398,1.069-.398s.829.133,1.069.398c.24.265.369.609.387,1.031.007.201.011.369.011.505s-.004.301-.011.494c-.022.43-.15.777-.384,1.042-.234.265-.592.398-1.071.398s-.837-.132-1.072-.398ZM23.609,13.534c.111-.145.17-.352.177-.62.003-.104.005-.263.005-.478s-.002-.37-.005-.467c-.007-.261-.066-.466-.177-.612-.111-.147-.278-.222-.499-.225-.222.004-.389.079-.5.225-.111.147-.17.351-.177.612-.004.097-.005.252-.005.467s.002.374.005.478c.007.268.066.475.177.62s.277.217.5.217.388-.072.499-.217Z" fill="#455a64"/>
            <path d="M28.675,14.289c-.025-.025-.038-.056-.038-.091v-2.771l-.811.623c-.022.018-.048.027-.081.027-.043,0-.077-.018-.102-.054l-.231-.301c-.018-.025-.027-.05-.027-.075,0-.043.019-.079.059-.108l1.203-.935c.039-.025.084-.038.134-.038h.483c.036,0,.066.012.091.038.025.025.038.056.038.091v3.502c0,.036-.013.066-.038.091-.025.025-.055.038-.091.038h-.499c-.036,0-.066-.012-.091-.038Z" fill="#455a64"/>
            <path d="M32.863,13.982c-.235-.265-.362-.612-.384-1.042-.003-.097-.005-.261-.005-.494,0-.236.002-.405.005-.505.018-.423.147-.766.387-1.031.24-.265.596-.398,1.069-.398s.829.133,1.069.398c.24.265.369.609.387,1.031.007.201.011.369.011.505s-.004.301-.011.494c-.022.43-.15.777-.384,1.042-.234.265-.592.398-1.071.398s-.837-.132-1.072-.398ZM34.434,13.534c.111-.145.17-.352.177-.62.003-.104.005-.263.005-.478s-.002-.37-.005-.467c-.007-.261-.066-.466-.177-.612-.111-.147-.278-.222-.499-.225-.222.004-.389.079-.5.225-.111.147-.17.351-.177.612-.004.097-.005.252-.005.467s.002.374.005.478c.007.268.066.475.177.62s.277.217.5.217.388-.072.499-.217Z" fill="#455a64"/>
            <path d="M39.5,14.289c-.025-.025-.038-.056-.038-.091v-2.771l-.811.623c-.022.018-.048.027-.081.027-.043,0-.077-.018-.102-.054l-.231-.301c-.018-.025-.027-.05-.027-.075,0-.043.019-.079.059-.108l1.203-.935c.039-.025.084-.038.134-.038h.483c.036,0,.066.012.091.038.025.025.038.056.038.091v3.502c0,.036-.013.066-.038.091-.025.025-.055.038-.091.038h-.499c-.036,0-.066-.012-.091-.038Z" fill="#455a64"/>
            <path d="M43.687,13.982c-.235-.265-.362-.612-.384-1.042-.003-.097-.005-.261-.005-.494,0-.236.002-.405.005-.505.018-.423.147-.766.387-1.031.24-.265.596-.398,1.069-.398s.829.133,1.069.398c.24.265.369.609.387,1.031.007.201.011.369.011.505s-.004.301-.011.494c-.022.43-.15.777-.384,1.042-.234.265-.592.398-1.071.398s-.837-.132-1.072-.398ZM45.258,13.534c.111-.145.17-.352.177-.62.003-.104.005-.263.005-.478s-.002-.37-.005-.467c-.007-.261-.066-.466-.177-.612-.111-.147-.278-.222-.499-.225-.222.004-.389.079-.5.225-.111.147-.17.351-.177.612-.004.097-.005.252-.005.467s.002.374.005.478c.007.268.066.475.177.62s.277.217.5.217.388-.072.499-.217Z" fill="#455a64"/>
            <path d="M50.324,14.289c-.025-.025-.038-.056-.038-.091v-2.771l-.811.623c-.022.018-.048.027-.081.027-.043,0-.077-.018-.102-.054l-.231-.301c-.018-.025-.027-.05-.027-.075,0-.043.019-.079.059-.108l1.203-.935c.039-.025.084-.038.134-.038h.483c.036,0,.066.012.091.038.025.025.038.056.038.091v3.502c0,.036-.013.066-.038.091-.025.025-.055.038-.091.038h-.499c-.036,0-.066-.012-.091-.038Z" fill="#455a64"/>
            <path d="M54.512,13.982c-.235-.265-.362-.612-.384-1.042-.003-.097-.005-.261-.005-.494,0-.236.002-.405.005-.505.018-.423.147-.766.387-1.031.24-.265.596-.398,1.069-.398s.829.133,1.069.398c.24.265.369.609.387,1.031.007.201.011.369.011.505s-.004.301-.011.494c-.022.43-.15.777-.384,1.042-.234.265-.592.398-1.071.398s-.837-.132-1.072-.398ZM56.083,13.534c.111-.145.17-.352.177-.62.003-.104.005-.263.005-.478s-.002-.37-.005-.467c-.007-.261-.066-.466-.177-.612-.111-.147-.278-.222-.499-.225-.222.004-.389.079-.5.225-.111.147-.17.351-.177.612-.004.097-.005.252-.005.467s.002.374.005.478c.007.268.066.475.177.62s.277.217.5.217.388-.072.499-.217Z" fill="#455a64"/>
            <path d="M61.149,14.289c-.025-.025-.037-.056-.037-.091v-2.771l-.811.623c-.022.018-.048.027-.081.027-.043,0-.077-.018-.102-.054l-.231-.301c-.018-.025-.027-.05-.027-.075,0-.043.019-.079.059-.108l1.203-.935c.039-.025.084-.038.134-.038h.483c.036,0,.066.012.091.038.025.025.038.056.038.091v3.502c0,.036-.013.066-.038.091-.025.025-.055.038-.091.038h-.499c-.036,0-.066-.012-.091-.038Z" fill="#455a64"/>
            <path d="M65.336,13.982c-.235-.265-.362-.612-.384-1.042-.003-.097-.005-.261-.005-.494,0-.236.002-.405.005-.505.018-.423.147-.766.387-1.031.24-.265.596-.398,1.069-.398s.829.133,1.069.398c.24.265.369.609.387,1.031.007.201.011.369.011.505s-.004.301-.011.494c-.022.43-.15.777-.384,1.042-.234.265-.592.398-1.071.398s-.837-.132-1.072-.398ZM66.907,13.534c.111-.145.17-.352.177-.62.003-.104.005-.263.005-.478s-.002-.37-.005-.467c-.007-.261-.066-.466-.177-.612-.111-.147-.278-.222-.499-.225-.222.004-.389.079-.5.225-.111.147-.17.351-.177.612-.004.097-.005.252-.005.467s.002.374.005.478c.007.268.066.475.177.62s.277.217.5.217.388-.072.499-.217Z" fill="#455a64"/>
            <path d="M71.973,14.289c-.025-.025-.037-.056-.037-.091v-2.771l-.811.623c-.022.018-.048.027-.081.027-.043,0-.077-.018-.102-.054l-.231-.301c-.018-.025-.027-.05-.027-.075,0-.043.019-.079.059-.108l1.203-.935c.039-.025.084-.038.134-.038h.483c.036,0,.066.012.091.038.025.025.038.056.038.091v3.502c0,.036-.013.066-.038.091-.025.025-.055.038-.091.038h-.499c-.036,0-.066-.012-.091-.038Z" fill="#455a64"/>
            <path d="M.389,20.426c-.235-.265-.363-.612-.384-1.042-.003-.097-.005-.261-.005-.494,0-.236.002-.404.005-.505.018-.422.147-.766.387-1.031.24-.265.596-.398,1.069-.398s.829.133,1.069.398c.24.265.369.609.387,1.031.007.201.011.369.011.505s-.004.301-.011.494c-.022.43-.15.777-.384,1.042-.234.265-.592.398-1.071.398s-.837-.133-1.072-.398ZM1.96,19.977c.111-.145.17-.352.177-.62.003-.104.005-.263.005-.478s-.002-.37-.005-.467c-.007-.261-.066-.466-.177-.612-.111-.147-.278-.222-.499-.226-.222.004-.389.079-.5.226-.111.147-.17.351-.177.612-.004.097-.005.252-.005.467s.002.374.005.478c.007.268.066.475.177.62.111.145.277.217.5.217s.388-.072.499-.217Z" fill="#455a64"/>
            <path d="M7.026,20.732c-.025-.025-.038-.056-.038-.091v-2.771l-.811.623c-.022.018-.048.027-.081.027-.043,0-.077-.018-.102-.054l-.231-.301c-.018-.025-.027-.05-.027-.075,0-.043.019-.079.059-.108l1.203-.935c.039-.025.084-.038.134-.038h.483c.036,0,.066.012.091.038.025.025.038.056.038.091v3.502c0,.036-.013.066-.038.091-.025.025-.055.038-.091.038h-.499c-.036,0-.066-.012-.091-.038Z" fill="#455a64"/>
            <path d="M11.214,20.426c-.235-.265-.363-.612-.384-1.042-.003-.097-.005-.261-.005-.494,0-.236.002-.404.005-.505.018-.422.147-.766.387-1.031.24-.265.596-.398,1.069-.398s.829.133,1.069.398c.24.265.369.609.387,1.031.007.201.011.369.011.505s-.004.301-.011.494c-.022.43-.15.777-.384,1.042-.234.265-.592.398-1.071.398s-.837-.133-1.072-.398ZM12.785,19.977c.111-.145.17-.352.177-.62.003-.104.005-.263.005-.478s-.002-.37-.005-.467c-.007-.261-.066-.466-.177-.612-.111-.147-.278-.222-.499-.226-.222.004-.389.079-.5.226-.111.147-.17.351-.177.612-.004.097-.005.252-.005.467s.002.374.005.478c.007.268.066.475.177.62.111.145.277.217.5.217s.388-.072.499-.217Z" fill="#455a64"/>
            <path d="M17.851,20.732c-.025-.025-.038-.056-.038-.091v-2.771l-.811.623c-.022.018-.048.027-.081.027-.043,0-.077-.018-.102-.054l-.231-.301c-.018-.025-.027-.05-.027-.075,0-.043.019-.079.059-.108l1.203-.935c.039-.025.084-.038.134-.038h.483c.036,0,.066.012.091.038.025.025.038.056.038.091v3.502c0,.036-.013.066-.038.091-.025.025-.055.038-.091.038h-.499c-.036,0-.066-.012-.091-.038Z" fill="#455a64"/>
            <path d="M22.038,20.426c-.235-.265-.363-.612-.384-1.042-.003-.097-.005-.261-.005-.494,0-.236.002-.404.005-.505.018-.422.147-.766.387-1.031.24-.265.596-.398,1.069-.398s.829.133,1.069.398c.24.265.369.609.387,1.031.007.201.011.369.011.505s-.004.301-.011.494c-.022.43-.15.777-.384,1.042-.234.265-.592.398-1.071.398s-.837-.133-1.072-.398ZM23.609,19.977c.111-.145.17-.352.177-.62.003-.104.005-.263.005-.478s-.002-.37-.005-.467c-.007-.261-.066-.466-.177-.612-.111-.147-.278-.222-.499-.226-.222.004-.389.079-.5.226-.111.147-.17.351-.177.612-.004.097-.005.252-.005.467s.002.374.005.478c.007.268.066.475.177.62s.277.217.5.217.388-.072.499-.217Z" fill="#455a64"/>
            <path d="M28.675,20.732c-.025-.025-.038-.056-.038-.091v-2.771l-.811.623c-.022.018-.048.027-.081.027-.043,0-.077-.018-.102-.054l-.231-.301c-.018-.025-.027-.05-.027-.075,0-.043.019-.079.059-.108l1.203-.935c.039-.025.084-.038.134-.038h.483c.036,0,.066.012.091.038.025.025.038.056.038.091v3.502c0,.036-.013.066-.038.091-.025.025-.055.038-.091.038h-.499c-.036,0-.066-.012-.091-.038Z" fill="#455a64"/>
            <path d="M32.863,20.426c-.235-.265-.362-.612-.384-1.042-.003-.097-.005-.261-.005-.494,0-.236.002-.404.005-.505.018-.422.147-.766.387-1.031.24-.265.596-.398,1.069-.398s.829.133,1.069.398c.24.265.369.609.387,1.031.007.201.011.369.011.505s-.004.301-.011.494c-.022.43-.15.777-.384,1.042-.234.265-.592.398-1.071.398s-.837-.133-1.072-.398ZM34.434,19.977c.111-.145.17-.352.177-.62.003-.104.005-.263.005-.478s-.002-.37-.005-.467c-.007-.261-.066-.466-.177-.612-.111-.147-.278-.222-.499-.226-.222.004-.389.079-.5.226-.111.147-.17.351-.177.612-.004.097-.005.252-.005.467s.002.374.005.478c.007.268.066.475.177.62s.277.217.5.217.388-.072.499-.217Z" fill="#455a64"/>
            <path d="M39.5,20.732c-.025-.025-.038-.056-.038-.091v-2.771l-.811.623c-.022.018-.048.027-.081.027-.043,0-.077-.018-.102-.054l-.231-.301c-.018-.025-.027-.05-.027-.075,0-.043.019-.079.059-.108l1.203-.935c.039-.025.084-.038.134-.038h.483c.036,0,.066.012.091.038.025.025.038.056.038.091v3.502c0,.036-.013.066-.038.091-.025.025-.055.038-.091.038h-.499c-.036,0-.066-.012-.091-.038Z" fill="#455a64"/>
            <path d="M43.687,20.426c-.235-.265-.362-.612-.384-1.042-.003-.097-.005-.261-.005-.494,0-.236.002-.404.005-.505.018-.422.147-.766.387-1.031.24-.265.596-.398,1.069-.398s.829.133,1.069.398c.24.265.369.609.387,1.031.007.201.011.369.011.505s-.004.301-.011.494c-.022.43-.15.777-.384,1.042-.234.265-.592.398-1.071.398s-.837-.133-1.072-.398ZM45.258,19.977c.111-.145.17-.352.177-.62.003-.104.005-.263.005-.478s-.002-.37-.005-.467c-.007-.261-.066-.466-.177-.612-.111-.147-.278-.222-.499-.226-.222.004-.389.079-.5.226-.111.147-.17.351-.177.612-.004.097-.005.252-.005.467s.002.374.005.478c.007.268.066.475.177.62s.277.217.5.217.388-.072.499-.217Z" fill="#455a64"/>
            <path d="M50.324,20.732c-.025-.025-.038-.056-.038-.091v-2.771l-.811.623c-.022.018-.048.027-.081.027-.043,0-.077-.018-.102-.054l-.231-.301c-.018-.025-.027-.05-.027-.075,0-.043.019-.079.059-.108l1.203-.935c.039-.025.084-.038.134-.038h.483c.036,0,.066.012.091.038.025.025.038.056.038.091v3.502c0,.036-.013.066-.038.091-.025.025-.055.038-.091.038h-.499c-.036,0-.066-.012-.091-.038Z" fill="#455a64"/>
            <path d="M54.512,20.426c-.235-.265-.362-.612-.384-1.042-.003-.097-.005-.261-.005-.494,0-.236.002-.404.005-.505.018-.422.147-.766.387-1.031.24-.265.596-.398,1.069-.398s.829.133,1.069.398c.24.265.369.609.387,1.031.007.201.011.369.011.505s-.004.301-.011.494c-.022.43-.15.777-.384,1.042-.234.265-.592.398-1.071.398s-.837-.133-1.072-.398ZM56.083,19.977c.111-.145.17-.352.177-.62.003-.104.005-.263.005-.478s-.002-.37-.005-.467c-.007-.261-.066-.466-.177-.612-.111-.147-.278-.222-.499-.226-.222.004-.389.079-.5.226-.111.147-.17.351-.177.612-.004.097-.005.252-.005.467s.002.374.005.478c.007.268.066.475.177.62s.277.217.5.217.388-.072.499-.217Z" fill="#455a64"/>
            <path d="M61.149,20.732c-.025-.025-.037-.056-.037-.091v-2.771l-.811.623c-.022.018-.048.027-.081.027-.043,0-.077-.018-.102-.054l-.231-.301c-.018-.025-.027-.05-.027-.075,0-.043.019-.079.059-.108l1.203-.935c.039-.025.084-.038.134-.038h.483c.036,0,.066.012.091.038.025.025.038.056.038.091v3.502c0,.036-.013.066-.038.091-.025.025-.055.038-.091.038h-.499c-.036,0-.066-.012-.091-.038Z" fill="#455a64"/>
            <path d="M65.336,20.426c-.235-.265-.362-.612-.384-1.042-.003-.097-.005-.261-.005-.494,0-.236.002-.404.005-.505.018-.422.147-.766.387-1.031.24-.265.596-.398,1.069-.398s.829.133,1.069.398c.24.265.369.609.387,1.031.007.201.011.369.011.505s-.004.301-.011.494c-.022.43-.15.777-.384,1.042-.234.265-.592.398-1.071.398s-.837-.133-1.072-.398ZM66.907,19.977c.111-.145.17-.352.177-.62.003-.104.005-.263.005-.478s-.002-.37-.005-.467c-.007-.261-.066-.466-.177-.612-.111-.147-.278-.222-.499-.226-.222.004-.389.079-.5.226-.111.147-.17.351-.177.612-.004.097-.005.252-.005.467s.002.374.005.478c.007.268.066.475.177.62s.277.217.5.217.388-.072.499-.217Z" fill="#455a64"/>
            <path d="M71.973,20.732c-.025-.025-.037-.056-.037-.091v-2.771l-.811.623c-.022.018-.048.027-.081.027-.043,0-.077-.018-.102-.054l-.231-.301c-.018-.025-.027-.05-.027-.075,0-.043.019-.079.059-.108l1.203-.935c.039-.025.084-.038.134-.038h.483c.036,0,.066.012.091.038.025.025.038.056.038.091v3.502c0,.036-.013.066-.038.091-.025.025-.055.038-.091.038h-.499c-.036,0-.066-.012-.091-.038Z" fill="#455a64"/>
            <path d="M.389,26.869c-.235-.265-.363-.612-.384-1.042-.003-.097-.005-.261-.005-.494,0-.236.002-.404.005-.505.018-.422.147-.766.387-1.031.24-.265.596-.398,1.069-.398s.829.133,1.069.398c.24.265.369.609.387,1.031.007.201.011.369.011.505s-.004.301-.011.494c-.022.43-.15.777-.384,1.042-.234.265-.592.398-1.071.398s-.837-.133-1.072-.398ZM1.96,26.421c.111-.145.17-.352.177-.62.003-.104.005-.263.005-.478s-.002-.37-.005-.467c-.007-.261-.066-.466-.177-.612-.111-.147-.278-.222-.499-.226-.222.004-.389.079-.5.226-.111.147-.17.351-.177.612-.004.097-.005.252-.005.467s.002.374.005.478c.007.268.066.475.177.62.111.145.277.217.5.217s.388-.072.499-.217Z" fill="#455a64"/>
            <path d="M7.026,27.175c-.025-.025-.038-.056-.038-.091v-2.771l-.811.623c-.022.018-.048.027-.081.027-.043,0-.077-.018-.102-.054l-.231-.301c-.018-.025-.027-.05-.027-.075,0-.043.019-.079.059-.108l1.203-.935c.039-.025.084-.038.134-.038h.483c.036,0,.066.012.091.038.025.025.038.056.038.091v3.502c0,.036-.013.066-.038.091-.025.025-.055.038-.091.038h-.499c-.036,0-.066-.012-.091-.038Z" fill="#455a64"/>
            <path d="M11.214,26.869c-.235-.265-.363-.612-.384-1.042-.003-.097-.005-.261-.005-.494,0-.236.002-.404.005-.505.018-.422.147-.766.387-1.031.24-.265.596-.398,1.069-.398s.829.133,1.069.398c.24.265.369.609.387,1.031.007.201.011.369.011.505s-.004.301-.011.494c-.022.43-.15.777-.384,1.042-.234.265-.592.398-1.071.398s-.837-.133-1.072-.398ZM12.785,26.421c.111-.145.17-.352.177-.62.003-.104.005-.263.005-.478s-.002-.37-.005-.467c-.007-.261-.066-.466-.177-.612-.111-.147-.278-.222-.499-.226-.222.004-.389.079-.5.226-.111.147-.17.351-.177.612-.004.097-.005.252-.005.467s.002.374.005.478c.007.268.066.475.177.62.111.145.277.217.5.217s.388-.072.499-.217Z" fill="#455a64"/>
            <path d="M17.851,27.175c-.025-.025-.038-.056-.038-.091v-2.771l-.811.623c-.022.018-.048.027-.081.027-.043,0-.077-.018-.102-.054l-.231-.301c-.018-.025-.027-.05-.027-.075,0-.043.019-.079.059-.108l1.203-.935c.039-.025.084-.038.134-.038h.483c.036,0,.066.012.091.038.025.025.038.056.038.091v3.502c0,.036-.013.066-.038.091-.025.025-.055.038-.091.038h-.499c-.036,0-.066-.012-.091-.038Z" fill="#455a64"/>
            <path d="M22.038,26.869c-.235-.265-.363-.612-.384-1.042-.003-.097-.005-.261-.005-.494,0-.236.002-.404.005-.505.018-.422.147-.766.387-1.031.24-.265.596-.398,1.069-.398s.829.133,1.069.398c.24.265.369.609.387,1.031.007.201.011.369.011.505s-.004.301-.011.494c-.022.43-.15.777-.384,1.042-.234.265-.592.398-1.071.398s-.837-.133-1.072-.398ZM23.609,26.421c.111-.145.17-.352.177-.62.003-.104.005-.263.005-.478s-.002-.37-.005-.467c-.007-.261-.066-.466-.177-.612-.111-.147-.278-.222-.499-.226-.222.004-.389.079-.5.226-.111.147-.17.351-.177.612-.004.097-.005.252-.005.467s.002.374.005.478c.007.268.066.475.177.62.111.145.277.217.5.217s.388-.072.499-.217Z" fill="#455a64"/>
            <path d="M28.675,27.175c-.025-.025-.038-.056-.038-.091v-2.771l-.811.623c-.022.018-.048.027-.081.027-.043,0-.077-.018-.102-.054l-.231-.301c-.018-.025-.027-.05-.027-.075,0-.043.019-.079.059-.108l1.203-.935c.039-.025.084-.038.134-.038h.483c.036,0,.066.012.091.038.025.025.038.056.038.091v3.502c0,.036-.013.066-.038.091-.025.025-.055.038-.091.038h-.499c-.036,0-.066-.012-.091-.038Z" fill="#455a64"/>
            <path d="M32.863,26.869c-.235-.265-.362-.612-.384-1.042-.003-.097-.005-.261-.005-.494,0-.236.002-.404.005-.505.018-.422.147-.766.387-1.031.24-.265.596-.398,1.069-.398s.829.133,1.069.398c.24.265.369.609.387,1.031.007.201.011.369.011.505s-.004.301-.011.494c-.022.43-.15.777-.384,1.042-.234.265-.592.398-1.071.398s-.837-.133-1.072-.398ZM34.434,26.421c.111-.145.17-.352.177-.62.003-.104.005-.263.005-.478s-.002-.37-.005-.467c-.007-.261-.066-.466-.177-.612-.111-.147-.278-.222-.499-.226-.222.004-.389.079-.5.226-.111.147-.17.351-.177.612-.004.097-.005.252-.005.467s.002.374.005.478c.007.268.066.475.177.62.111.145.277.217.5.217s.388-.072.499-.217Z" fill="#455a64"/>
            <path d="M39.5,27.175c-.025-.025-.038-.056-.038-.091v-2.771l-.811.623c-.022.018-.048.027-.081.027-.043,0-.077-.018-.102-.054l-.231-.301c-.018-.025-.027-.05-.027-.075,0-.043.019-.079.059-.108l1.203-.935c.039-.025.084-.038.134-.038h.483c.036,0,.066.012.091.038.025.025.038.056.038.091v3.502c0,.036-.013.066-.038.091-.025.025-.055.038-.091.038h-.499c-.036,0-.066-.012-.091-.038Z" fill="#455a64"/>
            <path d="M43.687,26.869c-.235-.265-.362-.612-.384-1.042-.003-.097-.005-.261-.005-.494,0-.236.002-.404.005-.505.018-.422.147-.766.387-1.031.24-.265.596-.398,1.069-.398s.829.133,1.069.398c.24.265.369.609.387,1.031.007.201.011.369.011.505s-.004.301-.011.494c-.022.43-.15.777-.384,1.042-.234.265-.592.398-1.071.398s-.837-.133-1.072-.398ZM45.258,26.421c.111-.145.17-.352.177-.62.003-.104.005-.263.005-.478s-.002-.37-.005-.467c-.007-.261-.066-.466-.177-.612-.111-.147-.278-.222-.499-.226-.222.004-.389.079-.5.226-.111.147-.17.351-.177.612-.004.097-.005.252-.005.467s.002.374.005.478c.007.268.066.475.177.62.111.145.277.217.5.217s.388-.072.499-.217Z" fill="#455a64"/>
            <path d="M50.324,27.175c-.025-.025-.038-.056-.038-.091v-2.771l-.811.623c-.022.018-.048.027-.081.027-.043,0-.077-.018-.102-.054l-.231-.301c-.018-.025-.027-.05-.027-.075,0-.043.019-.079.059-.108l1.203-.935c.039-.025.084-.038.134-.038h.483c.036,0,.066.012.091.038.025.025.038.056.038.091v3.502c0,.036-.013.066-.038.091-.025.025-.055.038-.091.038h-.499c-.036,0-.066-.012-.091-.038Z" fill="#455a64"/>
            <path d="M54.512,26.869c-.235-.265-.362-.612-.384-1.042-.003-.097-.005-.261-.005-.494,0-.236.002-.404.005-.505.018-.422.147-.766.387-1.031.24-.265.596-.398,1.069-.398s.829.133,1.069.398c.24.265.369.609.387,1.031.007.201.011.369.011.505s-.004.301-.011.494c-.022.43-.15.777-.384,1.042-.234.265-.592.398-1.071.398s-.837-.133-1.072-.398ZM56.083,26.421c.111-.145.17-.352.177-.62.003-.104.005-.263.005-.478s-.002-.37-.005-.467c-.007-.261-.066-.466-.177-.612-.111-.147-.278-.222-.499-.226-.222.004-.389.079-.5.226-.111.147-.17.351-.177.612-.004.097-.005.252-.005.467s.002.374.005.478c.007.268.066.475.177.62.111.145.277.217.5.217s.388-.072.499-.217Z" fill="#455a64"/>
            <path d="M61.149,27.175c-.025-.025-.037-.056-.037-.091v-2.771l-.811.623c-.022.018-.048.027-.081.027-.043,0-.077-.018-.102-.054l-.231-.301c-.018-.025-.027-.05-.027-.075,0-.043.019-.079.059-.108l1.203-.935c.039-.025.084-.038.134-.038h.483c.036,0,.066.012.091.038.025.025.038.056.038.091v3.502c0,.036-.013.066-.038.091-.025.025-.055.038-.091.038h-.499c-.036,0-.066-.012-.091-.038Z" fill="#455a64"/>
            <path d="M65.336,26.869c-.235-.265-.362-.612-.384-1.042-.003-.097-.005-.261-.005-.494,0-.236.002-.404.005-.505.018-.422.147-.766.387-1.031.24-.265.596-.398,1.069-.398s.829.133,1.069.398c.24.265.369.609.387,1.031.007.201.011.369.011.505s-.004.301-.011.494c-.022.43-.15.777-.384,1.042-.234.265-.592.398-1.071.398s-.837-.133-1.072-.398ZM66.907,26.421c.111-.145.17-.352.177-.62.003-.104.005-.263.005-.478s-.002-.37-.005-.467c-.007-.261-.066-.466-.177-.612-.111-.147-.278-.222-.499-.226-.222.004-.389.079-.5.226-.111.147-.17.351-.177.612-.004.097-.005.252-.005.467s.002.374.005.478c.007.268.066.475.177.62.111.145.277.217.5.217s.388-.072.499-.217Z" fill="#455a64"/>
            <path d="M71.973,27.175c-.025-.025-.037-.056-.037-.091v-2.771l-.811.623c-.022.018-.048.027-.081.027-.043,0-.077-.018-.102-.054l-.231-.301c-.018-.025-.027-.05-.027-.075,0-.043.019-.079.059-.108l1.203-.935c.039-.025.084-.038.134-.038h.483c.036,0,.066.012.091.038.025.025.038.056.038.091v3.502c0,.036-.013.066-.038.091-.025.025-.055.038-.091.038h-.499c-.036,0-.066-.012-.091-.038Z" fill="#455a64"/>
            <path d="M.389,33.312c-.235-.265-.363-.612-.384-1.042-.003-.097-.005-.261-.005-.494,0-.236.002-.404.005-.505.018-.422.147-.766.387-1.031.24-.265.596-.398,1.069-.398s.829.132,1.069.398c.24.265.369.609.387,1.031.007.201.011.369.011.505s-.004.301-.011.494c-.022.43-.15.777-.384,1.042-.234.265-.592.398-1.071.398s-.837-.133-1.072-.398ZM1.96,32.864c.111-.145.17-.352.177-.62.003-.104.005-.263.005-.478s-.002-.37-.005-.467c-.007-.261-.066-.466-.177-.612-.111-.147-.278-.222-.499-.226-.222.004-.389.079-.5.226-.111.147-.17.351-.177.612-.004.097-.005.252-.005.467s.002.374.005.478c.007.268.066.475.177.62.111.145.277.217.5.217s.388-.072.499-.217Z" fill="#455a64"/>
            <path d="M7.026,33.618c-.025-.025-.038-.056-.038-.091v-2.771l-.811.623c-.022.018-.048.027-.081.027-.043,0-.077-.018-.102-.054l-.231-.301c-.018-.025-.027-.05-.027-.075,0-.043.019-.079.059-.108l1.203-.935c.039-.025.084-.038.134-.038h.483c.036,0,.066.012.091.038.025.025.038.056.038.091v3.502c0,.036-.013.066-.038.091-.025.025-.055.038-.091.038h-.499c-.036,0-.066-.012-.091-.038Z" fill="#455a64"/>
            <path d="M11.214,33.312c-.235-.265-.363-.612-.384-1.042-.003-.097-.005-.261-.005-.494,0-.236.002-.404.005-.505.018-.422.147-.766.387-1.031.24-.265.596-.398,1.069-.398s.829.132,1.069.398c.24.265.369.609.387,1.031.007.201.011.369.011.505s-.004.301-.011.494c-.022.43-.15.777-.384,1.042-.234.265-.592.398-1.071.398s-.837-.133-1.072-.398ZM12.785,32.864c.111-.145.17-.352.177-.62.003-.104.005-.263.005-.478s-.002-.37-.005-.467c-.007-.261-.066-.466-.177-.612-.111-.147-.278-.222-.499-.226-.222.004-.389.079-.5.226-.111.147-.17.351-.177.612-.004.097-.005.252-.005.467s.002.374.005.478c.007.268.066.475.177.62.111.145.277.217.5.217s.388-.072.499-.217Z" fill="#455a64"/>
            <path d="M17.851,33.618c-.025-.025-.038-.056-.038-.091v-2.771l-.811.623c-.022.018-.048.027-.081.027-.043,0-.077-.018-.102-.054l-.231-.301c-.018-.025-.027-.05-.027-.075,0-.043.019-.079.059-.108l1.203-.935c.039-.025.084-.038.134-.038h.483c.036,0,.066.012.091.038.025.025.038.056.038.091v3.502c0,.036-.013.066-.038.091-.025.025-.055.038-.091.038h-.499c-.036,0-.066-.012-.091-.038Z" fill="#455a64"/>
            <path d="M22.038,33.312c-.235-.265-.363-.612-.384-1.042-.003-.097-.005-.261-.005-.494,0-.236.002-.404.005-.505.018-.422.147-.766.387-1.031.24-.265.596-.398,1.069-.398s.829.132,1.069.398c.24.265.369.609.387,1.031.007.201.011.369.011.505s-.004.301-.011.494c-.022.43-.15.777-.384,1.042-.234.265-.592.398-1.071.398s-.837-.133-1.072-.398ZM23.609,32.864c.111-.145.17-.352.177-.62.003-.104.005-.263.005-.478s-.002-.37-.005-.467c-.007-.261-.066-.466-.177-.612-.111-.147-.278-.222-.499-.226-.222.004-.389.079-.5.226-.111.147-.17.351-.177.612-.004.097-.005.252-.005.467s.002.374.005.478c.007.268.066.475.177.62.111.145.277.217.5.217s.388-.072.499-.217Z" fill="#455a64"/>
            <path d="M28.675,33.618c-.025-.025-.038-.056-.038-.091v-2.771l-.811.623c-.022.018-.048.027-.081.027-.043,0-.077-.018-.102-.054l-.231-.301c-.018-.025-.027-.05-.027-.075,0-.043.019-.079.059-.108l1.203-.935c.039-.025.084-.038.134-.038h.483c.036,0,.066.012.091.038.025.025.038.056.038.091v3.502c0,.036-.013.066-.038.091-.025.025-.055.038-.091.038h-.499c-.036,0-.066-.012-.091-.038Z" fill="#455a64"/>
            <path d="M32.863,33.312c-.235-.265-.362-.612-.384-1.042-.003-.097-.005-.261-.005-.494,0-.236.002-.404.005-.505.018-.422.147-.766.387-1.031.24-.265.596-.398,1.069-.398s.829.132,1.069.398c.24.265.369.609.387,1.031.007.201.011.369.011.505s-.004.301-.011.494c-.022.43-.15.777-.384,1.042-.234.265-.592.398-1.071.398s-.837-.133-1.072-.398ZM34.434,32.864c.111-.145.17-.352.177-.62.003-.104.005-.263.005-.478s-.002-.37-.005-.467c-.007-.261-.066-.466-.177-.612-.111-.147-.278-.222-.499-.226-.222.004-.389.079-.5.226-.111.147-.17.351-.177.612-.004.097-.005.252-.005.467s.002.374.005.478c.007.268.066.475.177.62.111.145.277.217.5.217s.388-.072.499-.217Z" fill="#455a64"/>
            <path d="M39.5,33.618c-.025-.025-.038-.056-.038-.091v-2.771l-.811.623c-.022.018-.048.027-.081.027-.043,0-.077-.018-.102-.054l-.231-.301c-.018-.025-.027-.05-.027-.075,0-.043.019-.079.059-.108l1.203-.935c.039-.025.084-.038.134-.038h.483c.036,0,.066.012.091.038.025.025.038.056.038.091v3.502c0,.036-.013.066-.038.091-.025.025-.055.038-.091.038h-.499c-.036,0-.066-.012-.091-.038Z" fill="#455a64"/>
            <path d="M43.687,33.312c-.235-.265-.362-.612-.384-1.042-.003-.097-.005-.261-.005-.494,0-.236.002-.404.005-.505.018-.422.147-.766.387-1.031.24-.265.596-.398,1.069-.398s.829.132,1.069.398c.24.265.369.609.387,1.031.007.201.011.369.011.505s-.004.301-.011.494c-.022.43-.15.777-.384,1.042-.234.265-.592.398-1.071.398s-.837-.133-1.072-.398ZM45.258,32.864c.111-.145.17-.352.177-.62.003-.104.005-.263.005-.478s-.002-.37-.005-.467c-.007-.261-.066-.466-.177-.612-.111-.147-.278-.222-.499-.226-.222.004-.389.079-.5.226-.111.147-.17.351-.177.612-.004.097-.005.252-.005.467s.002.374.005.478c.007.268.066.475.177.62.111.145.277.217.5.217s.388-.072.499-.217Z" fill="#455a64"/>
            <path d="M50.324,33.618c-.025-.025-.038-.056-.038-.091v-2.771l-.811.623c-.022.018-.048.027-.081.027-.043,0-.077-.018-.102-.054l-.231-.301c-.018-.025-.027-.05-.027-.075,0-.043.019-.079.059-.108l1.203-.935c.039-.025.084-.038.134-.038h.483c.036,0,.066.012.091.038.025.025.038.056.038.091v3.502c0,.036-.013.066-.038.091-.025.025-.055.038-.091.038h-.499c-.036,0-.066-.012-.091-.038Z" fill="#455a64"/>
            <path d="M54.512,33.312c-.235-.265-.362-.612-.384-1.042-.003-.097-.005-.261-.005-.494,0-.236.002-.404.005-.505.018-.422.147-.766.387-1.031.24-.265.596-.398,1.069-.398s.829.132,1.069.398c.24.265.369.609.387,1.031.007.201.011.369.011.505s-.004.301-.011.494c-.022.43-.15.777-.384,1.042-.234.265-.592.398-1.071.398s-.837-.133-1.072-.398ZM56.083,32.864c.111-.145.17-.352.177-.62.003-.104.005-.263.005-.478s-.002-.37-.005-.467c-.007-.261-.066-.466-.177-.612-.111-.147-.278-.222-.499-.226-.222.004-.389.079-.5.226-.111.147-.17.351-.177.612-.004.097-.005.252-.005.467s.002.374.005.478c.007.268.066.475.177.62.111.145.277.217.5.217s.388-.072.499-.217Z" fill="#455a64"/>
            <path d="M61.149,33.618c-.025-.025-.037-.056-.037-.091v-2.771l-.811.623c-.022.018-.048.027-.081.027-.043,0-.077-.018-.102-.054l-.231-.301c-.018-.025-.027-.05-.027-.075,0-.043.019-.079.059-.108l1.203-.935c.039-.025.084-.038.134-.038h.483c.036,0,.066.012.091.038.025.025.038.056.038.091v3.502c0,.036-.013.066-.038.091-.025.025-.055.038-.091.038h-.499c-.036,0-.066-.012-.091-.038Z" fill="#455a64"/>
            <path d="M65.336,33.312c-.235-.265-.362-.612-.384-1.042-.003-.097-.005-.261-.005-.494,0-.236.002-.404.005-.505.018-.422.147-.766.387-1.031.24-.265.596-.398,1.069-.398s.829.132,1.069.398c.24.265.369.609.387,1.031.007.201.011.369.011.505s-.004.301-.011.494c-.022.43-.15.777-.384,1.042-.234.265-.592.398-1.071.398s-.837-.133-1.072-.398ZM66.907,32.864c.111-.145.17-.352.177-.62.003-.104.005-.263.005-.478s-.002-.37-.005-.467c-.007-.261-.066-.466-.177-.612-.111-.147-.278-.222-.499-.226-.222.004-.389.079-.5.226-.111.147-.17.351-.177.612-.004.097-.005.252-.005.467s.002.374.005.478c.007.268.066.475.177.62.111.145.277.217.5.217s.388-.072.499-.217Z" fill="#455a64"/>
            <path d="M71.973,33.618c-.025-.025-.037-.056-.037-.091v-2.771l-.811.623c-.022.018-.048.027-.081.027-.043,0-.077-.018-.102-.054l-.231-.301c-.018-.025-.027-.05-.027-.075,0-.043.019-.079.059-.108l1.203-.935c.039-.025.084-.038.134-.038h.483c.036,0,.066.012.091.038.025.025.038.056.038.091v3.502c0,.036-.013.066-.038.091-.025.025-.055.038-.091.038h-.499c-.036,0-.066-.012-.091-.038Z" fill="#455a64"/>
            <path d="M.389,39.756c-.235-.265-.363-.612-.384-1.042-.003-.097-.005-.261-.005-.494,0-.236.002-.405.005-.505.018-.422.147-.766.387-1.031.24-.265.596-.398,1.069-.398s.829.132,1.069.398c.24.265.369.609.387,1.031.007.201.011.369.011.505s-.004.301-.011.494c-.022.43-.15.777-.384,1.042-.234.265-.592.398-1.071.398s-.837-.133-1.072-.398ZM1.96,39.307c.111-.145.17-.352.177-.62.003-.104.005-.263.005-.478s-.002-.37-.005-.467c-.007-.261-.066-.466-.177-.612-.111-.147-.278-.222-.499-.226-.222.004-.389.079-.5.226-.111.147-.17.351-.177.612-.004.097-.005.252-.005.467s.002.374.005.478c.007.268.066.475.177.62.111.145.277.217.5.217s.388-.072.499-.217Z" fill="#455a64"/>
            <path d="M7.026,40.062c-.025-.025-.038-.055-.038-.091v-2.771l-.811.623c-.022.018-.048.027-.081.027-.043,0-.077-.018-.102-.054l-.231-.301c-.018-.025-.027-.05-.027-.075,0-.043.019-.079.059-.108l1.203-.935c.039-.025.084-.038.134-.038h.483c.036,0,.066.012.091.038.025.025.038.056.038.091v3.502c0,.036-.013.066-.038.091-.025.025-.055.038-.091.038h-.499c-.036,0-.066-.012-.091-.038Z" fill="#455a64"/>
            <path d="M11.214,39.756c-.235-.265-.363-.612-.384-1.042-.003-.097-.005-.261-.005-.494,0-.236.002-.405.005-.505.018-.422.147-.766.387-1.031.24-.265.596-.398,1.069-.398s.829.132,1.069.398c.24.265.369.609.387,1.031.007.201.011.369.011.505s-.004.301-.011.494c-.022.43-.15.777-.384,1.042-.234.265-.592.398-1.071.398s-.837-.133-1.072-.398ZM12.785,39.307c.111-.145.17-.352.177-.62.003-.104.005-.263.005-.478s-.002-.37-.005-.467c-.007-.261-.066-.466-.177-.612-.111-.147-.278-.222-.499-.226-.222.004-.389.079-.5.226-.111.147-.17.351-.177.612-.004.097-.005.252-.005.467s.002.374.005.478c.007.268.066.475.177.62.111.145.277.217.5.217s.388-.072.499-.217Z" fill="#455a64"/>
            <path d="M17.851,40.062c-.025-.025-.038-.055-.038-.091v-2.771l-.811.623c-.022.018-.048.027-.081.027-.043,0-.077-.018-.102-.054l-.231-.301c-.018-.025-.027-.05-.027-.075,0-.043.019-.079.059-.108l1.203-.935c.039-.025.084-.038.134-.038h.483c.036,0,.066.012.091.038.025.025.038.056.038.091v3.502c0,.036-.013.066-.038.091-.025.025-.055.038-.091.038h-.499c-.036,0-.066-.012-.091-.038Z" fill="#455a64"/>
            <path d="M22.038,39.756c-.235-.265-.363-.612-.384-1.042-.003-.097-.005-.261-.005-.494,0-.236.002-.405.005-.505.018-.422.147-.766.387-1.031.24-.265.596-.398,1.069-.398s.829.132,1.069.398c.24.265.369.609.387,1.031.007.201.011.369.011.505s-.004.301-.011.494c-.022.43-.15.777-.384,1.042-.234.265-.592.398-1.071.398s-.837-.133-1.072-.398ZM23.609,39.307c.111-.145.17-.352.177-.62.003-.104.005-.263.005-.478s-.002-.37-.005-.467c-.007-.261-.066-.466-.177-.612-.111-.147-.278-.222-.499-.226-.222.004-.389.079-.5.226-.111.147-.17.351-.177.612-.004.097-.005.252-.005.467s.002.374.005.478c.007.268.066.475.177.62.111.145.277.217.5.217s.388-.072.499-.217Z" fill="#455a64"/>
            <path d="M28.675,40.062c-.025-.025-.038-.055-.038-.091v-2.771l-.811.623c-.022.018-.048.027-.081.027-.043,0-.077-.018-.102-.054l-.231-.301c-.018-.025-.027-.05-.027-.075,0-.043.019-.079.059-.108l1.203-.935c.039-.025.084-.038.134-.038h.483c.036,0,.066.012.091.038.025.025.038.056.038.091v3.502c0,.036-.013.066-.038.091-.025.025-.055.038-.091.038h-.499c-.036,0-.066-.012-.091-.038Z" fill="#455a64"/>
            <path d="M32.863,39.756c-.235-.265-.362-.612-.384-1.042-.003-.097-.005-.261-.005-.494,0-.236.002-.405.005-.505.018-.422.147-.766.387-1.031.24-.265.596-.398,1.069-.398s.829.132,1.069.398c.24.265.369.609.387,1.031.007.201.011.369.011.505s-.004.301-.011.494c-.022.43-.15.777-.384,1.042-.234.265-.592.398-1.071.398s-.837-.133-1.072-.398ZM34.434,39.307c.111-.145.17-.352.177-.62.003-.104.005-.263.005-.478s-.002-.37-.005-.467c-.007-.261-.066-.466-.177-.612-.111-.147-.278-.222-.499-.226-.222.004-.389.079-.5.226-.111.147-.17.351-.177.612-.004.097-.005.252-.005.467s.002.374.005.478c.007.268.066.475.177.62.111.145.277.217.5.217s.388-.072.499-.217Z" fill="#455a64"/>
            <path d="M39.5,40.062c-.025-.025-.038-.055-.038-.091v-2.771l-.811.623c-.022.018-.048.027-.081.027-.043,0-.077-.018-.102-.054l-.231-.301c-.018-.025-.027-.05-.027-.075,0-.043.019-.079.059-.108l1.203-.935c.039-.025.084-.038.134-.038h.483c.036,0,.066.012.091.038.025.025.038.056.038.091v3.502c0,.036-.013.066-.038.091-.025.025-.055.038-.091.038h-.499c-.036,0-.066-.012-.091-.038Z" fill="#455a64"/>
            <path d="M43.687,39.756c-.235-.265-.362-.612-.384-1.042-.003-.097-.005-.261-.005-.494,0-.236.002-.405.005-.505.018-.422.147-.766.387-1.031.24-.265.596-.398,1.069-.398s.829.132,1.069.398c.24.265.369.609.387,1.031.007.201.011.369.011.505s-.004.301-.011.494c-.022.43-.15.777-.384,1.042-.234.265-.592.398-1.071.398s-.837-.133-1.072-.398ZM45.258,39.307c.111-.145.17-.352.177-.62.003-.104.005-.263.005-.478s-.002-.37-.005-.467c-.007-.261-.066-.466-.177-.612-.111-.147-.278-.222-.499-.226-.222.004-.389.079-.5.226-.111.147-.17.351-.177.612-.004.097-.005.252-.005.467s.002.374.005.478c.007.268.066.475.177.62.111.145.277.217.5.217s.388-.072.499-.217Z" fill="#455a64"/>
            <path d="M50.324,40.062c-.025-.025-.038-.055-.038-.091v-2.771l-.811.623c-.022.018-.048.027-.081.027-.043,0-.077-.018-.102-.054l-.231-.301c-.018-.025-.027-.05-.027-.075,0-.043.019-.079.059-.108l1.203-.935c.039-.025.084-.038.134-.038h.483c.036,0,.066.012.091.038.025.025.038.056.038.091v3.502c0,.036-.013.066-.038.091-.025.025-.055.038-.091.038h-.499c-.036,0-.066-.012-.091-.038Z" fill="#455a64"/>
            <path d="M54.512,39.756c-.235-.265-.362-.612-.384-1.042-.003-.097-.005-.261-.005-.494,0-.236.002-.405.005-.505.018-.422.147-.766.387-1.031.24-.265.596-.398,1.069-.398s.829.132,1.069.398c.24.265.369.609.387,1.031.007.201.011.369.011.505s-.004.301-.011.494c-.022.43-.15.777-.384,1.042-.234.265-.592.398-1.071.398s-.837-.133-1.072-.398ZM56.083,39.307c.111-.145.17-.352.177-.62.003-.104.005-.263.005-.478s-.002-.37-.005-.467c-.007-.261-.066-.466-.177-.612-.111-.147-.278-.222-.499-.226-.222.004-.389.079-.5.226-.111.147-.17.351-.177.612-.004.097-.005.252-.005.467s.002.374.005.478c.007.268.066.475.177.62.111.145.277.217.5.217s.388-.072.499-.217Z" fill="#455a64"/>
            <path d="M61.149,40.062c-.025-.025-.037-.055-.037-.091v-2.771l-.811.623c-.022.018-.048.027-.081.027-.043,0-.077-.018-.102-.054l-.231-.301c-.018-.025-.027-.05-.027-.075,0-.043.019-.079.059-.108l1.203-.935c.039-.025.084-.038.134-.038h.483c.036,0,.066.012.091.038.025.025.038.056.038.091v3.502c0,.036-.013.066-.038.091-.025.025-.055.038-.091.038h-.499c-.036,0-.066-.012-.091-.038Z" fill="#455a64"/>
            <path d="M65.336,39.756c-.235-.265-.362-.612-.384-1.042-.003-.097-.005-.261-.005-.494,0-.236.002-.405.005-.505.018-.422.147-.766.387-1.031.24-.265.596-.398,1.069-.398s.829.132,1.069.398c.24.265.369.609.387,1.031.007.201.011.369.011.505s-.004.301-.011.494c-.022.43-.15.777-.384,1.042-.234.265-.592.398-1.071.398s-.837-.133-1.072-.398ZM66.907,39.307c.111-.145.17-.352.177-.62.003-.104.005-.263.005-.478s-.002-.37-.005-.467c-.007-.261-.066-.466-.177-.612-.111-.147-.278-.222-.499-.226-.222.004-.389.079-.5.226-.111.147-.17.351-.177.612-.004.097-.005.252-.005.467s.002.374.005.478c.007.268.066.475.177.62.111.145.277.217.5.217s.388-.072.499-.217Z" fill="#455a64"/>
            <path d="M71.973,40.062c-.025-.025-.037-.055-.037-.091v-2.771l-.811.623c-.022.018-.048.027-.081.027-.043,0-.077-.018-.102-.054l-.231-.301c-.018-.025-.027-.05-.027-.075,0-.043.019-.079.059-.108l1.203-.935c.039-.025.084-.038.134-.038h.483c.036,0,.066.012.091.038.025.025.038.056.038.091v3.502c0,.036-.013.066-.038.091-.025.025-.055.038-.091.038h-.499c-.036,0-.066-.012-.091-.038Z" fill="#455a64"/>
            <path d="M.389,46.199c-.235-.265-.363-.612-.384-1.042-.003-.097-.005-.261-.005-.494,0-.236.002-.405.005-.505.018-.422.147-.766.387-1.031.24-.265.596-.398,1.069-.398s.829.132,1.069.398c.24.265.369.609.387,1.031.007.201.011.369.011.505s-.004.301-.011.494c-.022.43-.15.777-.384,1.042-.234.265-.592.398-1.071.398s-.837-.132-1.072-.398ZM1.96,45.75c.111-.145.17-.352.177-.62.003-.104.005-.263.005-.478s-.002-.37-.005-.467c-.007-.261-.066-.466-.177-.612-.111-.147-.278-.222-.499-.226-.222.004-.389.079-.5.226-.111.147-.17.351-.177.612-.004.097-.005.252-.005.467s.002.374.005.478c.007.268.066.475.177.62.111.145.277.217.5.217s.388-.072.499-.217Z" fill="#455a64"/>
            <path d="M7.026,46.505c-.025-.025-.038-.055-.038-.091v-2.771l-.811.623c-.022.018-.048.027-.081.027-.043,0-.077-.018-.102-.054l-.231-.301c-.018-.025-.027-.05-.027-.075,0-.043.019-.079.059-.108l1.203-.935c.039-.025.084-.038.134-.038h.483c.036,0,.066.012.091.038.025.025.038.056.038.091v3.502c0,.036-.013.067-.038.091-.025.025-.055.038-.091.038h-.499c-.036,0-.066-.013-.091-.038Z" fill="#455a64"/>
            <path d="M11.214,46.199c-.235-.265-.363-.612-.384-1.042-.003-.097-.005-.261-.005-.494,0-.236.002-.405.005-.505.018-.422.147-.766.387-1.031.24-.265.596-.398,1.069-.398s.829.132,1.069.398c.24.265.369.609.387,1.031.007.201.011.369.011.505s-.004.301-.011.494c-.022.43-.15.777-.384,1.042-.234.265-.592.398-1.071.398s-.837-.132-1.072-.398ZM12.785,45.75c.111-.145.17-.352.177-.62.003-.104.005-.263.005-.478s-.002-.37-.005-.467c-.007-.261-.066-.466-.177-.612-.111-.147-.278-.222-.499-.226-.222.004-.389.079-.5.226-.111.147-.17.351-.177.612-.004.097-.005.252-.005.467s.002.374.005.478c.007.268.066.475.177.62.111.145.277.217.5.217s.388-.072.499-.217Z" fill="#455a64"/>
            <path d="M17.851,46.505c-.025-.025-.038-.055-.038-.091v-2.771l-.811.623c-.022.018-.048.027-.081.027-.043,0-.077-.018-.102-.054l-.231-.301c-.018-.025-.027-.05-.027-.075,0-.043.019-.079.059-.108l1.203-.935c.039-.025.084-.038.134-.038h.483c.036,0,.066.012.091.038.025.025.038.056.038.091v3.502c0,.036-.013.067-.038.091-.025.025-.055.038-.091.038h-.499c-.036,0-.066-.013-.091-.038Z" fill="#455a64"/>
            <path d="M22.038,46.199c-.235-.265-.363-.612-.384-1.042-.003-.097-.005-.261-.005-.494,0-.236.002-.405.005-.505.018-.422.147-.766.387-1.031.24-.265.596-.398,1.069-.398s.829.132,1.069.398c.24.265.369.609.387,1.031.007.201.011.369.011.505s-.004.301-.011.494c-.022.43-.15.777-.384,1.042-.234.265-.592.398-1.071.398s-.837-.132-1.072-.398ZM23.609,45.75c.111-.145.17-.352.177-.62.003-.104.005-.263.005-.478s-.002-.37-.005-.467c-.007-.261-.066-.466-.177-.612-.111-.147-.278-.222-.499-.226-.222.004-.389.079-.5.226-.111.147-.17.351-.177.612-.004.097-.005.252-.005.467s.002.374.005.478c.007.268.066.475.177.62.111.145.277.217.5.217s.388-.072.499-.217Z" fill="#455a64"/>
            <path d="M28.675,46.505c-.025-.025-.038-.055-.038-.091v-2.771l-.811.623c-.022.018-.048.027-.081.027-.043,0-.077-.018-.102-.054l-.231-.301c-.018-.025-.027-.05-.027-.075,0-.043.019-.079.059-.108l1.203-.935c.039-.025.084-.038.134-.038h.483c.036,0,.066.012.091.038.025.025.038.056.038.091v3.502c0,.036-.013.067-.038.091-.025.025-.055.038-.091.038h-.499c-.036,0-.066-.013-.091-.038Z" fill="#455a64"/>
            <path d="M32.863,46.199c-.235-.265-.362-.612-.384-1.042-.003-.097-.005-.261-.005-.494,0-.236.002-.405.005-.505.018-.422.147-.766.387-1.031.24-.265.596-.398,1.069-.398s.829.132,1.069.398c.24.265.369.609.387,1.031.007.201.011.369.011.505s-.004.301-.011.494c-.022.43-.15.777-.384,1.042-.234.265-.592.398-1.071.398s-.837-.132-1.072-.398ZM34.434,45.75c.111-.145.17-.352.177-.62.003-.104.005-.263.005-.478s-.002-.37-.005-.467c-.007-.261-.066-.466-.177-.612-.111-.147-.278-.222-.499-.226-.222.004-.389.079-.5.226-.111.147-.17.351-.177.612-.004.097-.005.252-.005.467s.002.374.005.478c.007.268.066.475.177.62.111.145.277.217.5.217s.388-.072.499-.217Z" fill="#455a64"/>
            <path d="M39.5,46.505c-.025-.025-.038-.055-.038-.091v-2.771l-.811.623c-.022.018-.048.027-.081.027-.043,0-.077-.018-.102-.054l-.231-.301c-.018-.025-.027-.05-.027-.075,0-.043.019-.079.059-.108l1.203-.935c.039-.025.084-.038.134-.038h.483c.036,0,.066.012.091.038.025.025.038.056.038.091v3.502c0,.036-.013.067-.038.091-.025.025-.055.038-.091.038h-.499c-.036,0-.066-.013-.091-.038Z" fill="#455a64"/>
            <path d="M43.687,46.199c-.235-.265-.362-.612-.384-1.042-.003-.097-.005-.261-.005-.494,0-.236.002-.405.005-.505.018-.422.147-.766.387-1.031.24-.265.596-.398,1.069-.398s.829.132,1.069.398c.24.265.369.609.387,1.031.007.201.011.369.011.505s-.004.301-.011.494c-.022.43-.15.777-.384,1.042-.234.265-.592.398-1.071.398s-.837-.132-1.072-.398ZM45.258,45.75c.111-.145.17-.352.177-.62.003-.104.005-.263.005-.478s-.002-.37-.005-.467c-.007-.261-.066-.466-.177-.612-.111-.147-.278-.222-.499-.226-.222.004-.389.079-.5.226-.111.147-.17.351-.177.612-.004.097-.005.252-.005.467s.002.374.005.478c.007.268.066.475.177.62.111.145.277.217.5.217s.388-.072.499-.217Z" fill="#455a64"/>
            <path d="M50.324,46.505c-.025-.025-.038-.055-.038-.091v-2.771l-.811.623c-.022.018-.048.027-.081.027-.043,0-.077-.018-.102-.054l-.231-.301c-.018-.025-.027-.05-.027-.075,0-.043.019-.079.059-.108l1.203-.935c.039-.025.084-.038.134-.038h.483c.036,0,.066.012.091.038.025.025.038.056.038.091v3.502c0,.036-.013.067-.038.091-.025.025-.055.038-.091.038h-.499c-.036,0-.066-.013-.091-.038Z" fill="#455a64"/>
            <path d="M54.512,46.199c-.235-.265-.362-.612-.384-1.042-.003-.097-.005-.261-.005-.494,0-.236.002-.405.005-.505.018-.422.147-.766.387-1.031.24-.265.596-.398,1.069-.398s.829.132,1.069.398c.24.265.369.609.387,1.031.007.201.011.369.011.505s-.004.301-.011.494c-.022.43-.15.777-.384,1.042-.234.265-.592.398-1.071.398s-.837-.132-1.072-.398ZM56.083,45.75c.111-.145.17-.352.177-.62.003-.104.005-.263.005-.478s-.002-.37-.005-.467c-.007-.261-.066-.466-.177-.612-.111-.147-.278-.222-.499-.226-.222.004-.389.079-.5.226-.111.147-.17.351-.177.612-.004.097-.005.252-.005.467s.002.374.005.478c.007.268.066.475.177.62.111.145.277.217.5.217s.388-.072.499-.217Z" fill="#455a64"/>
            <path d="M61.149,46.505c-.025-.025-.037-.055-.037-.091v-2.771l-.811.623c-.022.018-.048.027-.081.027-.043,0-.077-.018-.102-.054l-.231-.301c-.018-.025-.027-.05-.027-.075,0-.043.019-.079.059-.108l1.203-.935c.039-.025.084-.038.134-.038h.483c.036,0,.066.012.091.038.025.025.038.056.038.091v3.502c0,.036-.013.067-.038.091-.025.025-.055.038-.091.038h-.499c-.036,0-.066-.013-.091-.038Z" fill="#455a64"/>
            <path d="M65.336,46.199c-.235-.265-.362-.612-.384-1.042-.003-.097-.005-.261-.005-.494,0-.236.002-.405.005-.505.018-.422.147-.766.387-1.031.24-.265.596-.398,1.069-.398s.829.132,1.069.398c.24.265.369.609.387,1.031.007.201.011.369.011.505s-.004.301-.011.494c-.022.43-.15.777-.384,1.042-.234.265-.592.398-1.071.398s-.837-.132-1.072-.398ZM66.907,45.75c.111-.145.17-.352.177-.62.003-.104.005-.263.005-.478s-.002-.37-.005-.467c-.007-.261-.066-.466-.177-.612-.111-.147-.278-.222-.499-.226-.222.004-.389.079-.5.226-.111.147-.17.351-.177.612-.004.097-.005.252-.005.467s.002.374.005.478c.007.268.066.475.177.62.111.145.277.217.5.217s.388-.072.499-.217Z" fill="#455a64"/>
            <path d="M71.973,46.505c-.025-.025-.037-.055-.037-.091v-2.771l-.811.623c-.022.018-.048.027-.081.027-.043,0-.077-.018-.102-.054l-.231-.301c-.018-.025-.027-.05-.027-.075,0-.043.019-.079.059-.108l1.203-.935c.039-.025.084-.038.134-.038h.483c.036,0,.066.012.091.038.025.025.038.056.038.091v3.502c0,.036-.013.067-.038.091-.025.025-.055.038-.091.038h-.499c-.036,0-.066-.013-.091-.038Z" fill="#455a64"/>
            <path d="M.389,52.642c-.235-.265-.363-.612-.384-1.042-.003-.096-.005-.261-.005-.494,0-.236.002-.405.005-.505.018-.422.147-.766.387-1.031.24-.265.596-.398,1.069-.398s.829.132,1.069.398c.24.265.369.609.387,1.031.007.201.011.369.011.505s-.004.301-.011.494c-.022.43-.15.777-.384,1.042-.234.265-.592.398-1.071.398s-.837-.132-1.072-.398ZM1.96,52.194c.111-.145.17-.352.177-.62.003-.104.005-.263.005-.478s-.002-.37-.005-.467c-.007-.261-.066-.466-.177-.612-.111-.147-.278-.222-.499-.226-.222.004-.389.079-.5.226-.111.147-.17.351-.177.612-.004.097-.005.252-.005.467s.002.374.005.478c.007.268.066.475.177.62.111.145.277.217.5.217s.388-.072.499-.217Z" fill="#455a64"/>
            <path d="M7.026,52.948c-.025-.025-.038-.055-.038-.091v-2.771l-.811.623c-.022.018-.048.027-.081.027-.043,0-.077-.018-.102-.054l-.231-.301c-.018-.025-.027-.05-.027-.075,0-.043.019-.079.059-.108l1.203-.935c.039-.025.084-.038.134-.038h.483c.036,0,.066.013.091.038.025.025.038.055.038.091v3.502c0,.036-.013.066-.038.091-.025.025-.055.038-.091.038h-.499c-.036,0-.066-.013-.091-.038Z" fill="#455a64"/>
            <path d="M11.214,52.642c-.235-.265-.363-.612-.384-1.042-.003-.096-.005-.261-.005-.494,0-.236.002-.405.005-.505.018-.422.147-.766.387-1.031.24-.265.596-.398,1.069-.398s.829.132,1.069.398c.24.265.369.609.387,1.031.007.201.011.369.011.505s-.004.301-.011.494c-.022.43-.15.777-.384,1.042-.234.265-.592.398-1.071.398s-.837-.132-1.072-.398ZM12.785,52.194c.111-.145.17-.352.177-.62.003-.104.005-.263.005-.478s-.002-.37-.005-.467c-.007-.261-.066-.466-.177-.612-.111-.147-.278-.222-.499-.226-.222.004-.389.079-.5.226-.111.147-.17.351-.177.612-.004.097-.005.252-.005.467s.002.374.005.478c.007.268.066.475.177.62.111.145.277.217.5.217s.388-.072.499-.217Z" fill="#455a64"/>
            <path d="M17.851,52.948c-.025-.025-.038-.055-.038-.091v-2.771l-.811.623c-.022.018-.048.027-.081.027-.043,0-.077-.018-.102-.054l-.231-.301c-.018-.025-.027-.05-.027-.075,0-.043.019-.079.059-.108l1.203-.935c.039-.025.084-.038.134-.038h.483c.036,0,.066.013.091.038.025.025.038.055.038.091v3.502c0,.036-.013.066-.038.091-.025.025-.055.038-.091.038h-.499c-.036,0-.066-.013-.091-.038Z" fill="#455a64"/>
            <path d="M22.038,52.642c-.235-.265-.363-.612-.384-1.042-.003-.096-.005-.261-.005-.494,0-.236.002-.405.005-.505.018-.422.147-.766.387-1.031.24-.265.596-.398,1.069-.398s.829.132,1.069.398c.24.265.369.609.387,1.031.007.201.011.369.011.505s-.004.301-.011.494c-.022.43-.15.777-.384,1.042-.234.265-.592.398-1.071.398s-.837-.132-1.072-.398ZM23.609,52.194c.111-.145.17-.352.177-.62.003-.104.005-.263.005-.478s-.002-.37-.005-.467c-.007-.261-.066-.466-.177-.612-.111-.147-.278-.222-.499-.226-.222.004-.389.079-.5.226-.111.147-.17.351-.177.612-.004.097-.005.252-.005.467s.002.374.005.478c.007.268.066.475.177.62.111.145.277.217.5.217s.388-.072.499-.217Z" fill="#455a64"/>
            <path d="M28.675,52.948c-.025-.025-.038-.055-.038-.091v-2.771l-.811.623c-.022.018-.048.027-.081.027-.043,0-.077-.018-.102-.054l-.231-.301c-.018-.025-.027-.05-.027-.075,0-.043.019-.079.059-.108l1.203-.935c.039-.025.084-.038.134-.038h.483c.036,0,.066.013.091.038.025.025.038.055.038.091v3.502c0,.036-.013.066-.038.091-.025.025-.055.038-.091.038h-.499c-.036,0-.066-.013-.091-.038Z" fill="#455a64"/>
            <path d="M32.863,52.642c-.235-.265-.362-.612-.384-1.042-.003-.096-.005-.261-.005-.494,0-.236.002-.405.005-.505.018-.422.147-.766.387-1.031.24-.265.596-.398,1.069-.398s.829.132,1.069.398c.24.265.369.609.387,1.031.007.201.011.369.011.505s-.004.301-.011.494c-.022.43-.15.777-.384,1.042-.234.265-.592.398-1.071.398s-.837-.132-1.072-.398ZM34.434,52.194c.111-.145.17-.352.177-.62.003-.104.005-.263.005-.478s-.002-.37-.005-.467c-.007-.261-.066-.466-.177-.612-.111-.147-.278-.222-.499-.226-.222.004-.389.079-.5.226-.111.147-.17.351-.177.612-.004.097-.005.252-.005.467s.002.374.005.478c.007.268.066.475.177.62.111.145.277.217.5.217s.388-.072.499-.217Z" fill="#455a64"/>
            <path d="M39.5,52.948c-.025-.025-.038-.055-.038-.091v-2.771l-.811.623c-.022.018-.048.027-.081.027-.043,0-.077-.018-.102-.054l-.231-.301c-.018-.025-.027-.05-.027-.075,0-.043.019-.079.059-.108l1.203-.935c.039-.025.084-.038.134-.038h.483c.036,0,.066.013.091.038.025.025.038.055.038.091v3.502c0,.036-.013.066-.038.091-.025.025-.055.038-.091.038h-.499c-.036,0-.066-.013-.091-.038Z" fill="#455a64"/>
            <path d="M43.687,52.642c-.235-.265-.362-.612-.384-1.042-.003-.096-.005-.261-.005-.494,0-.236.002-.405.005-.505.018-.422.147-.766.387-1.031.24-.265.596-.398,1.069-.398s.829.132,1.069.398c.24.265.369.609.387,1.031.007.201.011.369.011.505s-.004.301-.011.494c-.022.43-.15.777-.384,1.042-.234.265-.592.398-1.071.398s-.837-.132-1.072-.398ZM45.258,52.194c.111-.145.17-.352.177-.62.003-.104.005-.263.005-.478s-.002-.37-.005-.467c-.007-.261-.066-.466-.177-.612-.111-.147-.278-.222-.499-.226-.222.004-.389.079-.5.226-.111.147-.17.351-.177.612-.004.097-.005.252-.005.467s.002.374.005.478c.007.268.066.475.177.62.111.145.277.217.5.217s.388-.072.499-.217Z" fill="#455a64"/>
            <path d="M50.324,52.948c-.025-.025-.038-.055-.038-.091v-2.771l-.811.623c-.022.018-.048.027-.081.027-.043,0-.077-.018-.102-.054l-.231-.301c-.018-.025-.027-.05-.027-.075,0-.043.019-.079.059-.108l1.203-.935c.039-.025.084-.038.134-.038h.483c.036,0,.066.013.091.038.025.025.038.055.038.091v3.502c0,.036-.013.066-.038.091-.025.025-.055.038-.091.038h-.499c-.036,0-.066-.013-.091-.038Z" fill="#455a64"/>
            <path d="M54.512,52.642c-.235-.265-.362-.612-.384-1.042-.003-.096-.005-.261-.005-.494,0-.236.002-.405.005-.505.018-.422.147-.766.387-1.031.24-.265.596-.398,1.069-.398s.829.132,1.069.398c.24.265.369.609.387,1.031.007.201.011.369.011.505s-.004.301-.011.494c-.022.43-.15.777-.384,1.042-.234.265-.592.398-1.071.398s-.837-.132-1.072-.398ZM56.083,52.194c.111-.145.17-.352.177-.62.003-.104.005-.263.005-.478s-.002-.37-.005-.467c-.007-.261-.066-.466-.177-.612-.111-.147-.278-.222-.499-.226-.222.004-.389.079-.5.226-.111.147-.17.351-.177.612-.004.097-.005.252-.005.467s.002.374.005.478c.007.268.066.475.177.62.111.145.277.217.5.217s.388-.072.499-.217Z" fill="#455a64"/>
            <path d="M61.149,52.948c-.025-.025-.037-.055-.037-.091v-2.771l-.811.623c-.022.018-.048.027-.081.027-.043,0-.077-.018-.102-.054l-.231-.301c-.018-.025-.027-.05-.027-.075,0-.043.019-.079.059-.108l1.203-.935c.039-.025.084-.038.134-.038h.483c.036,0,.066.013.091.038.025.025.038.055.038.091v3.502c0,.036-.013.066-.038.091-.025.025-.055.038-.091.038h-.499c-.036,0-.066-.013-.091-.038Z" fill="#455a64"/>
            <path d="M65.336,52.642c-.235-.265-.362-.612-.384-1.042-.003-.096-.005-.261-.005-.494,0-.236.002-.405.005-.505.018-.422.147-.766.387-1.031.24-.265.596-.398,1.069-.398s.829.132,1.069.398c.24.265.369.609.387,1.031.007.201.011.369.011.505s-.004.301-.011.494c-.022.43-.15.777-.384,1.042-.234.265-.592.398-1.071.398s-.837-.132-1.072-.398ZM66.907,52.194c.111-.145.17-.352.177-.62.003-.104.005-.263.005-.478s-.002-.37-.005-.467c-.007-.261-.066-.466-.177-.612-.111-.147-.278-.222-.499-.226-.222.004-.389.079-.5.226-.111.147-.17.351-.177.612-.004.097-.005.252-.005.467s.002.374.005.478c.007.268.066.475.177.62.111.145.277.217.5.217s.388-.072.499-.217Z" fill="#455a64"/>
            <path d="M71.973,52.948c-.025-.025-.037-.055-.037-.091v-2.771l-.811.623c-.022.018-.048.027-.081.027-.043,0-.077-.018-.102-.054l-.231-.301c-.018-.025-.027-.05-.027-.075,0-.043.019-.079.059-.108l1.203-.935c.039-.025.084-.038.134-.038h.483c.036,0,.066.013.091.038.025.025.038.055.038.091v3.502c0,.036-.013.066-.038.091-.025.025-.055.038-.091.038h-.499c-.036,0-.066-.013-.091-.038Z" fill="#455a64"/>
          </g>
        </g>
        <path d="M50.684,35.879c3.603,4.769,8.394,10.313,9.186,11.105,1.362,1.362,3.575,1.352,4.937-.01s1.372-3.575.01-4.937c-.792-.792-6.336-5.583-11.105-9.186l-3.029,3.029Z" fill="#ffa14e"/>
      </g>
    </g>
  </g>
</svg>