<?xml version="1.0" encoding="UTF-8"?>
<svg id="Layer_2" data-name="Layer 2" xmlns="http://www.w3.org/2000/svg" viewBox="0 0 48 48">
  <g id="Icons">
    <g id="_46" data-name="46">
      <path d="M48,1.18v6.45H0V1.18C0,.528.528,0,1.18,0h45.64c.652,0,1.18.528,1.18,1.18Z" fill="#455a64"/>
      <path d="M48,5.929v40.895c0,.65-.527,1.176-1.176,1.176H1.176c-.649,0-1.176-.526-1.176-1.176V5.929h48Z" fill="#d9defb"/>
      <rect y="5.929" width="48" height="4.662" fill="#c5cced"/>
      <path d="M19.695,5.93l-1.48-3.51c-.184-.436-.611-.719-1.084-.719H4.177c-.649,0-1.176.526-1.176,1.176v3.053h16.694Z" fill="#c5cced"/>
      <rect x="4.61" y="14.037" width="10.539" height="1.958" fill="#c5cced"/>
      <rect x="8.561" y="17.663" width="10.539" height="1.958" fill="#c5cced"/>
      <rect x="21.007" y="17.663" width="7.521" height="1.958" fill="#c5cced"/>
      <rect x="29.709" y="17.663" width="14.113" height="1.958" fill="#c5cced"/>
      <rect x="7.348" y="21.289" width="10.539" height="1.958" fill="#c5cced"/>
      <rect x="20.098" y="21.289" width="23.724" height="1.958" fill="#c5cced"/>
      <g>
        <path d="M18.97,38.548l-4.763-3.26c-.141-.094-.244-.188-.309-.281-.065-.094-.098-.206-.098-.337v-.338c0-.131.03-.243.091-.337.061-.094.166-.191.316-.295l4.763-3.246c.103-.084.197-.126.281-.126.084,0,.152.025.204.077.051.052.077.124.077.218v1.082c0,.122-.028.218-.084.288-.056.07-.145.147-.267.231l-3.4,2.276,3.4,2.276c.122.084.211.161.267.231.056.07.084.162.084.274v1.096c0,.084-.028.152-.084.204-.056.052-.122.077-.197.077-.094,0-.187-.037-.281-.112Z" fill="#f45558"/>
        <path d="M20.867,40.53c-.056-.057-.084-.127-.084-.211,0-.057.009-.108.028-.155l4.777-11.479c.037-.074.093-.143.168-.203.075-.062.169-.092.281-.092h.913c.084,0,.155.028.211.085.056.056.084.126.084.21,0,.057-.009.108-.028.155l-4.806,11.479c-.028.074-.077.142-.147.203-.07.061-.166.092-.288.092h-.913c-.075,0-.141-.028-.197-.084Z" fill="#f45558"/>
        <path d="M28.566,38.583c-.056-.052-.084-.12-.084-.204v-1.096c0-.112.028-.204.084-.274.056-.07.145-.147.267-.231l3.4-2.276-3.4-2.276c-.122-.084-.211-.161-.267-.231-.056-.07-.084-.166-.084-.288v-1.082c0-.094.028-.166.084-.218.056-.052.122-.077.197-.077.084,0,.178.042.281.126l4.763,3.246c.15.103.255.201.316.295.061.094.091.206.091.337v.338c0,.131-.033.243-.098.337-.065.094-.168.188-.309.281l-4.763,3.26c-.094.075-.187.112-.281.112-.075,0-.141-.025-.197-.077Z" fill="#f45558"/>
      </g>
    </g>
  </g>
</svg>