<?xml version="1.0" encoding="UTF-8"?>
<svg id="Layer_2" data-name="Layer 2" xmlns="http://www.w3.org/2000/svg" viewBox="0 0 47.999 48.036">
  <g id="Icons">
    <g id="_119" data-name="119">
      <rect y="4.043" width="47.999" height="35.415" rx="2.376" ry="2.376" fill="#455a64"/>
      <rect x="3.314" y="7.357" width="41.371" height="26.025" fill="#d9defb"/>
      <polygon points="3.314 33.382 44.685 7.357 44.685 33.382 3.314 33.382" fill="#c5cced"/>
      <g>
        <path d="M31.15,39.458h-14.301c-.495,1.967-1.186,3.99-2.424,5.94h19.149c-1.238-1.95-1.929-3.973-2.424-5.94Z" fill="#384c54"/>
        <path d="M35.853,46.715h0c0,.729-.591,1.32-1.32,1.32H13.466c-.729,0-1.32-.591-1.32-1.32h0c0-.729.591-1.32,1.32-1.32h21.066c.729,0,1.32.591,1.32,1.32Z" fill="#455a64"/>
      </g>
      <path d="M25.353,36.425c0,.745-.603,1.348-1.348,1.348-.756,0-1.359-.603-1.359-1.348s.603-1.359,1.359-1.359c.745,0,1.348.614,1.348,1.359Z" fill="#d9defb"/>
      <g>
        <path d="M24.952,18.277c1.374-1.291,3.491-1.273,4.769.005,1.273,1.273,1.291,3.39,0,4.764-1.343,1.429-8.8,4.886-7.718,2.954,2.911-5.194,1.52-6.38,2.948-7.723Z" fill="#f45558"/>
        <path d="M32.697,17.5c1.653-1.074,3.812-2.803,6.183-5.047C44.469,7.166,48.918,1.247,47.835.163c-1.083-1.083-7.002,3.366-12.29,8.954-2.244,2.371-3.972,4.531-5.047,6.184l2.198,2.198Z" fill="#a96c79"/>
        <polygon points="27.827 17.353 30.85 14.751 33.248 17.149 30.645 20.172 27.827 17.353" fill="#ffd54f"/>
      </g>
    </g>
  </g>
</svg>