<?xml version="1.0" encoding="UTF-8"?>
<svg id="Layer_2" data-name="Layer 2" xmlns="http://www.w3.org/2000/svg" viewBox="0 0 48 38.915">
  <g id="Icons">
    <g id="_256" data-name="256">
      <g>
        <path d="M48,18.312c-13.246,15.443-34.74,15.443-48,.017v-.017c13.26-15.426,34.74-15.426,48,0Z" fill="#d9defb"/>
        <path d="M34.047,18.319c0,5.54-4.493,10.047-10.047,10.047s-10.047-4.507-10.047-10.047,4.493-10.047,10.047-10.047,10.047,4.493,10.047,10.047Z" fill="#455a64"/>
        <circle cx="24" cy="18.319" r="8.659" transform="translate(-5.924 22.336) rotate(-45)" fill="#5bb774"/>
        <g>
          <g>
            <path d="M29.183,11.387h-4.334v-.663h3.314c.358.199.702.411,1.021.663Z" fill="#ffd54f"/>
            <path d="M30.972,13.19h-7.409l-1.339,1.339-.477-.464,1.538-1.538h7.144c.199.212.384.437.543.663Z" fill="#ffd54f"/>
          </g>
          <g>
            <path d="M23.152,25.252v.663h-3.314c-.345-.199-.676-.411-.994-.663h4.308Z" fill="#ffd54f"/>
            <path d="M26.24,22.574l-1.524,1.538h-7.131c-.199-.212-.384-.437-.543-.663h7.396l1.339-1.339.464.464Z" fill="#ffd54f"/>
          </g>
          <g>
            <path d="M31.595,19.168v3.3c-.199.358-.411.703-.663,1.021v-4.321h.663Z" fill="#ffd54f"/>
            <path d="M29.792,17.604v7.131c-.212.199-.437.384-.663.543v-7.396l-1.339-1.339.464-.477,1.537,1.538Z" fill="#ffd54f"/>
          </g>
          <g>
            <path d="M17.068,13.15v4.321h-.663v-3.314c.186-.345.411-.689.663-1.007Z" fill="#ffd54f"/>
            <path d="M20.209,20.096l-.464.464-1.537-1.537v-7.131c.212-.199.437-.384.663-.543v7.409l1.339,1.339Z" fill="#ffd54f"/>
          </g>
        </g>
        <path d="M27.271,18.323c0,1.768-1.434,3.207-3.207,3.207s-3.207-1.438-3.207-3.207,1.434-3.207,3.207-3.207,3.207,1.434,3.207,3.207Z" fill="#455a64"/>
        <path d="M22.396,16.382c0,.737-.586,1.323-1.308,1.323-.737,0-1.323-.586-1.323-1.323s.586-1.323,1.323-1.323c.722,0,1.308.586,1.308,1.323Z" fill="#fff"/>
        <path d="M20.729,20.122c0,.515-.416.93-.93.93s-.93-.416-.93-.93.416-.931.93-.931.93.416.93.931Z" fill="#ffd54f"/>
        <circle cx="16.736" cy="17.841" r=".93" fill="#ffd54f"/>
        <path d="M22.197,15.048c-.515,0-.93-.416-.93-.93s.416-.93.93-.93.93.416.93.93-.416.93-.93.93Z" fill="#ffd54f"/>
        <path d="M24.477,11.986c-.515,0-.93-.416-.93-.93s.416-.93.93-.93.93.416.93.93-.416.93-.93.93Z" fill="#ffd54f"/>
        <path d="M27.271,16.516c0-.515.416-.93.93-.93s.93.416.93.93-.416.931-.93.931-.93-.416-.93-.931Z" fill="#ffd54f"/>
        <path d="M30.333,18.797c0-.515.416-.93.93-.93s.93.416.93.93-.416.931-.93.931-.93-.416-.93-.931Z" fill="#ffd54f"/>
        <path d="M25.803,21.59c.515,0,.93.416.93.93s-.416.93-.93.93-.93-.416-.93-.93.416-.93.93-.93Z" fill="#ffd54f"/>
        <path d="M23.522,24.652c.515,0,.93.416.93.93s-.416.93-.93.93-.93-.416-.93-.93.416-.93.93-.93Z" fill="#ffd54f"/>
      </g>
      <polygon points="5.766 7.17 4.441 7.17 4.441 0 11.611 0 11.611 1.325 5.766 1.325 5.766 7.17" fill="#455a64"/>
      <polygon points="43.356 7.17 42.031 7.17 42.031 1.325 36.187 1.325 36.187 0 43.356 0 43.356 7.17" fill="#455a64"/>
      <polygon points="43.356 38.915 36.187 38.915 36.187 37.59 42.031 37.59 42.031 31.745 43.356 31.745 43.356 38.915" fill="#455a64"/>
      <polygon points="11.611 38.915 4.441 38.915 4.441 31.745 5.766 31.745 5.766 37.59 11.611 37.59 11.611 38.915" fill="#455a64"/>
    </g>
  </g>
</svg>