<?xml version="1.0" encoding="UTF-8"?>
<svg id="Layer_2" data-name="Layer 2" xmlns="http://www.w3.org/2000/svg" viewBox="0 0 48 48">
  <g id="Icons">
    <g id="_82" data-name="82">
      <rect x="14.945" y="34.256" width="2.256" height="10.504" fill="#455a64"/>
      <path d="M0,19.152c0,4.157,3.38,7.537,7.537,7.537h32.926c4.173,0,7.537-3.38,7.537-7.537s-3.364-7.537-7.537-7.537c-.159,0-.333,0-.492.016-.079-3.332-2.809-6.014-6.173-6.014-.762,0-1.492.143-2.158.397-1.047-3.475-4.284-6.014-8.108-6.014-3.713,0-6.871,2.396-7.997,5.728-.381-.079-.762-.111-1.158-.111-3.348,0-6.077,2.682-6.157,6.03-.222-.016-.46-.032-.682-.032-4.157,0-7.537,3.38-7.537,7.537Z" fill="#d9defb"/>
      <g>
        <rect x="10.296" y="15.979" width="11.554" height="23.918" rx="1.269" ry="1.269" fill="#2196f3"/>
        <g>
          <rect x="11.825" y="17.923" width="8.5" height="1.89" fill="#455a64"/>
          <rect x="11.825" y="20.873" width="8.5" height="1.89" fill="#455a64"/>
          <rect x="11.825" y="23.823" width="8.5" height="1.89" fill="#455a64"/>
        </g>
        <path d="M19.951,28.742c0,.517-.431.933-.948.933s-.933-.416-.933-.933.416-.948.933-.948.948.431.948.948Z" fill="#ffd54f"/>
        <path d="M16.707,28.742c0,.517-.431.933-.948.933s-.933-.416-.933-.933.416-.948.933-.948.948.431.948.948Z" fill="#d9defb"/>
        <path d="M18.321,34.498c0,1.244-1.005,2.261-2.248,2.261s-2.248-1.017-2.248-2.261,1.005-2.248,2.248-2.248,2.248,1.005,2.248,2.248Z" fill="#1792e5"/>
        <path d="M17.541,34.501c0,.817-.653,1.48-1.47,1.48-.806,0-1.47-.664-1.47-1.48,0-.807.664-1.47,1.47-1.47.817,0,1.47.663,1.47,1.47Z" fill="#d9defb"/>
      </g>
      <rect x="31.905" y="34.256" width="2.256" height="10.504" fill="#455a64"/>
      <rect x="7.263" y="44.413" width="34.58" height="2.256" fill="#455a64"/>
      <g>
        <rect x="27.256" y="15.979" width="11.554" height="23.918" rx="1.269" ry="1.269" fill="#f45558"/>
        <g>
          <rect x="28.785" y="23.823" width="8.5" height="1.89" fill="#455a64"/>
          <rect x="28.785" y="17.923" width="8.5" height="1.89" fill="#455a64"/>
          <rect x="28.785" y="20.873" width="8.5" height="1.89" fill="#455a64"/>
        </g>
        <path d="M36.91,28.742c0,.517-.431.933-.948.933s-.933-.416-.933-.933.416-.948.933-.948.948.431.948.948Z" fill="#ffd54f"/>
        <path d="M33.667,28.742c0,.517-.431.933-.948.933s-.933-.416-.933-.933.416-.948.933-.948.948.431.948.948Z" fill="#d9defb"/>
        <path d="M35.281,34.498c0,1.244-1.005,2.261-2.248,2.261s-2.249-1.017-2.249-2.261,1.005-2.248,2.249-2.248,2.248,1.005,2.248,2.248Z" fill="#e5454d"/>
        <path d="M34.501,34.501c0,.817-.653,1.48-1.47,1.48-.806,0-1.47-.664-1.47-1.48,0-.807.664-1.47,1.47-1.47.817,0,1.47.663,1.47,1.47Z" fill="#d9defb"/>
      </g>
      <path d="M35.482,45.532c0,1.361-1.089,2.468-2.451,2.468-1.344,0-2.451-1.106-2.451-2.468,0-1.345,1.106-2.451,2.451-2.451,1.362,0,2.451,1.106,2.451,2.451Z" fill="#ffd54f"/>
      <path d="M18.522,45.532c0,1.361-1.089,2.468-2.451,2.468-1.344,0-2.451-1.106-2.451-2.468,0-1.345,1.106-2.451,2.451-2.451,1.361,0,2.451,1.106,2.451,2.451Z" fill="#ffd54f"/>
    </g>
  </g>
</svg>