<?xml version="1.0" encoding="UTF-8"?>
<svg id="Layer_2" data-name="Layer 2" xmlns="http://www.w3.org/2000/svg" viewBox="0 0 48 43.627">
  <g id="Icons">
    <g id="_18" data-name="18">
      <path d="M2.132,0h43.735c1.177,0,2.132.956,2.132,2.132v31.245c0,1.177-.956,2.132-2.132,2.132H2.133c-1.177,0-2.133-.956-2.133-2.133V2.132C0,.956.956,0,2.132,0Z" fill="#455a64"/>
      <rect x="3" y="3" width="42" height="25.644" fill="#fff"/>
      <g>
        <rect x="33.52" y="16.796" width="5.37" height="1.04" fill="#455a64"/>
        <rect x="9.21" y="16.796" width="5.38" height="1.04" fill="#455a64"/>
        <polygon points="10.87 19.836 14.9 19.836 14.9 20.876 11.3 20.876 9.2 22.976 8.47 22.236 10.87 19.836" fill="#455a64"/>
        <rect x="31.51" y="13.846" width="5.38" height="1.04" fill="#455a64"/>
        <polygon points="36.74 11.876 32.71 11.876 32.71 10.836 36.31 10.836 38.4 8.736 39.14 9.476 36.74 11.876" fill="#455a64"/>
        <polygon points="39.65 22.236 38.92 22.976 36.82 20.876 33.22 20.876 33.22 19.836 37.25 19.836 39.65 22.236" fill="#455a64"/>
        <polygon points="10.98 11.876 8.58 9.476 9.31 8.736 11.41 10.836 15.01 10.836 15.01 11.876 10.98 11.876" fill="#455a64"/>
        <rect x="11.22" y="13.846" width="5.37" height="1.04" fill="#455a64"/>
      </g>
      <path d="M36.1,14.374c0-.848.683-1.532,1.526-1.532s1.526.683,1.526,1.532c0,.837-.683,1.52-1.526,1.52s-1.526-.683-1.526-1.52Z" fill="#ffa14e"/>
      <path d="M38.105,17.327c0-.848.683-1.532,1.526-1.532s1.526.683,1.526,1.532c0,.837-.683,1.52-1.526,1.52s-1.526-.683-1.526-1.52Z" fill="#2196f3"/>
      <path d="M12.008,14.374c0-.848-.683-1.532-1.526-1.532s-1.526.683-1.526,1.532c0,.837.683,1.52,1.526,1.52s1.526-.683,1.526-1.52Z" fill="#5bb774"/>
      <path d="M10.003,17.327c0-.848-.683-1.532-1.526-1.532s-1.526.683-1.526,1.532c0,.837.683,1.52,1.526,1.52s1.526-.683,1.526-1.52Z" fill="#f45558"/>
      <path d="M9.31,9.475c.6-.6.6-1.566.004-2.162s-1.562-.596-2.162.004c-.592.592-.592,1.558.004,2.154s1.562.596,2.154.004Z" fill="#ffa14e"/>
      <path d="M38.409,9.475c-.6-.6-.6-1.566-.004-2.162s1.562-.596,2.162.004c.592.592.592,1.558-.004,2.154s-1.562.596-2.154.004Z" fill="#5bb774"/>
      <path d="M9.199,22.236c.6.6.6,1.566.004,2.162s-1.562.596-2.162-.004c-.592-.592-.592-1.558.004-2.154.596-.596,1.562-.596,2.154-.004Z" fill="#2196f3"/>
      <path d="M38.921,22.236c-.6.6-.6,1.566-.004,2.162s1.562.596,2.162-.004c.592-.592.592-1.558-.004-2.154-.596-.596-1.562-.596-2.154-.004Z" fill="#f45558"/>
      <polygon points="30.879 35.51 33.199 40.937 14.801 40.937 17.121 35.51 30.879 35.51" fill="#384c54"/>
      <path d="M35.993,42.287c0,.74-.6,1.34-1.35,1.34H13.357c-.75,0-1.35-.6-1.35-1.34,0-.75.6-1.35,1.35-1.35h21.285c.75,0,1.35.6,1.35,1.35Z" fill="#455a64"/>
      <g>
        <g>
          <g>
            <rect x="31.966" y="10.328" width="1.057" height="1.994" fill="#ffd54f"/>
            <rect x="33.023" y="10.71" width=".994" height="1.229" fill="#f2c341"/>
          </g>
          <g>
            <rect x="31.966" y="13.326" width="1.057" height="1.993" fill="#ffd54f"/>
            <rect x="33.023" y="13.708" width=".994" height="1.229" fill="#f2c341"/>
          </g>
          <g>
            <rect x="31.966" y="16.324" width="1.057" height="1.993" fill="#ffd54f"/>
            <rect x="33.023" y="16.706" width=".994" height="1.229" fill="#f2c341"/>
          </g>
          <g>
            <rect x="31.966" y="19.322" width="1.057" height="1.994" fill="#ffd54f"/>
            <rect x="33.023" y="19.705" width=".994" height="1.229" fill="#f2c341"/>
          </g>
        </g>
        <g>
          <g>
            <rect x="14.977" y="10.328" width="1.057" height="1.994" fill="#ffd54f"/>
            <rect x="13.983" y="10.71" width=".994" height="1.229" fill="#f2c341"/>
          </g>
          <g>
            <rect x="14.977" y="13.326" width="1.057" height="1.993" fill="#ffd54f"/>
            <rect x="13.983" y="13.708" width=".994" height="1.229" fill="#f2c341"/>
          </g>
          <g>
            <rect x="14.977" y="16.324" width="1.057" height="1.993" fill="#ffd54f"/>
            <rect x="13.983" y="16.706" width=".994" height="1.229" fill="#f2c341"/>
          </g>
          <g>
            <rect x="14.977" y="19.322" width="1.057" height="1.994" fill="#ffd54f"/>
            <rect x="13.983" y="19.705" width=".994" height="1.229" fill="#f2c341"/>
          </g>
        </g>
        <g>
          <g>
            <rect x="27.5" y="23.788" width="1.994" height="1.057" fill="#ffd54f"/>
            <rect x="27.883" y="24.845" width="1.229" height=".994" fill="#f2c341"/>
          </g>
          <g>
            <rect x="24.502" y="23.788" width="1.994" height="1.057" fill="#ffd54f"/>
            <rect x="24.885" y="24.845" width="1.229" height=".994" fill="#f2c341"/>
          </g>
          <g>
            <rect x="21.504" y="23.788" width="1.993" height="1.057" fill="#ffd54f"/>
            <rect x="21.886" y="24.845" width="1.229" height=".994" fill="#f2c341"/>
          </g>
          <g>
            <rect x="18.506" y="23.788" width="1.993" height="1.057" fill="#ffd54f"/>
            <rect x="18.888" y="24.845" width="1.229" height=".994" fill="#f2c341"/>
          </g>
        </g>
        <g>
          <g>
            <rect x="27.5" y="6.799" width="1.994" height="1.057" fill="#ffd54f"/>
            <rect x="27.883" y="5.805" width="1.229" height=".994" fill="#f2c341"/>
          </g>
          <g>
            <rect x="24.502" y="6.799" width="1.994" height="1.057" fill="#ffd54f"/>
            <rect x="24.885" y="5.805" width="1.229" height=".994" fill="#f2c341"/>
          </g>
          <g>
            <rect x="21.504" y="6.799" width="1.993" height="1.057" fill="#ffd54f"/>
            <rect x="21.886" y="5.805" width="1.229" height=".994" fill="#f2c341"/>
          </g>
          <g>
            <rect x="18.506" y="6.799" width="1.993" height="1.057" fill="#ffd54f"/>
            <rect x="18.888" y="5.805" width="1.229" height=".994" fill="#f2c341"/>
          </g>
        </g>
        <rect x="16.034" y="7.856" width="15.932" height="15.932" rx="1.798" ry="1.798" fill="#f45558"/>
        <path d="M30.276,22.097h-12.552v-9.735c1.1-1.1,1.717-1.717,2.817-2.817h9.735v12.551Z" fill="#e5454d"/>
        <path d="M18.763,9.781c0,.443-.356.804-.799.804s-.804-.361-.804-.804.361-.799.804-.799.799.356.799.799Z" fill="#d9defb"/>
      </g>
      <path d="M25.683,32.075c0,.932-.751,1.683-1.683,1.683s-1.683-.751-1.683-1.683.751-1.683,1.683-1.683,1.683.751,1.683,1.683Z" fill="#384c54"/>
    </g>
  </g>
</svg>