<?xml version="1.0" encoding="UTF-8"?>
<svg id="Layer_2" data-name="Layer 2" xmlns="http://www.w3.org/2000/svg" viewBox="0 0 38.401 48">
  <g id="Icons">
    <g id="_136" data-name="136">
      <g>
        <rect y="44.205" width="38.401" height="2.842" fill="#ffd54f"/>
        <rect x="17.78" y="30.406" width="2.842" height="15.531" fill="#ffd54f"/>
        <rect x="16.827" y="40.024" width="4.746" height="3.586" fill="#455a64"/>
        <rect x="14.227" y="43.253" width="9.947" height="4.747" fill="#455a64"/>
      </g>
      <path d="M11.285,0h15.83c.976,0,1.767.792,1.767,1.767v32.617c0,.976-.792,1.768-1.768,1.768h-15.83c-.976,0-1.768-.792-1.768-1.768V1.767c0-.976.792-1.767,1.767-1.767Z" fill="#2196f3"/>
      <g>
        <rect x="11.683" y="3.302" width="15.035" height="3.327" rx=".342" ry=".342" fill="#d9defb"/>
        <rect x="11.683" y="8.36" width="15.035" height="3.327" rx=".342" ry=".342" fill="#d9defb"/>
      </g>
      <g>
        <rect x="11.972" y="13.194" width="3.911" height="1.371" fill="#455a64"/>
        <rect x="17.245" y="13.194" width="3.911" height="1.371" fill="#455a64"/>
        <rect x="22.517" y="13.194" width="3.911" height="1.371" fill="#455a64"/>
      </g>
      <g>
        <path d="M24.105,21.593c0,1.727-1.415,3.142-3.142,3.142-1.74,0-3.142-1.415-3.142-3.142s1.402-3.142,3.142-3.142c1.727,0,3.142,1.415,3.142,3.142Z" fill="#455a64"/>
        <path d="M23.299,21.593c0,1.284-1.052,2.336-2.336,2.336-1.294,0-2.336-1.052-2.336-2.336s1.043-2.336,2.336-2.336c1.284,0,2.336,1.052,2.336,2.336Z" fill="#d9defb"/>
        <path d="M22.512,21.593c0,.851-.698,1.549-1.549,1.549-.857,0-1.549-.697-1.549-1.549s.691-1.549,1.549-1.549c.851,0,1.549.698,1.549,1.549Z" fill="#455a64"/>
        <rect x="20.475" y="19.065" width=".976" height="2.529" fill="#455a64"/>
      </g>
      <g>
        <rect x="12.807" y="27.574" width="12.788" height="1.2" fill="#1792e5"/>
        <rect x="12.807" y="29.849" width="12.788" height="1.2" fill="#1792e5"/>
        <rect x="12.807" y="32.123" width="12.788" height="1.2" fill="#1792e5"/>
      </g>
      <circle cx="13.632" cy="19.049" r="1.409" fill="#ffd54f"/>
      <circle cx="13.632" cy="23.09" r="1.409" fill="#d9defb"/>
    </g>
  </g>
</svg>