<?xml version="1.0" encoding="UTF-8"?>
<svg id="Layer_2" data-name="Layer 2" xmlns="http://www.w3.org/2000/svg" viewBox="0 0 47.992 47.998">
  <g id="Icons">
    <g id="_55" data-name="55">
      <g>
        <g>
          <path d="M26.82,13.678c0,7.259-5.884,13.142-13.142,13.142S.535,20.936.535,13.678,6.419.535,13.677.535s13.142,5.884,13.142,13.143Z" fill="#d9defb"/>
          <path d="M13.677,27.355C6.136,27.355,0,21.219,0,13.678S6.136,0,13.677,0s13.678,6.136,13.678,13.678-6.136,13.677-13.678,13.677ZM13.677,1.07C6.725,1.07,1.07,6.726,1.07,13.678s5.655,12.607,12.607,12.607,12.608-5.656,12.608-12.607S20.629,1.07,13.677,1.07Z" fill="#2196f3"/>
          <g>
            <path d="M13.681,6.931c-3.126,0-6.18-1.081-8.6-3.044l.674-.831c2.229,1.809,5.044,2.805,7.926,2.805,2.923,0,5.664-.97,7.925-2.805l.674.831c-2.419,1.963-5.474,3.044-8.599,3.044Z" fill="#2196f3"/>
            <path d="M21.615,24.306c-2.267-1.84-5.01-2.813-7.934-2.813s-5.667.973-7.934,2.813l-.674-.831c2.459-1.997,5.436-3.052,8.608-3.052s6.149,1.055,8.608,3.052l-.674.831Z" fill="#2196f3"/>
          </g>
          <path d="M13.677,27.355c-4.118,0-7.344-6.008-7.344-13.677S9.559,0,13.677,0s7.344,6.008,7.344,13.678-3.226,13.677-7.344,13.677ZM13.677,1.07c-3.401,0-6.274,5.773-6.274,12.608s2.873,12.607,6.274,12.607,6.274-5.774,6.274-12.607S17.078,1.07,13.677,1.07Z" fill="#2196f3"/>
          <rect x="13.142" y=".535" width="1.07" height="26.285" fill="#2196f3"/>
          <rect x=".535" y="13.143" width="26.285" height="1.07" fill="#2196f3"/>
        </g>
        <g>
          <polygon points="39.968 43.901 40.885 46.625 32.686 46.625 33.604 43.901 39.968 43.901" fill="#384c54"/>
          <g>
            <rect x="25.579" y="27.408" width="22.413" height="16.493" rx="1.054" ry="1.054" fill="#455a64"/>
            <rect x="27.397" y="29.226" width="18.777" height="11.343" fill="#d9defb"/>
          </g>
          <path d="M41.995,47.312h0c0,.379-.307.686-.686.686h-9.045c-.379,0-.686-.307-.686-.686h0c0-.379.307-.686.686-.686h9.045c.379,0,.686.307.686.686Z" fill="#455a64"/>
        </g>
      </g>
      <g>
        <g>
          <path d="M44.502,23.892c-.552,0-1-.448-1-1v-13.207c0-1.916-1.559-3.475-3.475-3.475h-9.495c-.552,0-1-.448-1-1s.448-1,1-1h9.495c3.018,0,5.475,2.456,5.475,5.475v13.207c0,.552-.448,1-1,1Z" fill="#f45558"/>
          <path d="M30.829,7.868l-4.024-2.324c-.257-.148-.257-.52,0-.668l4.024-2.324c.257-.149.579.037.579.334v4.647c0,.297-.321.483-.579.334Z" fill="#f45558"/>
        </g>
        <g>
          <path d="M3.49,26.606c.552,0,1,.448,1,1v10.707c0,1.916,1.559,3.475,3.475,3.475h9.495c.552,0,1,.448,1,1s-.448,1-1,1H7.965c-3.018,0-5.475-2.456-5.475-5.475v-10.707c0-.552.448-1,1-1Z" fill="#f45558"/>
          <path d="M17.163,40.13l4.024,2.324c.257.148.257.52,0,.668l-4.024,2.324c-.257.148-.579-.037-.579-.334v-4.647c0-.297.321-.482.579-.334Z" fill="#f45558"/>
        </g>
      </g>
    </g>
  </g>
</svg>