<?xml version="1.0" encoding="UTF-8"?>
<svg id="Layer_2" data-name="Layer 2" xmlns="http://www.w3.org/2000/svg" viewBox="0 0 48 43.95">
  <g id="Icons">
    <g id="_166" data-name="166">
      <polygon points="30.767 35.761 33.58 41.641 14.42 41.641 17.232 35.761 30.767 35.761" fill="#384c54"/>
      <rect y="0" width="48" height="35.756" rx="3.419" ry="3.419" fill="#455a64"/>
      <rect x="3.229" y="3.229" width="41.541" height="26.015" rx=".19" ry=".19" fill="#d9defb"/>
      <path d="M35.715,42.792c0,.633-.513,1.158-1.146,1.158H13.443c-.633,0-1.158-.525-1.158-1.158s.525-1.146,1.158-1.146h21.126c.633,0,1.146.513,1.146,1.146Z" fill="#455a64"/>
      <path d="M25.481,32.514c0,.822-.666,1.488-1.474,1.488-.822,0-1.488-.666-1.488-1.488s.666-1.488,1.488-1.488c.808,0,1.474.666,1.474,1.488Z" fill="#384c54"/>
      <path d="M11.446,7.988h25.107c.412,0,.746.334.746.746v5.417c0,.412-.334.746-.746.746H11.447c-.412,0-.747-.335-.747-.747v-5.417c0-.412.334-.746.746-.746Z" fill="#f45558"/>
      <rect x="10.7" y="17.574" width="26.6" height="6.91" rx=".746" ry=".746" fill="#f45558"/>
      <g>
        <path d="M16.21,13.347c-.025-.026-.039-.057-.039-.094v-3.62c0-.041.014-.073.039-.097.026-.024.058-.036.095-.036h.522c.041,0,.073.012.098.036.023.024.036.057.036.097v3.087h1.76c.041,0,.074.013.1.039.026.026.039.058.039.094v.4c0,.037-.013.068-.039.094-.025.026-.059.039-.1.039h-2.415c-.037,0-.068-.013-.095-.039Z" fill="#fff"/>
        <path d="M19.664,13.059c-.282-.255-.43-.635-.444-1.138-.004-.107-.006-.265-.006-.472,0-.211.002-.37.006-.477.015-.492.166-.87.455-1.133.289-.263.679-.394,1.172-.394.488,0,.878.131,1.168.394.291.263.443.641.458,1.133.008.214.012.373.012.477,0,.1-.004.257-.012.472-.015.503-.163.883-.446,1.138-.283.255-.677.383-1.18.383-.508,0-.901-.128-1.183-.383ZM21.435,12.576c.144-.148.223-.376.233-.683.007-.222.011-.372.011-.45,0-.085-.004-.235-.011-.45-.011-.303-.091-.53-.239-.68-.147-.15-.342-.225-.582-.225-.245,0-.441.075-.589.225-.148.15-.226.377-.233.68-.004.107-.006.257-.006.45,0,.189.002.339.006.45.008.304.084.53.23.68s.344.225.592.225.443-.074.588-.222Z" fill="#fff"/>
        <path d="M23.531,13.048c-.283-.263-.434-.629-.452-1.099-.004-.107-.006-.279-.006-.516s.002-.409.006-.517c.015-.459.166-.819.455-1.08.289-.261.685-.391,1.188-.391.34,0,.634.058.88.175s.432.261.558.433c.126.172.192.341.2.508,0,.034-.012.061-.033.083-.023.022-.052.033-.089.033h-.583c-.037,0-.065-.007-.084-.022-.019-.015-.035-.039-.05-.072-.052-.137-.142-.253-.271-.35-.13-.096-.306-.144-.527-.144-.26,0-.462.069-.608.208s-.223.354-.23.647c-.004.107-.006.27-.006.489,0,.214.002.377.006.488.008.3.085.521.233.664.147.143.352.214.61.214.263,0,.474-.07.633-.211.159-.141.239-.352.239-.633v-.172h-.678c-.037,0-.068-.013-.094-.039-.026-.026-.039-.057-.039-.094v-.305c0-.037.013-.069.039-.095.025-.026.057-.039.094-.039h1.333c.04,0,.073.013.1.039.026.026.039.058.039.095v.588c0,.307-.068.575-.206.802-.137.227-.331.402-.582.524-.252.123-.547.184-.883.184-.511,0-.908-.131-1.191-.395Z" fill="#fff"/>
        <path d="M27.137,13.347c-.025-.026-.039-.057-.039-.094v-3.62c0-.041.014-.073.039-.097.026-.024.058-.036.095-.036h.533c.04,0,.072.012.097.036.024.024.036.057.036.097v3.62c0,.037-.012.068-.036.094-.024.026-.057.039-.097.039h-.533c-.037,0-.068-.013-.095-.039Z" fill="#fff"/>
        <path d="M28.802,13.347c-.025-.026-.039-.057-.039-.094v-3.614c0-.041.013-.074.036-.1.024-.026.057-.039.098-.039h.433c.07,0,.124.032.161.095l1.588,2.465v-2.42c0-.041.013-.074.036-.1.024-.026.057-.039.098-.039h.477c.04,0,.073.013.1.039.025.026.039.059.039.1v3.609c0,.041-.014.074-.039.1-.026.026-.058.039-.095.039h-.438c-.074,0-.13-.031-.166-.094l-1.583-2.41v2.371c0,.037-.012.068-.036.094-.023.026-.056.039-.097.039h-.478c-.037,0-.068-.013-.095-.039Z" fill="#fff"/>
      </g>
      <g>
        <path d="M14.349,22.168c-.057-.037-.085-.095-.085-.17,0-.037.012-.075.038-.113l.047-.067.652-.567-.859-.076-.076-.019c-.05-.013-.088-.045-.113-.099-.025-.053-.032-.109-.018-.165l.218-.662c.012-.05.045-.088.098-.113.055-.026.106-.032.156-.019.02,0,.045.012.077.037l.736.435-.18-.841-.01-.075c0-.051.022-.098.061-.142.042-.044.09-.066.146-.066h.692c.056,0,.105.022.146.066.04.044.062.092.062.142l-.01.075-.189.841.746-.435.076-.037c.012-.007.028-.009.046-.009.052,0,.096.013.138.037.04.025.065.06.07.104l.228.662.008.057c0,.044-.013.087-.042.128-.028.041-.065.067-.11.08l-.065.019-.869.086.652.557c.038.038.056.061.056.067.025.038.038.076.038.113,0,.076-.028.133-.085.17l-.559.416c-.038.019-.078.029-.123.029-.081,0-.138-.026-.17-.076-.007-.007-.013-.014-.018-.024-.007-.009-.017-.023-.028-.042l-.341-.804-.351.804c-.012.019-.022.033-.028.042-.005.01-.012.017-.018.024-.032.05-.088.076-.169.076-.045,0-.085-.01-.123-.029l-.549-.416Z" fill="#fff"/>
        <path d="M18.555,22.168c-.057-.037-.085-.095-.085-.17,0-.037.012-.075.038-.113l.047-.067.652-.567-.859-.076-.076-.019c-.05-.013-.088-.045-.113-.099-.025-.053-.032-.109-.018-.165l.218-.662c.012-.05.045-.088.098-.113.055-.026.106-.032.156-.019.02,0,.045.012.077.037l.736.435-.18-.841-.01-.075c0-.051.022-.098.061-.142.042-.044.09-.066.146-.066h.692c.056,0,.105.022.146.066.04.044.062.092.062.142l-.01.075-.189.841.746-.435.076-.037c.012-.007.028-.009.046-.009.052,0,.096.013.138.037.04.025.065.06.07.104l.228.662.008.057c0,.044-.013.087-.042.128-.028.041-.065.067-.11.08l-.065.019-.869.086.652.557c.038.038.056.061.056.067.025.038.038.076.038.113,0,.076-.028.133-.085.17l-.559.416c-.038.019-.078.029-.123.029-.081,0-.138-.026-.17-.076-.007-.007-.013-.014-.018-.024-.007-.009-.017-.023-.028-.042l-.341-.804-.351.804c-.012.019-.022.033-.028.042-.005.01-.012.017-.018.024-.032.05-.088.076-.169.076-.045,0-.085-.01-.123-.029l-.549-.416Z" fill="#fff"/>
        <path d="M22.761,22.168c-.057-.037-.085-.095-.085-.17,0-.037.012-.075.038-.113l.047-.067.652-.567-.859-.076-.076-.019c-.05-.013-.088-.045-.113-.099-.025-.053-.032-.109-.018-.165l.218-.662c.012-.05.045-.088.098-.113.055-.026.106-.032.156-.019.02,0,.045.012.077.037l.736.435-.18-.841-.01-.075c0-.051.022-.098.061-.142.042-.044.09-.066.146-.066h.692c.056,0,.105.022.146.066.04.044.062.092.062.142l-.01.075-.189.841.746-.435.076-.037c.012-.007.028-.009.046-.009.052,0,.096.013.138.037.04.025.065.06.07.104l.228.662.008.057c0,.044-.013.087-.042.128-.028.041-.065.067-.11.08l-.065.019-.869.086.652.557c.038.038.056.061.056.067.025.038.038.076.038.113,0,.076-.028.133-.085.17l-.559.416c-.038.019-.078.029-.123.029-.081,0-.138-.026-.17-.076-.007-.007-.013-.014-.018-.024-.007-.009-.017-.023-.028-.042l-.341-.804-.351.804c-.012.019-.022.033-.028.042-.005.01-.012.017-.018.024-.032.05-.088.076-.169.076-.045,0-.085-.01-.123-.029l-.549-.416Z" fill="#fff"/>
        <path d="M26.967,22.168c-.057-.037-.085-.095-.085-.17,0-.037.012-.075.038-.113l.047-.067.652-.567-.859-.076-.076-.019c-.05-.013-.088-.045-.113-.099-.025-.053-.032-.109-.018-.165l.218-.662c.012-.05.045-.088.098-.113.055-.026.106-.032.156-.019.02,0,.045.012.077.037l.736.435-.18-.841-.01-.075c0-.051.022-.098.061-.142.042-.044.09-.066.146-.066h.692c.056,0,.105.022.146.066.04.044.062.092.062.142l-.01.075-.189.841.746-.435.076-.037c.012-.007.028-.009.046-.009.052,0,.096.013.138.037.04.025.065.06.07.104l.228.662.008.057c0,.044-.013.087-.042.128-.028.041-.065.067-.11.08l-.065.019-.869.086.652.557c.038.038.056.061.056.067.025.038.038.076.038.113,0,.076-.028.133-.085.17l-.559.416c-.038.019-.078.029-.123.029-.081,0-.138-.026-.17-.076-.007-.007-.013-.014-.018-.024-.007-.009-.017-.023-.028-.042l-.341-.804-.351.804c-.012.019-.022.033-.028.042-.005.01-.012.017-.018.024-.032.05-.088.076-.169.076-.045,0-.085-.01-.123-.029l-.549-.416Z" fill="#fff"/>
        <path d="M31.173,22.168c-.057-.037-.085-.095-.085-.17,0-.037.012-.075.038-.113l.047-.067.652-.567-.859-.076-.076-.019c-.05-.013-.088-.045-.113-.099-.025-.053-.032-.109-.018-.165l.218-.662c.012-.05.045-.088.098-.113.055-.026.106-.032.156-.019.02,0,.045.012.077.037l.736.435-.18-.841-.01-.075c0-.051.022-.098.061-.142.042-.044.09-.066.146-.066h.692c.056,0,.105.022.146.066.04.044.062.092.062.142l-.01.075-.189.841.746-.435.076-.037c.012-.007.028-.009.046-.009.052,0,.096.013.138.037.04.025.065.06.07.104l.228.662.008.057c0,.044-.013.087-.042.128-.028.041-.065.067-.11.08l-.065.019-.869.086.652.557c.038.038.056.061.056.067.025.038.038.076.038.113,0,.076-.028.133-.085.17l-.559.416c-.038.019-.078.029-.123.029-.081,0-.138-.026-.17-.076-.007-.007-.013-.014-.018-.024-.007-.009-.017-.023-.028-.042l-.341-.804-.351.804c-.012.019-.022.033-.028.042-.005.01-.012.017-.018.024-.032.05-.088.076-.169.076-.045,0-.085-.01-.123-.029l-.549-.416Z" fill="#fff"/>
      </g>
    </g>
  </g>
</svg>