<?xml version="1.0" encoding="UTF-8"?>
<svg id="Layer_2" data-name="Layer 2" xmlns="http://www.w3.org/2000/svg" viewBox="0 0 48.002 37.361">
  <g id="Icons">
    <g id="_105" data-name="105">
      <rect width="41.84" height="26.65" rx="2" ry="2" fill="#2196f3"/>
      <rect y="4.835" width="41.84" height="5.251" fill="#455a64"/>
      <g>
        <path d="M48.002,16.848v6.741c0,5.943-4.305,11.392-11.07,13.772-6.748-2.38-11.053-7.828-11.053-13.772v-6.741l11.053-5.861,11.07,5.861Z" fill="#ffd54f"/>
        <path d="M36.933,34.687c-5.225-2.138-8.554-6.418-8.554-11.098v-5.237l8.554-4.536,8.568,4.537v5.236c0,4.681-3.334,8.961-8.568,11.098Z" fill="#f45558"/>
        <path d="M35.449,28.129c-.298,0-.596-.114-.824-.341l-2.441-2.441c-.455-.454-.455-1.192,0-1.647.455-.455,1.192-.455,1.647,0l1.618,1.617,4.601-4.601c.455-.455,1.192-.455,1.647,0s.455,1.192,0,1.647l-5.424,5.424c-.228.227-.526.341-.824.341Z" fill="#fff"/>
      </g>
      <rect x="3.51" y="21.471" width="15.69" height="1.38" fill="#d9defb"/>
      <rect x="3.51" y="18.565" width="10.234" height="1.38" fill="#d9defb"/>
    </g>
  </g>
</svg>