<?xml version="1.0" encoding="UTF-8"?>
<svg id="Layer_2" data-name="Layer 2" xmlns="http://www.w3.org/2000/svg" viewBox="0 0 47.69 37.036">
  <g id="Icons">
    <g id="_180" data-name="180">
      <g>
        <rect x="7.661" width="40.029" height="25.955" rx="1.021" ry="1.021" fill="#f45558"/>
        <rect x="7.661" y="4.368" width="40.029" height="5.149" fill="#455a64"/>
        <g>
          <rect x="36.349" y="12.972" width="11.341" height="1.16" fill="#d9defb"/>
          <circle cx="35.6" cy="13.564" r="1.288" fill="#d9defb"/>
          <rect x="36.349" y="20.945" width="11.341" height="1.16" fill="#d9defb"/>
          <circle cx="35.6" cy="21.537" r="1.288" fill="#d9defb"/>
          <g>
            <rect x="23.776" y="18.916" width="4.987" height="1.16" fill="#d9defb"/>
            <path d="M24.316,19.508c0,.714-.574,1.288-1.288,1.288s-1.288-.574-1.288-1.288.574-1.288,1.288-1.288,1.288.574,1.288,1.288Z" fill="#d9defb"/>
            <circle cx="29.619" cy="19.508" r="1.288" fill="#d9defb"/>
          </g>
          <polygon points="47.69 17.598 47.69 18.758 33.685 18.758 34.042 17.598 47.69 17.598" fill="#d9defb"/>
          <rect x="32.046" y="14.8" width="1.16" height="4.157" transform="translate(-2.379 28.014) rotate(-45)" fill="#d9defb"/>
          <polygon points="31.567 14.998 31.551 16.159 27.394 16.159 27.394 14.998 31.567 14.998" fill="#d9defb"/>
          <path d="M28.152,15.601c0,.714-.574,1.288-1.288,1.288s-1.288-.574-1.288-1.288.574-1.288,1.288-1.288,1.288.574,1.288,1.288Z" fill="#d9defb"/>
        </g>
      </g>
      <g>
        <path d="M17.058,18.841h-3.481v-4.442c0-2.065-1.667-3.744-3.742-3.744-2.064,0-3.743,1.679-3.743,3.744v4.442h-3.481v-4.442c0-3.984,3.241-7.225,7.224-7.225s7.223,3.234,7.223,7.225v4.442Z" fill="#d9defb"/>
        <g>
          <rect x="2.61" y="17.05" width="3.481" height="1.791" fill="#c5cced"/>
          <rect x="13.577" y="17.05" width="3.481" height="1.791" fill="#c5cced"/>
        </g>
        <rect y="18.841" width="19.668" height="18.195" rx="2.052" ry="2.052" fill="#ffd54f"/>
        <path d="M11.02,28.564l.418,3.075h-3.202l.406-3.075c-.685-.406-1.137-1.149-1.137-1.996,0-1.288,1.044-2.332,2.332-2.332,1.276,0,2.321,1.044,2.321,2.332,0,.847-.453,1.59-1.137,1.996Z" fill="#455a64"/>
      </g>
    </g>
  </g>
</svg>