<?xml version="1.0" encoding="UTF-8"?>
<svg id="Layer_2" data-name="Layer 2" xmlns="http://www.w3.org/2000/svg" viewBox="0 0 31.28 48">
  <g id="Icons">
    <g id="_268" data-name="268">
      <rect x="0" width="24.93" height="48" rx="2.408" ry="2.408" fill="#a96c79"/>
      <path d="M24.93,34.96h-9.44c-.6-.55-1.39-.88-2.27-.88-1.86,0-3.37,1.51-3.37,3.38,0,1.86,1.51,3.37,3.37,3.37.88,0,1.67-.33,2.26-.87h9.45v-5Z" fill="#9b5f6f"/>
      <circle cx="13.223" cy="37.458" r="6.74" fill="#9b5f6f"/>
      <g>
        <path d="M8.64,5.153c0,.519-.418.937-.926.937h-3.094c-.519,0-.937-.418-.937-.937,0-.508.418-.937.937-.937h3.094c.508,0,.926.429.926.937Z" fill="#9b5f6f"/>
        <path d="M15.337,5.153c0,.519-.418.937-.926.937h-3.094c-.52,0-.937-.418-.937-.937,0-.508.418-.937.937-.937h3.094c.508,0,.926.429.926.937Z" fill="#9b5f6f"/>
        <path d="M22.033,5.153c0,.519-.418.937-.926.937h-3.094c-.519,0-.937-.418-.937-.937,0-.508.418-.937.937-.937h3.094c.508,0,.926.429.926.937Z" fill="#9b5f6f"/>
        <path d="M8.64,8.659c0,.519-.418.937-.926.937h-3.094c-.519,0-.937-.418-.937-.937,0-.508.418-.937.937-.937h3.094c.508,0,.926.429.926.937Z" fill="#9b5f6f"/>
        <path d="M15.337,8.659c0,.519-.418.937-.926.937h-3.094c-.52,0-.937-.418-.937-.937,0-.508.418-.937.937-.937h3.094c.508,0,.926.429.926.937Z" fill="#9b5f6f"/>
        <path d="M22.033,8.659c0,.519-.418.937-.926.937h-3.094c-.519,0-.937-.418-.937-.937,0-.508.418-.937.937-.937h3.094c.508,0,.926.429.926.937Z" fill="#9b5f6f"/>
        <path d="M8.64,12.166c0,.52-.418.937-.926.937h-3.094c-.519,0-.937-.418-.937-.937,0-.508.418-.937.937-.937h3.094c.508,0,.926.429.926.937Z" fill="#9b5f6f"/>
        <path d="M15.337,12.166c0,.52-.418.937-.926.937h-3.094c-.52,0-.937-.418-.937-.937,0-.508.418-.937.937-.937h3.094c.508,0,.926.429.926.937Z" fill="#9b5f6f"/>
        <path d="M22.033,12.166c0,.52-.418.937-.926.937h-3.094c-.519,0-.937-.418-.937-.937,0-.508.418-.937.937-.937h3.094c.508,0,.926.429.926.937Z" fill="#9b5f6f"/>
        <path d="M8.64,15.673c0,.52-.418.937-.926.937h-3.094c-.519,0-.937-.418-.937-.937,0-.508.418-.937.937-.937h3.094c.508,0,.926.429.926.937Z" fill="#9b5f6f"/>
        <path d="M15.337,15.673c0,.52-.418.937-.926.937h-3.094c-.52,0-.937-.418-.937-.937,0-.508.418-.937.937-.937h3.094c.508,0,.926.429.926.937Z" fill="#9b5f6f"/>
        <path d="M22.033,15.673c0,.52-.418.937-.926.937h-3.094c-.519,0-.937-.418-.937-.937,0-.508.418-.937.937-.937h3.094c.508,0,.926.429.926.937Z" fill="#9b5f6f"/>
      </g>
      <g>
        <path d="M8.247,4.784c0,.52-.418.937-.926.937h-3.094c-.519,0-.937-.418-.937-.937,0-.508.418-.937.937-.937h3.094c.508,0,.926.429.926.937Z" fill="#d9defb"/>
        <path d="M14.944,4.784c0,.52-.418.937-.926.937h-3.094c-.519,0-.937-.418-.937-.937,0-.508.418-.937.937-.937h3.094c.508,0,.926.429.926.937Z" fill="#d9defb"/>
        <path d="M21.64,4.784c0,.52-.418.937-.926.937h-3.094c-.519,0-.937-.418-.937-.937,0-.508.418-.937.937-.937h3.094c.508,0,.926.429.926.937Z" fill="#d9defb"/>
        <path d="M8.247,8.291c0,.52-.418.937-.926.937h-3.094c-.519,0-.937-.418-.937-.937,0-.508.418-.937.937-.937h3.094c.508,0,.926.429.926.937Z" fill="#d9defb"/>
        <path d="M14.944,8.291c0,.52-.418.937-.926.937h-3.094c-.519,0-.937-.418-.937-.937,0-.508.418-.937.937-.937h3.094c.508,0,.926.429.926.937Z" fill="#d9defb"/>
        <path d="M21.64,8.291c0,.52-.418.937-.926.937h-3.094c-.519,0-.937-.418-.937-.937,0-.508.418-.937.937-.937h3.094c.508,0,.926.429.926.937Z" fill="#d9defb"/>
        <path d="M8.247,11.797c0,.52-.418.937-.926.937h-3.094c-.519,0-.937-.418-.937-.937,0-.508.418-.937.937-.937h3.094c.508,0,.926.429.926.937Z" fill="#d9defb"/>
        <path d="M14.944,11.797c0,.52-.418.937-.926.937h-3.094c-.519,0-.937-.418-.937-.937,0-.508.418-.937.937-.937h3.094c.508,0,.926.429.926.937Z" fill="#d9defb"/>
        <path d="M21.64,11.797c0,.52-.418.937-.926.937h-3.094c-.519,0-.937-.418-.937-.937,0-.508.418-.937.937-.937h3.094c.508,0,.926.429.926.937Z" fill="#d9defb"/>
        <path d="M8.247,15.304c0,.52-.418.937-.926.937h-3.094c-.519,0-.937-.418-.937-.937,0-.508.418-.937.937-.937h3.094c.508,0,.926.429.926.937Z" fill="#d9defb"/>
        <path d="M14.944,15.304c0,.52-.418.937-.926.937h-3.094c-.519,0-.937-.418-.937-.937,0-.508.418-.937.937-.937h3.094c.508,0,.926.429.926.937Z" fill="#d9defb"/>
        <path d="M21.64,15.304c0,.52-.418.937-.926.937h-3.094c-.519,0-.937-.418-.937-.937,0-.508.418-.937.937-.937h3.094c.508,0,.926.429.926.937Z" fill="#d9defb"/>
      </g>
      <rect x="3.29" y="18.977" width="18.35" height="7.614" rx=".993" ry=".993" fill="#ffd54f"/>
      <circle cx="12.465" cy="36.7" r="6.74" fill="#d9defb"/>
      <path d="M19.21,36.7c0,1.18-.3,2.29-.83,3.26h-4.78v-5h5.38c.15.55.23,1.14.23,1.74Z" fill="#c5cced"/>
      <path d="M16.599,37.458c0,1.863-1.513,3.376-3.376,3.376s-3.376-1.512-3.376-3.376,1.513-3.376,3.376-3.376,3.376,1.508,3.376,3.376Z" fill="#c5cced"/>
      <path d="M20.647,27.091H4.283c-.823,0-1.493-.67-1.493-1.493v-5.627c0-.823.67-1.493,1.493-1.493h16.364c.823,0,1.493.67,1.493,1.493v5.627c0,.823-.67,1.493-1.493,1.493ZM4.283,19.477c-.272,0-.493.221-.493.493v5.627c0,.272.222.493.493.493h16.364c.272,0,.493-.221.493-.493v-5.627c0-.272-.222-.493-.493-.493H4.283Z" fill="#9b5f6f"/>
      <path d="M31.28,36.7h0c0,1.382-1.12,2.503-2.503,2.503h-15.937v-5.006h15.937c1.382,0,2.503,1.121,2.503,2.503Z" fill="#455a64"/>
      <path d="M16.96,36.7c0,.92-.28,1.78-.76,2.5h-3.36v-5h3.36c.48.71.76,1.57.76,2.5Z" fill="#384c54"/>
      <path d="M15.841,36.7c0,1.863-1.513,3.376-3.376,3.376s-3.376-1.512-3.376-3.376,1.513-3.376,3.376-3.376,3.376,1.507,3.376,3.376Z" fill="#455a64"/>
      <rect x="5.08" y="24.19" width="14.77" height=".78" fill="#f45558"/>
    </g>
  </g>
</svg>