<?xml version="1.0" encoding="UTF-8"?>
<svg id="Layer_2" data-name="Layer 2" xmlns="http://www.w3.org/2000/svg" viewBox="0 0 48 31.495">
  <g id="Icons">
    <g id="_232" data-name="232">
      <rect x="23.215" y="2.554" width="1.57" height="6.677" fill="#d9defb"/>
      <path d="M39.938,12.368l-7.737-1.273c-2.15-.354-4.155-1.312-5.78-2.763h0c-1.379-1.231-3.463-1.231-4.842,0h0c-1.625,1.451-3.63,2.409-5.78,2.763l-7.737,1.273h31.876Z" fill="#455a64"/>
      <path d="M16.86,31.495c-.359,0-.65-.291-.65-.65v-1.159c0-1.486.439-2.924,1.27-4.156l2.738-4.057c.201-.298.608-.374.902-.175.298.201.377.605.175.903l-2.736,4.056c-.686,1.017-1.048,2.203-1.048,3.429v1.159c0,.359-.291.65-.65.65Z" fill="#384c54"/>
      <path d="M31.139,31.495c-.359,0-.65-.291-.65-.65v-1.159c0-1.227-.362-2.413-1.049-3.43l-2.735-4.056c-.202-.298-.123-.702.175-.903.293-.199.701-.123.902.175l2.736,4.056c.832,1.233,1.271,2.67,1.271,4.157v1.159c0,.359-.291.65-.65.65Z" fill="#384c54"/>
      <path d="M27.527,25.849v.961c0,1.948-1.579,3.527-3.527,3.527h0c-1.948,0-3.527-1.579-3.527-3.527v-.961h7.055Z" fill="#d9defb"/>
      <rect x="20.473" y="25.849" width="7.055" height=".894" fill="#c5cced"/>
      <path d="M25.429,28.114c0,.796-.632,1.428-1.429,1.428s-1.429-.632-1.429-1.428.632-1.429,1.429-1.429,1.429.632,1.429,1.429Z" fill="#c5cced"/>
      <path d="M25.112,28.114c0,.62-.492,1.113-1.113,1.113s-1.112-.493-1.112-1.113.492-1.113,1.112-1.113,1.113.492,1.113,1.113Z" fill="#455a64"/>
      <path d="M24.554,28.114c0,.309-.245.554-.554.554s-.554-.245-.554-.554.245-.554.554-.554.554.245.554.554Z" fill="#384c54"/>
      <path d="M23.864,27.652c0,.108-.068.175-.175.175-.094,0-.162-.067-.162-.175,0-.094.067-.162.162-.162.108,0,.175.068.175.162Z" fill="#fff"/>
      <rect x="19.644" y="23.121" width="8.712" height="2.727" fill="#455a64"/>
      <path d="M31.407,21.773v-5.029h-14.815v5.029c0,.744.603,1.348,1.348,1.348h12.119c.744,0,1.348-.604,1.348-1.348Z" fill="#d9defb"/>
      <rect x="16.592" y="16.745" width="14.815" height="1.923" fill="#c5cced"/>
      <path d="M42.282,13.02v1.318c0,1.332-1.08,2.412-2.412,2.412H8.13c-1.332,0-2.412-1.08-2.412-2.412v-1.318h36.563Z" fill="#455a64"/>
      <rect x="5.718" y="13.019" width="36.563" height="1.016" fill="#384c54"/>
      <path d="M43.907,12.368c0,.364-.299.65-.65.65H4.743c-.351,0-.65-.286-.65-.65s.299-.65.65-.65h38.514c.351,0,.65.286.65.65Z" fill="#d9defb"/>
      <g>
        <rect x="6.457" y="5.041" width="1.57" height="6.677" fill="#455a64"/>
        <path d="M14.485,5.034c0,.468-.377.858-.845.858H.845c-.455,0-.845-.39-.845-.858,0-.455.39-.845.845-.845h12.795c.468,0,.845.39.845.845Z" fill="#f45558"/>
        <path d="M8.991,5.047c0,.962-.78,1.742-1.742,1.742s-1.755-.78-1.755-1.742.793-1.755,1.755-1.755,1.742.793,1.742,1.755Z" fill="#ffd54f"/>
        <rect x="39.972" y="5.041" width="1.57" height="6.677" fill="#455a64"/>
        <path d="M48,5.034c0,.468-.377.858-.845.858h-12.795c-.455,0-.845-.39-.845-.858,0-.455.39-.845.845-.845h12.795c.468,0,.845.39.845.845Z" fill="#f45558"/>
        <path d="M42.506,5.047c0,.962-.78,1.742-1.742,1.742s-1.755-.78-1.755-1.742.793-1.755,1.755-1.755,1.742.793,1.742,1.755Z" fill="#ffd54f"/>
      </g>
      <path d="M26.051,2.048c0,1.138-.917,2.054-2.054,2.054-1.131,0-2.048-.917-2.048-2.054,0-1.131.917-2.048,2.048-2.048,1.138,0,2.054.917,2.054,2.048Z" fill="#f45558"/>
    </g>
  </g>
</svg>