<?xml version="1.0" encoding="UTF-8"?>
<svg id="Layer_2" data-name="Layer 2" xmlns="http://www.w3.org/2000/svg" viewBox="0 0 38.639 48">
  <g id="Icons">
    <g id="_161" data-name="161">
      <g>
        <path d="M33.812,19.496c0,3.917-1.547,7.466-4.066,10.072-2.642,2.733-4.213,6.323-4.213,10.124h0s-12.425,0-12.425,0h0c0-3.766-1.508-7.358-4.142-10.049-2.9-2.964-4.542-7.169-4.052-11.747.713-6.668,6.097-12.066,12.763-12.794,8.745-.955,16.136,5.862,16.136,14.394Z" fill="#d9defb"/>
        <path d="M14.879,46.615h8.881c.978,0,1.772-.793,1.772-1.772v-5.151h-12.425v5.151c0,.978.793,1.772,1.772,1.772Z" fill="#455a64"/>
        <rect x="13.107" y="40.736" width="12.425" height=".983" fill="#384c54"/>
        <rect x="13.107" y="43.142" width="12.425" height=".983" fill="#384c54"/>
        <path d="M22.167,46.615v.554c0,.462-.369.831-.831.831h-4.025c-.461,0-.84-.369-.84-.831v-.554h5.695Z" fill="#384c54"/>
      </g>
      <g>
        <polygon points="21.838 13.872 18.562 13.872 16.337 19.33 19.102 19.774 17.755 24.769 22.302 18.198 19.643 17.877 21.838 13.872" fill="#f45558"/>
        <g>
          <path d="M29.601,19.319c0,5.667-4.609,10.283-10.283,10.283-3.609,0-6.798-1.874-8.633-4.701l1.657-1.072c1.479,2.288,4.057,3.8,6.976,3.8,4.582,0,8.31-3.728,8.31-8.31h1.972Z" fill="#5bb774"/>
          <polygon points="26.07 20.184 28.616 15.774 31.163 20.184 26.07 20.184" fill="#5bb774"/>
        </g>
        <g>
          <path d="M27.951,13.738l-1.657,1.072c-1.479-2.288-4.057-3.8-6.976-3.8-4.583,0-8.31,3.728-8.31,8.31h-1.972c0-5.667,4.615-10.283,10.283-10.283,3.616,0,6.798,1.874,8.633,4.701Z" fill="#5bb774"/>
          <polygon points="12.569 18.457 10.023 22.867 7.476 18.457 12.569 18.457" fill="#5bb774"/>
        </g>
      </g>
      <g>
        <rect x="34.886" y="18.78" width="3.752" height="1.08" fill="#f45558"/>
        <rect y="18.78" width="3.753" height="1.08" fill="#f45558"/>
      </g>
      <rect x="18.78" width="1.08" height="3.753" fill="#f45558"/>
      <rect x="6.445" y="5.109" width="1.08" height="3.752" transform="translate(-2.893 6.985) rotate(-45)" fill="#f45558"/>
      <g>
        <rect x="33.559" y="12.104" width="3.753" height="1.08" transform="translate(-2.141 14.522) rotate(-22.499)" fill="#f45558"/>
        <rect x="1.328" y="25.455" width="3.753" height="1.08" transform="translate(-9.704 3.205) rotate(-22.501)" fill="#f45558"/>
      </g>
      <rect x="12.104" y="1.328" width="1.08" height="3.753" transform="translate(-.264 5.083) rotate(-22.499)" fill="#f45558"/>
      <g>
        <rect x="34.895" y="24.118" width="1.08" height="3.753" transform="translate(-2.142 48.784) rotate(-67.499)" fill="#f45558"/>
        <rect x="2.664" y="10.768" width="1.08" height="3.753" transform="translate(-9.704 10.766) rotate(-67.501)" fill="#f45558"/>
      </g>
      <rect x="29.777" y="6.445" width="3.752" height="1.08" transform="translate(4.332 24.428) rotate(-45)" fill="#f45558"/>
      <rect x="24.118" y="2.664" width="3.753" height="1.08" transform="translate(13.086 25.994) rotate(-67.499)" fill="#f45558"/>
    </g>
  </g>
</svg>