<?xml version="1.0" encoding="UTF-8"?>
<svg id="Layer_2" data-name="Layer 2" xmlns="http://www.w3.org/2000/svg" viewBox="0 0 48 30.702">
  <g id="Icons">
    <g id="_147" data-name="147">
      <g>
        <rect width="40.441" height="3.757" rx=".539" ry=".539" fill="#a96c79"/>
        <g>
          <rect x="1.392" y="3.757" width="10.759" height="4.584" fill="#ffb7bd"/>
          <rect x="12.151" y="3.757" width="10.759" height="4.584" fill="#ffb7bd"/>
          <rect x="22.91" y="3.757" width="10.759" height="4.584" fill="#ffb7bd"/>
          <rect x="33.669" y="3.757" width="5.379" height="4.584" fill="#ffb7bd"/>
          <rect x="1.392" y="3.757" width="10.759" height="2.292" fill="#efa3ac"/>
          <rect x="12.151" y="3.757" width="10.759" height="2.292" fill="#efa3ac"/>
          <rect x="22.91" y="3.757" width="10.759" height="2.292" fill="#efa3ac"/>
          <rect x="33.669" y="3.757" width="5.379" height="2.292" fill="#efa3ac"/>
          <rect x="28.29" y="8.341" width="10.759" height="4.584" fill="#ffb7bd"/>
          <rect x="17.531" y="8.341" width="10.759" height="4.584" fill="#ffb7bd"/>
          <rect x="6.772" y="8.341" width="10.759" height="4.584" fill="#ffb7bd"/>
          <rect x="1.392" y="8.341" width="5.38" height="4.584" fill="#ffb7bd"/>
          <rect x="1.392" y="12.925" width="10.759" height="4.584" fill="#ffb7bd"/>
          <rect x="12.151" y="12.925" width="10.759" height="4.584" fill="#ffb7bd"/>
          <rect x="22.91" y="12.925" width="10.759" height="4.584" fill="#ffb7bd"/>
          <rect x="33.669" y="12.925" width="5.379" height="4.584" fill="#ffb7bd"/>
          <rect x="28.29" y="17.508" width="10.759" height="4.584" fill="#ffb7bd"/>
          <rect x="17.531" y="17.508" width="10.759" height="4.584" fill="#ffb7bd"/>
          <rect x="6.772" y="17.508" width="10.759" height="4.584" fill="#ffb7bd"/>
          <rect x="1.392" y="17.508" width="5.38" height="4.584" fill="#ffb7bd"/>
          <rect x="1.392" y="22.092" width="10.759" height="4.584" fill="#ffb7bd"/>
          <rect x="12.151" y="22.092" width="10.759" height="4.584" fill="#ffb7bd"/>
          <rect x="22.91" y="22.092" width="10.759" height="4.584" fill="#ffb7bd"/>
          <rect x="33.669" y="22.092" width="5.379" height="4.584" fill="#ffb7bd"/>
          <rect x="11.876" y="3.757" width=".551" height="4.584" fill="#a96c79"/>
          <rect x="22.635" y="3.757" width=".551" height="4.584" fill="#a96c79"/>
          <rect x="33.394" y="3.757" width=".551" height="4.584" fill="#a96c79"/>
          <rect x="11.876" y="3.757" width=".551" height="2.292" fill="#9b5f6f"/>
          <rect x="22.635" y="3.757" width=".551" height="2.292" fill="#9b5f6f"/>
          <rect x="33.394" y="3.757" width=".551" height="2.292" fill="#9b5f6f"/>
          <rect x="6.496" y="8.341" width=".551" height="4.583" fill="#a96c79"/>
          <rect x="17.255" y="8.341" width=".551" height="4.583" fill="#a96c79"/>
          <rect x="28.014" y="8.341" width=".551" height="4.583" fill="#a96c79"/>
          <rect x="11.876" y="12.924" width=".551" height="4.584" fill="#a96c79"/>
          <rect x="22.635" y="12.924" width=".551" height="4.584" fill="#a96c79"/>
          <rect x="33.394" y="12.924" width=".551" height="4.584" fill="#a96c79"/>
          <rect x="6.496" y="17.508" width=".551" height="4.584" fill="#a96c79"/>
          <rect x="17.255" y="17.508" width=".551" height="4.584" fill="#a96c79"/>
          <rect x="28.014" y="17.508" width=".551" height="4.584" fill="#a96c79"/>
          <rect x="11.876" y="22.092" width=".551" height="4.584" fill="#a96c79"/>
          <rect x="22.635" y="22.092" width=".551" height="4.584" fill="#a96c79"/>
          <rect x="33.394" y="22.092" width=".551" height="4.584" fill="#a96c79"/>
          <rect x="1.392" y="8.066" width="37.657" height=".551" fill="#a96c79"/>
          <rect x="1.392" y="12.649" width="37.657" height=".551" fill="#a96c79"/>
          <rect x="1.392" y="17.233" width="37.657" height=".551" fill="#a96c79"/>
          <rect x="1.392" y="21.817" width="37.657" height=".551" fill="#a96c79"/>
        </g>
      </g>
      <path d="M32.839,30.702c-.087,0-.173-.013-.256-.04l-.919-.296c-1.329-.429-2.553-1.059-3.621-1.963-1.997-1.691-2.609-3.908-2.403-6.427.141-1.725.854-3.238,1.674-4.707.459-.823,1.23-2.162,1.771-2.934,1.02-1.458,1.552-3.232,1.413-5.004-.011-.145-.003-.283-.003-.571,1.965,2.279,3.27,4.773,4.29,7.48.293-3.151.912-6.221,2.184-9.11.745-1.692,1.686-3.257,3.143-4.451.163-.134.345-.245.588-.416-.046.597-.089,1.1-.123,1.603-.13,1.944-.022,3.871.507,5.755.364,1.299,1.132,2.384,1.924,3.449,1.18,1.587,2.406,3.142,3.536,4.764,1.124,1.614,1.639,3.428,1.399,5.413-.22,1.828-1.004,3.358-2.443,4.526-2.048,1.754-4.971,2.927-5.846,2.93h-6.814Z" fill="#f45558"/>
      <path d="M39.256,30.702c.251,0,.492-.132.65-.367.311-.466.61-.955.871-1.382,1.437-2.35,1.607-4.942.892-7.648-.272-1.03-.673-2.011-1.021-3.011-.041-.12-.116-.222-.236-.447-.026.27-.049.416-.053.561-.042,1.583-.388,3.15-1.063,4.51-.75,1.511-1.762,2.526-3.338,2.299-1.002-.144-1.793-1.17-1.866-2.383-.041-.685-.001-1.381-.001-2.091-2.395,1.642-3.957,5.876-1.495,9.591.156.236.404.368.654.368h6.007Z" fill="#ffd54f"/>
    </g>
  </g>
</svg>