<?xml version="1.0" encoding="UTF-8"?>
<svg id="Layer_2" data-name="Layer 2" xmlns="http://www.w3.org/2000/svg" viewBox="0 0 16.677 48">
  <g id="Icons">
    <g id="_271" data-name="271">
      <rect x="4.036" y="40.431" width="8.606" height="7.569" rx="1.055" ry="1.055" fill="#ffa14e"/>
      <rect x="4.036" width="8.606" height="7.569" rx="1.055" ry="1.055" fill="#ffa14e"/>
      <rect y="8.293" width="16.677" height="31.415" rx="2.423" ry="2.423" fill="#ffa14e"/>
      <rect x="2.266" y="10.559" width="12.145" height="26.883" rx=".157" ry=".157" fill="#455a64"/>
      <path d="M13.839,39.704v1.606c0,.559-.453,1.012-1.012,1.012H3.85c-.559,0-1.012-.453-1.012-1.012v-1.606h11.001Z" fill="#f28e44"/>
      <path d="M2.838,8.296v-1.606c0-.559.453-1.012,1.012-1.012h8.978c.559,0,1.012.453,1.012,1.012v1.606H2.838Z" fill="#f28e44"/>
      <g>
        <rect x="4.369" y="31.69" width="7.94" height="2.16" fill="#5bb774"/>
        <g>
          <path d="M4.657,28.528c-.032-.035-.048-.076-.048-.125,0-.016.005-.04.016-.072l1.929-4.413h-2.516c-.054,0-.099-.019-.137-.056-.037-.038-.056-.083-.056-.137v-.571c0-.059.018-.107.052-.145.035-.038.082-.056.141-.056h3.537c.059,0,.107.019.144.056.037.038.056.086.056.145v.506c0,.113-.027.228-.081.346l-1.912,4.38c-.032.059-.067.106-.105.141-.037.035-.088.052-.152.052h-.748c-.048,0-.088-.017-.121-.052Z" fill="#d9defb"/>
          <path d="M9.034,28.066c-.351-.396-.542-.916-.574-1.559-.006-.145-.008-.391-.008-.739,0-.354.003-.605.008-.756.027-.632.22-1.147.578-1.543.359-.397.892-.595,1.6-.595s1.24.198,1.599.595c.359.396.552.911.579,1.543.01.3.016.552.016.756s-.005.45-.016.739c-.032.643-.224,1.163-.575,1.559-.351.397-.886.595-1.603.595s-1.253-.198-1.604-.595ZM11.385,27.394c.165-.217.254-.526.265-.928.005-.155.008-.394.008-.716s-.003-.554-.008-.699c-.01-.391-.099-.697-.265-.916-.166-.22-.415-.332-.748-.338-.332.006-.581.118-.748.338-.166.22-.255.525-.266.916-.005.145-.008.378-.008.699s.003.56.008.716c.011.402.099.711.266.928.166.217.415.325.748.325s.581-.108.748-.325Z" fill="#d9defb"/>
        </g>
        <g>
          <rect x="10.955" y="29.906" width=".754" height=".558" fill="#ffd54f"/>
          <rect x="6.461" y="29.906" width=".754" height=".558" fill="#ffd54f"/>
          <rect x="4.954" y="29.906" width=".754" height=".558" fill="#ffd54f"/>
          <rect x="9.462" y="29.906" width=".754" height=".558" fill="#ffd54f"/>
          <rect x="12.462" y="29.906" width=".754" height=".558" fill="#ffd54f"/>
          <rect x="7.954" y="29.906" width=".754" height=".558" fill="#ffd54f"/>
          <rect x="3.461" y="29.906" width=".754" height=".558" fill="#ffd54f"/>
        </g>
        <path d="M11.456,17.81c-.03.04-.07.08-.11.12l-3.01,3.02-3.02-3.02c-.04-.04-.07-.08-.11-.12-.76-.86-.72-2.19.11-3.01.43-.43,1-.65,1.57-.65.51,0,1.04.19,1.45.55.41-.37.93-.55,1.45-.55.56,0,1.13.22,1.56.65.83.82.87,2.15.11,3.01Z" fill="#f45558"/>
      </g>
    </g>
  </g>
</svg>