<?xml version="1.0" encoding="UTF-8"?>
<svg id="Layer_2" data-name="Layer 2" xmlns="http://www.w3.org/2000/svg" viewBox="0 0 28.17 48.001">
  <g id="Icons">
    <g id="_228" data-name="228">
      <path d="M8.126,12.842v10.528l-2.383-6.14c-.404-1.047-1.365-1.768-2.479-1.883-2.123-.202-3.767,1.826-3.123,3.853l3.056,9.705c.615,1.931,1.691,3.699,3.142,5.122,2.383,2.325,3.719,5.515,3.719,8.85v3.708c0,.783.634,1.417,1.417,1.417h13.463c.783,0,1.417-.634,1.417-1.417v-8.537c0-2.588.301-5.168.898-7.686.597-2.519.898-5.098.898-7.686v-9.833H8.126Z" fill="#ffb7bd"/>
      <path d="M21.27,46.147h-6.123c-.708,0-1.411-.102-2.09-.303h0c-.679-.201-1.382-.303-2.09-.303h-1.093c-.348,0-.631-.283-.631-.631v-4.781c0-.348.282-.631.631-.631h1.093c.707,0,1.411-.102,2.09-.303h0c.678-.201,1.382-.303,2.09-.303h6.123c.707,0,1.411.102,2.09.303h0c.679.201,1.382.303,2.09.303h1.093c.348,0,.631.283.631.631v4.781c0,.348-.283.631-.631.631h-1.093c-.708,0-1.411.102-2.09.303h0c-.678.201-1.382.303-2.09.303Z" fill="#455a64"/>
      <path d="M24.007,42.52c0,.76-.304,1.44-.801,1.926-.497.497-1.176.801-1.926.801h-6.142c-1.511,0-2.727-1.217-2.727-2.727,0-.75.304-1.43.801-1.926.487-.497,1.166-.801,1.926-.801h6.142c1.5,0,2.727,1.227,2.727,2.727Z" fill="#d9defb"/>
      <g>
        <g>
          <path d="M14.818,43.797c-.015-.016-.022-.035-.022-.058,0-.007.002-.019.007-.033l.892-2.041h-1.164c-.025,0-.046-.009-.063-.026-.017-.017-.026-.038-.026-.063v-.264c0-.027.008-.05.024-.067.016-.017.038-.026.065-.026h1.636c.027,0,.05.009.067.026.017.017.026.04.026.067v.234c0,.052-.012.105-.037.16l-.885,2.026c-.015.027-.031.049-.048.065-.017.016-.041.024-.07.024h-.346c-.022,0-.041-.008-.056-.024Z" fill="#c5cced"/>
          <path d="M16.843,43.584c-.162-.183-.251-.424-.266-.721-.003-.067-.004-.181-.004-.342,0-.163.001-.28.004-.349.012-.293.102-.531.267-.714.166-.184.413-.275.74-.275s.574.092.74.275c.166.183.255.421.268.714.005.139.007.255.007.349s-.002.208-.007.342c-.015.297-.103.538-.266.721-.162.184-.41.275-.742.275s-.579-.092-.742-.275ZM17.931,43.273c.077-.101.118-.244.123-.429.002-.072.004-.182.004-.331s-.001-.256-.004-.323c-.005-.181-.046-.322-.123-.424-.077-.102-.192-.154-.346-.156-.154.003-.269.055-.346.156-.077.102-.118.243-.123.424-.003.067-.004.175-.004.323s.001.259.004.331c.005.186.046.329.123.429.077.1.192.15.346.15s.269-.05.346-.15Z" fill="#c5cced"/>
        </g>
        <path d="M21.766,42.62c-.011.015-.027.031-.042.046l-1.152,1.156-1.156-1.156c-.015-.015-.027-.031-.042-.046-.291-.329-.276-.838.042-1.152.165-.165.383-.249.601-.249.195,0,.398.073.555.211.157-.142.356-.211.555-.211.214,0,.432.084.597.249.318.314.333.823.042,1.152Z" fill="#f45558"/>
      </g>
      <path d="M13.135,4.496v11.682h-5.012V4.669c0-1.16.719-2.271,1.84-2.578,1.621-.439,3.172.773,3.172,2.405Z" fill="#ffb7bd"/>
      <path d="M23.158,5.177v11.682h-5.012V5.35c0-1.16.719-2.271,1.84-2.578,1.621-.439,3.172.773,3.172,2.405Z" fill="#ffb7bd"/>
      <path d="M28.17,8.446v11.682h-5.012v-11.509c0-1.16.719-2.271,1.84-2.578,1.621-.439,3.172.773,3.172,2.405Z" fill="#ffb7bd"/>
      <path d="M18.146,2.496v11.682h-5.012V2.668c0-1.16.719-2.271,1.84-2.578,1.621-.439,3.172.773,3.172,2.405Z" fill="#ffb7bd"/>
      <path d="M23.523,7.237v12.889c0,.201-.163.364-.364.364s-.354-.163-.354-.364l.354-11.509c0-.489.125-.968.364-1.38Z" fill="#efa3ac"/>
      <path d="M13.499,17.731c0,.192-.163.355-.364.355s-.355-.163-.355-.355V3.212c.22.374.355.815.355,1.284l.364,13.234Z" fill="#efa3ac"/>
      <path d="M18.511,3.969v13.761c0,.192-.163.355-.364.355s-.355-.163-.355-.355l.355-12.381c0-.489.125-.968.364-1.38Z" fill="#efa3ac"/>
    </g>
  </g>
</svg>