<?xml version="1.0" encoding="UTF-8"?>
<svg id="Layer_2" data-name="Layer 2" xmlns="http://www.w3.org/2000/svg" viewBox="0 0 48 48.098">
  <g id="Icons">
    <g id="_115" data-name="115">
      <rect x="9.956" y="24.336" width="28.087" height="1.778" fill="#455a64"/>
      <rect x="23.111" y="15.703" width="1.778" height="9.716" fill="#455a64"/>
      <rect x="36.266" y="24.336" width="1.778" height="10.161" fill="#455a64"/>
      <rect x="9.956" y="24.336" width="1.778" height="10.161" fill="#455a64"/>
      <g>
        <rect x="22.515" y="21.72" width="2.97" height="2.244" fill="#d9defb"/>
        <rect x="20.888" y="23.74" width="6.223" height="2.97" fill="#d9defb"/>
      </g>
      <g>
        <path d="M33.998,3.746v13.647l-21.99.868V1.01c0-.558.452-1.01,1.01-1.01h6.052c.302,0,.589.135.781.369l1.644,2.002c.192.234.478.369.78.369h10.717c.556,0,1.006.45,1.006,1.006Z" fill="#f2c341"/>
        <rect x="13.398" y="4.086" width="19.21" height="10.09" rx=".5" ry=".5" fill="#d9defb"/>
        <rect x="13.398" y="4.885" width="19.21" height="10.817" rx=".5" ry=".5" fill="#c5cced"/>
        <rect x="13.398" y="5.621" width="19.21" height="10.09" rx=".5" ry=".5" fill="#d9defb"/>
        <path d="M14.648,7.853l-2.607,10.012c-.167.64.316,1.265.977,1.265h19.903c.46,0,.861-.311.977-.755l2.607-10.012c.167-.64-.316-1.264-.977-1.264H15.626c-.46,0-.861.31-.977.755Z" fill="#ffd54f"/>
      </g>
      <g>
        <path d="M19.444,34.495v12.067l-19.444.768v-15.254c0-.493.4-.893.893-.893h5.352c.267,0,.521.12.69.326l1.454,1.77c.17.207.423.326.69.326h9.476c.491,0,.889.398.889.89Z" fill="#1792e5"/>
        <rect x="1.229" y="34.796" width="16.986" height="8.922" rx=".442" ry=".442" fill="#d9defb"/>
        <rect x="1.229" y="35.503" width="16.986" height="9.565" rx=".442" ry=".442" fill="#c5cced"/>
        <rect x="1.229" y="36.153" width="16.986" height="8.922" rx=".442" ry=".442" fill="#d9defb"/>
        <path d="M2.335,38.127L.029,46.98c-.147.566.28,1.118.864,1.118h17.598c.407,0,.762-.275.864-.668l2.305-8.853c.147-.566-.28-1.118-.864-1.118H3.199c-.407,0-.762.275-.864.668Z" fill="#2196f3"/>
      </g>
      <g>
        <path d="M45.753,34.495v12.067l-19.444.768v-15.254c0-.493.4-.893.893-.893h5.352c.267,0,.521.12.69.326l1.454,1.77c.17.207.423.326.69.326h9.476c.491,0,.889.398.889.89Z" fill="#e5454d"/>
        <rect x="27.538" y="34.796" width="16.986" height="8.922" rx=".442" ry=".442" fill="#d9defb"/>
        <rect x="27.538" y="35.503" width="16.986" height="9.565" rx=".442" ry=".442" fill="#c5cced"/>
        <rect x="27.538" y="36.153" width="16.986" height="8.922" rx=".442" ry=".442" fill="#d9defb"/>
        <path d="M28.644,38.127l-2.305,8.853c-.147.566.28,1.118.864,1.118h17.598c.407,0,.762-.275.864-.668l2.305-8.853c.147-.566-.28-1.118-.864-1.118h-17.598c-.407,0-.762.275-.864.668Z" fill="#f45558"/>
      </g>
    </g>
  </g>
</svg>