<?xml version="1.0" encoding="UTF-8"?>
<svg id="Layer_2" data-name="Layer 2" xmlns="http://www.w3.org/2000/svg" viewBox="0 0 47.995 43.926">
  <g id="Icons">
    <g id="_175" data-name="175">
      <g>
        <path d="M12.424,2.698v12.409h35.571V4.558c0-1.027-.833-1.86-1.86-1.86H12.424Z" fill="#f2c341"/>
        <path d="M47.995,9.169v27.4c0,1.026-.831,1.857-1.857,1.857H1.857c-1.026,0-1.857-.831-1.857-1.857V1.857C0,.831.831,0,1.857,0h13.047c.643,0,1.24.332,1.579.879l3.44,5.552c.339.546.936.879,1.578.879h24.634c1.027,0,1.86.833,1.86,1.86Z" fill="#ffd54f"/>
      </g>
      <g>
        <rect x="24.874" y="27.709" width="19.886" height="16.218" rx="2.124" ry="2.124" fill="#2196f3"/>
        <path d="M42.122,27.709h-2.936v-4.13c0-2.409-1.96-4.369-4.369-4.369s-4.369,1.96-4.369,4.369v4.13h-2.936v-4.13c0-4.028,3.277-7.304,7.304-7.304s7.304,3.277,7.304,7.304v4.13Z" fill="#455a64"/>
        <path d="M36.014,36.407l.641,3.308h-3.686l.65-3.308c-.718-.417-1.206-1.189-1.206-2.084,0-1.322,1.073-2.404,2.404-2.404s2.403,1.082,2.403,2.404c0,.896-.488,1.667-1.206,2.084Z" fill="#455a64"/>
      </g>
    </g>
  </g>
</svg>