<?xml version="1.0" encoding="UTF-8"?>
<svg id="Layer_2" data-name="Layer 2" xmlns="http://www.w3.org/2000/svg" viewBox="0 0 28.206 48.004">
  <g id="Icons">
    <g id="_106" data-name="106">
      <rect y="4.367" width="28.206" height="43.637" rx="1.988" ry="1.988" fill="#d9defb"/>
      <path d="M28.206,6.355v39.661c0,1.098-.89,1.988-1.988,1.988H1.988c-1.098,0-1.988-.89-1.988-1.988L26.218,4.367c1.098,0,1.988.89,1.988,1.988Z" fill="#c5cced"/>
      <path d="M19.878,1.658v2.709h-11.549V1.658c0-.916.742-1.658,1.658-1.658h8.233c.916,0,1.658.742,1.658,1.658Z" fill="#d9defb"/>
      <rect x="8.329" y="2.25" width="11.549" height="2.117" fill="#c5cced"/>
      <g>
        <path d="M3.306,7.679h21.594c.423,0,.767.343.767.767v4.1c0,.423-.343.766-.766.766H3.306c-.423,0-.766-.343-.766-.766v-4.1c0-.423.343-.766.766-.766Z" fill="#5bb774"/>
        <rect x="2.54" y="15.524" width="23.127" height="5.633" rx=".766" ry=".766" fill="#5bb774"/>
        <rect x="2.54" y="23.369" width="23.127" height="5.633" rx=".766" ry=".766" fill="#5bb774"/>
        <rect x="2.54" y="31.214" width="23.127" height="5.633" rx=".766" ry=".766" fill="#5bb774"/>
        <rect x="2.54" y="39.059" width="23.127" height="5.633" rx=".766" ry=".766" fill="#5bb774"/>
      </g>
      <g>
        <path d="M25.664,8.444v4.1c0,.42-.34.77-.76.77h-4.32l3.54-5.63h.78c.42,0,.76.34.76.76Z" fill="#4ea863"/>
        <path d="M25.664,16.294v4.1c0,.42-.34.76-.76.76h-9.26l3.55-5.63h5.71c.42,0,.76.34.76.77Z" fill="#4ea863"/>
        <path d="M25.664,24.134v4.1c0,.42-.34.77-.76.77h-14.2l3.55-5.63h10.65c.42,0,.76.34.76.76Z" fill="#4ea863"/>
        <path d="M25.664,31.984v4.1c0,.42-.34.76-.76.76H5.774l3.54-5.63h15.59c.42,0,.76.34.76.77Z" fill="#4ea863"/>
        <path d="M25.664,39.824v4.1c0,.42-.34.77-.76.77H3.304c-.42,0-.76-.35-.76-.77v-1.95l1.83-2.91h20.53c.42,0,.76.34.76.76Z" fill="#4ea863"/>
      </g>
    </g>
  </g>
</svg>