<?xml version="1.0" encoding="UTF-8"?>
<svg id="Layer_2" data-name="Layer 2" xmlns="http://www.w3.org/2000/svg" viewBox="0 0 48 44.025">
  <g id="Icons">
    <g id="_229" data-name="229">
      <g>
        <rect y="10.394" width="48" height="33.632" rx="2.08" ry="2.08" fill="#455a64"/>
        <path d="M8.206,40.842c0,1.018-.82,1.847-1.838,1.847s-1.847-.829-1.847-1.847.829-1.847,1.847-1.847,1.838.829,1.838,1.847Z" fill="#384c54"/>
        <rect x="2.428" y="12.633" width="43.144" height="24.152" rx=".078" ry=".078" fill="#fff"/>
        <path d="M17.097,12.636H2.506c-.039,0-.078.03-.078.079v12.267h14.669v-12.345Z" fill="#2196f3"/>
        <polygon points="24.922 24.981 37.267 12.636 19.058 12.636 19.058 24.981 24.922 24.981" fill="#5bb774"/>
        <path d="M2.428,26.942v9.766c0,.039.039.078.078.078h6.403v-9.845H2.428Z" fill="#5bb774"/>
        <path d="M45.494,12.636h-5.452l-13.326,13.326,10.835,10.825h7.942c.039,0,.078-.039.078-.078V12.714c0-.049-.039-.079-.078-.079Z" fill="#5bb774"/>
        <polygon points="10.87 26.942 10.87 36.787 34.766 36.787 24.922 26.942 10.87 26.942" fill="#2196f3"/>
        <path d="M7.771,40.326c0,1.018-.82,1.847-1.838,1.847s-1.847-.829-1.847-1.847.829-1.847,1.847-1.847,1.838.829,1.838,1.847Z" fill="#ffd54f"/>
        <g>
          <rect x="13.697" y="38.875" width="30.475" height="1.062" fill="#384c54"/>
          <rect x="13.697" y="41.079" width="30.475" height="1.062" fill="#384c54"/>
        </g>
        <path d="M45,13.394v22.631H3V13.394h42M45.92,12.394H2.08c-.044,0-.08.036-.08.08v24.472c0,.044.036.08.08.08h43.841c.044,0,.08-.036.08-.08V12.473c0-.044-.036-.08-.08-.08h0Z" fill="#384c54"/>
      </g>
      <path d="M13.085,20.547c0,.61-.99,1.105-2.21,1.105-1.23,0-2.22-.495-2.22-1.105,0-.615.99-1.11,2.22-1.11,1.22,0,2.21.495,2.21,1.11Z" fill="#ffd54f"/>
      <path d="M10.875,0C6.835,0,3.575,3.27,3.575,7.29c0,3.31,4.93,10.48,6.69,12.94.3.42.92.42,1.22,0,1.76-2.46,6.68-9.63,6.68-12.94,0-4.02-3.26-7.29-7.29-7.29ZM10.875,10.669c-1.867,0-3.379-1.512-3.379-3.379s1.512-3.37,3.379-3.37,3.37,1.512,3.37,3.37-1.511,3.379-3.37,3.379Z" fill="#f45558"/>
    </g>
  </g>
</svg>