<?xml version="1.0" encoding="UTF-8"?>
<svg id="Layer_2" data-name="Layer 2" xmlns="http://www.w3.org/2000/svg" viewBox="0 0 47.996 47.996">
  <g id="Icons">
    <g id="_101" data-name="101">
      <g>
        <path d="M42.921,9.856l-2.736,4.712-6.757-6.757,4.712-2.736c.641-.372,1.451-.266,1.975.258l2.548,2.548c.524.524.629,1.335.258,1.975Z" fill="#4ea863"/>
        <path d="M7.959,35.255l2.736-4.712,6.757,6.757-4.712,2.736c-.641.372-1.451.266-1.975-.258l-2.548-2.548c-.524-.524-.629-1.335-.258-1.975Z" fill="#4ea863"/>
        <path d="M28.821,1.215l1.397,5.266h-9.556l1.398-5.266c.19-.716.838-1.215,1.579-1.215h3.604c.741,0,1.389.498,1.579,1.215Z" fill="#4ea863"/>
        <path d="M22.06,43.897l-1.398-5.266h9.556l-1.397,5.266c-.19.716-.838,1.215-1.579,1.215h-3.604c-.741,0-1.389-.498-1.579-1.215Z" fill="#4ea863"/>
        <path d="M12.74,5.075l4.712,2.736-6.757,6.757-2.736-4.712c-.372-.641-.266-1.451.258-1.975l2.548-2.548c.524-.524,1.335-.629,1.975-.258Z" fill="#4ea863"/>
        <path d="M38.14,40.037l-4.712-2.736,6.757-6.757,2.736,4.712c.372.641.266,1.452-.258,1.975l-2.548,2.548c-.524.524-1.335.63-1.975.258Z" fill="#4ea863"/>
        <path d="M4.099,19.175l5.266-1.397v9.556l-5.266-1.397c-.716-.19-1.214-.838-1.214-1.579v-3.604c0-.741.498-1.389,1.214-1.579Z" fill="#4ea863"/>
        <path d="M46.781,25.936l-5.266,1.397v-9.556l5.266,1.397c.716.19,1.215.838,1.215,1.579v3.604c0,.741-.498,1.389-1.215,1.579Z" fill="#4ea863"/>
        <circle cx="25.44" cy="22.556" r="17.9" fill="#5bb774"/>
        <path d="M32.923,30.038c-4.132,4.132-10.833,4.132-14.965,0-4.132-4.132-4.132-10.833,0-14.965s10.833-4.132,14.965,0c4.132,4.132,4.132,10.833,0,14.965Z" fill="#d9defb"/>
        <path d="M14.258,33.738c-6.166-6.166-6.166-16.199,0-22.365,6.166-6.166,16.199-6.165,22.365,0,6.166,6.166,6.165,16.199,0,22.364s-16.199,6.167-22.365,0ZM36.205,11.792c-5.935-5.935-15.593-5.936-21.528,0-5.935,5.935-5.935,15.593,0,21.529s15.593,5.935,21.528,0c5.935-5.935,5.936-15.592,0-21.528Z" fill="#4ea863"/>
        <path d="M15.94,32.056c-5.238-5.238-5.238-13.762,0-19.001,5.238-5.238,13.762-5.238,19,0,5.238,5.238,5.238,13.761,0,19-5.238,5.238-13.761,5.239-19,0ZM34.522,13.474c-5.008-5.008-13.156-5.008-18.164,0-5.008,5.008-5.008,13.156,0,18.164,5.007,5.007,13.155,5.007,18.163,0,5.007-5.008,5.007-13.156,0-18.163Z" fill="#4ea863"/>
      </g>
      <path d="M30.707,27.819c-2.912,2.912-7.631,2.912-10.534.008s-2.912-7.631,0-10.542c2.058-2.058,5.02-2.661,7.614-1.791l-4.016,4.016,1.314,3.405,3.405,1.314,4.016-4.016c.862,2.585.259,5.547-1.799,7.606Z" fill="#2196f3"/>
      <path d="M19.838,22.221L1.23,40.83c-.82.82-1.23,1.899-1.23,2.97s.41,2.15,1.23,2.97c1.64,1.64,4.292,1.632,5.932-.008l18.608-18.608-5.932-5.932ZM2.937,45.047c-.678-.678-.686-1.791,0-2.477.694-.694,1.799-.678,2.477,0,.694.694.703,1.791.008,2.485-.686.686-1.791.686-2.485-.008Z" fill="#2196f3"/>
      <path d="M19.79,30.608l-9.847,9.847c-.666.666-1.74.666-2.407,0-.659-.659-.666-1.74,0-2.407l9.847-9.847c.666-.666,1.748-.659,2.406,0,.666.666.666,1.74,0,2.407Z" fill="#1792e5"/>
    </g>
  </g>
</svg>