<?xml version="1.0" encoding="UTF-8"?>
<svg id="Layer_2" data-name="Layer 2" xmlns="http://www.w3.org/2000/svg" viewBox="0 0 48.002 48">
  <g id="Icons">
    <g id="_165" data-name="165">
      <rect x="22.871" y="37.592" width="2.26" height="9.043" fill="#d9defb"/>
      <rect y="0" width="48.002" height="38.923" rx="1.979" ry="1.979" fill="#d9defb"/>
      <path d="M48,2.403v34.54c0,1.09-.88,1.98-1.98,1.98H1.98c-.39,0-.75-.11-1.05-.31L48,2.403Z" fill="#c5cced"/>
      <path d="M48.002,8.058V1.979c0-1.093-.886-1.979-1.979-1.979H1.979C.886,0,0,.886,0,1.979v6.08h48.002Z" fill="#a96c79"/>
      <polygon points="36.938 26.258 36.938 42.114 11.064 42.114 11.064 26.258 24.001 16.722 36.938 26.258" fill="#ffd54f"/>
      <polygon points="37.681 28.726 24.001 18.641 10.321 28.726 8.488 26.238 24.001 14.803 39.514 26.238 37.681 28.726" fill="#f45558"/>
      <rect x="19.866" y="31.852" width="8.27" height="10.262" fill="#455a64"/>
      <rect x="4.576" y="45.16" width="38.85" height="2.26" fill="#d9defb"/>
      <rect x="21.139" y="44.58" width="5.724" height="3.42" fill="#f45558"/>
      <path d="M6.6,4.372c0,.835-.675,1.51-1.51,1.51s-1.51-.675-1.51-1.51c0-.827.675-1.502,1.51-1.502s1.51.675,1.51,1.502Z" fill="#d9defb"/>
      <path d="M11.295,4.372c0,.835-.675,1.51-1.51,1.51s-1.51-.675-1.51-1.51c0-.827.675-1.502,1.51-1.502s1.51.675,1.51,1.502Z" fill="#ffd54f"/>
      <path d="M15.99,4.372c0,.835-.675,1.51-1.51,1.51s-1.51-.675-1.51-1.51c0-.827.675-1.502,1.51-1.502s1.51.675,1.51,1.502Z" fill="#2196f3"/>
    </g>
  </g>
</svg>