<?xml version="1.0" encoding="UTF-8"?>
<svg id="Layer_2" data-name="Layer 2" xmlns="http://www.w3.org/2000/svg" viewBox="0 0 48 44.6">
  <g id="Icons">
    <g id="_174" data-name="174">
      <g>
        <path d="M47.447,19.535l-14.254-14.254c-.742-.742-1.946-.731-2.678,0l-7.706,7.707c-.742.742-.742,1.935,0,2.677l14.254,14.254c.743.743,1.935.743,2.678,0l7.706-7.706c.731-.731.743-1.935,0-2.678ZM41.676,19.479l-8.426-8.426c-.27-.27-.27-.72,0-.99s.72-.27.99,0l8.426,8.426c.27.27.259.709-.011.979s-.709.281-.979.011Z" fill="#f45558"/>
        <path d="M34.673,27.528l-1.889,1.889c-.529.529-1.386.529-1.915,0l-7.558-7.558c-.529-.529-.529-1.386,0-1.915l1.889-1.889,9.473,9.473Z" fill="#d9defb"/>
        <polygon points="29.603 28.151 13.155 44.6 8.433 44.291 8.218 39.662 10.804 39.329 11.841 36.524 14.346 36.295 14.918 33.334 18.655 31.986 18.957 28.737 24.573 23.121 29.603 28.151" fill="#d9defb"/>
        <rect x="25.151" y="22.881" width="2.269" height="7.114" transform="translate(-10.996 26.331) rotate(-45)" fill="#c5cced"/>
        <polygon points="28.303 26.851 10.707 44.446 9.066 44.335 27.427 25.975 28.303 26.851" fill="#c5cced"/>
      </g>
      <g>
        <rect y="0" width="21.257" height="13.753" rx="1.365" ry="1.365" fill="#5bb774"/>
        <path d="M16.486,13.191v4.374c0,.417-.504.626-.799.33l-4.695-4.705h5.494Z" fill="#5bb774"/>
        <g>
          <g>
            <path d="M2.668,5.643c-.224-.254-.347-.586-.367-.998-.003-.092-.005-.25-.005-.473,0-.226.001-.387.005-.484.017-.404.141-.733.37-.987.229-.253.571-.38,1.023-.38s.793.127,1.023.38c.229.254.353.583.37.987.007.192.01.353.01.484s-.003.288-.01.473c-.021.411-.143.744-.367.998-.224.254-.566.38-1.026.38s-.801-.126-1.026-.38ZM4.171,5.214c.106-.139.163-.337.17-.594.003-.099.005-.252.005-.457s-.002-.355-.005-.447c-.007-.251-.063-.446-.17-.586-.106-.14-.266-.212-.478-.216-.212.004-.372.075-.478.216-.106.141-.163.336-.17.586-.003.092-.005.242-.005.447s.002.358.005.457c.007.257.063.455.17.594.106.138.266.208.478.208s.372-.069.478-.208Z" fill="#fff"/>
            <path d="M6.726,5.936c-.024-.024-.036-.053-.036-.087v-2.653l-.777.596c-.02.017-.046.026-.077.026-.041,0-.074-.017-.098-.051l-.221-.288c-.017-.024-.026-.048-.026-.072,0-.041.019-.075.056-.103l1.152-.894c.038-.024.081-.036.129-.036h.463c.034,0,.063.012.087.036s.036.053.036.087v3.352c0,.035-.012.064-.036.087-.024.024-.053.036-.087.036h-.478c-.034,0-.063-.012-.087-.036Z" fill="#fff"/>
            <path d="M8.441,5.643c-.224-.254-.347-.586-.367-.998-.003-.092-.005-.25-.005-.473,0-.226.001-.387.005-.484.017-.404.141-.733.37-.987.229-.253.571-.38,1.023-.38s.793.127,1.023.38c.229.254.353.583.37.987.007.192.01.353.01.484s-.003.288-.01.473c-.021.411-.143.744-.367.998-.224.254-.566.38-1.026.38s-.801-.126-1.026-.38ZM9.944,5.214c.106-.139.163-.337.17-.594.003-.099.005-.252.005-.457s-.001-.355-.005-.447c-.007-.251-.063-.446-.17-.586-.106-.14-.266-.212-.478-.216-.212.004-.372.075-.478.216-.106.141-.163.336-.17.586-.003.092-.005.242-.005.447s.002.358.005.457c.006.257.063.455.17.594.106.138.266.208.478.208s.372-.069.478-.208Z" fill="#fff"/>
            <path d="M12.499,5.936c-.024-.024-.036-.053-.036-.087v-2.653l-.777.596c-.02.017-.046.026-.077.026-.041,0-.074-.017-.098-.051l-.221-.288c-.017-.024-.026-.048-.026-.072,0-.041.019-.075.056-.103l1.152-.894c.038-.024.081-.036.128-.036h.463c.034,0,.063.012.087.036s.036.053.036.087v3.352c0,.035-.012.064-.036.087-.024.024-.053.036-.087.036h-.478c-.034,0-.063-.012-.087-.036Z" fill="#fff"/>
            <path d="M14.214,5.643c-.225-.254-.347-.586-.368-.998-.003-.092-.005-.25-.005-.473,0-.226.002-.387.005-.484.017-.404.141-.733.37-.987.229-.253.571-.38,1.023-.38s.793.127,1.023.38c.229.254.353.583.37.987.007.192.01.353.01.484s-.003.288-.01.473c-.02.411-.143.744-.367.998-.224.254-.566.38-1.026.38s-.801-.126-1.026-.38ZM15.717,5.214c.107-.139.163-.337.17-.594.003-.099.005-.252.005-.457s-.002-.355-.005-.447c-.007-.251-.063-.446-.17-.586-.106-.14-.265-.212-.478-.216-.212.004-.372.075-.478.216-.106.141-.163.336-.17.586-.004.092-.006.242-.006.447s.002.358.006.457c.006.257.063.455.17.594.106.138.265.208.478.208s.372-.069.478-.208Z" fill="#fff"/>
            <path d="M18.272,5.936c-.024-.024-.036-.053-.036-.087v-2.653l-.777.596c-.02.017-.046.026-.077.026-.041,0-.074-.017-.098-.051l-.221-.288c-.017-.024-.026-.048-.026-.072,0-.041.019-.075.056-.103l1.152-.894c.038-.024.081-.036.128-.036h.463c.034,0,.063.012.087.036s.036.053.036.087v3.352c0,.035-.012.064-.036.087-.024.024-.053.036-.087.036h-.478c-.034,0-.063-.012-.087-.036Z" fill="#fff"/>
          </g>
          <g>
            <path d="M2.668,11.051c-.224-.253-.347-.586-.367-.997-.003-.092-.005-.25-.005-.473,0-.226.001-.387.005-.484.017-.404.141-.733.37-.987.229-.253.571-.38,1.023-.38s.793.127,1.023.38c.229.254.353.583.37.987.007.192.01.353.01.484s-.003.288-.01.473c-.021.411-.143.744-.367.997-.224.254-.566.38-1.026.38s-.801-.127-1.026-.38ZM4.171,10.622c.106-.139.163-.337.17-.594.003-.099.005-.252.005-.457s-.002-.355-.005-.447c-.007-.251-.063-.446-.17-.586-.106-.14-.266-.212-.478-.216-.212.004-.372.075-.478.216-.106.141-.163.336-.17.586-.003.092-.005.242-.005.447s.002.358.005.457c.007.257.063.455.17.594.106.138.266.208.478.208s.372-.069.478-.208Z" fill="#fff"/>
            <path d="M6.726,11.343c-.024-.024-.036-.053-.036-.087v-2.653l-.777.596c-.02.017-.046.026-.077.026-.041,0-.074-.017-.098-.051l-.221-.288c-.017-.024-.026-.048-.026-.072,0-.041.019-.075.056-.103l1.152-.894c.038-.024.081-.036.129-.036h.463c.034,0,.063.012.087.036s.036.053.036.087v3.352c0,.035-.012.064-.036.087-.024.024-.053.036-.087.036h-.478c-.034,0-.063-.012-.087-.036Z" fill="#fff"/>
            <path d="M8.441,11.051c-.224-.253-.347-.586-.367-.997-.003-.092-.005-.25-.005-.473,0-.226.001-.387.005-.484.017-.404.141-.733.37-.987.229-.253.571-.38,1.023-.38s.793.127,1.023.38c.229.254.353.583.37.987.007.192.01.353.01.484s-.003.288-.01.473c-.021.411-.143.744-.367.997-.224.254-.566.38-1.026.38s-.801-.127-1.026-.38ZM9.944,10.622c.106-.139.163-.337.17-.594.003-.099.005-.252.005-.457s-.001-.355-.005-.447c-.007-.251-.063-.446-.17-.586-.106-.14-.266-.212-.478-.216-.212.004-.372.075-.478.216-.106.141-.163.336-.17.586-.003.092-.005.242-.005.447s.002.358.005.457c.006.257.063.455.17.594.106.138.266.208.478.208s.372-.069.478-.208Z" fill="#fff"/>
            <path d="M12.499,11.343c-.024-.024-.036-.053-.036-.087v-2.653l-.777.596c-.02.017-.046.026-.077.026-.041,0-.074-.017-.098-.051l-.221-.288c-.017-.024-.026-.048-.026-.072,0-.041.019-.075.056-.103l1.152-.894c.038-.024.081-.036.128-.036h.463c.034,0,.063.012.087.036s.036.053.036.087v3.352c0,.035-.012.064-.036.087-.024.024-.053.036-.087.036h-.478c-.034,0-.063-.012-.087-.036Z" fill="#fff"/>
            <path d="M14.214,11.051c-.225-.253-.347-.586-.368-.997-.003-.092-.005-.25-.005-.473,0-.226.002-.387.005-.484.017-.404.141-.733.37-.987.229-.253.571-.38,1.023-.38s.793.127,1.023.38c.229.254.353.583.37.987.007.192.01.353.01.484s-.003.288-.01.473c-.02.411-.143.744-.367.997-.224.254-.566.38-1.026.38s-.801-.127-1.026-.38ZM15.717,10.622c.107-.139.163-.337.17-.594.003-.099.005-.252.005-.457s-.002-.355-.005-.447c-.007-.251-.063-.446-.17-.586-.106-.14-.265-.212-.478-.216-.212.004-.372.075-.478.216-.106.141-.163.336-.17.586-.004.092-.006.242-.006.447s.002.358.006.457c.006.257.063.455.17.594.106.138.265.208.478.208s.372-.069.478-.208Z" fill="#fff"/>
            <path d="M18.272,11.343c-.024-.024-.036-.053-.036-.087v-2.653l-.777.596c-.02.017-.046.026-.077.026-.041,0-.074-.017-.098-.051l-.221-.288c-.017-.024-.026-.048-.026-.072,0-.041.019-.075.056-.103l1.152-.894c.038-.024.081-.036.128-.036h.463c.034,0,.063.012.087.036s.036.053.036.087v3.352c0,.035-.012.064-.036.087-.024.024-.053.036-.087.036h-.478c-.034,0-.063-.012-.087-.036Z" fill="#fff"/>
          </g>
        </g>
      </g>
    </g>
  </g>
</svg>