<?xml version="1.0" encoding="UTF-8"?>
<svg id="Layer_2" data-name="Layer 2" xmlns="http://www.w3.org/2000/svg" viewBox="0 0 48 48">
  <g id="Icons">
    <g id="_163" data-name="163">
      <g>
        <path d="M7.536,3.942h-1V1.761c0-.971.79-1.761,1.762-1.761h23.808v1H8.298c-.42,0-.762.341-.762.761v2.181Z" fill="#455a64"/>
        <rect x="6.54" y="2.235" width="1" height="1.71" fill="#384c54"/>
        <rect y="5.095" width="48" height="26.63" rx="1.313" ry="1.313" fill="#2196f3"/>
        <g>
          <path d="M4.22,9.497h3.812c.33,0,.597.268.597.597v3.812c0,.33-.268.598-.598.598h-3.812c-.33,0-.598-.268-.598-.598v-3.812c0-.33.268-.598.598-.598Z" fill="#1792e5"/>
          <path d="M11.612,9.497h3.812c.33,0,.597.268.597.597v3.812c0,.33-.268.598-.598.598h-3.812c-.33,0-.598-.268-.598-.598v-3.812c0-.33.268-.598.598-.598Z" fill="#1792e5"/>
          <rect x="18.406" y="9.497" width="5.007" height="5.007" rx=".598" ry=".598" fill="#1792e5"/>
          <rect x="25.797" y="9.497" width="5.007" height="5.007" rx=".598" ry=".598" fill="#1792e5"/>
          <rect x="33.189" y="9.497" width="5.007" height="5.007" rx=".598" ry=".598" fill="#1792e5"/>
          <rect x="40.58" y="9.497" width="5.007" height="5.007" rx=".598" ry=".598" fill="#1792e5"/>
          <path d="M4.22,16.473h3.812c.33,0,.598.268.598.598v3.812c0,.33-.268.598-.598.598h-3.812c-.33,0-.598-.268-.598-.598v-3.812c0-.33.268-.597.597-.597Z" fill="#1792e5"/>
          <path d="M11.612,16.473h3.812c.33,0,.598.268.598.598v3.812c0,.33-.268.598-.598.598h-3.812c-.33,0-.598-.268-.598-.598v-3.812c0-.33.268-.597.597-.597Z" fill="#1792e5"/>
          <rect x="18.406" y="16.473" width="5.007" height="5.007" rx=".598" ry=".598" fill="#1792e5"/>
          <rect x="25.797" y="16.473" width="5.007" height="5.007" rx=".598" ry=".598" fill="#1792e5"/>
          <rect x="33.189" y="16.473" width="5.007" height="5.007" rx=".598" ry=".598" fill="#1792e5"/>
          <rect x="40.58" y="16.473" width="5.007" height="5.007" rx=".598" ry=".598" fill="#1792e5"/>
          <path d="M4.22,23.449h3.812c.33,0,.598.268.598.598v3.812c0,.33-.268.598-.598.598h-3.812c-.33,0-.598-.268-.598-.598v-3.812c0-.33.268-.597.597-.597Z" fill="#1792e5"/>
          <rect x="33.189" y="23.449" width="5.007" height="5.007" rx=".598" ry=".598" fill="#1792e5"/>
          <rect x="40.58" y="23.449" width="5.007" height="5.007" rx=".598" ry=".598" fill="#1792e5"/>
          <rect x="11.014" y="23.449" width="19.79" height="5.007" rx=".598" ry=".598" fill="#1792e5"/>
        </g>
        <g>
          <path d="M3.615,8.93h3.812c.33,0,.597.268.597.597v3.812c0,.33-.268.597-.597.597h-3.812c-.33,0-.598-.268-.598-.598v-3.812c0-.33.268-.598.598-.598Z" fill="#d9defb"/>
          <path d="M11.007,8.93h3.812c.33,0,.598.268.598.598v3.812c0,.33-.268.598-.598.598h-3.812c-.33,0-.598-.268-.598-.598v-3.812c0-.33.268-.597.597-.597Z" fill="#d9defb"/>
          <path d="M18.398,8.93h3.812c.33,0,.597.268.597.597v3.812c0,.33-.268.598-.598.598h-3.812c-.33,0-.598-.268-.598-.598v-3.812c0-.33.268-.597.597-.597Z" fill="#d9defb"/>
          <path d="M25.79,8.93h3.812c.33,0,.597.268.597.597v3.812c0,.33-.268.598-.598.598h-3.812c-.33,0-.597-.268-.597-.597v-3.812c0-.33.268-.598.598-.598Z" fill="#d9defb"/>
          <path d="M33.181,8.93h3.812c.33,0,.597.268.597.597v3.812c0,.33-.268.598-.598.598h-3.812c-.33,0-.597-.268-.597-.597v-3.812c0-.33.268-.598.598-.598Z" fill="#d9defb"/>
          <path d="M40.573,8.93h3.812c.33,0,.597.268.597.597v3.812c0,.33-.268.598-.598.598h-3.812c-.33,0-.597-.268-.597-.597v-3.812c0-.33.268-.598.598-.598Z" fill="#d9defb"/>
          <rect x="3.018" y="15.906" width="5.007" height="5.007" rx=".598" ry=".598" fill="#d9defb"/>
          <rect x="10.409" y="15.906" width="5.007" height="5.007" rx=".598" ry=".598" fill="#d9defb"/>
          <rect x="17.801" y="15.906" width="5.007" height="5.007" rx=".598" ry=".598" fill="#d9defb"/>
          <rect x="25.192" y="15.906" width="5.007" height="5.007" rx=".598" ry=".598" fill="#d9defb"/>
          <rect x="32.584" y="15.906" width="5.007" height="5.007" rx=".598" ry=".598" fill="#d9defb"/>
          <rect x="39.975" y="15.906" width="5.007" height="5.007" rx=".598" ry=".598" fill="#d9defb"/>
          <rect x="3.018" y="22.882" width="5.007" height="5.007" rx=".598" ry=".598" fill="#d9defb"/>
          <rect x="32.584" y="22.882" width="5.007" height="5.007" rx=".598" ry=".598" fill="#d9defb"/>
          <rect x="39.975" y="22.882" width="5.007" height="5.007" rx=".598" ry=".598" fill="#d9defb"/>
          <rect x="10.409" y="22.882" width="19.79" height="5.007" rx=".598" ry=".598" fill="#d9defb"/>
        </g>
        <rect x="5.246" y="3.175" width="3.588" height="1.92" fill="#455a64"/>
      </g>
      <g>
        <g>
          <path d="M33.587,41.088l-.328-.197c-1.593-.956-2.568-2.678-2.568-4.537v-3.993c0-1.007.816-1.823,1.823-1.823h0c1.007,0,1.823.816,1.823,1.823v8.727h-.749Z" fill="#ffb7bd"/>
          <path d="M34.335,32.363v5.38h0c-.935-.935-1.46-2.203-1.46-3.525v-3.646c.36.072.676.245.928.496.331.331.532.791.532,1.295Z" fill="#efa3ac"/>
          <path d="M47.225,29.43v6.051c0,2.404-1.243,4.637-3.285,5.904l-.124.077v-12.113c0-.468.194-.899.496-1.208.337-.337.81-.528,1.335-.492.905.063,1.578.874,1.578,1.781Z" fill="#ffb7bd"/>
          <path d="M43.816,28.63v12.832h-3.409v-12.832c0-.468.194-.899.496-1.209.309-.309.734-.496,1.208-.496.942,0,1.705.763,1.705,1.705Z" fill="#ffb7bd"/>
          <path d="M40.406,27.853v13.609h-3.41v-13.609c0-.468.194-.899.496-1.208.309-.309.734-.496,1.208-.496.942,0,1.705.763,1.705,1.705Z" fill="#ffb7bd"/>
          <path d="M36.997,22.588v18.874h-3.409v-18.874c0-.475.194-.899.496-1.208.309-.302.734-.496,1.208-.496.942,0,1.705.763,1.705,1.705Z" fill="#ffb7bd"/>
          <rect x="33.587" y="41.088" width="10.799" height="6.912" fill="#5bb774"/>
        </g>
        <g>
          <path d="M14.412,41.088l.328-.197c1.593-.956,2.568-2.678,2.568-4.537v-3.993c0-1.007-.816-1.823-1.823-1.823h0c-1.007,0-1.823.816-1.823,1.823v8.727h.749Z" fill="#ffb7bd"/>
          <path d="M13.664,32.363v5.38h0c.935-.935,1.46-2.203,1.46-3.525v-3.646c-.36.072-.676.245-.928.496-.331.331-.532.791-.532,1.295Z" fill="#efa3ac"/>
          <path d="M.775,29.43v6.051c0,2.404,1.243,4.637,3.285,5.904l.124.077v-12.113c0-.468-.194-.899-.496-1.208-.337-.337-.809-.528-1.335-.492-.905.063-1.578.874-1.578,1.781Z" fill="#ffb7bd"/>
          <path d="M4.184,28.63v12.832h3.41v-12.832c0-.468-.194-.899-.496-1.209-.309-.309-.734-.496-1.208-.496-.942,0-1.705.763-1.705,1.705Z" fill="#ffb7bd"/>
          <path d="M7.594,27.853v13.609h3.409v-13.609c0-.468-.194-.899-.496-1.208-.309-.309-.734-.496-1.208-.496-.942,0-1.705.763-1.705,1.705Z" fill="#ffb7bd"/>
          <path d="M11.003,22.588v18.874h3.409v-18.874c0-.475-.194-.899-.496-1.208-.309-.302-.734-.496-1.208-.496-.942,0-1.705.763-1.705,1.705Z" fill="#ffb7bd"/>
          <rect x="3.613" y="41.088" width="10.799" height="6.912" fill="#5bb774"/>
        </g>
      </g>
    </g>
  </g>
</svg>