<?xml version="1.0" encoding="UTF-8"?>
<svg id="Layer_2" data-name="Layer 2" xmlns="http://www.w3.org/2000/svg" viewBox="0 0 47.995 35.72">
  <g id="Icons">
    <g id="_150" data-name="150">
      <path d="M47.995,30.346v1.675c0,2.043-1.656,3.699-3.699,3.699H3.699c-2.043,0-3.699-1.656-3.699-3.699v-1.675c0-.374.303-.677.677-.677h46.64c.374,0,.677.303.677.677Z" fill="#d9defb"/>
      <path d="M30.669,29.668v.654c0,.568-.46,1.028-1.028,1.028h-11.286c-.568,0-1.028-.46-1.028-1.028v-.654h13.343Z" fill="#c5cced"/>
      <path d="M45.743,1.775v27.895H2.253V1.775c0-.98.795-1.775,1.775-1.775h39.94c.98,0,1.775.795,1.775,1.775Z" fill="#455a64"/>
      <rect x="5.25" y="3" width="37.49" height="23.67" fill="#2196f3"/>
      <polygon points="42.74 3 42.74 26.67 5.25 26.67 42.74 3" fill="#1792e5"/>
      <g>
        <path d="M18.849,18.97l-4.867-3.331c-.144-.096-.249-.191-.316-.287-.067-.095-.1-.21-.1-.345v-.344c0-.134.031-.248.093-.344.062-.095.17-.196.324-.301l4.867-3.317c.105-.086.2-.129.286-.129s.156.027.208.079c.053.053.079.127.079.222v1.106c0,.125-.028.222-.086.294-.057.072-.148.151-.272.237l-3.475,2.325,3.475,2.325c.124.087.215.165.272.237.058.072.086.165.086.28v1.12c0,.086-.028.155-.086.208-.057.052-.124.079-.201.079-.095,0-.191-.039-.286-.115Z" fill="#fff"/>
        <path d="M20.786,20.994c-.057-.057-.086-.129-.086-.215,0-.057.01-.11.029-.158l4.881-11.728c.038-.076.096-.146.172-.208.077-.062.172-.093.287-.093h.933c.086,0,.158.029.215.086.057.057.086.129.086.215,0,.057-.01.11-.029.158l-4.91,11.728c-.028.077-.078.146-.15.208s-.17.093-.294.093h-.933c-.076,0-.143-.028-.201-.086Z" fill="#fff"/>
        <path d="M28.653,19.006c-.058-.053-.086-.122-.086-.208v-1.12c0-.115.028-.208.086-.28.057-.072.148-.15.272-.237l3.474-2.325-3.474-2.325c-.124-.086-.215-.165-.272-.237-.058-.072-.086-.169-.086-.294v-1.106c0-.095.028-.169.086-.222.057-.052.124-.079.2-.079.086,0,.182.043.287.129l4.867,3.317c.153.105.26.206.322.301.062.096.094.21.094.344v.344c0,.134-.034.249-.101.345-.067.096-.172.191-.315.287l-4.867,3.331c-.096.076-.191.115-.287.115-.076,0-.143-.027-.2-.079Z" fill="#fff"/>
      </g>
      <path d="M13.788,10.568v.006c-1.514,0-2.744,1.229-2.744,2.744,0-.757-.304-1.443-.802-1.941s-1.184-.802-1.941-.802v-.006c1.514,0,2.744-1.229,2.744-2.744,0,.757.304,1.443.802,1.941.498.492,1.184.802,1.941.802Z" fill="#ffd54f"/>
      <path d="M34.679,6.818v.006c-1.388,0-2.516,1.127-2.516,2.516,0-.694-.279-1.323-.736-1.78s-1.086-.736-1.78-.736v-.006c1.388,0,2.516-1.127,2.516-2.516,0,.694.279,1.323.736,1.78.457.451,1.086.736,1.78.736Z" fill="#ffd54f"/>
      <path d="M29.648,22.439v.006c-1.388,0-2.516,1.127-2.516,2.516,0-.694-.279-1.323-.736-1.78-.457-.457-1.086-.736-1.78-.736v-.006c1.388,0,2.516-1.127,2.516-2.516,0,.694.279,1.323.736,1.78.457.451,1.086.736,1.78.736Z" fill="#ffd54f"/>
    </g>
  </g>
</svg>