<?xml version="1.0" encoding="UTF-8"?>
<svg id="Layer_2" data-name="Layer 2" xmlns="http://www.w3.org/2000/svg" viewBox="0 0 48 38.762">
  <g id="Icons">
    <g id="_122" data-name="122">
      <rect x="4.253" width="39.495" height="25.256" rx="1.632" ry="1.632" fill="#455a64"/>
      <path d="M44.14,26.325l3.759,10.242c.391,1.065-.398,2.194-1.532,2.194H1.634c-1.135,0-1.923-1.129-1.532-2.194l3.759-10.242c.236-.643.848-1.07,1.532-1.07h37.216c.684,0,1.296.427,1.532,1.07Z" fill="#455a64"/>
      <polygon points="44.087 32.102 42.323 27.296 5.676 27.296 3.913 32.102 44.087 32.102" fill="#d9defb"/>
      <polygon points="18.762 33.817 17.683 36.757 30.317 36.757 29.238 33.817 18.762 33.817" fill="#d9defb"/>
      <rect x="6.293" y="2.04" width="35.415" height="21.176" fill="#d9defb"/>
      <rect x="8.292" y="4.04" width="31.415" height="12.924" fill="#2196f3"/>
      <rect x="8.292" y="19.337" width="31.415" height="1.129" fill="#c5cced"/>
      <rect x="8.292" y="19.337" width="10.579" height="1.129" fill="#f45558"/>
      <g>
        <path d="M28.189,10.505c0,2.315-1.877,4.186-4.192,4.186s-4.186-1.872-4.186-4.186,1.877-4.192,4.186-4.192,4.192,1.877,4.192,4.192Z" fill="#fff"/>
        <path d="M25.657,10.853l-2.243,1.533c-.279.191-.658-.009-.658-.348v-3.071c0-.339.38-.539.659-.347l2.243,1.538c.244.167.244.528,0,.695Z" fill="#f45558"/>
      </g>
      <rect x="18.562" y="18.49" width="1.083" height="2.82" fill="#455a64"/>
    </g>
  </g>
</svg>