<?xml version="1.0" encoding="UTF-8"?>
<svg id="Layer_2" data-name="Layer 2" xmlns="http://www.w3.org/2000/svg" viewBox="0 0 47.999 48.003">
  <g id="Icons">
    <g id="_183" data-name="183">
      <path d="M15.585,10.583c-7.94,0-14.384,6.433-14.384,14.374,0,6.568,9.841,17.716,13.243,21.374.617.663,1.665.663,2.282,0,3.4-3.659,13.233-14.806,13.233-21.374,0-7.941-6.433-14.374-14.374-14.374ZM15.585,32.1c-3.943,0-7.143-3.2-7.143-7.143s3.2-7.132,7.143-7.132,7.132,3.189,7.132,7.132-3.189,7.143-7.132,7.143Z" fill="#2196f3"/>
      <rect y="45.653" width="31.16" height="2.35" rx=".327" ry=".327" fill="#455a64"/>
      <g>
        <g>
          <path d="M43.683,15.12c0,.511-.408.919-.919.919-.503.008-.919-.408-.919-.919.008-4.947-4.012-8.966-8.966-8.966-.511,0-.911-.416-.919-.919,0-.511.408-.919.919-.919,5.962,0,10.812,4.851,10.804,10.804Z" fill="#f45558"/>
          <path d="M39.376,15.128c0,.495-.415.911-.919.919-.503-.008-.919-.424-.919-.919,0-2.573-2.086-4.659-4.659-4.659-.503-.008-.911-.416-.919-.919,0-.511.416-.927.919-.919,3.58,0,6.497,2.917,6.497,6.497Z" fill="#f45558"/>
          <path d="M47.999,15.12c0,.511-.407.919-.919.919-.503.008-.919-.408-.919-.919,0-7.32-5.953-13.274-13.282-13.282-.503.008-.919-.408-.919-.919.008-.504.416-.911.919-.919,8.343,0,15.128,6.785,15.12,15.12Z" fill="#f45558"/>
        </g>
        <path d="M34.318,17.544c-1.073,1.073-2.793,1.073-3.866,0-1.064-1.065-1.064-2.785.008-3.858,1.064-1.065,2.793-1.073,3.858-.009,1.073,1.073,1.064,2.802,0,3.866Z" fill="#f45558"/>
      </g>
    </g>
  </g>
</svg>