<?xml version="1.0" encoding="UTF-8"?>
<svg id="Layer_2" data-name="Layer 2" xmlns="http://www.w3.org/2000/svg" viewBox="0 0 32.163 48">
  <g id="Icons">
    <g id="_171" data-name="171">
      <path d="M27.991,11.916v11.125h-4.795v-11.125c0-3.932-3.189-7.121-7.109-7.121s-7.121,3.189-7.121,7.121v11.125h-4.795v-11.125C4.172,5.347,9.518,0,16.087,0s11.904,5.347,11.904,11.916Z" fill="#455a64"/>
      <path d="M4.172,18.341c1.415-1.259,3.033-2.278,4.795-3.033v7.732h-4.795v-4.699Z" fill="#384c54"/>
      <path d="M27.991,18.341v4.699h-4.795v-7.732c1.762.743,3.381,1.774,4.795,3.033Z" fill="#384c54"/>
      <path d="M32.163,31.924c0,8.883-7.204,16.076-16.075,16.076S0,40.807,0,31.924,7.205,15.837,16.088,15.837s16.075,7.205,16.075,16.087Z" fill="#ffd54f"/>
      <g>
        <path d="M16.699,15.848v32.139c-.204.012-.408.012-.611.012s-.407,0-.611-.012V15.848c.204-.012.408-.012.611-.012s.408,0,.611.012Z" fill="#ffa14e"/>
        <path d="M24.647,45.529c-.348.216-.707.42-1.067.611l-6.881-11.928-.611-1.067-.228-.384-.132-.228-.096-.168-.156-.264-.108-.18-.132-.228-.216-.384-.623-1.079-6.881-11.928c.348-.216.707-.42,1.067-.611l6.893,11.94.611,1.055.216.384.144.24.084.156.168.288.096.168.132.216.216.396.623,1.067,6.881,11.928Z" fill="#ffa14e"/>
        <path d="M30.305,39.416c-.192.372-.396.719-.611,1.067l-11.928-6.881-1.067-.623-.396-.216-.216-.132-.168-.096-.288-.168-.156-.084-.24-.144-.384-.216-1.055-.611L1.858,24.419c.192-.36.396-.719.611-1.067l11.928,6.881,1.079.623.384.216.228.132.18.108.264.156.168.096.228.132.384.228,1.067.611,11.928,6.881Z" fill="#ffa14e"/>
        <path d="M32.163,31.923c0,.204,0,.408-.012.611H.012c-.012-.204-.012-.408-.012-.611s0-.408.012-.611h32.139c.012.204.012.408.012.611Z" fill="#ffa14e"/>
        <path d="M30.305,24.419l-11.94,6.893-1.055.611-.384.216-.228.132-.168.096-.288.168-.156.096-.228.132-.384.216-1.079.623-11.928,6.881c-.216-.348-.42-.695-.611-1.067l11.928-6.881,1.067-.611.384-.228.24-.144.156-.084.264-.156.192-.108.216-.132.396-.216,1.067-.623,11.928-6.881c.216.348.42.707.611,1.067Z" fill="#ffa14e"/>
        <path d="M24.647,18.305l-6.881,11.928-.623,1.079-.216.384-.132.228-.096.156-.168.288-.096.168-.132.228-.216.384-.611,1.055-6.893,11.94c-.36-.192-.719-.396-1.067-.611l6.881-11.928.623-1.067.216-.396.132-.216.108-.192.156-.264.084-.156.144-.24.228-.384.611-1.067,6.881-11.928c.36.192.719.396,1.067.611Z" fill="#ffa14e"/>
      </g>
      <path d="M27.341,31.923c0,6.219-5.044,11.255-11.255,11.255s-11.263-5.036-11.263-11.255,5.044-11.263,11.263-11.263,11.255,5.044,11.255,11.263Z" fill="#ffa14e"/>
      <path d="M25.946,31.922c0,5.449-4.419,9.861-9.86,9.861s-9.868-4.412-9.868-9.861,4.419-9.868,9.868-9.868,9.86,4.419,9.86,9.868Z" fill="#d9defb"/>
      <path d="M17.305,32.246l.93,3.93h-4.316l.939-3.93c-.734-.426-1.232-1.214-1.232-2.129,0-1.35,1.096-2.455,2.455-2.455s2.455,1.105,2.455,2.455c0,.915-.498,1.703-1.232,2.129Z" fill="#455a64"/>
    </g>
  </g>
</svg>