<?xml version="1.0" encoding="UTF-8"?>
<svg id="Layer_2" data-name="Layer 2" xmlns="http://www.w3.org/2000/svg" viewBox="0 0 48 48">
  <g id="Icons">
    <g id="_190" data-name="190">
      <path d="M46.372,16.528h-10.969v29.598h10.969c.899,0,1.628-.729,1.628-1.628v-26.342c0-.899-.729-1.628-1.628-1.628Z" fill="#d9defb"/>
      <path d="M1.628,16.528h32.665v29.598H1.628c-.899,0-1.628-.729-1.628-1.628v-26.342c0-.899.729-1.628,1.628-1.628Z" fill="#d9defb"/>
      <rect x="3.017" y="19.545" width="28.259" height="23.565" fill="#384c54"/>
      <rect x="4.825" y="21.354" width="24.64" height="19.95" fill="#455a64"/>
      <rect x="34.293" y="16.527" width="1.11" height="29.599" fill="#455a64"/>
      <g>
        <rect x="37.653" y="18.944" width="8.097" height="5.152" fill="#2196f3"/>
        <path d="M46.051,24.398h-8.7v-5.756h8.7v5.756ZM37.955,23.795h7.493v-4.549h-7.493v4.549Z" fill="#455a64"/>
        <g>
          <rect x="37.367" y="25.615" width="1.976" height="1.976" fill="#455a64"/>
          <rect x="40.713" y="25.615" width="1.976" height="1.976" fill="#455a64"/>
          <rect x="44.06" y="25.615" width="1.976" height="1.976" fill="#455a64"/>
        </g>
        <g>
          <rect x="37.367" y="28.564" width="1.976" height="1.976" fill="#455a64"/>
          <rect x="40.713" y="28.564" width="1.976" height="1.976" fill="#455a64"/>
          <rect x="44.06" y="28.564" width="1.976" height="1.976" fill="#455a64"/>
        </g>
        <g>
          <rect x="37.367" y="31.514" width="1.976" height="1.976" fill="#455a64"/>
          <rect x="40.713" y="31.514" width="1.976" height="1.976" fill="#455a64"/>
          <rect x="44.06" y="31.514" width="1.976" height="1.976" fill="#455a64"/>
        </g>
        <g>
          <path d="M40.464,35.814c0,.736-.603,1.339-1.339,1.339-.748,0-1.339-.603-1.339-1.339,0-.748.591-1.351,1.339-1.351.736,0,1.339.603,1.339,1.351Z" fill="#f45558"/>
          <path d="M45.617,35.814c0,.736-.603,1.339-1.339,1.339-.748,0-1.339-.603-1.339-1.339,0-.748.591-1.351,1.339-1.351.736,0,1.339.603,1.339,1.351Z" fill="#f45558"/>
        </g>
        <g>
          <path d="M44.815,40.902c0,1.715-1.394,3.109-3.11,3.109s-3.118-1.394-3.118-3.109,1.394-3.118,3.118-3.118,3.11,1.394,3.11,3.118Z" fill="#455a64"/>
          <path d="M43.337,42.537c-.902.902-2.369.902-3.271,0-.907-.907-.907-2.373-.004-3.276.907-.907,2.373-.907,3.28,0,.902.902.902,2.369-.004,3.276Z" fill="#ffd54f"/>
          <path d="M43.721,39.391l-1.87,1.87c-.137.137-.37.143-.514,0-.137-.137-.137-.376,0-.514l1.87-1.87c.143-.143.376-.137.514,0,.143.143.143.37,0,.514Z" fill="#455a64"/>
        </g>
      </g>
      <g>
        <polygon points="8.733 46.126 6.997 48 4.804 48 4.804 46.126 8.733 46.126" fill="#455a64"/>
        <polygon points="39.267 46.126 41.002 48 43.196 48 43.196 46.126 39.267 46.126" fill="#455a64"/>
      </g>
      <g>
        <path d="M26.355,9.007c.422.422.422,1.13,0,1.566-.436.422-1.143.422-1.566,0-4.221-4.221-11.069-4.221-15.29,0-.422.422-1.13.422-1.566,0-.422-.436-.422-1.144,0-1.566,5.078-5.079,13.343-5.079,18.422,0Z" fill="#2196f3"/>
        <path d="M22.679,12.669c.422.436.436,1.144,0,1.566-.436.436-1.144.436-1.566,0-2.192-2.178-5.746-2.178-7.938,0-.422.436-1.13.436-1.566,0-.422-.422-.422-1.13,0-1.566,3.05-3.05,8.019-3.05,11.069,0Z" fill="#2196f3"/>
        <path d="M30.032,5.331c.422.422.422,1.13,0,1.566-.436.422-1.144.422-1.566,0C22.216.647,12.073.647,5.837,6.896c-.436.422-1.144.422-1.566,0-.436-.436-.436-1.144,0-1.566,7.094-7.107,18.653-7.107,25.761,0Z" fill="#2196f3"/>
      </g>
      <g opacity=".2">
        <polygon points="22.215 21.354 4.825 38.744 4.825 32.684 16.155 21.354 22.215 21.354" fill="#fff"/>
      </g>
      <g opacity=".2">
        <polygon points="26.775 21.354 6.825 41.304 4.825 41.304 4.825 40.284 23.745 21.354 26.775 21.354" fill="#fff"/>
      </g>
    </g>
  </g>
</svg>