<?xml version="1.0" encoding="UTF-8"?>
<svg id="Layer_2" data-name="Layer 2" xmlns="http://www.w3.org/2000/svg" viewBox="0 0 48 37.57">
  <g id="Icons">
    <g id="_246" data-name="246">
      <rect width="48" height="37.57" rx="1.686" ry="1.686" fill="#5bb774"/>
      <path d="M43.97,6.379h-.93v-1.916h-.99v1.916h-1.339v-1.916h-.99v1.916h-1.339v-1.916h-.99v1.916h-1.339v-1.916h-.99v1.916h-1.339v-1.916h-.99v1.916h-1.339v-1.916h-.99v1.916h-.93c-.487,0-.881.395-.881.881v10.435c0,.487.395.881.881.881h.93v1.916h.99v-1.916h1.339v1.916h.99v-1.916h1.339v1.916h.99v-1.916h1.339v1.916h.99v-1.916h1.339v1.916h.99v-1.916h1.339v1.916h.99v-1.916h.93c.487,0,.881-.395.881-.881V7.26c0-.487-.395-.881-.881-.881Z" fill="#4ea863"/>
      <rect x="3.882" y="27.612" width="19.14" height="2.3" rx=".708" ry=".708" fill="#4ea863"/>
      <rect x="3.882" y="31.976" width="19.14" height="2.3" rx=".708" ry=".708" fill="#4ea863"/>
      <rect x="4.451" y="4.931" width="19.75" height="19.75" rx=".972" ry=".972" fill="#4ea863"/>
      <rect x="25.724" y="28.659" width="19.42" height="6.608" rx=".556" ry=".556" fill="#4ea863"/>
      <g>
        <rect x="3.7" y="4.18" width="19.75" height="19.75" rx=".972" ry=".972" fill="#fff"/>
        <path d="M21.614,14.05c0,4.443-3.601,8.044-8.044,8.044s-8.034-3.601-8.034-8.044,3.601-8.034,8.034-8.034,8.044,3.601,8.044,8.034Z" fill="#d9defb"/>
        <path d="M20.286,14.051c0,3.709-3.006,6.715-6.715,6.715s-6.706-3.006-6.706-6.715,3.006-6.707,6.706-6.707,6.715,3.006,6.715,6.707Z" fill="#455a64"/>
        <rect x="13.075" y="6.161" width="1" height="15.789" fill="#d9defb"/>
        <rect x="13.075" y="6.161" width="1" height="15.789" transform="translate(-5.962 13.716) rotate(-45.001)" fill="#d9defb"/>
        <rect x="5.681" y="13.555" width="15.789" height="1" fill="#d9defb"/>
        <rect x="5.681" y="13.555" width="15.789" height="1" transform="translate(-5.962 13.717) rotate(-45.004)" fill="#d9defb"/>
      </g>
      <g>
        <g>
          <g>
            <rect x="29.871" y="18.07" width=".99" height="1.92" fill="#ffd54f"/>
            <rect x="32.201" y="18.07" width=".99" height="1.92" fill="#ffd54f"/>
            <rect x="34.53" y="18.07" width=".99" height="1.92" fill="#ffd54f"/>
            <rect x="36.859" y="18.07" width=".99" height="1.92" fill="#ffd54f"/>
            <rect x="39.188" y="18.07" width=".99" height="1.92" fill="#ffd54f"/>
            <rect x="41.517" y="18.07" width=".99" height="1.92" fill="#ffd54f"/>
          </g>
          <g>
            <rect x="29.871" y="3.96" width=".99" height="1.92" fill="#ffd54f"/>
            <rect x="32.201" y="3.96" width=".99" height="1.92" fill="#ffd54f"/>
            <rect x="34.53" y="3.96" width=".99" height="1.92" fill="#ffd54f"/>
            <rect x="36.859" y="3.96" width=".99" height="1.92" fill="#ffd54f"/>
            <rect x="39.188" y="3.96" width=".99" height="1.92" fill="#ffd54f"/>
            <rect x="41.517" y="3.96" width=".99" height="1.92" fill="#ffd54f"/>
          </g>
        </g>
        <rect x="28.06" y="5.876" width="16.258" height="12.198" rx=".881" ry=".881" fill="#455a64"/>
        <rect x="31.352" y="8.882" width="9.675" height="6.186" fill="#d9defb"/>
      </g>
      <rect x="25.059" y="27.995" width="19.42" height="6.608" rx=".556" ry=".556" fill="#fff"/>
      <g>
        <rect x="27.212" y="29.923" width="2.812" height="2.75" fill="#455a64"/>
        <rect x="31.313" y="29.923" width="2.812" height="2.75" fill="#455a64"/>
        <rect x="35.414" y="29.923" width="2.812" height="2.75" fill="#455a64"/>
        <rect x="39.515" y="29.923" width="2.812" height="2.75" fill="#455a64"/>
      </g>
      <rect x="3.43" y="27.16" width="19.14" height="2.3" rx=".708" ry=".708" fill="#ffd54f"/>
      <rect x="3.43" y="31.523" width="19.14" height="2.3" rx=".708" ry=".708" fill="#ffd54f"/>
    </g>
  </g>
</svg>