<?xml version="1.0" encoding="UTF-8"?>
<svg id="Layer_2" data-name="Layer 2" xmlns="http://www.w3.org/2000/svg" viewBox="0 0 48 39.639">
  <g id="Icons">
    <g id="_274" data-name="274">
      <g>
        <rect x="5.909" y="37.739" width="6.564" height="1.9" fill="#455a64"/>
        <rect x="35.527" y="37.739" width="6.564" height="1.9" fill="#455a64"/>
      </g>
      <path d="M1.348,24.992h45.305c.744,0,1.347.604,1.347,1.347v10.05c0,.744-.604,1.347-1.347,1.347H1.347c-.744,0-1.347-.604-1.347-1.347v-10.05c0-.744.604-1.348,1.348-1.348Z" fill="#d9defb"/>
      <rect y="27.809" width="48" height="7.111" fill="#455a64"/>
      <g>
        <rect x="39.658" y="30.51" width="5.237" height="1.797" fill="#2196f3"/>
        <rect x="32.524" y="30.51" width="5.237" height="1.797" fill="#2196f3"/>
        <rect x="25.39" y="30.51" width="5.237" height="1.797" fill="#2196f3"/>
        <rect x="18.256" y="30.51" width="5.237" height="1.797" fill="#2196f3"/>
      </g>
      <path d="M7.476,31.364c0,1.094-.893,1.987-1.987,1.987s-1.987-.893-1.987-1.987.893-1.987,1.987-1.987,1.987.893,1.987,1.987Z" fill="#f45558"/>
      <g>
        <g>
          <path d="M9.258.798v11.299h-1.595V.798c0-.44.357-.798.798-.798h0c.441,0,.798.357.798.798Z" fill="#455a64"/>
          <rect x="7.663" y="11.162" width="1.596" height=".934" fill="#384c54"/>
          <path d="M10.724,23.893v1.096h-4.526v-1.096c0-.187.151-.339.338-.339h3.849c.187,0,.338.152.338.339Z" fill="#455a64"/>
          <path d="M9.959,12.497v11.058h-2.996v-11.058c0-.221.179-.401.4-.401h2.195c.221,0,.401.179.401.401Z" fill="#455a64"/>
          <rect x="6.963" y="22.626" width="2.996" height=".929" fill="#384c54"/>
        </g>
        <g>
          <path d="M40.337.798v11.299h-1.596V.798c0-.44.357-.798.798-.798h0c.441,0,.798.357.798.798Z" fill="#455a64"/>
          <rect x="38.741" y="11.162" width="1.596" height=".934" fill="#384c54"/>
          <path d="M41.802,23.893v1.096h-4.526v-1.096c0-.187.152-.339.339-.339h3.849c.187,0,.339.152.339.339Z" fill="#455a64"/>
          <path d="M41.037,12.497v11.058h-2.996v-11.058c0-.221.179-.401.401-.401h2.195c.221,0,.401.179.401.401Z" fill="#455a64"/>
          <rect x="38.041" y="22.626" width="2.996" height=".929" fill="#384c54"/>
        </g>
      </g>
    </g>
  </g>
</svg>