<?xml version="1.0" encoding="UTF-8"?>
<svg id="Layer_2" data-name="Layer 2" xmlns="http://www.w3.org/2000/svg" viewBox="0 0 48 48">
  <g id="Icons">
    <g id="_128" data-name="128">
      <path d="M44.216,22.032c-5.039,5.039-13.209,5.039-18.248,0-5.039-5.039-5.039-13.209,0-18.248,5.039-5.039,13.218-5.048,18.257-.009s5.031,13.218-.009,18.257Z" fill="#d9defb"/>
      <path d="M44.216,22.032c-5.039,5.039-13.209,5.039-18.248,0-5.039-5.039-5.039-13.209,0-18.248,5.039-5.039,13.218-5.048,18.257-.009s5.031,13.218-.009,18.257Z" fill="#d9defb"/>
      <path d="M44.221,22.034c-.571.571-1.188,1.08-1.828,1.52L24.453,5.613c.44-.64.949-1.257,1.519-1.828s1.188-1.08,1.836-1.527l17.94,17.94c-.447.648-.956,1.265-1.527,1.836Z" fill="#c5cced"/>
      <path d="M41.728,19.53l2.769.008v2.206c.463-.478.872-.995,1.242-1.535l-.008-.671h.432c.247-.401.463-.818.656-1.242h-1.08l-.008-2.769h1.99c.085-.409.154-.818.193-1.242h-2.175v-2.761l2.183-.008c-.039-.409-.108-.818-.185-1.234h-2.005l.008-2.769h1.08c-.185-.417-.401-.833-.64-1.242h-.447v-.679c-.362-.532-.771-1.049-1.234-1.527v2.206l-2.769.008v-2.777l2.214.008c-.478-.463-.995-.872-1.535-1.242h-.679v-.447c-.409-.239-.818-.447-1.242-.64v1.08l-2.769.008V.263c-.416-.077-.825-.147-1.234-.185v2.19l-2.769-.008V.085c-.424.038-.833.108-1.242.193v1.99l-2.769-.008v-1.064c-.424.177-.833.401-1.242.64v.432h-.663c-.532.362-1.041.779-1.527,1.234h2.19l.008,2.769h-2.777s.008-2.198.008-2.198c-.463.478-.872.995-1.242,1.535v.663h-.432c-.239.409-.463.818-.656,1.242h1.08l.008,2.769-1.998-.008c-.085.409-.146.825-.185,1.249l2.183-.008v2.777s-2.183-.008-2.183-.008c.039.424.1.841.193,1.242h1.99l-.008,2.769h-1.08c.193.424.401.833.64,1.242h.447v.679c.37.54.779,1.057,1.242,1.535l-.008-2.214h2.777l-.008,2.769h-2.206c.478.463.995.871,1.527,1.234h.679v.447c.409.239.825.455,1.242.64v-1.08l2.769-.008v1.99c.401.092.818.154,1.242.193v-2.175l2.769-.008-.008,2.183c.424-.039.841-.1,1.249-.185l-.008-1.998,2.769.008v1.08c.416-.185.833-.401,1.242-.64v-.447s.679,0,.679,0c.54-.37,1.057-.779,1.535-1.242l-2.214.008v-2.777ZM44.489,18.296h-2.761v-2.761s2.769-.008,2.769-.008l-.008,2.769ZM32.472,10.274l-2.769.008v-2.777s2.769.008,2.769.008v2.761ZM33.706,7.513h2.777l-.008,2.769h-2.761l-.008-2.769ZM32.472,11.524v2.761l-2.769.008v-2.777l2.769.008ZM33.714,11.516l2.769.008v2.761s-2.769.008-2.769.008v-2.777ZM37.717,11.524l2.769-.008v2.777l-2.769-.008v-2.761ZM36.475,15.527l.008,2.769h-2.777l.008-2.769h2.761ZM37.725,15.527h2.761l.008,2.769h-2.777l.008-2.769ZM44.497,14.292l-2.769-.008v-2.761s2.769-.008,2.769-.008v2.777ZM44.497,7.505v2.777l-2.769-.008v-2.761s2.769-.008,2.769-.008ZM40.486,10.282h-2.761l-.008-2.769h2.777l-.008,2.769ZM40.494,3.502l-.008,2.769h-2.761l-.008-2.769h2.777ZM36.483,3.502l-.008,2.769h-2.761l-.008-2.769h2.777ZM29.703,3.51l2.769-.008v2.777l-2.769-.008v-2.761ZM25.7,7.513h2.761l.008,2.769h-2.777l.008-2.769ZM25.693,11.516l2.769.008v2.761h-2.761l-.008-2.769ZM25.7,18.296l-.008-2.769h2.777s-.008,2.769-.008,2.769h-2.761ZM29.703,15.527l2.769.008v2.761h-2.761l-.008-2.769ZM29.703,22.299v-2.761s2.769-.008,2.769-.008v2.777l-2.769-.008ZM33.714,22.299v-2.761h2.761l.008,2.769-2.769-.008ZM37.717,22.306l.008-2.769h2.761v2.761l-2.769.008Z" fill="#c5cced"/>
      <rect x="21.855" y="12.958" width="7.635" height="18.739" rx=".745" ry=".745" transform="translate(-8.269 24.693) rotate(-45)" fill="#f45558"/>
      <rect x="33.424" y="-.952" width="3.344" height="27.712" rx=".53" ry=".53" transform="translate(1.155 28.596) rotate(-45)" fill="#455a64"/>
      <g>
        <path d="M18.919,18.348c0-.038.013-.07.04-.097l2.632-2.632c.03-.03.062-.045.099-.046.036-.002.069.013.099.042l.315.315c.051.051.067.113.048.186l-.639,2.951,1.762-1.762c.03-.03.063-.045.099-.046.036-.002.069.013.099.042l.347.348c.03.03.045.063.045.101,0,.038-.015.071-.044.101l-2.628,2.628c-.03.03-.063.044-.101.044-.038,0-.07-.013-.097-.04l-.319-.319c-.054-.054-.072-.117-.053-.19l.602-2.906-1.726,1.726c-.027.027-.059.041-.095.042-.036.002-.069-.013-.099-.042l-.348-.348c-.027-.027-.041-.059-.04-.097Z" fill="#fff"/>
        <path d="M21.777,21.206c0-.038.013-.07.04-.097l2.632-2.632c.03-.03.062-.045.099-.046.036-.002.069.013.099.042l1.783,1.783c.03.03.044.063.044.101s-.015.071-.044.101l-.271.271c-.03.03-.063.044-.099.042-.037-.001-.069-.017-.099-.046l-1.326-1.326-.707.707,1.237,1.237c.03.03.044.064.044.101,0,.038-.015.072-.045.101l-.255.255c-.03.03-.063.044-.099.042-.036-.001-.069-.017-.099-.046l-1.237-1.237-.732.732,1.358,1.358c.03.03.045.063.047.099.001.036-.013.069-.042.099l-.275.275c-.03.03-.063.044-.099.042-.036-.001-.069-.017-.099-.047l-1.815-1.815c-.027-.027-.041-.059-.04-.097Z" fill="#fff"/>
        <path d="M24.68,23.922l2.114-3.068.028-.036c.024-.024.052-.036.085-.037.032,0,.061.012.085.037l.364.364c.035.035.054.067.059.095.004.028-.006.06-.03.095l-1.484,2.155,1.532-.813c.094-.04.172-.03.234.032l.222.222c.035.035.053.074.055.115.001.042-.008.08-.026.115l-.809,1.536,2.151-1.488c.062-.046.126-.035.194.032l.364.364c.021.021.032.048.032.081,0,.032-.012.06-.037.085-.013.014-.025.023-.036.029l-3.068,2.114c-.043.032-.088.046-.135.042-.047-.004-.091-.026-.131-.067l-.275-.275c-.038-.038-.059-.079-.063-.123-.004-.044.003-.084.022-.119l.889-1.795-1.795.889c-.089.046-.17.032-.242-.04l-.275-.275c-.078-.078-.086-.167-.024-.267Z" fill="#fff"/>
        <path d="M27.946,27.294c-.1-.245-.135-.472-.105-.679.029-.207.112-.384.247-.529.021-.022.049-.033.083-.034.034-.002.063.01.087.034l.368.368c.03.03.047.061.053.093.005.032.004.069-.004.109-.065.119-.08.257-.047.414.034.158.134.32.301.487.189.189.362.299.522.331.159.033.294-.007.404-.117.073-.073.109-.158.109-.255s-.031-.213-.093-.347-.164-.325-.307-.57c-.243-.393-.376-.726-.4-.998-.024-.272.079-.524.311-.756.156-.156.339-.253.548-.289.209-.036.428-.01.659.081.23.09.452.242.665.455.224.224.378.456.463.697.085.241.111.463.079.665-.032.202-.104.364-.214.485-.022.022-.049.033-.083.035-.034.001-.063-.01-.087-.035l-.384-.384c-.059-.059-.075-.124-.048-.194.073-.1.092-.224.059-.374-.034-.15-.118-.292-.253-.426-.148-.148-.293-.236-.435-.265-.141-.028-.266.011-.374.119-.073.073-.112.155-.117.247-.005.092.02.201.075.329.055.128.147.302.277.523.186.294.316.545.39.754.074.209.094.398.059.568-.035.17-.132.334-.291.493-.175.175-.375.279-.598.311-.224.032-.456-.005-.697-.111-.241-.106-.477-.274-.706-.503-.242-.243-.414-.486-.513-.732Z" fill="#fff"/>
      </g>
      <path d="M28.078,30.126L6.741,47.41c-1.052.852-2.577.772-3.535-.185l-2.432-2.432c-.957-.957-1.037-2.483-.185-3.535l17.285-21.337,10.204,10.204Z" fill="#455a64"/>
      <polygon points="25.085 32.551 28.078 30.126 17.874 19.922 15.449 22.915 25.085 32.551" fill="#384c54"/>
      <rect x="12.524" y="30.104" width="7.863" height="3.466" rx=".547" ry=".547" transform="translate(-17.692 20.96) rotate(-44.999)" fill="#d9defb"/>
    </g>
  </g>
</svg>