<?xml version="1.0" encoding="UTF-8"?>
<svg id="Layer_2" data-name="Layer 2" xmlns="http://www.w3.org/2000/svg" viewBox="0 0 48 40.621">
  <g id="Icons">
    <g id="_38" data-name="38">
      <path d="M43.717,10.908c-.349-4.464-4.087-7.993-8.635-7.993-.949,0-1.869.154-2.706.432-1.59-2.051-4.073-3.348-6.835-3.348-2.608,0-4.966,1.158-6.556,3.013-1.102-.516-2.357-.823-3.669-.823-3.683,0-6.807,2.302-8.063,5.538C3.083,8.676,0,12.373,0,16.823c0,5.133,4.185,9.346,9.346,9.346,1.744,0,3.404-.502,4.799-1.353,1.088,1.604,2.692,2.818,4.589,3.39,6.629,3.157,7.935,9.534,8.192,11.964.028.261.248.451.51.451h7.33c.448,0,.671-.521.38-.861-1.333-1.562-2.455-3.434-3.37-5.584,3.041-.544,4.436-2.204,5.064-3.85,2.176-.544,4.045-1.925,5.217-3.766,3.445-1.116,5.942-4.38,5.942-8.202,0-3.194-1.744-5.984-4.283-7.449Z" fill="#d9defb"/>
      <g opacity=".1">
        <path d="M34.762,40.621h-7.324c-.265,0-.488-.195-.516-.446-.251-2.441-1.562-8.816-8.188-11.969-1.897-.572-3.501-1.785-4.589-3.39-1.395.851-3.055,1.353-4.799,1.353-5.161,0-9.346-4.213-9.346-9.346,0-4.45,3.083-8.147,7.254-9.095,1.241-3.222,4.338-5.51,7.993-5.538l16.53,31.986c.921,2.148,2.037,4.017,3.376,5.58.279.349.056.865-.391.865Z" fill="#455a64"/>
      </g>
      <path d="M12.028,22.542l-3.289-12.345c-.052-.193.011-.399.163-.531.152-.13.365-.163.548-.085l13.956,5.965-.411.962-12.969-5.542,3.013,11.307-1.011.27Z" fill="#455a64"/>
      <rect x="27.78" y="12.467" width="13.719" height="1.047" transform="translate(-1.869 7.011) rotate(-11.255)" fill="#455a64"/>
      <path d="M40.341,24.844c-.087,0-.174-.022-.253-.065l-12.552-6.958.507-.916,11.142,6.176-7.696-16.448-5.832,5.449c-.21.196-.539.185-.737-.023l-4.993-5.281-4.69,15.845-1.003-.297,4.948-16.716c.053-.179.197-.317.379-.36.186-.042.374.014.502.149l5.26,5.563,5.978-5.586c.122-.114.29-.162.456-.132.164.032.303.14.375.292l8.684,18.561c.096.205.048.449-.117.603-.099.093-.227.141-.357.141Z" fill="#455a64"/>
      <rect x="15.487" y="20.954" width="10.326" height="1.046" transform="translate(-7.241 10.999) rotate(-25.534)" fill="#455a64"/>
      <path d="M25.232,27.643c-1.733,1.213-4.07,1.553-6.167,1.022-1.048-.278-2.048-.749-2.894-1.419-.846-.665-1.558-1.492-2.028-2.437,1.395,1.568,3.145,2.692,5.094,3.18,1.945.503,4.021.366,5.995-.346Z" fill="#b3bcdd"/>
      <path d="M34.833,4.577c0,1.497-1.222,2.707-2.719,2.707s-2.707-1.21-2.707-2.707,1.21-2.719,2.707-2.719,2.719,1.222,2.719,2.719Z" fill="#2196f3"/>
      <path d="M46.04,10.606c0,1.497-1.222,2.707-2.719,2.707s-2.707-1.21-2.707-2.707,1.21-2.719,2.707-2.719,2.719,1.222,2.719,2.719Z" fill="#5bb774"/>
      <path d="M43.577,24.918c0,1.497-1.222,2.707-2.719,2.707s-2.707-1.21-2.707-2.707,1.21-2.719,2.707-2.719,2.719,1.222,2.719,2.719Z" fill="#ffa14e"/>
      <path d="M10.992,8.993c0,1.497-1.222,2.707-2.719,2.707s-2.707-1.21-2.707-2.707,1.21-2.719,2.707-2.719,2.719,1.222,2.719,2.719Z" fill="#a96c79"/>
      <path d="M16.708,23.709c0,1.497-1.222,2.707-2.719,2.707s-2.707-1.21-2.707-2.707,1.21-2.719,2.707-2.719,2.719,1.222,2.719,2.719Z" fill="#5bb774"/>
      <path d="M21.709,4.06c0,1.497-1.222,2.707-2.719,2.707s-2.707-1.21-2.707-2.707,1.21-2.719,2.707-2.719,2.719,1.221,2.719,2.719Z" fill="#ffa14e"/>
      <path d="M31.783,34.169c.836-.332,1.659-.621,2.362-1.11.721-.449,1.324-1.046,1.779-1.739.939-1.385,1.264-3.129,1.306-4.905.272.86.316,1.783.215,2.693-.099.913-.422,1.816-.941,2.599-.527.773-1.244,1.442-2.095,1.816-.403.232-.858.329-1.286.473-.445.09-.897.136-1.34.172Z" fill="#c5cced"/>
      <path d="M29.635,16.035c0,2.387-1.948,4.316-4.335,4.316s-4.316-1.929-4.316-4.316,1.929-4.335,4.316-4.335,4.335,1.948,4.335,4.335Z" fill="#f45558"/>
    </g>
  </g>
</svg>