<?xml version="1.0" encoding="UTF-8"?>
<svg id="Layer_2" data-name="Layer 2" xmlns="http://www.w3.org/2000/svg" viewBox="0 0 28.357 48">
  <g id="Icons">
    <g id="_67" data-name="67">
      <rect width="28.357" height="48" rx="1.385" ry="1.385" fill="#455a64"/>
      <rect x="1.715" y="5.062" width="24.926" height="36.117" fill="#d9defb"/>
      <g>
        <path d="M7.045,27.092c-.622,0-1.127-.505-1.127-1.127v-3.877c0-3.792,3.085-6.878,6.877-6.878h7.697c.622,0,1.127.505,1.127,1.127s-.505,1.127-1.127,1.127h-7.697c-2.549,0-4.623,2.075-4.623,4.624v3.877c0,.622-.505,1.127-1.127,1.127Z" fill="#f45558"/>
        <path d="M9.426,25.562l-2.177,3.77c-.091.157-.317.157-.408,0l-2.177-3.77c-.091-.157.023-.353.204-.353h4.354c.181,0,.294.196.204.353Z" fill="#f45558"/>
        <path d="M15.561,32.953h-7.697c-.622,0-1.127-.505-1.127-1.127s.505-1.127,1.127-1.127h7.697c2.549,0,4.623-2.075,4.623-4.624v-3.877c0-.622.505-1.127,1.127-1.127s1.127.505,1.127,1.127v3.877c0,3.792-3.085,6.878-6.877,6.878Z" fill="#2196f3"/>
        <path d="M18.931,22.601l2.177-3.77c.091-.157.317-.157.408,0l2.177,3.77c.091.157-.023.353-.204.353h-4.354c-.181,0-.294-.196-.204-.353Z" fill="#2196f3"/>
      </g>
      <g>
        <path d="M15.017,2.525c0,.24-.19.43-.43.43h-3.07c-.24,0-.43-.19-.43-.43,0-.23.19-.42.43-.42h3.07c.24,0,.43.19.43.42Z" fill="#384c54"/>
        <path d="M17.27,2.525c0,.24-.19.43-.43.43h-.57c-.24,0-.43-.19-.43-.43,0-.23.19-.42.43-.42h.57c.24,0,.43.19.43.42Z" fill="#384c54"/>
      </g>
      <circle cx="14.179" cy="44.697" r="1.467" fill="#384c54"/>
    </g>
  </g>
</svg>