<?xml version="1.0" encoding="UTF-8"?>
<svg id="Layer_2" data-name="Layer 2" xmlns="http://www.w3.org/2000/svg" viewBox="0 0 37.314 48">
  <g id="Icons">
    <g id="_139" data-name="139">
      <g>
        <path d="M2.237,0h23.827c1.234,0,2.236,1.002,2.236,2.236v43.527c0,1.234-1.002,2.236-2.236,2.236H2.236c-1.234,0-2.236-1.002-2.236-2.236V2.237C0,1.002,1.002,0,2.237,0Z" fill="#455a64"/>
        <rect x="2.12" y="4.425" width="24.061" height="36.96" fill="#d9defb"/>
        <polygon points="26.177 4.44 26.177 41.39 2.117 41.39 26.177 4.44" fill="#c5cced"/>
        <path d="M15.835,44.698c0,.93-.76,1.68-1.69,1.68s-1.68-.75-1.68-1.68.75-1.69,1.68-1.69,1.69.76,1.69,1.69Z" fill="#384c54"/>
        <g>
          <path d="M14.98,2.31c0,.23-.18.41-.4.41h-3.48c-.22,0-.4-.18-.4-.41,0-.22.18-.4.4-.4h3.48c.22,0,.4.18.4.4Z" fill="#384c54"/>
          <path d="M17.6,2.31c0,.23-.18.41-.4.41h-.83c-.22,0-.41-.18-.41-.41,0-.22.19-.4.41-.4h.83c.22,0,.4.18.4.4Z" fill="#384c54"/>
        </g>
        <g>
          <path d="M19.76,22.368c.369.369.369.974,0,1.343s-.974.369-1.343,0c-2.356-2.356-6.178-2.356-8.534,0-.369.369-.974.369-1.343,0-.369-.369-.369-.974,0-1.343,3.094-3.084,8.127-3.084,11.22,0Z" fill="#f45558"/>
          <path d="M16.335,25.793c1.202,1.201,1.202,3.169,0,4.371-1.201,1.202-3.169,1.202-4.371,0s-1.201-3.169,0-4.371c1.201-1.202,3.169-1.202,4.371,0Z" fill="#f45558"/>
          <path d="M23.516,19.956c-.369.369-.965.369-1.334,0-4.428-4.428-11.637-4.428-16.064,0-.369.369-.965.369-1.334,0-.369-.369-.369-.965,0-1.343,5.166-5.156,13.567-5.156,18.732,0,.369.378.369.975,0,1.343Z" fill="#f45558"/>
        </g>
      </g>
      <path d="M28.296,23.675c-4.975,0-9.009,4.035-9.009,9.018,0,4.003,5.832,11.923,8.112,14.866.455.588,1.34.588,1.796,0,2.281-2.943,8.12-10.863,8.12-14.866,0-4.983-4.043-9.018-9.018-9.018ZM28.296,37.326c-2.556,0-4.633-2.077-4.633-4.633s2.077-4.641,4.633-4.641,4.641,2.077,4.641,4.641-2.077,4.633-4.641,4.633Z" fill="#2196f3"/>
    </g>
  </g>
</svg>