<?xml version="1.0" encoding="UTF-8"?>
<svg id="Layer_2" data-name="Layer 2" xmlns="http://www.w3.org/2000/svg" viewBox="0 0 28.26 48">
  <g id="Icons">
    <g id="_187" data-name="187">
      <g>
        <rect width="28.26" height="48" rx="2.066" ry="2.066" fill="#455a64"/>
        <path d="M26.26,45.93l-.07.07H2.729c-.364,0-.66-.295-.66-.659l-.068-42.611c0-.364.294-.66.658-.661l7.031-.017c.24,0,.462.129.579.339l.412.741c.116.209.337.339.577.339h5.742c.24,0,.462-.131.578-.341l.424-.769c.116-.21.336-.341.576-.341l6.95-.017c.365,0,.661.294.662.659l.069,43.269Z" fill="#d9defb"/>
        <path d="M16.212,2.482c0,.16-.13.29-.28.29h-3.72c-.15,0-.28-.13-.28-.29,0-.15.13-.28.28-.28h3.72c.15,0,.28.13.28.28Z" fill="#384c54"/>
      </g>
      <g>
        <path d="M15.271,28.428H4.313c-.365,0-.662-.296-.662-.662v-11.776c0-.365.296-.662.662-.662h5.912l5.045,13.1Z" fill="#f45558"/>
        <path d="M24.608,18.248v11.766c0,.365-.296.662-.662.662h-5.904l-5.045-13.09h10.949c.365,0,.662.296.662.662Z" fill="#2196f3"/>
        <polygon points="13.795 18.755 14.627 20.762 12.711 20.728 13.795 18.755" fill="#2196f3"/>
        <polygon points="14.465 27.254 13.633 25.247 15.549 25.281 14.465 27.254" fill="#f45558"/>
        <path d="M19.037,23.544c.026-.024.031-.03.037-.033.54-.211.529-.205.76.304.141.31.32.603.487.902.032.057.084.104.141.173.491-.56.84-1.173,1.13-1.869-.109-.006-.188-.013-.267-.013-.993,0-1.985-.003-2.978.007-.204.002-.286-.043-.276-.265.021-.457-.044-.385.395-.388.531-.004,1.063-.006,1.594.002.165.003.225-.05.212-.216-.014-.166-.003-.334-.003-.53.182,0,.348-.008.511.006.038.003.093.076.099.122.015.117.017.238.004.356-.022.196.04.269.25.264.573-.014,1.146,0,1.719-.008.162-.002.223.042.218.211-.016.509.065.444-.429.435-.244-.005-.364.063-.458.3-.288.725-.684,1.391-1.2,1.98-.022.025-.04.054-.069.093.236.266.528.441.839.582.145.065.194.132.12.282-.061.124-.104.257-.162.405-.393-.128-.726-.34-1.038-.586-.313-.247-.198-.247-.536-.023-.468.311-.975.507-1.573.532-.01-.215-.019-.419-.028-.636.531-.066,1.004-.232,1.425-.583-.403-.559-.738-1.142-.923-1.806Z" fill="#fff"/>
        <path d="M10.525,24.534c-.265,0-.49.014-.71-.008-.069-.007-.155-.102-.187-.176-.203-.474-.399-.952-.585-1.433-.057-.148-.134-.207-.296-.204-.486.009-.973.006-1.459,0-.139-.002-.214.043-.266.178-.191.495-.401.984-.591,1.48-.049.129-.113.171-.243.166-.207-.008-.415-.002-.662-.002.183-.455.35-.877.52-1.298.505-1.248,1.016-2.494,1.51-3.745.083-.21.19-.282.412-.272.515.024.39-.062.573.386.627,1.538,1.248,3.077,1.871,4.616.036.089.065.18.114.314ZM8.662,21.968c-.212-.52-.408-1.001-.604-1.481-.022.004-.043.008-.065.011-.193.48-.386.96-.591,1.47h1.261Z" fill="#fff"/>
      </g>
    </g>
  </g>
</svg>