<?xml version="1.0" encoding="UTF-8"?>
<svg id="Layer_2" data-name="Layer 2" xmlns="http://www.w3.org/2000/svg" viewBox="0 0 30.959 47.999">
  <g id="Icons">
    <g id="_236" data-name="236">
      <g>
        <rect width="27.116" height="47.999" rx="1.523" ry="1.523" fill="#455a64"/>
        <path d="M24.606,45.966c.264,0,.467-.214.467-.468V2.5c0-.254-.203-.467-.467-.467h-8.524c-.35,0-.634.284-.634.634h0v.128c0,1.047-.854,1.9-1.89,1.9h-.005c-1.037,0-1.89-.854-1.89-1.9v-.128h0c0-.35-.284-.634-.634-.634H2.505c-.264,0-.467.213-.467.467v42.999c0,.254.203.468.467.468h22.101Z" fill="#d9defb"/>
        <path d="M14.485,2.775c0,.507-.42.927-.927.927-.517,0-.927-.421-.927-.927,0-.517.41-.927.927-.927.507,0,.927.41.927.927Z" fill="#384c54"/>
      </g>
      <rect x="4.81" y="13.356" width="26.149" height="21.471" rx="1.168" ry="1.168" fill="#2196f3"/>
      <rect x="6.736" y="15.281" width="22.298" height="15.213" fill="#fff"/>
      <g>
        <polygon points="29.033 30.494 13.418 30.494 21.236 21.088 29.033 30.494" fill="#4ea863"/>
        <polygon points="18.779 30.494 6.736 30.494 12.765 23.712 18.779 30.494" fill="#5bb774"/>
      </g>
      <path d="M14.168,19.211c0,1.04-.847,1.877-1.887,1.877s-1.877-.838-1.877-1.877.838-1.887,1.877-1.887,1.887.847,1.887,1.887Z" fill="#ffa14e"/>
    </g>
  </g>
</svg>