<?xml version="1.0" encoding="UTF-8"?>
<svg id="Layer_2" data-name="Layer 2" xmlns="http://www.w3.org/2000/svg" viewBox="0 0 39.632 48">
  <g id="Icons">
    <g id="_168" data-name="168">
      <g>
        <rect width="28.3" height="48" rx="2.236" ry="2.236" fill="#a96c79"/>
        <path d="M28.3,19.98v4.07c-1.45.55-2.48,1.96-2.48,3.6v4.63h-3.93v-4.63c0-3.83,2.77-7.02,6.41-7.67Z" fill="#9b5f6f"/>
        <rect x="2.12" y="4.425" width="24.061" height="36.961" fill="#d9defb"/>
        <path d="M15.835,44.698c0,.93-.76,1.68-1.69,1.68s-1.68-.75-1.68-1.68.75-1.69,1.68-1.69,1.69.76,1.69,1.69Z" fill="#9b5f6f"/>
        <g>
          <path d="M14.98,2.31c0,.23-.18.41-.4.41h-3.48c-.22,0-.4-.18-.4-.41,0-.22.18-.4.4-.4h3.48c.22,0,.4.18.4.4Z" fill="#9b5f6f"/>
          <path d="M17.6,2.31c0,.23-.18.41-.4.41h-.83c-.22,0-.41-.18-.41-.41,0-.22.19-.4.41-.4h.83c.22,0,.4.18.4.4Z" fill="#9b5f6f"/>
        </g>
        <g>
          <g>
            <g>
              <path d="M6.081,21.522c-.035-.035-.052-.077-.052-.128v-3.891l-1.139.875c-.03.025-.068.038-.113.038-.06,0-.108-.025-.144-.075l-.324-.422c-.025-.035-.038-.071-.038-.106,0-.06.027-.111.082-.151l1.689-1.312c.055-.035.119-.053.189-.053h.679c.05,0,.093.018.128.053.035.035.053.078.053.128v4.916c0,.051-.018.094-.053.128-.035.035-.078.053-.128.053h-.702c-.05,0-.093-.018-.128-.053Z" fill="#2196f3"/>
              <path d="M8.595,21.093c-.329-.372-.509-.86-.539-1.463-.005-.136-.007-.367-.007-.694,0-.332.002-.568.007-.709.025-.593.206-1.075.543-1.448.336-.372.837-.558,1.501-.558s1.164.186,1.501.558c.336.373.518.855.543,1.448.01.282.015.518.015.709s-.004.422-.015.694c-.03.603-.21,1.091-.539,1.463-.329.372-.831.557-1.504.557s-1.175-.186-1.504-.557ZM10.801,20.463c.156-.204.239-.494.249-.871.005-.146.007-.37.007-.671s-.002-.521-.007-.656c-.01-.368-.093-.654-.249-.86-.155-.206-.39-.311-.701-.317-.311.005-.546.11-.701.317-.156.206-.239.493-.249.86-.005.135-.008.354-.008.656s.003.525.008.671c.01.377.093.667.249.871.155.203.39.305.701.305s.546-.102.701-.305Z" fill="#2196f3"/>
              <path d="M14.549,21.522c-.035-.035-.052-.077-.052-.128v-3.891l-1.139.875c-.029.025-.068.038-.113.038-.06,0-.108-.025-.144-.075l-.324-.422c-.025-.035-.038-.071-.038-.106,0-.06.027-.111.082-.151l1.689-1.312c.055-.035.118-.053.188-.053h.679c.05,0,.093.018.128.053s.053.078.053.128v4.916c0,.051-.018.094-.053.128-.035.035-.078.053-.128.053h-.702c-.05,0-.093-.018-.128-.053Z" fill="#2196f3"/>
              <path d="M17.064,21.093c-.329-.372-.509-.86-.539-1.463-.005-.136-.007-.367-.007-.694,0-.332.002-.568.007-.709.025-.593.206-1.075.543-1.448.337-.372.837-.558,1.501-.558s1.164.186,1.501.558c.336.373.518.855.543,1.448.01.282.015.518.015.709s-.004.422-.015.694c-.03.603-.21,1.091-.539,1.463s-.831.557-1.505.557-1.175-.186-1.504-.557ZM19.27,20.463c.156-.204.239-.494.249-.871.005-.146.007-.37.007-.671s-.002-.521-.007-.656c-.01-.368-.093-.654-.249-.86-.155-.206-.389-.311-.701-.317-.311.005-.546.11-.701.317-.156.206-.239.493-.249.86-.005.135-.008.354-.008.656s.003.525.008.671c.009.377.093.667.249.871.155.203.389.305.701.305s.546-.102.701-.305Z" fill="#2196f3"/>
              <path d="M23.018,21.522c-.035-.035-.052-.077-.052-.128v-3.891l-1.139.875c-.029.025-.068.038-.113.038-.06,0-.108-.025-.144-.075l-.324-.422c-.025-.035-.038-.071-.038-.106,0-.06.027-.111.082-.151l1.689-1.312c.055-.035.118-.053.188-.053h.679c.05,0,.093.018.128.053s.053.078.053.128v4.916c0,.051-.018.094-.053.128-.035.035-.078.053-.128.053h-.702c-.05,0-.093-.018-.128-.053Z" fill="#2196f3"/>
            </g>
            <g>
              <path d="M6.081,13.584c-.035-.035-.052-.077-.052-.128v-3.891l-1.139.875c-.03.025-.068.038-.113.038-.06,0-.108-.025-.144-.075l-.324-.422c-.025-.035-.038-.071-.038-.106,0-.06.027-.111.082-.151l1.689-1.312c.055-.035.119-.053.189-.053h.679c.05,0,.093.018.128.053.035.035.053.078.053.128v4.916c0,.051-.018.093-.053.128-.035.035-.078.053-.128.053h-.702c-.05,0-.093-.018-.128-.053Z" fill="#2196f3"/>
              <path d="M8.595,13.155c-.329-.372-.509-.86-.539-1.463-.005-.136-.007-.367-.007-.694,0-.332.002-.568.007-.709.025-.593.206-1.075.543-1.448.336-.372.837-.558,1.501-.558s1.164.186,1.501.558c.336.373.518.855.543,1.448.01.282.015.518.015.709s-.004.422-.015.694c-.03.603-.21,1.091-.539,1.463-.329.372-.831.557-1.504.557s-1.175-.186-1.504-.557ZM10.801,12.525c.156-.204.239-.494.249-.871.005-.146.007-.37.007-.671s-.002-.521-.007-.656c-.01-.368-.093-.654-.249-.86-.155-.206-.39-.311-.701-.317-.311.005-.546.11-.701.317-.156.206-.239.493-.249.86-.005.135-.008.354-.008.656s.003.525.008.671c.01.377.093.667.249.871.155.203.39.305.701.305s.546-.102.701-.305Z" fill="#2196f3"/>
              <path d="M14.549,13.584c-.035-.035-.052-.077-.052-.128v-3.891l-1.139.875c-.029.025-.068.038-.113.038-.06,0-.108-.025-.144-.075l-.324-.422c-.025-.035-.038-.071-.038-.106,0-.06.027-.111.082-.151l1.689-1.312c.055-.035.118-.053.188-.053h.679c.05,0,.093.018.128.053s.053.078.053.128v4.916c0,.051-.018.093-.053.128-.035.035-.078.053-.128.053h-.702c-.05,0-.093-.018-.128-.053Z" fill="#2196f3"/>
              <path d="M17.064,13.155c-.329-.372-.509-.86-.539-1.463-.005-.136-.007-.367-.007-.694,0-.332.002-.568.007-.709.025-.593.206-1.075.543-1.448.337-.372.837-.558,1.501-.558s1.164.186,1.501.558c.336.373.518.855.543,1.448.01.282.015.518.015.709s-.004.422-.015.694c-.03.603-.21,1.091-.539,1.463s-.831.557-1.505.557-1.175-.186-1.504-.557ZM19.27,12.525c.156-.204.239-.494.249-.871.005-.146.007-.37.007-.671s-.002-.521-.007-.656c-.01-.368-.093-.654-.249-.86-.155-.206-.389-.311-.701-.317-.311.005-.546.11-.701.317-.156.206-.239.493-.249.86-.005.135-.008.354-.008.656s.003.525.008.671c.009.377.093.667.249.871.155.203.389.305.701.305s.546-.102.701-.305Z" fill="#2196f3"/>
              <path d="M23.018,13.584c-.035-.035-.052-.077-.052-.128v-3.891l-1.139.875c-.029.025-.068.038-.113.038-.06,0-.108-.025-.144-.075l-.324-.422c-.025-.035-.038-.071-.038-.106,0-.06.027-.111.082-.151l1.689-1.312c.055-.035.118-.053.188-.053h.679c.05,0,.093.018.128.053s.053.078.053.128v4.916c0,.051-.018.093-.053.128-.035.035-.078.053-.128.053h-.702c-.05,0-.093-.018-.128-.053Z" fill="#2196f3"/>
            </g>
          </g>
          <g>
            <path d="M6.081,29.46c-.035-.035-.052-.077-.052-.128v-3.891l-1.139.875c-.03.025-.068.037-.113.037-.06,0-.108-.025-.144-.075l-.324-.422c-.025-.035-.038-.071-.038-.106,0-.06.027-.111.082-.151l1.689-1.312c.055-.035.119-.053.189-.053h.679c.05,0,.093.018.128.053.035.035.053.078.053.128v4.916c0,.051-.018.093-.053.128-.035.035-.078.053-.128.053h-.702c-.05,0-.093-.018-.128-.053Z" fill="#2196f3"/>
            <path d="M8.595,29.031c-.329-.372-.509-.86-.539-1.463-.005-.136-.007-.367-.007-.694,0-.332.002-.568.007-.709.025-.593.206-1.075.543-1.448.336-.372.837-.558,1.501-.558s1.164.186,1.501.558c.336.373.518.855.543,1.448.01.282.015.518.015.709s-.004.422-.015.694c-.03.603-.21,1.091-.539,1.463-.329.372-.831.557-1.504.557s-1.175-.186-1.504-.557ZM10.801,28.401c.156-.204.239-.494.249-.871.005-.146.007-.37.007-.671s-.002-.521-.007-.656c-.01-.367-.093-.654-.249-.86-.155-.206-.39-.311-.701-.317-.311.005-.546.11-.701.317-.156.206-.239.493-.249.86-.005.136-.008.354-.008.656s.003.525.008.671c.01.377.093.667.249.871.155.203.39.305.701.305s.546-.102.701-.305Z" fill="#2196f3"/>
            <path d="M14.549,29.46c-.035-.035-.052-.077-.052-.128v-3.891l-1.139.875c-.029.025-.068.037-.113.037-.06,0-.108-.025-.144-.075l-.324-.422c-.025-.035-.038-.071-.038-.106,0-.06.027-.111.082-.151l1.689-1.312c.055-.035.118-.053.188-.053h.679c.05,0,.093.018.128.053s.053.078.053.128v4.916c0,.051-.018.093-.053.128-.035.035-.078.053-.128.053h-.702c-.05,0-.093-.018-.128-.053Z" fill="#2196f3"/>
            <path d="M17.064,29.031c-.329-.372-.509-.86-.539-1.463-.005-.136-.007-.367-.007-.694,0-.332.002-.568.007-.709.025-.593.206-1.075.543-1.448.337-.372.837-.558,1.501-.558s1.164.186,1.501.558c.336.373.518.855.543,1.448.01.282.015.518.015.709s-.004.422-.015.694c-.03.603-.21,1.091-.539,1.463s-.831.557-1.505.557-1.175-.186-1.504-.557ZM19.27,28.401c.156-.204.239-.494.249-.871.005-.146.007-.37.007-.671s-.002-.521-.007-.656c-.01-.367-.093-.654-.249-.86-.155-.206-.389-.311-.701-.317-.311.005-.546.11-.701.317-.156.206-.239.493-.249.86-.005.136-.008.354-.008.656s.003.525.008.671c.009.377.093.667.249.871.155.203.389.305.701.305s.546-.102.701-.305Z" fill="#2196f3"/>
            <path d="M23.018,29.46c-.035-.035-.052-.077-.052-.128v-3.891l-1.139.875c-.029.025-.068.037-.113.037-.06,0-.108-.025-.144-.075l-.324-.422c-.025-.035-.038-.071-.038-.106,0-.06.027-.111.082-.151l1.689-1.312c.055-.035.118-.053.188-.053h.679c.05,0,.093.018.128.053s.053.078.053.128v4.916c0,.051-.018.093-.053.128-.035.035-.078.053-.128.053h-.702c-.05,0-.093-.018-.128-.053Z" fill="#2196f3"/>
          </g>
          <g>
            <path d="M6.081,37.398c-.035-.035-.052-.077-.052-.128v-3.891l-1.139.875c-.03.025-.068.038-.113.038-.06,0-.108-.025-.144-.075l-.324-.422c-.025-.035-.038-.071-.038-.106,0-.06.027-.111.082-.151l1.689-1.312c.055-.035.119-.053.189-.053h.679c.05,0,.093.018.128.053.035.035.053.078.053.128v4.916c0,.051-.018.094-.053.128-.035.035-.078.053-.128.053h-.702c-.05,0-.093-.018-.128-.053Z" fill="#2196f3"/>
            <path d="M8.595,36.969c-.329-.372-.509-.86-.539-1.463-.005-.136-.007-.367-.007-.694,0-.332.002-.568.007-.709.025-.593.206-1.075.543-1.448.336-.372.837-.557,1.501-.557s1.164.186,1.501.557c.336.373.518.855.543,1.448.01.282.015.518.015.709s-.004.422-.015.694c-.03.603-.21,1.091-.539,1.463-.329.372-.831.557-1.504.557s-1.175-.185-1.504-.557ZM10.801,36.339c.156-.204.239-.494.249-.871.005-.146.007-.37.007-.671s-.002-.521-.007-.656c-.01-.368-.093-.654-.249-.86-.155-.206-.39-.311-.701-.317-.311.005-.546.11-.701.317-.156.206-.239.493-.249.86-.005.135-.008.354-.008.656s.003.525.008.671c.01.377.093.667.249.871.155.203.39.305.701.305s.546-.102.701-.305Z" fill="#2196f3"/>
            <path d="M14.549,37.398c-.035-.035-.052-.077-.052-.128v-3.891l-1.139.875c-.029.025-.068.038-.113.038-.06,0-.108-.025-.144-.075l-.324-.422c-.025-.035-.038-.071-.038-.106,0-.06.027-.111.082-.151l1.689-1.312c.055-.035.118-.053.188-.053h.679c.05,0,.093.018.128.053s.053.078.053.128v4.916c0,.051-.018.094-.053.128-.035.035-.078.053-.128.053h-.702c-.05,0-.093-.018-.128-.053Z" fill="#2196f3"/>
            <path d="M17.064,36.969c-.329-.372-.509-.86-.539-1.463-.005-.136-.007-.367-.007-.694,0-.332.002-.568.007-.709.025-.593.206-1.075.543-1.448.337-.372.837-.557,1.501-.557s1.164.186,1.501.557c.336.373.518.855.543,1.448.01.282.015.518.015.709s-.004.422-.015.694c-.03.603-.21,1.091-.539,1.463s-.831.557-1.505.557-1.175-.185-1.504-.557ZM19.27,36.339c.156-.204.239-.494.249-.871.005-.146.007-.37.007-.671s-.002-.521-.007-.656c-.01-.368-.093-.654-.249-.86-.155-.206-.389-.311-.701-.317-.311.005-.546.11-.701.317-.156.206-.239.493-.249.86-.005.135-.008.354-.008.656s.003.525.008.671c.009.377.093.667.249.871.155.203.389.305.701.305s.546-.102.701-.305Z" fill="#2196f3"/>
            <path d="M23.018,37.398c-.035-.035-.052-.077-.052-.128v-3.891l-1.139.875c-.029.025-.068.038-.113.038-.06,0-.108-.025-.144-.075l-.324-.422c-.025-.035-.038-.071-.038-.106,0-.06.027-.111.082-.151l1.689-1.312c.055-.035.118-.053.188-.053h.679c.05,0,.093.018.128.053s.053.078.053.128v4.916c0,.051-.018.094-.053.128-.035.035-.078.053-.128.053h-.702c-.05,0-.093-.018-.128-.053Z" fill="#2196f3"/>
          </g>
        </g>
      </g>
      <g>
        <rect x="19.746" y="31.782" width="19.886" height="16.218" rx="2.124" ry="2.124" fill="#ffd54f"/>
        <path d="M36.994,31.782h-2.936v-4.13c0-2.409-1.96-4.369-4.369-4.369s-4.369,1.96-4.369,4.369v4.13h-2.936v-4.13c0-4.028,3.277-7.305,7.304-7.305s7.304,3.277,7.304,7.305v4.13Z" fill="#455a64"/>
        <path d="M30.887,40.481l.641,3.308h-3.686l.65-3.308c-.718-.417-1.206-1.188-1.206-2.084,0-1.322,1.073-2.403,2.404-2.403s2.403,1.082,2.403,2.403c0,.896-.488,1.667-1.206,2.084Z" fill="#455a64"/>
      </g>
    </g>
  </g>
</svg>