<?xml version="1.0" encoding="UTF-8"?>
<svg id="Layer_2" data-name="Layer 2" xmlns="http://www.w3.org/2000/svg" viewBox="0 0 36.534 48">
  <g id="Icons">
    <g id="_121" data-name="121">
      <g>
        <rect width="27.34" height="48" rx="2" ry="2" fill="#a96c79"/>
        <rect x="1.67" y="5.25" width="24" height="36" fill="#fff"/>
        <polygon points="1.67 41.25 25.67 5.25 25.67 41.25 1.67 41.25" fill="#d9defb"/>
        <rect x="11.085" y="43.27" width="5.17" height="2.551" rx=".245" ry=".245" fill="#9b5f6f"/>
        <g>
          <rect x="9.838" y="2.581" width="5.331" height=".847" fill="#9b5f6f"/>
          <rect x="16.127" y="2.581" width="1.375" height=".847" fill="#9b5f6f"/>
        </g>
      </g>
      <path d="M16.764,27.528v2.07c0,.189.119.35.296.404l1.806.539c.135.043.237.146.275.28.156.507.356.992.604,1.45.07.124.075.27.005.394l-.895,1.66c-.086.162-.054.367.075.496l1.461,1.461c.129.129.334.162.496.076l1.66-.895c.124-.07.27-.065.393.005.458.248.949.453,1.455.604.135.038.237.14.28.275l.534,1.8c.054.173.221.296.404.296h2.07c.189,0,.35-.118.404-.296l.539-1.8c.043-.135.146-.237.28-.275.507-.156.992-.356,1.45-.604.124-.07.27-.075.394-.005l1.66.895c.162.086.367.054.496-.076l1.461-1.461c.129-.129.162-.334.075-.496l-.895-1.66c-.07-.124-.065-.27.005-.394.248-.458.447-.943.604-1.45.038-.135.14-.237.275-.28l1.806-.539c.178-.054.296-.216.296-.404v-2.07c0-.189-.119-.35-.296-.404l-1.806-.544c-.135-.043-.237-.146-.275-.28-.156-.507-.356-.986-.604-1.444-.07-.119-.075-.27-.005-.394l.895-1.66c.086-.162.054-.367-.075-.496l-1.461-1.461c-.129-.129-.334-.162-.496-.075l-1.66.889c-.119.07-.264.065-.388,0-.458-.243-.943-.447-1.45-.604-.135-.038-.237-.14-.28-.275l-.544-1.806c-.054-.178-.216-.296-.404-.296h-2.07c-.189,0-.35.119-.404.296l-.539,1.806c-.043.135-.146.237-.28.275-.507.156-.997.356-1.455.604-.124.065-.27.07-.394,0l-1.655-.889c-.162-.086-.367-.054-.496.075l-1.461,1.461c-.129.129-.162.334-.075.496l.895,1.66c.07.124.065.269-.005.394-.248.458-.447.943-.604,1.45-.038.135-.14.237-.275.28l-1.806.539c-.178.054-.296.216-.296.404ZM22.653,28.562c0-2.212,1.789-3.996,3.996-3.996s3.996,1.784,3.996,3.996-1.789,3.996-3.996,3.996-3.996-1.789-3.996-3.996Z" fill="#5bb774"/>
      <path d="M11.085,14.072v1.407c0,.128.081.238.201.275l1.227.366c.092.029.161.099.187.19.106.344.242.674.41.985.048.084.051.183.004.267l-.608,1.128c-.059.11-.037.249.051.337l.993.993c.088.088.227.11.337.051l1.128-.608c.084-.048.183-.044.267.004.311.168.645.308.989.41.092.026.161.095.19.187l.363,1.223c.037.117.15.202.275.202h1.407c.128,0,.238-.081.275-.202l.366-1.223c.029-.092.099-.161.19-.187.344-.106.674-.242.985-.41.084-.048.183-.051.267-.004l1.128.608c.11.059.249.037.337-.051l.993-.993c.088-.088.11-.227.051-.337l-.608-1.128c-.048-.084-.044-.183.004-.267.168-.311.304-.641.41-.985.026-.092.095-.161.187-.19l1.227-.366c.121-.037.201-.146.201-.275v-1.407c0-.128-.081-.238-.201-.275l-1.227-.37c-.092-.029-.161-.099-.187-.191-.106-.344-.242-.67-.41-.982-.048-.081-.051-.183-.004-.267l.608-1.128c.059-.11.037-.249-.051-.337l-.993-.993c-.088-.088-.227-.11-.337-.051l-1.128.604c-.081.048-.18.044-.264,0-.311-.165-.641-.304-.985-.41-.092-.026-.161-.095-.19-.187l-.37-1.227c-.037-.121-.147-.201-.275-.201h-1.407c-.128,0-.238.081-.275.201l-.366,1.227c-.029.092-.099.161-.191.187-.344.106-.678.242-.989.41-.084.044-.183.048-.267,0l-1.124-.604c-.11-.059-.249-.037-.337.051l-.993.993c-.088.088-.11.227-.051.337l.608,1.128c.048.084.044.183-.004.267-.168.311-.304.641-.41.985-.026.092-.095.161-.187.19l-1.227.366c-.121.037-.201.147-.201.275ZM15.096,14.775c0-1.498,1.211-2.706,2.706-2.706s2.706,1.208,2.706,2.706-1.211,2.706-2.706,2.706-2.706-1.211-2.706-2.706Z" fill="#2196f3"/>
    </g>
  </g>
</svg>