<?xml version="1.0" encoding="UTF-8"?>
<svg id="Layer_2" data-name="Layer 2" xmlns="http://www.w3.org/2000/svg" viewBox="0 0 27.34 48">
  <g id="Icons">
    <g id="_123" data-name="123">
      <rect width="27.34" height="48" rx="2" ry="2" fill="#455a64"/>
      <rect x="1.67" y="5.25" width="24" height="36" fill="#2196f3"/>
      <polygon points="1.67 41.25 25.67 5.25 25.67 41.25 1.67 41.25" fill="#1792e5"/>
      <rect x="11.085" y="43.27" width="5.17" height="2.551" rx=".245" ry=".245" fill="#384c54"/>
      <g>
        <rect x="9.838" y="2.581" width="5.331" height=".847" fill="#384c54"/>
        <rect x="16.126" y="2.581" width="1.375" height=".847" fill="#384c54"/>
      </g>
      <g>
        <path d="M19.79,23.254c0,3.382-2.742,6.116-6.124,6.116s-6.116-2.735-6.116-6.116,2.742-6.124,6.116-6.124,6.124,2.742,6.124,6.124Z" fill="#fff"/>
        <path d="M16.091,23.762l-3.278,2.239c-.408.279-.962-.013-.962-.508v-4.487c0-.495.555-.787.963-.507l3.278,2.247c.357.245.356.771,0,1.015Z" fill="#f45558"/>
      </g>
    </g>
  </g>
</svg>