<?xml version="1.0" encoding="UTF-8"?>
<svg id="Layer_2" data-name="Layer 2" xmlns="http://www.w3.org/2000/svg" viewBox="0 0 48.215 48.215">
  <g id="Icons">
    <g id="_214" data-name="214">
      <rect x="3.221" y="3.229" width="41.763" height="41.763" rx="1.555" ry="1.555" fill="#d9defb"/>
      <rect x="6.221" y="6.229" width="35.764" height="35.763" fill="#2196f3"/>
      <path d="M.538,7.43c-.297,0-.538-.24-.538-.538V.538C0,.24.241,0,.538,0h6.355c.297,0,.538.24.538.538s-.24.538-.538.538H1.075v5.817c0,.297-.24.538-.538.538Z" fill="#455a64"/>
      <path d="M6.893,48.215H.538c-.297,0-.538-.24-.538-.538v-6.355c0-.297.241-.538.538-.538s.538.24.538.538v5.817h5.817c.297,0,.538.24.538.538s-.24.538-.538.538Z" fill="#455a64"/>
      <path d="M47.677,7.43c-.297,0-.538-.24-.538-.538V1.075h-5.817c-.297,0-.538-.24-.538-.538s.24-.538.538-.538h6.354c.297,0,.538.24.538.538v6.355c0,.297-.24.538-.538.538Z" fill="#455a64"/>
      <path d="M47.677,48.215h-6.354c-.297,0-.538-.24-.538-.538s.24-.538.538-.538h5.817v-5.817c0-.297.24-.538.538-.538s.538.24.538.538v6.355c0,.297-.24.538-.538.538Z" fill="#455a64"/>
      <polygon points="25.343 41.993 8.213 41.993 16.778 28.433 25.343 41.993" fill="#384c54"/>
      <polygon points="25.343 41.993 14.493 41.993 16.778 28.433 25.343 41.993" fill="#455a64"/>
      <polygon points="41.984 41.993 18.282 41.993 30.133 23.229 41.984 41.993" fill="#384c54"/>
      <polygon points="41.984 41.993 26.972 41.993 30.133 23.229 41.984 41.993" fill="#455a64"/>
      <path d="M20.437,14.425c0,2.237-1.808,4.045-4.045,4.045s-4.045-1.808-4.045-4.045,1.808-4.045,4.045-4.045,4.045,1.808,4.045,4.045Z" fill="#ffd54f"/>
      <path d="M28.518,9.577c0,.36-.287.648-.643.648h-5.644c-.356,0-.647-.287-.647-.648,0-.356.292-.643.647-.643h5.644c.356,0,.643.287.643.643Z" fill="#d9defb"/>
      <path d="M39.068,15.329c0,.507-.404.91-.904.91h-7.937c-.5,0-.91-.404-.91-.91,0-.5.41-.904.91-.904h7.937c.5,0,.904.404.904.904Z" fill="#d9defb"/>
      <path d="M16.392,22.141c0,.38-.303.683-.678.683h-5.957c-.375,0-.683-.303-.683-.683,0-.375.308-.678.683-.678h5.957c.375,0,.678.303.678.678Z" fill="#d9defb"/>
      <path d="M10.495,29.977c-.126,0-.248-.102-.248-.229,0-.473-.525-.858-1.17-.858-.126,0-.229-.102-.229-.229s.102-.229.229-.229c.601,0,1.126.264,1.408.657.282-.392.808-.657,1.408-.657.126,0,.229.102.229.229s-.102.229-.229.229c-.645,0-1.17.385-1.17.858,0,.126-.102.229-.229.229Z" fill="#d9defb"/>
      <path d="M22.014,26.379c-.182,0-.357-.147-.357-.329,0-.681-.755-1.235-1.683-1.235-.182,0-.329-.148-.329-.329s.147-.329.329-.329c.864,0,1.621.381,2.027.945.406-.565,1.162-.945,2.027-.945.182,0,.329.148.329.329s-.147.329-.329.329c-.928,0-1.683.554-1.683,1.235,0,.182-.147.329-.329.329Z" fill="#d9defb"/>
    </g>
  </g>
</svg>