<?xml version="1.0" encoding="UTF-8"?>
<svg id="Layer_2" data-name="Layer 2" xmlns="http://www.w3.org/2000/svg" viewBox="0 0 48 48">
  <g id="Icons">
    <g id="_218" data-name="218">
      <path d="M13.664,36.874l-10.907,10.907c-.292.292-.764.292-1.056,0l-1.483-1.483c-.292-.292-.292-.765,0-1.056l10.907-10.907,2.539,2.539Z" fill="#384c54"/>
      <rect x="27.741" y="3.213" width="4.924" height="29.168" rx="1.373" ry="1.373" transform="translate(-3.738 26.57) rotate(-45.002)" fill="#d9defb"/>
      <path d="M37.436,28.513l-8.947,8.947c-1.84,1.84-4.823,1.84-6.662,0l-11.287-11.287c-1.84-1.84-1.84-4.823,0-6.662l8.947-8.947,17.949,17.949Z" fill="#2196f3"/>
      <rect x="26.469" y="7.672" width="2.335" height="25.384" transform="translate(-6.305 25.506) rotate(-45)" fill="#1792e5"/>
      <path d="M21.594,37.227l-2.529,2.529c-.825.825-2.163.825-2.988,0l-7.833-7.834c-.825-.825-.825-2.163,0-2.988l2.529-2.529,10.821,10.821Z" fill="#d9defb"/>
      <rect x="14.764" y="24.752" width="1.663" height="15.303" transform="translate(-18.345 20.519) rotate(-45)" fill="#c5cced"/>
      <path d="M14.805,38.482l-2.648,2.648c-1.457,1.457-3.821,1.457-5.287-.009-1.457-1.457-1.457-3.821,0-5.277l2.648-2.648,5.287,5.287Z" fill="#455a64"/>
      <rect x="10.288" y="32.876" width="2.195" height="7.477" transform="translate(-22.556 18.775) rotate(-45)" fill="#384c54"/>
      <g>
        <path d="M36.008,3.502l-8.309,8.309-2.901-2.901L33.106.601c.801-.801,2.1-.801,2.901,0h0c.801.801.801,2.1,0,2.901Z" fill="#455a64"/>
        <path d="M47.399,14.894l-8.309,8.309-2.901-2.901,8.309-8.309c.801-.801,2.1-.801,2.901,0h0c.801.801.801,2.1,0,2.901Z" fill="#455a64"/>
      </g>
      <g>
        <rect x="26.008" y="7.731" width="1.636" height="4.103" transform="translate(.939 21.833) rotate(-44.998)" fill="#384c54"/>
        <rect x="37.4" y="19.122" width="1.636" height="4.103" transform="translate(-3.779 33.224) rotate(-44.998)" fill="#384c54"/>
      </g>
    </g>
  </g>
</svg>