<?xml version="1.0" encoding="UTF-8"?>
<svg id="Layer_2" data-name="Layer 2" xmlns="http://www.w3.org/2000/svg" viewBox="0 0 48 41.115">
  <g id="Icons">
    <g id="_272" data-name="272">
      <rect y="13.943" width="48" height="21.864" rx="1.977" ry="1.977" fill="#455a64"/>
      <rect x="5.051" y="13.943" width="37.897" height="5.066" fill="#384c54"/>
      <rect x="40.168" y="28.128" width="2.781" height="7.678" fill="#384c54"/>
      <rect x="40.168" y="20.952" width="2.785" height="4.055" fill="#2b3d42"/>
      <rect x="5.051" y="28.128" width="2.781" height="7.678" fill="#384c54"/>
      <rect x="40.168" y="26.567" width="2.781" height="1.56" fill="#455a64"/>
      <rect x="5.051" y="26.567" width="2.781" height="1.56" fill="#455a64"/>
      <rect x="5.051" y="20.952" width="2.781" height="4.055" fill="#2b3d42"/>
      <path d="M5.047,13.943H1.977c-1.092,0-1.977.885-1.977,1.977v17.91c0,1.092.885,1.977,1.977,1.977h3.07V13.943Z" fill="#455a64"/>
      <path d="M42.953,13.943h3.07c1.092,0,1.977.885,1.977,1.977v17.91c0,1.092-.885,1.977-1.977,1.977h-3.07V13.943Z" fill="#455a64"/>
      <path d="M5.6,13.943V4.464c0-.748.606-1.354,1.354-1.354h34.093c.748,0,1.354.606,1.354,1.354v9.478H5.6Z" fill="#384c54"/>
      <rect x="5.6" y="12.226" width="36.8" height="1.716" fill="#2b3d42"/>
      <rect x="7.156" y="12.205" width=".669" height="1.737" fill="#2b3d42"/>
      <rect x="40.168" y="12.205" width=".67" height="1.737" fill="#2b3d42"/>
      <rect x="7.156" y="3.11" width=".669" height="9.095" fill="#2b3d42"/>
      <rect x="40.168" y="3.11" width=".67" height="9.095" fill="#2b3d42"/>
      <path d="M7.832,13.943V1.354c0-.748.606-1.354,1.354-1.354h29.628c.748,0,1.354.606,1.354,1.354v12.589H7.832Z" fill="#d9defb"/>
      <rect x="7.832" y="12.205" width="32.336" height="1.737" fill="#c5cced"/>
      <path d="M40.168,20.952v18.81c0,.748-.606,1.354-1.354,1.354H9.186c-.748,0-1.354-.606-1.354-1.354v-18.81h32.336Z" fill="#d9defb"/>
      <rect x="7.832" y="20.952" width="32.336" height="1.122" fill="#c5cced"/>
      <rect x="13.966" y="27.885" width="20.068" height="11.041" fill="#c5cced"/>
      <rect x="11.116" y="23.044" width="11.302" height=".947" fill="#c5cced"/>
      <rect x="11.116" y="24.991" width="11.302" height=".947" fill="#c5cced"/>
      <rect x="25.45" y="23.044" width="11.302" height=".947" fill="#c5cced"/>
      <rect x="25.45" y="24.991" width="11.302" height=".947" fill="#c5cced"/>
      <g>
        <polygon points="26.734 38.929 13.966 38.929 20.341 33.009 26.734 38.929" fill="#4ea863"/>
        <polygon points="34.034 38.929 20.35 38.929 27.183 31.034 34.034 38.929" fill="#5bb774"/>
      </g>
      <path d="M19.875,31.679c-.425.071-.835.184-1.175.382-.251.114-.474.329-.551.497-.031.068-.096.112-.171.112h-.395c-.076,0-.141-.044-.172-.113-.077-.172-.298-.396-.537-.51-.354-.184-.764-.297-1.189-.368.425-.057.864-.057,1.302.042.226.057.453.127.665.269.042.028.085.057.127.099.042-.042.085-.071.127-.099.226-.141.439-.212.665-.269.439-.099.878-.099,1.302-.042Z" fill="#455a64"/>
      <path d="M23.979,29.673c-.184.031-.362.08-.51.166-.109.05-.206.143-.239.216-.014.029-.042.048-.074.048h-.171c-.033,0-.061-.019-.075-.049-.033-.074-.129-.172-.233-.221-.154-.08-.332-.129-.516-.16.184-.025.375-.025.565.019.098.025.197.055.289.117.018.012.037.025.055.043.018-.018.037-.031.055-.043.098-.061.19-.092.289-.117.191-.043.381-.043.565-.019Z" fill="#455a64"/>
    </g>
  </g>
</svg>