<?xml version="1.0" encoding="UTF-8"?>
<svg id="Layer_2" data-name="Layer 2" xmlns="http://www.w3.org/2000/svg" viewBox="0 0 48 37.251">
  <g id="Icons">
    <g id="_270" data-name="270">
      <path d="M42.9,8.002v6.447H5.104v-6.447c0-1.123.91-2.033,2.032-2.033h33.731c1.123,0,2.033.91,2.033,2.033Z" fill="#384c54"/>
      <rect x="5.104" y="12.374" width="37.796" height="2.075" fill="#2b3d42"/>
      <path d="M38.571,1.661v12.788H9.433V1.661c0-.917.744-1.661,1.661-1.661h25.815c.917,0,1.661.744,1.661,1.661Z" fill="#d9defb"/>
      <rect x="9.433" y="12.374" width="29.138" height="2.075" fill="#c5cced"/>
      <rect x=".003" y="14.444" width="47.997" height="22.807" rx="2.721" ry="2.721" fill="#455a64"/>
      <path d="M42.064,33.347v3.904H5.939v-3.904c0-1.33,1.078-2.408,2.408-2.408h31.309c1.33,0,2.408,1.078,2.408,2.408Z" fill="#2b3d42"/>
      <path d="M40.209,33.772v3.479H7.794v-3.479c0-.422.342-.765.764-.765h30.885c.422,0,.764.342.764.765Z" fill="#384c54"/>
      <rect y="27.846" width="47.997" height="1.669" fill="#384c54"/>
      <path d="M40.156,14.449v8.311c0,1.033-.837,1.87-1.87,1.87H9.724c-1.033,0-1.87-.837-1.87-1.87v-8.311h32.302Z" fill="#384c54"/>
      <rect x="7.847" y="16.576" width="32.309" height="1.641" fill="#455a64"/>
      <rect x="7.847" y="20.089" width="32.309" height="1.625" fill="#455a64"/>
      <path d="M45.441,19.176c0,.771-.63,1.385-1.401,1.385-.756,0-1.385-.614-1.385-1.385s.63-1.385,1.385-1.385c.771,0,1.401.614,1.401,1.385Z" fill="#ffd54f"/>
      <path d="M45.441,23.1c0,.771-.63,1.385-1.401,1.385-.756,0-1.385-.614-1.385-1.385s.63-1.385,1.385-1.385c.771,0,1.401.614,1.401,1.385Z" fill="#f45558"/>
      <path d="M4.502,18.841c0,.693-.551,1.244-1.244,1.244-.677,0-1.244-.551-1.244-1.244,0-.677.567-1.243,1.244-1.243.693,0,1.244.567,1.244,1.243Z" fill="#d9defb"/>
      <path d="M4.502,22.385c0,.693-.551,1.244-1.244,1.244-.677,0-1.244-.551-1.244-1.244,0-.677.567-1.243,1.244-1.243.693,0,1.244.567,1.244,1.243Z" fill="#d9defb"/>
    </g>
  </g>
</svg>