<?xml version="1.0" encoding="UTF-8"?>
<svg id="Layer_2" data-name="Layer 2" xmlns="http://www.w3.org/2000/svg" viewBox="0 0 39.692 48">
  <g id="Icons">
    <g id="_262" data-name="262">
      <g>
        <polygon points="26.919 21.37 30.296 12.367 28.88 11.836 25.745 20.196 26.919 21.37" fill="#384c54"/>
        <polygon points="19.506 13.957 27.865 10.821 27.334 9.406 18.331 12.782 19.506 13.957" fill="#384c54"/>
      </g>
      <path d="M32.477,28.416c-5.851,5.851-15.34,5.858-21.197,0-5.851-5.851-5.845-15.34.006-21.191l21.191,21.191Z" fill="#d9defb"/>
      <path d="M33.733,28.627c-.288.288-.759.282-1.041,0L11.081,7.016c-.289-.289-.295-.759-.006-1.047s.765-.289,1.054,0l21.611,21.611c.282.282.282.759-.006,1.047Z" fill="#455a64"/>
      <polygon points="18.156 40.5 4.708 40.5 7.934 28.806 14.93 28.806 18.156 40.5" fill="#455a64"/>
      <path d="M15.535,31.941c-1.038,1.069-2.5,1.734-4.103,1.734s-3.065-.665-4.103-1.734l.605-3.135h6.996l.605,3.135Z" fill="#384c54"/>
      <circle cx="11.432" cy="27.941" r="4.538" fill="#455a64"/>
      <circle cx="11.432" cy="27.941" r="2.4" fill="#d9defb"/>
      <path d="M20.344,41.687v2.563H2.52v-2.563c0-.656.531-1.187,1.187-1.187h15.449c.655,0,1.187.531,1.187,1.187Z" fill="#d9defb"/>
      <rect x="2.52" y="42.775" width="17.823" height="1.475" fill="#c5cced"/>
      <path d="M22.864,45.437v2.563H0v-2.563c0-.656.531-1.187,1.187-1.187h20.49c.655,0,1.187.532,1.187,1.187Z" fill="#d9defb"/>
      <g>
        <path d="M35.463,10.614c-.009.485-.418.893-.903.903-.494-.019-.893-.418-.903-.903,0-2.528-2.043-4.57-4.571-4.57-.485-.01-.884-.409-.903-.903,0-.494.409-.903.903-.903,3.516,0,6.376,2.86,6.376,6.376Z" fill="#f45558"/>
        <path d="M30.699,12.54c-.976.975-2.561.982-3.537.007-.982-.982-.976-2.568,0-3.544s2.555-.975,3.537.007c.975.976.975,2.555,0,3.53Z" fill="#f45558"/>
        <path d="M39.692,10.605c-.01.503-.409.903-.903.903-.504.01-.912-.399-.903-.903.009-4.856-3.934-8.799-8.799-8.799-.504.009-.893-.399-.903-.903,0-.494.399-.893.903-.903,5.844.01,10.605,4.77,10.605,10.605Z" fill="#f45558"/>
      </g>
    </g>
  </g>
</svg>