<?xml version="1.0" encoding="UTF-8"?>
<svg id="Layer_2" data-name="Layer 2" xmlns="http://www.w3.org/2000/svg" viewBox="0 0 39.526 47.997">
  <g id="Icons">
    <g id="_172" data-name="172">
      <g>
        <g>
          <path d="M.005,9.341v34.217c0,.725.588,1.313,1.313,1.313h31.014c.725,0,1.313-.588,1.313-1.313V1.313c0-.725-.588-1.313-1.313-1.313H9.336L.005,9.341Z" fill="#d9defb"/>
          <path d="M33.64,5.611v37.95c0,.72-.57,1.31-1.3,1.31H1.31c-.72,0-1.31-.59-1.31-1.31v-4.31L33.64,5.611Z" fill="#c5cced"/>
          <path d="M.005,9.341h8.018c.725,0,1.313-.588,1.313-1.313V0L.005,9.341Z" fill="#a96c79"/>
        </g>
        <path d="M3.798,13.191c0,.469.375.855.843.855h24.366c.469,0,.843-.387.843-.855s-.375-.844-.843-.844H4.642c-.469,0-.843.375-.843.844Z" fill="#c5cced"/>
        <path d="M3.798,18.286c0,.468.375.855.843.855h24.366c.469,0,.843-.387.843-.855s-.375-.844-.843-.844H4.642c-.469,0-.843.375-.843.844Z" fill="#c5cced"/>
        <path d="M3.798,23.381c0,.469.375.855.843.855h24.366c.469,0,.843-.387.843-.855s-.375-.843-.843-.843H4.642c-.469,0-.843.375-.843.843Z" fill="#c5cced"/>
        <path d="M3.798,28.476c0,.469.375.855.843.855h24.366c.469,0,.843-.387.843-.855s-.375-.843-.843-.843H4.642c-.469,0-.843.375-.843.843Z" fill="#c5cced"/>
        <path d="M3.798,33.571c0,.469.375.855.843.855h24.366c.469,0,.843-.387.843-.855s-.375-.844-.843-.844H4.642c-.469,0-.843.375-.843.844Z" fill="#c5cced"/>
        <path d="M29.85,13.191c0,.47-.37.85-.84.85h-3.8l1.69-1.69h2.11c.47,0,.84.37.84.84Z" fill="#b3bcdd"/>
        <path d="M29.85,18.281c0,.47-.37.86-.84.86h-8.9l1.7-1.7h7.2c.47,0,.84.38.84.84Z" fill="#b3bcdd"/>
        <path d="M29.85,23.381c0,.47-.37.85-.84.85h-13.99l1.69-1.69h12.3c.47,0,.84.37.84.84Z" fill="#b3bcdd"/>
        <path d="M29.85,28.471c0,.47-.37.86-.84.86H9.92l1.7-1.7h17.39c.47,0,.84.38.84.84Z" fill="#b3bcdd"/>
        <path d="M29.85,33.571c0,.47-.37.85-.84.85H4.83l1.69-1.69h22.49c.47,0,.84.37.84.84Z" fill="#b3bcdd"/>
      </g>
      <g>
        <path d="M39.526,30.64v5.704c0,5.029-3.643,9.639-9.367,11.653-5.71-2.014-9.352-6.624-9.352-11.653v-5.704l9.352-4.959,9.367,4.959Z" fill="#2196f3"/>
        <path d="M29.111,40.28c-.298,0-.596-.114-.824-.341l-2.441-2.441c-.455-.454-.455-1.192,0-1.647s1.192-.455,1.647,0l1.618,1.617,4.601-4.601c.455-.455,1.192-.455,1.647,0,.455.455.455,1.192,0,1.647l-5.424,5.424c-.227.227-.526.341-.824.341Z" fill="#fff"/>
      </g>
    </g>
  </g>
</svg>