<?xml version="1.0" encoding="UTF-8"?>
<svg id="Layer_2" data-name="Layer 2" xmlns="http://www.w3.org/2000/svg" viewBox="0 0 30.95 47.999">
  <g id="Icons">
    <g id="_31" data-name="31">
      <rect x="10.083" y="19.487" width="8.339" height="18.236" transform="translate(-16.261 19.102) rotate(-46.218)" fill="#a96c79"/>
      <polygon points="1.573 18.002 17.054 4.555 20.37 7.733 7.593 23.772 1.573 18.002" fill="#a96c79"/>
      <polygon points="20.016 6.67 23.991 4.743 24.884 5.662 21.638 8.342 20.016 6.67" fill="#a96c79"/>
      <polygon points="25.197 2.632 24.884 5.662 23.677 5.376 23.989 2.347 25.197 2.632" fill="#a96c79"/>
      <polygon points="18.33 5.182 20.258 1.206 19.339 .313 16.659 3.559 18.33 5.182" fill="#a96c79"/>
      <polygon points="22.368 0 19.339 .313 19.625 1.52 22.653 1.208 22.368 0" fill="#a96c79"/>
      <path d="M11.82,18.46l-4.23,5.31-6.017-5.764,4.614-4.008c1.534.141,2.948.808,4.038,1.908.737.727,1.272,1.595,1.595,2.554Z" fill="#9b5f6f"/>
      <path d="M30.95,44.521v3.478H10.892v-3.478c0-1.012.82-1.833,1.832-1.833h16.393c1.012,0,1.832.82,1.832,1.833Z" fill="#a96c79"/>
      <path d="M23.722,31.907l-5.774,6.017-4.593-4.401c.626-2.948,2.918-5.28,5.855-5.946l4.512,4.331Z" fill="#9b5f6f"/>
      <path d="M27.655,35.127v7.561h-13.467v-7.561c0-3.719,3.015-6.733,6.733-6.733h0c3.719,0,6.734,3.015,6.734,6.733Z" fill="#a96c79"/>
      <path d="M25.612,35.64c0,2.303-1.871,4.174-4.174,4.174-1.158,0-2.196-.469-2.953-1.227-.757-.751-1.22-1.796-1.22-2.947,0-2.303,1.865-4.174,4.174-4.174,1.151,0,2.196.469,2.947,1.226.757.751,1.226,1.796,1.226,2.947Z" fill="#9b5f6f"/>
      <rect x="14.188" y="41.154" width="13.467" height="1.535" fill="#9b5f6f"/>
      <path d="M25.1,35.127c0,2.303-1.871,4.174-4.174,4.174-1.158,0-2.196-.469-2.953-1.226-.757-.751-1.22-1.796-1.22-2.947,0-2.303,1.865-4.174,4.174-4.174,1.151,0,2.196.469,2.947,1.226.757.751,1.226,1.796,1.226,2.947Z" fill="#d9defb"/>
      <path d="M23.132,35.511c0,1.006-.817,1.823-1.822,1.823-.506,0-.959-.205-1.29-.536-.331-.328-.533-.784-.533-1.287,0-1.006.814-1.823,1.823-1.823.503,0,.959.205,1.287.535.331.328.536.784.536,1.287Z" fill="#c5cced"/>
      <path d="M22.748,35.127c0,1.006-.817,1.823-1.823,1.823-.505,0-.959-.205-1.29-.535-.331-.328-.533-.784-.533-1.287,0-1.005.814-1.823,1.822-1.823.503,0,.959.205,1.287.536.331.328.536.784.536,1.287Z" fill="#455a64"/>
      <path d="M12.153,20.812c-.121,3.17-2.483,5.754-5.552,6.239l-1.817-1.747,5.774-6.017,1.595,1.524Z" fill="#9b5f6f"/>
      <path d="M11.15,20.55c0,3.076-2.499,5.575-5.575,5.575-1.546,0-2.934-.627-3.945-1.638-1.011-1.003-1.63-2.399-1.63-3.937,0-3.076,2.491-5.575,5.575-5.575,1.538,0,2.934.627,3.937,1.638,1.011,1.003,1.638,2.399,1.638,3.937Z" fill="#d9defb"/>
      <path d="M8.614,21.155c0,1.343-1.091,2.434-2.434,2.434-.675,0-1.281-.274-1.723-.715-.442-.438-.712-1.047-.712-1.719,0-1.343,1.088-2.434,2.434-2.434.672,0,1.281.274,1.719.715.442.438.715,1.047.715,1.719Z" fill="#c5cced"/>
      <path d="M8.009,20.55c0,1.343-1.091,2.434-2.434,2.434-.675,0-1.281-.274-1.723-.715-.442-.438-.712-1.047-.712-1.719,0-1.343,1.088-2.434,2.434-2.434.671,0,1.281.274,1.719.715.442.438.715,1.047.715,1.719Z" fill="#455a64"/>
      <path d="M20.407,9.167l-4.786-4.587c-.403-.386-.416-1.025-.031-1.427.387-.403,1.025-.416,1.427-.031l4.786,4.587c.403.386.416,1.025.03,1.427-.387.403-1.025.416-1.427.031Z" fill="#ffb7bd"/>
    </g>
  </g>
</svg>