<?xml version="1.0" encoding="UTF-8"?>
<svg id="Layer_2" data-name="Layer 2" xmlns="http://www.w3.org/2000/svg" viewBox="0 0 48 34.169">
  <g id="Icons">
    <g id="_244" data-name="244">
      <path d="M21.468,20.283s5.167-5.111,7.364-6.023c1.733-.719,2.918.178,3.366,2.062.503,2.112-.428,4.313-2.131,5.659l-4.312,3.407-4.287-5.106Z" fill="#e5454d"/>
      <path d="M46.051,27.71l-37.356-.832-6.465-1.075c-.833-.138-1.654.339-1.932,1.136-.768,2.206-.04,3.883,2.002,5.039.323.183.733.003.829-.355l.008-.031c.092-.367.466-.584.833-.475.355.105.537.502.444.859l-.073.277c-.08.305.104.616.408.702.729.204,1.536.376,2.423.514.325.051.621-.182.654-.509l.041-.398c.031-.368.349-.637.717-.606.368.031.64.367.609.735l-.042.437c-.031.32.207.601.527.627.322.026.651.048.989.066.518.028,1.028.048,1.539.07.302.013.562-.21.596-.51l.017-.154c.033-.367.354-.635.721-.601s.637.372.604.739h0c-.034.33.22.621.552.634.77.029,1.536.054,2.298.075.332.009.602-.265.588-.598l-.006-.156c-.024-.406.315-.743.739-.699.332.034.578.33.593.663l.014.303c.014.302.262.542.565.548.831.014,1.654.023,2.473.028.327.002.589-.27.576-.597l-.01-.245c-.024-.406.315-.743.739-.699.332.034.578.33.593.663l.016.337c.014.308.271.55.578.548.832-.005,1.654-.017,2.471-.033.321-.006.574-.276.561-.597l-.009-.219c-.024-.406.315-.743.739-.699.332.034.578.33.593.663l.012.252c.015.313.28.558.594.548.833-.027,1.655-.062,2.469-.1.315-.015.558-.282.545-.597l-.003-.067c-.024-.406.315-.743.739-.699.332.034.578.33.593.663v.022c.016.319.291.566.61.547.79-.047,1.572-.099,2.341-.158.389-.03.682-.364.667-.754h0c-.022-.368.256-.68.624-.702.368-.022.686.273.707.641v.028c.017.328.306.577.633.545.848-.083,1.68-.172,2.497-.27.297-.035.515-.295.503-.594l-.014-.341c-.024-.406.315-.743.739-.699.332.034.578.33.593.663l.005.112c.016.334.313.584.644.543.172-.022.343-.044.508-.068,1.691-.252,2.932-1.712,2.907-3.426-.013-.911-.763-1.643-1.674-1.663Z" fill="#455a64"/>
      <path d="M1.242,27.837c.509,1.444,2.597,2.25,5.286,2.825,2.04.436,4.149.525,6.226.325,7.145-.686,13.755-1.96,18.179-2.212,1.003-.057,1.997.043,2.98.248,4.82,1.005,9.688,1.232,13.809.13.721-3.132-.032-6.063-1.631-8.799-.727-1.244-2.002-2.079-3.415-2.359l-.944-.187c-.921-.182-1.743.461-1.922,1.383-.154.796-.638,1.451-1.421,1.978-1.387.933-3.212.879-4.722.162-2.047-.971-3.696-2.568-5.109-4.539-.164-.228-.459-.321-.72-.216l-13.032,5.231c-.82.329-1.661.606-2.516.828l-11.007,3.272c-.336.662-.328,1.119-.043,1.929Z" fill="#ffd54f"/>
      <polygon points="26.29 17.913 29.698 26.989 25.335 29.143 20.202 20.918 26.29 17.913" fill="#455a64"/>
      <path d="M47.728,29.151c-2.129.573-4.455.787-6.871.716-.34-.859-.519-1.789-.519-2.756,0-3.435,2.255-6.334,5.368-7.318.143.179.268.358.394.555,1.593,2.738,2.344,5.672,1.628,8.804Z" fill="#455a64"/>
      <path d="M41.305,17.789c-.376,3.167-2.165,5.189-5.243,5.44-2.684.215-4.867-1.271-6.835-3.257-.769-.769-1.95-.931-2.899-.412l-8.875,4.921c-.895.501-2.022.358-2.755-.358l-1.718-1.682c.608-.179,1.217-.394,1.825-.626l13.044-5.243c.251-.107.555,0,.716.215,1.414,1.986,3.06,3.579,5.1,4.545,1.521.716,3.346.769,4.724-.161.787-.519,1.27-1.181,1.431-1.986.161-.769.751-1.342,1.485-1.396Z" fill="#f45558"/>
      <path d="M47.925,27.952c-.018.233-.054.447-.09.68-.036.179-.071.34-.107.519-4.115,1.109-8.982.877-13.796-.125-1.002-.215-2.004-.304-3.006-.25-4.438.25-11.04,1.521-18.18,2.219-1.736.161-3.471.125-5.189-.143-.34-.036-.68-.107-1.02-.179-2.702-.59-5.457-1.396-5.976-2.827-.143-.394-.215-.716-.215-1.002v-.018c.161-.43.519-.734.93-.913.036-.018.054-.018.089-.036h.054c.734,1.199,2.666,1.915,5.118,2.434,2.04.43,4.133.519,6.209.322,4.008-.376,7.855-.948,11.255-1.414h.018c2.63-.376,4.974-.68,6.907-.787,1.002-.072,2.004.036,3.006.251,4.545.948,13.008-.787,13.957-1.449.125.877.143,1.789.036,2.72Z" fill="#ffa14e"/>
      <path d="M17.454,25.151c-.231,0-.455-.119-.58-.332l-1.768-3.023c-.187-.32-.079-.731.24-.918.319-.188.731-.079.918.24l1.768,3.023c.187.32.079.731-.24.918-.107.062-.224.092-.338.092Z" fill="#455a64"/>
      <path d="M20.362,23.452c-.256,0-.5-.147-.612-.396l-1.22-2.712c-.152-.338-.002-.735.336-.887.335-.151.734-.003.887.336l1.22,2.712c.152.338.002.735-.336.887-.089.04-.183.06-.275.06Z" fill="#455a64"/>
      <path d="M23.868,21.566c-.243,0-.476-.131-.596-.361l-1.173-2.252c-.171-.328-.044-.734.285-.905.328-.171.735-.044.905.285l1.173,2.252c.171.329.044.734-.285.905-.099.052-.205.076-.309.076Z" fill="#455a64"/>
      <path d="M36.392,0c-2.807,0-5.089,2.282-5.089,5.089,0,2.2,3.125,6.939,4.477,8.886.297.427.926.427,1.223,0,1.352-1.948,4.477-6.687,4.477-8.886,0-2.807-2.282-5.089-5.089-5.089ZM36.392,7.413c-1.286,0-2.325-1.039-2.325-2.325s1.039-2.325,2.325-2.325,2.325,1.039,2.325,2.325-1.039,2.325-2.325,2.325Z" fill="#5bb774"/>
    </g>
  </g>
</svg>