<?xml version="1.0" encoding="UTF-8"?>
<svg id="Layer_2" data-name="Layer 2" xmlns="http://www.w3.org/2000/svg" viewBox="0 0 34.985 48">
  <g id="Icons">
    <g id="_254" data-name="254">
      <path d="M31.59,22.636v2.282c0,.27.128.525.345.686l2.706,2.014c.217.161.345.416.345.686v17.521c0,1.201-.974,2.175-2.175,2.175H2.175c-1.201,0-2.175-.974-2.175-2.175V2.175C0,.974.974,0,2.175,0h27.24c1.201,0,2.175.974,2.175,2.175v9.671c0,.27.128.525.345.686l2.706,2.014c.217.161.345.416.345.686v5.691c0,.472-.383.856-.856.856h-1.684c-.472,0-.856.383-.856.856Z" fill="#455a64"/>
      <g>
        <rect x="2.354" y="2.64" width="3.181" height="9.055" fill="#ffd54f"/>
        <rect x="7.094" y="2.64" width="3.181" height="9.055" fill="#ffd54f"/>
        <rect x="11.834" y="2.64" width="3.181" height="9.055" fill="#ffd54f"/>
        <rect x="16.575" y="2.64" width="3.181" height="9.055" fill="#ffd54f"/>
        <rect x="21.315" y="2.64" width="3.181" height="9.055" fill="#ffd54f"/>
        <rect x="26.056" y="2.64" width="3.181" height="9.055" fill="#ffd54f"/>
      </g>
      <g>
        <path d="M13.125,25.149c-.369-.156-.649-.361-.84-.615-.191-.254-.292-.531-.303-.831,0-.046.017-.088.052-.125.034-.038.078-.056.13-.056h.788c.063,0,.115.014.156.043.04.029.078.069.112.121.058.196.189.361.394.493.205.133.486.199.844.199.404,0,.708-.068.913-.204.205-.135.308-.322.308-.558,0-.156-.052-.286-.156-.39-.104-.104-.261-.195-.472-.273-.211-.078-.524-.172-.939-.282-.681-.161-1.18-.375-1.497-.64s-.476-.646-.476-1.143c0-.335.092-.633.277-.896.185-.262.448-.469.792-.619.343-.15.743-.225,1.199-.225.479,0,.893.084,1.242.251.349.167.615.377.796.628.182.251.278.501.29.748,0,.047-.017.088-.052.126-.035.037-.078.056-.13.056h-.823c-.127,0-.213-.052-.26-.156-.029-.185-.142-.339-.338-.463-.196-.124-.439-.186-.727-.186-.317,0-.567.061-.749.182-.182.121-.273.297-.273.528,0,.156.046.286.138.39s.237.195.433.273c.196.078.482.166.857.264.514.115.922.245,1.225.39.303.144.527.326.671.545.144.219.217.499.217.84,0,.375-.102.7-.307.974s-.494.483-.865.627c-.372.144-.804.217-1.295.217-.519,0-.964-.078-1.333-.234Z" fill="#d9defb"/>
        <path d="M17.973,25.236c-.041-.04-.061-.09-.061-.147v-5.636c0-.063.019-.115.056-.156.037-.04.088-.061.151-.061h2.112c1.702,0,2.571.785,2.606,2.355.011.335.017.56.017.675,0,.11-.006.332-.017.667-.023.808-.241,1.404-.654,1.788-.412.384-1.049.576-1.909.576h-2.156c-.058,0-.107-.02-.147-.061ZM20.232,24.292c.479,0,.825-.107,1.039-.32s.326-.568.338-1.065c.012-.346.017-.562.017-.649,0-.092-.006-.306-.017-.641-.012-.473-.13-.821-.355-1.043-.225-.222-.58-.333-1.065-.333h-1.056v4.051h1.099Z" fill="#d9defb"/>
        <path d="M6.766,33.911c-.436-.407-.668-.985-.697-1.736-.006-.156-.008-.41-.008-.762,0-.358.003-.618.008-.779.029-.739.262-1.314.701-1.727.438-.413,1.053-.619,1.844-.619.514,0,.961.088,1.342.264.381.176.676.417.887.723.211.306.322.649.333,1.03v.017c0,.047-.019.085-.056.117-.038.032-.079.048-.125.048h-.84c-.069,0-.121-.016-.156-.048-.035-.032-.064-.088-.087-.169-.087-.358-.237-.61-.45-.757-.213-.147-.496-.221-.849-.221-.825,0-1.255.462-1.29,1.385-.006.156-.009.395-.009.719s.003.569.009.736c.034.923.464,1.385,1.29,1.385.346,0,.628-.074.844-.221.216-.147.368-.399.454-.757.023-.081.052-.137.087-.169.034-.032.086-.048.156-.048h.84c.052,0,.096.018.134.052.037.035.053.078.048.13-.012.381-.123.724-.333,1.03-.211.306-.506.547-.887.723-.381.176-.829.264-1.342.264-.796,0-1.413-.204-1.848-.61Z" fill="#d9defb"/>
        <path d="M11.636,34.383c-.035-.035-.052-.078-.052-.13l.017-.078,2.078-5.584c.058-.144.162-.216.312-.216h.952c.15,0,.254.072.311.216l2.078,5.584.017.078c0,.052-.019.095-.056.13-.038.035-.079.052-.125.052h-.771c-.121,0-.205-.055-.251-.165l-.398-1.048h-2.562l-.398,1.048c-.046.11-.13.165-.251.165h-.77c-.052,0-.095-.017-.13-.052ZM13.489,32.219h1.956l-.978-2.667-.978,2.667Z" fill="#d9defb"/>
        <path d="M18.206,34.374c-.04-.04-.06-.09-.06-.147v-5.636c0-.063.019-.115.056-.156.037-.041.088-.061.151-.061h2.242c.71,0,1.265.164,1.666.493.401.329.602.797.602,1.402,0,.421-.101.775-.303,1.061-.202.286-.485.492-.849.619l1.255,2.208c.017.034.026.066.026.095,0,.052-.019.095-.056.13-.038.035-.08.052-.126.052h-.796c-.092,0-.164-.021-.216-.065-.052-.043-.098-.1-.138-.169l-1.108-2.052h-1.186v2.078c0,.058-.02.107-.061.147-.041.041-.092.061-.156.061h-.796c-.058,0-.107-.02-.147-.061ZM20.57,31.162c.346,0,.606-.076.779-.229.173-.153.26-.377.26-.671s-.086-.521-.26-.68c-.173-.158-.433-.238-.779-.238h-1.203v1.818h1.203Z" fill="#d9defb"/>
        <path d="M24.042,34.374c-.04-.04-.061-.09-.061-.147v-5.636c0-.063.019-.115.056-.156.037-.041.088-.061.151-.061h2.112c1.702,0,2.571.785,2.606,2.355.011.335.017.56.017.675,0,.11-.006.332-.017.667-.023.808-.241,1.404-.654,1.788-.412.384-1.049.576-1.909.576h-2.155c-.058,0-.107-.02-.147-.061ZM26.301,33.431c.479,0,.825-.107,1.039-.32.213-.213.326-.569.338-1.065.012-.346.017-.562.017-.649,0-.092-.006-.306-.017-.641-.012-.473-.13-.821-.355-1.043s-.58-.333-1.065-.333h-1.056v4.051h1.099Z" fill="#d9defb"/>
      </g>
      <path d="M9.323,40.84c0-.36.3-.65.66-.65h15.02c.37,0,.66.29.66.65s-.29.66-.66.66h-15.02c-.36,0-.66-.3-.66-.66Z" fill="#384c54"/>
      <path d="M5.573,38.3c0-.36.3-.65.66-.65h22.52c.37,0,.66.29.66.65s-.29.66-.66.66H6.233c-.36,0-.66-.3-.66-.66Z" fill="#384c54"/>
    </g>
  </g>
</svg>