<?xml version="1.0" encoding="UTF-8"?>
<svg id="Layer_2" data-name="Layer 2" xmlns="http://www.w3.org/2000/svg" viewBox="0 0 48 37.568">
  <g id="Icons">
    <g id="_177" data-name="177">
      <g>
        <rect x="0" width="41.839" height="29.362" rx="1.656" ry="1.656" fill="#ffd54f"/>
        <g>
          <path d="M37.296,8.152c0,.685-.571,1.256-1.272,1.256H5.815c-.701,0-1.272-.571-1.272-1.256,0-.701.571-1.272,1.272-1.272h30.209c.701,0,1.272.571,1.272,1.272Z" fill="#f2c341"/>
          <path d="M37.296,14.689c0,.685-.571,1.256-1.272,1.256H5.815c-.701,0-1.272-.571-1.272-1.256,0-.701.571-1.272,1.272-1.272h30.209c.701,0,1.272.571,1.272,1.272Z" fill="#f2c341"/>
          <path d="M37.296,21.227c0,.685-.571,1.256-1.272,1.256H5.815c-.701,0-1.272-.571-1.272-1.256,0-.701.571-1.272,1.272-1.272h30.209c.701,0,1.272.571,1.272,1.272Z" fill="#f2c341"/>
        </g>
        <path d="M6.254,29.362v7.284c0,.79.93,1.212,1.525.693l9.129-7.977H6.254Z" fill="#ffd54f"/>
      </g>
      <g>
        <path d="M47.987,13.325l-.711,5.324c-1.009,7.608-5.811,14.168-12.708,17.449-.399.19-.876.189-1.275,0-3.336-1.591-6.191-3.955-8.369-6.819-2.297-3.063-3.829-6.691-4.339-10.611l-.711-5.342c-.109-.875.492-1.677,1.367-1.86,4.412-.966,8.259-2.844,11.596-5.579.638-.511,1.549-.511,2.188,0,3.336,2.735,7.183,4.613,11.596,5.579.875.182,1.477.985,1.367,1.86Z" fill="#f45558"/>
        <path d="M33.931,34.207c-2.898-1.423-5.464-3.538-7.433-6.127-2.129-2.839-3.499-6.187-3.952-9.669l-.673-5.06c4.501-1.02,8.551-2.971,12.057-5.804,3.497,2.831,7.557,4.787,12.057,5.804l-.672,5.035c-.912,6.877-5.16,12.773-11.384,15.82Z" fill="#d9defb"/>
        <g>
          <path d="M39.22,23.992c0,.436-.345.782-.782.782h-9.017c-.436,0-.8-.346-.8-.782s.364-.8.8-.8h9.017c.436,0,.782.364.782.8Z" fill="#c5cced"/>
          <path d="M41.729,20.034c0,.436-.364.8-.8.8h-14.016c-.436,0-.782-.364-.782-.8s.345-.782.782-.782h14.016c.436,0,.8.346.8.782Z" fill="#c5cced"/>
          <path d="M28.622,16.102c0-.436.364-.8.8-.8h9.017c.436,0,.782.364.782.8s-.345.8-.782.8h-9.017c-.436,0-.8-.364-.8-.8Z" fill="#c5cced"/>
        </g>
      </g>
    </g>
  </g>
</svg>