<?xml version="1.0" encoding="UTF-8"?>
<svg id="Layer_2" data-name="Layer 2" xmlns="http://www.w3.org/2000/svg" viewBox="0 0 38.676 48">
  <g id="Icons">
    <g id="_9" data-name="9">
      <rect x="7.229" y="6.386" width="5.668" height="16.519" fill="#455a64"/>
      <path d="M20.121,0v3.55c0,.924-.749,1.673-1.673,1.673H1.673c-.924,0-1.673-.749-1.673-1.673V0h20.121Z" fill="#455a64"/>
      <path d="M17.697,5.222v2.638c0,.737-.597,1.334-1.334,1.334H3.758c-.737,0-1.334-.597-1.334-1.334v-2.638h15.274Z" fill="#384c54"/>
      <g>
        <rect x="24.021" y="42.111" width="9.589" height="2.392" transform="translate(-22.183 33.06) rotate(-45)" fill="#455a64"/>
        <rect x="26.671" y="43.888" width="7.26" height="1.811" transform="translate(-22.798 34.546) rotate(-45)" fill="#384c54"/>
        <rect x="10.201" y="19.616" width="17.209" height="26.513" rx="1.302" ry="1.302" transform="translate(-17.737 22.925) rotate(-45)" fill="#c5cced"/>
        <path d="M37.662,39.466l-10.265,2.338c-.437.099-.894-.032-1.21-.349L9.752,25.02c-.509-.509-.509-1.333,0-1.842l6.302-6.302c.509-.509,1.333-.509,1.842,0l20.398,20.399c.725.725.367,1.963-.632,2.191Z" fill="#d9defb"/>
        <g>
          <path d="M19.584,30.996c-.156.156-.394.145-.55-.01l-6.261-6.261c-.156-.156-.156-.384,0-.54.145-.145.384-.156.54,0l6.261,6.261c.156.156.156.405.01.55Z" fill="#c5cced"/>
          <path d="M20.436,30.144c-.156.156-.394.145-.55-.01l-6.261-6.261c-.156-.156-.156-.384,0-.54.145-.145.384-.156.54,0l6.261,6.261c.156.156.156.405.01.55Z" fill="#c5cced"/>
          <path d="M21.288,29.292c-.156.156-.394.145-.55-.01l-6.261-6.261c-.156-.156-.156-.384,0-.54.145-.145.384-.156.54,0l6.261,6.261c.156.156.156.405.01.55Z" fill="#c5cced"/>
          <path d="M22.14,28.44c-.156.156-.395.145-.55-.01l-6.261-6.261c-.156-.156-.156-.384,0-.54.145-.145.384-.156.54,0l6.261,6.261c.156.156.156.405.01.55Z" fill="#c5cced"/>
        </g>
      </g>
      <path d="M12.897,16.165v6.739h-5.668v-6.739c.866-.367,1.821-.573,2.834-.573.998,0,1.953.206,2.834.573Z" fill="#384c54"/>
      <circle cx="10.06" cy="22.904" r="5.845" fill="#455a64"/>
      <path d="M12.872,22.904c0,1.554-1.258,2.812-2.812,2.812s-2.812-1.258-2.812-2.812,1.258-2.812,2.812-2.812,2.812,1.258,2.812,2.812Z" fill="#d9defb"/>
    </g>
  </g>
</svg>