<?xml version="1.0" encoding="UTF-8"?>
<svg id="Layer_2" data-name="Layer 2" xmlns="http://www.w3.org/2000/svg" viewBox="0 0 48 48">
  <g id="Icons">
    <g id="_169" data-name="169">
      <g>
        <path d="M44.263,22.62c0,11.954-9.689,21.631-21.631,21.631S1,34.574,1,22.62,10.688,1,22.631,1s21.631,9.678,21.631,21.62Z" fill="#d9defb"/>
        <path d="M22.631,45.252C10.152,45.252,0,35.099,0,22.621S10.152,0,22.631,0s22.632,10.148,22.632,22.621-10.152,22.631-22.632,22.631ZM22.631,2C11.255,2,2,11.251,2,22.621s9.255,20.631,20.631,20.631,20.632-9.255,20.632-20.631S34.007,2,22.631,2Z" fill="#2196f3"/>
        <path d="M22.631,45.252c-6.375,0-11.368-9.94-11.368-22.631S16.256,0,22.631,0s11.369,9.936,11.369,22.621-4.994,22.631-11.369,22.631ZM22.631,2c-5.078,0-9.368,9.443-9.368,20.621s4.29,20.631,9.368,20.631,9.369-9.448,9.369-20.631S27.709,2,22.631,2Z" fill="#2196f3"/>
        <g>
          <path d="M40.113,9.902c-4.11,2.28-10.37,3.71-17.49,3.71s-13.36-1.43-17.47-3.71c.39-.54.81-1.07,1.26-1.57,3.62,1.91,9.27,3.28,16.21,3.28s12.61-1.37,16.23-3.29c.45.5.87,1.03,1.26,1.58Z" fill="#2196f3"/>
          <path d="M40.123,35.342c-.39.55-.82,1.08-1.27,1.58-3.62-1.92-9.28-3.29-16.22-3.29s-12.6,1.37-16.22,3.29c-.45-.5-.88-1.03-1.27-1.58,4.11-2.28,10.37-3.71,17.49-3.71s13.37,1.43,17.49,3.71Z" fill="#2196f3"/>
        </g>
        <rect x="21.631" y="1" width="2" height="43.252" fill="#2196f3"/>
        <rect x="1.006" y="21.626" width="43.251" height="2" fill="#2196f3"/>
      </g>
      <path d="M48,27.487v6.741c0,5.943-4.305,11.392-11.07,13.772-6.748-2.38-11.053-7.828-11.053-13.772v-6.741l11.053-5.861,11.07,5.861Z" fill="#ffd54f"/>
      <path d="M36.931,45.326c-5.226-2.138-8.554-6.418-8.554-11.098v-5.237l8.554-4.536,8.568,4.537v5.236c0,4.681-3.334,8.961-8.568,11.098Z" fill="#f45558"/>
      <path d="M35.447,38.768c-.298,0-.596-.114-.824-.341l-2.441-2.441c-.455-.454-.455-1.192,0-1.647.455-.455,1.192-.455,1.647,0l1.618,1.617,4.601-4.601c.455-.455,1.192-.455,1.647,0s.455,1.192,0,1.647l-5.424,5.424c-.227.227-.526.341-.824.341Z" fill="#fff"/>
    </g>
  </g>
</svg>