<?xml version="1.0" encoding="UTF-8"?>
<svg id="Layer_2" data-name="Layer 2" xmlns="http://www.w3.org/2000/svg" viewBox="0 0 48 42.452">
  <g id="Icons">
    <g id="_45" data-name="45">
      <g>
        <rect x="5.308" y="6.014" width="32.284" height="18.445" fill="#384c54"/>
        <g>
          <rect width="42.9" height="13.95" rx="2.657" ry="2.657" fill="#455a64"/>
          <g>
            <path d="M3.515,6.975c0,1.179.952,2.131,2.131,2.131,1.158,0,2.11-.952,2.11-2.131s-.952-2.131-2.11-2.131c-1.179,0-2.131.952-2.131,2.131Z" fill="#f45558"/>
            <path d="M8.75,6.975c0,1.179.952,2.131,2.131,2.131,1.158,0,2.11-.952,2.11-2.131s-.952-2.131-2.11-2.131c-1.179,0-2.131.952-2.131,2.131Z" fill="#ffd54f"/>
          </g>
          <g>
            <rect x="17.878" y="3.162" width="21.87" height="1.712" fill="#384c54"/>
            <rect x="17.878" y="6.119" width="21.87" height="1.712" fill="#384c54"/>
            <rect x="17.878" y="9.076" width="21.87" height="1.712" fill="#384c54"/>
          </g>
        </g>
        <g>
          <rect y="16.522" width="42.9" height="13.95" rx="2.657" ry="2.657" fill="#455a64"/>
          <g>
            <path d="M3.515,23.497c0,1.179.952,2.131,2.131,2.131,1.158,0,2.11-.952,2.11-2.131s-.952-2.131-2.11-2.131c-1.179,0-2.131.952-2.131,2.131Z" fill="#f45558"/>
            <path d="M8.75,23.497c0,1.179.952,2.131,2.131,2.131,1.158,0,2.11-.952,2.11-2.131s-.952-2.131-2.11-2.131c-1.179,0-2.131.952-2.131,2.131Z" fill="#ffd54f"/>
          </g>
          <g>
            <rect x="17.878" y="19.684" width="21.87" height="1.712" fill="#384c54"/>
            <rect x="17.878" y="22.641" width="21.87" height="1.712" fill="#384c54"/>
            <rect x="17.878" y="25.598" width="21.87" height="1.712" fill="#384c54"/>
          </g>
        </g>
      </g>
      <path d="M48,15.578v15.476c0,1.169-.554,2.269-1.494,2.965l-10.403,7.707c-1.305.967-3.089.967-4.394,0l-10.403-7.707c-.939-.696-1.494-1.796-1.494-2.965v-15.476c0-1.634,1.075-3.074,2.642-3.538l10.403-3.083c.684-.203,1.413-.203,2.097,0l10.403,3.083c1.567.464,2.642,1.904,2.642,3.538Z" fill="#5bb774"/>
      <path d="M33.906,39.135c-.082,0-.157-.025-.223-.073l-10.402-7.708c-.096-.07-.152-.182-.152-.3v-15.475c0-.164.11-.311.267-.358l10.403-3.083h.212l10.403,3.083c.158.046.267.194.267.358v15.475c0,.118-.056.23-.151.3l-10.404,7.708c-.065.049-.14.073-.222.073Z" fill="#d9defb"/>
      <g>
        <path d="M39.104,19.259l-1.383,1.383c-.98-.975-2.33-1.579-3.814-1.579-2.974,0-5.399,2.419-5.399,5.399h-1.96c0-4.06,3.304-7.359,7.359-7.359,2.027,0,3.864.823,5.197,2.156Z" fill="#2196f3"/>
        <path d="M29.738,24.153l-1.972,3.415c-.105.181-.367.181-.472,0l-1.972-3.415c-.105-.182.026-.409.236-.409h3.944c.21,0,.341.227.236.409Z" fill="#2196f3"/>
        <path d="M41.26,24.462c0,4.055-3.299,7.354-7.354,7.354-2.027,0-3.87-.823-5.203-2.156l1.389-1.383c.975.975,2.33,1.579,3.814,1.579,2.974,0,5.393-2.419,5.393-5.394h1.96Z" fill="#2196f3"/>
        <path d="M38.075,24.766l1.972-3.415c.105-.182.367-.182.472,0l1.972,3.415c.105.182-.026.408-.236.408h-3.944c-.21,0-.341-.227-.236-.408Z" fill="#2196f3"/>
      </g>
    </g>
  </g>
</svg>