<?xml version="1.0" encoding="UTF-8"?>
<svg id="Layer_2" data-name="Layer 2" xmlns="http://www.w3.org/2000/svg" viewBox="0 0 40.026 47.365">
  <g id="Icons">
    <g id="_84" data-name="84">
      <rect x="18.292" y="33.931" width="3.443" height="9.232" fill="#455a64"/>
      <rect y="43.163" width="40.026" height="3.443" fill="#455a64"/>
      <rect x="15.324" y="42.404" width="9.379" height="4.961" fill="#f45558"/>
      <rect x="17.533" y="40.195" width="4.961" height="5.827" fill="#f45558"/>
      <g>
        <g>
          <path d="M3.841,32.3c0,3.125,7.247,5.651,16.165,5.651s16.179-2.526,16.179-5.651v-6.785H3.841v6.785Z" fill="#2196f3"/>
          <path d="M36.185,25.515c0,3.125-7.247,5.651-16.179,5.651S3.841,28.64,3.841,25.515s7.247-5.651,16.165-5.651,16.179,2.526,16.179,5.651Z" fill="#455a64"/>
          <path d="M34.063,25.515c0,2.36-6.296,4.268-14.056,4.268s-14.044-1.908-14.044-4.268,6.296-4.268,14.044-4.268,14.056,1.908,14.056,4.268Z" fill="#ffd54f"/>
        </g>
        <g>
          <path d="M3.841,22.49c0,3.125,7.247,5.651,16.165,5.651s16.179-2.526,16.179-5.651v-6.785H3.841v6.785Z" fill="#2196f3"/>
          <path d="M36.185,15.705c0,3.125-7.247,5.651-16.179,5.651S3.841,18.83,3.841,15.705s7.247-5.651,16.165-5.651,16.179,2.526,16.179,5.651Z" fill="#455a64"/>
          <path d="M34.063,15.705c0,2.36-6.296,4.268-14.056,4.268s-14.044-1.908-14.044-4.268,6.296-4.268,14.044-4.268,14.056,1.908,14.056,4.268Z" fill="#ffd54f"/>
        </g>
        <g>
          <path d="M17.488,33.936c0,.601-.481,1.082-1.082,1.082s-1.082-.481-1.082-1.082.481-1.082,1.082-1.082,1.082.481,1.082,1.082Z" fill="#d9defb"/>
          <path d="M21.095,34.297c0,.601-.481,1.082-1.082,1.082s-1.082-.481-1.082-1.082.481-1.082,1.082-1.082,1.082.481,1.082,1.082Z" fill="#d9defb"/>
          <path d="M22.538,33.936c0,.601.481,1.082,1.082,1.082s1.082-.481,1.082-1.082-.481-1.082-1.082-1.082-1.082.481-1.082,1.082Z" fill="#d9defb"/>
        </g>
        <g>
          <path d="M17.488,23.894c0,.601-.481,1.082-1.082,1.082s-1.082-.481-1.082-1.082.481-1.082,1.082-1.082,1.082.481,1.082,1.082Z" fill="#d9defb"/>
          <circle cx="20.013" cy="24.255" r="1.082" fill="#d9defb"/>
          <path d="M22.538,23.894c0,.601.481,1.082,1.082,1.082s1.082-.481,1.082-1.082-.481-1.082-1.082-1.082-1.082.481-1.082,1.082Z" fill="#d9defb"/>
        </g>
        <g>
          <path d="M3.841,12.437c0,3.125,7.247,5.651,16.165,5.651s16.179-2.526,16.179-5.651v-6.785H3.841v6.785Z" fill="#2196f3"/>
          <path d="M36.185,5.651c0,3.125-7.247,5.651-16.179,5.651S3.841,8.776,3.841,5.651,11.088,0,20.006,0s16.179,2.526,16.179,5.651Z" fill="#455a64"/>
          <path d="M34.063,5.651c0,2.36-6.296,4.268-14.056,4.268s-14.044-1.908-14.044-4.268S12.26,1.384,20.007,1.384s14.056,1.908,14.056,4.268Z" fill="#ffd54f"/>
        </g>
        <g>
          <path d="M17.488,13.84c0,.601-.481,1.082-1.082,1.082s-1.082-.481-1.082-1.082.481-1.082,1.082-1.082,1.082.481,1.082,1.082Z" fill="#d9defb"/>
          <path d="M21.095,14.202c0,.601-.481,1.082-1.082,1.082s-1.082-.481-1.082-1.082.481-1.082,1.082-1.082,1.082.481,1.082,1.082Z" fill="#d9defb"/>
          <path d="M22.538,13.84c0,.601.481,1.082,1.082,1.082s1.082-.481,1.082-1.082-.481-1.082-1.082-1.082-1.082.481-1.082,1.082Z" fill="#d9defb"/>
        </g>
      </g>
    </g>
  </g>
</svg>