<?xml version="1.0" encoding="UTF-8"?>
<svg id="Layer_2" data-name="Layer 2" xmlns="http://www.w3.org/2000/svg" viewBox="0 0 43.945 48">
  <g id="Icons">
    <g id="_182" data-name="182">
      <path d="M43.925,12.215l-1.11,8.314c-1.575,11.881-9.075,22.126-19.847,27.249-.623.296-1.368.296-1.991,0-5.21-2.484-9.669-6.176-13.07-10.649-3.588-4.783-5.979-10.449-6.776-16.571L.02,12.215c-.171-1.367.769-2.619,2.136-2.904C9.046,7.802,15.054,4.869,20.265.598c.996-.797,2.42-.797,3.417,0,5.21,4.271,11.218,7.203,18.109,8.713,1.367.285,2.306,1.537,2.135,2.904Z" fill="#5bb774"/>
      <path d="M21.974,44.826c-4.525-2.222-8.533-5.525-11.608-9.568-3.326-4.434-5.464-9.661-6.171-15.1l-1.052-7.903c7.03-1.593,13.353-4.639,18.829-9.064,5.461,4.42,11.801,7.476,18.829,9.065l-1.05,7.864c-1.424,10.74-8.059,19.948-17.777,24.706Z" fill="#d9defb"/>
      <g>
        <g>
          <path d="M13.437,22c-.404.404-.404,1.049,0,1.453.392.404,1.049.404,1.453,0,3.904-3.917,10.259-3.917,14.175,0,.404.404,1.049.392,1.453,0,.404-.404.404-1.049,0-1.453-4.713-4.713-12.381-4.713-17.081,0Z" fill="#455a64"/>
          <path d="M16.835,25.411c-.392.392-.392,1.049,0,1.453.404.392,1.061.392,1.453,0,2.034-2.034,5.332-2.034,7.366,0,.404.392,1.049.392,1.453,0,.404-.404.404-1.061,0-1.453-2.83-2.83-7.441-2.83-10.272,0Z" fill="#455a64"/>
          <path d="M10.025,18.589c-.404.404-.404,1.049,0,1.453.392.404,1.049.404,1.453,0,5.786-5.787,15.199-5.787,20.998,0,.392.404,1.049.404,1.453,0,.392-.404.392-1.049,0-1.453-6.595-6.595-17.321-6.595-23.904,0Z" fill="#455a64"/>
        </g>
        <path d="M18.923,31.32c0,1.696,1.36,3.056,3.056,3.056,1.683,0,3.043-1.36,3.043-3.056,0-1.683-1.36-3.056-3.043-3.056-1.696,0-3.056,1.373-3.056,3.056Z" fill="#455a64"/>
      </g>
    </g>
  </g>
</svg>