<?xml version="1.0" encoding="UTF-8"?>
<svg id="Layer_2" data-name="Layer 2" xmlns="http://www.w3.org/2000/svg" viewBox="0 0 33.136 48.001">
  <g id="Icons">
    <g id="_8" data-name="8">
      <path d="M33.136,2.618v42.766c0,1.446-1.172,2.618-2.618,2.618H2.618c-1.446,0-2.618-1.172-2.618-2.618V12.367c0-.694.271-1.355.762-1.846L10.519.764c.491-.491,1.154-.764,1.848-.764h18.151c1.446,0,2.618,1.172,2.618,2.618Z" fill="#455a64"/>
      <g>
        <path d="M4.752,37.077h5.284c.266-1.097,1.13-1.958,2.229-2.218v-6.1c-1.099-.26-1.963-1.12-2.229-2.217h-5.285v10.535Z" fill="#ffd54f"/>
        <rect x="13.298" y="28.847" width="6.54" height="5.926" fill="#ffd54f"/>
        <path d="M22.16,25.835v-5.113h-11.185v5.113c0,1.092.888,1.98,1.979,1.98h7.226c1.091,0,1.979-.888,1.979-1.98Z" fill="#ffd54f"/>
        <path d="M23.193,25.51h5.192v-2.92c0-1.031-.836-1.868-1.868-1.868h-3.324v4.788Z" fill="#ffd54f"/>
        <path d="M9.943,25.51v-4.788h-3.324c-1.031,0-1.868.836-1.868,1.868v2.92h5.192Z" fill="#ffd54f"/>
        <path d="M9.943,38.109h-5.192v2.92c0,1.031.836,1.868,1.868,1.868h3.324v-4.788Z" fill="#ffd54f"/>
        <path d="M23.193,38.109v4.788h3.324c1.031,0,1.868-.836,1.868-1.868v-2.92h-5.192Z" fill="#ffd54f"/>
        <path d="M28.384,26.542h-5.285c-.266,1.097-1.13,1.958-2.229,2.217v6.1c1.1.26,1.963,1.121,2.229,2.218h5.284v-10.535Z" fill="#ffd54f"/>
        <path d="M22.16,37.784c0-1.092-.888-1.98-1.979-1.98h-7.226c-1.091,0-1.979.888-1.979,1.98v5.113h11.185v-5.113Z" fill="#ffd54f"/>
      </g>
      <path d="M26.517,20.722c1.031,0,1.868.836,1.868,1.868v18.44c0,1.032-.836,1.868-1.868,1.868H6.619c-1.031,0-1.868-.836-1.868-1.868v-18.44c0-1.031.836-1.868,1.868-1.868h19.898M26.517,19.69H6.619c-1.599,0-2.9,1.301-2.9,2.9v18.44c0,1.599,1.301,2.9,2.9,2.9h19.898c1.599,0,2.9-1.301,2.9-2.9v-18.44c0-1.599-1.301-2.9-2.9-2.9h0Z" fill="#384c54"/>
      <g>
        <path d="M14.908,13.645c-.499-.231-.877-.537-1.134-.916-.256-.38-.392-.789-.409-1.226v-.025c0-.066.027-.122.081-.167.054-.045.113-.069.18-.069h1.176c.19,0,.31.083.359.248.115.363.307.631.576.805.268.173.584.261.948.261.462,0,.844-.141,1.146-.421.301-.281.452-.669.452-1.164,0-.446-.151-.807-.452-1.084-.301-.276-.683-.415-1.146-.415-.248,0-.45.033-.607.099-.157.066-.31.157-.459.272-.017.008-.053.033-.111.075-.058.041-.109.07-.155.087-.045.017-.093.025-.143.025h-1.164c-.074,0-.138-.027-.192-.081-.054-.053-.081-.117-.081-.192l.421-4.224c.008-.107.047-.192.118-.254.07-.062.155-.093.254-.093h4.658c.091,0,.163.027.217.081.054.053.081.126.081.217v.842c0,.083-.027.153-.081.211-.054.057-.126.087-.217.087h-3.58l-.198,2.007c.19-.124.409-.225.657-.303.247-.079.569-.118.966-.118.537,0,1.034.114,1.493.341.458.227.826.553,1.102.979.277.425.415.919.415,1.48,0,.603-.141,1.129-.421,1.579-.281.45-.677.797-1.189,1.04-.512.243-1.107.365-1.784.365-.685,0-1.278-.115-1.778-.347Z" fill="#d9defb"/>
        <path d="M22.266,13.1c-.632-.586-.969-1.404-1.01-2.453-.009-.239-.013-.623-.013-1.152s.004-.912.013-1.152c.033-1.024.371-1.827,1.016-2.409.644-.582,1.528-.873,2.651-.873.76,0,1.414.13,1.963.39.549.26.964.582,1.245.966.281.384.429.762.446,1.134,0,.074-.025.136-.074.186-.05.05-.116.075-.199.075h-1.3c-.083,0-.145-.017-.186-.049-.041-.033-.079-.087-.111-.161-.116-.305-.318-.565-.607-.78-.289-.215-.681-.322-1.177-.322-.578,0-1.03.155-1.356.464-.326.31-.497.791-.514,1.443-.008.24-.012.603-.012,1.09,0,.479.004.842.012,1.09.017.669.19,1.162.52,1.48.33.318.785.477,1.363.477.586,0,1.057-.157,1.412-.471.355-.314.533-.784.533-1.412v-.384h-1.511c-.083,0-.153-.029-.211-.087-.058-.058-.087-.128-.087-.211v-.681c0-.083.029-.153.087-.211.058-.057.128-.087.211-.087h2.973c.091,0,.165.029.223.087.057.058.087.128.087.211v1.313c0,.685-.153,1.282-.459,1.79-.305.508-.739.898-1.3,1.171-.562.272-1.218.409-1.97.409-1.14,0-2.025-.293-2.657-.88Z" fill="#d9defb"/>
      </g>
    </g>
  </g>
</svg>