<?xml version="1.0" encoding="UTF-8"?>
<svg id="Layer_2" data-name="Layer 2" xmlns="http://www.w3.org/2000/svg" viewBox="0 0 48 36.536">
  <g id="Icons">
    <g id="_266" data-name="266">
      <path d="M44.593,1.87l3.387,25.086c.175,1.296-.833,2.448-2.14,2.448H2.163c-1.307,0-2.315-1.153-2.14-2.448L3.41,1.87c.145-1.071,1.059-1.87,2.14-1.87h36.903c1.081,0,1.995.799,2.14,1.87Z" fill="#d9defb"/>
      <path d="M47.72,28.325c-.374.639-1.073,1.073-1.881,1.073H2.166c-1.315,0-2.316-1.146-2.147-2.436L3.408,1.875c.036-.277.121-.531.253-.76l44.059,27.21Z" fill="#c5cced"/>
      <g>
        <polygon points="20.402 5.278 27.601 5.278 27.524 2.412 20.48 2.412 20.402 5.278" fill="#2196f3"/>
        <polygon points="19.926 22.92 28.078 22.92 27.952 18.246 20.052 18.246 19.926 22.92" fill="#2196f3"/>
        <polygon points="19.273 2.412 12.231 2.412 11.999 5.278 19.196 5.278 19.273 2.412" fill="#2196f3"/>
        <polygon points="19.005 12.365 11.425 12.365 11.046 17.04 18.878 17.04 19.005 12.365" fill="#2196f3"/>
        <polygon points="11.523 11.159 19.037 11.159 19.163 6.484 11.901 6.484 11.523 11.159" fill="#2196f3"/>
        <polygon points="20.085 17.04 27.919 17.04 27.793 12.365 20.211 12.365 20.085 17.04" fill="#2196f3"/>
        <polygon points="37.691 11.159 43.413 11.159 42.782 6.484 37.312 6.484 37.691 11.159" fill="#2196f3"/>
        <polygon points="29.158 18.246 29.284 22.92 37.434 22.92 37.055 18.246 29.158 18.246" fill="#2196f3"/>
        <polygon points="38.167 17.04 44.207 17.04 43.576 12.365 37.789 12.365 38.167 17.04" fill="#2196f3"/>
        <polygon points="28.84 6.484 28.967 11.159 36.481 11.159 36.102 6.484 28.84 6.484" fill="#2196f3"/>
        <polygon points="28.808 5.278 36.005 5.278 35.773 2.412 28.731 2.412 28.808 5.278" fill="#2196f3"/>
        <polygon points="28.999 12.365 29.125 17.04 36.957 17.04 36.579 12.365 28.999 12.365" fill="#2196f3"/>
        <polygon points="20.37 6.484 20.243 11.159 27.76 11.159 27.634 6.484 20.37 6.484" fill="#2196f3"/>
        <polygon points="37.215 5.278 42.62 5.278 42.233 2.412 36.983 2.412 37.215 5.278" fill="#2196f3"/>
        <polygon points="10.789 5.278 11.021 2.412 5.771 2.412 5.384 5.278 10.789 5.278" fill="#2196f3"/>
        <polygon points="37.531 24.127 29.317 24.127 29.394 26.992 37.763 26.992 37.531 24.127" fill="#2196f3"/>
        <polygon points="44.37 18.246 38.265 18.246 38.643 22.92 45.001 22.92 44.37 18.246" fill="#2196f3"/>
        <polygon points="10.57 22.92 18.72 22.92 18.846 18.246 10.949 18.246 10.57 22.92" fill="#2196f3"/>
        <polygon points="38.741 24.127 38.973 26.992 45.551 26.992 45.164 24.127 38.741 24.127" fill="#2196f3"/>
        <polygon points="9.263 24.127 2.84 24.127 2.453 26.992 9.031 26.992 9.263 24.127" fill="#2196f3"/>
        <polygon points="9.837 17.04 10.215 12.365 4.427 12.365 3.796 17.04 9.837 17.04" fill="#2196f3"/>
        <polygon points="4.59 11.159 10.313 11.159 10.692 6.484 5.221 6.484 4.59 11.159" fill="#2196f3"/>
        <polygon points="9.36 22.92 9.739 18.246 3.633 18.246 3.002 22.92 9.36 22.92" fill="#2196f3"/>
        <polygon points="28.11 24.127 19.893 24.127 19.816 26.992 28.188 26.992 28.11 24.127" fill="#2196f3"/>
        <polygon points="18.687 24.127 10.473 24.127 10.24 26.992 18.61 26.992 18.687 24.127" fill="#2196f3"/>
      </g>
      <g>
        <polygon points="2.841 24.128 9.257 24.128 9.028 26.986 2.455 26.986 2.841 24.128" fill="#1792e5"/>
        <polygon points="3.637 18.242 9.74 18.242 9.366 22.922 2.998 22.922 3.637 18.242" fill="#1792e5"/>
        <polygon points="4.433 12.368 10.21 12.368 9.836 17.036 3.794 17.036 4.433 12.368" fill="#1792e5"/>
        <polygon points="10.403 5.277 5.386 5.277 5.772 2.418 10.403 5.277" fill="#1792e5"/>
        <polygon points="10.319 11.162 4.59 11.162 5.229 6.483 10.693 6.483 10.319 11.162" fill="#1792e5"/>
        <polygon points="10.475 24.128 18.689 24.128 18.605 26.986 10.246 26.986 10.475 24.128" fill="#1792e5"/>
        <polygon points="10.946 18.242 18.846 18.242 18.725 22.922 10.572 22.922 10.946 18.242" fill="#1792e5"/>
        <polygon points="11.428 12.368 19.003 12.368 18.882 17.036 11.042 17.036 11.428 12.368" fill="#1792e5"/>
        <polygon points="12.357 6.483 19.051 10.62 19.039 11.162 11.525 11.162 11.899 6.483 12.357 6.483" fill="#1792e5"/>
        <polygon points="27.916 17.036 20.088 17.036 20.209 12.368 21.885 12.368 27.892 16.083 27.916 17.036" fill="#1792e5"/>
        <polygon points="28.072 22.922 19.931 22.922 20.052 18.242 27.952 18.242 28.072 22.922" fill="#1792e5"/>
        <polygon points="28.109 24.128 28.193 26.986 19.811 26.986 19.895 24.128 28.109 24.128" fill="#1792e5"/>
        <polygon points="29.435 17.036 29.122 17.036 29.122 16.843 29.435 17.036" fill="#1792e5"/>
        <polygon points="37.432 22.922 29.279 22.922 29.158 18.242 31.389 18.242 37.347 21.921 37.432 22.922" fill="#1792e5"/>
        <polygon points="37.528 24.128 37.757 26.986 29.399 26.986 29.315 24.128 37.528 24.128" fill="#1792e5"/>
        <polygon points="38.963 22.922 38.638 22.922 38.626 22.705 38.963 22.922" fill="#1792e5"/>
        <polygon points="45.549 26.986 38.976 26.986 38.746 24.128 40.917 24.128 45.549 26.986" fill="#1792e5"/>
      </g>
      <rect x="17.406" y="29.398" width="13.191" height="5.009" fill="#384c54"/>
      <path d="M33.54,35.408h0c0,.623-.505,1.127-1.127,1.127H15.591c-.622,0-1.127-.505-1.127-1.127h0c0-.623.505-1.127,1.127-1.127h16.822c.622,0,1.127.505,1.127,1.127Z" fill="#455a64"/>
    </g>
  </g>
</svg>