<?xml version="1.0" encoding="UTF-8"?>
<svg id="Layer_2" data-name="Layer 2" xmlns="http://www.w3.org/2000/svg" viewBox="0 0 48 48">
  <g id="Icons">
    <g id="_160" data-name="160">
      <path d="M48,24.008c0,13.243-10.749,23.992-24.008,23.992S0,37.251,0,24.008,10.749,0,23.992,0s24.008,10.749,24.008,24.008Z" fill="#455a64"/>
      <path d="M44.037,24.007c0,11.057-8.974,20.031-20.044,20.031S3.962,35.063,3.962,24.007,12.937,3.962,23.993,3.962s20.044,8.974,20.044,20.044Z" fill="#fff"/>
      <path d="M5.871,24.009c0,6.07,2.99,11.44,7.57,14.72l4.62-6.45c-2.57-1.85-4.25-4.869-4.25-8.279h-7.94s0,.006,0,.009Z" fill="#ffd54f"/>
      <path d="M23.996,13.809v-7.94s-.003,0-.005,0C13.994,5.869,5.876,13.984,5.872,24h7.94s0,0,0-.001c0-5.618,4.557-10.187,10.185-10.19Z" fill="#5bb774"/>
      <path d="M34.191,24c0,3.419-1.68,6.439-4.26,8.279l4.62,6.45c4.59-3.28,7.57-8.65,7.57-14.72,0-.003,0-.006,0-.009h-7.93Z" fill="#f45558"/>
      <path d="M23.996,5.869v7.94s.003,0,.005,0c5.62,0,10.19,4.57,10.19,10.19,0,0,0,0,0,.001h7.93c-.005-10.014-8.11-18.128-18.125-18.131Z" fill="#2196f3"/>
      <path d="M20.921,27.077c-1.699-1.699-1.699-4.456.002-6.157,1.699-1.699,12.538-6.383,12.538-6.383,0,0-4.682,10.841-6.381,12.54-1.701,1.701-4.458,1.701-6.159,0Z" fill="#455a64"/>
      <path d="M22.687,25.312c-.724-.724-.724-1.9,0-2.625s1.9-.724,2.624,0,.725,1.901,0,2.625-1.901.725-2.626,0Z" fill="#fff"/>
    </g>
  </g>
</svg>