<?xml version="1.0" encoding="UTF-8"?>
<svg id="Layer_2" data-name="Layer 2" xmlns="http://www.w3.org/2000/svg" viewBox="0 0 47.796 47.919">
  <g id="Icons">
    <g id="_61" data-name="61">
      <g>
        <g>
          <path d="M0,40.784c0,3.946,7.997,7.136,17.838,7.136s17.853-3.19,17.853-7.136v-8.567H0v8.567Z" fill="#5bb774"/>
          <path d="M35.691,32.216c0,3.946-7.997,7.136-17.853,7.136S0,36.162,0,32.216s7.997-7.136,17.838-7.136,17.853,3.19,17.853,7.136Z" fill="#455a64"/>
          <path d="M33.348,32.216c0,2.98-6.948,5.389-15.51,5.389s-15.496-2.409-15.496-5.389,6.948-5.389,15.496-5.389,15.51,2.409,15.51,5.389Z" fill="#384c54"/>
        </g>
        <g>
          <path d="M0,28.398c0,3.946,7.997,7.136,17.838,7.136s17.853-3.19,17.853-7.136v-8.568H0v8.568Z" fill="#5bb774"/>
          <path d="M35.691,19.83c0,3.946-7.997,7.136-17.853,7.136S0,23.776,0,19.83s7.997-7.136,17.838-7.136,17.853,3.19,17.853,7.136Z" fill="#455a64"/>
          <path d="M33.348,19.83c0,2.98-6.948,5.389-15.51,5.389s-15.496-2.409-15.496-5.389,6.948-5.388,15.496-5.388,15.51,2.409,15.51,5.388Z" fill="#384c54"/>
        </g>
        <g>
          <path d="M4.507,40.327c-.144.745-.856,1.226-1.601,1.082-.745-.144-1.226-.856-1.082-1.601.144-.745.856-1.226,1.601-1.082s1.226.856,1.082,1.601Z" fill="#d9defb"/>
          <path d="M8.978,42.358c-.144.745-.856,1.226-1.601,1.082s-1.226-.856-1.082-1.601c.144-.745.856-1.226,1.601-1.082s1.226.856,1.082,1.601Z" fill="#d9defb"/>
          <path d="M10.767,42.704c-.144.745.336,1.457,1.082,1.601s1.457-.337,1.601-1.082c.144-.745-.336-1.457-1.082-1.601s-1.457.336-1.601,1.082Z" fill="#d9defb"/>
        </g>
        <g>
          <path d="M4.507,28.213c-.144.745-.856,1.226-1.601,1.082s-1.226-.856-1.082-1.601c.144-.745.856-1.226,1.601-1.082s1.226.856,1.082,1.601Z" fill="#d9defb"/>
          <path d="M8.978,30.243c-.144.745-.856,1.226-1.601,1.082s-1.226-.856-1.082-1.601c.144-.745.856-1.226,1.601-1.082.745.144,1.226.856,1.082,1.601Z" fill="#d9defb"/>
          <path d="M10.767,30.59c-.144.745.336,1.457,1.082,1.601.745.144,1.457-.337,1.601-1.082s-.336-1.457-1.082-1.601c-.745-.144-1.457.336-1.601,1.082Z" fill="#d9defb"/>
        </g>
        <g>
          <path d="M0,15.703c0,3.946,7.997,7.136,17.838,7.136s17.853-3.19,17.853-7.136V7.136H0v8.568Z" fill="#5bb774"/>
          <path d="M35.691,7.136c0,3.946-7.997,7.136-17.853,7.136S0,11.082,0,7.136,7.997,0,17.838,0s17.853,3.19,17.853,7.136Z" fill="#455a64"/>
          <path d="M33.348,7.136c0,2.98-6.948,5.389-15.51,5.389S2.342,10.115,2.342,7.136,9.29,1.747,17.839,1.747s15.51,2.409,15.51,5.388Z" fill="#384c54"/>
        </g>
        <g>
          <path d="M4.507,15.203c-.144.745-.856,1.226-1.601,1.082-.745-.144-1.226-.856-1.082-1.601.144-.745.856-1.226,1.601-1.082s1.226.856,1.082,1.601Z" fill="#d9defb"/>
          <path d="M8.978,17.233c-.144.745-.856,1.226-1.601,1.082s-1.226-.856-1.082-1.601c.144-.745.856-1.226,1.601-1.082s1.226.856,1.082,1.601Z" fill="#d9defb"/>
          <path d="M10.767,17.579c-.144.745.336,1.457,1.082,1.601s1.457-.336,1.601-1.082c.144-.745-.336-1.457-1.082-1.601s-1.457.336-1.601,1.082Z" fill="#d9defb"/>
        </g>
      </g>
      <g>
        <rect x="35.193" y="36.641" width="5.97" height="2.993" transform="translate(-15.785 38.166) rotate(-45)" fill="#c5cced"/>
        <path d="M40.561,37.871l6.328,5.362c1.145.97,1.216,2.711.155,3.772h0c-1.061,1.061-2.802.989-3.771-.156l-5.362-6.327,2.65-2.65Z" fill="#455a64"/>
        <path d="M23.325,23.28c-4.025,4.025-4.025,10.538-.005,14.559,4.026,4.025,10.538,4.025,14.564,0,4.021-4.021,4.021-10.533-.005-14.559-4.021-4.021-10.533-4.021-14.554,0ZM35.465,35.42c-2.69,2.689-7.036,2.689-9.726,0s-2.685-7.032.005-9.721c2.685-2.685,7.032-2.685,9.717,0s2.69,7.036.004,9.721Z" fill="#d9defb"/>
      </g>
    </g>
  </g>
</svg>