<?xml version="1.0" encoding="UTF-8"?>
<svg id="Layer_2" data-name="Layer 2" xmlns="http://www.w3.org/2000/svg" viewBox="0 0 47.227 28.731">
  <g id="Icons">
    <g id="_1" data-name="1">
      <path d="M44.86,25.491H11.338v-1h33.522c.753,0,1.366-.613,1.366-1.366v-14.381c0-.753-.613-1.366-1.366-1.366h-4.969v-1h4.969c1.305,0,2.366,1.061,2.366,2.366v14.381c0,1.305-1.061,2.366-2.366,2.366Z" fill="#384c54"/>
      <g>
        <rect x=".002" width="37.64" height="13.757" rx="1.552" ry="1.552" fill="#455a64"/>
        <rect x="32.858" y="3.681" width="1.971" height="6.394" fill="#384c54"/>
        <g>
          <g>
            <rect x="3.204" y="2.267" width="3.538" height="6.057" fill="#384c54"/>
            <rect x="4.8" y="2.636" width="1.553" height="5.319" fill="#d9defb"/>
          </g>
          <g>
            <rect x="9.31" y="2.267" width="3.538" height="6.057" fill="#384c54"/>
            <rect x="10.905" y="2.636" width="1.553" height="5.319" fill="#d9defb"/>
          </g>
          <g>
            <rect x="15.416" y="2.267" width="3.538" height="6.057" fill="#384c54"/>
            <rect x="17.011" y="2.636" width="1.553" height="5.319" fill="#d9defb"/>
          </g>
          <g>
            <rect x="21.521" y="2.267" width="3.538" height="6.057" fill="#384c54"/>
            <rect x="23.116" y="2.636" width="1.554" height="5.319" fill="#d9defb"/>
          </g>
          <g>
            <rect x="27.627" y="2.267" width="3.538" height="6.057" fill="#384c54"/>
            <rect x="29.222" y="2.636" width="1.553" height="5.319" fill="#d9defb"/>
          </g>
          <path d="M5.852,10.658c0,.55-.459,1.009-1.009,1.009-.564,0-1.022-.459-1.022-1.009,0-.564.459-1.022,1.022-1.022.55,0,1.009.459,1.009,1.022Z" fill="#ffd54f"/>
          <path d="M11.931,10.658c0,.55-.459,1.009-1.009,1.009-.564,0-1.022-.459-1.022-1.009,0-.564.459-1.022,1.022-1.022.55,0,1.009.459,1.009,1.022Z" fill="#ffd54f"/>
          <path d="M18.011,10.658c0,.55-.459,1.009-1.009,1.009-.564,0-1.022-.459-1.022-1.009,0-.564.459-1.022,1.022-1.022.55,0,1.009.459,1.009,1.022Z" fill="#ffd54f"/>
          <path d="M24.09,10.658c0,.55-.459,1.009-1.009,1.009-.564,0-1.022-.459-1.022-1.009,0-.564.459-1.022,1.022-1.022.55,0,1.009.459,1.009,1.022Z" fill="#ffd54f"/>
          <path d="M30.17,10.658c0,.55-.459,1.009-1.009,1.009-.564,0-1.022-.459-1.022-1.009,0-.564.459-1.022,1.022-1.022.55,0,1.009.459,1.009,1.022Z" fill="#ffd54f"/>
        </g>
      </g>
      <path d="M39.262,3.69v6.944c0,.274-.222.497-.497.497h-1.123V3.193h1.123c.274,0,.497.222.497.497Z" fill="#384c54"/>
      <path d="M41.05,6.199v1.991c0,.985-.801,1.785-1.785,1.785v-5.572c.985,0,1.785.801,1.785,1.796Z" fill="#455a64"/>
      <rect x="4.461" y="21.543" width="9.085" height="7.188" rx=".716" ry=".716" fill="#455a64"/>
      <path d="M15.335,24.549v1.241c0,.984-.801,1.785-1.785,1.785v-4.822c.985,0,1.785.801,1.785,1.796Z" fill="#384c54"/>
      <rect y="22.61" width="4.461" height="5.012" fill="#d9defb"/>
      <g>
        <rect x=".829" y="23.504" width="1.713" height="1.063" fill="#c5cced"/>
        <rect x=".829" y="25.664" width="1.713" height="1.063" fill="#c5cced"/>
      </g>
      <rect x="3.31" y="24.03" width=".55" height="2.17" fill="#c5cced"/>
    </g>
  </g>
</svg>