<?xml version="1.0" encoding="UTF-8"?>
<svg id="Layer_2" data-name="Layer 2" xmlns="http://www.w3.org/2000/svg" viewBox="0 0 48 46.016">
  <g id="Icons">
    <g id="_60" data-name="60">
      <path d="M37.518,44.143h-12.542v-1.51h12.542c3.627,0,6.579-2.951,6.579-6.577v-7.417h1.51v7.417c0,4.46-3.628,8.087-8.089,8.087Z" fill="#d9defb"/>
      <path d="M46.74,26.105h-3.776v-3.352c0-10.464-8.514-18.977-18.978-18.977S5.037,12.289,5.037,22.753v3.352H1.261v-3.352C1.261,10.207,11.456,0,23.986,0s22.754,10.207,22.754,22.753v3.352Z" fill="#d9defb"/>
      <path d="M8.797,24.88v6.916H1.262c-.697,0-1.262-.565-1.262-1.262v-4.392c0-.697.565-1.262,1.262-1.262h7.535Z" fill="#455a64"/>
      <path d="M11.178,21.114v14.448h-3.459c-1.132,0-2.05-.918-2.05-2.05v-10.348c0-1.132.918-2.05,2.05-2.05h3.459Z" fill="#f45558"/>
      <path d="M13.011,21.058v14.545c0,.498-.408.921-.921.921-.498,0-.906-.423-.906-.921v-14.545c0-.498.408-.906.906-.906.514,0,.921.408.921.906Z" fill="#ffd54f"/>
      <path d="M39.203,24.88v6.916h7.535c.697,0,1.262-.565,1.262-1.262v-4.392c0-.697-.565-1.262-1.262-1.262h-7.535Z" fill="#455a64"/>
      <path d="M36.822,21.114v14.448h3.459c1.132,0,2.05-.918,2.05-2.05v-10.348c0-1.132-.918-2.05-2.05-2.05h-3.459Z" fill="#f45558"/>
      <path d="M34.989,21.058v14.545c0,.498.408.921.921.921.499,0,.906-.423.906-.921v-14.545c0-.498-.408-.906-.906-.906-.514,0-.921.408-.921.906Z" fill="#ffd54f"/>
      <path d="M28.082,43.388c0,1.451-1.587,2.628-3.533,2.628-1.929,0-3.516-1.178-3.516-2.628s1.587-2.628,3.516-2.628c1.945,0,3.533,1.177,3.533,2.628Z" fill="#455a64"/>
      <path d="M33.17,21.03l-1.335-.255c-.122-.023-.215-.116-.244-.238-.192-.789-.505-1.526-.917-2.2-.064-.11-.064-.238.006-.342l.766-1.132c.087-.128.07-.302-.035-.406l-1.48-1.474c-.11-.11-.279-.122-.406-.041l-1.132.766c-.105.07-.232.07-.342.006-.667-.412-1.41-.72-2.2-.911-.122-.029-.215-.122-.238-.244l-.25-1.341c-.029-.151-.163-.261-.319-.261h-2.089c-.151,0-.284.11-.313.261l-.255,1.341c-.023.122-.116.215-.238.244-.789.192-1.532.505-2.2.911-.11.064-.238.064-.342-.006l-1.126-.76c-.128-.087-.302-.075-.406.035l-1.48,1.474c-.104.11-.122.279-.041.406l.766,1.132c.07.104.075.232.006.342-.406.667-.72,1.41-.911,2.2-.029.122-.122.215-.244.238l-1.341.255c-.151.029-.261.163-.261.313v2.089c0,.151.11.284.261.313l1.341.255c.122.023.215.116.244.238.192.789.505,1.532.911,2.2.07.11.064.238-.006.342l-.766,1.132c-.081.128-.064.296.041.406l1.48,1.474c.104.11.279.122.406.035l1.126-.76c.104-.07.232-.07.342-.006.667.406,1.41.72,2.2.911.122.029.215.122.238.244l.255,1.341c.029.151.163.261.313.261h2.089c.157,0,.29-.11.319-.261l.25-1.341c.023-.122.116-.215.238-.244.789-.192,1.532-.499,2.2-.911.11-.064.238-.064.342.006l1.132.766c.128.081.296.07.406-.041l1.48-1.474c.104-.105.122-.279.035-.406l-.766-1.132c-.07-.104-.07-.232-.006-.342.412-.673.726-1.41.917-2.2.029-.122.122-.215.244-.238l1.335-.255c.151-.029.261-.163.261-.313v-2.089c0-.151-.11-.284-.261-.313ZM24,26.46c-2.253,0-4.077-1.819-4.077-4.072s1.824-4.072,4.077-4.072,4.077,1.819,4.077,4.072-1.829,4.072-4.077,4.072Z" fill="#5bb774"/>
    </g>
  </g>
</svg>