<?xml version="1.0" encoding="UTF-8"?>
<svg id="Layer_2" data-name="Layer 2" xmlns="http://www.w3.org/2000/svg" viewBox="0 0 47.995 41.755">
  <g id="Icons">
    <g id="_192" data-name="192">
      <g>
        <rect x="0" width="41.755" height="41.755" rx="1.893" ry="1.893" fill="#d9defb"/>
        <path d="M0,33.231v6.631c0,1.045.848,1.893,1.893,1.893h37.969c1.046,0,1.893-.848,1.893-1.893v-6.631H0Z" fill="#2196f3"/>
        <rect y="31.237" width="41.755" height=".923" fill="#455a64"/>
        <g>
          <rect x="5.893" y="2.324" width="3.517" height="1.219" fill="#c5cced"/>
          <rect x="12.506" y="2.324" width="3.517" height="1.219" fill="#c5cced"/>
          <rect x="19.119" y="2.324" width="3.517" height="1.219" fill="#c5cced"/>
          <rect x="25.732" y="2.324" width="3.517" height="1.219" fill="#c5cced"/>
          <rect x="32.345" y="2.324" width="3.517" height="1.219" fill="#c5cced"/>
        </g>
        <g>
          <path d="M18.129,39.856c-.032-.032-.048-.071-.048-.117v-3.796h-1.275c-.046,0-.085-.016-.117-.048-.032-.032-.048-.073-.048-.124v-.516c0-.05.015-.092.045-.124.03-.032.07-.048.121-.048h3.52c.051,0,.092.016.124.048.032.033.048.074.048.124v.516c0,.05-.016.092-.048.124-.032.033-.073.048-.124.048h-1.268v3.796c0,.046-.015.085-.045.117-.03.032-.07.048-.12.048h-.648c-.046,0-.085-.016-.117-.048Z" fill="#fff"/>
          <path d="M22.331,39.712l-1.474-4.423c-.005-.014-.007-.034-.007-.062,0-.041.014-.076.041-.103.028-.028.062-.041.103-.041h.613c.06,0,.108.016.145.048.037.033.062.067.076.104l1.15,3.527,1.157-3.527c.009-.037.032-.071.069-.104.037-.032.085-.048.145-.048h.62c.037,0,.07.014.1.041.03.028.045.062.045.103l-.014.062-1.468,4.423c-.046.128-.136.193-.269.193h-.765c-.138,0-.227-.064-.269-.193Z" fill="#fff"/>
        </g>
        <g>
          <g>
            <path d="M29.021,16.405c.386.386.386,1,0,1.386-.374.386-1,.386-1.386,0-3.724-3.736-9.787-3.736-13.523,0-.386.386-1,.374-1.386,0-.386-.386-.386-1,0-1.386,4.496-4.496,11.811-4.496,16.295,0Z" fill="#f45558"/>
            <path d="M25.778,19.659c.374.374.374,1,0,1.386-.386.374-1.012.374-1.386,0-1.94-1.94-5.086-1.94-7.027,0-.386.374-1,.374-1.386,0-.386-.386-.386-1.012,0-1.386,2.7-2.7,7.099-2.7,9.799,0Z" fill="#f45558"/>
            <path d="M32.275,13.151c.386.386.386,1,0,1.386-.374.386-1,.386-1.386,0-5.52-5.52-14.499-5.52-20.031,0-.374.386-1,.386-1.386,0-.374-.386-.374-1,0-1.386,6.291-6.291,16.524-6.291,22.803,0Z" fill="#f45558"/>
          </g>
          <path d="M23.787,25.296c0,1.618-1.297,2.915-2.915,2.915-1.605,0-2.903-1.297-2.903-2.915,0-1.606,1.297-2.916,2.903-2.916,1.618,0,2.915,1.31,2.915,2.916Z" fill="#f45558"/>
        </g>
      </g>
      <g>
        <rect x="35.515" y="11.067" width="12.48" height="30.689" rx="1.214" ry="1.214" fill="#455a64"/>
        <path d="M41.982,27.04c-1.115,0-2.022.905-2.022,2.018s.907,2.018,2.022,2.018,2.018-.905,2.018-2.018-.905-2.018-2.018-2.018Z" fill="#384c54"/>
        <g>
          <path d="M43.54,31.012l.746.747c-1.327,1.139-3.29,1.128-4.612-.006l.746-.747c.907.73,2.212.73,3.119.006Z" fill="#384c54"/>
          <path d="M40.034,30.614l-.752.746c-1.133-1.322-1.139-3.284,0-4.606l.746.747c-.73.907-.724,2.206.005,3.113Z" fill="#384c54"/>
          <path d="M44.679,31.365l-.752-.747c.73-.907.73-2.212,0-3.119l.752-.747c1.134,1.322,1.134,3.285,0,4.612Z" fill="#384c54"/>
          <path d="M40.421,27.108l-.752-.746c1.327-1.139,3.295-1.134,4.617,0l-.746.746c-.907-.73-2.212-.73-3.119,0Z" fill="#384c54"/>
        </g>
        <path d="M39.703,12.724v.542c0,.077-.061.144-.138.144h-1.897c-.077,0-.144-.066-.144-.144v-.542c0-.077.066-.138.144-.138h1.897c.077,0,.138.061.138.138Z" fill="#384c54"/>
        <path d="M46.526,12.724v.542c0,.077-.066.144-.144.144h-1.897c-.077,0-.138-.066-.138-.144v-.542c0-.077.061-.138.138-.138h1.897c.077,0,.144.061.144.138Z" fill="#384c54"/>
        <g>
          <rect x="37.526" y="14.765" width="2.162" height="2.157" rx=".433" ry=".433" fill="#384c54"/>
          <path d="M41.377,14.765h1.295c.239,0,.433.194.433.433v1.29c0,.239-.194.433-.433.433h-1.295c-.239,0-.433-.194-.433-.433v-1.29c0-.239.194-.434.434-.434Z" fill="#384c54"/>
          <path d="M44.796,14.765h1.295c.239,0,.433.194.433.433v1.29c0,.239-.194.433-.433.433h-1.295c-.239,0-.433-.194-.433-.433v-1.29c0-.239.194-.434.434-.434Z" fill="#384c54"/>
        </g>
        <g>
          <rect x="37.526" y="18.038" width="2.162" height="2.156" rx=".433" ry=".433" fill="#384c54"/>
          <path d="M41.377,18.038h1.295c.239,0,.433.194.433.433v1.29c0,.239-.194.433-.433.433h-1.295c-.239,0-.433-.194-.433-.433v-1.29c0-.239.194-.434.434-.434Z" fill="#384c54"/>
          <path d="M44.796,18.038h1.295c.239,0,.433.194.433.433v1.29c0,.239-.194.433-.433.433h-1.295c-.239,0-.433-.194-.433-.433v-1.29c0-.239.194-.434.434-.434Z" fill="#384c54"/>
        </g>
        <g>
          <rect x="37.526" y="21.312" width="2.162" height="2.157" rx=".433" ry=".433" fill="#384c54"/>
          <path d="M41.377,21.312h1.295c.239,0,.433.194.433.433v1.29c0,.239-.194.433-.433.433h-1.295c-.239,0-.433-.194-.433-.433v-1.29c0-.239.194-.434.434-.434Z" fill="#384c54"/>
          <path d="M44.796,21.312h1.295c.239,0,.433.194.433.433v1.29c0,.239-.194.433-.433.433h-1.295c-.239,0-.433-.194-.433-.433v-1.29c0-.239.194-.434.434-.434Z" fill="#384c54"/>
        </g>
        <g>
          <rect x="37.526" y="34.948" width="2.162" height="2.157" rx=".433" ry=".433" fill="#384c54"/>
          <path d="M41.377,34.948h1.295c.239,0,.433.194.433.433v1.29c0,.239-.194.433-.433.433h-1.295c-.239,0-.433-.194-.433-.433v-1.29c0-.239.194-.434.434-.434Z" fill="#384c54"/>
          <path d="M44.796,34.948h1.295c.239,0,.433.194.433.433v1.29c0,.239-.194.433-.433.433h-1.295c-.239,0-.433-.194-.433-.433v-1.29c0-.239.194-.434.434-.434Z" fill="#384c54"/>
        </g>
        <g>
          <rect x="37.256" y="14.495" width="2.162" height="2.157" rx=".433" ry=".433" fill="#d9defb"/>
          <rect x="40.674" y="14.495" width="2.162" height="2.157" rx=".433" ry=".433" fill="#d9defb"/>
          <rect x="44.092" y="14.495" width="2.162" height="2.157" rx=".433" ry=".433" fill="#d9defb"/>
        </g>
        <g>
          <rect x="37.256" y="17.769" width="2.162" height="2.157" rx=".433" ry=".433" fill="#d9defb"/>
          <rect x="40.674" y="17.769" width="2.162" height="2.157" rx=".433" ry=".433" fill="#d9defb"/>
          <rect x="44.092" y="17.769" width="2.162" height="2.157" rx=".433" ry=".433" fill="#d9defb"/>
        </g>
        <g>
          <rect x="37.256" y="21.042" width="2.162" height="2.157" rx=".433" ry=".433" fill="#d9defb"/>
          <rect x="40.674" y="21.042" width="2.162" height="2.157" rx=".433" ry=".433" fill="#d9defb"/>
          <rect x="44.092" y="21.042" width="2.162" height="2.157" rx=".433" ry=".433" fill="#d9defb"/>
        </g>
        <g>
          <path d="M37.69,34.678h1.295c.239,0,.434.194.434.434v1.29c0,.239-.194.433-.433.433h-1.295c-.239,0-.433-.194-.433-.433v-1.29c0-.239.194-.433.433-.433Z" fill="#d9defb"/>
          <rect x="40.674" y="34.678" width="2.162" height="2.157" rx=".433" ry=".433" fill="#d9defb"/>
          <rect x="44.092" y="34.678" width="2.162" height="2.157" rx=".433" ry=".433" fill="#d9defb"/>
        </g>
        <path d="M39.433,12.455v.542c0,.077-.061.144-.138.144h-1.897c-.077,0-.144-.066-.144-.144v-.542c0-.077.066-.138.144-.138h1.897c.077,0,.138.061.138.138Z" fill="#f45558"/>
        <path d="M46.256,12.455v.542c0,.077-.066.144-.144.144h-1.897c-.077,0-.138-.066-.138-.144v-.542c0-.077.061-.138.138-.138h1.897c.078,0,.144.061.144.138Z" fill="#ffd54f"/>
        <path d="M41.757,26.814c-1.115,0-2.022.905-2.022,2.018s.907,2.018,2.022,2.018,2.018-.905,2.018-2.018-.905-2.018-2.018-2.018Z" fill="#ffd54f"/>
        <g>
          <path d="M43.315,30.786l.746.747c-1.327,1.139-3.29,1.128-4.611-.006l.746-.747c.907.73,2.212.73,3.119.006Z" fill="#d9defb"/>
          <path d="M39.809,30.388l-.752.746c-1.134-1.322-1.139-3.284,0-4.606l.746.747c-.73.907-.724,2.206.006,3.113Z" fill="#d9defb"/>
          <path d="M44.454,31.14l-.752-.747c.73-.907.73-2.212,0-3.119l.752-.747c1.133,1.322,1.133,3.285,0,4.612Z" fill="#d9defb"/>
          <path d="M40.196,26.882l-.752-.747c1.327-1.139,3.296-1.133,4.617,0l-.746.747c-.907-.73-2.212-.73-3.119,0Z" fill="#d9defb"/>
        </g>
      </g>
    </g>
  </g>
</svg>