<?xml version="1.0" encoding="UTF-8"?>
<svg id="Layer_2" data-name="Layer 2" xmlns="http://www.w3.org/2000/svg" viewBox="0 0 47.972 39.216">
  <g id="Icons">
    <g id="_114" data-name="114">
      <g>
        <path d="M47.972,23.272c0,5.526-4.48,10.006-10.028,10.006H9.985c-5.505,0-9.985-4.48-9.985-10.006,0-4.949,3.586-9.058,8.295-9.876-.251-.872-.381-1.788-.381-2.725C7.913,4.774,12.699,0,18.585,0c4.404,0,8.186,2.66,9.799,6.475.926-.403,1.929-.643,3.008-.643,4.109,0,7.423,3.314,7.423,7.423v.033c5.134.436,9.156,4.753,9.156,9.985Z" fill="#d9defb"/>
        <path d="M47.971,23.272c0,5.53-4.48,10.01-10.03,10.01H9.98c-3.37,0-6.35-1.68-8.15-4.25l36.99-15.84v.1c5.13.43,9.15,4.75,9.15,9.98Z" fill="#c5cced"/>
      </g>
      <g>
        <rect x="9.912" y="20.761" width="28.149" height="18.455" rx=".941" ry=".941" fill="#f2c341"/>
        <path d="M37.778,38.953c-.169.16-.405.263-.659.263H10.853c-.254,0-.489-.103-.659-.263l13.778-12.592,13.806,12.592Z" fill="#e5b438"/>
        <path d="M37.778,21.025l-13.147,12.008c-.358.329-.913.329-1.27,0l-13.166-12.008c.169-.16.405-.263.659-.263h26.266c.254,0,.489.103.659.263Z" fill="#ffd54f"/>
      </g>
    </g>
  </g>
</svg>