<?xml version="1.0" encoding="UTF-8"?>
<svg id="Layer_2" data-name="Layer 2" xmlns="http://www.w3.org/2000/svg" viewBox="0 0 39.639 48">
  <g id="Icons">
    <g id="_255" data-name="255">
      <path d="M39.639,45.931c0,1.13-.939,2.069-2.069,2.069H2.069c-1.146,0-2.069-.939-2.069-2.069,0-1.146.923-2.084,2.069-2.084h35.502c1.13,0,2.069.939,2.069,2.084Z" fill="#f45558"/>
      <path d="M36.899,22.568v21.279H2.74v-21.279c0-1.765,1.431-3.195,3.195-3.195h27.769c1.765,0,3.195,1.43,3.195,3.195Z" fill="#f45558"/>
      <rect x="2.74" y="40.451" width="34.159" height="3.396" fill="#e5454d"/>
      <path d="M32.905.798v18.575H6.735V.798c0-.44.357-.798.798-.798h24.575c.44,0,.798.357.798.798Z" fill="#d9defb"/>
      <rect x="6.735" y="16.241" width="26.17" height="3.132" fill="#c5cced"/>
      <g>
        <rect x="10.498" y="6.578" width="5.633" height="5.633" fill="#455a64"/>
        <rect x="23.508" y="6.578" width="5.633" height="5.633" fill="#455a64"/>
      </g>
      <g>
        <rect x="10.498" y="10.692" width="5.633" height="1.52" fill="#384c54"/>
        <rect x="23.508" y="10.692" width="5.633" height="1.52" fill="#384c54"/>
      </g>
      <g>
        <path d="M11.568,33.156c-.391.391-.391,1.014,0,1.404.379.391,1.014.391,1.405,0,3.774-3.786,9.917-3.786,13.703,0,.391.391,1.014.379,1.405,0,.391-.391.391-1.014,0-1.404-4.556-4.556-11.969-4.556-16.512,0Z" fill="#e5454d"/>
        <path d="M14.853,36.454c-.379.379-.379,1.014,0,1.404.391.379,1.026.379,1.404,0,1.966-1.966,5.154-1.966,7.12,0,.391.379,1.014.379,1.405,0,.391-.391.391-1.026,0-1.404-2.736-2.736-7.194-2.736-9.929,0Z" fill="#e5454d"/>
        <path d="M8.27,29.859c-.391.391-.391,1.014,0,1.404.379.391,1.014.391,1.405,0,5.594-5.594,14.692-5.594,20.298,0,.379.391,1.014.391,1.405,0,.379-.391.379-1.014,0-1.404-6.375-6.375-16.744-6.375-23.108,0Z" fill="#e5454d"/>
      </g>
    </g>
  </g>
</svg>