<?xml version="1.0" encoding="UTF-8"?>
<svg id="Layer_2" data-name="Layer 2" xmlns="http://www.w3.org/2000/svg" viewBox="0 0 38.645 47.96">
  <g id="Icons">
    <g id="_233" data-name="233">
      <g>
        <path d="M38.408,30.77c-.795,2.814-3.33,4.55-5.675,3.887-2.329-.658-3.58-3.464-2.784-6.278.79-2.795,3.324-4.53,5.654-3.872,2.345.663,3.596,3.469,2.806,6.263Z" fill="#efa3ac"/>
        <path d="M.237,30.77c.795,2.814,3.33,4.55,5.675,3.887,2.329-.658,3.58-3.464,2.784-6.278-.79-2.795-3.324-4.53-5.653-3.872-2.345.663-3.596,3.469-2.806,6.263Z" fill="#efa3ac"/>
      </g>
      <path d="M34.21,13.765v19.307c0,8.222-6.665,14.888-14.887,14.888h0c-8.222,0-14.887-6.665-14.887-14.888V13.765h29.775Z" fill="#ffb7bd"/>
      <path d="M25.179,40.241c-.09,0-.18-.021-.266-.065-3.76-1.964-7.42-1.964-11.18,0-.281.146-.627.038-.774-.243-.147-.281-.038-.627.243-.774,4.063-2.12,8.18-2.12,12.243,0,.281.147.39.493.243.774-.102.196-.302.308-.509.308Z" fill="#efa3ac"/>
      <path d="M19.323,41.75c-.854,0-1.705-.078-2.552-.235-.311-.058-.518-.357-.459-.668.057-.312.36-.523.668-.46,1.555.287,3.133.287,4.688,0,.304-.062.611.148.668.46.058.311-.148.611-.459.668-.847.156-1.7.235-2.552.235Z" fill="#efa3ac"/>
      <path d="M30.594,17.045c-8.051,2.749-16.011,1.836-24.152.407-.141,2.494-.142,4.873-.445,7.212-.296,2.287-.899,4.535-1.581,6.726-.217-1.887-.325-3.795-.683-5.654-.307-1.596-.881-3.142-1.372-4.7-.744-2.356-.808-4.551,1.519-6.296-1.457-.613-2.122.607-3.257,1.037,1.664-2.828,3.168-5.57,5.798-7.35-.975-.67-1.902-1.307-2.976-2.045,2.01-.257,3.784-.484,5.687-.728-1.325-1.143-2.48-2.139-3.635-3.136.054-.097.108-.194.162-.291,3.697.773,7.214-.313,10.754-1.004,5.13-1.002,9.661.055,13.564,3.591.136.123.287.228.334.265.882-.463,1.692-.888,2.502-1.314.067.1.134.2.202.3-.173.196-.359.383-.517.591-.488.64-.509,1.154.096,1.849,1.26,1.448,2.546,2.924,3.497,4.576,1.336,2.32.982,4.857.4,7.377-.791,3.429-1.498,6.877-2.189,10.328-.155.776-.095,1.595-.212,2.401-1.785-4.496-2.947-9.14-3.497-14.143Z" fill="#a96c79"/>
      <g>
        <rect x="3.035" y="18.865" width="32.574" height="15.759" rx="2.597" ry="2.597" fill="#455a64"/>
        <path d="M32.607,32.756h-8.988c-.314,0-.614-.132-.825-.364l-1.475-1.615c-.212-.232-.511-.364-.826-.364h-2.341c-.314,0-.614.132-.826.364l-1.475,1.615c-.212.232-.511.364-.826.364H6.088c-.615,0-1.115-.497-1.118-1.112l-.051-9.715c-.003-.619.497-1.123,1.116-1.124l26.518-.058c.616-.001,1.117.496,1.12,1.112l.051,9.772c.003.62-.498,1.124-1.118,1.124Z" fill="#d9defb"/>
      </g>
      <g>
        <path d="M37.445,24.101v5.286c0,.293-.238.531-.531.531h-1.305v-6.348h1.305c.293,0,.531.238.531.531Z" fill="#384c54"/>
        <path d="M3.035,23.57v6.348h-1.305c-.293,0-.531-.238-.531-.531v-5.286c0-.293.238-.531.531-.531h1.305Z" fill="#384c54"/>
      </g>
      <rect x="13.436" y="16.671" width="11.772" height="2.192" fill="#384c54"/>
      <path d="M23.794.861v15.813h-8.944V.861c0-.475.385-.861.861-.861h7.222c.476,0,.861.386.861.861Z" fill="#455a64"/>
    </g>
  </g>
</svg>