<?xml version="1.0" encoding="UTF-8"?>
<svg id="Layer_2" data-name="Layer 2" xmlns="http://www.w3.org/2000/svg" viewBox="0 0 32.343 48">
  <g id="Icons">
    <g id="_6" data-name="6">
      <rect x="1.912" y="8.899" width="28.519" height="30.202" rx="2.354" ry="2.354" fill="#d9defb"/>
      <rect x="4.855" y="11.842" width="22.633" height="24.317" fill="#455a64"/>
      <g>
        <rect x="7.91" y="25.825" width="7.525" height="7.525" fill="#f45558"/>
        <polygon points="15.434 22.176 7.91 22.176 11.663 14.651 15.434 22.176" fill="#d9defb"/>
        <path d="M24.435,29.578c0,2.095-1.694,3.771-3.771,3.771s-3.771-1.676-3.771-3.771c0-2.078,1.693-3.754,3.771-3.754s3.771,1.676,3.771,3.754Z" fill="#ffd54f"/>
        <rect x="16.901" y="14.651" width="7.525" height="7.525" fill="#2196f3"/>
      </g>
      <path d="M26.774,7.796v1.101H5.568v-1.095c0-1.166.416-2.294,1.173-3.181h0c.757-.887,1.173-2.015,1.173-3.181h0c0-.795.644-1.439,1.439-1.439h13.644c.795,0,1.44.645,1.44,1.439v.006c0,1.162.413,2.287,1.166,3.173l.004.004c.753.886,1.166,2.01,1.166,3.173Z" fill="#455a64"/>
      <path d="M5.568,40.204v-1.101h21.206v1.094c0,1.166-.416,2.294-1.173,3.181h0c-.757.887-1.173,2.015-1.173,3.181h0c0,.795-.644,1.44-1.439,1.44h-13.644c-.795,0-1.439-.645-1.439-1.44v-.006c0-1.162-.413-2.287-1.166-3.173l-.004-.004c-.753-.886-1.166-2.01-1.166-3.173Z" fill="#455a64"/>
      <path d="M1.621,15.681h.288v17.281h-.288c-.896,0-1.621-.715-1.621-1.611v-14.059c0-.896.725-1.611,1.621-1.611Z" fill="#c5cced"/>
      <path d="M32.343,16.779v4.331c0,.896-.725,1.622-1.611,1.622h-.299v-7.574h.299c.885,0,1.611.725,1.611,1.621Z" fill="#c5cced"/>
      <path d="M32.343,26.892v4.331c0,.896-.725,1.621-1.611,1.621h-.299v-7.574h.299c.885,0,1.611.725,1.611,1.621Z" fill="#c5cced"/>
    </g>
  </g>
</svg>