<?xml version="1.0" encoding="UTF-8"?>
<svg id="Layer_2" data-name="Layer 2" xmlns="http://www.w3.org/2000/svg" viewBox="0 0 48 34.45">
  <g id="Icons">
    <g id="_200" data-name="200">
      <path d="M45.29,3.619v23.931H2.71V3.619c0-1.999,1.62-3.619,3.619-3.619h35.342c1.999,0,3.619,1.62,3.619,3.619Z" fill="#384c54"/>
      <path d="M48,28.429h0c0,3.325-2.696,6.021-6.021,6.021H6.021c-3.325,0-6.021-2.696-6.021-6.021h0c0-.485.393-.879.879-.879h46.242c.485,0,.879.394.879.879Z" fill="#455a64"/>
      <path d="M.616,31.07c.979,2,3.028,3.38,5.405,3.38h35.958c2.377,0,4.426-1.381,5.405-3.38H.616Z" fill="#384c54"/>
      <path d="M29.4,27.55v.198c0,.748-.607,1.355-1.355,1.355h-8.09c-.748,0-1.355-.606-1.355-1.355v-.198h10.8Z" fill="#2b3d42"/>
      <path d="M6.329,2c-.893,0-1.619.726-1.619,1.619v21.931h19.29V2H6.329Z" fill="#d9defb"/>
      <path d="M41.671,2h-17.671v23.55h19.29V3.619c0-.892-.727-1.619-1.619-1.619Z" fill="#c5cced"/>
      <g>
        <path d="M21.593,20.876v4.674H7.117v-4.674c0-1.937,1.57-3.508,3.508-3.508h7.461c1.937,0,3.508,1.57,3.508,3.508Z" fill="#f45558"/>
        <path d="M16.211,15.343v2.749c0,1.025-.831,1.856-1.856,1.856h0c-1.025,0-1.856-.831-1.856-1.856v-2.749h3.712Z" fill="#efa3ac"/>
        <g>
          <path d="M10.222,13.936v-4.712c0-2.283,1.851-4.133,4.133-4.133h0c2.283,0,4.133,1.851,4.133,4.133v4.712h-8.267Z" fill="#455a64"/>
          <path d="M18.001,9.566v4.157c0,2.014-1.632,3.646-3.646,3.646h0c-2.013,0-3.646-1.632-3.646-3.646v-4.157h7.291Z" fill="#ffb7bd"/>
          <path d="M13.697,9.941c0,.937-.756,1.701-1.694,1.701s-1.694-.764-1.694-1.701c0-.93.756-1.694,1.694-1.694s1.694.764,1.694,1.694Z" fill="#455a64"/>
          <path d="M18.246,10.173c-.185,1.021-1.583,1.628-3.129,1.347-1.545-.28-2.641-1.339-2.456-2.36.184-1.013,1.582-1.619,3.127-1.338,1.546.28,2.641,1.339,2.458,2.352Z" fill="#455a64"/>
          <g>
            <path d="M16.936,12.859c0,.332-.277.608-.608.608s-.609-.277-.609-.608c0-.343.277-.609.609-.609s.608.266.608.609Z" fill="#455a64"/>
            <path d="M13.25,12.859c0,.332-.277.608-.609.608s-.609-.277-.609-.608c0-.343.277-.609.609-.609s.609.266.609.609Z" fill="#455a64"/>
          </g>
          <path d="M14.356,15.688c-.46,0-.921-.175-1.272-.524-.066-.065-.066-.172,0-.237.065-.066.172-.066.238,0,.572.569,1.499.569,2.067,0,.066-.066.172-.066.237,0s.066.172,0,.238c-.35.35-.809.524-1.27.524Z" fill="#efa3ac"/>
        </g>
        <g>
          <path d="M18.884,13.339c0,.493-.397.89-.89.89s-.89-.397-.89-.89.397-.89.89-.89.89.397.89.89Z" fill="#ffb7bd"/>
          <path d="M11.606,13.339c0,.493-.397.89-.89.89s-.89-.397-.89-.89.397-.89.89-.89.89.397.89.89Z" fill="#ffb7bd"/>
        </g>
      </g>
      <g>
        <path d="M40.883,20.876v4.674h-14.477v-4.674c0-1.937,1.571-3.508,3.508-3.508h7.461c1.937,0,3.508,1.57,3.508,3.508Z" fill="#2196f3"/>
        <path d="M35.501,15.343v2.749c0,1.025-.831,1.856-1.856,1.856h0c-1.025,0-1.856-.831-1.856-1.856v-2.749h3.712Z" fill="#efa3ac"/>
        <g>
          <path d="M29.512,13.936v-4.712c0-2.283,1.851-4.133,4.133-4.133h0c2.283,0,4.133,1.851,4.133,4.133v4.712h-8.267Z" fill="#455a64"/>
          <path d="M37.291,9.566v4.157c0,2.014-1.632,3.646-3.646,3.646h0c-2.013,0-3.646-1.632-3.646-3.646v-4.157h7.292Z" fill="#ffb7bd"/>
          <path d="M32.987,9.941c0,.937-.756,1.701-1.693,1.701s-1.694-.764-1.694-1.701c0-.93.756-1.694,1.694-1.694s1.693.764,1.693,1.694Z" fill="#455a64"/>
          <path d="M37.536,10.173c-.185,1.021-1.583,1.628-3.129,1.347-1.545-.28-2.641-1.339-2.456-2.36.184-1.013,1.582-1.619,3.127-1.338,1.546.28,2.641,1.339,2.458,2.352Z" fill="#455a64"/>
          <g>
            <path d="M36.226,12.859c0,.332-.277.608-.609.608s-.609-.277-.609-.608c0-.343.277-.609.609-.609s.609.266.609.609Z" fill="#455a64"/>
            <path d="M32.54,12.859c0,.332-.277.608-.609.608s-.609-.277-.609-.608c0-.343.277-.609.609-.609s.609.266.609.609Z" fill="#455a64"/>
          </g>
          <path d="M33.646,15.688c-.46,0-.921-.175-1.272-.524-.066-.065-.066-.172,0-.237.066-.066.172-.066.238,0,.572.569,1.499.569,2.067,0,.066-.066.172-.066.237,0s.066.172,0,.238c-.349.35-.809.524-1.27.524Z" fill="#efa3ac"/>
        </g>
        <g>
          <path d="M38.174,13.339c0,.493-.397.89-.89.89s-.89-.397-.89-.89.397-.89.89-.89.89.397.89.89Z" fill="#ffb7bd"/>
          <path d="M30.896,13.339c0,.493-.397.89-.89.89s-.89-.397-.89-.89.397-.89.89-.89.89.397.89.89Z" fill="#ffb7bd"/>
        </g>
      </g>
    </g>
  </g>
</svg>