<?xml version="1.0" encoding="UTF-8"?>
<svg id="Layer_2" data-name="Layer 2" xmlns="http://www.w3.org/2000/svg" viewBox="0 0 35.079 47.999">
  <g id="Icons">
    <g id="_250" data-name="250">
      <path d="M28.605,40.315v2.484H6.475v-2.484c0-1.086.88-1.966,1.966-1.966h18.197c1.086,0,1.966.88,1.966,1.966Z" fill="#455a64"/>
      <rect x="6.475" y="41.611" width="22.13" height="1.188" fill="#384c54"/>
      <rect x="12.544" y="32.669" width="9.992" height="5.68" fill="#455a64"/>
      <rect x="12.544" y="36.687" width="9.992" height="1.663" fill="#384c54"/>
      <path d="M35.079,17.547c0,9.689-7.844,17.533-17.533,17.533S0,27.235,0,17.547,7.858,0,17.547,0s17.533,7.858,17.533,17.547Z" fill="#d9defb"/>
      <g>
        <path d="M19.09,3.418c0,.867-.709,1.55-1.55,1.55-.867,0-1.55-.683-1.55-1.55,0-.841.683-1.55,1.55-1.55.84,0,1.55.709,1.55,1.55Z" fill="#c5cced"/>
        <path d="M18.63,3.418c0,.61-.499,1.09-1.09,1.09-.61,0-1.091-.481-1.091-1.09,0-.591.481-1.091,1.091-1.091.591,0,1.09.499,1.09,1.091Z" fill="#f45558"/>
      </g>
      <g>
        <path d="M27.537,17.544c0,5.522-4.471,9.993-9.993,9.993s-10.001-4.471-10.001-9.993,4.479-10.001,10.001-10.001,9.993,4.479,9.993,10.001Z" fill="#c5cced"/>
        <path d="M25.45,17.543c0,4.369-3.538,7.907-7.907,7.907s-7.913-3.538-7.913-7.907,3.544-7.914,7.913-7.914,7.907,3.544,7.907,7.914Z" fill="#455a64"/>
        <path d="M23.214,17.542c0,3.134-2.537,5.672-5.672,5.672s-5.676-2.538-5.676-5.672,2.542-5.676,5.676-5.676,5.672,2.542,5.672,5.676Z" fill="#2196f3"/>
        <path d="M20.239,17.541c0,1.491-1.207,2.698-2.698,2.698s-2.7-1.207-2.7-2.698,1.209-2.7,2.7-2.7,2.698,1.209,2.698,2.7Z" fill="#1792e5"/>
        <path d="M16.904,15.745c0,.715-.578,1.292-1.292,1.292s-1.307-.578-1.307-1.292c0-.73.593-1.307,1.307-1.307s1.292.578,1.292,1.307Z" fill="#fff"/>
      </g>
      <path d="M32.355,44.765v3.234H2.725v-3.234c0-1.086.88-1.966,1.966-1.966h25.697c1.086,0,1.966.88,1.966,1.966Z" fill="#d9defb"/>
    </g>
  </g>
</svg>