<?xml version="1.0" encoding="UTF-8"?>
<svg id="Layer_2" data-name="Layer 2" xmlns="http://www.w3.org/2000/svg" viewBox="0 0 48 47.925">
  <g id="Icons">
    <g id="_19" data-name="19">
      <polygon points="24.401 1.925 24.401 3.175 16.271 3.175 12.691 4.965 7.051 4.965 7.051 3.715 12.391 3.715 16.001 1.925 24.401 1.925" fill="#455a64"/>
      <polygon points="16.271 30.573 24.401 30.573 24.401 31.823 15.951 31.813 12.391 30.033 2.021 30.033 2.021 28.783 12.711 28.803 16.271 30.573" fill="#455a64"/>
      <rect x="16.001" y="24.498" width="8.4" height="1.25" fill="#455a64"/>
      <rect x="16.001" y="14.039" width="8.4" height="1.25" fill="#455a64"/>
      <polygon points="14.411 19.375 24.401 19.375 24.401 20.625 14.081 20.615 10.531 18.835 5.181 18.835 5.181 17.585 10.851 17.595 14.411 19.375" fill="#455a64"/>
      <polygon points="16.271 37.07 24.401 37.07 24.401 38.32 15.951 38.301 12.391 36.53 7.051 36.53 7.051 35.28 12.711 35.291 16.271 37.07" fill="#455a64"/>
      <rect x="10.351" y="42.505" width="13.66" height="1.25" fill="#455a64"/>
      <polygon points="16.001 8.146 24.401 8.146 24.401 9.396 16.271 9.396 12.691 11.187 2.021 11.187 2.021 9.937 12.391 9.937 16.001 8.146" fill="#455a64"/>
      <g>
        <path d="M48,23.967c0,12.607-10.228,22.835-22.835,22.835V1.132c12.607,0,22.835,10.219,22.835,22.835Z" fill="#2196f3"/>
        <path d="M45.621,24.119c-.542.942-.552,1.979-.647,3.016-.114,1.17-.39,1.303-1.446.761-1.322-.676-2.635-1.361-3.958-2.046-.304-.067-.495-.247-.552-.561-.362-.733-.723-1.465-1.085-2.198-.476-.285-.828-.704-1.18-1.123-.266-.057-.552-.19-.799-.143-.704.143-1.17-.076-1.541-.704-.266-.476-.685-.79-1.294-.504-.181.285-.352.599-.742.657-.856-.342-1.322.124-1.76.78-.428.637-.818,1.275-1.132,1.979-.352.809-.951,1.237-1.865,1.218-.837-.019-1.665-.019-2.455-.238V1.122c4.738,0,9.486,1.475,13.492,4.415-.923-.276-1.912-.238-2.969.095-.428.143-.761.352-.675.761.114.523.571.361.932.238.257-.095.504-.238.761-.314,1.323-.381,2.464.723,2.141,2.046-.428,1.713-.428,1.703-2.131,1.132-1.246-.409-2.455-.913-3.758-1.123-.361.457.228.542.323.828.733.276,1.465.561,2.198.837.257-.019.352.162.438.362,1.094.295,2.188.637,3.349.428.209-.276.361-.618.78-.666,1.042.761,2.894,1.492,3.556,2.799.51,1.008-.545,3.243-.252,4.367.248.953-.365,2.341-.088,3.329.266.932,1.694,1.855,2.274,2.673.181.257.219.542.086.79Z" fill="#d9defb"/>
        <path d="M29.732,46.336c-1.332.276-2.674.428-4.025.457-.181-.038-.361-.076-.542-.114v-11.256c.019.048.038.114.057.171.152.571.324,1.132.704,1.599.209.029.276.2.333.371-.057.409.124.685.504.837l.048-.048c.247.143.495.285.542.609.247.637.362,1.247-.067,1.874-.38.542-.143,1.047.181,1.532.58.885.885,1.836.685,2.902.266.209.533.428.704.733.285.105.58.219.875.333Z" fill="#d9defb"/>
        <path d="M44.754,16.096c.694.065,1.247.021,1.197.865-.034.566.368.941.734,1.311.272.272.544.556.562.959.026.6-.326,1.038-.856,1.13-.502.087-.527-.429-.559-.806-.035-.388-.084-.755-.487-.957-.247-.124-.382-.35-.251-.596.353-.668.06-1.24-.34-1.905Z" fill="#d9defb"/>
      </g>
      <path d="M25.165.892v46.141c0,.492-.399.892-.892.892h0c-.492,0-.891-.399-.891-.892V.892c0-.492.399-.892.891-.892h0c.492,0,.892.399.892.892Z" fill="#455a64"/>
      <path d="M8.439,4.341c0,.946-.761,1.707-1.701,1.707-.946,0-1.707-.762-1.707-1.707,0-.94.761-1.701,1.707-1.701.94,0,1.701.761,1.701,1.701Z" fill="#f45558"/>
      <path d="M6.575,18.212c0-.946-.761-1.707-1.701-1.707-.946,0-1.707.761-1.707,1.707,0,.94.761,1.701,1.707,1.701.94,0,1.701-.761,1.701-1.701Z" fill="#ffd54f"/>
      <path d="M3.408,10.556c0,.946-.761,1.707-1.701,1.707-.946,0-1.707-.761-1.707-1.707,0-.94.761-1.701,1.707-1.701.939,0,1.701.761,1.701,1.701Z" fill="#2196f3"/>
      <path d="M16.616,14.66c0,.946-.761,1.707-1.701,1.707-.946,0-1.707-.762-1.707-1.707,0-.94.761-1.701,1.707-1.701.94,0,1.701.761,1.701,1.701Z" fill="#5bb774"/>
      <path d="M8.439,35.904c0-.946-.761-1.707-1.701-1.707-.946,0-1.707.761-1.707,1.707,0,.94.761,1.701,1.707,1.701.94,0,1.701-.761,1.701-1.701Z" fill="#2196f3"/>
      <path d="M3.408,29.414c0-.946-.761-1.707-1.701-1.707-.946,0-1.707.762-1.707,1.707,0,.94.761,1.701,1.707,1.701.939,0,1.701-.761,1.701-1.701Z" fill="#5bb774"/>
      <path d="M16.616,25.128c0-.946-.761-1.707-1.701-1.707-.946,0-1.707.761-1.707,1.707,0,.94.761,1.701,1.707,1.701.94,0,1.701-.762,1.701-1.701Z" fill="#f45558"/>
      <path d="M10.968,43.131c0-.946-.761-1.707-1.701-1.707-.946,0-1.707.761-1.707,1.707,0,.94.761,1.701,1.707,1.701.94,0,1.701-.762,1.701-1.701Z" fill="#ffd54f"/>
    </g>
  </g>
</svg>