<?xml version="1.0" encoding="UTF-8"?>
<svg id="Layer_2" data-name="Layer 2" xmlns="http://www.w3.org/2000/svg" viewBox="0 0 48.001 48">
  <g id="Icons">
    <g id="_137" data-name="137">
      <path d="M48.001,2.02v4.145H.001V2.02C.001.904.906,0,2.021,0h43.96c1.116,0,2.02.904,2.02,2.02Z" fill="#455a64"/>
      <path d="M19.415,6.17H1.535l3.06-3.77c.27-.33.67-.52,1.09-.52h9.58c.42,0,.82.19,1.09.52l3.06,3.77Z" fill="#b3bcdd"/>
      <path d="M37.471,3.082c0,.66-.53,1.2-1.2,1.2-.66,0-1.2-.54-1.2-1.2s.54-1.2,1.2-1.2c.67,0,1.2.54,1.2,1.2Z" fill="#2196f3"/>
      <path d="M41.228,3.082c0,.66-.53,1.2-1.2,1.2-.66,0-1.2-.54-1.2-1.2s.54-1.2,1.2-1.2c.67,0,1.2.54,1.2,1.2Z" fill="#ffd54f"/>
      <path d="M44.985,3.082c0,.66-.53,1.2-1.2,1.2-.66,0-1.2-.54-1.2-1.2s.54-1.2,1.2-1.2c.67,0,1.2.54,1.2,1.2Z" fill="#f45558"/>
      <path d="M48,6.17v39.624c0,1.218-.988,2.206-2.206,2.206H2.206c-1.218,0-2.206-.988-2.206-2.206V6.17h48Z" fill="#d9defb"/>
      <rect y="6.17" width="48" height="5.721" fill="#c5cced"/>
      <rect x="9.987" y="7.669" width="36.513" height="2.722" fill="#455a64"/>
      <rect x="4.09" y="16.06" width="39.82" height="22.9" rx="1.256" ry="1.256" fill="#f45558"/>
      <rect x="4.09" y="41.07" width="39.695" height="1.5" fill="#c5cced"/>
      <rect x="4.09" y="41.07" width="13.145" height="1.5" fill="#f45558"/>
      <rect x="16.445" y="39.985" width="1.58" height="3.67" fill="#455a64"/>
      <path d="M28.432,28.671l-6.278,4.509c-.953.684-2.28.003-2.28-1.17v-9.001c0-1.172,1.325-1.853,2.278-1.171l6.278,4.493c.802.574.803,1.765.002,2.341Z" fill="#fff"/>
    </g>
  </g>
</svg>