<?xml version='1.0' encoding='utf-8'?>
<svg xmlns="http://www.w3.org/2000/svg" id="Layer_2" data-name="Layer 2" viewBox="0 0 179.824 97.476">
  <g id="Color" fill="#00ABF6">
    <path d="M102.36,38.957l7.385-8.525c.808-.933,2.239-1.746,3.446-1.746h8.524c.994,0,1.868.539,2.186,1.487h.001s.002.003.002.003l.005-.002c.302.906-.045,1.853-.69,2.598l-7.385,8.525c-.808.932-2.24,1.745-3.446,1.745h-8.525c-.994,0-1.867-.539-2.185-1.487h-.002s0-.003,0-.003l-.006.002c-.301-.908.045-1.854.691-2.599h0ZM128.125,8.773c.883-1.765.167-3.913-1.598-4.795-1.766-.883-3.913-.168-4.796,1.598l-3.061,6.124-3.223-.227c-.71-.089-1.454.033-2.134.395l.007.012-22.391,11.947c-11.934.891-24.977,2.542-38.7,5.319-9.383,1.898-19.05,4.318-28.854,7.376l126.451,12.765,5.363-30.857c.041-.181.069-.366.082-.556.14-1.977-1.351-3.693-3.328-3.832v.005l-25.554-1.802-1.853,3.708,3.589-7.179h0ZM120.217,38.957c-.646.745-.992,1.69-.691,2.599l.006-.002v.003s.003,0,.003,0c.318.948,1.191,1.487,2.186,1.487h8.524c1.207,0,2.639-.813,3.446-1.745l7.385-8.525c.647-.745.993-1.692.691-2.598l-.005.002-.002-.003h-.002c-.318-.948-1.191-1.487-2.186-1.487h-8.524c-1.207,0-2.639.813-3.447,1.746l-7.384,8.525Z" fill-rule="evenodd" />
    <path d="M118.015.01c-1.975-.147-3.694,1.334-3.842,3.309-.147,1.975,1.335,3.695,3.31,3.842l46.662,3.589c1.975.148,3.695-1.334,3.842-3.309.147-1.975-1.334-3.695-3.309-3.842L118.015.01Z" />
  </g>
  <g id="Grey" fill="#D3D3D3">
    <path d="M178.769,59.067v30.159c0,1.818-1.353,3.321-3.106,3.557-8.618,1.811-17.931,3.139-27.742,3.911-9.547.75-19.647.976-30.124.61-25.538-.893-48.307-2.203-68.016-9.302C29.904,80.843,13.384,67.944.746,44.021c-.222-.419-.464-.828-.598-1.286-.754-2.573,1.491-5.007,4.082-4.538l171.301,17.292c2.445.89,3.25,1.601,3.238,3.578h0ZM39.135,60.417l57.431,9.86,14.357-1.124-71.788-8.736Z" fill-rule="evenodd" />
    <path d="M179.824,48.676l-7.841-.026-3.589,7.179c-.883,1.766-.168,3.912,1.598,4.795,1.766.883,3.913.168,4.795-1.598l5.037-10.349Z" />
  </g>
</svg>