<?xml version='1.0' encoding='utf-8'?>
<svg xmlns="http://www.w3.org/2000/svg" id="Layer_2" data-name="Layer 2" viewBox="0 0 20.04 20.04">
  <g id="Layer_1-2" data-name="Layer 1">
    <path d="M20.04,10.02C20.04,4.509,15.531,0,10.02,0S0,4.509,0,10.02s4.509,10.02,10.02,10.02,10.02-4.509,10.02-10.02h0ZM16.533,9.519h2.63v1.127h-2.63v-1.127h0ZM9.394.877h1.127v2.63h-1.127V.877h0ZM3.507,10.646H.877v-1.127h2.63v1.127h0ZM8.893,9.519c-.125-.25-.125-.376-.25-.501,0-.25-.125-.376-.125-.501l-.125-.25v-.25c0-.125-.125-.251-.125-.251v-.376c-.125-.125-.125-.25-.125-.501,0-.125-.125-.376-.125-.501l.376.376c.125.125.251.25.376.376.125,0,.125.125.25.25l.125.125.25.25.125.125c.125.25.25.376.25.501.125.125.251.25.376.376,0,.125.125.125.125.125.25-.125.626-.25.877-.501.501-.25,1.127-.501,1.628-.752.25-.125.501-.125.877-.25l.376-.125c.125-.125.25-.125.501-.125.125-.125.25-.125.376-.125.125-.125.251-.125.501-.125.125-.125.25-.125.376-.125s.376-.125.501-.125l-.376.376c0,.125-.125.25-.25.376s-.25.125-.376.25-.25.251-.376.376c-.125,0-.25.125-.25.25l-.376.25c-.25.125-.501.376-.752.501-.501.376-1.002.626-1.503,1.002-.626.25-1.127.501-1.628.751l-.752.376-.376-.751c-.125-.25-.25-.626-.376-.877h0ZM9.394,16.533h1.127v2.63h-1.127v-2.63h0Z" fill="#282828" fill-rule="evenodd" />
  </g>
</svg>