<?xml version='1.0' encoding='utf-8'?>
<svg xmlns="http://www.w3.org/2000/svg" id="Layer_2" data-name="Layer 2" viewBox="0 0 19.92 10.08">
  <g id="Layer_1-2" data-name="Layer 1">
    <path d="M2.988,3.024v4.032h6.972V3.024H2.988ZM16.932,2.016v2.142h.996v2.016h-.996v1.89H1.992V2.016h14.94ZM1.494,0l-.249.126h-.373l-.249.126-.249.252-.124.252-.125.252-.125.252v7.686l.125.252.125.252.124.252.249.126.249.252h17.181l.249-.252.125-.126.249-.252.125-.252.125-.252v-.882h.498l.249-.126.249-.252V2.52l-.249-.252-.249-.126-.125-.126h-.373v-.756l-.125-.252-.125-.252-.249-.252-.125-.252-.249-.126h-.373l-.249-.126H1.494Z" fill="#282828" fill-rule="evenodd" />
  </g>
</svg>