<?xml version='1.0' encoding='utf-8'?>
<svg xmlns="http://www.w3.org/2000/svg" id="Layer_2" data-name="Layer 2" viewBox="0 0 20.04 13.8">
  <g id="Layer_1-2" data-name="Layer 1">
    <path d="M16.408,5.896c-.376,0-.501,0-.877.251L13.527.753h2.505c.251,0,.376-.125.376-.376s-.125-.376-.376-.376h-3.257c-.25.125-.25.376-.25.627l.626,1.38h-5.135l-.25-.627h.751c.251,0,.376-.125.376-.376s-.125-.376-.376-.376h-2.881c-.125,0-.376.125-.376.376s.251.376.376.376h1.127l.376,1.255-1.879,3.764c-.626-.251-1.002-.502-1.503-.502-2.004,0-3.757,1.882-3.757,4.014,0,2.007,1.754,3.889,3.757,3.889,1.879,0,3.382-1.506,3.632-3.513h.752c.251.627.626,1.004,1.378,1.004s1.378-.627,1.378-1.38c0-.502-.251-.878-.376-1.129l3.006-5.52,1.127,3.136c-1.127.627-1.879,2.007-1.879,3.513,0,2.007,1.503,3.889,3.632,3.889,2.004,0,3.632-1.882,3.632-3.889,0-2.133-1.628-4.014-3.632-4.014h0ZM7.515,3.889l1.378,4.516c-.376.251-.751.627-.751,1.004h-.752c-.25-1.004-.626-2.007-1.378-2.635l1.503-2.885h0ZM6.638,9.409h-2.129l1.002-1.882c.501.502.877,1.129,1.127,1.882h0ZM3.757,12.922c-1.628,0-2.756-1.38-2.756-3.011,0-1.756,1.127-3.136,2.756-3.136.376,0,.752.251,1.127.251l-1.503,2.635v.376q.125.251.376.251h2.881c-.251,1.38-1.628,2.635-2.881,2.635h0ZM9.519,10.413c-.376,0-.626-.125-.626-.502,0-.502.251-.627.626-.627h0c.125,0,.376.125.376.627,0,.376-.251.502-.376.502h0ZM9.644,8.406l-1.503-5.395h4.634l-3.131,5.395h0ZM16.408,12.922c-1.503,0-2.881-1.38-2.881-3.011,0-1.129.626-2.133,1.503-2.76l1.002,2.885c0,.251.251.251.376.251h.251c.125,0,.125-.376.125-.627l-.877-2.635c.125,0,.376-.251.501-.251,1.628,0,2.881,1.38,2.881,3.136,0,1.631-1.252,3.011-2.881,3.011h0Z" fill="#282828" fill-rule="evenodd" />
  </g>
</svg>