<?xml version='1.0' encoding='utf-8'?>
<svg xmlns="http://www.w3.org/2000/svg" id="Layer_2" data-name="Layer 2" viewBox="0 0 19.977 19.977">
  <g id="Layer_1-2" data-name="Layer 1">
    <path d="M19.79,8.329q0-.25-.251-.25h-1.628c-.251-.877-.501-1.628-1.127-2.129l1.378-1.378c.25,0,.25-.25,0-.25-.501-1.127-1.378-2.004-2.38-2.505h-.376l-1.252,1.378c-.626-.626-1.378-.877-2.255-.877V.438q0-.25-.25-.25c-1.127-.25-2.129-.25-3.257,0h-.25c-.877-.25-1.879-.25-2.756.25-.751.501-1.378,1.628-1.378,2.505h-.251c0,.25-.25.25-.25.25h-.25q-.25,0-.25.25h-.376l-.25.25h0c-.251,0-.251.25-.251.25h0l-.25.376h0v.25h-.25v.25h0v.25h0l-.25.25h0v.25h0v.376c0,.501,0,.751.25,1.252h-.25c0,.376-.376.376-.376.376h0c0,.251-.25.251-.25.251h0q0,.25-.25.25h0c0,.25-.251.501-.251.751v.376H.25l-.25.25v.25h0v.25c0,1.127.501,1.879,1.002,2.505,0,.25-.25.501-.25.752h0v.501h0v.376c0,1.628.877,2.881,2.505,3.256h0v.25h0v.25c.25.25.501.501.501.752h0c.251,0,.251.376.251.376h0c.25,0,.25.25.25.25h.376v.25h.501v.25h.501l.251.25h.877c.501,0,.751,0,1.378-.25h.25c1.127.25,2.129.25,3.257,0q.25,0,.25-.25v-1.628c.877-.25,1.628-.501,2.255-1.127l1.252,1.378c0,.251.376.251.376,0,1.002-.501,1.879-1.378,2.38-2.38.25,0,.25-.376,0-.376l-1.378-1.252c.626-.626.877-1.378,1.127-2.255h1.628q.251,0,.251-.25c.25-1.127.25-2.129,0-3.256h0ZM6.764,19.226h-1.378v-.25h-.25c-.25-.376-.501-.376-.501-.626h0s-.376,0-.376-.251h0v-.25h-.25v-.25h0l-.251-.25h0v-.376h0c-.25-.751,0-1.879.501-2.38v-.501h-.501c-.501.751-.751,1.628-.751,2.129v.25c-.877-.25-1.628-1.378-1.628-2.38v-.376h0c.25-.501.25-.752.501-1.002h0c.25-.626.752-.877,1.378-.877,0-.25.25-.25,0-.501q0-.25-.25-.25c-.626.25-1.127.501-1.378.751-.626-.501-.877-1.002-.877-1.879v-.501h0v-.626h.25v-.25h0s0-.25.376-.25v-.25h.25q0-.25.25-.25h0s.25,0,.25-.251c.251,0,.877-.376,1.127-.376s.501,0,.501-.25-.25-.25-.501-.25-.626,0-1.127.25v-1.002c0-1.127.501-2.004,1.628-2.254,1.127-.25,2.129.25,2.756,1.127,0,0,0,.25.25.25l.25-.25v-.25c-.501-.877-1.378-1.378-2.38-1.628.25-1.378,1.252-2.255,2.63-2.255s2.505,1.127,2.505,2.505v1.879l-1.378,2.129-1.378-.501h0c0-.501-.25-1.127-.751-1.127-.626,0-1.127.376-1.127.626-.25.501,0,1.002.25,1.378.501.251,1.127.251,1.378-.376l1.378.626h.25s.25,0,.501-.251l.877-1.127v2.38h-2.756c-.25-.25-.751-.501-1.127-.501-.501,0-.752.501-.752,1.127,0,.25.25.751.752.751.376.25.877,0,1.127-.501h2.756v1.378h-.877c0-.626-.501-.877-1.002-.877-.626.25-.877.626-.877,1.127s.25.751.877,1.127c.501,0,1.002-.376,1.002-.877h.877v1.378h-2.756c-.25,0-.501.251-.751.501v1.127c-.626.25-.877.751-.877,1.127,0,.501.501,1.002.877,1.002.501,0,1.002-.25,1.002-.751.25-.626,0-1.127-.501-1.127l.25-1.127h2.756v2.505c0,1.879-1.378,3.006-3.006,3.006h0ZM6.513,6.701s-.25.25-.626.25l-.251-.25c0-.25.251-.25.251-.25.376,0,.626,0,.626.25h0ZM6.513,9.456s-.25.25-.626.25l-.251-.25c0-.25.251-.626.251-.626.376,0,.626.376.626.626h0ZM8.392,11.335c0,.25-.25.25-.25.25-.25,0-.626,0-.626-.25s.376-.25.626-.25c0,0,.25,0,.25.25h0ZM6.764,15.719c0,.25-.25.25-.25.25-.25,0-.626,0-.626-.25,0-.376.376-.376.626-.376,0,0,.25,0,.25.376h0ZM19.288,11.335h-1.628q-.25,0-.626.25c0,.877-.25,1.628-.752,2.505v.25l1.378,1.378c-.626.501-1.378,1.252-1.879,1.879l-1.378-1.378h-.25c-.877.501-1.628.751-2.505.751q-.25.376-.25.626v1.628c-.877.25-1.628.25-2.505,0,.877-.626,1.378-1.628,1.378-3.006v-1.628c2.505,0,4.384-2.129,4.384-4.634,0-2.38-1.879-4.384-4.384-4.634v-2.129c0-1.127-.25-1.879-1.127-2.505h2.255v1.628c0,.251,0,.626.25.626.877,0,1.628.501,2.505.751,0,.25.25.25.25,0l1.378-1.127c.501.376,1.253,1.127,1.879,1.753l-1.378,1.252v.626c.501.501.752,1.378.752,2.129q.376.25.626.25h1.628c.25.877.25,1.879,0,2.755h0ZM12.525,9.957c0-1.127-.877-2.129-2.255-2.129v-1.879c2.255.25,3.883,1.879,3.883,4.008s-1.628,3.758-3.883,4.133v-1.628c1.378-.376,2.255-1.378,2.255-2.505h0ZM10.271,11.586v-3.256c.877.25,1.378.877,1.378,1.628,0,.877-.501,1.628-1.378,1.628h0Z" fill="#282828" fill-rule="evenodd" />
  </g>
</svg>