<?xml version='1.0' encoding='utf-8'?>
<svg xmlns="http://www.w3.org/2000/svg" id="Layer_2" data-name="Layer 2" viewBox="0 0 19.44 19.947">
  <g id="Layer_1-2" data-name="Layer 1">
    <path d="M17.433,9.118H1.881c-1.129,0-1.881.996-1.881,2.116v6.473c0,1.12.753,2.24,1.881,2.24h15.552c1.129,0,2.007-1.12,2.007-2.24v-6.473c0-1.12-.878-2.116-2.007-2.116h0ZM18.311,17.706c0,.622-.502.871-.878.871H1.881c-.502,0-.753-.249-.753-.871v-6.473c0-.498.251-.747.753-.747h15.552c.376,0,.878.249.878.747v6.473h0ZM8.529,5.632c.251.249.753.498,1.003.498.502,0,1.129-.249,1.38-.498.251-.374.502-.871.502-1.369,0-.249-.251-.747-.502-1.12-.878-.747-1.881-.747-2.383,0-.627.373-.627.871-.627,1.12,0,.498,0,.996.627,1.369h0ZM9.281,4.014c0-.249.251-.249.251-.249.251,0,.502,0,.502.249.376,0,.376.249.376.249,0,.249,0,.498-.376.498-.251.249-.502.249-.753,0-.251,0-.251-.249-.251-.498,0,0,0-.249.251-.249h0ZM11.664,6.877h.878c.878-.747,1.129-1.618,1.129-2.614,0-.871-.251-1.991-1.129-2.489-.251-.249-.502-.249-.878,0-.251.249-.251.498,0,.747.627.622.878,1.12.878,1.742,0,.747-.251,1.245-.878,1.867-.251.249-.251.498,0,.747h0ZM6.647,6.877h.753c.376-.249.376-.498,0-.747-.251-.622-.502-1.12-.502-1.867,0-.622.251-1.12.502-1.742.376-.249.376-.498,0-.747,0-.249-.502-.249-.753,0-.627.498-1.254,1.618-1.254,2.489,0,.996.627,1.867,1.254,2.614h0ZM4.891,16.337h-1.254v-4.232c0-.249-.251-.622-.878-.622-.251,0-.502.373-.502.622v4.854c0,.249.251.498.502.498h2.132c.627,0,.878-.249.878-.498s-.251-.622-.878-.622h0ZM6.898,11.483c-.376,0-.627.373-.627.622v4.854c0,.249.251.498.627.498.251,0,.502-.249.502-.498v-4.854c0-.249-.251-.622-.502-.622h0ZM12.04,11.483c-.251,0-.502,0-.878.622l-.753,2.739-.878-2.739c-.251-.622-.502-.622-.753-.622s-.502.622-.251.871l1.38,4.854c.251.249,1.003.623,1.003,0l1.38-4.854c.251-.249,0-.871-.251-.871h0ZM16.305,12.603c.376,0,.627-.249.627-.498s-.251-.622-.627-.622h-2.634c-.251,0-.627.373-.627.622v4.854c0,.249.376.498.627.498h2.634c.376,0,.627-.249.627-.498s-.251-.622-.627-.622h-1.881v-1.618h1.63c.251,0,.627-.249.627-.498s-.376-.498-.627-.498h-1.63v-1.12h1.881ZM14.549,4.263c0,1.369-.251,2.739-1.38,3.485-.251.249-.251.622,0,.871q.251.249.502.249s.251,0,.251-.249c1.129-1.12,2.007-2.739,2.007-4.357s-.878-2.987-2.007-3.983c-.251-.374-.502-.374-.753,0-.251,0-.251.498,0,.747,1.129.871,1.38,2.116,1.38,3.236h0ZM5.518,8.62q0,.249.251.249t.502-.249v-.871c-1.003-.747-1.505-2.116-1.505-3.485,0-1.12.502-2.365,1.505-3.236V.28c-.251-.374-.753-.374-.753,0-1.254.996-1.881,2.365-1.881,3.983s.627,3.236,1.881,4.357h0Z" fill="#282828" fill-rule="evenodd" />
  </g>
</svg>