<?xml version='1.0' encoding='utf-8'?>
<svg xmlns="http://www.w3.org/2000/svg" id="Layer_2" data-name="Layer 2" viewBox="0 0 20.022 9.36">
  <g id="Layer_1-2" data-name="Layer 1">
    <path d="M4.684,6.365c-.625,0-1.375.624-1.375,1.498s.75,1.498,1.375,1.498c.875,0,1.5-.624,1.5-1.498s-.625-1.498-1.5-1.498h0ZM4.684,8.736c-.375,0-.625-.375-.625-.874,0-.374.25-.624.625-.624s.875.25.875.624c0,.499-.5.874-.875.874h0ZM16.937,6.365c-.75,0-1.375.624-1.375,1.498s.625,1.498,1.375,1.498c.875,0,1.5-.624,1.5-1.498s-.625-1.498-1.5-1.498h0ZM16.937,8.736c-.375,0-.625-.375-.625-.874,0-.374.25-.874.625-.874.5,0,.875.499.875.874,0,.499-.375.874-.875.874h0ZM19.813,4.618V1.123c0-.25,0-.624-.25-.874-.125-.25-.5-.25-.75-.25H5.309c-.875,0-1.875.624-3.126,2.246-.75.999-1.25,1.498-1.625,1.872-1,1.747-.625,3.744.875,3.744h1.625c0-1.123.75-1.747,1.625-1.747,1,0,1.625.624,1.625,1.747h9.002c0-1.123.875-1.747,1.625-1.747,1,0,1.625.624,1.625,1.747,1.875-.25,1.5-2.621,1.25-3.245h0ZM4.434,4.867h-.625v-.25h.875q0,.25-.25.25h0ZM4.934,3.744H1.809c.875-1.123,2-2.621,3.126-2.87v2.87h0ZM7.685,3.744h-2.251V.624h2.251v3.12h0ZM10.561,3.744h-2.251V.624h2.251v3.12h0ZM13.436,3.744h-2.376V.624h2.376v3.12h0ZM16.187,3.744h-2.251V.624h2.251v3.12h0ZM19.188,1.123v2.621h-2.376V.624h2.376v.499h0Z" fill="#282828" fill-rule="evenodd" />
  </g>
</svg>