<?xml version='1.0' encoding='utf-8'?>
<svg xmlns="http://www.w3.org/2000/svg" id="Layer_2" data-name="Layer 2" viewBox="0 0 17.04 19.92">
  <g id="Layer_1-2" data-name="Layer 1">
    <path d="M16.546,3.486c-.123-.374-.494-.623-.741-.623h-1.482v-.996c0-.498-.123-.871-.494-1.369-.247-.249-.617-.498-1.111-.498h-.617c-.494,0-.864.249-1.235.498-.37.498-.494.871-.494,1.369v.996h-3.951v-.996c0-.498-.124-.871-.494-1.369-.247-.249-.617-.498-1.111-.498h-.617c-.494,0-.741.249-1.111.498-.247.498-.494.871-.494,1.369v.996h-1.358c-.37,0-.617.249-.988.623-.123.125-.247.498-.247.747v14.193c0,.498.123.623.247.996.37.373.617.498.988.498h14.57c.247,0,.617-.125.741-.498.37-.374.494-.498.494-.996V4.233c0-.249-.123-.622-.494-.747h0ZM4.198,18.426H1.235v-3.113h2.963v3.113h0ZM4.198,14.442H1.235v-3.361h2.963v3.361h0ZM4.198,10.458H1.235v-3.237h2.963v3.237h0ZM4.075,5.354c-.123,0-.123-.249-.123-.374V1.867q0-.125.123-.249h1.111v3.735c-.123,0-.123.125-.37.125h-.617c-.123,0-.123-.125-.123-.125h0ZM8.15,18.426h-3.334v-3.113h3.334v3.113h0ZM8.15,14.442h-3.334v-3.361h3.334v3.361h0ZM8.15,10.458h-3.334v-3.237h3.334v3.237h0ZM12.101,18.426h-3.334v-3.113h3.334v3.113h0ZM12.101,14.442h-3.334v-3.361h3.334v3.361h0ZM12.101,10.458h-3.334v-3.237h3.334v3.237h0ZM11.854,5.354V1.618h1.111q.123.125.123.249v3.113c0,.125,0,.374-.123.374l-.247.125h-.617c-.123,0-.123-.125-.247-.125h0ZM15.805,18.426h-3.087v-3.113h3.087v3.113h0ZM15.805,14.442h-3.087v-3.361h3.087v3.361h0ZM15.805,10.458h-3.087v-3.237h3.087v3.237h0Z" fill="#282828" fill-rule="evenodd" />
  </g>
</svg>