<?xml version='1.0' encoding='utf-8'?>
<svg xmlns="http://www.w3.org/2000/svg" id="Layer_2" data-name="Layer 2" viewBox="0 0 17.4 20.04">
  <g id="Layer_1-2" data-name="Layer 1">
    <path d="M17.275,4.133c0-2.129-1.627-4.133-3.881-4.133H3.881C1.627,0,0,2.004,0,4.133v11.022c0,2.755,2.128,4.885,4.632,4.885h8.012c2.629,0,4.757-2.129,4.757-4.885l-.125-11.022h0ZM13.269,2.63c.626,0,1.127.626,1.127,1.378,0,.626-.501,1.252-1.127,1.252-.751,0-1.377-.626-1.377-1.252,0-.751.626-1.378,1.377-1.378h0ZM4.131,2.63c.626,0,1.127.626,1.127,1.378,0,.626-.501,1.252-1.127,1.252-.751,0-1.377-.626-1.377-1.252,0-.751.626-1.378,1.377-1.378h0ZM15.773,15.155c0,1.753-1.377,3.382-3.129,3.382H4.632c-1.627,0-3.129-1.628-3.129-3.382V6.889h14.271v8.267h0ZM8.637,14.529h-2.378l.626-.626c.876-.877,1.627-1.754,1.627-3.006s-.751-2.254-2.253-2.254c-.876,0-1.627.376-2.253.877l.501,1.127c.376-.25.876-.501,1.502-.501s1.001.501,1.001.877c0,.877-.751,1.628-2.128,3.006l-.876.877v.877h4.632v-1.252h0ZM13.645,13.402c0-.752-.376-1.253-.751-1.754-.501-.376-1.252-.501-1.753-.501h-.501l.125-.877h2.504v-1.503h-3.505l-.501,3.632h1.001c1.252,0,1.878.501,1.878,1.127,0,.751-.751,1.127-1.377,1.127-.501,0-1.127-.125-1.502-.376l-.25,1.127c.25.376,1.001.501,1.753.501,1.753,0,2.879-1.127,2.879-2.505h0Z" fill="#282828" fill-rule="evenodd" />
  </g>
</svg>