<?xml version='1.0' encoding='utf-8'?>
<svg xmlns="http://www.w3.org/2000/svg" id="Layer_2" data-name="Layer 2" viewBox="0 0 19.92 14.64">
  <g id="Layer_1-2" data-name="Layer 1">
    <path d="M13.073,7.883c0,1.877-1.37,3.378-3.113,3.378s-3.112-1.501-3.112-3.378c0-1.752,1.37-3.253,3.112-3.253s3.113,1.502,3.113,3.253h0ZM19.92,2.628v10.636c0,.751-.623,1.376-1.245,1.376H1.245c-.747,0-1.245-.625-1.245-1.376V2.628c0-.751.498-1.251,1.245-1.251h1.245c0-.751.622-1.376,1.37-1.376h1.121c.747,0,1.245.626,1.245,1.376h12.45c.622,0,1.245.5,1.245,1.251h0ZM14.318,7.883c0-2.502-1.867-4.505-4.358-4.505s-4.357,2.002-4.357,4.505c0,2.628,1.867,4.63,4.357,4.63s4.358-2.002,4.358-4.63h0ZM17.306,2.628h-2.49v1.376h2.49v-1.376h0Z" fill="#282828" fill-rule="evenodd" />
  </g>
</svg>