<?xml version='1.0' encoding='utf-8'?>
<svg xmlns="http://www.w3.org/2000/svg" id="Layer_2" data-name="Layer 2" viewBox="0 0 18.158 20.078">
  <g id="Layer_1-2" data-name="Layer 1">
    <path d="M16.487,3.505l-3.497-.876v1.502l3.122,1.001c.375,0,.624.375.5.876l-2.998,11.893c-.125.376-.375.626-.874.501l-2.373-.626h-5.495c.125.125.375.125.5.125l6.869,2.128c1.249.25,2.373-.501,2.873-1.752l2.998-11.893c.25-1.252-.5-2.504-1.624-2.879h0ZM9.367,2.378h-.5l-.749,2.253h.5l.25-.501h.5l.125.501h.624l-.749-2.253h0ZM9.242,3.63h-.375l.125-.25.125-.501.125.501v.25h0ZM6.12,4.757s-3.122,2.378-3.122,4.006c0,1.127.624,1.753,1.749,1.753.375,0,.874-.25,1.124-.626,0,0-.125,1.252-.749,2.378,0,.125,2.123.125,2.123,0-.5-.876-.749-2.378-.749-2.378.25.375.749.626,1.249.626.874,0,1.624-.626,1.624-1.753,0-1.627-3.247-4.006-3.247-4.006h0ZM3.622,12.393v.501h-.624l-.25-.501h-.375l.625,2.253c0,.125.125.125.125.125h.375v-.125h.125l.624-2.253h-.624ZM3.372,13.645l-.125.501v-.501l-.125-.25h.375l-.125.25h0ZM12.365,14.772V2.378c0-1.252-1.124-2.378-2.248-2.378H2.248C.999,0,0,1.127,0,2.378v12.394c0,1.252.999,2.253,2.248,2.253h7.869c1.124,0,2.248-1.001,2.248-2.253h0ZM1.499,14.772V2.378c0-.501.25-.751.749-.751h7.869c.5,0,.749.25.749.751v12.394c0,.375-.25.751-.749.751H2.248c-.5,0-.749-.375-.749-.751h0ZM14.613,5.383h-.125l-1.124,1.878v.125l.375.125.25-.125.125-.25.5.125v.375l.25.25h.375l-.125-2.128v-.25l-.5-.125h0ZM14.613,6.51v.25h-.25l.125-.501.125-.25v.501h0Z" fill="#282828" fill-rule="evenodd" />
  </g>
</svg>