<?xml version='1.0' encoding='utf-8'?>
<svg xmlns="http://www.w3.org/2000/svg" id="Layer_2" data-name="Layer 2" viewBox="0 0 20.04 14.4">
  <g id="Layer_1-2" data-name="Layer 1">
    <path d="M2.756,11.52h-1.378c-.751,0-1.378.626-1.378,1.377s.626,1.502,1.378,1.502h1.378c.877,0,1.503-.751,1.503-1.502s-.626-1.377-1.503-1.377h0ZM2.756,5.76h-1.378c-.751,0-1.378.626-1.378,1.377,0,.876.626,1.502,1.378,1.502h1.378c.877,0,1.503-.626,1.503-1.502,0-.751-.626-1.377-1.503-1.377h0ZM2.756,0h-1.378C.626,0,0,.626,0,1.503c0,.751.626,1.377,1.378,1.377h1.378c.877,0,1.503-.626,1.503-1.377,0-.877-.626-1.503-1.503-1.503h0ZM8.517,2.88h10.02c.751,0,1.503-.626,1.503-1.377,0-.877-.752-1.503-1.503-1.503h-10.02c-.751,0-1.378.626-1.378,1.503,0,.751.626,1.377,1.378,1.377h0ZM18.537,5.76h-10.02c-.751,0-1.378.626-1.378,1.377,0,.876.626,1.502,1.378,1.502h10.02c.751,0,1.503-.626,1.503-1.502,0-.751-.752-1.377-1.503-1.377h0ZM18.537,11.52h-10.02c-.751,0-1.378.626-1.378,1.377s.626,1.502,1.378,1.502h10.02c.751,0,1.503-.751,1.503-1.502s-.752-1.377-1.503-1.377h0Z" fill="#282828" fill-rule="evenodd" />
  </g>
</svg>