<?xml version='1.0' encoding='utf-8'?>
<svg xmlns="http://www.w3.org/2000/svg" id="Layer_2" data-name="Layer 2" viewBox="0 0 20.04 16.08">
  <g id="Layer_1-2" data-name="Layer 1">
    <path d="M.877,15.332c.626.623,1.253.748,2.004.748h13.903c.751,0,1.378-.125,2.004-.748.376-.499.752-1.371.752-2.244H0c0,.873.376,1.745.877,2.244h0ZM5.26,11.842h7.766c.626,0,1.002-.374,1.628-.873.501-.499.626-1.122.626-1.745v-.374h.752c1.127,0,2.004-.499,2.881-1.371.877-.748,1.127-1.87,1.127-3.116,0-1.122-.251-2.244-1.127-3.116-.877-.748-1.754-1.247-2.881-1.247H3.507c-.125,0-.25.125-.376.249-.25,0-.25.249-.25.499v8.476c0,.623.25,1.247.626,1.745.626.499,1.127.873,1.754.873h0ZM15.281,2.244h.752c.501,0,1.002.125,1.378.499.501.499.626.997.626,1.62,0,.748-.125,1.247-.626,1.496-.376.499-.877.623-1.378.623h-.752V2.244h0Z" fill="#282828" fill-rule="evenodd" />
  </g>
</svg>