<?xml version='1.0' encoding='utf-8'?>
<svg xmlns="http://www.w3.org/2000/svg" id="Layer_2" data-name="Layer 2" viewBox="0 0 20.04 16.08">
  <g id="Layer_1-2" data-name="Layer 1">
    <path d="M18.161,0H1.879C.877,0,0,.873,0,1.994v11.842c0,1.247.877,2.244,1.879,2.244h16.283c1.002,0,1.879-.997,1.879-2.244V1.994c0-1.122-.877-1.994-1.879-1.994h0ZM1.879,1.371h16.283c.376,0,.501.249.501.623v1.87H1.127v-1.87c0-.374.376-.623.751-.623h0ZM18.161,14.584H1.879c-.376,0-.751-.374-.751-.748v-5.858h17.535v5.858c0,.374-.125.748-.501.748h0ZM2.38,10.72h1.253v2.618h-1.253v-2.618h0ZM4.885,10.72h1.378v2.618h-1.378v-2.618h0ZM7.39,10.72h1.378v2.618h-1.378v-2.618h0Z" fill="#282828" fill-rule="evenodd" />
  </g>
</svg>