<?xml version='1.0' encoding='utf-8'?>
<svg xmlns="http://www.w3.org/2000/svg" id="Layer_2" data-name="Layer 2" viewBox="0 0 19.48 20.04">
  <g id="Layer_1-2" data-name="Layer 1">
    <path d="M19.435,8.141c-3.115,7.139-4.236,7.139-4.734,7.139h-5.98c-2.243,0-3.738-1.378-4.236-3.507,0,0-1.121-6.137-1.495-8.016,0-.751-.498-1.503-1.869-1.503-.623,0-1.121-.376-1.121-1.127S.498,0,1.121,0c2.243,0,3.862,1.127,3.987,3.507.498,1.628,1.62,7.765,1.62,7.765.249,1.378,1.37,1.378,1.993,1.378h5.606c.623-.626,1.993-3.256,3.115-5.636.125-.501.872-.751,1.495-.501.498.25.623,1.002.498,1.628h0ZM7.849,16.032c-.872,0-1.744.877-1.744,1.879,0,1.127.872,2.129,1.744,2.129,1.121,0,1.993-1.002,1.993-2.129,0-1.002-.872-1.879-1.993-1.879h0ZM14.701,16.032c-1.121,0-1.993.877-1.993,1.879,0,1.127.872,2.129,1.993,2.129.872,0,1.744-1.002,1.744-2.129,0-1.002-.872-1.879-1.744-1.879h0ZM10.964,9.394q.249.25.374.25l.249-.25s1.993-2.129,3.115-3.758c.249-.25.249-.501,0-.501,0-.25-.249-.25-.249-.25h-1.744s-.249-3.507-.249-3.758c-.125-.25-.872-.25-1.121-.25-.374,0-1.121,0-1.246.25-.249.25-.249,3.758-.249,3.758h-1.744s-.249,0-.249.25c-.249,0-.249.25,0,.501,1.121,1.628,3.115,3.758,3.115,3.758h0Z" fill="#282828" fill-rule="evenodd" />
  </g>
</svg>