<?xml version='1.0' encoding='utf-8'?>
<svg xmlns="http://www.w3.org/2000/svg" id="Layer_2" data-name="Layer 2" viewBox="0 0 19.92 12.48">
  <g id="Layer_1-2" data-name="Layer 1">
    <path d="M16.185,4.992c0-2.746-2.241-4.992-4.98-4.992-1.867,0-3.486,1.123-4.357,2.621-.249-.125-.374-.125-.622-.125-1.743,0-3.113,1.123-3.611,2.746-1.494.374-2.615,1.872-2.615,3.494,0,2.122,1.618,3.744,3.735,3.744h12.45c1.992,0,3.735-1.622,3.735-3.744,0-1.997-1.743-3.744-3.735-3.744h0ZM9.96,11.232l-3.735-4.992h2.49v-3.744h2.49v3.744h2.49l-3.735,4.992h0Z" fill="#282828" fill-rule="evenodd" />
  </g>
</svg>