<?xml version='1.0' encoding='utf-8'?>
<svg xmlns="http://www.w3.org/2000/svg" id="Layer_2" data-name="Layer 2" viewBox="0 0 12.84 20.04">
  <g id="Layer_1-2" data-name="Layer 1">
    <path d="M8.976,16.282H3.74c-.499,0-.873.376-.873.877,0,.376.374.751.873.751h5.236c.499,0,.873-.376.873-.751,0-.501-.374-.877-.873-.877h0ZM8.976,18.662H3.74c-.499,0-.873.376-.873.751s.374.626.873.626h5.236c.499,0,.873-.25.873-.626s-.374-.751-.873-.751h0ZM6.482,0C2.867,0,0,3.131,0,7.014c0,1.879.623,2.881,1.122,3.883.374,1.002.873,1.753.997,3.131,0,.877.748,1.628,1.621,1.628h5.485c.623,0,.997-.25,1.371-.877.125-.25.125-.626.125-.877.249-1.378.623-2.255.997-2.881.499-1.127,1.122-2.129,1.122-4.008,0-3.883-2.867-7.014-6.358-7.014h0ZM9.848,13.778c0,.125,0,.376-.125.501-.125.125-.249.25-.499.25H3.74c-.374,0-.623-.25-.623-.501-.374-3.507-2.119-4.008-2.119-7.014C.997,3.758,3.366,1.002,6.482,1.002c2.992,0,5.485,2.756,5.485,6.012,0,3.006-1.745,3.507-2.119,6.764h0ZM8.103,5.135c.374-.626.499-1.252.499-2.129q0-.25-.125,0c-.249.626-.748,1.002-1.247,1.378-.748.626-1.496,1.252-2.244,2.004-.748,1.002-.873,2.255-.499,3.507,0,.25.125.25.249,0,.249-.626.499-1.252,1.122-1.753.748-.877,1.621-1.754,2.244-3.006h0ZM8.726,5.01c-.499,1.378-1.621,2.38-2.493,3.382-.499.626-.748,1.252-.997,2.129-.249.751-.374,1.628-.249,2.505,0,.376.499.251.499-.125-.125-.626-.125-1.503.125-2.004.499-.501,1.247-.751,1.87-1.378.873-.626,1.496-1.628,1.496-2.881.125-.501.125-1.002,0-1.628q-.125-.25-.249,0h0Z" fill="#282828" fill-rule="evenodd" />
  </g>
</svg>