<?xml version='1.0' encoding='utf-8'?>
<svg xmlns="http://www.w3.org/2000/svg" id="Layer_2" data-name="Layer 2" viewBox="0 0 20.04 18.84">
  <g id="Layer_1-2" data-name="Layer 1">
    <path d="M12.525,2.495v1.248h-5.01v-1.248h5.01ZM11.022,7.486h.125v.125l.125.125v2.246h2.254l.125.125h0l.125.125v2.121l-.125.125h-2.38v2.371h-.125v.125h-2.129l-.125-.125h-.125v-2.371h-2.38v-.125l-.125-.125v-1.872l.125-.125v-.125h.125l.125-.125h2.129v-2.246l.125-.125.125-.125h2.004ZM6.889,0l-.376.125h-.25l-.376.25-.251.25-.25.25-.125.25-.125.375-.125.374v1.872H1.503l-.376.125-.25.25-.376.125-.125.374-.25.25-.125.374v12.103l.125.25.25.374.125.25.376.25.25.125.376.125.376.125h16.283l.376-.125.376-.125.376-.125.25-.25.25-.25.125-.374.125-.25V5.24l-.125-.374-.125-.25-.25-.374-.25-.125-.376-.25-.376-.125h-3.382v-1.872l-.125-.374-.125-.375-.125-.25-.25-.25-.25-.25-.376-.25h-.376l-.376-.125h-6.263Z" fill="#282828" fill-rule="evenodd" />
  </g>
</svg>