<?xml version='1.0' encoding='utf-8'?>
<svg xmlns="http://www.w3.org/2000/svg" id="Layer_2" data-name="Layer 2" viewBox="0 0 15 19.92">
  <g id="Layer_1-2" data-name="Layer 1">
    <path d="M8.25,16.932v-5.229c-.25.125-.5.125-.75.125s-.5,0-.75-.125v5.229h1.5ZM14,0l-3.25,1.867-3.25-1.867-3.25,1.867L1,0C.375,1.121,0,2.365,0,3.735c0,3.859,2.875,7.096,6.75,7.47.25,0,.5.125.75.125s.5-.125.75-.125c3.875-.374,6.75-3.611,6.75-7.47,0-1.37-.375-2.615-1-3.735h0ZM6.125,14.94c.125-.747-.125-1.618-.625-2.241-.625-.498-1.5-.747-2.25-.623-.125.747.125,1.619.75,2.117.5.622,1.375.871,2.125.747h0ZM11,14.193c.625-.498.875-1.37.75-2.117-.75-.125-1.625.125-2.25.623-.5.623-.75,1.494-.625,2.241.75.125,1.625-.125,2.125-.747h0ZM8.25,17.43h-1.5c-2.125.249-3.625,1.245-3.625,2.49h8.75c0-1.245-1.5-2.241-3.625-2.49h0Z" fill="#282828" fill-rule="evenodd" />
  </g>
</svg>