<?xml version='1.0' encoding='utf-8'?>
<svg xmlns="http://www.w3.org/2000/svg" id="Layer_2" data-name="Layer 2" viewBox="0 0 20.081 15.96">
  <g id="Layer_1-2" data-name="Layer 1">
    <path d="M20.081,15.212V2.369c0-.374-.376-.748-.751-.748h-9.139c-.25,0-.501-.499-.501-.748v-.125c0-.374-.376-.748-.751-.748h-4.882c-.376,0-.751.374-.751.748v.125c0,.249-.25.748-.501.748h0c-.376,0-.751.374-.751.748v3.74H.552s-.751-.125-.501.748l1.627,8.354c0,.499.376.748.751.748h17.276c.376,0,.376-.748.376-.748h0ZM19.204,7.107v8.479l-1.753-9.102c-.125-.374-.626-.374-.626-.374H2.93v-2.868h16.274v3.865h0Z" fill="#282828" fill-rule="evenodd" />
  </g>
</svg>