<?xml version='1.0' encoding='utf-8'?>
<svg xmlns="http://www.w3.org/2000/svg" id="Layer_2" data-name="Layer 2" viewBox="0 0 20.04 19.2">
  <g id="Layer_1-2" data-name="Layer 1">
    <path d="M20.04,5.735l-2.881-5.112c-.376-.374-.376-.623-.626-.623H4.008L.25,5.486h-.25v.25h0v.499h0v.249l9.268,12.343h0l.125.25h.501v.125h.376l.25-.125h.125v-.25l9.269-12.343q.125,0,.125-.249h0v-.499h0ZM15.03,1.995l-1.378,2.867-1.879-2.867h3.257ZM12.149,5.486h-4.133l2.004-2.867,2.129,2.867h0ZM8.392,1.995l-1.628,2.618-1.127-2.618h2.755ZM4.259,3.117l1.002,2.369h-2.755l1.754-2.369h0ZM2.505,7.106h3.131l2.129,6.857L2.505,7.106h0ZM10.02,15.46l-2.505-8.353h5.01l-2.505,8.353h0ZM12.4,13.964l2.004-6.857h3.131l-5.135,6.857h0ZM15.28,5.486l1.253-2.369,1.253,2.369h-2.505Z" fill="#282828" fill-rule="evenodd" />
  </g>
</svg>