<?xml version='1.0' encoding='utf-8'?>
<svg xmlns="http://www.w3.org/2000/svg" id="Layer_2" data-name="Layer 2" viewBox="0 0 20.04 19.92">
  <g id="Layer_1-2" data-name="Layer 1">
    <path d="M9.143,3.611l-.251-.498-.501.249-.376-.249c0,.124-.501.498-.501.498l.501.249,1.127-.249h0ZM19.915,9.337h-1.253c-.376-4.108-3.758-7.594-8.016-7.843V.249c0-.124,0-.249-.125-.249h-1.002s-.125.124-.125.249v1.245c-4.258.249-7.64,3.735-7.891,7.843H.125s-.125.125-.125.249v.871c0,.125.125.125.125.125h1.378c.25,4.233,3.632,7.594,7.891,7.968v1.245c0,.124.125.124.125.124h1.002q.125,0,.125-.124v-1.245c4.259-.373,7.64-3.735,8.016-7.968h1.253q.125,0,.125-.125v-.871c0-.124,0-.249-.125-.249h0ZM10.646,3.735v-.124l.25-.124.752-.498-.501-.249-.501.249v-.623c1.002.125,1.879.374,2.63.747h-.25l-.751-.124-.501.373-.376.374-.752.124v-.124h0ZM9.394,2.365v1.494h0l-.376.622h-1.127l-.626-.249-.752.374-1.252.249-1.127.249h0c1.253-1.494,3.131-2.615,5.26-2.739h0ZM11.022,17.555c-.125,0-.251.124-.376.124v-1.37c0-.124,0-.249-.125-.249h-1.002s-.125.124-.125.249v1.37c-3.757-.374-6.763-3.361-7.014-7.096h1.378q.125,0,.125-.125v-.871c0-.124,0-.249-.125-.249h-1.378c.125-1.12.501-2.241,1.002-3.237l.626-.124-.626.498.501.249h.877l1.253-.249.752,1.37v1.245l1.127,1.494h.25v-.622l.376.871,1.252.374.626.498.501.249-.501.996.501.996.376,1.245c0,.125-.376,1.494-.376,1.494l.125.872h0ZM16.282,10.583h1.378c-.25,3.361-2.63,6.1-5.762,6.848l.125-.498,1.252-.872.376-.996.877-.374.877-1.618-1.253-.747-.752-.872h-.376l-.877-.249-.626-.124-.626.249-.376-.498-.376-.124v-.498h-.501l-.25.249-.125-.622.626-.249.626.249h.25l.125-.498,1.002-.996,1.252-.747.752.124v-.373l-.877-.872-.376-.747h-.501l-.25-.125-.752-.124-.125.872-.752-.249-.125-.498.626-.124.251-.871.626.249v.374l.376.249h.376l.376-.124-.376-.498-.626-.622v-.374l.752.124.501.623.25.498.125.373,1.002.872.25.124.376-.498,1.127-.124.25-.124c.752,1.12,1.253,2.365,1.253,3.61h-1.378s-.125.125-.125.249v.871c0,.125.125.125.125.125h0Z" fill="#282828" fill-rule="evenodd" />
  </g>
</svg>