<?xml version='1.0' encoding='utf-8'?>
<svg xmlns="http://www.w3.org/2000/svg" id="Layer_2" data-name="Layer 2" viewBox="0 0 19.92 18.72">
  <g id="Layer_1-2" data-name="Layer 1">
    <path d="M19.92,17.338c0,.88-.498,1.382-1.245,1.382-.622,0-1.245-.502-1.245-1.382,0-.628.622-2.638,1.245-2.638.747,0,1.245,2.01,1.245,2.638h0ZM18.052,7.287v6.156c0,.251.249.628.622.628.249,0,.622-.377.622-.628v-6.156c0-.377-.373-.754-.622-.754-.373,0-.622.377-.622.754h0ZM18.551,5.905l-1.743.377v5.779c0,1.633-1.867,3.267-6.972,3.267-4.855,0-6.723-1.633-6.723-3.267v-5.779l-1.743-.377c-.872-.126-1.37-1.005-1.37-2.01s.498-1.633,1.37-1.885L9.586,0h.747l8.217,2.01c.747.251,1.37.879,1.37,1.885s-.623,1.885-1.37,2.01h0ZM15.562,6.533l-5.229,1.382h-.747l-5.229-1.382v5.528c0,.628,1.743,2.01,5.478,2.01,3.859,0,5.727-1.382,5.727-2.01v-5.528h0ZM18.177,4.649c.374,0,.498-.377.498-.754,0-.251-.124-.502-.498-.628L9.96,1.256h-.249L1.618,3.267c-.249.126-.374.377-.374.628,0,.377.125.754.374.754l8.092,1.885h.249l8.217-1.885h0Z" fill="#282828" fill-rule="evenodd" />
  </g>
</svg>