<?xml version='1.0' encoding='utf-8'?>
<svg xmlns="http://www.w3.org/2000/svg" id="Layer_2" data-name="Layer 2" viewBox="0 0 20.04 17.104">
  <g id="Layer_1-2" data-name="Layer 1">
    <path d="M14.905,12.518c.376-.501,1.002-.751,1.503-1.001.25-.125.626-.375.877-.375-1.002,0-1.879-.125-2.881.25-.751.25-1.378.876-1.879,1.502-.251.501-.501,1.001-.752,1.502-.376.501-.751,1.377-1.503,1.627.877-.125,1.754-.501,2.38-1.001.877-.751,1.503-1.752,2.255-2.503h0ZM16.784,11.892c-1.002.501-1.628,1.127-2.255,2.003-.501.626-1.002,1.252-1.754,1.752-.501.375-1.252.751-2.004.751,1.628,1.001,3.507.876,5.01,0,1.503-.876,2.004-2.253,2.756-3.63.25-.375.626-.876,1.002-1.126,0-.125.376-.376.501-.376-1.127-.125-2.255,0-3.257.626h0ZM12.274,7.511c-.25.375-.501.751-.751,1.127-.25.501-.626,1.252-1.127,1.502.751-.125,1.378-.376,2.004-.876.752-.626,1.253-1.502,1.879-2.128.376-.375.877-.751,1.378-.876.125-.125.501-.25.626-.25-.752-.125-1.628-.125-2.38.125-.626.25-1.253.751-1.628,1.377h0ZM13.903,8.262c-.376.501-.877,1.126-1.378,1.502-.501.376-1.127.626-1.754.751,1.378.751,3.006.751,4.258,0,1.253-.751,1.754-2.003,2.38-3.13.25-.375.501-.751.877-1.001,0-.125.251-.376.376-.376-1.002,0-1.879.125-2.756.501-.877.501-1.378,1.001-2.004,1.753h0ZM8.266,14.396c-.376-.501-.501-1.001-.877-1.502-.501-.626-1.127-1.252-1.879-1.502-.877-.375-1.879-.25-2.881-.25.25,0,.626.25.877.375.501.25,1.127.501,1.628,1.001.751.751,1.252,1.752,2.129,2.503.626.501,1.503.876,2.38,1.001-.751-.25-1.127-1.126-1.378-1.627h0ZM5.386,13.895c-.626-.876-1.252-1.502-2.255-2.003-1.002-.626-2.129-.751-3.131-.626.125,0,.376.25.501.376.376.25.626.751.877,1.126.751,1.377,1.378,2.754,2.756,3.63,1.503.876,3.382,1.001,5.01,0-.626,0-1.503-.376-2.004-.751-.626-.501-1.253-1.127-1.754-1.752h0ZM5.636,7.135c.751.626,1.127,1.502,1.879,2.128.626.5,1.378.751,2.129.876-.626-.25-1.002-1.001-1.252-1.502-.25-.375-.501-.751-.751-1.127-.376-.626-.877-1.126-1.628-1.377-.751-.25-1.628-.25-2.38-.125.125,0,.501.125.751.25.501.125.877.501,1.252.876h0ZM2.505,7.385c.751,1.127,1.127,2.378,2.38,3.13,1.252.751,2.881.751,4.258,0-.626-.125-1.252-.375-1.753-.751-.501-.375-1.002-1.001-1.378-1.502-.626-.751-1.127-1.252-2.004-1.753-.751-.375-1.753-.501-2.756-.501.125,0,.376.25.501.376.25.25.501.626.751,1.001h0ZM11.022,7.385c.376-.25.751-.626,1.002-.876.501-.626.877-1.252,1.002-1.878.125-.876-.125-1.627-.376-2.503.125.25,0,.626,0,.751-.125.626-.376,1.127-.626,1.627-.501.751-1.253,1.377-1.754,2.253-.25.626-.376,1.377-.376,2.128.125-.626.751-1.126,1.127-1.502h0ZM12.149,2.754c.25-.876.125-1.878-.125-2.754,0,.125-.251.375-.251.501-.25.375-.501.751-.751,1.001-1.002.876-2.129,1.627-2.505,2.879-.501,1.502-.125,3.129.877,4.256-.125-.626.125-1.252.25-1.752.251-.751.752-1.252,1.253-1.753.501-.751,1.002-1.377,1.253-2.378h0Z" fill="#282828" fill-rule="evenodd" />
  </g>
</svg>