<?xml version='1.0' encoding='utf-8'?>
<svg xmlns="http://www.w3.org/2000/svg" id="Layer_2" data-name="Layer 2" viewBox="0 0 19.887 19.378">
  <g id="Layer_1-2" data-name="Layer 1">
    <path d="M10.566,3.677l-.871.751.871-.751h0ZM5.217,17.204c-.498.376-1.12.25-1.493-.25l-1.617-2.129c-.498-.501-.373-1.127.124-1.628l2.737-2.38v-.125l2.612-2.254h0l1.866-1.628c.498-.376,1.12-.25,1.617.125l1.368,2.004,1.12-1.127-2.115-2.756h0c-1.12-.877-2.115-.25-2.488,0h0v.125L.739,12.319c-.871.752-.995,2.255-.249,3.131l2.239,3.131c.746.877,2.115,1.127,3.11.25l1.99-1.879-.995-1.252-1.617,1.503h0ZM19.397,3.927l-2.363-3.131c-.746-.877-1.99-1.127-2.861-.25l-2.488,2.129,1.12,1.252,1.866-1.754c.498-.376,1.244-.25,1.617.251l1.617,2.129c.249.501.124,1.127-.124,1.628l-2.737,2.255h0l-2.115,1.879-.124-.125c0,.25-.124.376-.373.501l-2.737,2.505-2.115-2.756-1.368,1.127,1.741,2.38c.871,1.002,2.115,1.127,3.11.25l8.085-7.139c.871-.751.995-2.129.249-3.131h0ZM8.949,5.18v-.125l.746-.626-.746.751h0ZM11.436,5.055c.124,0,.124.125.249.125-.249-.125-1.12-1.503-1.12-1.503h0l.871,1.378h0Z" fill="#282828" fill-rule="evenodd" />
  </g>
</svg>