<?xml version='1.0' encoding='utf-8'?>
<svg xmlns="http://www.w3.org/2000/svg" id="Layer_2" data-name="Layer 2" viewBox="0 0 13.92 19.92">
  <g id="Layer_1-2" data-name="Layer 1">
    <path d="M12.18,8.093v-2.365c0-3.113-2.237-5.727-5.096-5.727C4.101,0,1.74,2.615,1.74,5.727v2.365c-.994,0-1.74.996-1.74,1.867v4.482c0,2.988,2.361,5.478,5.22,5.478h3.604c2.859,0,5.096-2.49,5.096-5.478v-4.482c0-.872-.746-1.867-1.74-1.867h0ZM2.983,5.727c0-2.49,1.74-4.482,4.101-4.482,2.113,0,3.977,1.992,3.977,4.482v2.365h-1.119v-2.365c0-1.743-1.243-3.113-2.859-3.113-1.74,0-2.983,1.369-2.983,3.113v2.365h-1.119v-2.365h0ZM9.321,5.727v2.365h-4.723v-2.365c0-1.37,1.243-2.49,2.486-2.49s2.237,1.12,2.237,2.49h0ZM12.801,11.827v2.615c0,2.241-1.864,4.233-3.977,4.233h-3.604c-2.113,0-3.977-1.992-3.977-4.233v-4.482c0-.249.249-.623.497-.623h10.44c.373,0,.621.374.621.623v1.867h0ZM7.084,11.827c-.746,0-1.367.623-1.367,1.37,0,.374.249,1.12.497,1.618.124.498.373.872.87.872.373,0,.497-.374.621-.872.249-.498.497-1.245.497-1.618,0-.747-.621-1.37-1.119-1.37h0Z" fill="#282828" fill-rule="evenodd" />
  </g>
</svg>