<?xml version='1.0' encoding='utf-8'?>
<svg xmlns="http://www.w3.org/2000/svg" id="Layer_2" data-name="Layer 2" viewBox="0 0 20.04 15.72">
  <g id="Layer_1-2" data-name="Layer 1">
    <path d="M19.038,2.121c0-.374,0-.749-.125-.998,0-.374-.376-1.123-1.628-1.123H3.006c-1.253,0-1.753.749-1.753,1.123-.125.25-.125.624,0,.998-.376.125-.752.374-.877.749-.125.125-.376.749-.376,1.248v9.108c0,1.248,1.127,2.495,2.505,2.495h15.155c1.378,0,2.38-1.248,2.38-2.495V4.117c0-1.123-.501-1.622-1.002-1.996h0ZM3.006,1.372h14.279c.501,0,.752.374.125.749l-2.505,2.121-4.258,3.369c-.125.25-.376.374-.501.374-.376,0-.376-.125-.752-.374l-4.133-3.369-2.63-2.121c-.376-.374-.376-.749.376-.749h0ZM17.66,14.472H2.505c-.752,0-1.127-.749-1.127-1.248V4.117c0-.499.25-.749.376-.749.251,0,.376,0,.501.25l2.254,1.747,4.634,3.743c.25.374,1.002.374,1.002.374,0,0,.501,0,.877-.374l4.76-3.743,2.255-1.747c.125-.25.25-.25.25-.25.376,0,.626.25.626.749v9.108c0,.499-.626,1.248-1.253,1.248h0Z" fill="#282828" fill-rule="evenodd" />
  </g>
</svg>