<?xml version='1.0' encoding='utf-8'?>
<svg xmlns="http://www.w3.org/2000/svg" id="Layer_2" data-name="Layer 2" viewBox="0 0 20.084 16.705">
  <g id="Layer_1-2" data-name="Layer 1">
    <path d="M16.904,9.438l3.13,6.766c.125.125,0,.501-.25.501H.376c-.376,0-.376-.376-.376-.501l3.13-6.766c.125-.125.25-.25.25-.25h2.755c.125,0,.25.125.25.125.125.25.25.501.626.626.125.25.25.501.376.626h-3.13c-.125,0-.25.125-.25.25l-2.003,4.385h16.153l-2.129-4.385c0-.125-.125-.25-.25-.25h-3.13c.25-.125.376-.376.626-.626.125-.125.25-.376.501-.626.125,0,.125-.125.25-.125h2.63c.125,0,.25.125.25.25h0ZM14.65,4.802c0,3.759-3.005,4.385-4.257,7.894-.25.376-.501.376-.626,0-1.252-3.258-3.631-4.009-4.132-6.891C5.259,3.048,7.012.166,9.642.041c2.63-.376,5.009,1.879,5.009,4.761h0ZM12.397,4.802c0-1.503-1.002-2.506-2.379-2.506-1.252,0-2.379,1.002-2.379,2.506,0,1.378,1.127,2.631,2.379,2.631,1.377,0,2.379-1.253,2.379-2.631h0Z" fill="#282828" fill-rule="evenodd" />
  </g>
</svg>