<?xml version='1.0' encoding='utf-8'?>
<svg xmlns="http://www.w3.org/2000/svg" id="Layer_2" data-name="Layer 2" viewBox="0 0 12.123 20.04">
  <g id="Layer_1-2" data-name="Layer 1">
    <path d="M9.25,0c-1.499,0-2.873,1.252-2.873,3.131,0,1.628,1.374,3.006,2.873,3.006,1.624,0,2.873-1.378,2.873-3.006,0-1.879-1.249-3.131-2.873-3.131h0ZM3.006,11.523c.25,0,.5-.125.625-.25l4.746-4.76c-.874-.25-1.749-1.002-2.123-1.879l-3.747,5.386c-.125.25-.25.376-.25.751s.375.751.749.751h0ZM6.003,12.901c-.999.501-1.749,1.253-1.749,1.378-.5.501-2.123,1.879-2.998,1.252-.125-.376-.25-.501-.25-.751-.125-.751.749-1.879,1.124-2.38l.874-.501s-.125,0-.624-.376c-.375-.376-.5-.751-.5-.751l-.375.877c-.25.25-1.624,1.879-1.499,3.257,0,.626.25,1.002.749,1.252,1.624,1.378,3.997-1.252,4.122-1.252,0-.125,2.748-2.505,3.872-1.002.25.25.375.626.375,1.002-.125,1.503-2.123,3.632-2.998,4.259-.25.125-.25.376-.125.626.125.25.25.25.375.25s.25,0,.25-.25c.125,0,3.122-2.505,3.372-4.76,0-.626-.125-1.252-.624-1.879-.5-.501-1.499-1.127-3.372-.251h0Z" fill="#282828" fill-rule="evenodd" />
  </g>
</svg>