<?xml version='1.0' encoding='utf-8'?>
<svg xmlns="http://www.w3.org/2000/svg" id="Layer_2" data-name="Layer 2" viewBox="0 0 9.72 20.007">
  <g id="Layer_1-2" data-name="Layer 1">
    <path d="M5.358,4.484h0q-.125-.25,0-.375c.125-.125.249-.25.374-.376.498-.375.748-.626.872-1.252.374-1.001-.623-1.753-1.246-2.379-.374-.375-1.122.376-.623.751.249.375.623.626.872,1.127.374.375-.125.876-.374,1.126-.498.25-.997.751-.872,1.377-2.243.25-4.362,1.627-4.362,3.756v6.51c0,2.879,2.243,5.258,4.985,5.258,2.617,0,4.735-2.379,4.735-5.258v-6.51c0-2.504-2.118-3.63-4.362-3.756h0ZM.997,8.24c0-1.627,1.745-2.629,3.614-2.754v5.884c-1.745,0-2.991-.501-3.614-.626v-2.504h0ZM8.723,14.749c0,2.378-1.62,4.256-3.738,4.256-2.243,0-3.988-1.878-3.988-4.256v-3.004c.872.25,2.368.626,4.112.626,1.246,0,2.492-.125,3.614-.626v3.004h0ZM8.723,10.743c-.997.501-2.243.626-3.365.626v-5.884c1.745,0,3.365,1.001,3.365,2.754v2.504h0ZM8.474,10.367s-1.994.751-2.742.501v-5.008c1.994.501,2.991,1.127,2.742,4.507h0Z" fill="#282828" fill-rule="evenodd" />
  </g>
</svg>