<?xml version='1.0' encoding='utf-8'?>
<svg xmlns="http://www.w3.org/2000/svg" id="Layer_2" data-name="Layer 2" viewBox="0 0 17.52 19.92">
  <g id="Layer_1-2" data-name="Layer 1">
    <path d="M8.51,0l-.25.125-.25.125-.125.125-.125.249-.125.125-.125.249v1.12l-.501.125-.501.125-.501.249-.501.249-.375.249-.501.374-.375.374-.25.373-.375.374-.25.374-.25.498-.25.498-.125.498-.125.622-.125.498v1.867l-.25,1.245-.25.872-.25.747-.375.623-.375.498-.626.623-.125.249-.125.249-.125.125v.498l.125.249.125.249.125.125.125.125.25.125.25.125h15.518l.25-.125.25-.125.125-.125.25-.125.125-.249v-.872l-.125-.249-.125-.249-.751-.623-.375-.498-.25-.623-.375-.747-.25-.872-.25-1.245v-2.365l-.25-.622-.125-.498-.125-.498-.375-.498-.25-.374-.375-.374-.25-.373-.375-.374-.501-.374-.375-.249-.501-.249-.501-.249-.501-.125-.501-.125V.996l-.125-.249-.125-.125-.125-.249-.125-.125-.25-.125-.25-.125h-.501ZM6.257,17.43v.498l.25.498.125.374.375.374.375.373.375.249.501.125h1.001l.501-.125.375-.249.375-.373.375-.374.125-.374.25-.498v-.498h-5.006Z" fill="#282828" fill-rule="evenodd" />
  </g>
</svg>