<?xml version='1.0' encoding='utf-8'?>
<svg xmlns="http://www.w3.org/2000/svg" id="Layer_2" data-name="Layer 2" viewBox="0 0 19.92 19.92">
  <g id="Layer_1-2" data-name="Layer 1">
    <path d="M9.96,19.92c5.478,0,9.96-4.482,9.96-9.96S15.438,0,9.96,0,0,4.482,0,9.96s4.482,9.96,9.96,9.96h0ZM11.081,11.579v.124h-.249v.125h-.249v.125h-1.245q0-.125-.124-.125h-.125l-.125-.125h-.124c0-.124-.125-.124-.125-.124h0q-.124-.125-.249-.125h0q0-.125-.125-.249h0s0-.125-.124-.125v-.125h0l-.125-.125v-.125h0c0-.125-.125-.125-.125-.125v-.374h0v-.872h.125v-.249l.125-.124h0v-.125q.124,0,.124-.125h0l.125-.125h0q.125-.125.249-.125v-.125h.125s0-.125.124-.125h0s.125,0,.125-.125h.249s.125,0,.125-.125h.996q0,.125.124.125h.249v.125h.124l.125.125h0q.124,0,.124.125s.125,0,.125.125q.125,0,.125.125h.124v.125l.125.125h0v.124c.125,0,.125.125.125.125v.125h0v.125c.124,0,.124.125.124.125v.623h0v.125q0,.125-.124.125v.249h0q0,.125-.125.125v.125h0c0,.125-.125.125-.125.125v.125h-.124q0,.125-.125.249s-.125,0-.125.125h-.124ZM18.551,11.579c-.249,1.12-.747,2.116-1.37,3.112-.622.872-1.37,1.743-2.116,2.365l-3.735-4.482c.374-.374.747-.498.996-.996.374-.623.374-.996.498-1.37l5.727,1.37h0ZM9.96,1.369c1.121,0,2.241.125,3.237.498l-1.867,5.603c-.374-.249-.747-.374-1.37-.374-.747,0-.996.125-1.494.374l-1.743-5.603c.996-.374,2.117-.498,3.237-.498h0ZM1.245,11.33l5.727-1.245c.125.374.125.747.498,1.37.249.498.622.747.996.996l-3.859,4.482c-.872-.747-1.494-1.618-2.117-2.615-.498-.871-.996-1.992-1.245-2.988h0Z" fill="#282828" fill-rule="evenodd" />
  </g>
</svg>