<?xml version='1.0' encoding='utf-8'?>
<svg xmlns="http://www.w3.org/2000/svg" id="Layer_2" data-name="Layer 2" viewBox="0 0 20.066 17.099">
  <g id="Layer_1-2" data-name="Layer 1">
    <path d="M19.565.098C19.064.098.532,6.983.282,7.233c-.376.125-.376.25,0,.501.376.125,4.007,1.753,4.007,1.753l2.504,1.001S18.563,1.225,18.689,1.225c.125-.125.501,0,.376.25-.25.125-8.64,9.889-8.64,9.889h0l-.501.501.626.375h0s5.009,2.879,5.51,3.129c.25.125.626,0,.877-.375,0-.501,3.13-14.271,3.13-14.396,0-.501-.25-.751-.501-.501h0ZM6.793,16.747c0,.376.125.501.25.125.376-.125,3.13-2.879,3.13-2.879l-3.381-2.003v4.757h0Z" fill="#282828" fill-rule="evenodd" />
  </g>
</svg>