<?xml version='1.0' encoding='utf-8'?>
<svg xmlns="http://www.w3.org/2000/svg" id="Layer_2" data-name="Layer 2" viewBox="0 0 15.414 20.04">
  <g id="Layer_1-2" data-name="Layer 1">
    <path d="M14.665,19.414h0l-6.363-2.756-.125-.125q0-.25.125-.25c.749-.626,1.123-1.753,1.123-2.755,0-.626-.125-1.002-.25-1.503h0l-4.491-6.638c-.998.877-1.871,2.254-1.871,3.382q0,.25-.125.376s-.125-.125-.125-.376c-.125-1.378.998-2.881,2.121-3.758,1.248-1.002,2.62-1.628,3.493-1.252.125,0,.125.25.125.25,0,.125-.125.125-.125.125-.749-.376-2.121.125-3.244,1.127l4.616,6.763c1.123.751,2.87.751,3.992-.125h.25s.125,0,.125.125l.873,7.265v.125h-.125ZM8.677,16.282l5.864,2.756-.998-6.638c-1.123.752-2.745.752-3.992.125.25.25.25.626.25,1.002,0,1.002-.499,2.129-1.123,2.755h0ZM1.441,7.139c-.125,0-.125-.125-.125-.125-.125-1.628.998-3.006,2.121-3.883,1.248-1.127,2.62-1.503,3.493-1.253.25,0,.25.125.25.125,0,.125-.25.125-.374.125-.749-.25-1.996.25-3.244,1.253-.998.877-2.121,2.254-1.996,3.507,0,.125,0,.25-.125.25h0ZM12.544,18.287c.25-.877.873-1.503,1.747-1.754l.374,2.756-2.121-1.002h0ZM5.183.751C3.062.751-.306,4.008.942,6.137l6.987,10.02,6.737,3.131-1.123-7.766L6.556,1.503c-.374-.626-.873-.751-1.372-.751M5.183,0c.873,0,1.497.376,1.747,1.002l7.236,10.02s0,.125.125.25l1.123,7.891c0,.25-.125.376-.25.751-.125,0-.374.125-.499.125,0,0-.125-.125-.25-.125l-6.612-3.006c-.125,0-.25-.125-.25-.25L.318,6.638H.318c-.499-1.002-.374-2.254.125-3.382C1.565,1.503,3.686,0,5.183,0h0Z" fill="#282828" fill-rule="evenodd" />
  </g>
</svg>