<?xml version='1.0' encoding='utf-8'?>
<svg xmlns="http://www.w3.org/2000/svg" id="Layer_2" data-name="Layer 2" viewBox="0 0 18.36 20.04">
  <g id="Layer_1-2" data-name="Layer 1">
    <path d="M14.863,9.519c-.999,0-1.873.376-2.498,1.002v-3.632c0-.25-.125-.376-.375-.376h-3.497c.749-.626,1.124-1.753,1.124-2.755,0-2.004-1.499-3.758-3.497-3.758-1.873,0-3.497,1.753-3.497,3.758,0,1.002.5,2.129,1.124,2.755H.375c-.25,0-.375.125-.375.376v12.65c0,.25.125.501.375.501h3.122c.125,0,.375-.25.375-.501q0-.125-.125-.376c-.5-.501-.625-1.253-.625-2.004,0-1.753,1.374-3.256,2.998-3.256,1.749,0,3.122,1.503,3.122,3.256,0,.877-.25,1.503-.749,2.004,0,.25-.125.501,0,.626.125.125.25.25.375.25h3.122c.25,0,.375-.25.375-.501v-3.632c.624.626,1.499,1.002,2.498,1.002,1.873,0,3.497-1.503,3.497-3.757,0-2.004-1.624-3.632-3.497-3.632h0Z" fill="#282828" fill-rule="evenodd" />
  </g>
</svg>