<?xml version='1.0' encoding='utf-8'?>
<svg xmlns="http://www.w3.org/2000/svg" id="Layer_2" data-name="Layer 2" viewBox="0 0 20.04 17.918">
  <g id="Layer_1-2" data-name="Layer 1">
    <path d="M17.284,7.998c-.751-.5-1.628-.75-2.505-.75l-.125-.125c.501-.75.752-1.625.752-2.624,0-1.875-1.002-3.499-2.38-4.499,1.002.875,1.754,2.249,1.754,3.749,0,.875-.251,1.75-.751,2.499-1.002-1.125-2.38-1.75-4.008-1.75-1.503,0-2.881.625-3.883,1.75-.501-.75-.751-1.625-.751-2.499,0-1.5.626-2.874,1.754-3.749-1.503,1-2.38,2.624-2.38,4.499,0,1,.251,1.875.626,2.624h0c-.877,0-1.879.25-2.755.75-1.628,1-2.63,2.624-2.63,4.374.125-1.375,1.002-2.624,2.254-3.374.877-.5,1.754-.75,2.756-.625-.251.5-.251,1-.251,1.625,0,2.499,1.628,4.624,4.008,5.124-.376.875-1.002,1.5-1.753,2-1.378.75-2.881.75-4.133.25,1.503.875,3.507.875,5.135-.125.751-.5,1.503-1.125,1.879-1.875h0c.501.75,1.127,1.5,2.004,2,1.628.875,3.632.875,5.135.125-1.253.5-2.755.375-4.133-.375-.751-.5-1.378-1.125-1.754-1.875,2.38-.5,4.259-2.624,4.259-5.249,0-.625,0-1.125-.251-1.625.877,0,1.754.25,2.505.625,1.378.75,2.129,2.125,2.38,3.499-.125-1.75-1.127-3.499-2.756-4.374h0ZM14.153,9.872c0,2-1.503,3.624-3.507,3.999v-1.5c.125-.5.251-1,.501-1.5l-.501-.375c-.125.125-.25.125-.25.125q-.125.125-.25.125h-.376q-.125,0-.125-.125c-.125,0-.251,0-.251-.125l-.626.375c.251.375.501,1,.501,1.5v1.375c-1.879-.375-3.257-1.999-3.257-3.874,0-.5.125-1,.251-1.375.25.125.501.25.751.375.125.125.25.125.376.25.501.375.877.75,1.253,1.25l.501-.25v-.5c0-.125.125-.25.25-.375v-.125c.125,0,.251-.125.376-.125v-.625c-.626,0-1.127-.125-1.628-.375-.25-.125-.376-.25-.626-.375-.125-.125-.376-.25-.501-.375.751-.875,1.753-1.5,3.006-1.5s2.38.625,3.131,1.5c-.125.125-.25.25-.501.375-.25.125-.626.25-1.002.5-.376.125-.877.25-1.503.25v.625c.125,0,.25.125.376.125l.125.125c.125.125.125.25.251.375v.5l.501.25c.251-.375.626-.75,1.002-1,.376-.25.626-.375,1.002-.625.125-.125.25-.125.501-.25.125.375.251.875.251,1.375h0Z" fill="#282828" fill-rule="evenodd" />
  </g>
</svg>