<?xml version='1.0' encoding='utf-8'?>
<svg xmlns="http://www.w3.org/2000/svg" id="Layer_2" data-name="Layer 2" viewBox="0 0 17.52 19.92">
  <g id="Layer_1-2" data-name="Layer 1">
    <path d="M16.143,4.98c.125-.249.125-.623.125-1.12,0-2.117-1.752-3.86-3.879-3.86s-3.754,1.743-3.879,3.86c-.375-.374-.876-.498-1.377-.498-1.126,0-2.002.747-2.253,1.743h.876c1.377,0,2.503.498,3.504,1.37.375.373.751.871,1.001,1.245h5.882c.751,0,1.377-.623,1.377-1.369s-.626-1.245-1.377-1.37h0ZM14.391,11.827c0-1.369-1.126-2.49-2.628-2.49-.626,0-1.126.249-1.627.623,0-.872-.25-1.618-.626-2.241-.751-1.245-2.127-2.116-3.754-2.116-.25,0-.626,0-.876.125-2.002.374-3.504,2.116-3.504,4.233,0,.498.125.872.25,1.37-.876,0-1.627.622-1.627,1.494s.751,1.494,1.627,1.494h10.137c1.502,0,2.628-1.12,2.628-2.49h0ZM2.628,15.562l1.502,2.864,1.001-.498-1.502-2.864-1.001.498h0ZM5.882,17.056l1.377,2.864,1.001-.498-1.502-2.864-.876.498h0ZM9.01,15.562l1.377,2.864,1.001-.498-1.377-2.864-1.001.498h0ZM12.139,17.056l1.502,2.864,1.001-.498-1.502-2.864-1.001.498h0Z" fill="#282828" fill-rule="evenodd" />
  </g>
</svg>