<?xml version='1.0' encoding='utf-8'?>
<svg xmlns="http://www.w3.org/2000/svg" id="Layer_2" data-name="Layer 2" viewBox="0 0 7.556 19.92">
  <g id="Layer_1-2" data-name="Layer 1">
    <path d="M7.554.996c0-.374-.503-.996-1.006-.996H1.017C.388,0,.011.623.011.996.011.996-.24,18.8,1.645,18.8c0,0,.629,1.12,2.137,1.12s1.886-1.12,1.886-1.12c2.011,0,1.886-17.803,1.886-17.803h0ZM2.903,3.735h1.634v1.369h-1.634v-1.369h0ZM2.903,5.603h1.634v1.369h-1.634v-1.369h0ZM2.903,7.594h1.634v1.37h-1.634v-1.37h0ZM.64,5.104v-1.369h1.76v1.369H.64ZM2.4,5.603v1.369H.64v-1.369h1.76ZM1.394,1.743c.251,0,.503.374.503.747s-.251.623-.503.623c-.377,0-.754-.249-.754-.623s.377-.747.754-.747h0ZM.64,8.964v-1.37h1.76v1.37H.64ZM5.291,14.317l-1.006-1.12c0,.249-.126.249-.126.374l.88.996c-.251.374-.88.498-1.257.498-.629,0-1.006-.125-1.257-.498l.754-.996q-.126-.125-.251-.374l-.754,1.12c-.377-.498-.503-.871-.503-1.369s.126-.872.503-1.369l.754,1.12c.126-.249.126-.374.251-.374l-.754-.996c.251-.374.629-.498,1.257-.498.377,0,1.006.125,1.257.498l-.88.996s.126.125.126.374l1.006-1.12c.251.498.377.871.377,1.369s-.126.872-.377,1.369h0ZM6.8,8.964h-1.634v-1.37h1.634v1.37h0ZM6.8,6.972h-1.634v-1.369h1.634v1.369h0ZM6.8,5.104h-1.634v-1.369h1.634v1.369h0Z" fill="#282828" fill-rule="evenodd" />
  </g>
</svg>