<?xml version='1.0' encoding='utf-8'?>
<svg xmlns="http://www.w3.org/2000/svg" id="Layer_2" data-name="Layer 2" viewBox="0 0 18.12 20.04">
  <g id="Layer_1-2" data-name="Layer 1">
    <path d="M7.123,4.384c1.125,0,2.124-1.002,2.124-2.255,0-1.127-1-2.129-2.124-2.129-1.25,0-2.124,1.002-2.124,2.129,0,1.253.875,2.255,2.124,2.255h0ZM13.496,14.905l-.625-3.257-2.124-6.012h3.124l1.874,4.259,1.5-.626-2.374-5.26h-4.749l-3.749,1.503-2.249,1.753L1,4.634l-1,1.252,3.999,3.507,2.999-2.38,2.249,4.634-3.124,2.255-.25,6.012,2.124.125.25-5.01,2.499-1.879.25-.125.625,3.883,6.373.501.125-2.129-4.624-.376h0Z" fill="#282828" fill-rule="evenodd" />
  </g>
</svg>