<?xml version='1.0' encoding='utf-8'?>
<svg xmlns="http://www.w3.org/2000/svg" id="Layer_2" data-name="Layer 2" viewBox="0 0 19.92 20.04">
  <g id="Layer_1-2" data-name="Layer 1">
    <path d="M18.799,8.016l-3.237-7.014c-.125-.125-.373-.25-.622-.25h-1.867c0-.376-.374-.751-.622-.751h-4.98c-.373,0-.622.376-.622.751h-1.867c-.124,0-.498.125-.498.25l-3.237,7.014c-.747,0-1.245.751-1.245,1.378s.622,1.378,1.245,1.378v8.016c0,.751.622,1.252,1.245,1.252h14.94c.747,0,1.245-.501,1.245-1.252v-8.016c.747,0,1.245-.751,1.245-1.378s-.498-1.378-1.12-1.378h0ZM5.478,2.004h1.369c0,.376.249.752.622.752h4.98c.249,0,.622-.376.622-.752h1.494l2.863,6.012H2.615l2.864-6.012h0ZM4.357,18.036c0,.376-.373.752-.622.752-.373,0-.622-.376-.622-.752v-6.638c0-.376.249-.626.622-.626.249,0,.622.25.622.626v6.638h0ZM6.847,18.036c0,.376-.373.752-.622.752-.373,0-.622-.376-.622-.752v-6.638c0-.376.249-.626.622-.626.249,0,.622.25.622.626v6.638h0ZM9.338,18.036c0,.376-.374.752-.622.752-.374,0-.622-.376-.622-.752v-6.638c0-.376.249-.626.622-.626.249,0,.622.25.622.626v6.638h0ZM11.828,18.036c0,.376-.374.752-.622.752-.374,0-.622-.376-.622-.752v-6.638c0-.376.249-.626.622-.626.249,0,.622.25.622.626v6.638h0ZM14.318,18.036c0,.376-.373.752-.622.752-.374,0-.622-.376-.622-.752v-6.638c0-.376.249-.626.622-.626.249,0,.622.25.622.626v6.638h0ZM16.807,18.036c0,.376-.373.752-.622.752-.373,0-.622-.376-.622-.752v-6.638c0-.376.249-.626.622-.626.249,0,.622.25.622.626v6.638h0Z" fill="#282828" fill-rule="evenodd" />
  </g>
</svg>