<?xml version='1.0' encoding='utf-8'?>
<svg xmlns="http://www.w3.org/2000/svg" id="Layer_2" data-name="Layer 2" viewBox="0 0 20.04 18.96">
  <g id="Layer_1-2" data-name="Layer 1">
    <path d="M20.04.873c0,.499-.25.998-.877.998h-1.503l-5.135,12.349H2.129L0,5.489h10.02c.376,0,.751.374.751.873,0,.374-.376.749-.751.749H2.129l1.253,5.364h8.266L16.784,0h2.38c.626,0,.877.499.877.873h0ZM6.889,16.715c0,1.372-.877,2.245-2.129,2.245-1.127,0-2.129-.873-2.129-2.245,0-1.123,1.002-2.121,2.129-2.121,1.253,0,2.129.998,2.129,2.121h0ZM5.761,16.715c0-.499-.376-1.123-1.002-1.123s-1.127.624-1.127,1.123c0,.624.501,1.247,1.127,1.247s1.002-.624,1.002-1.247h0ZM12.4,16.715c0,1.372-.752,2.245-2.004,2.245-1.127,0-2.129-.873-2.129-2.245,0-1.123,1.002-2.121,2.129-2.121,1.253,0,2.004.998,2.004,2.121h0ZM11.523,16.715c0-.499-.626-1.123-1.127-1.123-.626,0-1.127.624-1.127,1.123,0,.624.501,1.247,1.127,1.247.501,0,1.127-.624,1.127-1.247h0Z" fill="#282828" fill-rule="evenodd" />
  </g>
</svg>