<?xml version='1.0' encoding='utf-8'?>
<svg xmlns="http://www.w3.org/2000/svg" id="Layer_2" data-name="Layer 2" viewBox="0 0 18.72 20.04">
  <g id="Layer_1-2" data-name="Layer 1">
    <path d="M16.973,0H1.747C.749,0,0,.877,0,1.879v16.282c0,1.002.749,1.879,1.747,1.879h15.226c.998,0,1.747-.877,1.747-1.879V1.879c0-1.002-.749-1.879-1.747-1.879h0ZM17.597,18.161c0,.501-.374.626-.624.626H1.747c-.374,0-.499-.125-.499-.626V1.879c0-.376.125-.626.499-.626h15.226c.25,0,.624.25.624.626v16.282h0ZM14.102,7.891l.25-.501c0-.125-.25-.376-.25-.376-.25,0-.374,0-.624.25v.376c-.374-.25-.624,0-.624.251l-1.498,5.511,1.997.626,1.373-5.761c0-.25-.25-.376-.624-.376h0ZM15.101,8.267h-.25l-.749,3.006h.374l.749-2.755q0-.25-.125-.25h0ZM11.981,15.406s.374-.501.749-.877l-1.248-.25c.25.501.499,1.127.499,1.127h0ZM9.485,14.905c-.25-.125-.374-.125-.624-.125-.125,0-.374,0-.749.125-.125.25-.374.501-.499.501v-.501c.125-.125.125-.376,0-.626h-.25c-.25,0-.624.501-.998.877-.374.25-.499.626-.749.626,0-.25.374-1.002.374-1.503.374-.626.374-.751.25-.751q0-.25-.25,0c-.125,0-.499.376-.749.626-.624.626-1.123,1.002-1.498.751,0,0-.25,0-.25.25v.25c.624.125,1.373-.501,1.997-1.127.125,0,.125-.125.374-.376v.25c-.374.751-.624,1.378-.374,1.879h.125c.25,0,.374-.25.749-.626.374-.501.624-.626.749-.626v.751l.25.25c.25,0,.374-.25.749-.376.25-.25.624-.501.624-.501.125,0,.125.25.374.25,0,.25.125.25.499.25h1.997v-.25h-1.997s-.125,0-.125-.25h0ZM3.494,5.386h11.731v-1.127H3.494v1.127h0ZM10.858,6.638H3.494v1.253h7.363v-1.253h0ZM10.858,9.77H3.494v1.252h7.363v-1.252h0Z" fill="#282828" fill-rule="evenodd" />
  </g>
</svg>