<?xml version='1.0' encoding='utf-8'?>
<svg xmlns="http://www.w3.org/2000/svg" id="Layer_2" data-name="Layer 2" viewBox="0 0 20.04 17.4">
  <g id="Layer_1-2" data-name="Layer 1">
    <path d="M1.253,16.148c0,.751.501,1.252,1.378,1.252.626,0,1.253-.501,1.253-1.252v-7.01H1.253v7.01h0ZM3.883,1.001c0-.501-.626-1.001-1.253-1.001-.877,0-1.378.501-1.378,1.001v3.505h2.63V1.001h0ZM4.634,5.508H.501c-.376,0-.501.125-.501.376v1.752c0,.375.125.501.501.501h4.133c.376,0,.626-.125.626-.501v-1.752c0-.25-.25-.376-.626-.376h0ZM11.272,1.001c0-.501-.501-1.001-1.378-1.001-.626,0-1.253.501-1.253,1.001v9.388h2.63V1.001h0ZM8.642,16.148c0,.751.626,1.252,1.253,1.252.877,0,1.378-.501,1.378-1.252v-1.252h-2.63v1.252h0ZM12.024,11.391h-4.258c-.25,0-.501.125-.501.25v1.752c0,.375.251.626.501.626h4.258c.251,0,.501-.25.501-.626v-1.752c0-.125-.25-.25-.501-.25h0ZM16.032,16.148c0,.626.501,1.252,1.253,1.252.626,0,1.378-.626,1.378-1.252V5.758h-2.63v10.39h0ZM18.662,1.001c0-.501-.752-1.001-1.378-1.001-.752,0-1.253.501-1.253,1.001v.375h2.63v-.375h0ZM19.539,2.253h-4.384c-.376,0-.501.125-.501.501v1.627c0,.375.125.501.501.501h4.384c.125,0,.501-.125.501-.501v-1.627c0-.375-.376-.501-.501-.501h0Z" fill="#282828" fill-rule="evenodd" />
  </g>
</svg>