<?xml version='1.0' encoding='utf-8'?>
<svg xmlns="http://www.w3.org/2000/svg" id="Layer_2" data-name="Layer 2" viewBox="0 0 18.84 19.92">
  <g id="Layer_1-2" data-name="Layer 1">
    <path d="M16.077,2.864c-1.758-1.867-4.019-2.864-6.531-2.864C4.27,0,0,4.482,0,9.96c0,5.603,4.27,9.96,9.546,9.96,2.512,0,4.773-.871,6.531-2.739,1.758-1.992,2.763-4.482,2.763-7.221,0-2.615-1.005-5.229-2.763-7.096h0ZM15.574,16.434c-1.633,1.743-3.894,2.739-6.029,2.739C4.773,19.173.879,15.064.879,9.96.879,4.98,4.773.872,9.546.872c2.135,0,4.396.871,6.029,2.615,1.633,1.743,2.512,4.108,2.512,6.474,0,2.615-.879,4.731-2.512,6.474h0ZM14.946,4.357c-1.507-1.618-3.391-2.365-5.401-2.365C5.275,1.992,1.884,5.603,1.884,9.96c0,1.37.251,2.739.879,3.86q0,.125.126.249h0c.377.622.754,1.12,1.256,1.618,1.382,1.618,3.391,2.365,5.401,2.365s3.894-.747,5.401-2.365c1.507-1.37,2.261-3.486,2.261-5.727,0-2.116-.754-4.108-2.261-5.603h0ZM14.318,15.189c-1.256,1.245-2.889,2.116-4.773,2.116s-3.517-.871-4.898-2.116c-.377-.374-.754-.872-1.005-1.369,1.507-1.743,3.517-2.739,5.652-2.864v.996c-.502.125-.879.623-.879,1.37s.377,1.245.879,1.369v1.619c0,.125.126.374.251.374.251,0,.502-.249.502-.374v-1.619c.502-.249.754-.747.754-1.369s-.251-1.121-.754-1.37v-.996c2.01.125,3.894,1.12,5.401,2.739-.377.622-.628,1.12-1.13,1.494h0ZM9.546,12.823c.251,0,.628.125.628.498s-.377.623-.628.623-.502-.249-.502-.623.251-.498.502-.498h0ZM10.048,10.084v-3.61c0-.125-.251-.249-.502-.249-.126,0-.251.125-.251.249v3.486c-2.261.125-4.396,1.245-6.029,2.988-.377-.996-.502-1.992-.502-2.988,0-3.859,3.014-7.221,6.782-7.221,1.884,0,3.517.747,4.773,2.241,1.382,1.245,2.135,3.113,2.135,4.98,0,.996-.251,1.992-.628,2.988-1.633-1.743-3.642-2.739-5.778-2.864h0ZM9.546,3.86q-.251,0-.251.124v.996q0,.125.251.125.126,0,.126-.125v-.996q0-.124-.126-.124h0ZM11.053,3.984s-.126,0-.126.249l-.251.872q0,.249.126.374c.126,0,.251-.125.251-.125l.126-.996c0-.125,0-.374-.126-.374h0ZM12.183,4.855l-.377.747s0,.125.126.374q.126,0,.126-.249l.502-.747c.126-.125,0-.249,0-.249-.126,0-.377,0-.377.125h0ZM13.69,5.603h-.251l-.628.747c-.126,0-.126.125,0,.373h.251l.628-.871c.126,0,.126-.125,0-.249h0ZM14.57,6.972c0-.125-.126-.125-.126-.125l-.879.498s-.126.125,0,.249l.126.125.251-.125.628-.374s.251-.249,0-.249h0ZM15.072,8.715c.126,0,.126-.125.126-.249s-.126-.125-.126-.125l-.879.249c-.126,0-.126.125-.126.125,0,.125.126.125.126.125h.126l.754-.125h0ZM14.318,9.96l-.126.125c0,.125.126.249.126.249h.879c.251,0,.377-.125.377-.249,0,0-.126-.125-.377-.125h-.879ZM8.038,3.984c-.126,0-.126.249-.126.374l.126.996c.126,0,.126.125.377.125v-.125q.126,0,.126-.249l-.377-.872c0-.249-.126-.249-.126-.249h0ZM6.531,4.731c-.126,0-.126.125,0,.249l.502.747q0,.249.126.249c.126-.249.126-.374.126-.374l-.377-.747c0-.125-.126-.125-.377-.125h0ZM6.28,6.35l-.628-.747h-.251c-.251.125-.251.249,0,.249l.628.871h.251c.126-.249.126-.373,0-.373h0ZM4.522,6.972c-.126,0-.126.249,0,.249l.754.374c0,.125.126.125.126.125l.126-.125v-.249l-.879-.498s-.126,0-.126.125h0ZM4.898,8.591l-.879-.249q-.251,0-.251.125c-.126.125,0,.249,0,.249l1.005.125h.126s.126,0,.126-.125c0,0,0-.125-.126-.125h0ZM4.898,9.96h-1.13s-.251.125-.251.249l.251.125h1.13l.126-.125c0-.125-.126-.249-.126-.249h0Z" fill="#282828" fill-rule="evenodd" />
  </g>
</svg>