<?xml version='1.0' encoding='utf-8'?>
<svg xmlns="http://www.w3.org/2000/svg" id="Layer_2" data-name="Layer 2" viewBox="0 0 15 19.92">
  <g id="Layer_1-2" data-name="Layer 1">
    <path d="M7.438,6.723v5.354h4.959v-.249c0-2.863-2.231-5.104-4.959-5.104h0ZM6.942,17.43h.992v-1.369h-.992v1.369h0ZM2.603,12.201h1.24v-.996h-1.24v.996h0ZM12.893,6.35l.744-.872c.372-.249.372-.623,0-.872l-.62-.747c-.124-.249-.62-.249-.868.124l-.868.996c-.868-.374-1.612-.872-2.603-.996v-1.245h1.24c.372,0,.496-.249.496-.747V.623c0-.249-.124-.623-.496-.623h-4.835c-.496,0-.62.374-.62.623v1.369c0,.498.124.747.62.747h.992v1.245c-.868.125-1.736.623-2.479.996l-1.116-.996c-.124-.373-.496-.373-.868,0l-.496.747c-.248.125-.248.623,0,.747l.868.872c-1.116,1.618-1.983,3.361-1.983,5.478,0,4.482,3.347,8.093,7.438,8.093s7.562-3.61,7.562-8.093c0-2.116-.868-4.108-2.107-5.478h0ZM7.438,18.426c-3.347,0-6.074-2.864-6.074-6.599,0-3.61,2.727-6.474,6.074-6.474,3.471,0,6.074,2.864,6.074,6.474,0,3.735-2.603,6.599-6.074,6.599h0Z" fill="#282828" fill-rule="evenodd" />
  </g>
</svg>