<?xml version='1.0' encoding='utf-8'?>
<svg xmlns="http://www.w3.org/2000/svg" id="Layer_2" data-name="Layer 2" viewBox="0 0 8.437 11.945">
  <g id="Layer_1-2" data-name="Layer 1">
    <path d="M2.427,8.321c.25.5,1.503.375,2.88-.375l2.254,3.999.877-.5-2.379-4.123c1.252-1,2.129-1.999,1.753-2.624-.25-.25-.877-.25-1.878,0l-1.753-3.124c.376-.625.751-1,.626-1.375-.376-.375-1.628-.25-2.88.625C.549,1.699-.203,2.698.048,3.323c.25.25.626.25,1.377.125l1.878,3.124c-.751.75-1.127,1.374-.877,1.749h0Z" fill="#282828" fill-rule="evenodd" />
  </g>
</svg>