<?xml version='1.0' encoding='utf-8'?>
<svg xmlns="http://www.w3.org/2000/svg" id="Layer_2" data-name="Layer 2" viewBox="0 0 9.48 20.04">
  <g id="Layer_1-2" data-name="Layer 1">
    <path d="M7.983,10.897V1.879c0-1.002-.748-1.879-1.871-1.879h-2.744c-1.123,0-1.871.877-1.871,1.879v9.018c-.998,1.002-1.497,2.38-1.497,3.883,0,2.881,2.121,5.26,4.74,5.26s4.74-2.38,4.74-5.26c0-1.503-.624-2.881-1.497-3.883h0ZM4.74,18.287c-1.746,0-3.243-1.628-3.243-3.507,0-1.002.624-2.004,1.247-2.756.249-.125.374-.376.374-.626V1.879c0-.125.125-.25.249-.25h2.744c.125,0,.249.125.249.25v9.519c0,.25.125.501.374.626.748.626,1.247,1.628,1.247,2.756,0,1.879-1.497,3.507-3.243,3.507h0ZM5.488,12.4v-6.388c0-.376-.374-.751-.748-.751-.499,0-.873.376-.873.751v6.388c-.873.376-1.372,1.253-1.372,2.255,0,1.378.873,2.38,2.245,2.38,1.247,0,2.245-1.002,2.245-2.38,0-1.002-.624-1.879-1.497-2.255h0Z" fill="#282828" fill-rule="evenodd" />
  </g>
</svg>