<?xml version='1.0' encoding='utf-8'?>
<svg xmlns="http://www.w3.org/2000/svg" id="Layer_2" data-name="Layer 2" viewBox="0 0 13.137 20.006">
  <g id="Layer_1-2" data-name="Layer 1">
    <path d="M2.992,11.489h7.153c-.125-4.246,1.631-8.117,1.631-8.117-1.882-.749-1.631-3.372-1.631-3.372h-1.129c0,2.872-2.384,2.872-2.384,2.872,0,0-2.51,0-2.51-2.872h-1.129s.251,2.623-1.631,3.372c0,0,1.757,3.871,1.631,8.117h0ZM12.027,17.733c-.627-.874-1.38-2.872-1.757-4.621H2.866c-.251,1.748-1.129,3.747-1.757,4.621-2.761,3.747.502,1.624.502,1.624,0,0,.753,1.374,1.631.125,0,0,1.004,1.249,1.757-.125,0,0,.753,1.249,1.631,0,.753,1.249,1.506,0,1.506,0,.753,1.374,1.757.125,1.757.125.878,1.249,1.631-.125,1.631-.125,0,0,3.263,2.123.502-1.624h0Z" fill="#282828" fill-rule="evenodd" />
  </g>
</svg>