<?xml version='1.0' encoding='utf-8'?>
<svg xmlns="http://www.w3.org/2000/svg" id="Layer_2" data-name="Layer 2" viewBox="0 0 11.04 19.92">
  <g id="Layer_1-2" data-name="Layer 1">
    <path d="M7.025,11.33c-.251-.249-.251,0-.502,0v-3.735c.878-.249,1.38-1.12,1.38-1.867,0-1.37-1.129-2.241-2.258-2.241-1.38,0-2.133.871-2.133,2.241,0,.747.502,1.618,1.129,1.867v2.365h-.376c-.502,0-.753.249-.753.623h-.627c-.251,0-.502.249-.753.747,0,0-.376-.249-.627,0-.251,0-.753.249-.753.871v1.868c0,.498.251.747.251.996l.251,1.619c.251.373.251.622.251.871v2.116s0,.249.251.249l.376-.249v-2.116c0-.249,0-.498-.376-1.12l-.251-1.37v-2.864q0-.374.251-.374h.376v.374l.251.249c.251,0,.251-.249.251-.249v-.622c0-.249.251-.498.251-.498q.251,0,.251.249.376,0,.376.249s0,.249.251.249l.251-.249v-.747s0-.249.251-.249h.376v.249c0,.249.251.249.251.249q.251,0,.251-.249v-5.104c0-.374.251-.374.251-.623q.251,0,.627.249v6.847s0,.249.251.249.251-.249.251-.249c0,0,0-.374.251-.374h.251s.376,0,.376.374v2.116c0,.249-.376.249-.376.498l-.251,2.241c-.251.249-.251.498-.251.747v1.867l.251.249c.251,0,.251-.249.251-.249v-1.867c0-.249.376-.498.376-.747l.251-1.992c.251-.249.251-.498.251-.747v-2.116c0-.622-.251-.871-.878-.871h0ZM6.273,4.855c-.251-.249-.627-.249-.878-.249-.251.249-.753.498-.753,1.121v.996c-.376-.249-.627-.498-.627-.996,0-1.121.627-1.619,1.631-1.619.878,0,1.756.498,1.756,1.619,0,.498-.376.747-.878.996v-.996c0-.374,0-.623-.251-.872h0ZM.251,5.104h.251c0-.249,0-.498.251-.872l-.251-.249q-.251,0-.251.249-.251.374-.251.623t.251.249H.251ZM9.911,3.486h.627s.376-.249,0-.249c0-.249,0-.498-.251-.498,0-.249-.376-.249-.376-.249q-.251.249-.251.498c.251,0,.251.249.251.498h0ZM1.882,1.743h.251c.251,0,.251-.249.502-.249v-.373h-.502s-.251.249-.251.373c-.251,0-.251.249,0,.249h0ZM.753,3.486q.251,0,.251-.249s.376-.249.376-.498c.251,0,0-.249,0-.249h-.627c0,.249,0,.498-.251.498,0,.249,0,.498.251.498h0ZM10.789,3.984q-.251.374-.251.623v.623l.251.249c.251,0,.251-.249.251-.249v-.872l-.251-.374h0ZM6.9.747c.376,0,.627,0,.627.374h.251s.376,0,.376-.374c0,0,0-.249-.376-.249q-.251-.249-.502-.249-.376,0-.376.249c-.251,0,0,.249,0,.249h0ZM5.395.623h.502q.251,0,.251-.374s0-.249-.251-.249h-.502c-.251,0-.251.249-.251.249q0,.374.251.374h0ZM4.391.747V.249h-.251c-.376,0-.627,0-.627.249q-.376,0-.376.249l.376.374c.251-.374.627-.374.878-.374h0ZM9.158,1.867v.249q.251,0,.251-.249c.251,0,.251-.249,0-.249,0-.249-.251-.249-.502-.498h-.251c-.251.249,0,.498,0,.498.251,0,.251.249.502.249h0ZM.753,6.723c0-.249-.251-.249-.251-.498s0-.249-.251-.249l-.251.249c0,.249,0,.498.251.747h.251s.251,0,.251-.249h0ZM8.907,9.462q-.251,0-.502.249v.249c0,.249.251.249.251.249h.251c0-.249.251-.249.251-.498.251,0,.251-.249.251-.249-.251-.374-.502-.374-.502,0h0ZM9.66,8.342v.623h.627c0-.374.251-.623.251-.996v-.249h-.627c0,.249-.251.623-.251.623h0ZM2.635,9.96v-.249q-.251-.249-.502-.623h-.251q-.251.374,0,.623s.251.249.502.249v.249l.251-.249h0ZM7.276,10.209s-.251.249,0,.249q0,.249.376.249c.251,0,.251-.249.251-.249,0-.249-.251-.249-.627-.249h0ZM1.004,8.964q.376,0,.376-.249s.251-.374,0-.374q0-.249-.376-.498s-.251-.374-.251,0c-.251,0-.251.249-.251.249q.251.249.502.623v.249h0ZM10.789,5.976l-.251.249v.498c-.251.249,0,.498,0,.498h.251l.251-.249v-.498c0-.249,0-.498-.251-.498h0ZM5.645,1.618C3.262,1.618,1.631,3.237,1.631,5.603c0,1.369.753,2.739,1.882,3.486h.251s.251,0,.251-.249c0,0,0-.249-.251-.249-1.004-.747-1.631-1.868-1.631-2.988,0-1.867,1.631-3.486,3.513-3.486s3.262,1.619,3.262,3.486c0,1.12-.627,2.241-1.631,2.988,0,0-.251.249,0,.249,0,.249.251.249.251.249,1.38-.747,2.133-2.116,2.133-3.486,0-2.365-1.882-3.984-4.015-3.984h0Z" fill="#282828" fill-rule="evenodd" />
  </g>
</svg>