<?xml version='1.0' encoding='utf-8'?>
<svg xmlns="http://www.w3.org/2000/svg" id="Layer_2" data-name="Layer 2" viewBox="0 0 13.92 19.964">
  <g id="Layer_1-2" data-name="Layer 1">
    <path d="M7.333,3.306c.497,0,.746-.125,1.243-.501.373-.25.497-.626.497-1.127,0-.376,0-.877-.373-1.127-.249-.376-.746-.501-.994-.501-.497-.125-.994,0-1.243.25-.373.376-.621.751-.621,1.252s.124.751.373,1.127c.373.25.621.501,1.119.626h0ZM13.92,16.582l-.497-5.01h-.87v-.626c0-.376-.124-.501-.373-.501.249-.125.373-.376.373-.501,0-.376-.124-.501-.373-.626l-2.237-1.503-1.491-3.382c-.373-.501-.87-.751-1.491-.751-.249-.125-.746,0-.994.25l-3.231,2.755q-.124.125-.373.25l-.746,3.382v.125q-.124,0-.249.376v.751H.373l-.373,5.01h2.113l-.87,1.628c-.249.125-.249.25-.249.501-.124.25,0,.626.249.751.249.376.373.376.746.501.373,0,.746-.125.994-.626l1.616-2.756h.249l-.124-.376.497-.626.249-.501.497-2.505,2.486,2.505.497,3.883c.249.501.497.877,1.119,1.002.373,0,.497-.125.746-.25.124-.25.373-.501.373-.877v-.125l-.373-2.129h3.107ZM3.231,11.572h-1.616v-.376c0-.25.124-.25.124-.25h.249c.124.125.249.125.373.125.373.125.497,0,.621-.125v.125q.249.125.249.376v.125h0ZM3.977,11.572h-.497c0-.376-.124-.501-.124-.626,0-.376,0-.501-.124-.501l.621-2.63.994-1.002-.87,4.76h0ZM12.056,10.821s.124.125.124.25v.501h-1.367v-.376q0-.25.124-.25h.497c.124,0,.497-.125.621-.125h0ZM10.564,10.821v.751h-.994l-.124,1.503-1.989-2.255.621-3.507.746,1.253s0,.25.124.25l2.237,1.628h-.373q-.124,0-.249.376h0Z" fill="#282828" fill-rule="evenodd" />
  </g>
</svg>