<?xml version='1.0' encoding='utf-8'?>
<svg xmlns="http://www.w3.org/2000/svg" id="Layer_2" data-name="Layer 2" viewBox="0 0 20.11 19.2">
  <g id="Layer_1-2" data-name="Layer 1">
    <path d="M10.844.878v-.878h-1.628v.878C4.583,1.255.701,4.769.075,9.412q-.125.627.25,0c.501-1.129,1.628-1.883,3.005-1.883s2.63.879,3.13,2.008c.25.753.125.753.501,0,.376-.878,1.252-1.632,2.254-1.883v8.031c0,1.004-.877,1.757-1.753,1.757h-.626c-.877,0-1.753-.753-1.753-1.757h-1.628c0,1.882,1.503,3.514,3.381,3.514h.626c1.878,0,3.381-1.631,3.381-3.514V7.655c1.002.251,1.878,1.004,2.254,1.883q.25.753.501,0c.501-1.129,1.753-2.008,3.13-2.008s2.504.753,3.005,1.883q.376.627.25,0C19.233,4.769,15.477,1.255,10.844.878h0ZM20.11,8.408h0q0,.125,0,0h0Z" fill="#282828" fill-rule="evenodd" />
  </g>
</svg>