<?xml version='1.0' encoding='utf-8'?>
<svg xmlns="http://www.w3.org/2000/svg" id="Layer_2" data-name="Layer 2" viewBox="0 0 16.68 20.04">
  <g id="Layer_1-2" data-name="Layer 1">
    <path d="M16.68,14.529q0,.125-.125.25l-6.898,5.26h-.376c-.125-.125-.125-.25,0-.376l1.38-3.507v-.125h-3.135c-4.139,0-7.525-3.382-7.525-7.515v-1.002C0,3.382,3.386,0,7.525,0h7.525v3.507h-7.525c-2.257,0-4.013,1.879-4.013,4.008v1.002c0,2.254,1.756,4.008,4.013,4.008h3.01l-1.254-3.256c-.125-.125-.125-.25,0-.25.125-.125.251-.125.376,0l6.898,5.26q.125.125.125.25h0Z" fill="#282828" fill-rule="evenodd" />
  </g>
</svg>