<?xml version='1.0' encoding='utf-8'?>
<svg xmlns="http://www.w3.org/2000/svg" id="Layer_2" data-name="Layer 2" viewBox="0 0 20.04 19.08">
  <g id="Layer_1-2" data-name="Layer 1">
    <path d="M18.286,7.482h-8.267v-2.494C10.02,2.245,7.766,0,5.01,0S0,2.245,0,4.988v3.367c0,.374.376.748.751.748.501,0,.877-.374.877-.748v-3.367c0-1.871,1.503-3.367,3.382-3.367,1.753,0,3.257,1.497,3.257,3.367v2.494c-.877,0-1.628.748-1.628,1.621v8.355c0,.873.751,1.621,1.628,1.621h10.02c1.002,0,1.754-.748,1.754-1.621v-8.355c0-.873-.751-1.621-1.754-1.621h0ZM18.286,17.459h-10.02v-8.355h10.02v8.355h0ZM12.525,13.842v1.122c0,.499.376.873.751.873.501,0,.877-.374.877-.873v-1.122c.501-.249.877-.748.877-1.372,0-.873-.751-1.621-1.754-1.621-.877,0-1.628.748-1.628,1.621,0,.624.376,1.122.877,1.372h0Z" fill="#282828" fill-rule="evenodd" />
  </g>
</svg>