<?xml version='1.0' encoding='utf-8'?>
<svg xmlns="http://www.w3.org/2000/svg" id="Layer_2" data-name="Layer 2" viewBox="0 0 18.809 20.04">
  <g id="Layer_1-2" data-name="Layer 1">
    <path d="M18.684,8.768c-.125-1.002-.499-2.004-.998-3.006-.624-1.002-1.372-1.879-2.121-2.505-.749-.626-1.622-1.002-2.246-1.378-.749-.25-1.248-.376-1.747-.376-.374-.125-.624-.125-.624-.125,0,0,.25,0,.624.125s.998.376,1.622.751c.624.25,1.372.752,1.996,1.378.749.626,1.372,1.503,1.872,2.38.624,1.002.873,1.879,1.123,2.881.125.376.125.877.125,1.252.125.501.125.877.125,1.252-.125.626-.125,1.252-.25,1.628-.125.376-.125.626-.125.626,0,0,.125-.125.25-.501.125-.501.25-1.002.374-1.754.125-.376.125-.751.125-1.252,0-.376,0-.877-.125-1.378h0ZM16.563,12.65l.25-.501c0-.25.125-.751.25-1.252,0-.626,0-1.252-.125-2.004-.125-.751-.374-1.503-.749-2.255-.499-.751-.998-1.378-1.622-1.879-.499-.501-1.123-.877-1.622-1.127s-.998-.376-1.248-.376c-.374-.125-.499-.125-.499-.125,0,0,.125,0,.499.125.25.125.624.376,1.123.626s.998.626,1.497,1.127c.499.501.998,1.127,1.372,1.879.499.626.749,1.378.873,2.129.125.626.25,1.252.25,1.879,0,.501-.125,1.002-.125,1.252s-.125.501-.125.501h0ZM15.191,10.271c0-.376-.125-.751-.125-1.252-.125-.501-.374-1.002-.624-1.503-.25-.376-.624-.877-.873-1.127-.374-.376-.749-.626-1.123-.751-.624-.376-.998-.501-.998-.501,0,0,.374.25.998.626.499.376,1.248,1.002,1.747,2.004.499.877.749,1.754.749,2.505.125.751,0,1.127,0,1.127,0,0,.25-.376.25-1.127h0ZM.842,13.652s-.125-.125-.125-.626c-.125-.376-.25-.877-.25-1.628s0-1.628.125-2.505c.25-1.002.624-1.879,1.123-2.881.624-.877,1.248-1.753,1.872-2.38.749-.626,1.497-1.127,2.121-1.378.624-.376,1.248-.626,1.622-.751.374-.125.624-.125.624-.125,0,0-.25,0-.749.125-.374,0-.998.125-1.622.376-.749.25-1.497.752-2.246,1.378-.873.626-1.622,1.378-2.121,2.38C.593,6.763.218,7.765.094,8.768c-.125,1.002-.125,1.879,0,2.63s.374,1.378.499,1.754c.125.376.25.501.25.501h0ZM7.205,3.257c-.25,0-.749.125-1.248.376s-1.123.626-1.747,1.002c-.499.501-1.123,1.127-1.497,1.879-.499.877-.749,1.628-.873,2.38s-.125,1.378,0,2.004c0,.501.125,1.002.25,1.252.125.376.125.501.125.501,0,0,0-.125-.125-.501v-1.252c0-.626,0-1.252.125-1.879.25-.751.499-1.503.873-2.255.499-.626.998-1.252,1.497-1.753s.998-.877,1.497-1.127.873-.501,1.123-.626c.374-.125.499-.125.499-.125,0,0-.25,0-.499.125h0ZM4.71,7.765c.499-1.002,1.123-1.628,1.747-2.004.624-.501.998-.626.998-.626,0,0-.499.125-1.123.501-.25.125-.624.376-.998.626-.374.376-.624.751-.998,1.252-.25.501-.374,1.002-.499,1.503s-.125.877-.125,1.252c0,.751.125,1.127.125,1.127v-1.127c0-.751.25-1.628.873-2.505h0ZM16.064,16.783c-.374.25-.749.626-1.372,1.002-.624.376-1.372.752-2.246,1.127-.873.25-1.996.501-2.994.501-1.123,0-2.121-.25-2.994-.501-.873-.376-1.747-.752-2.246-1.127-.624-.376-1.123-.751-1.372-1.002-.374-.25-.499-.501-.499-.501,0,0,.125.25.374.501.25.376.624.877,1.248,1.252.624.501,1.372,1.002,2.246,1.378.998.376,1.996.626,3.244.626,1.123,0,2.246-.25,3.119-.626.998-.376,1.747-.877,2.246-1.378.624-.376.998-.877,1.248-1.252.25-.25.374-.501.374-.501,0,0-.125.25-.374.501h0ZM9.451,17.785c-.873,0-1.622-.125-2.371-.376-.624-.125-1.248-.501-1.747-.751-.374-.25-.749-.501-.998-.751-.25-.125-.374-.25-.374-.25,0,0,.125.125.25.376.25.25.624.501.998.877.499.376,1.123.626,1.747.877.749.25,1.622.501,2.495.501s1.622-.251,2.371-.501,1.248-.501,1.747-.877.749-.626.998-.877c.25-.25.25-.376.374-.376,0,0-.25.125-.374.25-.25.25-.624.501-1.123.751s-1.123.626-1.747.751c-.624.25-1.497.376-2.246.376h0ZM10.824,15.781c-.374.125-.873.25-1.372.25-1.123,0-1.996-.376-2.62-.626-.624-.25-.998-.626-.998-.626,0,0,.25.376.873.751.374.25.749.376,1.123.501.499.125.998.25,1.622.25.499,0,.998-.125,1.497-.25.499-.125.873-.25,1.123-.501.624-.376.998-.751.998-.751,0,0-.374.376-.998.626-.374.125-.749.25-1.248.376h0ZM10.449,8.642c-.125-2.255-.873-8.642-.873-8.642,0,0-.998,6.388-1.248,8.642.25-.125.624-.25,1.123-.25.374,0,.749.125.998.25h0ZM7.33,10.521v-.125C5.583,11.648.468,15.406.343,15.531c.125,0,5.989-2.38,8.11-3.257-.624-.376-1.123-1.002-1.123-1.753h0ZM11.447,10.521c0,.751-.374,1.503-1.123,1.753,2.121,1.002,7.86,3.507,8.11,3.507-.25-.125-5.115-4.008-6.987-5.386v.125h0ZM7.829,10.521c0,.751.499,1.378,1.123,1.503.125,0,.25.125.499.125.125,0,.25,0,.374-.125.749-.125,1.248-.751,1.248-1.503,0-.25,0-.376-.125-.501,0-.25-.125-.501-.374-.751s-.749-.501-1.123-.501c-.499,0-.873.25-1.248.501h0c-.125.25-.25.501-.374.751v.501h0Z" fill="#282828" fill-rule="evenodd" />
  </g>
</svg>