<?xml version='1.0' encoding='utf-8'?>
<svg xmlns="http://www.w3.org/2000/svg" id="Layer_2" data-name="Layer 2" viewBox="0 0 19.92 18.102">
  <g id="Layer_1-2" data-name="Layer 1">
    <path d="M9.587,7.887c.622-2.369,1.494-4.365,1.743-6.983C9.337.03,5.852-.593,3.984.903c-.498,2.245-1.245,4.24-1.743,6.485,2.49-.748,5.354-.374,7.346.499h0ZM12.575,2.15c-.747,2.12-1.37,4.49-1.992,6.734,1.494,1.497,5.354,1.497,7.47.499.747-2.12,1.12-4.614,1.867-6.734-2.365.748-5.478.624-7.345-.499h0ZM1.743,8.884c-.622,2.12-1.369,4.115-1.743,6.61,2.49-1.123,5.229-.499,7.47.499.249-2.494,1.245-4.365,1.618-6.859-1.618-1.122-5.478-1.497-7.346-.25h0ZM10.333,10.007c-.747,2.12-1.494,4.489-1.992,6.983,1.867,1.372,5.478,1.497,7.47.25.623-2.245,1.245-4.49,1.992-6.734-2.365.998-5.602.873-7.47-.499h0Z" fill="#282828" fill-rule="evenodd" />
  </g>
</svg>