<?xml version='1.0' encoding='utf-8'?>
<svg xmlns="http://www.w3.org/2000/svg" id="Layer_2" data-name="Layer 2" viewBox="0 0 20.04 19.153">
  <g id="Layer_1-2" data-name="Layer 1">
    <path d="M10.02,9.03c.751,0,1.628-.878,1.628-1.631,0-.878-.877-1.63-1.628-1.63s-1.503.752-1.503,1.63c0,.753.751,1.631,1.503,1.631h0ZM18.161,0H2.004C1.002,0,0,.752,0,2.007v10.661c0,1.254,1.002,2.258,2.004,2.258h3.006v3.135c0,1.254.626,1.38,1.378.627l2.755-3.763h9.018c1.127,0,1.879-1.003,1.879-2.258V2.007c0-1.254-.751-2.007-1.879-2.007h0ZM18.161,12.667H2.004V2.007h16.157v10.661h0ZM14.153,9.03c.751,0,1.503-.878,1.503-1.631,0-.878-.752-1.63-1.503-1.63-.877,0-1.628.752-1.628,1.63,0,.753.751,1.631,1.628,1.631h0ZM6.012,9.03c1.002,0,1.503-.878,1.503-1.631,0-.878-.501-1.63-1.503-1.63-.752,0-1.503.752-1.503,1.63,0,.753.752,1.631,1.503,1.631h0Z" fill="#282828" fill-rule="evenodd" />
  </g>
</svg>