<?xml version='1.0' encoding='utf-8'?>
<svg xmlns="http://www.w3.org/2000/svg" id="Layer_2" data-name="Layer 2" viewBox="0 0 125.111 93.653">
  <g id="Color" fill="#00ABF6">
    <path d="M43.654,4.793H4.695C2.102,4.793,0,6.895,0,9.487h38.959c2.593,0,4.695-2.102,4.695-4.695Z" />
    <path d="M86.152,9.487h38.959c0-2.593-2.102-4.695-4.695-4.695h-38.959c0,2.593,2.102,4.695,4.695,4.695Z" />
    <path d="M80.142,50.197h-35.172c-2.287,0-4.141,1.854-4.141,4.141v35.172c0,2.287,1.854,4.141,4.141,4.141h35.172c2.287,0,4.142-1.854,4.142-4.141v-35.172c0-2.287-1.854-4.141-4.142-4.141ZM78.949,75.068c0,.915-.742,1.657-1.657,1.657h-8.28c-.915,0-1.657.742-1.657,1.657v8.281c0,.915-.742,1.657-1.657,1.657h-6.287c-.915,0-1.657-.742-1.657-1.657v-8.281c0-.915-.742-1.657-1.657-1.657h-8.281c-.915,0-1.657-.742-1.657-1.657v-6.287c0-.915.742-1.657,1.657-1.657h8.281c.915,0,1.657-.742,1.657-1.657v-8.28c0-.915.742-1.657,1.657-1.657h6.287c.915,0,1.657.742,1.657,1.657v8.28c0,.915.742,1.657,1.657,1.657h8.28c.915,0,1.657.742,1.657,1.657v6.287Z" />
  </g>
  <g id="Grey" fill="#D3D3D3">
    <path d="M77.448,12.181h0c0-6.728-5.454-12.181-12.181-12.181h-5.421c-6.728,0-12.181,5.454-12.181,12.181h0c9.923-1.2,19.861-1.2,29.784,0Z" />
    <path d="M97.163,22.259c-23.071-6.849-46.143-6.849-69.214,0v-8.664h-12.243v18.03c0,3.371,2.637,6.262,6.007,6.323,3.433.063,6.236-2.702,6.236-6.12v-.481h9.125l-11.121,15.598c-.531.745-.881,1.603-1.021,2.507l-2.666,17.189c-.325,2.096,1.296,3.988,3.417,3.988,1.56,0,2.927-1.044,3.337-2.549l4.282-15.719,12.87-13.973h32.766l12.87,13.973,4.282,15.719c.41,1.505,1.777,2.549,3.337,2.549,2.121,0,3.743-1.892,3.417-3.988l-2.666-17.189c-.14-.904-.49-1.763-1.021-2.507l-11.121-15.598h9.125v.278c0,3.371,2.637,6.262,6.007,6.323,3.433.063,6.236-2.702,6.236-6.12V13.595h-12.243v8.664Z" />
  </g>
</svg>