<?xml version='1.0' encoding='utf-8'?>
<svg xmlns="http://www.w3.org/2000/svg" id="Layer_2" data-name="Layer 2" viewBox="0 0 123.273 69.593">
  <g id="Color" fill="#00ABF6">
    <path d="M54.338,42.86l-.063.063c-1.09,1.088-.882,2.907.421,3.727,2.059,1.296,4.445,1.989,6.938,1.989s4.879-.693,6.939-1.988c1.305-.82,1.513-2.641.424-3.73l-.059-.059c-.808-.808-2.05-.894-3.023-.297-1.276.783-2.746,1.201-4.281,1.201s-3.003-.418-4.277-1.201c-.972-.597-2.212-.512-3.02.294Z" />
    <path d="M50.202,50.025c-.967-.762-2.349-.679-3.22.191-1.037,1.037-.923,2.745.228,3.653,8.427,6.65,20.424,6.65,28.851,0,1.152-.909,1.266-2.616.228-3.653h0c-.87-.87-2.253-.953-3.22-.191-.127.1-.256.199-.387.296-6.521,4.888-15.567,4.888-22.095,0-.13-.097-.259-.195-.386-.296Z" />
    <path d="M80.602,57.732c-.07.061-.141.121-.212.182-10.808,9.07-26.7,9.07-37.5,0-.075-.063-.15-.127-.225-.19-.97-.828-2.409-.781-3.311.121-.993.993-.958,2.635.106,3.55,12.714,10.931,31.646,10.931,44.354-.001,1.063-.915,1.097-2.556.106-3.547-.904-.904-2.349-.949-3.317-.114Z" />
    <path d="M43.013,4.722H4.626C2.071,4.722,0,6.793,0,9.348h38.387c2.555,0,4.626-2.071,4.626-4.626Z" />
    <path d="M84.886,9.348h38.387c0-2.555-2.071-4.626-4.626-4.626h-38.387c0,2.555,2.071,4.626,4.626,4.626Z" />
  </g>
  <g id="Grey" fill="#D3D3D3">
    <circle cx="61.636" cy="34.536" r="4.498" transform="translate(-8.481 25.855) rotate(-22.205)" />
    <path d="M76.31,12.002h0c0-6.629-5.374-12.002-12.002-12.002h-5.342c-6.629,0-12.002,5.374-12.002,12.002h0c9.777-1.182,19.57-1.183,29.347,0Z" />
    <path d="M95.736,21.932c-22.733-6.75-45.466-6.75-68.199,0v-8.537h-12.062v17.762c0,3.325,2.596,6.175,5.921,6.235,3.378.06,6.141-2.663,6.141-6.034v-.475h8.992l-10.958,15.374c-.522.729-.863,1.579-1.003,2.469l-2.629,16.939c-.321,2.061,1.278,3.927,3.372,3.927.769,0,1.485-.254,2.067-.702.575-.442,1.017-1.064,1.218-1.806l4.222-15.494,12.678-13.762h7.573c-.395-1.024-.609-2.134-.609-3.292,0-5.064,4.114-9.179,9.179-9.179s9.179,4.114,9.179,9.179c0,1.157-.214,2.268-.609,3.292h7.573l12.678,13.762,4.221,15.494c.401,1.479,1.753,2.509,3.285,2.509,1.913,0,3.412-1.559,3.412-3.399,0-.174-.013-.348-.04-.529l-2.629-16.939c-.141-.89-.482-1.739-1.004-2.469l-10.958-15.374h8.991v.274c0,3.325,2.596,6.175,5.914,6.235,3.385.06,6.148-2.663,6.148-6.034V13.396h-12.062v8.537Z" />
  </g>
</svg>