<?xml version='1.0' encoding='utf-8'?>
<svg xmlns="http://www.w3.org/2000/svg" id="Layer_2" data-name="Layer 2" viewBox="0 0 124.129 124.129">
  <g id="Color" fill="#00ABF6">
    <path d="M122.664,48.659h-8.935c1.11,4.287,1.705,8.774,1.705,13.402,0,13.154-4.792,25.203-12.709,34.517L27.545,21.395c9.31-7.918,21.367-12.701,34.523-12.701,16.793,0,31.8,7.798,41.584,19.962h9.717c.341,0,.675.013,1.01.047C103.344,11.456,84.017,0,62.068,0S20.785,11.456,9.751,28.703c.334-.033.669-.047,1.01-.047h9.717c.302-.375.609-.746.92-1.113l75.181,75.182c-9.313,7.918-21.36,12.71-34.512,12.71-29.432,0-53.374-23.942-53.374-53.374,0-4.628.595-9.115,1.705-13.402H1.465c-.963,4.32-1.465,8.801-1.465,13.402,0,34.227,27.841,62.068,62.068,62.068s62.061-27.841,62.061-62.068c0-4.601-.502-9.082-1.465-13.402Z" />
  </g>
  <g id="Grey" fill="#D3D3D3">
    <path d="M62.396,32.963h-.662c-3.611,0-6.848,1.592-9.042,4.12l7.035,7.035c.789-.027,1.565-.04,2.341-.04,3.718,0,7.437.294,12.325.883,0-6.627-5.37-11.998-11.998-11.998Z" />
    <path d="M18.264,46.352v17.756c0,3.209,2.421,6.012,5.624,6.219,3.511.228,6.433-2.548,6.433-6.012v-.475h8.988l-9.731,13.525c-.445.618-.699,1.352-.731,2.113l-.548,12.974c-.094,2.216,1.678,4.064,3.896,4.064,1.849,0,3.444-1.298,3.819-3.109l2.252-10.875,10.005-9.082h9.577l-20.464-20.464c-2.307.555-4.661,1.19-7.062,1.906v-8.54h-12.058Z" />
    <path d="M99.438,70.327c3.511.227,6.433-2.548,6.433-6.012v-17.963h-12.064v8.54c-10.078-2.989-19.24-4.661-28.302-4.996l13.944,13.944h14.358v.267c0,3.21,2.428,6.012,5.631,6.219Z" />
    <path d="M19.742,35.344h-8.981c-3.103,0-5.624,2.521-5.624,5.624v1.003h21.233l-6.627-6.628Z" />
    <path d="M80.682,35.344v1.003c0,3.103,2.524,5.627,5.627,5.627h32.688v-1.003c0-3.103-2.524-5.627-5.627-5.627h-32.688Z" />
  </g>
</svg>