<?xml version='1.0' encoding='utf-8'?>
<svg xmlns="http://www.w3.org/2000/svg" id="Layer_2" data-name="Layer 2" viewBox="0 0 125.371 123.403">
  <g id="Color" fill="#00ABF6">
    <path d="M52.419,71.062c-.767-.617-1.908-.071-1.908.913v5.637h-7.037c-5.019,0-9.088-4.069-9.088-9.088v-.391c0-5.019,4.069-9.088,9.088-9.088h34.397c10.492,0,18.969-8.795,18.446-19.399-.489-9.921-9.049-17.538-18.982-17.538H25.006v9.381h52.545c4.836,0,9.065,3.641,9.388,8.466.354,5.291-3.85,9.71-9.067,9.71h-34.397c-10.2,0-18.469,8.269-18.469,18.469v.391c0,10.2,8.269,18.469,18.469,18.469h7.037v5.637c0,.985,1.14,1.531,1.908.914l12.835-10.328c.583-.469.583-1.358,0-1.827l-12.835-10.328Z" />
    <circle cx="86.247" cy="82.314" r="10.093" transform="translate(-11.878 14.597) rotate(-9.054)" />
  </g>
  <g id="Grey" fill="#D3D3D3">
    <path d="M121.926,18.53v-10.455c0-4.46-3.615-8.075-8.075-8.075H12.185C7.725,0,4.11,3.615,4.11,8.075v10.455c-2.27,0-4.11,1.84-4.11,4.11v9.483c0,2.27,1.84,4.11,4.11,4.11v79.096c0,4.46,3.615,8.075,8.075,8.075h101.666c4.46,0,8.075-3.615,8.075-8.075V46.325c1.902,0,3.445-1.542,3.445-3.445v-20.906c0-1.902-1.542-3.445-3.445-3.445ZM69.334,117.669h-12.632c-1.662,0-3.006-1.343-3.006-3.006s1.344-3.006,3.006-3.006h12.632c1.662,0,3.006,1.344,3.006,3.006s-1.344,3.006-3.006,3.006ZM111.866,102.558c0,1.856-1.51,3.352-3.366,3.352H17.536c-1.856,0-3.366-1.496-3.366-3.352V14.645c0-1.856,1.51-3.366,3.366-3.366h90.964c1.856,0,3.366,1.51,3.366,3.366v87.913Z" />
  </g>
</svg>