<?xml version='1.0' encoding='utf-8'?>
<svg xmlns="http://www.w3.org/2000/svg" id="Layer_2" data-name="Layer 2" viewBox="0 0 125.274 124.923">
  <g id="Color" fill="#00ABF6">
    <path d="M37.683,25.814h5.737c1.267,0,2.294-1.027,2.294-2.295v-13.194h33.845v13.194c0,1.267,1.027,2.295,2.295,2.295h5.736c1.267,0,2.295-1.027,2.295-2.295V5.163c0-2.851-2.311-5.163-5.163-5.163h-44.171c-2.851,0-5.163,2.312-5.163,5.163v18.357c0,1.267,1.027,2.295,2.295,2.295Z" />
  </g>
  <g id="Grey" fill="#D3D3D3">
    <path d="M113.163,33.101H12.11c-6.688,0-12.11,5.422-12.11,12.11v67.602c0,6.688,5.422,12.11,12.11,12.11h101.053c6.688,0,12.11-5.422,12.11-12.11V45.211c0-6.688-5.422-12.11-12.11-12.11ZM51.232,69.467c0-6.064,4.916-10.98,10.98-10.98h.85c6.064,0,10.98,4.916,10.98,10.98h0c-8.944-1.082-13.866-1.082-22.81,0h0ZM102.847,69.73v24.29c0,3.047-2.47,5.518-5.518,5.518h0c-3.047,0-5.518-2.47-5.518-5.518v-3.124h-16.162v5.29c0,1.461-1.184,2.645-2.645,2.645h-20.736c-1.461,0-2.645-1.184-2.645-2.645v-5.29h-16.162v3.124c0,3.047-2.47,5.518-5.518,5.518s-5.518-2.47-5.518-5.518v-24.29h-12.57c0-2.337,1.895-4.232,4.232-4.232h31.943c0,2.337-1.895,4.232-4.232,4.232h-8.338v8.821c20.796-6.174,37.555-6.174,58.35,0v-8.821h-8.338c-2.337,0-4.232-1.895-4.232-4.232h31.943c2.337,0,4.232,1.894,4.232,4.232h-12.57Z" />
  </g>
</svg>