<?xml version='1.0' encoding='utf-8'?>
<svg xmlns="http://www.w3.org/2000/svg" id="Layer_2" data-name="Layer 2" viewBox="0 0 124.448 104.566">
  <g id="Color" fill="#00ABF6">
    <path d="M41.076,4.905H4.805C2.151,4.905,0,7.056,0,9.71h36.271c2.654,0,4.805-2.151,4.805-4.805Z" />
    <path d="M88.177,9.71h36.271c0-2.654-2.151-4.805-4.805-4.805h-36.271c0,2.654,2.151,4.805,4.805,4.805Z" />
  </g>
  <g id="Grey" fill="#D3D3D3">
    <path d="M96.959,64.387c-.013.004-21.294,6.488-21.294,6.488.41,1.115.557,2.324.452,3.523-.358,4.143-3.765,7.372-7.918,7.498-2.334.084-24.102.894-24.102.894-1.208,0-2.272-.92-2.313-2.135-.042-1.241.925-2.271,2.145-2.303,5.258-.21,21.095-.799,24.123-.894,4.357-.169,4.881-6.641.61-7.487-3.239-.641-11.409-2.008-17.266-2.986-3.26-.536-6.415-1.872-9.128-3.87-7.612-5.636-15.014-5.321-20.27-3.799v-4.482c0-2.465-1.998-4.463-4.463-4.463H4.463c-2.465,0-4.463,1.998-4.463,4.463s1.998,4.463,4.463,4.463h8.608v36.344H4.463c-2.465,0-4.463,1.998-4.463,4.463s1.998,4.463,4.463,4.463h13.071c2.465,0,4.463-1.998,4.463-4.463v-10.55l19.166,4.834c4.743,1.188,9.758.662,14.122-1.483l44.345-21.725c.916-.453,1.566-1.279,1.859-2.215.292-.932.231-1.973-.271-2.864-.833-1.478-2.631-2.21-4.259-1.714Z" />
    <path d="M77.466,12.468c0-6.886-5.582-12.468-12.468-12.468h-5.549c-6.886,0-12.468,5.582-12.468,12.468h0c10.156-1.228,20.328-1.228,30.484,0Z" />
    <path d="M97.644,22.782c-23.614-7.01-47.227-7.01-70.841,0v-8.868h-12.53v18.661c0,3.46,2.805,6.265,6.265,6.265s6.265-2.805,6.265-6.265v-.492h18.352v6.006c0,1.659,1.345,3.003,3.003,3.003h28.13c1.659,0,3.003-1.344,3.003-3.003v-6.006h18.352v.492c0,3.46,2.805,6.265,6.265,6.265s6.265-2.805,6.265-6.265V13.915h-12.531v8.868Z" />
  </g>
</svg>