<?xml version="1.0" encoding="UTF-8"?>
<svg id="Layer_2" data-name="Layer 2" xmlns="http://www.w3.org/2000/svg" viewBox="0 0 48 44.472">
  <g id="Icon">
    <g>
      <path d="M19.364,39.057l-2.435-10.323H7.88l2.913,12.345c.472,2,2.265,3.408,4.32,3.392,2.826-.022,4.9-2.663,4.251-5.414Z" fill="#f3705a"/>
      <path d="M41.238,13.803c3.734,0,6.762,3.027,6.762,6.762s-3.027,6.762-6.762,6.762" fill="#415a6b"/>
      <path d="M38.802,41.13c-1.37,0-2.48-1.11-2.48-2.479V2.48c0-1.37,1.11-2.48,2.48-2.48s2.48,1.11,2.48,2.48v36.171c0,1.369-1.11,2.479-2.48,2.479Z" fill="#f3705a"/>
      <path d="M18.115,11.678v17.782c7.754,1.927,15.085,6.067,18.208,9.191V2.48c-3.123,3.123-10.454,7.269-18.208,9.198Z" fill="#e8eae9"/>
      <path d="M18.846,30.38h-9.031c-5.421,0-9.815-4.394-9.815-9.815h0c0-5.421,4.394-9.815,9.815-9.815h9.031c.547,0,.99.443.99.99v17.651c0,.547-.443.99-.99.99Z" fill="#415a6b"/>
    </g>
  </g>
</svg>