<?xml version="1.0" encoding="UTF-8"?>
<svg id="Layer_2" data-name="Layer 2" xmlns="http://www.w3.org/2000/svg" viewBox="0 0 41.8 48">
  <g id="Icon">
    <g>
      <path d="M0,45V3C0,1.343,1.343,0,3,0h28.104l10.697,10.697v34.303c0,1.657-1.343,3-3,3H3c-1.657,0-3-1.343-3-3Z" fill="#f3f3f3"/>
      <g>
        <rect x="4" y="28.554" width="33.801" height="2.517" fill="#ced6e0"/>
        <rect x="4" y="35.019" width="33.801" height="2.517" fill="#ced6e0"/>
        <rect x="4" y="41.484" width="33.801" height="2.517" fill="#ced6e0"/>
      </g>
      <polygon points="31.104 0 41.8 10.697 31.104 10.697 31.104 0" fill="#ced6e0"/>
      <g>
        <path d="M13.741,6.389c-5.38,0-9.741,4.362-9.741,9.742s4.362,9.742,9.742,9.742,9.742-4.362,9.742-9.742h0s-9.743-.001-9.743-.001V6.389Z" fill="#f3705a"/>
        <path d="M23.152,8.21c-1.758-2.542-4.69-4.209-8.014-4.209h0v9.741s8.015-5.531,8.015-5.531Z" fill="#8ad7f8"/>
        <path d="M13.741,16.131h9.743c0-2.056-.641-3.96-1.728-5.531l-8.015,5.531Z" fill="#ffd15c"/>
      </g>
    </g>
  </g>
</svg>