<?xml version="1.0" encoding="UTF-8"?>
<svg id="Layer_2" data-name="Layer 2" xmlns="http://www.w3.org/2000/svg" viewBox="0 0 48 48">
  <g id="Icon">
    <g>
      <path d="M48,27.539h-9.013v15.955c0,2.489,2.018,4.507,4.506,4.507h0c2.489,0,4.506-2.018,4.506-4.507v-15.955Z" fill="#ced6e0"/>
      <path d="M38.987,43.494V4.507c0-2.489-2.018-4.507-4.506-4.507H4.506C2.017,0,0,2.018,0,4.507v38.987c0,2.489,2.017,4.506,4.506,4.506h38.987c-2.489,0-4.507-2.018-4.507-4.506Z" fill="#f3f3f3"/>
      <g>
        <rect x="4" y="27.111" width="30.986" height="2.693" fill="#ced6e0"/>
        <rect x="4" y="34.209" width="30.986" height="2.693" fill="#ced6e0"/>
        <rect x="4" y="41.307" width="30.986" height="2.693" fill="#ced6e0"/>
      </g>
      <g>
        <path d="M20.111,4v9.973c0,.17-.07.33-.18.44l-7.05,7.051c1.762,1.555,4.07,2.505,6.605,2.505,5.523,0,10-4.477,10-10,0-5.312-4.145-9.644-9.375-9.968Z" fill="#f3705a"/>
        <path d="M18.861,13.343V4c-5.022.311-9.032,4.32-9.344,9.343h9.344Z" fill="#55c0eb"/>
        <path d="M9.517,14.593c.142,2.289,1.049,4.367,2.476,5.983l5.988-5.983h-8.464Z" fill="#ffd15c"/>
      </g>
    </g>
  </g>
</svg>