<?xml version="1.0" encoding="UTF-8"?>
<svg id="Layer_2" data-name="Layer 2" xmlns="http://www.w3.org/2000/svg" viewBox="0 0 48 48">
  <g id="Icon">
    <g>
      <g>
        <path d="M10.901,0L0,10.901v34.099c0,1.657,1.343,3,3,3h32.042c1.657,0,3-1.343,3-3V3c0-1.657-1.343-3-3-3H10.901Z" fill="#f3f3f3"/>
        <polygon points="10.901 0 0 10.901 10.901 10.901 10.901 0" fill="#ced6e0"/>
      </g>
      <g>
        <path d="M19.019,28.914c2.541,0,4.842-1.03,6.508-2.696l-6.508-6.508v9.204Z" fill="#ffd15c"/>
        <path d="M19.021,10.508v18.403c-5.084,0-9.205-4.12-9.205-9.198s4.12-9.205,9.205-9.205Z" fill="#f3705a"/>
        <path d="M28.226,19.712c0,2.542-1.033,4.84-2.699,6.506l-6.506-6.506v-9.205c2.542,0,4.84,1.027,6.506,2.693,1.666,1.666,2.699,3.97,2.699,6.512Z" fill="#66c6b9"/>
      </g>
      <g>
        <rect x="4" y="33.045" width="30.042" height="2.449" fill="#ced6e0"/>
        <rect x="4" y="39.75" width="30.042" height="2.449" fill="#ced6e0"/>
      </g>
      <g>
        <g>
          <rect x="33.445" y="34.177" width="5.186" height="3.722" transform="translate(-14.928 36.039) rotate(-45)" fill="#344a5e"/>
          <path d="M39.484,35.225l-4.259,4.259c-.568.568-.568,1.489,0,2.056l5.152,5.152c1.744,1.744,4.571,1.744,6.315,0s1.744-4.572,0-6.315l-5.152-5.152c-.568-.568-1.488-.568-2.056,0Z" fill="#f3705a"/>
        </g>
        <path d="M35.989,35.989c-5.024,5.024-13.198,5.024-18.222,0-5.024-5.024-5.024-13.198,0-18.222,5.024-5.024,13.198-5.024,18.222,0,5.024,5.024,5.024,13.198,0,18.222ZM20.301,20.301c-3.626,3.627-3.626,9.528,0,13.155s9.528,3.626,13.155,0,3.626-9.528,0-13.155c-3.626-3.627-9.528-3.627-13.155,0Z" fill="#415a6b"/>
      </g>
    </g>
  </g>
</svg>