<?xml version="1.0" encoding="UTF-8"?>
<svg id="Layer_2" data-name="Layer 2" xmlns="http://www.w3.org/2000/svg" viewBox="0 0 36.764 48">
  <g id="Icon">
    <g>
      <path d="M9.788,48L0,38.212V3C0,1.343,1.343,0,3,0h30.764c1.657,0,3,1.343,3,3v42c0,1.657-1.343,3-3,3H9.788Z" fill="#f3f3f3"/>
      <polygon points="9.788 48 0 38.212 9.788 38.212 9.788 48" fill="#adb3ba"/>
      <g>
        <g>
          <g>
            <polygon points="7.985 16.868 14.674 10.179 14.674 8.058 7.133 15.599 7.133 16.868 7.985 16.868" fill="#415a6b"/>
            <polygon points="20.563 12.632 16.155 8.225 16.155 10.346 20.563 14.753 20.563 12.632" fill="#415a6b"/>
            <polygon points="22.319 12.718 22.319 14.839 29.608 7.55 29.608 5.428 22.319 12.718" fill="#415a6b"/>
          </g>
          <path d="M8.667,17.429c0,1.272-1.031,2.303-2.303,2.303s-2.303-1.031-2.303-2.303,1.031-2.303,2.303-2.303,2.303,1.031,2.303,2.303Z" fill="#ffd15c"/>
          <path d="M17.607,8.532c0,1.272-1.031,2.303-2.303,2.303s-2.303-1.031-2.303-2.303,1.031-2.303,2.303-2.303,2.303,1.031,2.303,2.303Z" fill="#66c6b9"/>
          <path d="M23.861,14.566c0,1.272-1.031,2.303-2.303,2.303s-2.303-1.031-2.303-2.303,1.031-2.303,2.303-2.303,2.303,1.031,2.303,2.303Z" fill="#f3705a"/>
          <path d="M32.703,5.697c0,1.272-1.031,2.303-2.303,2.303s-2.303-1.031-2.303-2.303,1.031-2.303,2.303-2.303,2.303,1.031,2.303,2.303Z" fill="#8ad7f8"/>
        </g>
        <rect x="6.364" y="23.623" width="2.909" height="5.713" fill="#8ad7f8"/>
        <rect x="12.016" y="17.705" width="2.909" height="11.631" fill="#f3705a"/>
        <rect x="17.667" y="20.83" width="2.909" height="8.506" fill="#66c6b9"/>
        <rect x="23.319" y="19.459" width="2.909" height="9.878" fill="#ffd15c"/>
        <rect x="28.971" y="14.58" width="2.909" height="14.756" fill="#415a6b"/>
        <g>
          <rect x="4.569" y="33.361" width="27.626" height="2.449" fill="#ced6e0"/>
          <rect x="13.956" y="40.573" width="18.239" height="2.249" fill="#ced6e0"/>
        </g>
      </g>
    </g>
  </g>
</svg>