<?xml version="1.0" encoding="UTF-8"?>
<svg id="Layer_2" data-name="Layer 2" xmlns="http://www.w3.org/2000/svg" viewBox="0 0 48 48">
  <g id="Icon">
    <g>
      <rect x="14.037" y="39.635" width="19.926" height="3.443" fill="#344a5e"/>
      <path d="M10.746,35.557l-2.611,7.789c-.767,2.288.935,4.654,3.349,4.654,1.518,0,2.866-.97,3.349-2.409l3.363-10.034h-7.45Z" fill="#415a6b"/>
      <path d="M37.254,35.557h-7.45l3.363,10.034c.482,1.439,1.831,2.409,3.349,2.409,2.413,0,4.116-2.366,3.349-4.654l-2.611-7.789Z" fill="#415a6b"/>
      <path d="M2.558,5.116h42.884c1.413,0,2.558-1.145,2.558-2.558s-1.145-2.558-2.558-2.558H2.558C1.145,0,0,1.145,0,2.558s1.145,2.558,2.558,2.558Z" fill="#f3705a"/>
      <path d="M45.442,31.477H2.558c-1.413,0-2.558,1.145-2.558,2.558s1.145,2.558,2.558,2.558h42.884c1.413,0,2.558-1.145,2.558-2.558s-1.145-2.558-2.558-2.558Z" fill="#f3705a"/>
      <rect x="2.558" y="5.116" width="42.884" height="26.361" fill="#f3f3f3"/>
      <g>
        <polygon points="8.715 23.613 7.891 22.426 16.483 16.464 20.817 19.939 26.346 12.384 31.867 18.058 39.513 12.752 40.336 13.939 31.684 19.942 26.502 14.615 21.092 22.01 16.421 18.265 8.715 23.613" fill="#adb3ba"/>
        <path d="M18.216,17.365c0,.974-.79,1.764-1.764,1.764s-1.764-.79-1.764-1.764.79-1.764,1.764-1.764,1.764.79,1.764,1.764Z" fill="#ffd15c"/>
        <path d="M10.067,23.019c0,.974-.79,1.764-1.764,1.764s-1.764-.79-1.764-1.764.79-1.764,1.764-1.764,1.764.79,1.764,1.764Z" fill="#8ad7f8"/>
        <path d="M22.754,20.893c0,.974-.79,1.764-1.764,1.764s-1.764-.79-1.764-1.764.79-1.764,1.764-1.764,1.764.79,1.764,1.764Z" fill="#f3705a"/>
        <circle cx="26.476" cy="13.574" r="1.764" fill="#8ad7f8"/>
        <circle cx="31.768" cy="18.958" r="1.764" fill="#415a6b"/>
        <path d="M41.461,13.574c0,.974-.79,1.764-1.764,1.764s-1.764-.79-1.764-1.764.79-1.764,1.764-1.764,1.764.79,1.764,1.764Z" fill="#f3705a"/>
      </g>
    </g>
  </g>
</svg>