<?xml version="1.0" encoding="UTF-8"?>
<svg id="Layer_2" data-name="Layer 2" xmlns="http://www.w3.org/2000/svg" viewBox="0 0 46.634 48">
  <g id="Icon">
    <g>
      <path d="M19.248,47.879h0c-1.794.461-3.66-.428-4.432-2.111l-5.256-11.468,7.53-1.937,4.683,10.218c.993,2.167-.216,4.705-2.525,5.299Z" fill="#f3705a"/>
      <path d="M34.345,2.562l8.497,33.019h0c-7.246-4.362-23.31-3.683-23.31-3.683l-3.824-14.86s14.396-7.157,18.637-14.475h0Z" fill="#f3f3f3"/>
      <path d="M45.03,37.223c-1.142.294-2.307-.394-2.601-1.536L33.931,2.668c-.294-1.142.394-2.307,1.536-2.6s2.307.394,2.601,1.536l8.497,33.018c.294,1.142-.394,2.307-1.536,2.6Z" fill="#415a6b"/>
      <rect x="1.708" y="17.26" width="17.256" height="18.162" rx="1.301" ry="1.301" transform="translate(-6.237 3.406) rotate(-14.428)" fill="#415a6b"/>
      <g>
        <path d="M14.416,20.431h0c-.161-.626-.799-1.003-1.426-.842l-8.238,2.12c-.626.161-1.003.799-.842,1.425h0c.161.626.799,1.003,1.426.842l8.238-2.119c.626-.161,1.003-.799.842-1.426Z" fill="#344a5e"/>
        <path d="M15.589,24.99h0c-.161-.626-.799-1.003-1.426-.842l-8.238,2.119c-.626.161-1.003.799-.842,1.426h0c.161.626.799,1.003,1.426.842l8.238-2.12c.626-.161,1.003-.799.842-1.426Z" fill="#344a5e"/>
        <path d="M16.763,29.549h0c-.161-.626-.799-1.003-1.426-.842l-8.238,2.119c-.626.161-1.003.799-.842,1.426h0c.161.626.799,1.003,1.426.842l8.238-2.12c.626-.161,1.003-.799.842-1.426Z" fill="#344a5e"/>
      </g>
    </g>
  </g>
</svg>