<?xml version="1.0" encoding="UTF-8"?>
<svg id="Layer_2" data-name="Layer 2" xmlns="http://www.w3.org/2000/svg" viewBox="0 0 48 48">
  <g id="Icon">
    <g>
      <path d="M34.291,0H10.555L0,10.555v34.445c0,1.657,1.343,3,3,3h31.291c1.657,0,3-1.343,3-3V3c0-1.657-1.343-3-3-3Z" fill="#f3f3f3"/>
      <g>
        <rect x="4.907" y="33.356" width="27.477" height="2.231" fill="#ced6e0"/>
        <rect x="4.907" y="26.375" width="27.477" height="2.231" fill="#ced6e0"/>
        <rect x="4.907" y="19.394" width="27.477" height="2.231" fill="#ced6e0"/>
        <rect x="4.907" y="12.413" width="27.477" height="2.231" fill="#ced6e0"/>
        <rect x="14.65" y="5.431" width="17.734" height="2.231" fill="#ced6e0"/>
      </g>
      <polygon points="10.555 0 0 10.555 10.555 10.555 10.555 0" fill="#66c6b9"/>
      <g>
        <path d="M48,5.637l-.045-.559-13.062,2.869s-2.503,2.381-2.38,2.529c.122.149,8.118,4.124,8.118,4.124l7.37-.457V5.637Z" fill="#ffd15c"/>
        <path d="M48,12.893v-3.27c-2.552.794-7.444,2.332-10.132,3.27h10.132Z" fill="#f7b64c"/>
        <g>
          <path d="M48,0l-13.498,1.736c-1.631.21-3.025,1.272-3.66,2.789-1.017,2.432-2.53,5.99-3.241,7.374-1.125,2.19-.487,5.109-.487,5.109,0,0-.091,2.038,0,4.988.061,1.959,1.462,2.791,2.397,3.13.529.191,1.105.261,1.655.14.849-.187,1.764-.814,2.79-2.844,1.338-2.768.239-7.497.239-7.497,2.155-.532,4.566-4.851,4.566-4.851,5.079,1.429,7.147-1.916,7.147-1.916.475.831,1.326,1.357,2.091,1.683V0Z" fill="#ffd15c"/>
          <path d="M44.506,7.269c-2.207,2.242-5.896,2.128-8.019-.193-.699-.764-1.208-1.428-1.208-1.428,0,0,.979,1.599,1.257,2.57.818,2.649-1.126,5.47-4.463,4.945-.82-.269-2.622-.969-2.622-.969,0,0,1.945,1.037,2.698,1.832.809.859.895,2.151.93,3.33.035,1.05.065,2.1.099,3.146.018.566-.013,1.138-.171,1.682-.531,1.838-1.927,2.691-4.087,2.676.206.109.408.202.592.268.53.192,1.105.261,1.655.14.849-.187,1.764-.814,2.79-2.844,1.338-2.768.239-7.497.239-7.497,2.155-.532,4.566-4.851,4.566-4.851,5.079,1.429,7.147-1.916,7.147-1.916.475.831,1.326,1.357,2.091,1.683v-1.827c-.061,0-.122.004-.184.003-.27-.007-.532-.021-.788-.085-.568-.156-1.029-.568-1.413-1.022-.355-.419-.554-.802-.802-1.299.241.518.078,1.157-.263,1.611-.015.015-.03.03-.044.045Z" fill="#f7b64c"/>
        </g>
        <g>
          <g>
            <path d="M33.085,28.213c-2.083,1.281-2.041,2.628-1.882,3.24l6.258,1.756c.453-.439,1.185-1.57.073-3.747-1.09-2.135,1.781-5.532,3.43-7.23,1.304-1.337,2.298-2.961,2.762-4.77.006-.024.012-.048.019-.073,1.565-6.227-7.779-8.85-9.683-2.718-.007.024-.015.048-.022.072-.539,1.788-.541,3.69-.123,5.51.525,2.308,1.208,6.703-.833,7.959Z" fill="#415a6b"/>
            <path d="M42.383,12.576c-.04.01-.07,0-.1-.01-.03.1-.11.19-.22.22-.17.04-.37-.11-.37-.28-.05.01-.11.01-.16.01-.83.79-1.83,1.39-2.75,2.07-.99.73-1.94,1.61-2.38,2.76-.31.81-.34,1.69-.58,2.52-.11.37-.33.78-.71.81-.38.02-.65-.36-.79-.71-.12-.29-.2-.59-.29-.89-.16-.6-.421-1.212-.36-1.83.45-4.582,5.32-4.82,7.57-5.44.42.21.8.47,1.14.77Z" fill="#344a5e"/>
            <path d="M33.702,17.57s-.78,4.874,4.978,7.407c.73-1.064,1.609-2.048,2.285-2.744.388-.398.745-.824,1.073-1.271l-8.336-3.392Z" fill="#344a5e"/>
            <path d="M43.795,38.784h0c.546-1.944-.588-3.962-2.532-4.508l-13.865-3.892c-1.944-.546-3.962.588-4.508,2.532h0l20.905,5.867Z" fill="#344a5e"/>
          </g>
          <rect x="32.237" y="26.957" width="1.74" height="19.461" transform="translate(-11.161 58.651) rotate(-74.325)" fill="#f3705a"/>
        </g>
        <path d="M48,10.473c-3.258,1.015-9.735,3.057-11.382,3.749-2.59,1.088-2.606,4.146-2.279,5.559.38,1.644,1.88,3.679,6.799,3.319,0,0,3.678.091,6.863-.159v-12.468Z" fill="#ffd15c"/>
        <path d="M38.583,14.934c-1.574.137-2.897,1.309-3.123,2.872-.07.483-.073,1.042.032,1.684.005.031.01.061.016.092.289,1.678,2.581,3.083,4.298,2.647l2.257-.603c.63-.168,1.154-.634,1.342-1.259.499-1.656.362-3.233-.57-4.711-.35-.556-.99-.859-1.647-.845-.733.015-1.743.049-2.605.124Z" fill="#fff"/>
      </g>
      <g>
        <g>
          <path d="M13.903,42.877l-.199-.462h-.897l-.199.462h-.508l.925-2.14h.462l.924,2.14h-.508ZM13.257,41.373l-.27.621h.536l-.266-.621Z" fill="#f3705a"/>
          <path d="M16.134,40.928c.15.128.225.323.225.588s-.077.458-.231.58c-.154.122-.389.183-.705.183h-.285v.597h-.477v-2.14h.756c.328,0,.568.064.718.191ZM15.783,41.77c.057-.064.086-.158.086-.282s-.037-.211-.112-.263c-.075-.052-.19-.078-.347-.078h-.272v.72h.321c.159,0,.267-.032.324-.096Z" fill="#f3705a"/>
          <path d="M18.206,40.928c.15.128.225.323.225.588s-.077.458-.231.58c-.154.122-.389.183-.705.183h-.285v.597h-.477v-2.14h.756c.328,0,.567.064.718.191ZM17.855,41.77c.057-.064.086-.158.086-.282s-.037-.211-.112-.263c-.075-.052-.19-.078-.348-.078h-.272v.72h.321c.159,0,.267-.032.324-.096Z" fill="#f3705a"/>
          <path d="M20.539,41.447c0,.343-.136.564-.407.664l.541.765h-.587l-.474-.683h-.331v.683h-.477v-2.14h.81c.333,0,.57.056.712.168.142.112.213.293.213.542ZM19.964,41.701c.059-.053.089-.137.089-.253s-.031-.194-.092-.237c-.062-.043-.168-.064-.321-.064h-.358v.634h.349c.163,0,.275-.026.334-.08Z" fill="#f3705a"/>
          <path d="M22.808,42.581c-.216.211-.482.317-.799.317s-.583-.106-.799-.317c-.217-.211-.324-.474-.324-.788s.108-.577.324-.788c.216-.211.482-.317.799-.317s.582.106.799.317c.216.211.324.474.324.788s-.108.577-.324.788ZM22.645,41.794c0-.191-.061-.353-.183-.488-.122-.135-.273-.202-.452-.202s-.329.067-.451.202c-.122.135-.184.298-.184.488s.062.353.184.487c.122.134.273.2.451.2s.329-.067.452-.2c.122-.134.183-.296.183-.487Z" fill="#f3705a"/>
          <path d="M24.277,42.099l.545-1.362h.517l-.86,2.14h-.404l-.86-2.14h.517l.545,1.362Z" fill="#f3705a"/>
          <path d="M27.136,40.737v.426h-1.065v.441h.958v.407h-.958v.444h1.099v.422h-1.576v-2.14h1.542Z" fill="#f3705a"/>
          <path d="M29.229,41.017c.204.187.306.446.306.779s-.099.596-.299.79c-.199.194-.502.291-.911.291h-.731v-2.14h.756c.382,0,.674.093.878.28ZM28.879,42.289c.117-.11.176-.27.176-.48s-.058-.372-.176-.485c-.117-.113-.297-.17-.54-.17h-.266v1.301h.303c.219,0,.387-.055.503-.165Z" fill="#f3705a"/>
        </g>
        <path d="M29.864,43.889H11.772c-.377,0-.684-.307-.684-.684v-2.796c0-.377.307-.684.684-.684h18.092c.377,0,.684.307.684.684v2.796c0,.377-.307.684-.684.684ZM11.772,39.998c-.227,0-.41.185-.41.411v2.796c0,.226.184.41.41.41h18.092c.227,0,.411-.184.411-.41v-2.796c0-.226-.184-.411-.411-.411H11.772Z" fill="#f3705a"/>
      </g>
    </g>
  </g>
</svg>