<?xml version="1.0" encoding="UTF-8"?>
<svg id="Layer_2" data-name="Layer 2" xmlns="http://www.w3.org/2000/svg" viewBox="0 0 48 48">
  <g id="Icon">
    <g>
      <polygon points="21.275 9.927 21.275 14.235 24 16.685 26.726 14.235 26.726 9.927 21.275 9.927" fill="#f7b64c"/>
      <path d="M35.514,24l-.303-3.248c-.185-1.986-1.525-3.676-3.416-4.31l-4.106-1.376-3.672.914-3.705-.914-4.106,1.376c-1.892.634-3.231,2.324-3.417,4.31l-.303,3.249h23.028Z" fill="#344a5e"/>
      <polygon points="25.071 24 27.68 15.064 22.602 16.023 20.32 15.064 22.939 24 25.071 24" fill="#ced6e0"/>
      <polygon points="24.894 17.878 25.652 17.12 24 15.468 22.349 17.12 23.107 17.878 24.894 17.878" fill="#f05540"/>
      <polygon points="25.626 24 24.894 17.876 23.108 17.876 22.375 24 25.626 24" fill="#f3705a"/>
      <g>
        <path d="M24.017,0c-2.95,0-5.339,2.786-5.19,5.981.004.083-.006-.083,0,0,.266,3.744,2.584,6.633,5.19,6.633s4.924-2.889,5.191-6.633c.006-.084-.004.083,0,0,.148-3.195-2.241-5.981-5.19-5.981h0Z" fill="#415a6b"/>
        <path d="M29.556,8.978c-.246.86-.863,1.438-1.38,1.291-.516-.147-.735-.964-.49-1.825.246-.86.863-1.438,1.38-1.291.516.147.735.964.49,1.825Z" fill="#ffd15c"/>
        <path d="M18.444,8.978c.246.86.863,1.438,1.38,1.291.516-.147.735-.964.49-1.825-.246-.86-.863-1.438-1.38-1.291-.516.147-.735.964-.49,1.825Z" fill="#ffd15c"/>
        <path d="M23.833,5.225c-1.321,0-2.557-.224-3.686-.612-.3.773-.5,1.652-.554,2.605-.206,3.669,1.759,6.905,4.406,6.905s4.612-3.236,4.406-6.905c-.057-1.01-.277-1.938-.608-2.744-1.245.475-2.592.75-3.964.75Z" fill="#ffd15c"/>
      </g>
      <g>
        <g>
          <path d="M26.726,13.46c-.666.995-1.572,1.669-2.725,2.009.756.716,1.392,1.663,1.519,2.408l2.169-2.812-.963-1.605Z" fill="#f3f3f3"/>
          <polygon points="26.301 24 29.673 19.878 27.771 18.287 29.81 16.978 27.213 14.272 24.659 24 26.301 24" fill="#415a6b"/>
        </g>
        <g>
          <path d="M21.28,13.46c.666.995,1.572,1.669,2.725,2.009-.756.716-1.392,1.663-1.519,2.408l-2.169-2.812.963-1.605Z" fill="#f3f3f3"/>
          <polygon points="21.704 24 18.332 19.878 20.235 17.987 18.196 16.978 20.792 14.272 23.346 24 21.704 24" fill="#415a6b"/>
        </g>
      </g>
      <path d="M27.956,36.926l-2.935-2.935v-4.173c0-.551-.446-.997-.997-.997h-.006c-.551,0-.997.446-.997.997v4.163l-2.945,2.945c-.389.389-.389,1.021,0,1.41h.001c.389.39,1.019.391,1.409.002l2.535-2.527,2.525,2.525c.389.389,1.021.389,1.41,0,.389-.389.389-1.021,0-1.41Z" fill="#344a5e"/>
      <g>
        <polygon points="33.898 35.038 33.898 38.57 36.624 40.579 39.349 38.57 39.349 35.038 33.898 35.038" fill="#f7b64c"/>
        <path d="M48,48l-.228-1.844c-.152-1.231-.883-2.315-1.966-2.919l-5.494-3.061-3.688.403-3.688-.403-5.494,3.061c-1.083.604-1.814,1.688-1.966,2.919l-.228,1.844h22.753Z" fill="#8ad7f8"/>
        <polygon points="38.019 48 40.304 40.175 35.225 41.133 32.943 40.175 35.237 48 38.019 48" fill="#ced6e0"/>
        <polygon points="37.517 42.989 38.275 42.231 36.624 40.579 34.973 42.231 35.731 42.989 37.517 42.989" fill="#f05540"/>
        <polygon points="38.117 48 37.517 42.987 35.731 42.987 35.131 48 38.117 48" fill="#f3705a"/>
        <polygon points="39.349 38.57 36.624 40.579 38.205 42.759 40.312 40.175 39.349 38.57" fill="#f3f3f3"/>
        <polygon points="33.898 38.57 36.624 40.579 35.042 42.759 32.936 40.175 33.898 38.57" fill="#f3f3f3"/>
        <polygon points="31.463 44.553 33.261 48 35.237 48 33.5 39.235 31.09 42.252 32.936 43.243 31.463 44.553" fill="#55c0eb"/>
        <path d="M36.456,26.748l-3.685,2.976s-.5,1.652-.554,2.606c-.206,3.669,1.759,6.905,4.406,6.905s4.612-3.236,4.406-6.905c-.057-1.01-.608-2.744-.608-2.744l-3.965-2.838Z" fill="#ffd15c"/>
        <path d="M41.834,30.846c-.1,1.295-.46,2.485-1,3.473-.06-.24-.13-.46-.21-.662,0,0,.79-2.523-.58-3.943-1.22-1.257-5.59-1.257-6.81,0-1.37,1.42-.58,3.943-.58,3.943-.08.201-.15.422-.21.662-.54-.988-.9-2.178-.99-3.473v-.019c-.14-3.051,2.25-5.718,5.19-5.718s5.34,2.677,5.19,5.737Z" fill="#415a6b"/>
        <g>
          <path d="M42.18,34.088c-.246.86-.863,1.438-1.38,1.291-.516-.148-.735-.965-.49-1.825.246-.86.863-1.438,1.38-1.291.516.148.735.965.49,1.825Z" fill="#ffd15c"/>
          <path d="M31.067,34.088c.246.86.863,1.438,1.38,1.291.516-.148.735-.965.49-1.825-.246-.86-.863-1.438-1.38-1.291-.516.148-.735.965-.49,1.825Z" fill="#ffd15c"/>
        </g>
        <polygon points="41.783 44.553 39.986 48 38.01 48 39.747 39.235 42.157 42.252 40.311 43.243 41.783 44.553" fill="#55c0eb"/>
      </g>
      <g>
        <polygon points="8.652 35.038 8.652 38.57 11.377 40.579 14.102 38.57 14.102 35.038 8.652 35.038" fill="#f7b64c"/>
        <path d="M22.753,48l-.228-1.844c-.152-1.231-.883-2.315-1.966-2.919l-5.494-3.061-3.688.403-3.688-.403-5.494,3.061c-1.083.604-1.814,1.688-1.966,2.919l-.228,1.844h22.753Z" fill="#8ad7f8"/>
        <polygon points="12.772 48 15.057 40.175 9.979 41.133 7.696 40.175 9.99 48 12.772 48" fill="#ced6e0"/>
        <polygon points="12.27 42.989 13.028 42.231 11.377 40.579 9.726 42.231 10.484 42.989 12.27 42.989" fill="#f05540"/>
        <polygon points="12.87 48 12.27 42.987 10.484 42.987 9.884 48 12.87 48" fill="#f3705a"/>
        <polygon points="14.102 38.57 11.377 40.579 12.958 42.759 15.065 40.175 14.102 38.57" fill="#f3f3f3"/>
        <polygon points="8.652 38.57 11.377 40.579 9.796 42.759 7.689 40.175 8.652 38.57" fill="#f3f3f3"/>
        <polygon points="6.216 44.553 8.014 48 9.99 48 8.253 39.235 5.843 42.252 7.689 43.243 6.216 44.553" fill="#55c0eb"/>
        <path d="M11.21,26.748l-3.685,2.976s-.5,1.652-.554,2.606c-.206,3.669,1.759,6.905,4.406,6.905s4.612-3.236,4.406-6.905c-.057-1.01-.608-2.744-.608-2.744l-3.964-2.838Z" fill="#ffd15c"/>
        <path d="M16.587,30.846c-.1,1.295-.46,2.485-1,3.473-.06-.24-.13-.46-.21-.662,0,0,.79-2.523-.58-3.943-1.22-1.257-5.59-1.257-6.81,0-1.37,1.42-.58,3.943-.58,3.943-.08.201-.15.422-.21.662-.54-.988-.9-2.178-.99-3.473v-.019c-.14-3.051,2.25-5.718,5.19-5.718s5.34,2.677,5.19,5.737Z" fill="#415a6b"/>
        <g>
          <path d="M16.933,34.088c-.246.86-.863,1.438-1.38,1.291-.516-.148-.735-.965-.49-1.825.246-.86.863-1.438,1.38-1.291.516.148.735.965.49,1.825Z" fill="#ffd15c"/>
          <path d="M5.82,34.088c.246.86.863,1.438,1.38,1.291s.735-.965.49-1.825c-.246-.86-.863-1.438-1.38-1.291-.516.148-.735.965-.49,1.825Z" fill="#ffd15c"/>
        </g>
        <polygon points="16.537 44.553 14.739 48 12.763 48 14.5 39.235 16.91 42.252 15.064 43.243 16.537 44.553" fill="#55c0eb"/>
      </g>
    </g>
  </g>
</svg>