<?xml version="1.0" encoding="UTF-8"?>
<svg id="Layer_2" data-name="Layer 2" xmlns="http://www.w3.org/2000/svg" viewBox="0 0 48 48">
  <g id="Icon">
    <g>
      <g>
        <g>
          <path d="M7.629,7.526h10.155l-.168,4.129c.766-1.096,1.301-2.7,1.393-4.538.183-3.642-1.411-6.736-3.576-6.736-.35,0-.702.091-1.028.258-.206-.103-.412-.18-.632-.258C7.104-1.922,4.978,6.813,7.341,10.625h.131c-.017-.402-.013-1.264.194-2.189l-.037-.91Z" fill="#415a6b"/>
          <path d="M25.662,27.24v-3.876c0-2.318-1.582-4.337-3.833-4.892l-4.832-1.19-4.13,1.313-4.203-1.313-4.832,1.19c-2.251.555-3.833,2.574-3.833,4.892v3.876h25.662Z" fill="#55c0eb"/>
          <rect x="9.916" y="14.762" width="5.928" height="4.188" fill="#f7b64c"/>
          <path d="M17.988,5.801c-1.294-.216-2.428-.63-3.483-1.171-1.022.677-2.17,1.183-3.351,1.458-1.177.275-2.395.382-3.587.139-.193.767-.314,1.579-.314,2.435,0,4.196,2.496,7.598,5.576,7.598s5.576-3.402,5.576-7.598c0-1.015-.154-1.978-.419-2.863Z" fill="#ffd15c"/>
          <polygon points="15.674 18.022 12.871 18.868 10.108 18.029 10.228 25.917 15.553 25.917 15.674 18.022" fill="#ced6e0"/>
          <g>
            <path d="M14.457,20.447s-1.027-1.581-1.586-1.579c-.556.002-1.565,1.579-1.565,1.579l.791,1.35h1.564l.797-1.35Z" fill="#f05540"/>
            <polygon points="14.201 27.24 14.706 25.301 13.66 21.796 12.097 21.796 11.051 25.301 11.53 27.24 14.201 27.24" fill="#f3705a"/>
          </g>
          <polygon points="12.871 18.868 9.9 15.505 8.854 17.322 11.012 21.724 12.871 18.868" fill="#f3f3f3"/>
          <polygon points="12.871 18.868 15.86 15.505 16.906 17.322 14.748 21.724 12.871 18.868" fill="#f3f3f3"/>
          <g>
            <polygon points="14.802 27.24 19.319 22.347 17.076 20.107 19.496 19.399 16.377 16.447 13.593 27.24 14.802 27.24" fill="#8ad7f8"/>
            <polygon points="10.86 27.24 6.343 22.347 8.586 20.107 6.166 19.399 9.285 16.447 12.069 27.24 10.86 27.24" fill="#8ad7f8"/>
          </g>
          <path d="M6.342,9.687c.177.946.801,1.623,1.394,1.512s.931-.967.754-1.913c-.177-.946-.801-1.623-1.394-1.512-.593.111-.931.967-.754,1.913Z" fill="#ffd15c"/>
          <path d="M19.32,9.687c-.177.946-.801,1.623-1.394,1.512s-.931-.967-.754-1.913c.177-.946.801-1.623,1.394-1.512.593.111.931.967.754,1.913Z" fill="#ffd15c"/>
        </g>
        <g>
          <path d="M29.967,7.526h10.155l-.168,4.129c.766-1.096,1.301-2.7,1.393-4.538.183-3.642-1.411-6.736-3.576-6.736-.35,0-.702.091-1.028.258-.206-.103-.412-.18-.632-.258-6.669-2.302-8.796,6.433-6.433,10.244h.131c-.017-.402-.013-1.264.193-2.189l-.037-.91Z" fill="#415a6b"/>
          <path d="M48,27.24v-3.876c0-2.318-1.582-4.337-3.833-4.892l-4.832-1.19-4.13,1.313-4.203-1.313-4.832,1.19c-2.251.555-3.833,2.574-3.833,4.892v3.876h25.662Z" fill="#55c0eb"/>
          <rect x="32.254" y="14.762" width="5.928" height="4.188" fill="#f7b64c"/>
          <path d="M40.327,5.801c-1.294-.216-2.428-.63-3.483-1.171-1.022.677-2.17,1.183-3.351,1.458-1.177.275-2.395.382-3.587.139-.193.767-.314,1.579-.314,2.435,0,4.196,2.496,7.598,5.576,7.598s5.576-3.402,5.576-7.598c0-1.015-.154-1.978-.419-2.863Z" fill="#ffd15c"/>
          <polygon points="38.012 18.022 35.209 18.868 32.447 18.029 32.567 25.917 37.891 25.917 38.012 18.022" fill="#ced6e0"/>
          <g>
            <path d="M36.795,20.447s-1.027-1.581-1.586-1.579c-.556.002-1.565,1.579-1.565,1.579l.791,1.35h1.564l.797-1.35Z" fill="#f05540"/>
            <polygon points="36.54 27.24 37.044 25.301 35.998 21.796 34.435 21.796 33.39 25.301 33.869 27.24 36.54 27.24" fill="#f3705a"/>
          </g>
          <polygon points="35.209 18.868 32.238 15.505 31.192 17.322 33.35 21.724 35.209 18.868" fill="#f3f3f3"/>
          <polygon points="35.209 18.868 38.199 15.505 39.244 17.322 37.087 21.724 35.209 18.868" fill="#f3f3f3"/>
          <g>
            <polygon points="37.14 27.24 41.658 22.347 39.414 20.107 41.835 19.399 38.716 16.447 35.931 27.24 37.14 27.24" fill="#8ad7f8"/>
            <polygon points="33.198 27.24 28.681 22.347 30.924 20.107 28.504 19.399 31.623 16.447 34.407 27.24 33.198 27.24" fill="#8ad7f8"/>
          </g>
          <path d="M28.68,9.687c.177.946.801,1.623,1.394,1.512s.931-.967.754-1.913c-.177-.946-.801-1.623-1.394-1.512-.593.111-.931.967-.754,1.913Z" fill="#ffd15c"/>
          <path d="M41.658,9.687c-.177.946-.801,1.623-1.394,1.512s-.931-.967-.754-1.913c.177-.946.801-1.623,1.394-1.512.593.111.931.967.754,1.913Z" fill="#ffd15c"/>
        </g>
      </g>
      <g>
        <g>
          <g>
            <g>
              <polygon points="28.333 34.804 24 38.221 27.609 42.476 29.552 37.468 28.333 34.804" fill="#f3f3f3"/>
              <polygon points="19.667 34.804 18.448 37.468 20.391 42.476 24 38.221 19.667 34.804" fill="#f3f3f3"/>
            </g>
            <g>
              <polygon points="25.57 42.897 27.227 41.348 24 38.221 20.771 41.348 22.428 42.897 25.57 42.897" fill="#55c0eb"/>
              <polygon points="26.776 48 25.571 42.897 22.429 42.897 21.224 48 26.776 48" fill="#8ad7f8"/>
            </g>
          </g>
          <g>
            <g>
              <path d="M40.875,48l-.403-3.367c-.293-2.448-2.017-4.486-4.383-5.181l-4.84-1.422-3.742,9.97h13.368Z" fill="#344a5e"/>
              <polygon points="29.752 48 33.522 41.876 31.268 40.339 33.19 39.925 28.646 35.489 25.987 48 29.752 48" fill="#415a6b"/>
            </g>
            <g>
              <path d="M20.493,48l-3.742-9.97-4.84,1.422c-2.366.695-4.09,2.733-4.383,5.181l-.403,3.367h13.368Z" fill="#344a5e"/>
              <polygon points="18.248 48 22.013 48 19.354 35.489 14.81 39.925 16.732 40.339 14.478 41.876 18.248 48" fill="#415a6b"/>
            </g>
          </g>
        </g>
        <polygon points="28.333 31.833 24.001 28.417 19.668 31.833 19.667 34.804 24 38.221 28.333 34.804 28.333 31.833" fill="#f7b64c"/>
        <g>
          <ellipse cx="23.871" cy="27.048" rx="6.989" ry="8.518" fill="#ffd15c"/>
          <path d="M29.899,19.783c-.6-.47-1.527-.297-2.214-.273-1.61.056-3.258.136-4.862.304-2.403.252-5.326,1.758-5.907,4.05-.218.161-.372.41-.35.687.047.574.117,1.146.203,1.716.07.466.657.722,1.071.608.05-.014.082-.044.126-.064.531-.072,1.047-.667.745-1.319-1.528-3.307,4.19-3.938,5.961-4.058.876-.059,2.144-.298,3.014-.182.827-.354,1.315-.095,1.462.779.377.931.492,1.908.346,2.931-.181,1.096,1.497,1.568,1.679.463.269-1.625.169-4.51-1.274-5.641Z" fill="#ffd15c"/>
          <path d="M16.918,27.048s-.431-3.098,1.48-4.73c1.712-1.461,2.125-1.414,2.125-1.414,0,0-1.585,1.139-1.867,1.844,0,0,8.533.463,11.337-2.507,1.138,1.642,1.13,4.129.866,6.806,0,0,4.739-8.518-2.434-11.178,0,0,1.499.14,2.434.855,0,0-1.149-1.963-4.414-1.226,0,0-4.619-2.325-8.26,1.284-1.402,1.39-2.165,3.296-2.276,5.268-.083,1.471.08,3.319,1.008,4.997Z" fill="#415a6b"/>
          <g>
            <path d="M32.084,27.649c-.221,1.226-1.077,2.097-1.912,1.947-.834-.151-1.332-1.266-1.11-2.492.221-1.226,1.077-2.097,1.912-1.947.834.151,1.332,1.266,1.11,2.492Z" fill="#ffd15c"/>
            <path d="M15.657,27.649c.221,1.226,1.077,2.097,1.912,1.947.834-.151,1.332-1.266,1.11-2.492-.221-1.226-1.077-2.097-1.912-1.947-.834.151-1.332,1.266-1.11,2.492Z" fill="#ffd15c"/>
          </g>
        </g>
      </g>
    </g>
  </g>
</svg>