<?xml version="1.0" encoding="UTF-8"?>
<svg id="Layer_2" data-name="Layer 2" xmlns="http://www.w3.org/2000/svg" viewBox="0 0 43.117 47.997">
  <g id="Icon">
    <g>
      <path d="M16.505,8.889c-.21,1.436-.088,6.754,1.926,7.036,0,0,.723.097.845-.216h.071s.674,1.135,1.873.358c0,0,1.021,1.271,2.213.179,0,0,.768.948,2.022-.246,0,0-.277-1.798.423-2.779,0,0,.058-.814.295-1.009,0,0,1.019.873,1.095,1.537,0,0,.483-.362.181-1.873,0,0-.181-.755-.211-1.344,0,0-.12-.921-1.065-1.782-.899-.952-2.712-2.432-2.712-2.432l-1.993-.498s-4.966,1.1-4.963,3.069Z" fill="#ffd15c"/>
      <path d="M26.338,9.706s.081,1.668-.043,2.087l-.124.419.195.172c0-.065-.028-.132-.088-.158.077-.023.146-.071.195-.135-.074.033-.157.048-.238.042.138-.097.282-.186.43-.266-.139.038-.185.067-.305-.013.113.006.114-.014.222-.047-.079.02-.168-.036-.186-.115-.003-.013-.004-.028.004-.04.007-.011.019-.016.031-.022.079-.037.149-.095.2-.166-.062.02-.147.032-.212.027-.014-.285.001-.566-.003-.847-.003-.221-.011-.327-.019-.486-.008-.153-.012-.306-.059-.452" fill="#f7b64c" stroke="#f7b64c" stroke-miterlimit="10" stroke-width=".1"/>
      <path d="M27.266,12.658v1.093l-.326.451-.729-.854-.272-.587s.054-.462.234-.549l1.093.446Z" fill="#ffd15c"/>
      <path d="M27.982,20.815h-12.413v-6.427c0-1.231,1.001-2.232,2.232-2.232h7.949c1.231,0,2.232,1.001,2.232,2.232v6.427ZM17.866,18.768h7.819v-4.058c0-.28-.228-.508-.508-.508h-6.803c-.28,0-.508.228-.508.508v4.058Z" fill="#415a6b"/>
      <path d="M17.968,12.155h-.167c-.53,0-1.011.193-1.394.503.195,1.329.607,2.735,1.459,3.258v-1.207c0-.11.043-.207.102-.29v-2.265Z" fill="#344a5e"/>
      <path d="M26.29,12.229c-.174-.044-.353-.073-.54-.073h-.037v2.712h-.028v1.114c.161-.341.612-1.45.391-2.749.016-.272.08-.772.184-.953l.03-.051Z" fill="#344a5e"/>
      <path d="M26.087,12.181c-2.381-1.678-5.85-1.02-9.548-.035.204,1.795.735,3.618,1.891,3.78,0,0,.723.097.845-.216h.071s.674,1.135,1.873.358c0,0,1.021,1.271,2.213.179,0,0,.768.948,2.022-.246,0,0,.678-1.254.423-2.779,0,0,.043-.751.21-1.04Z" fill="#ffd15c"/>
      <g>
        <path d="M21.242,15.499c-.04-.37-.023-.99-.023-.99h0v-.01c0,.01-.107.63-.107,1.01-.01.22,0,.45.01.6v.006c.033-.019.063-.025.097-.047,0,0,.048.054.117.121l-.004-.03c-.02-.11-.07-.38-.09-.66Z" fill="#f7b64c"/>
        <path d="M23.412,15.529c-.05-.42-.13-1.02-.13-1.03h0c0,.01-.02.61,0,1.04.01.3.05.6.07.76v.003c.027-.022.052-.031.08-.056,0,0,.051.061.145.132l-.004-.03c0-.01-.1-.4-.16-.82Z" fill="#f7b64c"/>
        <path d="M19.372,15.469c-.01-.1-.02-.22-.04-.34,0-.08-.01-.17-.02-.27-.08-.63-.1-.66-.12-.68h0v.03h0c.02.05.01.58.01.93v.67c.032-.027.057-.06.073-.1h.071s.029.042.07.097l-.004-.038c-.01-.07-.02-.17-.04-.3Z" fill="#f7b64c"/>
      </g>
      <rect x="1.175" y="17.938" width="40.766" height="30.059" rx="3" ry="3" fill="#415a6b"/>
      <path d="M39.944,17.938H3.173c-1.752,0-3.173,1.421-3.173,3.173v13.794h43.117v-13.794c0-1.752-1.421-3.173-3.173-3.173Z" fill="#344a5e"/>
      <rect x="15.027" y="2.64" width="9.828" height="5.481" transform="translate(-.676 4.146) rotate(-11.673)" fill="#f3f3f3"/>
      <rect x="12.5" y="1.245" width="12.878" height="5.574" transform="translate(-.424 3.915) rotate(-11.674)" fill="#f3705a"/>
      <rect x="19.572" y="31.855" width="3.972" height="6.1" rx=".5" ry=".5" fill="#e8eae9"/>
    </g>
  </g>
</svg>