<?xml version="1.0" encoding="UTF-8"?>
<svg id="Layer_2" data-name="Layer 2" xmlns="http://www.w3.org/2000/svg" viewBox="0 0 43.099 47.672">
  <g id="Icon">
    <g>
      <g>
        <g>
          <path d="M36.73,28.255c-.867-6.589-2.494-6.954-2.494-6.954-1.27.272-2.723,5.585-3.077,6.954h5.571Z" fill="#415a6b"/>
          <path d="M11.935,28.255c-.354-1.369-1.807-6.682-3.077-6.954,0,0-1.627.364-2.494,6.954h5.571Z" fill="#415a6b"/>
          <path d="M11.236,28.255h20.621c.849-3.623,1.818-6.586,2.38-6.954l-6.915-3.252-5.773,1.796-5.78-1.796-6.908,3.252c.558.367,1.526,3.331,2.374,6.954Z" fill="#344a5e"/>
          <polygon points="24.902 28.255 25.047 18.757 21.549 19.845 18.075 18.766 18.22 28.255 24.902 28.255" fill="#ced6e0"/>
          <polygon points="19.402 28.255 23.689 28.255 22.525 23.484 23.522 21.794 21.549 19.845 19.576 21.794 20.566 23.484 19.402 28.255" fill="#f3705a"/>
          <g>
            <path d="M21.547,19.775s3.464-2.209,3.733-4.17l1.31,2.275-2.436,5.242-2.607-3.347Z" fill="#e8eae9"/>
            <polygon points="25.748 28.255 29.366 21.968 27.346 20.954 29.432 20.052 25.992 16.784 23.276 28.255 25.748 28.255" fill="#415a6b"/>
          </g>
          <g>
            <path d="M21.547,19.775s-3.464-2.209-3.733-4.17l-1.31,2.275,2.436,5.242,2.607-3.347Z" fill="#e8eae9"/>
            <polygon points="13.729 21.968 17.346 28.255 19.819 28.255 17.103 16.784 13.662 20.052 15.749 20.954 13.729 21.968" fill="#415a6b"/>
          </g>
        </g>
        <path d="M17.814,13.213v2.391c.27,1.962,3.733,4.17,3.733,4.17,0,0,3.464-2.209,3.733-4.17v-2.391s-7.467,0-7.467,0Z" fill="#f7b64c"/>
        <g>
          <g>
            <path d="M21.553,7.399c0,3.157-1.338,5.62-2.988,5.62s-3.09-2.463-3.222-5.62c-.137-3.297,1.193-6.079,2.978-6.079s3.232,2.782,3.231,6.079Z" fill="#415a6b"/>
            <path d="M28.185,6.715c-.154,3.467-2.717,6.162-5.732,6.162s-5.544-2.695-5.654-6.162c-.115-3.636,2.45-6.715,5.735-6.715s5.812,3.08,5.651,6.715Z" fill="#415a6b"/>
          </g>
          <path d="M27.107,6.918c-2.57-.282-5.196-1.128-7.372-2.496-.99,1.56-2.192,2.82-3.835,3.588-.044.427-.069.861-.052,1.306.152,3.931,2.722,6.966,5.747,6.966s5.597-3.035,5.752-6.966c.033-.836-.061-1.637-.24-2.398Z" fill="#ffd15c"/>
          <g>
            <path d="M28.171,10.234c-.309,1.124-1.068,1.933-1.701,1.824-.634-.11-.915-1.102-.623-2.232.296-1.148,1.069-1.997,1.72-1.881.65.116.918,1.148.604,2.289Z" fill="#ffd15c"/>
            <path d="M14.924,10.234c.309,1.124,1.068,1.933,1.701,1.824.634-.11.915-1.102.623-2.232-.296-1.148-1.069-1.997-1.72-1.881-.65.116-.918,1.148-.604,2.289Z" fill="#ffd15c"/>
          </g>
        </g>
      </g>
      <g>
        <polygon points="0 27.749 2.816 35.387 40.283 35.387 43.099 27.749 0 27.749" fill="#ffd15c"/>
        <rect x="4.912" y="35.387" width="33.275" height="12.286" fill="#f7b64c"/>
      </g>
    </g>
  </g>
</svg>