<?xml version="1.0" encoding="UTF-8"?>
<svg id="Layer_2" data-name="Layer 2" xmlns="http://www.w3.org/2000/svg" viewBox="0 0 48 48">
  <g id="Icon">
    <g>
      <g>
        <g>
          <path d="M27.132,4.325c0,2.388-1.641,4.325-3.664,4.325s-3.664-1.936-3.664-4.325,1.641-4.325,3.664-4.325,3.664,1.936,3.664,4.325Z" fill="#344a5e"/>
          <path d="M28.055,4.173c0,1.903-.825,3.445-1.842,3.445s-1.842-1.542-1.842-3.445.825-3.445,1.842-3.445,1.842,1.543,1.842,3.445Z" fill="#344a5e"/>
        </g>
        <g>
          <g>
            <g>
              <polygon points="26.358 10.358 24 12.217 25.964 14.533 27.022 11.807 26.358 10.358" fill="#f3f3f3"/>
              <polygon points="21.642 10.358 20.978 11.807 22.036 14.533 24 12.217 21.642 10.358" fill="#f3f3f3"/>
            </g>
            <g>
              <polygon points="24.855 14.762 25.756 13.919 24 12.217 22.243 13.919 23.145 14.762 24.855 14.762" fill="#55c0eb"/>
              <polygon points="25.511 18.526 24.855 14.762 23.145 14.762 22.489 18.526 25.511 18.526" fill="#8ad7f8"/>
            </g>
          </g>
          <g>
            <g>
              <path d="M33.184,18.526l-.289-3.005c-.117-1.215-.961-2.236-2.131-2.58l-2.819-.828-2.036,6.412h7.275Z" fill="#344a5e"/>
              <polygon points="27.131 18.526 29.182 14.207 27.956 13.37 29.002 13.145 26.529 10.73 25.081 18.526 27.131 18.526" fill="#415a6b"/>
            </g>
            <g>
              <path d="M22.091,18.526l-2.036-6.412-2.819.828c-1.171.344-2.015,1.365-2.131,2.58l-.289,3.005h7.275Z" fill="#344a5e"/>
              <polygon points="20.869 18.526 22.919 18.526 21.471 10.73 18.998 13.145 20.045 13.37 18.818 14.207 20.869 18.526" fill="#415a6b"/>
            </g>
          </g>
        </g>
        <polygon points="26.358 8.741 24 6.882 21.642 8.741 21.642 10.358 24 12.217 26.358 10.358 26.358 8.741" fill="#f7b64c"/>
        <path d="M22.122,4.599c-.613,0-1.174-.08-1.694-.214-.188.541-.303,1.127-.303,1.752,0,2.56,1.703,4.636,3.804,4.636s3.804-2.076,3.804-4.636c0-1.333-.485-2.503-1.225-3.346-1.004,1.088-2.463,1.808-4.386,1.808Z" fill="#ffd15c"/>
        <g>
          <path d="M28.4,6.464c-.12.667-.586,1.142-1.04,1.06s-.725-.689-.604-1.356c.12-.667.586-1.141,1.04-1.059.454.082.725.689.604,1.356Z" fill="#ffd15c"/>
          <path d="M19.46,6.464c.12.667.586,1.142,1.04,1.06.454-.082.725-.689.604-1.356-.12-.667-.586-1.141-1.04-1.059-.454.082-.725.689-.604,1.356Z" fill="#ffd15c"/>
        </g>
      </g>
      <g>
        <rect x="13.84" y="23.542" width="20.32" height="18.283" fill="#f3705a"/>
        <polygon points="36.134 23.542 11.866 23.542 10.351 18.526 37.649 18.526 36.134 23.542" fill="#ffd15c"/>
      </g>
      <g>
        <g>
          <g>
            <rect x="5.972" y="37.458" width="4.057" height="4.22" fill="#f7b64c"/>
            <path d="M16,48l-.637-2.942c-.196-.901-.794-1.664-1.623-2.067l-3.34-1.627-2.397-.261-2.402.261-3.34,1.627c-.829.404-1.427,1.166-1.623,2.067l-.638,2.942h16Z" fill="#415a6b"/>
            <g>
              <g>
                <path d="M11.891,36.166c-.146.609-.549,1.049-.905.998-.357-.051-.546-.578-.417-1.192.132-.631.546-1.111.921-1.054.374.056.552.622.401,1.248Z" fill="#ffd15c"/>
                <path d="M4.109,36.166c.146.609.55,1.049.906.998.357-.051.546-.578.417-1.192-.132-.631-.546-1.111-.921-1.054-.374.056-.552.622-.402,1.248Z" fill="#ffd15c"/>
              </g>
              <path d="M10.659,37.887c-1.051,1.894-2.658,1.688-2.658,1.688,0,0-1.606.206-2.663-1.688-1.056-1.888-2.019-7.014,2.663-7.178,4.682.165,3.714,5.29,2.658,7.178Z" fill="#415a6b"/>
            </g>
          </g>
          <path d="M10.189,40.982v-.714c0-.469-.98-.85-2.188-.85s-2.188.381-2.188.85v.714h4.376Z" fill="#e8eae9"/>
          <path d="M11.262,41.8s-2.492-.597-3.259-.557c-.772-.04-3.264.557-3.264.557.461-.732,1.173-1.289,2.006-1.514.436-.12.873-.196,1.259-.201.381.005.818.08,1.254.201.837.226,1.544.782,2.006,1.514Z" fill="#344a5e"/>
        </g>
        <g>
          <g>
            <rect x="21.972" y="37.458" width="4.057" height="4.22" fill="#f7b64c"/>
            <path d="M32,48l-.637-2.942c-.196-.901-.794-1.664-1.623-2.067l-3.34-1.627-2.397-.261-2.402.261-3.34,1.627c-.829.404-1.427,1.166-1.623,2.067l-.638,2.942h16Z" fill="#415a6b"/>
            <g>
              <g>
                <path d="M27.891,36.166c-.146.609-.549,1.049-.905.998-.357-.051-.546-.578-.417-1.192.132-.631.546-1.111.921-1.054.374.056.552.622.401,1.248Z" fill="#ffd15c"/>
                <path d="M20.109,36.166c.146.609.55,1.049.906.998.357-.051.546-.578.417-1.192-.132-.631-.546-1.111-.921-1.054-.374.056-.552.622-.402,1.248Z" fill="#ffd15c"/>
              </g>
              <path d="M26.659,37.887c-1.051,1.894-2.658,1.688-2.658,1.688,0,0-1.606.206-2.663-1.688-1.056-1.888-2.019-7.014,2.663-7.178,4.682.165,3.714,5.29,2.658,7.178Z" fill="#415a6b"/>
            </g>
          </g>
          <path d="M26.189,40.982v-.714c0-.469-.98-.85-2.188-.85s-2.188.381-2.188.85v.714h4.376Z" fill="#e8eae9"/>
          <path d="M27.262,41.8s-2.492-.597-3.259-.557c-.772-.04-3.264.557-3.264.557.461-.732,1.173-1.289,2.006-1.514.436-.12.873-.196,1.259-.201.381.005.818.08,1.254.201.837.226,1.544.782,2.006,1.514Z" fill="#344a5e"/>
        </g>
        <g>
          <g>
            <rect x="37.972" y="37.458" width="4.057" height="4.22" fill="#f7b64c"/>
            <path d="M48,48l-.637-2.942c-.196-.901-.794-1.664-1.623-2.067l-3.34-1.627-2.397-.261-2.402.261-3.34,1.627c-.829.404-1.427,1.166-1.623,2.067l-.638,2.942h16Z" fill="#415a6b"/>
            <g>
              <g>
                <path d="M43.891,36.166c-.146.609-.549,1.049-.905.998-.357-.051-.546-.578-.417-1.192.132-.631.546-1.111.921-1.054.374.056.552.622.401,1.248Z" fill="#ffd15c"/>
                <path d="M36.109,36.166c.146.609.55,1.049.906.998.357-.051.546-.578.417-1.192-.132-.631-.546-1.111-.921-1.054-.374.056-.552.622-.402,1.248Z" fill="#ffd15c"/>
              </g>
              <path d="M42.659,37.887c-1.051,1.894-2.658,1.688-2.658,1.688,0,0-1.606.206-2.663-1.688-1.056-1.888-2.019-7.014,2.663-7.178,4.682.165,3.714,5.29,2.658,7.178Z" fill="#415a6b"/>
            </g>
          </g>
          <path d="M42.189,40.982v-.714c0-.469-.98-.85-2.188-.85s-2.188.381-2.188.85v.714h4.376Z" fill="#e8eae9"/>
          <path d="M43.262,41.8s-2.492-.597-3.259-.557c-.772-.04-3.264.557-3.264.557.461-.732,1.173-1.289,2.006-1.514.436-.12.873-.196,1.259-.201.381.005.818.08,1.254.201.837.226,1.544.782,2.006,1.514Z" fill="#344a5e"/>
        </g>
      </g>
    </g>
  </g>
</svg>