<?xml version="1.0" encoding="UTF-8"?>
<svg id="Layer_2" data-name="Layer 2" xmlns="http://www.w3.org/2000/svg" viewBox="0 0 41.791 48">
  <g id="Icon">
    <g>
      <g>
        <path d="M26.364,36.668c.588-2.023,1.792-3.842,3.446-5.241,2.989-2.53,4.885-6.31,4.885-10.535,0-7.835-6.544-14.151-14.471-13.779-7.119.335-12.929,6.271-13.122,13.395-.119,4.378,1.798,8.308,4.874,10.914,1.654,1.402,2.862,3.221,3.451,5.246h10.938Z" fill="#ffd15c"/>
        <path d="M19.6,36.919h.853l-3.936-14.913c.094.019.192.03.29.032.505.02,1.005-.2,1.372-.586.201-.212.439-.33.728-.324.255.003.496.116.678.316.693.767,1.93.767,2.623,0,.181-.201.421-.313.677-.316.238-.008.527.112.729.324.367.386.833.595,1.371.586.099-.002.196-.013.291-.032l-3.936,14.913h.853l4.13-15.646c.049-.186-.037-.381-.207-.471-.171-.089-.379-.049-.505.097-.168.196-.397.307-.647.314-.263.008-.542-.11-.752-.33-.362-.381-.831-.615-1.337-.581-.488.006-.943.215-1.279.588-.375.416-1.023.416-1.399,0-.337-.373-.791-.582-1.279-.588-.007,0-.014,0-.023,0-.492,0-.958.206-1.314.581-.209.22-.487.326-.752.33-.249-.007-.479-.118-.646-.314-.125-.146-.334-.186-.505-.097-.17.089-.256.285-.207.471l4.13,15.646Z" fill="#fff"/>
      </g>
      <g>
        <g>
          <path d="M17.831,45.88c.481,1.235,1.66,2.12,3.065,2.12s2.584-.885,3.065-2.12h-6.13Z" fill="#344a5e"/>
          <path d="M24.562,46.025h-7.333c-.986,0-1.785-.799-1.785-1.785v-7.573h10.903v7.573c0,.986-.799,1.785-1.785,1.785Z" fill="#344a5e"/>
        </g>
        <g>
          <path d="M26.303,40.362h-10.815c-.611,0-1.106-.495-1.106-1.106h0c0-.611.495-1.106,1.106-1.106h10.815c.611,0,1.106.495,1.106,1.106h0c0,.611-.495,1.106-1.106,1.106Z" fill="#415a6b"/>
          <path d="M26.303,43.866h-10.815c-.611,0-1.106-.495-1.106-1.106h0c0-.611.495-1.106,1.106-1.106h10.815c.611,0,1.106.495,1.106,1.106h0c0,.611-.495,1.106-1.106,1.106Z" fill="#415a6b"/>
        </g>
      </g>
      <g>
        <path d="M20.896,0c-.535,0-.969.434-.969.969v3.426c0,.535.434.969.969.969s.969-.434.969-.969V.969c0-.535-.434-.969-.969-.969Z" fill="#ffd15c"/>
        <path d="M7.49,6.12c-.378-.378-.991-.378-1.37,0-.378.378-.378.992,0,1.37l2.423,2.422c.378.378.991.378,1.37,0,.378-.378.378-.992,0-1.37l-2.423-2.422Z" fill="#ffd15c"/>
        <rect x="0" y="19.927" width="5.363" height="1.937" rx=".969" ry=".969" fill="#ffd15c"/>
        <path d="M8.542,31.879l-2.422,2.422c-.378.378-.378.992,0,1.37.378.378.991.378,1.37,0l2.422-2.422c.378-.378.378-.992,0-1.37-.378-.378-.991-.378-1.37,0Z" fill="#ffd15c"/>
        <path d="M33.249,31.879c-.378-.378-.992-.378-1.37,0-.378.378-.378.992,0,1.37l2.422,2.422c.378.378.992.378,1.37,0,.378-.378.378-.991,0-1.37l-2.422-2.422Z" fill="#ffd15c"/>
        <rect x="36.429" y="19.928" width="5.363" height="1.937" rx=".969" ry=".969" fill="#ffd15c"/>
        <path d="M34.302,6.12l-2.423,2.422c-.378.378-.378.992,0,1.37.378.378.991.378,1.37,0l2.423-2.422c.378-.378.378-.992,0-1.37-.378-.378-.991-.378-1.37,0Z" fill="#ffd15c"/>
      </g>
    </g>
  </g>
</svg>