<?xml version="1.0" encoding="UTF-8"?>
<svg id="Layer_2" data-name="Layer 2" xmlns="http://www.w3.org/2000/svg" viewBox="0 0 48 48">
  <g id="Icon">
    <g>
      <path d="M37.96,21.645v7.8h-2v-6.8H12.04v6.8h-2v-7.8c0-.56.45-1,1-1h11.96v-6.67h2v6.67h11.96c.55,0,1,.44,1,1Z" fill="#415a6b"/>
      <g>
        <rect x="0" width="48" height="15.612" rx="2" ry="2" fill="#f3f3f3"/>
        <path d="M9.149,7.806c0,1.422-1.153,2.574-2.574,2.574s-2.574-1.153-2.574-2.574,1.153-2.574,2.574-2.574,2.574,1.153,2.574,2.574Z" fill="#f3705a"/>
        <path d="M16.282,7.806c0,1.422-1.153,2.574-2.574,2.574s-2.574-1.153-2.574-2.574,1.153-2.574,2.574-2.574,2.574,1.153,2.574,2.574Z" fill="#8ad7f8"/>
        <path d="M23.416,7.806c0,1.422-1.153,2.574-2.574,2.574s-2.574-1.153-2.574-2.574,1.153-2.574,2.574-2.574,2.574,1.153,2.574,2.574Z" fill="#ffd15c"/>
      </g>
      <g>
        <path d="M48,38.835v-3.756l-2.828-.863c-.119-.395-.276-.771-.459-1.13l1.377-2.608-2.645-2.654-2.608,1.378c-.358-.184-.744-.34-1.13-.468l-.872-2.819h-3.747l-.873,2.819c-.395.129-.771.285-1.129.478l-2.608-1.387-2.654,2.654,1.387,2.608c-.184.358-.34.735-.468,1.13l-2.829.863v3.756l2.829.863c.129.386.285.762.468,1.13l-1.387,2.608,2.654,2.654,2.608-1.387c.358.184.735.34,1.129.468l.863,2.828h3.756l.872-2.828c.386-.129.771-.285,1.13-.459l2.608,1.378,2.645-2.654-1.377-2.608c.184-.367.34-.744.459-1.13l2.828-.863ZM36.961,40.475c-1.943,0-3.521-1.571-3.521-3.521s1.579-3.514,3.521-3.514,3.521,1.571,3.521,3.514-1.578,3.521-3.521,3.521Z" fill="#ffd15c"/>
        <path d="M36.959,30.851c-3.372,0-6.105,2.734-6.105,6.106s2.733,6.106,6.105,6.106,6.106-2.734,6.106-6.106-2.733-6.106-6.106-6.106ZM36.961,40.475c-1.943,0-3.521-1.571-3.521-3.521s1.578-3.514,3.521-3.514,3.521,1.571,3.521,3.514-1.578,3.521-3.521,3.521Z" fill="#f7b64c"/>
      </g>
      <g>
        <path d="M22.086,38.835v-3.756l-2.828-.863c-.119-.395-.275-.771-.459-1.13l1.378-2.608-2.645-2.654-2.608,1.378c-.358-.184-.744-.34-1.13-.468l-.872-2.819h-3.747l-.873,2.819c-.395.129-.771.285-1.129.478l-2.608-1.387-2.654,2.654,1.387,2.608c-.184.358-.34.735-.468,1.13l-2.829.863v3.756l2.829.863c.129.386.285.762.468,1.13l-1.387,2.608,2.654,2.654,2.608-1.387c.358.184.735.34,1.129.468l.863,2.828h3.756l.872-2.828c.386-.129.771-.285,1.13-.459l2.608,1.378,2.645-2.654-1.378-2.608c.184-.367.34-.744.459-1.13l2.828-.863ZM11.047,40.475c-1.943,0-3.521-1.571-3.521-3.521s1.578-3.514,3.521-3.514,3.521,1.571,3.521,3.514-1.578,3.521-3.521,3.521Z" fill="#8ad7f8"/>
        <path d="M11.046,30.851c-3.372,0-6.105,2.734-6.105,6.106s2.733,6.106,6.105,6.106,6.105-2.734,6.105-6.106-2.733-6.106-6.105-6.106ZM11.047,40.475c-1.943,0-3.521-1.571-3.521-3.521s1.578-3.514,3.521-3.514,3.521,1.571,3.521,3.514-1.578,3.521-3.521,3.521Z" fill="#55c0eb"/>
      </g>
    </g>
  </g>
</svg>