<?xml version="1.0" encoding="UTF-8"?>
<svg id="Layer_2" data-name="Layer 2" xmlns="http://www.w3.org/2000/svg" viewBox="0 0 48 48">
  <g id="Icon">
    <g>
      <path d="M41.306,6.693c-8.925-8.924-23.445-8.925-32.37,0l2.121,2.121c7.755-7.755,20.372-7.754,28.127,0,7.755,7.755,7.755,20.372,0,28.127l2.121,2.121c8.924-8.925,8.924-23.445,0-32.37Z" fill="#8ad7f8"/>
      <g>
        <path d="M33.109,32.223l-2.974,2.974c-1.014,1.014-2.902.973-5.137.058-2.234-.899-4.815-2.655-7.206-5.046-4.782-4.782-7.016-10.315-4.988-12.343l2.974-2.974L3.254,2.368l-1.415,1.415c-4.972,4.972.486,18.494,12.186,30.193,5.854,5.854,12.153,10.141,17.62,12.343,5.466,2.201,10.084,2.333,12.574-.157l1.415-1.415-12.524-12.524Z" fill="#f3705a"/>
        <g>
          <path d="M34.53,30.802l-1.765,1.765,12.524,12.524,1.765-1.765c1.261-1.261,1.261-3.306,0-4.566l-7.958-7.958c-1.261-1.261-3.305-1.261-4.566,0Z" fill="#e8eae9"/>
          <path d="M4.675.947l-1.765,1.765,12.524,12.524,1.765-1.765c1.261-1.261,1.261-3.305,0-4.566L9.241.947c-1.261-1.261-3.305-1.261-4.566,0Z" fill="#e8eae9"/>
        </g>
      </g>
      <g>
        <path d="M22.051,19.525c.304-.43.457-.846.457-1.247s-.132-.737-.396-1.007c-.263-.27-.602-.405-1.015-.405-.756,0-1.474.54-2.152,1.618l-2.151-1.273c.563-.872,1.179-1.532,1.85-1.979.671-.448,1.527-.672,2.565-.672s1.951.33,2.737.99c.786.66,1.179,1.558,1.179,2.694,0,.62-.158,1.214-.473,1.782-.317.568-.898,1.294-1.748,2.177l-2.168,2.255h4.751v2.41h-8.486v-1.997l3.528-3.615c.711-.723,1.219-1.299,1.522-1.73Z" fill="#415a6b"/>
        <path d="M31.871,21.669v-2.1h2.581v2.1h1.36v2.324h-1.36v2.874h-2.581v-2.874h-4.837v-2.048l4.286-7.109h2.926l-4.079,6.833h1.703Z" fill="#415a6b"/>
        <path d="M39.172,24.134v2.732h-1.414v-6.991h1.414v2.487c.427-.434.905-.65,1.437-.65s.978.188,1.342.565c.364.377.546.88.546,1.508v3.081h-1.413v-2.77c0-.779-.286-1.169-.857-1.169-.283,0-.529.102-.74.306-.21.204-.315.504-.315.9Z" fill="#415a6b"/>
      </g>
    </g>
  </g>
</svg>