<?xml version="1.0" encoding="UTF-8"?>
<svg id="Layer_2" data-name="Layer 2" xmlns="http://www.w3.org/2000/svg" viewBox="0 0 48 48">
  <g id="Icon">
    <g>
      <g>
        <path d="M3,0h23.802l11.036,11.035v33.965c0,1.657-1.343,3-3,3H3c-1.657,0-3-1.343-3-3V3C0,1.343,1.343,0,3,0Z" fill="#f3f3f3"/>
        <polygon points="26.802 0 37.838 11.035 26.802 11.035 26.802 0" fill="#ced6e0"/>
        <g>
          <path d="M8.343,8.756c.499,0,.905-.197,1.223-.591l.649.67c-.516.581-1.123.871-1.824.871s-1.276-.221-1.729-.663c-.453-.441-.679-1-.679-1.674s.231-1.236.692-1.686c.461-.451,1.026-.676,1.695-.676.745,0,1.369.283,1.87.852l-.63.715c-.319-.399-.719-.599-1.195-.599-.381,0-.707.125-.977.374-.271.249-.406.585-.406,1.007s.127.762.383,1.018c.256.255.565.383.929.383Z" fill="#415a6b"/>
          <path d="M14.219,9.654l-.423-.982h-1.904l-.421.982h-1.079l1.961-4.543h.982l1.963,4.543h-1.079ZM12.848,6.462l-.571,1.32h1.136l-.565-1.32Z" fill="#415a6b"/>
          <path d="M16.855,6.017c-.097.08-.146.187-.146.318,0,.132.059.238.18.315.118.078.393.17.825.277.432.106.766.265,1.005.477.237.213.357.523.357.93s-.154.737-.459.991c-.305.253-.707.38-1.206.38-.719,0-1.367-.267-1.942-.8l.603-.74c.491.429.944.643,1.358.643.186,0,.332-.04.44-.12.106-.08.159-.189.159-.326s-.057-.244-.169-.325-.336-.161-.669-.243c-.529-.126-.916-.29-1.161-.491-.243-.202-.366-.517-.366-.949s.154-.764.463-.998c.311-.234.698-.351,1.161-.351.303,0,.605.052.91.155.302.105.567.252.793.442l-.514.742c-.394-.299-.802-.449-1.223-.449-.167,0-.3.04-.4.12Z" fill="#415a6b"/>
          <path d="M23.215,5.11v.903h-2.262v.936h2.035v.864h-2.035v.942h2.334v.897h-3.347v-4.543h3.275Z" fill="#415a6b"/>
          <path d="M5.386,13.816c-.097.08-.146.187-.146.318,0,.132.059.238.18.315.118.078.393.17.825.277.432.106.766.266,1.005.477.237.213.358.523.358.93s-.154.737-.459.991c-.305.253-.707.38-1.206.38-.719,0-1.367-.267-1.942-.8l.603-.74c.491.429.944.643,1.358.643.186,0,.332-.04.44-.119.106-.08.159-.189.159-.326s-.057-.244-.169-.325-.336-.161-.669-.243c-.529-.126-.916-.29-1.161-.491-.243-.202-.366-.517-.366-.949s.154-.764.463-.998c.311-.234.698-.351,1.161-.351.302,0,.605.052.91.156.303.105.567.252.793.442l-.514.742c-.393-.299-.802-.449-1.223-.449-.167,0-.3.04-.4.12Z" fill="#415a6b"/>
          <path d="M10.355,13.788v3.666h-1.015v-3.666h-1.286v-.878h3.588v.878h-1.286Z" fill="#415a6b"/>
          <path d="M13.586,16.28c.167.211.396.315.681.315s.512-.105.679-.315c.167-.21.25-.497.25-.861v-2.509h1.016v2.542c0,.658-.182,1.164-.546,1.517-.364.353-.831.53-1.398.53s-1.034-.178-1.401-.533c-.366-.355-.55-.86-.55-1.514v-2.542h1.015v2.509c0,.364.085.651.254.861Z" fill="#415a6b"/>
          <path d="M20.735,13.505c.432.396.649.948.649,1.653s-.211,1.265-.635,1.677c-.421.412-1.066.618-1.934.618h-1.553v-4.544h1.606c.81,0,1.432.199,1.866.596ZM19.99,16.205c.25-.234.374-.573.374-1.02s-.125-.79-.374-1.03c-.25-.24-.633-.361-1.147-.361h-.567v2.762h.645c.463,0,.819-.116,1.068-.351Z" fill="#415a6b"/>
          <path d="M24.063,17.453h-1.013v-1.794l-1.574-2.749h1.098l.982,1.69.982-1.69h1.098l-1.572,2.749v1.794Z" fill="#415a6b"/>
        </g>
        <g>
          <rect x="4" y="41.6" width="29.838" height="2.4" fill="#ced6e0"/>
          <rect x="20.55" y="35.305" width="13.287" height="2.4" fill="#ced6e0"/>
          <rect x="20.55" y="29.01" width="13.287" height="2.4" fill="#ced6e0"/>
          <rect x="20.55" y="22.715" width="13.287" height="2.4" fill="#ced6e0"/>
          <rect x="4" y="22.715" width="12.619" height="14.99" transform="translate(20.619 60.42) rotate(180)" fill="#f3705a"/>
        </g>
      </g>
      <g>
        <rect x="36.398" y="36.375" width="3.754" height="3.8" transform="translate(-15.854 38.276) rotate(-45.001)" fill="#344a5e"/>
        <path d="M41.438,37.799l-3.638,3.639,3.628,5.051c1.305,1.817,3.928,2.031,5.51.449s1.368-4.205-.449-5.51l-5.051-3.628Z" fill="#f3705a"/>
        <polygon points="42.998 38.92 41.438 37.799 37.799 41.438 38.92 42.998 42.998 38.92" fill="#f05540"/>
        <g>
          <path d="M37.184,26.244c3.021,3.021,3.021,7.919,0,10.94-3.021,3.021-7.919,3.021-10.94,0-3.021-3.021-3.021-7.919,0-10.94,3.021-3.021,7.919-3.021,10.94,0Z" fill="#8ad7f8"/>
          <path d="M38.119,38.119c-3.532,3.532-9.278,3.532-12.81,0-3.532-3.532-3.532-9.278,0-12.81s9.278-3.532,12.81,0,3.532,9.278,0,12.81ZM27.179,27.179c-2.501,2.501-2.501,6.57,0,9.07,2.501,2.501,6.57,2.501,9.071,0,2.501-2.501,2.501-6.57,0-9.07-2.501-2.501-6.57-2.501-9.07,0Z" fill="#415a6b"/>
        </g>
        <path d="M42.321,36.915c-.488-.488-1.28-.488-1.768,0l-3.639,3.639c-.488.488-.488,1.28,0,1.768s1.279.488,1.768,0l3.639-3.639c.488-.488.488-1.28,0-1.768Z" fill="#f3705a"/>
      </g>
    </g>
  </g>
</svg>