<?xml version="1.0" encoding="UTF-8"?>
<svg id="Layer_2" data-name="Layer 2" xmlns="http://www.w3.org/2000/svg" viewBox="0 0 48 48">
  <g id="Icon">
    <g>
      <rect width="48" height="35.756" rx="3" ry="3" fill="#415a6b"/>
      <g>
        <rect x="5" y="5" width="38" height="25.756" fill="#e8eae9"/>
        <path d="M43,31.381H5c-.345,0-.625-.28-.625-.625V5c0-.345.28-.625.625-.625h38c.345,0,.625.28.625.625v25.756c0,.345-.28.625-.625.625ZM5.625,30.131h36.75V5.625H5.625v24.506Z" fill="#66c6b9"/>
      </g>
      <g>
        <g>
          <rect x="9" y="16.085" width="30" height="1.597" fill="#ced6e0"/>
          <rect x="9" y="20.985" width="30" height="1.596" fill="#ced6e0"/>
          <rect x="9" y="25.885" width="30" height="1.597" fill="#ced6e0"/>
        </g>
        <rect x="14.917" y="8.274" width="18.166" height="3.801" fill="#ced6e0"/>
      </g>
      <g>
        <g>
          <polygon points="12.1 34.704 16.751 48 18.699 44.004 22.713 45.915 18.792 34.704 12.1 34.704" fill="#f3705a"/>
          <polygon points="7.807 34.704 3.885 45.915 7.9 44.004 9.848 48 14.498 34.704 7.807 34.704" fill="#f3705a"/>
        </g>
        <g>
          <circle cx="13.299" cy="30.181" r="8.658" fill="#ffd15c"/>
          <path d="M19.02,30.181c0,3.16-2.561,5.721-5.721,5.721s-5.721-2.561-5.721-5.721,2.561-5.721,5.721-5.721,5.721,2.561,5.721,5.721Z" fill="#f7b64c"/>
        </g>
      </g>
    </g>
  </g>
</svg>