<?xml version="1.0" encoding="UTF-8"?>
<svg id="Layer_2" data-name="Layer 2" xmlns="http://www.w3.org/2000/svg" viewBox="0 0 37.96 48">
  <g id="Icon">
    <g>
      <rect y="6.553" width="37.96" height="41.447" rx="2.847" ry="2.847" fill="#415a6b"/>
      <path d="M4.292,43.709V10.844h29.378v32.865H4.292Z" fill="#fff"/>
      <rect x="8.583" y="37.114" width="20.796" height="2.304" fill="#ced6e0"/>
      <g>
        <rect x="17.446" y="28.564" width="11.933" height="2.304" fill="#ced6e0"/>
        <path d="M10.73,30.554l-1.833-1.833c-.419-.419-.419-1.098,0-1.517h0c.419-.419,1.098-.419,1.517,0l1.075,1.075,2.743-2.743c.419-.419,1.098-.419,1.517,0h0c.419.419.419,1.098,0,1.517l-3.501,3.502c-.419.419-1.098.419-1.517,0Z" fill="#8ad7f8"/>
      </g>
      <g>
        <rect x="17.446" y="20.014" width="11.933" height="2.304" fill="#ced6e0"/>
        <path d="M10.73,22.004l-1.833-1.833c-.419-.419-.419-1.098,0-1.517h0c.419-.419,1.098-.419,1.517,0l1.075,1.075,2.743-2.743c.419-.419,1.098-.419,1.517,0h0c.419.419.419,1.098,0,1.517l-3.501,3.502c-.419.419-1.098.419-1.517,0Z" fill="#f3705a"/>
      </g>
      <path d="M27.567,12.976v-6.465c0-1.01-.818-1.828-1.828-1.828h-2.077c0-2.586-2.097-4.683-4.683-4.683s-4.683,2.097-4.683,4.683h-2.077c-1.01,0-1.828.818-1.828,1.828v6.465h17.175Z" fill="#ffd15c"/>
    </g>
  </g>
</svg>