<?xml version="1.0" encoding="UTF-8"?>
<svg id="Layer_2" data-name="Layer 2" xmlns="http://www.w3.org/2000/svg" viewBox="0 0 36.747 48">
  <g id="Icon">
    <g>
      <rect y="5.803" width="36.747" height="42.197" rx="3" ry="3" fill="#66c6b9"/>
      <rect x="1.17" y="12.423" width="34.406" height="28.955" transform="translate(45.274 8.528) rotate(90)" fill="#fff"/>
      <rect x="7.523" y="14.568" width="21.7" height="2.08" fill="#e8eae9"/>
      <rect x="7.523" y="20.115" width="21.7" height="2.08" fill="#e8eae9"/>
      <path d="M27.05,11.486v-5.656c0-1.159-.949-2.108-2.108-2.108h-2.857c0-2.056-1.655-3.722-3.711-3.722-2.045,0-3.711,1.666-3.711,3.722h-2.857c-1.16,0-2.108.949-2.108,2.108v5.656h17.352ZM18.373,2.551c.643,0,1.17.517,1.17,1.17,0,.643-.527,1.159-1.17,1.159s-1.17-.516-1.17-1.159c0-.654.527-1.17,1.17-1.17Z" fill="#415a6b"/>
      <path d="M24.197,39.976h-11.648c-.538,0-.974-.436-.974-.974v-11.648c0-.538.436-.974.974-.974h11.648c.538,0,.974.435.974.974v11.648c0,.538-.436.974-.974.974ZM13.523,38.028h9.701v-9.701h-9.701v9.701Z" fill="#e8eae9"/>
      <path d="M27.003,26.383c-.475-.475-1.246-.475-1.721,0l-7.732,7.732-3.498-3.498c-.475-.475-1.246-.475-1.721,0-.475.475-.475,1.246,0,1.721l4.359,4.359c.475.475,1.246.475,1.721,0l8.593-8.593c.475-.475.475-1.246,0-1.721Z" fill="#f3705a"/>
    </g>
  </g>
</svg>