<?xml version="1.0" encoding="UTF-8"?>
<svg id="Layer_2" data-name="Layer 2" xmlns="http://www.w3.org/2000/svg" viewBox="0 0 48 48">
  <g id="Icon">
    <g>
      <g>
        <rect y="5.718" width="37.865" height="42.282" rx="3" ry="3" fill="#415a6b"/>
        <rect x="2.103" y="12.237" width="33.66" height="29.243" transform="translate(45.792 7.926) rotate(90)" fill="#fff"/>
        <g>
          <g>
            <g>
              <path d="M15.772,39.4h-6.917c-.446,0-.808-.362-.808-.808v-6.995c0-.446.362-.808.808-.808h6.917c.446,0,.808.362.808.808v6.995c0,.446-.362.808-.808.808ZM9.663,37.783h5.301v-5.378h-5.301v5.378Z" fill="#e8eae9"/>
              <g>
                <rect x="19.548" y="36.19" width="5.005" height="2.156" fill="#ced6e0"/>
                <rect x="19.548" y="31.843" width="10.01" height="2.156" fill="#ced6e0"/>
              </g>
            </g>
            <path d="M12.284,37.607c-.213,0-.419-.084-.572-.237l-2.858-2.858c-.316-.316-.316-.827,0-1.143.316-.316.827-.316,1.143,0l2.06,2.06c1.094-1.916,2.921-3.579,5.657-5.166.386-.221.881-.092,1.104.294.224.386.093.881-.294,1.105-2.905,1.686-4.651,3.416-5.495,5.447-.103.249-.324.43-.589.483-.052.01-.104.015-.157.015Z" fill="#66c6b9"/>
          </g>
          <g>
            <g>
              <path d="M15.772,25.523h-6.917c-.446,0-.808-.362-.808-.808v-6.995c0-.446.362-.808.808-.808h6.917c.446,0,.808.362.808.808v6.995c0,.446-.362.808-.808.808ZM9.663,23.906h5.301v-5.378h-5.301v5.378Z" fill="#e8eae9"/>
              <g>
                <rect x="19.548" y="22.312" width="5.005" height="2.156" fill="#ced6e0"/>
                <rect x="19.548" y="17.966" width="10.01" height="2.156" fill="#ced6e0"/>
              </g>
            </g>
            <path d="M12.284,23.729c-.213,0-.419-.084-.572-.237l-2.858-2.858c-.316-.316-.316-.827,0-1.143.316-.316.827-.316,1.143,0l2.06,2.06c1.094-1.915,2.921-3.579,5.657-5.166.386-.224.881-.093,1.104.293.224.386.093.881-.294,1.105-2.906,1.687-4.652,3.417-5.495,5.447-.103.249-.324.431-.589.483-.052.01-.104.015-.157.015Z" fill="#66c6b9"/>
          </g>
        </g>
        <path d="M24.474,3.869h-1.531c-.086-2.145-1.843-3.869-4.009-3.869s-3.923,1.724-4.009,3.869h-1.541c-1.983,0-3.6,1.617-3.6,3.611v3.955h18.301v-3.955c0-1.994-1.617-3.611-3.61-3.611ZM18.934,4.602c-.593,0-1.067-.485-1.067-1.078,0-.582.474-1.067,1.067-1.067s1.067.485,1.067,1.067c0,.593-.474,1.078-1.067,1.078Z" fill="#f3705a"/>
      </g>
      <g>
        <g>
          <path d="M36.014,40.241v-3.18l-2.394-.731c-.101-.334-.233-.653-.389-.956l1.166-2.208-2.239-2.247-2.208,1.166c-.303-.156-.63-.288-.956-.397l-.739-2.387h-3.172l-.739,2.387c-.334.109-.653.241-.956.404l-2.208-1.174-2.247,2.247,1.174,2.208c-.155.303-.288.622-.396.956l-2.394.731v3.18l2.394.731c.109.327.241.645.396.956l-1.174,2.208,2.247,2.247,2.208-1.174c.303.155.622.288.956.396l.731,2.395h3.18l.739-2.395c.327-.109.653-.241.956-.389l2.208,1.166,2.239-2.247-1.166-2.208c.155-.311.287-.63.389-.956l2.394-.731ZM26.669,40.99c-1.292,0-2.341-1.045-2.341-2.341s1.049-2.336,2.341-2.336,2.341,1.045,2.341,2.336-1.05,2.341-2.341,2.341Z" fill="#ffd15c"/>
          <path d="M26.668,33.843c-2.655,0-4.808,2.153-4.808,4.808s2.153,4.808,4.808,4.808,4.808-2.153,4.808-4.808-2.153-4.808-4.808-4.808ZM26.669,40.99c-1.292,0-2.341-1.045-2.341-2.341s1.049-2.336,2.341-2.336,2.341,1.045,2.341,2.336-1.05,2.341-2.341,2.341Z" fill="#f7b64c"/>
        </g>
        <g>
          <path d="M44.734,36.36l1.83-1.731-.883-1.776c.137-.24.249-.49.339-.744l1.905-.531.074-2.512-1.873-.636c-.075-.259-.177-.519-.292-.766l.972-1.725-1.726-1.826-1.776.874c-.245-.133-.494-.245-.753-.33l-.526-1.91-2.516-.07-.632,1.878c-.259.076-.514.173-.766.292l-1.724-.981-1.83,1.731.883,1.776c-.129.24-.24.49-.334.749l-1.91.526-.07,2.517,1.877.632c.076.259.173.515.292.766l-.98,1.724,1.731,1.831,1.78-.879c.24.129.494.245.744.339l.531,1.906,2.512.066.636-1.873c.264-.08.519-.177.762-.297l1.724.981ZM39.217,31.388c-.703-.744-.673-1.917.073-2.623.743-.703,1.916-.668,2.619.076.703.744.673,1.917-.07,2.62-.746.706-1.919.67-2.622-.073Z" fill="#8ad7f8"/>
          <path d="M43.329,27.496c-1.445-1.529-3.856-1.596-5.384-.15-1.528,1.446-1.595,3.857-.15,5.386,1.445,1.529,3.856,1.596,5.384.15,1.528-1.446,1.595-3.857.15-5.386ZM39.217,31.388c-.703-.744-.673-1.917.073-2.623.743-.703,1.916-.668,2.619.076.703.744.673,1.917-.07,2.62-.746.706-1.918.671-2.622-.073Z" fill="#55c0eb"/>
        </g>
      </g>
    </g>
  </g>
</svg>