<?xml version="1.0" encoding="UTF-8"?>
<svg id="Layer_2" data-name="Layer 2" xmlns="http://www.w3.org/2000/svg" viewBox="0 0 48 48">
  <g id="Icon">
    <g>
      <g>
        <g>
          <rect y="5.364" width="34.044" height="42.636" rx="3" ry="3" fill="#66c6b9"/>
          <rect x="-.551" y="13.404" width="35.147" height="26.555" transform="translate(43.704 9.66) rotate(90)" fill="#fff"/>
        </g>
        <path d="M20.612,4.024c.114-1.056-.219-2.152-1.028-2.962-1.417-1.417-3.707-1.417-5.124,0-.809.809-1.142,1.904-1.029,2.959-3.734.814-5.524,3.112-5.582,6.056h18.345c-.057-2.944-1.847-5.236-5.582-6.054ZM15.726,3.626c0-.711.58-1.292,1.292-1.292.721,0,1.302.58,1.302,1.292,0,.721-.58,1.301-1.301,1.301-.712,0-1.292-.58-1.292-1.301Z" fill="#415a6b"/>
        <g>
          <path d="M12.747,41.462h-5.345c-.345,0-.625-.28-.625-.625v-5.405c0-.345.28-.625.625-.625h5.345c.345,0,.625.28.625.625v5.405c0,.345-.28.625-.625.625ZM8.285,39.951h3.58v-3.632h-3.58v3.632Z" fill="#e8eae9"/>
          <rect x="15.665" y="38.982" width="11.602" height="1.666" fill="#ced6e0"/>
          <rect x="15.665" y="35.623" width="11.602" height="1.666" fill="#ced6e0"/>
          <polygon points="9.555 40.779 6.582 37.806 7.41 36.979 9.555 39.124 13.773 34.905 14.601 35.732 9.555 40.779" fill="#f3705a"/>
        </g>
        <g>
          <path d="M12.747,31.245h-5.345c-.345,0-.625-.28-.625-.625v-5.405c0-.345.28-.625.625-.625h5.345c.345,0,.625.28.625.625v5.405c0,.345-.28.625-.625.625ZM8.285,29.734h3.58v-3.632h-3.58v3.632Z" fill="#e8eae9"/>
          <rect x="15.665" y="28.765" width="11.602" height="1.666" fill="#ced6e0"/>
          <rect x="15.665" y="25.406" width="11.602" height="1.666" fill="#ced6e0"/>
          <polygon points="9.555 30.562 6.582 27.589 7.41 26.762 9.555 28.907 13.773 24.688 14.601 25.515 9.555 30.562" fill="#f3705a"/>
        </g>
        <g>
          <path d="M12.747,21.028h-5.345c-.345,0-.625-.28-.625-.625v-5.405c0-.345.28-.625.625-.625h5.345c.345,0,.625.28.625.625v5.405c0,.345-.28.625-.625.625ZM8.285,19.517h3.58v-3.632h-3.58v3.632Z" fill="#e8eae9"/>
          <rect x="15.665" y="18.548" width="11.602" height="1.666" fill="#ced6e0"/>
          <rect x="15.665" y="15.189" width="11.602" height="1.666" fill="#ced6e0"/>
          <polygon points="9.555 20.344 6.582 17.372 7.41 16.544 9.555 18.69 13.773 14.471 14.601 15.298 9.555 20.344" fill="#f3705a"/>
        </g>
      </g>
      <g>
        <rect x="35.384" y="35.829" width="4.971" height="4.079" transform="translate(-15.686 37.869) rotate(-45)" fill="#344a5e"/>
        <g>
          <path d="M37.337,42.394l4.558,4.558c1.396,1.396,3.661,1.396,5.057,0,1.397-1.397,1.396-3.661,0-5.057l-4.558-4.558-5.057,5.057Z" fill="#f3705a"/>
          <rect x="36.903" y="39.612" width="7.152" height="1.735" transform="translate(-16.767 40.479) rotate(-45)" fill="#f05540"/>
        </g>
        <path d="M42.657,37.6l-5.057,5.057c-.452.452-1.184.452-1.635,0-.452-.452-.452-1.184,0-1.635l5.057-5.057c.452-.452,1.184-.452,1.635,0s.452,1.184,0,1.635Z" fill="#f3705a"/>
      </g>
      <g>
        <circle cx="29.256" cy="29.256" r="10.141" fill="#fff"/>
        <path d="M37.41,37.41c-4.496,4.496-11.812,4.496-16.308,0-4.496-4.496-4.496-11.812,0-16.308,4.496-4.496,11.812-4.496,16.308,0,4.496,4.496,4.496,11.812,0,16.308ZM23.069,23.069c-3.412,3.412-3.411,8.963,0,12.374s8.963,3.412,12.374,0,3.412-8.963,0-12.374c-3.412-3.412-8.963-3.412-12.375,0Z" fill="#415a6b"/>
      </g>
      <g>
        <path d="M29.298,32.66c-.889,0-1.61.721-1.61,1.61s.721,1.61,1.61,1.61,1.61-.721,1.61-1.61-.721-1.61-1.61-1.61Z" fill="#ffd15c"/>
        <path d="M33.28,26.151c0-1.1-.358-1.962-1.073-2.585-.714-.624-1.643-.935-2.786-.935s-2.094.348-2.852,1.045c-.758.697-1.204,1.657-1.338,2.879h2.915c.049-.452.18-.816.394-1.091.214-.275.48-.412.798-.412s.575.116.77.348c.195.233.293.523.293.871s-.092.632-.275.853l-1.246,1.284c-.417.428-.688.767-.817,1.017-.128.251-.192.627-.192,1.128v1.375h2.787v-1.1c0-1.1.898-1.619.898-1.619,1.836-1.451,1.723-3.057,1.723-3.057Z" fill="#ffd15c"/>
      </g>
    </g>
  </g>
</svg>