<?xml version="1.0" encoding="UTF-8"?>
<svg id="Layer_2" data-name="Layer 2" xmlns="http://www.w3.org/2000/svg" viewBox="0 0 40.174 48">
  <g id="Icon">
    <g>
      <path d="M12.72,15.165l-5.683-3.7.732-1.125,5.683,3.7c1.931,1.257,4.525.709,5.783-1.222,1.257-1.931.709-4.526-1.222-5.783L9.906,1.756c-1.185-.771-2.775-.435-3.546.749-.771,1.184-.435,2.775.75,3.546l7.496,4.88c.437.284,1.024.161,1.309-.276.285-.437.16-1.025-.277-1.309l-5.245-3.415.732-1.125,5.245,3.415c1.057.688,1.357,2.109.669,3.166-.688,1.057-2.109,1.357-3.166.669l-7.496-4.88c-1.804-1.175-2.317-3.599-1.142-5.403C6.41-.031,8.834-.543,10.639.631l8.107,5.279c2.551,1.661,3.276,5.088,1.614,7.64s-5.089,3.276-7.64,1.615Z" fill="#415a6b"/>
      <rect y="2.219" width="40.174" height="45.781" rx="3" ry="3" fill="#f3705a"/>
      <g>
        <polygon points="4.296 5.441 4.296 44.778 27.469 44.778 35.878 36.369 35.878 5.441 4.296 5.441" fill="#fff"/>
        <polygon points="27.469 44.778 35.878 36.369 27.469 36.369 27.469 44.778" fill="#ced6e0"/>
      </g>
      <path d="M13.873,12.057l-7.496-4.88c-1.804-1.175-2.317-3.599-1.142-5.403C6.41-.031,8.834-.543,10.639.631l-.732,1.125c-1.185-.771-2.775-.435-3.546.749-.771,1.184-.435,2.775.75,3.546l7.496,4.88c.437.284,1.024.161,1.309-.276.285-.437.16-1.025-.277-1.309l-5.245-3.415c-.836-.544-.103-1.669.732-1.125l5.245,3.415c1.057.688,1.357,2.109.669,3.166-.688,1.057-2.109,1.357-3.166.669Z" fill="#415a6b"/>
      <g>
        <g>
          <g>
            <rect x="18.955" y="15.263" width="13.745" height="2.073" fill="#e8eae9"/>
            <rect x="18.955" y="20.154" width="10.076" height="2.073" fill="#e8eae9"/>
          </g>
          <path d="M13.74,22.683h-4.655c-.888,0-1.611-.723-1.611-1.611v-4.656c0-.888.723-1.611,1.611-1.611h4.655c.888,0,1.611.723,1.611,1.611v4.656c0,.888-.723,1.611-1.611,1.611ZM9.085,15.88c-.296,0-.537.241-.537.537v4.656c0,.296.241.537.537.537h4.655c.296,0,.537-.241.537-.537v-4.656c0-.296-.241-.537-.537-.537h-4.655Z" fill="#ced6e0"/>
        </g>
        <polygon points="12.126 21.047 9.392 18.313 10.152 17.554 12.126 19.529 16.493 15.162 17.252 15.921 12.126 21.047" fill="#66c6b9"/>
      </g>
      <g>
        <g>
          <g>
            <rect x="18.955" y="27.707" width="13.745" height="2.073" fill="#e8eae9"/>
            <rect x="18.955" y="32.598" width="10.076" height="2.073" fill="#e8eae9"/>
          </g>
          <path d="M13.74,35.128h-4.655c-.888,0-1.611-.723-1.611-1.611v-4.656c0-.888.723-1.611,1.611-1.611h4.655c.888,0,1.611.722,1.611,1.611v4.656c0,.888-.723,1.611-1.611,1.611ZM9.085,28.324c-.296,0-.537.241-.537.537v4.656c0,.296.241.537.537.537h4.655c.296,0,.537-.241.537-.537v-4.656c0-.296-.241-.537-.537-.537h-4.655Z" fill="#ced6e0"/>
        </g>
        <polygon points="12.126 33.492 9.392 30.758 10.152 29.999 12.126 31.973 16.493 27.606 17.252 28.366 12.126 33.492" fill="#66c6b9"/>
      </g>
    </g>
  </g>
</svg>