<?xml version="1.0" encoding="UTF-8"?>
<svg id="Layer_2" data-name="Layer 2" xmlns="http://www.w3.org/2000/svg" viewBox="0 0 37.216 48">
  <g id="Icon">
    <g>
      <path d="M27.266,48H9.949c-1.769,0-3.261-1.318-3.479-3.073L2.045,9.342h33.126l-4.426,35.585c-.218,1.755-1.71,3.073-3.479,3.073Z" fill="#e8eae9"/>
      <path d="M35.171,9.634H2.045c-1.13,0-2.045-.916-2.045-2.045s.915-2.045,2.045-2.045h33.126c1.13,0,2.045.916,2.045,2.045s-.915,2.045-2.045,2.045Z" fill="#415a6b"/>
      <path d="M31.475,0H5.741c-.975,0-1.847.605-2.189,1.518l-1.506,4.026h33.126l-1.506-4.026c-.342-.913-1.214-1.518-2.189-1.518Z" fill="#344a5e"/>
      <polygon points="31.808 36.382 33.726 20.96 3.49 20.96 5.408 36.382 31.808 36.382" fill="#f05540"/>
      <circle cx="18.608" cy="28.671" r="8.875" transform="translate(-13.945 39.092) rotate(-74.767)" fill="#f3705a"/>
      <g>
        <path d="M18.043,28.671c0-2.652,2.451-4.227,4.036-4.968-1.857-.937-4.608-.264-6.656,1.784-2.327,2.327-2.88,5.563-1.308,7.361,1.238-.502,3.927-1.859,3.928-4.177Z" fill="#fff"/>
        <path d="M19.173,28.671c0,2.652-2.45,4.226-4.036,4.968,1.857.937,4.608.264,6.656-1.784,2.327-2.327,2.88-5.563,1.308-7.361-1.238.502-3.928,1.859-3.928,4.177Z" fill="#fff"/>
      </g>
    </g>
  </g>
</svg>