<?xml version="1.0" encoding="UTF-8"?>
<svg id="Layer_2" data-name="Layer 2" xmlns="http://www.w3.org/2000/svg" viewBox="0 0 48 48">
  <g id="Icon">
    <g>
      <path d="M37.211,24.201v6.8h-2v-5.8H12.791v5.8h-2v-6.8c0-.56.44-1,1-1h11.21v-6.37h2v6.37h11.21c.55,0,1,.44,1,1Z" fill="#f3705a"/>
      <rect x="13.614" width="20.771" height="16.775" rx="2" ry="2" fill="#415a6b"/>
      <rect x="15.614" y="2" width="16.771" height="11.103" fill="#8ad7f8"/>
      <path d="M12.213,14.775c0,1.6,1.297,2.897,2.897,2.897h17.78c1.6,0,2.897-1.297,2.897-2.897H12.213Z" fill="#ced6e0"/>
      <rect x="1.401" y="30.328" width="20.771" height="16.775" rx="2" ry="2" fill="#415a6b"/>
      <rect x="3.401" y="32.328" width="16.771" height="11.103" fill="#8ad7f8"/>
      <path d="M0,45.103c0,1.6,1.297,2.897,2.897,2.897h17.779c1.6,0,2.897-1.297,2.897-2.897H0Z" fill="#ced6e0"/>
      <rect x="25.828" y="30.328" width="20.771" height="16.775" rx="2" ry="2" fill="#415a6b"/>
      <rect x="27.827" y="32.328" width="16.771" height="11.103" fill="#8ad7f8"/>
      <path d="M24.426,45.103c0,1.6,1.297,2.897,2.897,2.897h17.779c1.6,0,2.897-1.297,2.897-2.897h-23.573Z" fill="#ced6e0"/>
      <polygon points="14.322 46.334 9.252 46.334 8.66 45.103 14.913 45.103 14.322 46.334" fill="#adb3ba"/>
      <polygon points="26.535 16.006 21.465 16.006 20.873 14.775 27.127 14.775 26.535 16.006" fill="#adb3ba"/>
      <polygon points="38.748 46.334 33.678 46.334 33.086 45.103 39.34 45.103 38.748 46.334" fill="#adb3ba"/>
    </g>
  </g>
</svg>