<?xml version="1.0" encoding="UTF-8"?>
<svg id="Layer_2" data-name="Layer 2" xmlns="http://www.w3.org/2000/svg" viewBox="0 0 48 48">
  <g id="Icon">
    <g>
      <g>
        <path d="M13.321,44.653l-1.238-1.238,5.441-5.44v-11.772h1.75v12.134c0,.232-.092.455-.256.619l-5.697,5.697Z" fill="#344a5e"/>
        <path d="M16.668,44.034c0-2.19-1.775-3.966-3.966-3.966s-3.966,1.775-3.966,3.966,1.775,3.966,3.966,3.966,3.966-1.775,3.966-3.966Z" fill="#66c6b9"/>
      </g>
      <path d="M11.821,38.022H3.966v-1.75h6.98v-9.055h1.75v9.93c0,.483-.392.875-.875.875Z" fill="#344a5e"/>
      <path d="M7.931,37.146c0-2.19-1.775-3.966-3.966-3.966s-3.966,1.776-3.966,3.966,1.775,3.966,3.966,3.966,3.966-1.775,3.966-3.966Z" fill="#f3705a"/>
      <g>
        <path d="M34.679,44.653l-5.697-5.697c-.164-.164-.256-.387-.256-.619v-12.134h1.75v11.772l5.441,5.44-1.238,1.238Z" fill="#344a5e"/>
        <path d="M31.332,44.034c0-2.19,1.775-3.966,3.966-3.966s3.966,1.775,3.966,3.966-1.775,3.966-3.966,3.966-3.966-1.775-3.966-3.966Z" fill="#f3705a"/>
      </g>
      <g>
        <rect x="23.125" y="26.203" width="1.75" height="17.831" fill="#344a5e"/>
        <path d="M20.034,44.034c0-2.19,1.776-3.966,3.966-3.966s3.966,1.775,3.966,3.966-1.776,3.966-3.966,3.966-3.966-1.775-3.966-3.966Z" fill="#ffd15c"/>
      </g>
      <path d="M44.034,38.022h-7.856c-.483,0-.875-.392-.875-.875v-9.93h1.75v9.055h6.981v1.75Z" fill="#344a5e"/>
      <path d="M40.068,37.146c0-2.19,1.775-3.966,3.966-3.966s3.966,1.776,3.966,3.966-1.775,3.966-3.966,3.966-3.966-1.775-3.966-3.966Z" fill="#55c0eb"/>
      <g>
        <g>
          <g>
            <path d="M16.096,15.115c-.18.839-.688,1.452-1.134,1.369-.447-.083-.663-.831-.483-1.67.18-.839.688-1.452,1.135-1.368.447.083.663.831.483,1.67Z" fill="#ffd15c"/>
            <path d="M6.925,15.115c.18.839.688,1.452,1.134,1.369.447-.083.663-.831.483-1.67-.18-.839-.688-1.452-1.135-1.368-.447.083-.663.831-.483,1.67Z" fill="#ffd15c"/>
            <path d="M15.871,12.297c0,2.444-1.991,4.425-4.447,4.425s-4.447-1.981-4.447-4.425,1.991-4.425,4.447-4.425,4.447,1.981,4.447,4.425Z" fill="#415a6b"/>
            <path d="M15.793,13.003c-.307,2.444-1.435,4.426-2.519,4.426s-1.714-1.982-1.406-4.426c.307-2.445,1.435-4.426,2.519-4.426s1.714,1.982,1.406,4.426Z" fill="#415a6b"/>
            <path d="M22.973,28.299l-.793-3.723c-.277-1.299-1.223-2.353-2.485-2.767l-4.655-1.528-3.53,1.376-3.531-1.376-4.654,1.528c-1.262.414-2.208,1.468-2.485,2.767L.048,28.299h22.926Z" fill="#344a5e"/>
            <polygon points="12.779 28.299 14.327 22.235 8.289 22.235 10.059 28.299 12.779 28.299" fill="#e8eae9"/>
            <polygon points="9.522 28.299 13.497 28.299 12.195 24.204 12.893 23.02 11.511 21.657 10.13 23.02 10.824 24.204 9.522 28.299" fill="#f3705a"/>
            <path d="M11.511,21.657s2.424-1.596,2.613-2.969l.917,1.593-1.705,3.669-1.824-2.293Z" fill="#f3f3f3"/>
            <path d="M11.511,21.657s-2.425-1.596-2.614-2.969l-.917,1.593,1.705,3.669,1.826-2.293Z" fill="#f3f3f3"/>
            <path d="M8.897,17.014v1.674c.189,1.373,2.614,2.969,2.614,2.969,0,0,2.424-1.596,2.612-2.969v-1.674s-5.227,0-5.227,0Z" fill="#f7b64c"/>
            <path d="M7.633,13.026c-.069.402-.111.818-.111,1.25,0,3.044,1.786,5.513,3.989,5.513s3.989-2.468,3.989-5.513c0-1.624-.518-3.071-1.327-4.079-1.498,1.658-3.678,2.764-6.54,2.829Z" fill="#ffd15c"/>
          </g>
          <polygon points="15.099 28.299 17.455 25.034 15.5 23.608 17.455 22.235 14.497 19.335 12.576 28.299 15.099 28.299" fill="#415a6b"/>
          <polygon points="7.924 28.299 10.446 28.299 8.526 19.335 5.568 22.235 7.522 23.608 5.568 25.034 7.924 28.299" fill="#415a6b"/>
        </g>
        <g>
          <g>
            <path d="M41.075,15.115c-.18.839-.688,1.452-1.135,1.369-.446-.083-.663-.831-.483-1.67.18-.839.688-1.452,1.135-1.368.447.083.663.831.483,1.67Z" fill="#ffd15c"/>
            <path d="M31.904,15.115c.18.839.688,1.452,1.134,1.369.447-.083.663-.831.483-1.67-.18-.839-.688-1.452-1.134-1.368-.447.083-.663.831-.483,1.67Z" fill="#ffd15c"/>
            <path d="M39.78,12.297c0,2.444-1.752,4.425-3.912,4.425s-3.913-1.981-3.913-4.425,1.752-4.425,3.913-4.425,3.912,1.981,3.912,4.425Z" fill="#415a6b"/>
            <path d="M40.744,13.003c-.415,2.444-1.937,4.426-3.401,4.426s-2.313-1.982-1.898-4.426c.415-2.445,1.937-4.426,3.401-4.426s2.313,1.982,1.898,4.426Z" fill="#415a6b"/>
            <path d="M47.952,28.299l-.793-3.723c-.277-1.299-1.223-2.353-2.485-2.767l-4.655-1.528-3.529,1.376-3.531-1.376-4.655,1.528c-1.262.414-2.208,1.468-2.485,2.767l-.793,3.723h22.926Z" fill="#344a5e"/>
            <polygon points="37.758 28.299 39.306 22.235 33.268 22.235 35.038 28.299 37.758 28.299" fill="#e8eae9"/>
            <polygon points="34.501 28.299 38.476 28.299 37.174 24.204 37.872 23.02 36.49 21.657 35.109 23.02 35.803 24.204 34.501 28.299" fill="#f3705a"/>
            <path d="M36.49,21.657s2.424-1.596,2.613-2.969l.917,1.593-1.705,3.669-1.824-2.293Z" fill="#f3f3f3"/>
            <path d="M36.49,21.657s-2.425-1.596-2.614-2.969l-.917,1.593,1.705,3.669,1.826-2.293Z" fill="#f3f3f3"/>
            <path d="M33.876,17.014v1.674c.189,1.373,2.614,2.969,2.614,2.969,0,0,2.424-1.596,2.613-2.969v-1.674s-5.227,0-5.227,0Z" fill="#f7b64c"/>
            <path d="M38.071,10.619c-1.619.839-3.402,1.346-5.22,1.407-.223.688-.35,1.448-.35,2.251,0,3.044,1.786,5.513,3.989,5.513s3.989-2.468,3.989-5.513c0-.453-.045-.889-.12-1.31-.926-.638-1.69-1.437-2.288-2.348Z" fill="#ffd15c"/>
          </g>
          <polygon points="40.078 28.299 42.434 25.034 40.479 23.608 42.434 22.235 39.475 19.335 37.555 28.299 40.078 28.299" fill="#415a6b"/>
          <polygon points="32.903 28.299 35.425 28.299 33.505 19.335 30.547 22.235 32.501 23.608 30.547 25.034 32.903 28.299" fill="#415a6b"/>
        </g>
        <g>
          <rect x="20.519" y="19.385" width="6.887" height="8.914" fill="#ced6e0"/>
          <g>
            <polygon points="25.043 21.723 25.993 20.773 24.017 18.797 22.041 20.773 22.992 21.723 25.043 21.723" fill="#f05540"/>
            <polygon points="26.283 28.299 25.043 21.723 22.992 21.723 21.751 28.299 26.283 28.299" fill="#f3705a"/>
          </g>
          <path d="M37.903,28.299l-1.115-4.383c-.522-2.051-2.123-3.653-4.175-4.176l-3.312-.844c-1.371,1.768-2.659,5.373-3.929,9.403h12.531Z" fill="#8ad7f8"/>
          <path d="M22.628,28.299c-1.27-4.03-2.558-7.635-3.929-9.403l-3.312.844c-2.051.523-3.653,2.125-4.175,4.176l-1.115,4.383h12.531Z" fill="#8ad7f8"/>
          <polygon points="20.874 12.44 20.874 16.493 24 18.797 27.126 16.493 27.126 12.44 20.874 12.44" fill="#f7b64c"/>
          <g>
            <path d="M21.427.055c.007,1.103-.726,1.838-1.541,2.186-1.364.583-2.202,2.083-2.206,3.787v.026c0,5.032,2.857,8.703,6.382,8.703,2.796,0,5.168-2.314,6.029-5.782.387-1.559.352-3.213-.125-4.746C29.262,1.969,27.492-.392,21.427.055Z" fill="#415a6b"/>
            <path d="M23.021,4.28c-1.221.881-2.625,1.469-4.085,1.7-.277.938-.435,1.966-.435,3.05,0,4.362,2.462,7.898,5.499,7.898s5.499-3.536,5.499-7.898c0-.361-.023-.712-.057-1.059-2.425-.48-4.71-1.731-6.42-3.691Z" fill="#ffd15c"/>
            <g>
              <path d="M30.373,11.024c-.282.987-.99,1.65-1.583,1.481-.592-.169-.844-1.106-.562-2.093.282-.987.99-1.65,1.583-1.481.592.169.844,1.106.562,2.093Z" fill="#ffd15c"/>
              <path d="M17.626,11.024c.282.987.99,1.65,1.583,1.481.592-.169.844-1.106.562-2.093-.282-.987-.99-1.65-1.583-1.481s-.844,1.106-.562,2.093Z" fill="#ffd15c"/>
            </g>
          </g>
          <g>
            <polygon points="27.126 16.493 24 18.797 25.814 21.298 28.231 18.334 27.126 16.493" fill="#f3f3f3"/>
            <polygon points="20.874 16.493 24 18.797 22.186 21.298 19.769 18.334 20.874 16.493" fill="#f3f3f3"/>
          </g>
          <g>
            <polygon points="27.352 28.299 31.121 23.276 28.095 21.561 31.603 20.848 27.681 17.465 25.075 28.299 27.352 28.299" fill="#55c0eb"/>
            <polygon points="16.878 23.276 20.647 28.299 22.925 28.299 20.319 17.465 16.396 20.848 19.904 21.561 16.878 23.276" fill="#55c0eb"/>
          </g>
        </g>
      </g>
    </g>
  </g>
</svg>