<?xml version="1.0" encoding="UTF-8"?>
<svg id="Layer_2" data-name="Layer 2" xmlns="http://www.w3.org/2000/svg" viewBox="0 0 48 48">
  <g id="Icon">
    <g>
      <rect width="48" height="32.377" rx="3" ry="3" fill="#f3705a"/>
      <g>
        <g>
          <g>
            <rect x="8.555" y="32.898" width="5.812" height="6.045" fill="#f7b64c"/>
            <path d="M22.922,48l-.913-4.214c-.28-1.292-1.137-2.383-2.325-2.962l-4.785-2.331-3.434-.374-3.441.374-4.785,2.331c-1.188.579-2.045,1.67-2.325,2.962l-.914,4.214h22.922Z" fill="#415a6b"/>
            <g>
              <g>
                <path d="M17.035,31.047c-.209.872-.787,1.503-1.297,1.43-.511-.073-.781-.828-.597-1.707.189-.904.783-1.591,1.32-1.51.536.08.79.891.575,1.787Z" fill="#ffd15c"/>
                <path d="M5.887,31.047c.209.872.787,1.503,1.297,1.43.511-.073.781-.828.597-1.707-.189-.904-.783-1.591-1.319-1.51-.536.08-.79.891-.575,1.787Z" fill="#ffd15c"/>
              </g>
              <path d="M15.27,33.511c-1.505,2.713-3.807,2.418-3.807,2.418,0,0-2.301.295-3.815-2.418-1.513-2.705-2.893-10.048,3.815-10.283,6.708.236,5.32,7.578,3.807,10.283Z" fill="#415a6b"/>
            </g>
          </g>
          <path d="M14.596,37.946v-1.023c0-.672-1.403-1.217-3.134-1.217s-3.135.545-3.135,1.217v1.023h6.269Z" fill="#e8eae9"/>
          <path d="M16.134,39.118s-3.57-.855-4.669-.797c-1.106-.057-4.677.797-4.677.797.661-1.049,1.681-1.846,2.873-2.169.625-.172,1.25-.28,1.803-.287.546.007,1.171.115,1.796.287,1.2.323,2.213,1.121,2.873,2.169Z" fill="#344a5e"/>
        </g>
        <g>
          <g>
            <rect x="33.633" y="32.898" width="5.812" height="6.045" fill="#f7b64c"/>
            <path d="M48,48l-.913-4.214c-.28-1.292-1.137-2.383-2.325-2.962l-4.785-2.331-3.434-.374-3.441.374-4.785,2.331c-1.188.579-2.045,1.67-2.325,2.962l-.914,4.214h22.922Z" fill="#415a6b"/>
            <g>
              <g>
                <path d="M42.113,31.047c-.209.872-.787,1.503-1.297,1.43-.511-.073-.781-.828-.597-1.707.189-.904.783-1.591,1.319-1.51.536.08.79.891.575,1.787Z" fill="#ffd15c"/>
                <path d="M30.965,31.047c.209.872.787,1.503,1.297,1.43.511-.073.781-.828.597-1.707-.189-.904-.783-1.591-1.32-1.51-.535.08-.79.891-.575,1.787Z" fill="#ffd15c"/>
              </g>
              <path d="M40.349,33.511c-1.505,2.713-3.807,2.418-3.807,2.418,0,0-2.301.295-3.815-2.418-1.513-2.705-2.893-10.048,3.815-10.283,6.708.236,5.32,7.578,3.807,10.283Z" fill="#415a6b"/>
            </g>
          </g>
          <path d="M39.674,37.946v-1.023c0-.672-1.403-1.217-3.134-1.217s-3.135.545-3.135,1.217v1.023h6.269Z" fill="#e8eae9"/>
          <path d="M41.212,39.118s-3.57-.855-4.669-.797c-1.106-.057-4.677.797-4.677.797.661-1.049,1.681-1.846,2.873-2.169.625-.172,1.25-.28,1.803-.287.546.007,1.171.115,1.796.287,1.2.323,2.213,1.121,2.873,2.169Z" fill="#344a5e"/>
        </g>
      </g>
      <g>
        <path d="M28.283,10.684c0,2.365-1.917,4.283-4.283,4.283s-4.283-1.917-4.283-4.283,1.917-4.283,4.283-4.283,4.283,1.917,4.283,4.283Z" fill="#fff"/>
        <path d="M31.23,18.536c-4.576-2.146-9.885-2.146-14.461,0-1.035.486-1.674,1.554-1.674,2.697v2.293c2.477,1.88,5.556,3.008,8.905,3.008s6.428-1.128,8.905-3.008v-2.293c0-1.144-.639-2.212-1.674-2.697Z" fill="#fff"/>
      </g>
    </g>
  </g>
</svg>