<?xml version="1.0" encoding="UTF-8"?>
<svg id="Layer_2" data-name="Layer 2" xmlns="http://www.w3.org/2000/svg" viewBox="0 0 48.043 48">
  <g id="Icon">
    <g>
      <g>
        <g>
          <rect x="-.128" y="6.473" width="42.491" height="35.054" rx="2.026" ry="2.026" transform="translate(-6.681 39.786) rotate(-78.248)" fill="#e8eae9"/>
          <g>
            <path d="M29.417,45.246l9.228-9.028V4.781c0-1.119-.907-2.026-2.026-2.026H5.62c-1.119,0-2.026.907-2.026,2.026v38.438c0,1.119.907,2.026,2.026,2.026h23.796Z" fill="#f3f3f3"/>
            <rect x="8.02" y="13.599" width="26.198" height="2.059" fill="#8ad7f8"/>
            <rect x="8.02" y="20.017" width="26.198" height="2.059" fill="#ced6e0"/>
            <rect x="8.02" y="26.434" width="26.198" height="2.059" fill="#ced6e0"/>
            <rect x="8.02" y="32.852" width="12.441" height="2.059" fill="#ced6e0"/>
            <polygon points="29.417 45.246 38.645 36.218 29.417 36.218 29.417 45.246" fill="#ced6e0"/>
            <g>
              <path d="M9.738,9.817c.351,0,.637-.138.86-.416l.455.471c-.363.408-.788.612-1.282.612-.491,0-.895-.155-1.214-.466-.318-.31-.479-.703-.479-1.176s.164-.869.488-1.185c.324-.317.72-.475,1.19-.475.524,0,.964.199,1.315.599l-.443.503c-.223-.28-.506-.421-.839-.421-.268,0-.497.088-.687.263-.19.175-.286.411-.286.708s.089.535.268.715c.181.179.399.269.654.269Z" fill="#f3705a"/>
              <path d="M14.236,10.007c-.324.315-.723.473-1.193.473-.473,0-.872-.158-1.193-.473-.324-.315-.485-.707-.485-1.177s.161-.861.485-1.176c.321-.315.72-.473,1.193-.473.47,0,.869.158,1.193.473.321.315.482.707.482,1.176s-.161.861-.482,1.177ZM13.992,8.833c0-.285-.092-.528-.274-.729-.181-.201-.408-.301-.675-.301-.265,0-.491.1-.672.301-.184.201-.274.444-.274.729s.089.527.274.727c.181.199.408.299.672.299.268,0,.494-.1.675-.299.181-.199.274-.442.274-.727Z" fill="#f3705a"/>
              <path d="M17.556,7.254h.714v3.194h-.714l-1.523-2.001v2.001h-.711v-3.194h.666l1.568,2.056v-2.056Z" fill="#f3705a"/>
              <path d="M20.408,7.871v2.577h-.714v-2.577h-.904v-.617h2.523v.617h-.904Z" fill="#f3705a"/>
              <path d="M24.424,8.314c0,.512-.202.842-.61.991l.809,1.142h-.877l-.708-1.019h-.494v1.019h-.711v-3.194h1.211c.497,0,.851.084,1.062.251.211.168.318.437.318.809ZM23.564,8.694c.089-.08.134-.205.134-.377s-.048-.29-.14-.354c-.089-.064-.25-.096-.479-.096h-.536v.945h.524c.241,0,.407-.039.497-.118Z" fill="#f3705a"/>
              <path d="M27.428,10.448l-.297-.69h-1.339l-.294.69h-.759l1.377-3.194h.69l1.38,3.194h-.758ZM26.465,8.204l-.402.928h.8l-.399-.928Z" fill="#f3705a"/>
              <path d="M30.022,9.817c.351,0,.637-.138.86-.416l.458.471c-.363.408-.791.612-1.282.612s-.898-.155-1.217-.466c-.318-.31-.476-.703-.476-1.176s.161-.869.485-1.185c.324-.317.723-.475,1.193-.475.524,0,.961.199,1.315.599l-.443.503c-.226-.28-.506-.421-.842-.421-.268,0-.497.088-.687.263-.19.175-.285.411-.285.708s.089.535.271.715c.178.179.396.269.651.269Z" fill="#f3705a"/>
              <path d="M33.256,7.871v2.577h-.714v-2.577h-.904v-.617h2.522v.617h-.904Z" fill="#f3705a"/>
            </g>
          </g>
        </g>
        <path d="M7.763,42.229c-.101,0-.198-.063-.234-.164-.048-.13.018-.273.148-.321.706-.258,1.157-.873,1.435-1.442l-.808-.613c-.201-.154-.43-.328-.583-.577-.32-.523-.177-1.274.314-1.64.489-.367,1.251-.292,1.662.165.372.415.452,1.044.237,1.871-.058.219-.125.428-.202.626.222.143.453.239.644.163.144-.056.263-.206.389-.365.178-.225.379-.479.715-.546.087-.015.174.011.231.075.059.064.081.153.059.237-.018.063.008.124.032.164.051.082.141.146.23.164.176.033.399-.042.602-.21.065-.055.154-.072.235-.046.081.025.143.091.166.173.068.249.409.372.672.335.337-.048.655-.276.936-.477.1-.071.235-.061.323.027.308.311.735.479,1.192.462.13-.026.256.099.263.237s-.1.255-.237.262c-.49.023-1.02-.146-1.414-.465-.28.194-.612.395-.993.449-.386.056-.832-.084-1.076-.4-.252.138-.519.192-.766.143-.227-.044-.436-.191-.559-.391-.019-.029-.034-.059-.048-.088-.057.059-.112.13-.172.206-.155.195-.33.417-.6.521-.356.138-.712.023-1.031-.169-.408.799-.991,1.37-1.678,1.621-.028.01-.058.015-.086.015ZM8.767,37.736c-.155,0-.309.044-.433.136-.288.215-.375.672-.187.978.104.17.285.308.46.441l.705.536c.062-.173.107-.327.139-.446.171-.653.128-1.128-.125-1.41-.138-.154-.35-.234-.559-.234Z" fill="#344a5e"/>
      </g>
      <g>
        <path d="M25.21,34.618c1.635-.898,3.219-1.892,4.716-3.019l17.203-13.811c1.049-.843,1.221-2.379.382-3.432s-2.368-1.223-3.418-.381l-17.203,13.811c-1.42,1.222-2.734,2.556-3.967,3.959l2.287,2.873Z" fill="#f3705a"/>
        <path d="M23.103,31.549c-1.558,1.75-2.981,3.618-4.216,5.616-.067.109.046.252.167.21,2.213-.769,4.343-1.749,6.386-2.89l-2.337-2.936Z" fill="#e8eae9"/>
        <path d="M23.103,31.549c-1.558,1.75-2.981,3.618-4.216,5.616-.067.109.046.252.167.21,2.213-.769,4.343-1.749,6.386-2.89l-2.337-2.936Z" fill="#344a5e"/>
        <polygon points="29.505 25.688 28.632 26.389 31.668 30.201 32.541 29.5 29.505 25.688" fill="#344a5e"/>
        <polygon points="44.313 20.26 41.073 16.19 42.621 14.946 45.862 19.016 44.313 20.26" fill="#344a5e"/>
        <path d="M38.65,26.773h0c-.227-.285-.181-.7.103-.929l6.362-5.108-1.127-1.416,1.033-.829,1.539,1.934c.228.286.182.703-.104.932l-6.874,5.519c-.286.23-.704.183-.933-.104Z" fill="#344a5e"/>
      </g>
    </g>
  </g>
</svg>