<?xml version="1.0" encoding="UTF-8"?>
<svg id="Layer_2" data-name="Layer 2" xmlns="http://www.w3.org/2000/svg" viewBox="0 0 48 48">
  <g id="Icon">
    <g>
      <path d="M48,23.484c0,4.09-3.32,7.41-7.419,7.41H7.419c-4.098,0-7.419-3.321-7.419-7.41,0-3.985,3.137-7.227,7.069-7.41-.638-2.115-.07-4.5,1.669-6.091,1.713-1.582,4.116-1.966,6.152-1.171C17.302,1.996,24.756-1.63,31.615.712c6.449,2.193,10.093,8.865,8.651,15.358.105-.009-.105,0,0,0,4.098,0,7.733,3.316,7.733,7.415Z" fill="#e8eae9"/>
      <polygon points="34.155 37.84 23.995 48 13.845 37.84 18.925 37.84 18.925 24 29.065 24 29.065 37.84 34.155 37.84" fill="#66c6b9"/>
    </g>
  </g>
</svg>