<?xml version="1.0" encoding="UTF-8"?>
<svg id="Layer_2" data-name="Layer 2" xmlns="http://www.w3.org/2000/svg" viewBox="0 0 47.688 48">
  <g id="Icon">
    <g>
      <path d="M12.451,0L0,12.451v32.549c0,1.657,1.343,3,3,3h31.285c1.657,0,3-1.343,3-3V3c0-1.657-1.343-3-3-3H12.451Z" fill="#f3f3f3"/>
      <rect x="4.806" y="41.174" width="27.673" height="2.451" fill="#ced6e0"/>
      <rect x="4.806" y="34.861" width="27.673" height="2.451" fill="#ced6e0"/>
      <rect x="4.806" y="28.549" width="11.493" height="2.451" fill="#ced6e0"/>
      <polygon points="12.451 0 0 12.451 12.451 12.451 12.451 0" fill="#415a6b"/>
      <g>
        <path d="M20.583,21.546c-.118.095-.235.199-.349.313l-2.29,8.197,8.197-2.29c.114-.114.218-.23.313-.349l-5.871-5.871Z" fill="#f7b64c"/>
        <polygon points="22.406 23.369 21.863 24.024 17.944 30.056 23.976 26.137 24.625 25.588 22.406 23.369" fill="#ffd15c"/>
        <path d="M42.985,10.922l-16.844,16.844c-.012-.428-.184-.848-.508-1.173-.448-.448-1.081-.6-1.657-.456.144-.576-.008-1.209-.456-1.657-.448-.448-1.081-.6-1.657-.456.144-.576-.008-1.209-.456-1.657-.324-.324-.748-.5-1.173-.508L37.078,5.015l5.907,5.907Z" fill="#f05540"/>
        <path d="M38.975,6.912l-17.112,17.112c.576-.144,1.208.008,1.657.456.448.448.6,1.081.456,1.657l17.112-17.112-2.113-2.113Z" fill="#f3705a"/>
        <path d="M42.985,10.922l4.556-4.556c.221-.221.221-.904-.2-1.325l-4.381-4.381c-.421-.421-1.104-.421-1.325-.2l-4.556,4.556,5.907,5.907Z" fill="#55c0eb"/>
        <rect x="39.749" y="3.111" width="1.926" height="8.354" transform="translate(6.771 30.923) rotate(-45)" fill="#e8eae9"/>
        <path d="M20.967,29.21l-3.021.844.844-3.021c1.052.292,1.885,1.125,2.177,2.177Z" fill="#344a5e"/>
        <path d="M19.651,27.429l-1.705,2.624v.002s0,0,0,0l2.625-1.706c-.239-.368-.553-.681-.92-.92Z" fill="#415a6b"/>
      </g>
    </g>
  </g>
</svg>