<?xml version="1.0" encoding="UTF-8"?>
<svg id="Layer_2" data-name="Layer 2" xmlns="http://www.w3.org/2000/svg" viewBox="0 0 48 48">
  <g id="Icon">
    <g>
      <path d="M48,20.49c0,11.32-10.74,20.49-24,20.49-1.69,0-3.34-.15-4.93-.44l-13.69,7.46v-14.59C2.02,29.88,0,25.39,0,20.49,0,9.17,10.75,0,24,0s24,9.17,24,20.49Z" fill="#e8eae9"/>
      <g>
        <rect x="9.598" y="10.537" width="28.809" height="19.904" rx="1.777" ry="1.777" fill="#f05540"/>
        <path d="M24.002,16.037l-13.884,13.884c.321.322.766.521,1.257.521h25.254c.491,0,.935-.199,1.257-.521l-13.884-13.884Z" fill="#f3705a"/>
        <path d="M24.002,24.942l13.884-13.884c-.321-.321-.766-.52-1.257-.52H11.375c-.491,0-.935.199-1.257.52l13.884,13.884Z" fill="#ffd15c"/>
      </g>
    </g>
  </g>
</svg>