<?xml version="1.0" encoding="UTF-8"?>
<svg id="Layer_2" data-name="Layer 2" xmlns="http://www.w3.org/2000/svg" viewBox="0 0 48 48">
  <g id="Icon">
    <g>
      <rect x="29.456" y="29.456" width="7.234" height="7.233" transform="translate(-13.699 33.073) rotate(-45)" fill="#344a5e"/>
      <path d="M46.352,46.353h0c-2.197,2.197-5.758,2.197-7.955,0l-7.296-7.296c-.525-.525-.525-1.376,0-1.9l6.054-6.055c.525-.525,1.375-.525,1.9,0l7.296,7.296c2.197,2.197,2.197,5.758,0,7.955Z" fill="#f3705a"/>
      <circle cx="18.782" cy="18.782" r="16.593" transform="translate(-7.779 19.025) rotate(-45.524)" fill="#f3f3f3"/>
      <g>
        <polygon points="15.899 19.12 15.899 23.678 18.783 26.27 21.666 23.678 21.666 19.12 15.899 19.12" fill="#f7b64c"/>
        <path d="M30.644,30.573h0c-.196-2.102-1.613-3.89-3.615-4.561l-4.344-1.456-3.885.967-3.92-.967-4.344,1.456c-2.001.671-3.419,2.459-3.615,4.56h0c-.145,1.552,1.076,2.892,2.634,2.892h18.454c1.558,0,2.779-1.34,2.634-2.892Z" fill="#4ec0aa"/>
        <polygon points="20.075 33.465 22.676 24.555 17.303 25.569 14.888 24.555 17.5 33.465 20.075 33.465" fill="#ced6e0"/>
        <polygon points="19.728 27.532 20.53 26.73 18.783 24.983 17.035 26.73 17.838 27.532 19.728 27.532" fill="#f05540"/>
        <polygon points="20.438 33.465 19.728 27.531 17.838 27.531 17.128 33.465 20.438 33.465" fill="#f3705a"/>
        <g>
          <path d="M18.8,8.617c-3.121,0-5.649,2.947-5.492,6.329.004.088-.006-.088,0,0,.282,3.961,2.733,7.018,5.492,7.018s5.21-3.057,5.492-7.018c.006-.088-.004.088,0,0,.157-3.381-2.371-6.329-5.492-6.329h0Z" fill="#415a6b"/>
          <path d="M24.661,18.115c-.26.91-.914,1.522-1.46,1.366-.546-.156-.778-1.02-.518-1.931.26-.91.914-1.522,1.46-1.366.546.156.778,1.02.518,1.931Z" fill="#ffd15c"/>
          <path d="M12.903,18.115c.26.91.914,1.522,1.46,1.366.546-.156.778-1.02.518-1.931s-.914-1.522-1.46-1.366c-.546.156-.778,1.02-.518,1.931Z" fill="#ffd15c"/>
          <path d="M22.96,13.496c-1.617.522-3.549.103-5.016-.88-.857.904-2.005,1.486-3.454,1.406-.01.053-.024.103-.033.157-.781,4.423,1.021,9.382,4.324,9.382s5.106-4.959,4.325-9.382c-.042-.236-.092-.462-.146-.683Z" fill="#ffd15c"/>
        </g>
        <g>
          <g>
            <polygon points="21.666 22.857 18.783 24.983 20.39 27.531 22.685 24.555 21.666 22.857" fill="#f3f3f3"/>
            <polygon points="21.663 33.465 24.785 29.649 22.772 27.965 24.929 26.58 22.182 23.717 19.623 33.465 21.663 33.465" fill="#66c6b9"/>
          </g>
          <g>
            <polygon points="15.904 22.857 18.787 24.983 17.18 27.531 14.885 24.555 15.904 22.857" fill="#f3f3f3"/>
            <polygon points="12.785 29.649 15.907 33.465 17.947 33.465 15.388 23.717 12.641 26.58 14.798 27.648 12.785 29.649" fill="#66c6b9"/>
          </g>
        </g>
      </g>
      <path d="M32.069,32.07c-7.327,7.326-19.248,7.326-26.575,0-7.326-7.326-7.326-19.247,0-26.574,7.326-7.327,19.248-7.327,26.574,0,7.326,7.326,7.326,19.249,0,26.575ZM8.604,8.604c-5.612,5.612-5.612,14.744,0,20.356,5.613,5.613,14.745,5.613,20.357,0,5.613-5.613,5.613-14.745,0-20.358-5.612-5.612-14.744-5.612-20.357,0Z" fill="#415a6b"/>
    </g>
  </g>
</svg>