<?xml version="1.0" encoding="UTF-8"?>
<svg id="Layer_2" data-name="Layer 2" xmlns="http://www.w3.org/2000/svg" viewBox="0 0 47.989 47.786">
  <g id="Icon">
    <g>
      <g>
        <path d="M47.989,47.786c-.115-13.156-10.811-23.786-23.995-23.786S.115,34.63,0,47.786h47.989Z" fill="#8ad7f8"/>
        <g>
          <path d="M24.161,46.323c.003-.134-.049-.271-.081-.416-.006,0-.058,0-.111-.011-.053-.012-.107-.061-.155-.049-.191.034-.376.083-.565.135-.095.023-.191.107-.272.089-.372-.067-.681.078-.986.253-.145.087-.278.199-.433.247-.171.05-.36.039-.544.053-.018.002-.049-.003-.06-.017-.194-.23-.243-.002-.273.107-.051.188-.159.31-.317.41-.254.159-.409.394-.462.661h8.851c-.057-.095-.112-.191-.168-.286.008-.007.02-.014.031-.019.075.094.161.202.243.305h.192c.014-.084.027-.16.038-.232.026.08.019.169.048.232h3.135c-.19-.13-.29-.309-.381-.503-.045-.098-.098-.192-.158-.31.115-.007.187.009.208-.018.14-.183.257-.066.334.047.158.24.349.443.59.607.211.143.553.131.742-.046.077-.073.15-.066.189.06.017.056.049.121.084.163h1.655c.091-.025.186-.052.27-.073.034.026.071.05.107.073h5.177c-.002-.029-.002-.056-.011-.091.152.03.221.047.273.091h3.301c.099-.215.241-.387.548-.374.006,0,.012.002.015.001.073.131.131.237.188.343.031,0,.061-.001.091-.001-.2-.342.076-.373.245-.487.107-.073.182-.185.293-.301.013.008.048.022.068.011.16-.113.475-.018.473-.349,0-.018.058-.028.067-.05.026-.067.042-.139.061-.208.009-.028.02-.057.036-.083.047-.066.113-.128.138-.201.073-.206-.019-.426.068-.652.059-.15.12-.354.06-.563-.049-.159-.111-.252-.296-.218h-.003c.042-.083.083-.173.137-.286-.178-.071-.321-.127-.468-.183.002-.009.004-.019.003-.028.113.005.226.013.349.024-.16-.152-.307-.293-.454-.434-.075-.073-.138-.172-.229-.223-.153-.083-.191-.185-.181-.359.01-.25.176-.348.352-.451-.135-.191-.482-.151-.628.091-.051-.049-.099-.095-.149-.135-.04-.035-.086-.087-.128-.085-.192-.002-.262-.11-.276-.257.077-.045.175-.066.199-.117.069-.145.099-.303.158-.453.019-.042.106-.103.135-.092.061.026.128.083.153.143.035.093.047.198.056.297.002.045-.032.095-.051.143.068-.038.119-.102.166-.165.105-.143.213-.262.424-.225.211.037.193.197.212.337.015.135.078.207.2.153.18-.075.25.056.34.152.02.019-.031.098-.015.129.112.206.232.408.358.624.042-.037.087-.078.132-.115-.07-.341-.174-.669-.258-1.004-.084-.071-.158-.151-.255-.211-.147-.092-.2-.174-.063-.336.066-.084.125-.264.08-.334-.052-.086-.057-.162-.049-.235-1.034-3.404-2.816-6.473-5.137-9.051-.048,0-.103.002-.147.002-.065.099-.103.158-.122.184.106.076.212.152.361.262-.115.007-.178.011-.244.016.015.05.028.091.028.091l-.858.099c.031.088.063.175.094.26-.016.017-.032.034-.049.051-.236-.094-.472-.189-.71-.283.012-.026.049-.076.042-.081-.153-.134-.292-.295-.525-.283-.136.007-.272.01-.407.032-.027.006-.053.094-.053.143-.003.031.043.062.087.121-.147.044-.265.097-.392.109-.108.01-.248.01-.328-.05-.189-.133-.557-.033-.609.201-.059-.066-.112-.127-.171-.193-.072.169-.167.101-.276.059-.029-.012-.084.031-.128.051.032.018.068.035.142.075-.157.115-.291.213-.426.313.065-.229.176-.431.273-.636.041-.09.06-.192.085-.289-.094-.026-.077-.164-.124-.18-.181-.067-.373-.13-.559-.13-.127.002-.251.114-.381.18-.022-.25-.233-.073-.33-.147.02-.033.044-.063.07-.102-.28-.083-.404-.054-.466.148-.025.076.042.181.064.269-.033.028-.095.099-.171.147-.085.055-.178.115-.274.129-.129.015-.263-.009-.44-.019.06.066.087.093.115.124-.521.127-.712.468-.415.753-.219.053-.426.098-.629.158-.042.011-.101.103-.089.126.047.092.106.234.183.246.296.06.466.247.603.49.035.066.058.136.084.203-.023.009-.047.015-.07.023-.023-.067-.033-.182-.064-.19-.193-.039-.252-.159-.228-.287-.166-.045-.307-.08-.445-.119-.179-.052-.23-.016-.217.177-.057-.021-.114-.042-.171-.059-.01.019-.022.042-.035.065.11.057.217.115.327.172-.345.067-.342.064-.447-.264-.022-.061-.079-.109-.09-.126-.028.097-.072.197-.087.302-.009.056.021.122.045.177.066.126.168.239.204.375.046.186.079.313.319.209.156-.07.39.059.428.185.026.088.077.167.121.257-.044-.016-.123-.038-.183-.082-.033-.024-.026-.094-.047-.141-.066-.15-.181-.171-.319-.106-.17.08-.023.148-.007.232.02.119-.016.254-.051.374-.021.078-.08.146-.137.238-.161.003-.343.006-.525.009,0-.037.001-.07,0-.106.11.006.22.011.358.02.047-.118.12-.254.146-.397.017-.09-.004-.246-.066-.284-.325-.212-.342-.593-.468-.894-.118-.281-.079-.337-.39-.298l-.12.014c-.052.207-.098.388-.141.572-.008.037.006.078.016.117.035.118.076.231.122.372.256.037.368.164.294.364-.369-.17-.734-.359-1.211-.246.212.204.101.32-.033.451-.027-.073-.045-.129-.071-.198-.099.066-.172.141-.26.167-.109.034-.24.003-.267.162-.05-.016-.111-.018-.149-.05-.03-.024-.031-.085-.045-.128-.139.089-.284.151-.391.252-.139.135-.401.162-.393.437,0,.027-.145.09-.21.076-.065-.011-.161-.103-.157-.152.003-.076.087-.144.144-.229-.078-.201-.256-.141-.378-.121.055.243.114.488.172.734-.288-.204-.365.075-.503.17-.155.109-.046.203.033.288-.184.255-.384-.032-.627.045.084.072.144.117.192.169.031.027.066.068.061.099-.003.028-.071.075-.087.068-.135-.069-.351-.121-.382-.226-.076-.238-.18-.432-.371-.58-.003-.003.002-.012.01-.044.055.003.119-.002.177.01.202.038.402.087.606.119.173.029.436-.147.456-.29.021-.136-.137-.294-.337-.344-.075-.019-.146-.056-.222-.078-.189-.057-.378-.112-.566-.163-.085-.024-.218.028-.181-.143-.043-.007-.087-.02-.129-.018-.124.011-.257.09-.352-.048.073-.051.138-.095.206-.142-.121-.126-.231-.21-.364.036.007-.128.006-.186.008-.244-.016-.007-.032-.012-.048-.019-.043.072-.083.146-.132.228-.031-.033-.052-.058-.077-.091-.05.067-.097.133-.184.249.024-.133.038-.202.051-.27-.065.014-.095.047-.128.079-.076.079-.168.232-.227.218-.237-.046-.259.306-.522.243-.075-.022-.219.232-.33.357.056.033.089.057.098.062-.12.066-.237.128-.352.189.028.061.024.107,0,.134-.101.127-.208.252-.315.377-.113.128-.109.319-.263.438-.139.107-.24.265-.38.424.083.006.125.007.168.011-.134.076-.266.146-.387.227-.116.077-.22.171-.332.254q-.204.157-.199.327c.097-.005.19-.013.286-.021l.004.036c-.125.024-.25.047-.399.073.205.165.18.295.025.423.047.013.081.021.128.034-.044.096-.077.176-.114.256.134.106.271.215.427.088.155-.127.283-.282.446-.453.109.422.21.821.315,1.228.045-.027.118-.056.173-.108.05-.042.082-.161.115-.159.275.011.3-.22.301-.369,0-.261.076-.446.298-.578.011-.007.015-.029.015-.029-.104-.009-.203-.019-.302-.032.037-.053.072-.06.105-.067.099-.017.197-.035.295-.052-.059-.087-.123-.168-.167-.26-.04-.083-.091-.187-.076-.271.045-.291.18-.522.461-.664.135-.067.228-.184.212-.377-.019-.189.179-.318.424-.328.173-.005.189.109.195.184-.176.209-.329.384-.476.565-.063.083-.184.197-.162.259.086.245-.103.605.279.731.019.007.028.03.046.056.127-.06.251-.117.372-.177.247-.12.497-.094.692.069-.103.054-.211.119-.323.174-.049.024-.116.047-.163.034-.135-.039-.247-.005-.377.046-.238.1-.256.157-.108.359.054.073.009.215.01.327-.064-.029-.142-.044-.196-.087-.113-.087-.209-.079-.259.048-.045.112-.073.239-.065.357.02.286-.089.466-.382.539.014-.196-.084-.151-.193-.09-.199.117-.399.231-.618.357-.139-.175-.321-.2-.504.006-.079-.134-.301-.16-.2-.369.053-.116.091-.235.136-.353-.004-.115-.006-.239-.008-.364l-.043-.034c-.119.15-.314.285-.343.453-.044.227.037.479.066.728-.156.179-.543.032-.618.308-.09.086-.159.122-.175.172-.067.208-.163.377-.396.444-.079.024-.169.114-.199.193-.086.226-.401.399-.629.322-.005.092-.009.18-.016.281-.134,0-.253-.007-.373.007-.162.016-.247.098-.184.222.168.09.343.128.413.235.155.234.156.514.076.788-.079.264-.161.316-.424.304-.278-.013-.558-.018-.834-.013-.158.003-.272.195-.273.344,0,.213-.03.426-.063.637-.026.146-.113.283-.115.426-.003.155.058.316.099.517.075-.009.211-.064.313-.024.099.04.16.173.223.251.143-.08.265-.204.378-.199.251.017.409-.114.546-.272.105-.119.173-.272.235-.419.034-.074,0-.185.041-.254.107-.18.204-.367.423-.465.15-.066.259-.2.282-.397.031-.256.179-.315.431-.214.061.023.15.034.198.005.111-.061.214-.149.307-.236.178-.166.369-.124.442.119.083.276.315.414.513.579.137.112.283.217.426.322.199.144.092.33.07.505,0,.009.02.019.048.046.087-.165.294-.271.154-.507-.019-.034.002-.113.032-.149.018-.026.088-.028.128-.018.053.012.102.043.151.068.014-.011.027-.024.038-.038-.04-.056-.07-.129-.126-.168-.178-.122-.366-.225-.545-.35-.08-.058-.144-.139-.207-.216-.071-.086-.125-.189-.204-.268-.189-.188-.15-.408.101-.519.029.07.059.139.104.243.028-.079.046-.133.064-.184.087.072.108.121.132.17.065.111.108.249.202.329.158.134.359.214.52.344.063.047.073.165.097.256.023.101.004.225.053.307.101.162.236.304.331.424.201.059.378.114.554.167.007-.019.014-.035.021-.051-.092-.065-.187-.127-.283-.192.017-.008.035-.016.049-.021l-.055-.474c.073.052.126.089.215.151.005-.113.009-.189.011-.247.206-.16.393-.045.583.024-.041.062-.083.125-.129.197.206.128.175.284.059.455.055.03.145.05.153.086.055.291.382.208.527.38.018.022.175-.011.189-.046.096-.278.236-.091.365-.051.079.024.17.047.24.024.158-.052.306-.136.45-.204.008.23.045.439.022.642-.029.249-.101.495-.158.742-.048.194-.345.353-.507.247-.184-.125-.326-.038-.485.035-.072.033-.159.073-.233.06-.349-.048-.694-.115-1.042-.178-.025-.006-.051-.024-.069-.044-.152-.189-.33-.123-.5-.043-.167.08-.186.21-.154.382.016.083-.084.268-.091.266-.272-.084-.541-.181-.807-.278-.01-.005-.01-.029-.02-.037-.068-.065-.125-.159-.207-.186-.25-.084-.508-.133-.759-.207-.116-.032-.137-.103-.067-.211.057-.089.117-.193.122-.291Z" fill="#f3f3f3"/>
          <path d="M3.494,38.352c-.01.206-.025.411-.043.655.049.04.143.117.236.193.005-.017.011-.035.016-.05.065.012.133.027.198.042-.15-.352-.129-.529.088-.671.043-.028.112-.019.168-.026-.014.059-.006.136-.044.171-.122.118-.126.233-.041.366.1.16.201.32.288.484.027.049.005.123.006.184-.061-.026-.131-.042-.177-.088-.083-.084-.152-.185-.227-.281.005.034.027.071.02.103-.062.254-.132.503-.191.757-.018.083-.017.171-.011.257.019.262.204.521.006.787-.011.014.011.05.02.076.033.163.062.328.105.489.107.401.108.795-.088,1.17-.033.062-.104.114-.109.174-.026.28.136.503.286.7.214.27.495.484.721.747.244.274.345.336.676.226.169-.056.249.006.31.139.075.163.113.357.224.484.124.145.31.234.471.347.114.076.229.153.371.251.016.057.053.169.076.288.043.201.179.39.069.616-.021.043.047.128.077.199.047-.033.074-.054.115-.082.061.176.117.345.176.52.079-.007.196.067.329.205h.356c.095-.088.191-.174.296-.267.023.034.05.056.053.08.012.062.021.125.032.187h.308c-.053-.086-.115-.194-.205-.287-.09-.101-.189-.202-.368-.074-.128.092-.311.159-.443.05-.065-.17-.135-.308-.167-.449-.029-.123-.058-.27-.018-.38.106-.287.264-.555.364-.846.034-.096.113-.204-.002-.366-.138-.198-.298-.183-.471-.213-.187-.031-.38-.051-.526-.071.134-.271.244-.497.356-.72.021-.04.034-.096.063-.107.162-.07.174-.065.182-.125.021-.201.177-.296.303-.416.063-.065.113-.14.179-.222-.119-.025-.19-.056-.26-.057-.296.003-.613-.062-.766.323-.056.145-.205.256-.319.374-.024.021-.079.017-.118.015-.079-.005-.165.002-.231-.028-.134-.064-.286.129-.415-.044-.236-.321-.268-.694-.201-1.054.055-.294.224-.573.35-.851.047-.103.121-.194.19-.282.064-.086.191-.154.203-.241.056-.434.329-.632.722-.719.076-.017.15-.05.217-.093.165-.112.336-.076.508-.038.077.019.153.039.256.065.032.145.127.228.311.133.032.059.067.116.087.149.049-.115.074-.255.155-.335.116-.112.635-.009.721.143.091.162.214.197.381.155.052.202.123.376-.025.566-.077.099-.11.25-.115.38-.01.191.021.384.039.612.069-.039.131-.065.179-.107.299-.255.285-.641.376-.979.1-.358.123-.748.511-.942.141-.072.302-.112.447-.177.11-.049.214-.117.314-.183.191-.123.483-.078.581-.354.006-.021.066-.037.092-.03.238.066.128-.086.106-.175.137-.048.294-.076.149-.272.239-.144.166-.532.465-.62-.055.139-.111.281-.166.419.031.016.063.033.094.049.099-.148.201-.296.299-.435.003.022.01.059.019.106.291-.122.424-.567.849-.421-.052-.019-.104-.038-.197-.075.281-.011.517-.018.722-.024.007-.075-.014-.166.021-.201.131-.135.26-.3.424-.36.333-.122.689-.187,1.039-.268.113-.027.23-.036.348-.05.018,0,.036.002.07.003-.03.042-.053.075-.075.106.04.021.078.035.112.052-.298-.004-.566.039-.773.353.084.011.161.049.204.024.264-.15.554-.178.843-.215.059-.007.114-.055.173-.083-.054-.047-.101-.108-.162-.132-.22-.082-.313-.323-.135-.53.04-.046.082-.092.112-.125-.072-.052-.125-.09-.177-.131.049-.027.083-.028.106-.016.149.09.257-.011.362-.088.03-.017.026-.082.035-.126-.107-.023-.226-.088-.323-.065-.321.075-.634.179-.948.277-.092.03-.183.067-.276.103-.009-.026-.015-.048-.024-.07.472-.201.947-.402,1.422-.6.036-.017.083-.007.122.001.251.055.501.123.753.175.186.037.383.119.564-.003.197-.129.407-.143.627-.107-.225.158-.451.32-.677.478-.074.051-.15.095-.224.149-.121.084-.24.172-.395.288.298.071.543.131.814.195-.114.058-.199.098-.287.141.008.013.012.026.016.039.148-.056.296-.115.444-.172l.031.041c-.054.06-.104.12-.184.213.094,0,.168.017.223-.006.074-.03.14-.069.108-.193-.018-.072.059-.168.096-.261-.196-.103.088-.131.079-.248-.214.047-.272-.125-.337-.299.145-.102.313-.22.505-.352-.074-.013-.128-.023-.178-.033.212-.127.441-.239.443-.549-.05-.01-.1-.023-.144-.035.036-.062.063-.11.111-.192-.242.037-.439.072-.635.103,0-.021-.003-.04-.007-.062.235-.047.467-.095.749-.152-.133-.119-.25-.226-.361-.326.173-.105-.046-.223-.009-.336.058-.135.319-.124.255-.352.189-.072.064-.202.064-.311.121-.023.239-.284.239-.504-.281.139-.574.279-.864.422.003-.024.004-.048.006-.069-.096-.077-.195-.154-.27-.213.175-.165.38-.357.596-.556-.298-.113-.183-.381-.202-.53-.152-.072-.279-.102-.369-.178-.155-.137-.28-.135-.412.029-.062.077-.144.142-.214.212-.046.046-.083.098-.127.144-.072.082-.137.182-.227.24-.11.073-.241.117-.366.164-.19.072-.11.223-.118.35-.004.033-.019.071-.038.099-.21.292-.493.488-.825.601-.198.071-.508-.053-.527.316,0,.003-.013.007-.016.01-.209.237-.418.474-.626.707-.013.01-.035.013-.055.023-.003-.043-.004-.08-.005-.117-.075.014-.138.027-.2.037.01-.053.03-.109.028-.164.003-.07-.042-.161-.011-.209.09-.149.203-.283.313-.421.099-.127.207-.246.326-.382-.123-.059-.241-.087-.311-.161-.106-.115-.245-.258-.251-.393-.009-.269-.103-.428-.369-.446-.058-.002-.114-.04-.203-.076.178-.165.317-.298.471-.442-.082-.048-.133-.076-.204-.113.594-.584,1.309-.849,2.127-.967-.092-.113-.144-.175-.193-.239.008-.017.02-.037.032-.057.156.201.324.327.526.099.127.142.471.073.71-.117-.062-.103-.124-.206-.184-.308.033-.02.063-.037.096-.054.037.087.077.172.139.302.187-.078.383-.155.58-.232.029-.039.076-.023.118,0,.062.036.121.077.179.116.034-.072.071-.143.134-.271-.005.127-.006.203-.011.285.267-.013.53-.023.681-.307.049-.094.118-.176.157-.238.081.035.142.077.156.064.107-.092.207-.198.127-.351-.06-.118-.288-.164-.367-.053-.157.213-.404.259-.612.377-.136.079-.308.089-.465.129-.017-.033-.037-.066-.054-.099.093-.079.173-.196.278-.23.159-.049.257-.118.289-.311-.16.076-.296.14-.43.204-.005-.01-.012-.023-.017-.033.075-.106.15-.208.222-.311-.025-.019-.07-.049-.112-.079.161-.133.384-.049.418-.275.02-.15.327-.184.165-.453-.275.115-.544.216-.805.342-.101.05-.196.144-.036.263.047.037.063.118.07.134-.106.019-.247.021-.254.051-.046.186-.215.193-.324.191-.228,0-.412.033-.526.264-.115-.14-.07-.204.061-.251.121-.041.195-.111.097-.243-.125.001-.271-.024-.208.188.004.016-.065.055-.103.084-.01-.014-.021-.024-.032-.035.011-.038.026-.076.037-.114-.242.053-.3.036-.657-.323-.053-.053-.013-.194-.017-.304-.166-.01-.335-.024-.504-.035,0,.021-.003.042-.002.064l.422.057c-.127.041-.251.03-.364.054-.1.023-.216.065-.28.139-.101.111-.183.207-.404.079.317.019.283-.157.267-.326-.242-.103-.564-.019-.751-.37.157.009.278.013.448.021-.01-.081-.006-.248-.038-.255-.227-.058-.248-.259-.34-.412-.072-.119-.169-.191-.321-.129-.049.021-.107.025-.21.048.067-.095.101-.139.143-.203-.119.021-.215.035-.33.053.071-.124.124-.221.211-.371-.392.172-.712.108-1.029-.045-.092-.043-.2-.03-.311-.085-.103-.053-.28.041-.465.077-.031-.065-.075-.169-.122-.269-.021-.048-.041-.103-.075-.141-.085-.092-.171-.183-.257-.274-1.584.894-3.047,1.971-4.382,3.189.028.023.056.044.083.067.056-.056.112-.11.183-.179-.014.083-.027.152-.046.25.087-.061.148-.105.239-.169-.024.11-.023.192-.06.245-.162.231-.342.453-.504.684-.083.12-.144.252-.213.377.041-.01.101-.023.158-.04-.13.196-.446.186-.481.474.055-.005.11-.006.153-.01-.008.06-.014.108-.014.108-.089.052-.16.079-.203.128-.06.065-.102.148-.156.235.052-.002.111-.006.166-.008.006.022.012.044.018.066-.124.041-.248.082-.382.125.025.016.042.027.058.038-.082.068-.164.133-.247.204.267.143.324.282.175.42.155.07.07.18.037.27-.128.36-.414.651-.555.632.053-.075.117-.164.18-.253-.091-.067-.158-.116-.236-.172-.025.024-.061.043-.074.075-.268.512-.748.819-1.163,1.186-.412.362-.818.73-1.075,1.216-.201.381-.369.788-.492,1.204-.081.26-.233.575.085.813.02.012.023.052.02.079Z" fill="#f3f3f3"/>
        </g>
      </g>
      <path d="M35.823,4.899c-6.532-6.532-17.123-6.532-23.655-.001l-.002.002c-6.532,6.533-6.531,17.123,0,23.655l11.828,11.828,11.828-11.828c6.532-6.532,6.532-17.123,0-23.656Z" fill="#f3705a"/>
      <path d="M15.315,8.047c4.794-4.793,12.566-4.793,17.359,0,4.794,4.794,4.794,12.566,0,17.36-4.794,4.794-12.566,4.794-17.36,0-4.794-4.794-4.794-12.565,0-17.359" fill="#fff"/>
      <g>
        <g>
          <path d="M31.839,22.526l-3.524-1.653-4.32,1.34-4.33-1.34-3.516,1.649c-.779.365-1.43.928-1.934,1.603.336.444.695.877,1.1,1.282,4.794,4.794,12.566,4.794,17.36,0,.404-.404.762-.836,1.098-1.279-.505-.674-1.155-1.236-1.934-1.602Z" fill="#344a5e"/>
          <path d="M21.393,21.405l.098,7.334c1.657.344,3.369.342,5.026-.004l.099-7.336-2.62.815-2.602-.809Z" fill="#e8eae9"/>
          <path d="M23.995,22.214l-1.478,1.46.742,1.266-.756,3.962c.99.121,1.989.121,2.979,0l-.756-3.962.747-1.266-1.478-1.46Z" fill="#4ec0aa"/>
          <g>
            <path d="M23.994,22.161s2.594-1.654,2.796-3.124l.981,1.704-1.824,3.926-1.953-2.507Z" fill="#f3f3f3"/>
            <path d="M27.322,19.921l-1.906,8.99c.801-.093,1.594-.266,2.368-.517l2.066-3.59-1.513-1.759,1.562-.676-2.577-2.448Z" fill="#415a6b"/>
          </g>
          <g>
            <path d="M23.994,22.161s-2.594-1.654-2.796-3.124l-.981,1.704,1.825,3.926,1.953-2.507Z" fill="#f3f3f3"/>
            <path d="M20.665,19.921l-2.577,2.448,1.563.676-1.513,1.759,2.065,3.59c.774.251,1.567.425,2.368.518l-1.906-8.99Z" fill="#415a6b"/>
          </g>
        </g>
        <path d="M21.197,17.246v1.791c.202,1.469,2.797,3.124,2.797,3.124,0,0,2.594-1.654,2.796-3.124v-1.791s-5.593,0-5.593,0Z" fill="#f7b64c"/>
        <g>
          <g>
            <g>
              <path d="M23.998,12.87c0,2.506-1.002,4.461-2.238,4.461s-2.315-1.955-2.413-4.461c-.103-2.617.894-4.826,2.231-4.826s2.42,2.208,2.42,4.826Z" fill="#415a6b"/>
              <path d="M28.841,12.327c-.114,2.752-2.006,4.891-4.231,4.891s-4.092-2.139-4.173-4.891c-.085-2.886,1.808-5.331,4.233-5.331s4.29,2.445,4.171,5.331Z" fill="#415a6b"/>
            </g>
            <path d="M28.158,12.488c-1.925-.224-3.892-.896-5.522-1.981-.742,1.238-1.642,2.238-2.872,2.848-.033.339-.052.683-.039,1.037.114,3.12,2.039,5.53,4.304,5.53,2.266,0,4.192-2.409,4.308-5.53.025-.663-.046-1.299-.18-1.904Z" fill="#ffd15c"/>
          </g>
          <g>
            <path d="M28.955,15.121c-.231.892-.8,1.535-1.274,1.448-.475-.087-.685-.874-.467-1.772.222-.911.8-1.585,1.288-1.493.487.092.688.911.453,1.817Z" fill="#ffd15c"/>
            <path d="M19.033,15.121c.231.892.8,1.535,1.274,1.448.475-.087.685-.874.467-1.772-.222-.911-.8-1.585-1.288-1.493-.487.092-.688.911-.453,1.817Z" fill="#ffd15c"/>
          </g>
        </g>
      </g>
    </g>
  </g>
</svg>