<?xml version="1.0" encoding="UTF-8"?>
<svg id="Layer_2" data-name="Layer 2" xmlns="http://www.w3.org/2000/svg" viewBox="0 0 48 48">
  <g id="Icon">
    <g>
      <g>
        <g>
          <circle cx="29.258" cy="7.524" r="7.524" fill="#f3705a"/>
          <circle cx="29.258" cy="7.524" r="5.684" fill="#fff"/>
        </g>
        <path d="M31.661,8.154h-2.403c-.347,0-.629-.282-.629-.629v-3.928c0-.347.282-.629.629-.629s.629.282.629.629v3.299h1.774c.347,0,.629.282.629.629s-.282.629-.629.629Z" fill="#415a6b"/>
      </g>
      <g>
        <rect x="35.064" y="28.891" width="5.648" height="1.601" fill="#415a6b"/>
        <path d="M42.859,32.639h0c0-1.186-.961-2.147-2.147-2.147h-5.648c-1.186,0-2.147.961-2.147,2.147h9.942Z" fill="#415a6b"/>
        <g>
          <path d="M27.189,32.319H2.816l.654-3.064c.336-1.573,1.427-2.88,2.916-3.491l3.984-1.635,4.636,1.438,4.636-1.438,3.98,1.633c1.49.612,2.582,1.921,2.917,3.496l.65,3.059Z" fill="#55c0eb"/>
          <g>
            <g>
              <polygon points="17.697 32.32 17.814 24.697 15.007 25.57 12.218 24.704 12.334 32.32 17.697 32.32" fill="#ced6e0"/>
              <polygon points="12.68 32.32 17.327 32.32 15.79 28.142 16.59 27.134 15.007 25.57 13.423 27.134 14.218 28.142 12.68 32.32" fill="#f3705a"/>
              <g>
                <path d="M15.005,25.514s2.78-1.773,2.996-3.347l1.051,1.826-1.955,4.207-2.093-2.686Z" fill="#e8eae9"/>
                <polygon points="18.377 32.32 21.28 27.274 19.659 26.46 21.334 25.736 18.572 23.113 16.393 32.32 18.377 32.32" fill="#8ad7f8"/>
              </g>
              <g>
                <path d="M15.005,25.514s-2.78-1.773-2.996-3.347l-1.051,1.826,1.955,4.207,2.093-2.686Z" fill="#e8eae9"/>
                <polygon points="8.73 27.274 11.633 32.32 13.618 32.32 11.438 23.113 8.677 25.736 10.351 26.46 8.73 27.274" fill="#8ad7f8"/>
              </g>
            </g>
            <path d="M12.009,20.247v1.919c.216,1.575,2.997,3.347,2.997,3.347,0,0,2.78-1.773,2.996-3.347v-1.919s-5.993,0-5.993,0Z" fill="#f7b64c"/>
            <g>
              <g>
                <path d="M15.01,15.819c0,2.534-1.074,4.511-2.398,4.511s-2.48-1.977-2.586-4.511c-.11-2.646.958-4.879,2.39-4.879s2.594,2.233,2.594,4.879Z" fill="#415a6b"/>
                <path d="M20.333,15.27c-.124,2.783-2.181,4.945-4.601,4.945s-4.45-2.163-4.538-4.945c-.093-2.918,1.966-5.39,4.603-5.39s4.665,2.472,4.535,5.39Z" fill="#415a6b"/>
              </g>
              <path d="M19.467,15.515c-2.063-.235-4.17-.943-5.917-2.086-.795,1.303-1.759,2.356-3.078,2.998-.036.357-.056.719-.042,1.091.122,3.285,2.185,5.821,4.613,5.821s4.492-2.537,4.617-5.821c.026-.698-.049-1.368-.193-2.004Z" fill="#ffd15c"/>
              <g>
                <path d="M20.321,18.095c-.248.902-.857,1.552-1.365,1.464-.509-.088-.734-.884-.5-1.791.238-.921.858-1.603,1.38-1.51.522.093.737.921.485,1.837Z" fill="#ffd15c"/>
                <path d="M9.689,18.095c.248.902.857,1.552,1.365,1.464.509-.088.734-.884.5-1.791-.238-.921-.858-1.603-1.38-1.51-.522.093-.737.921-.485,1.837Z" fill="#ffd15c"/>
              </g>
            </g>
          </g>
        </g>
        <rect y="32.318" width="48" height="4.345" fill="#ffd15c"/>
        <rect x="4.007" y="36.664" width="39.986" height="11.336" fill="#f7b64c"/>
        <rect x="29.258" y="15.664" width="17.259" height="13.227" rx="1" ry="1" fill="#415a6b"/>
      </g>
    </g>
  </g>
</svg>