<?xml version="1.0" encoding="UTF-8"?>
<svg id="Layer_2" data-name="Layer 2" xmlns="http://www.w3.org/2000/svg" viewBox="0 0 39.312 48">
  <g id="Icon">
    <g>
      <g>
        <path d="M11.476,0h24.836c1.657,0,3,1.343,3,3v42c0,1.657-1.343,3-3,3H3c-1.657,0-3-1.343-3-3V11.476L11.476,0Z" fill="#f3f3f3"/>
        <rect x="4" y="41.828" width="31.311" height="2.173" fill="#ced6e0"/>
        <rect x="4" y="35.857" width="31.311" height="2.173" fill="#ced6e0"/>
        <rect x="4" y="29.886" width="31.311" height="2.173" fill="#55c0eb"/>
      </g>
      <polygon points="11.476 0 11.476 11.476 0 11.476 11.476 0" fill="#ced6e0"/>
      <g>
        <path d="M23.127,7.029c-1.569,0-1.572,2.439,0,2.439s1.572-2.439,0-2.439Z" fill="#ffd15c"/>
        <g>
          <path d="M16.922,14.484v1.751c.197,1.436,2.735,3.076,2.735,3.076,0,0,2.536-1.64,2.733-3.076v-1.751s-5.467,0-5.467,0Z" fill="#f7b64c"/>
          <path d="M30.063,25.24l-.388-3.274c-.181-1.527-1.285-2.784-2.775-3.161l-3.081-.779-4.162,1.285-4.164-1.285-3.081.779c-1.491.377-2.594,1.634-2.775,3.161l-.388,3.274h20.814Z" fill="#344a5e"/>
          <polygon points="22.116 25.24 22.219 18.544 19.657 19.311 17.114 18.55 17.215 25.24 22.116 25.24" fill="#ced6e0"/>
          <polygon points="18.148 25.24 21.161 25.24 20.372 22.005 21.102 20.767 19.657 19.311 18.212 20.767 18.938 22.005 18.148 25.24" fill="#f3705a"/>
          <polygon points="19.657 19.311 22.39 16.235 23.349 17.901 21.565 21.74 19.657 19.311" fill="#e8eae9"/>
          <polygon points="22.881 25.24 25.381 20.895 23.902 20.153 25.43 19.492 22.91 17.099 20.983 25.24 22.881 25.24" fill="#415a6b"/>
          <polygon points="19.657 19.311 16.922 16.235 15.963 17.901 17.747 21.74 19.657 19.311" fill="#e8eae9"/>
          <polygon points="13.931 20.895 16.431 25.24 18.329 25.24 16.402 17.099 13.882 19.492 15.41 20.153 13.931 20.895" fill="#415a6b"/>
          <g>
            <path d="M22.343,7.09c-.134,0-.252.023-.363.055-.176-.117-.395-.192-.663-.192-.508,0-.849.257-1.029.603-.154-.413-.516-.74-1.09-.74-.624,0-.996.387-1.124.852-.195-.261-.501-.442-.926-.442-.738,0-1.125.54-1.169,1.112-.471.713-.153,1.942.964,1.942.739,0,1.126-.541,1.169-1.113.071-.109.125-.228.16-.354.195.261.501.442.926.442.508,0,.849-.257,1.029-.603.154.413.516.74,1.09.74.134,0,.252-.023.363-.056.176.118.395.192.663.192,1.569,0,1.572-2.439,0-2.439Z" fill="#ffd15c"/>
            <path d="M23.117,8.79c-1.641-.002-3.27-.424-4.417-1.251-.702,1.303-1.757,2.056-2.988,2.435-.147.518-.229,1.073-.229,1.652,0,2.801,1.869,5.072,4.174,5.072s4.174-2.271,4.174-5.072c0-1.05-.263-2.026-.713-2.836Z" fill="#ffd15c"/>
            <path d="M24.331,8.73c0,.942-.341,2.001-.922,2.92-.155-.834-.2-2.219.114-2.744.433-.728-.329-1.366-1.119-1.075-2.149,1.115-5.226,0-5.226,0-.793-.292-1.555.347-1.119,1.075.314.525.266,1.91.111,2.744-.578-.919-.922-1.979-.922-2.92,0-2.294,2.035-4.155,4.541-4.155s4.541,1.86,4.541,4.155Z" fill="#415a6b"/>
            <g>
              <path d="M24.453,11.808c-.188.878-.72,1.519-1.187,1.432-.467-.087-.693-.869-.505-1.746.188-.878.72-1.519,1.187-1.432.467.087.693.869.505,1.746Z" fill="#ffd15c"/>
              <path d="M14.859,11.808c.188.878.72,1.519,1.187,1.432.467-.087.693-.869.505-1.746-.188-.878-.72-1.519-1.187-1.432-.467.087-.693.869-.505,1.746Z" fill="#ffd15c"/>
            </g>
          </g>
        </g>
      </g>
    </g>
  </g>
</svg>