<?xml version="1.0" encoding="UTF-8"?>
<svg id="Layer_2" data-name="Layer 2" xmlns="http://www.w3.org/2000/svg" viewBox="0 0 48 48">
  <g id="Icon">
    <g>
      <path d="M4.359,0C1.952,0,0,1.952,0,4.359v39.281c0,2.408,1.952,4.359,4.359,4.359h30.562c2.408,0,4.359-1.952,4.359-4.359v-22.437h4.36V0H4.359Z" fill="#f3f3f3"/>
      <path d="M39.281,27.431h8.719V4.36c0-2.408-1.952-4.36-4.36-4.36h0c-2.408,0-4.359,1.952-4.359,4.36v23.072Z" fill="#ced6e0"/>
      <g>
        <g>
          <g>
            <path d="M15.576,15.711v-2.091c0-.891-.564-1.683-1.402-1.986-2.71-.981-5.681-.981-8.39,0-.838.303-1.402,1.095-1.402,1.986v2.091s11.194,0,11.194,0Z" fill="#f3705a"/>
            <path d="M12.67,6.895c0,1.486-1.204,2.69-2.69,2.69s-2.69-1.205-2.69-2.69,1.204-2.69,2.69-2.69,2.69,1.205,2.69,2.69Z" fill="#f3705a"/>
          </g>
          <g>
            <rect x="17.638" y="9.493" width="17.26" height="1.906" fill="#ced6e0"/>
            <rect x="17.638" y="13.805" width="9.665" height="1.906" fill="#ced6e0"/>
          </g>
        </g>
        <g>
          <g>
            <path d="M15.576,29.465v-2.091c0-.891-.564-1.683-1.402-1.986-2.71-.981-5.681-.981-8.39,0-.838.303-1.402,1.095-1.402,1.986v2.091s11.194,0,11.194,0Z" fill="#8ad7f8"/>
            <circle cx="9.979" cy="20.648" r="2.69" fill="#8ad7f8"/>
          </g>
          <g>
            <rect x="17.638" y="23.247" width="17.26" height="1.906" fill="#ced6e0"/>
            <rect x="17.638" y="27.559" width="9.665" height="1.906" fill="#ced6e0"/>
          </g>
        </g>
        <g>
          <g>
            <path d="M15.576,43.218v-2.091c0-.891-.564-1.683-1.402-1.986-2.71-.981-5.681-.981-8.39,0-.838.303-1.402,1.094-1.402,1.986v2.091s11.194,0,11.194,0Z" fill="#415a6b"/>
            <circle cx="9.979" cy="34.402" r="2.69" fill="#415a6b"/>
          </g>
          <g>
            <rect x="17.638" y="37" width="17.26" height="1.906" fill="#ced6e0"/>
            <rect x="17.638" y="41.312" width="9.665" height="1.906" fill="#ced6e0"/>
          </g>
        </g>
      </g>
    </g>
  </g>
</svg>