<?xml version="1.0" encoding="UTF-8"?>
<svg id="Layer_2" data-name="Layer 2" xmlns="http://www.w3.org/2000/svg" viewBox="0 0 48 48">
  <g id="Icon">
    <g>
      <g>
        <rect x="10.113" y="27.169" width="6.429" height="6.429" fill="#ced6e0"/>
        <g>
          <polygon points="14.604 29.16 15.95 27.902 13.328 25.361 10.705 27.901 12.051 29.16 14.604 29.16" fill="#f3705a"/>
          <polygon points="15.908 34.747 14.604 29.16 12.051 29.16 10.747 34.747 15.908 34.747" fill="#f3705a"/>
        </g>
        <g>
          <path d="M26.656,34.747l-.456-4.566c-.175-1.752-1.38-3.23-3.061-3.754l-3.922-1.222-4.204,9.541h11.642Z" fill="#344a5e"/>
          <path d="M11.642,34.747l-4.204-9.541-3.922,1.222c-1.681.524-2.886,2.002-3.061,3.754l-.456,4.566h11.642Z" fill="#344a5e"/>
        </g>
        <path d="M16.848,19.61l-3.52-2.775-3.52,2.775v2.975c.849,1.219,2.003,2.161,3.519,2.776,1.368-.586,2.573-1.457,3.52-2.776v-2.975Z" fill="#f7b64c"/>
        <g>
          <path d="M16.848,22.585c-.862,1.238-3.52,2.776-3.52,2.776l2.762,3.799,1.749-4.411-.991-2.164Z" fill="#f3f3f3"/>
          <path d="M9.774,22.585c.862,1.238,3.52,2.776,3.52,2.776l-2.762,3.799-1.749-4.411.991-2.164Z" fill="#f3f3f3"/>
          <polygon points="10.438 34.747 12.392 34.747 9.553 23.141 5.862 26.745 7.423 27.081 5.592 28.33 10.438 34.747" fill="#415a6b"/>
        </g>
        <polygon points="16.217 34.747 21.063 28.33 19.233 27.081 20.794 26.745 17.102 23.141 14.264 34.747 16.217 34.747" fill="#415a6b"/>
        <g>
          <path d="M19.418,17.201c-.239,1.114-.914,1.928-1.507,1.818-.593-.11-.88-1.103-.641-2.218.239-1.114.914-1.928,1.507-1.818.593.111.88,1.103.641,2.218Z" fill="#ffd15c"/>
          <path d="M7.237,17.201c.239,1.114.914,1.928,1.507,1.818.593-.11.88-1.103.641-2.218s-.914-1.928-1.507-1.818c-.593.111-.88,1.103-.641,2.218Z" fill="#ffd15c"/>
        </g>
        <path d="M17.871,18.249c.75-1.962,1.201-4.025,1.201-5.35,0-3.191-2.587-5.778-5.778-5.778s-5.778,2.587-5.778,5.778c0,1.325.451,3.388,1.201,5.35h9.154Z" fill="#415a6b"/>
        <path d="M13.059,12.336c-1.366,0-2.601-.203-3.708-.567-.82,1.253-1.322,2.894-1.322,4.697,0,3.923,2.357,7.104,5.265,7.104s5.265-3.181,5.265-7.104c0-1.874-.542-3.573-1.421-4.843-1.202.449-2.555.713-4.08.713Z" fill="#ffd15c"/>
      </g>
      <path d="M36.375,7.075v-2h-5.856c-.553,0-1,.447-1,1v16.926h-4.519c-.552,0-1,.448-1,1s.448,1,1,1h4.519v16.925c0,.553.447,1,1,1h5.856v-2h-4.856v-15.925h4.856v-2h-4.856V7.075h4.856Z" fill="#344a5e"/>
      <rect x="35.851" width="12.149" height="12.149" rx="2" ry="2" fill="#8ad7f8"/>
      <rect x="35.851" y="17.926" width="12.149" height="12.149" rx="2" ry="2" fill="#f3705a"/>
      <rect x="35.851" y="35.851" width="12.149" height="12.149" rx="2" ry="2" fill="#8ad7f8"/>
      <rect x="38.851" y="3" width="6.149" height="6.148" fill="#55c0eb"/>
      <rect x="38.851" y="20.925" width="6.149" height="6.149" fill="#f05540"/>
      <rect x="38.851" y="38.851" width="6.149" height="6.149" fill="#55c0eb"/>
    </g>
  </g>
</svg>