<?xml version="1.0" encoding="UTF-8"?>
<svg id="Layer_2" data-name="Layer 2" xmlns="http://www.w3.org/2000/svg" viewBox="0 0 36.16 48">
  <g id="Icon">
    <g>
      <g>
        <polygon points="16.209 31.888 24.917 48 27.058 42.168 33.11 43.572 26.795 31.888 16.209 31.888" fill="#f7b64c"/>
        <polygon points="9.365 31.888 3.05 43.572 9.102 42.168 11.243 48 19.951 31.888 9.365 31.888" fill="#ffd15c"/>
      </g>
      <g>
        <path d="M36.16,18.08c0,1.525-2.261,2.733-2.637,4.139-.389,1.455.953,3.629.216,4.903-.748,1.292-3.308,1.211-4.357,2.26-1.049,1.049-.968,3.609-2.26,4.357-1.274.737-3.448-.606-4.903-.217-1.406.376-2.614,2.637-4.139,2.637s-2.733-2.261-4.139-2.637c-1.455-.389-3.629.954-4.903.216-1.292-.748-1.211-3.308-2.26-4.357-1.049-1.049-3.609-.968-4.357-2.26-.737-1.274.605-3.448.217-4.903-.376-1.407-2.637-2.614-2.637-4.139s2.261-2.733,2.637-4.139c.389-1.455-.954-3.629-.216-4.903.748-1.292,3.308-1.212,4.357-2.26,1.049-1.049.968-3.61,2.26-4.357,1.274-.737,3.448.605,4.903.217,1.406-.376,2.614-2.637,4.139-2.637s2.733,2.261,4.139,2.637c1.455.389,3.629-.954,4.903-.216,1.292.748,1.211,3.309,2.26,4.357,1.049,1.049,3.609.968,4.357,2.26.737,1.274-.605,3.448-.217,4.903.376,1.406,2.637,2.614,2.637,4.139Z" fill="#f3705a"/>
        <circle cx="18.08" cy="18.08" r="11.687" fill="#f3f3f3"/>
        <g>
          <polygon points="15.786 18.946 15.786 19.857 18.063 22.039 20.339 19.857 20.339 18.946 15.786 18.946" fill="#f7b64c"/>
          <path d="M26.528,25.246c0-1.089-.641-2.077-1.637-2.519l-3.925-1.747-2.903,1.059.003,7.727s.009,0,.014,0c3.325,0,6.319-1.396,8.448-3.625v-.897Z" fill="#344a5e"/>
          <path d="M26.563,25.246c0-1.089-.641-2.077-1.637-2.519l-3.925-1.747-2.921,1.059-2.922-1.059-3.925,1.747c-.995.443-1.637,1.43-1.637,2.519v.857c2.131,2.252,5.139,3.664,8.483,3.664s6.353-1.412,8.483-3.664v-.857Z" fill="#344a5e"/>
          <polygon points="20.394 26.227 20.394 21.561 18.062 22.039 15.927 21.592 15.927 26.227 20.394 26.227" fill="#ced6e0"/>
          <path d="M19.316,23.288l-1.254-1.249-1.252,1.249.629,1.073-.973,3.32,1.115,2.061c.167.007.33.025.498.025.158,0,.311-.017.467-.024l1.109-2.063-.973-3.32.633-1.073Z" fill="#f3705a"/>
          <polygon points="18.062 22.039 20.339 19.857 21.017 21.034 19.411 23.747 18.062 22.039" fill="#e8eae9"/>
          <path d="M20.707,20.467l-2.412,9.289c.149-.003.296-.014.444-.022l3.281-4.41-1.348-1.416,1.952-.754-1.917-2.687Z" fill="#415a6b"/>
          <polygon points="18.062 22.039 15.786 19.857 15.108 21.034 16.713 23.747 18.062 22.039" fill="#e8eae9"/>
          <path d="M15.417,20.467l-1.917,2.687,1.952.754-1.348,1.416,3.287,4.408c.148.009.295.019.445.022l-2.418-9.288Z" fill="#415a6b"/>
          <path d="M21.274,13.257c-.19-.612-.464-1.157-.799-1.61h-4.804c-.682.921-1.11,2.226-1.11,3.676,0,2.784,1.573,5.046,3.51,5.046,1.921,0,3.479-2.22,3.51-4.966.047-.025.091-.056.132-.102.49-.518.33-1.233.022-1.807-.113-.21-.295-.273-.461-.238Z" fill="#ffd15c"/>
          <path d="M22.242,12.26c-.468-1.888-2.157-2.83-4.102-2.845-.271-.002-.555.015-.849.058,0,0,.385-.239,1.357-.239,0,0-2.109-.954-3.467,1.211,0,0-3.098,1.614-.566,5.723,0,0-.296-2.715,1.025-3.889,0,0,.697.899,1.944,1.137,0,0-.477-.202-.77-.624,0,0,1.234.228,2.704-.142,1.023-.257,2.047.47,2.064,1.524l-.058,2.086s1.198-2.064.718-4.002Z" fill="#344a5e"/>
          <path d="M22.087,16.324c-.054.562-.39.989-.751.955s-.61-.518-.556-1.08c.054-.562.39-.989.751-.954s.61.518.556,1.08Z" fill="#ffd15c"/>
          <path d="M14.056,16.324c.054.562.39.989.751.955.361-.035.61-.518.556-1.08-.054-.562-.39-.989-.751-.954-.361.035-.61.518-.556,1.08Z" fill="#ffd15c"/>
        </g>
      </g>
    </g>
  </g>
</svg>