<?xml version="1.0" encoding="UTF-8"?>
<svg id="Layer_2" data-name="Layer 2" xmlns="http://www.w3.org/2000/svg" viewBox="0 0 47.561 48">
  <g id="Icon">
    <g>
      <g>
        <path d="M47.561,27.313h-8.251v16.562c0,2.278,1.847,4.125,4.125,4.125h0c2.278,0,4.125-1.847,4.125-4.125v-16.562Z" fill="#ced6e0"/>
        <path d="M39.31,43.875V4.125c0-2.278-1.847-4.125-4.125-4.125H4.125C1.847,0,0,1.847,0,4.125v39.749c0,2.279,1.847,4.125,4.125,4.125h39.31c-2.279,0-4.125-1.847-4.125-4.125Z" fill="#f3f3f3"/>
      </g>
      <rect x="4" y="41.827" width="31.311" height="2.173" fill="#ced6e0"/>
      <rect x="4" y="35.856" width="31.311" height="2.173" fill="#ced6e0"/>
      <rect x="4" y="29.885" width="31.311" height="2.172" fill="#ced6e0"/>
      <g>
        <path d="M27.612,21.376h-15.912c1.528-2.279,2.344-4.961,2.344-7.705v-4.055c0-3.102,2.514-5.616,5.616-5.616h0c3.102,0,5.616,2.514,5.616,5.616v4.067c0,2.736.811,5.411,2.332,7.686l.004.006Z" fill="#f3705a"/>
        <polygon points="21.187 24.811 23.19 18.569 19.656 18.569 14.11 22.042 16.096 24.811 21.187 24.811" fill="#ced6e0"/>
        <g>
          <polygon points="22.414 16.394 19.656 18.569 21.953 21.278 23.19 18.09 22.414 16.394" fill="#f3f3f3"/>
          <polygon points="16.898 16.394 16.121 18.09 17.358 21.278 19.656 18.569 16.898 16.394" fill="#f3f3f3"/>
        </g>
        <g>
          <g>
            <path d="M29.802,24.811h0c-.172-2.847-2.087-5.29-4.81-6.138l-.722-.225-2.63,6.363h8.162Z" fill="#344a5e"/>
            <polygon points="23.007 24.811 25.717 20.896 24.282 19.917 25.506 19.654 22.613 16.83 20.755 24.811 23.007 24.811" fill="#415a6b"/>
          </g>
          <g>
            <path d="M17.624,24.811l-2.582-6.363-.722.225c-2.723.848-4.637,3.292-4.81,6.138h8.114Z" fill="#344a5e"/>
            <polygon points="16.267 24.811 18.504 24.811 16.698 16.83 13.806 19.654 15.029 19.917 13.595 20.896 16.267 24.811" fill="#415a6b"/>
          </g>
        </g>
        <polygon points="22.414 14.063 19.656 11.888 16.898 14.063 16.898 16.394 19.656 18.569 22.414 16.394 22.414 14.063" fill="#f7b64c"/>
        <path d="M24.428,12.175c-.187.873-.716,1.511-1.181,1.424-.465-.086-.69-.864-.502-1.738.187-.873.716-1.511,1.181-1.424s.69.864.502,1.738Z" fill="#ffd15c"/>
        <path d="M14.884,12.175c.187.873.716,1.511,1.181,1.424.465-.086.69-.864.502-1.738-.187-.873-.716-1.511-1.181-1.424s-.69.864-.502,1.738Z" fill="#ffd15c"/>
        <path d="M23.81,10.488c0,3.619-1.86,6.553-4.154,6.553s-4.154-2.935-4.154-6.553c0-.13,0-.888.006-1.011v-.007c.192-.048,3.918-.418,5.049-2.183.999.84,1.701,1.274,3.189,1.492.032.226.045,1.087.057,1.326.006.123.006.253.006.383Z" fill="#ffd15c"/>
      </g>
    </g>
  </g>
</svg>