<?xml version="1.0" encoding="UTF-8"?>
<svg id="Layer_2" data-name="Layer 2" xmlns="http://www.w3.org/2000/svg" viewBox="0 0 48 48">
  <g id="Icon">
    <g>
      <path d="M48,26.042v17.679c0,2.363-1.916,4.279-4.279,4.279s-4.279-1.916-4.279-4.279v-17.679h8.558Z" fill="#ced6e0"/>
      <path d="M4.279,48c-2.363,0-4.279-1.916-4.279-4.279V4.279C0,1.916,1.916,0,4.279,0h30.883c2.363,0,4.28,1.916,4.28,4.279v39.441c0,2.363,1.916,4.279,4.279,4.279H4.279Z" fill="#f3f3f3"/>
      <g>
        <rect x="19.311" y="5.505" width="14.958" height="2.035" fill="#ced6e0"/>
        <rect x="19.311" y="12.496" width="14.958" height="2.035" fill="#ced6e0"/>
        <rect x="19.311" y="19.487" width="14.958" height="2.035" fill="#ced6e0"/>
        <rect x="5.173" y="26.478" width="29.096" height="2.035" fill="#ced6e0"/>
        <rect x="5.173" y="33.469" width="29.096" height="2.035" fill="#ced6e0"/>
        <rect x="5.173" y="40.46" width="29.096" height="2.035" fill="#ced6e0"/>
      </g>
      <path d="M9.839,21.934v-1.456c-1.69-.266-3.243-1.033-4.666-2.301l1.852-2.255c1.04.91,1.976,1.488,2.814,1.742v-2.976c-1.397-.357-2.417-.845-3.074-1.449-.65-.604-.975-1.475-.975-2.612s.37-2.08,1.118-2.814c.747-.741,1.722-1.183,2.931-1.332v-.975h2.119v1.014c1.332.189,2.658.741,3.971,1.657l-1.638,2.359c-.838-.598-1.612-1.001-2.333-1.196v2.872c1.436.37,2.502.871,3.184,1.495.689.63,1.027,1.514,1.027,2.658s-.383,2.086-1.144,2.833c-.767.747-1.787,1.189-3.067,1.339v1.397h-2.119ZM9.839,9.255c-.572.201-.858.565-.858,1.098s.286.942.858,1.222v-2.32ZM12.978,16.521c0-.279-.078-.507-.221-.695-.149-.189-.416-.357-.799-.52v2.457c.682-.214,1.02-.624,1.02-1.241Z" fill="#ffd15c"/>
    </g>
  </g>
</svg>