<?xml version="1.0" encoding="UTF-8"?>
<svg id="Layer_2" data-name="Layer 2" xmlns="http://www.w3.org/2000/svg" viewBox="0 0 48 48">
  <g id="Icon">
    <g>
      <rect y="40.57" width="16" height="7.43" fill="#8ad7f8"/>
      <rect x="32" y="36.573" width="16" height="11.427" fill="#66c6b9"/>
      <rect x="16" y="33.229" width="16" height="14.771" fill="#f3705a"/>
      <g>
        <path d="M18.462,25.334h11.077c.829,0,1.503.673,1.503,1.503v6.392h-14.083v-6.392c0-.829.673-1.503,1.503-1.503Z" fill="#415a6b"/>
        <path d="M22.232,19.31c-.272,2.255-1.603,4.386-3.803,6.026l-.002.002h11.059c-2.205-1.639-3.541-3.771-3.816-6.028h-3.438Z" fill="#f7b64c"/>
        <g>
          <g>
            <path d="M36.183,1.963c-.183-.203-.444-.318-.717-.318h-5.034v1.931h3.918c-.348,2.022-1.375,6.461-3.918,9.249v2.614c5.028-3.781,5.954-12.329,5.995-12.732.028-.272-.06-.542-.244-.745Z" fill="#f7b64c"/>
            <path d="M17.403,12.648c-2.425-2.796-3.412-7.093-3.753-9.072h3.753v-1.931h-4.869c-.273,0-.534.115-.717.318-.183.203-.272.473-.244.745.04.398.947,8.761,5.83,12.603v-2.663Z" fill="#f7b64c"/>
          </g>
          <path d="M31.504,13.689V0h-15.009v13.689c0,4.145,3.36,7.504,7.504,7.504h0c4.145,0,7.504-3.36,7.504-7.504Z" fill="#ffd15c"/>
        </g>
      </g>
    </g>
  </g>
</svg>