<?xml version="1.0" encoding="UTF-8"?>
<svg id="Layer_2" data-name="Layer 2" xmlns="http://www.w3.org/2000/svg" viewBox="0 0 48 48.247">
  <g id="Icon">
    <g>
      <rect x="11.225" y="40.116" width="24.348" height="3.192" fill="#f7b64c"/>
      <g>
        <path d="M11.034,48.246h0c-2.372.068-4.193-2.085-3.733-4.412L15.374,2.98C15.708,1.287,17.17.051,18.895.002h0c2.372-.068,4.193,2.084,3.733,4.412l-8.073,40.853c-.334,1.693-1.796,2.93-3.521,2.979Z" fill="#ffd15c"/>
        <path d="M36.966,48.246h0c2.372.068,4.193-2.085,3.733-4.412L32.626,2.98C32.292,1.287,30.83.051,29.105.002h0c-2.372-.068-4.193,2.084-3.733,4.412l8.072,40.853c.335,1.693,1.796,2.93,3.521,2.979Z" fill="#ffd15c"/>
      </g>
      <g>
        <rect x="2.409" y="7.652" width="43.181" height="25.594" fill="#e8eae9"/>
        <path d="M45.59,8.134H2.409c-1.331,0-2.409-1.079-2.409-2.409s1.079-2.409,2.409-2.409h43.181c1.331,0,2.409,1.079,2.409,2.409s-1.079,2.409-2.409,2.409Z" fill="#f3705a"/>
        <path d="M45.59,37.759H2.409c-1.331,0-2.409-1.079-2.409-2.409s1.079-2.41,2.409-2.41h43.181c1.331,0,2.409,1.079,2.409,2.41s-1.079,2.409-2.409,2.409Z" fill="#f3705a"/>
      </g>
      <g>
        <path d="M39.738,16.684c.049-.208.015-.427-.097-.608l-3.287-5.331c-.233-.379-.729-.496-1.108-.263-.379.233-.496.73-.263,1.108l2.209,3.583c-4.954-1.041-10.063-.377-14.599,2.01-4.912,2.585-8.586,6.847-10.417,12.056-.15.428.097.898.53,1.033.416.129.849-.102.994-.513,3.388-9.604,13.432-15.118,23.287-12.995l-3.788,2.335c-.378.233-.496.729-.263,1.108.233.379.729.496,1.108.263l5.331-3.286c.181-.112.311-.292.36-.5Z" fill="#415a6b"/>
        <path d="M15.523,15.153c0-2.074-1.687-3.761-3.761-3.761s-3.761,1.687-3.761,3.761,1.687,3.761,3.761,3.761,3.761-1.687,3.761-3.761ZM11.761,17.304c-1.186,0-2.152-.965-2.152-2.152s.965-2.152,2.152-2.152,2.152.965,2.152,2.152-.965,2.152-2.152,2.152Z" fill="#4ec0aa"/>
        <path d="M25.821,23.188c-2.074,0-3.761,1.687-3.761,3.761s1.687,3.762,3.761,3.762,3.76-1.687,3.76-3.762-1.687-3.761-3.76-3.761ZM25.821,29.101c-1.186,0-2.152-.965-2.152-2.152s.965-2.152,2.152-2.152,2.151.965,2.151,2.152-.965,2.152-2.151,2.152Z" fill="#4ec0aa"/>
        <path d="M39.764,27.996l-1.462-1.462,1.462-1.462c.314-.314.314-.824,0-1.138-.314-.315-.824-.315-1.138,0l-1.462,1.462-1.462-1.463c-.314-.314-.824-.314-1.138,0-.314.314-.314.824,0,1.138l1.462,1.463-1.462,1.462c-.314.314-.314.824,0,1.138.314.314.824.314,1.138,0l1.462-1.462,1.462,1.462c.314.314.824.314,1.138,0,.314-.314.314-.824,0-1.138Z" fill="#4ec0aa"/>
      </g>
    </g>
  </g>
</svg>