<?xml version="1.0" encoding="UTF-8"?>
<svg id="Layer_2" data-name="Layer 2" xmlns="http://www.w3.org/2000/svg" viewBox="0 0 48 48">
  <g id="Icon">
    <g>
      <path d="M42.158,29.078c-.412,1.472-.994,2.879-1.734,4.173l2.513,5.748-3.938,3.948-5.758-2.522c-1.294.741-2.691,1.322-4.163,1.735l-2.288,5.842h-5.579l-2.288-5.842c-1.472-.413-2.869-.994-4.173-1.735l-5.748,2.522-3.948-3.948,2.523-5.757c-.741-1.294-1.322-2.691-1.735-4.163l-5.842-2.288v-5.579l5.842-2.288c.413-1.472.994-2.869,1.735-4.173l-2.523-5.748,3.948-3.948,5.748,2.522c1.303-.741,2.701-1.322,4.173-1.735l2.288-5.842h5.579l2.288,5.842c1.472.413,2.869.994,4.163,1.735l5.758-2.522,3.948,3.948-2.522,5.748c.741,1.303,1.322,2.7,1.734,4.173l5.842,2.288v5.579l-5.842,2.288Z" fill="#415a6b"/>
      <g>
        <path d="M23.994,37.282c-7.331,0-13.275-5.944-13.275-13.288s5.944-13.275,13.275-13.275,13.288,5.944,13.288,13.275-5.944,13.288-13.288,13.288Z" fill="#8ad7f8"/>
        <path d="M23.994,10.719c-1.403,0-2.754.221-4.023.625.048.075.1.154.076.2-.151.27.02.459.007.693-.009.121.121.119.206-.005.059-.088.097-.189.141-.273.093-.025.195-.077.278-.068.078.012.135.085.185.119-.036.069-.078.126-.096.183-.078.237-.008.48.157.527.188.051.332.155.504.23.096.043.22.034.351.052-.045.069-.079.101-.093.136-.199.447-.672.669-1.031.443-.29-.182-.603-.341-.807-.633-.052-.069-.197-.077-.301-.087-.088-.004-.122.076-.149.163-.011.028-.197.073-.201.057-.068-.204-.351-.192-.379-.432-.005-.062-.075-.118-.135-.143-.175-.06-.285-.179-.342-.355.15-.037.244-.144.242-.273-1.834.821-3.449,2.041-4.729,3.556.038.094.08.186.132.268.068.117.156.191.337.155.154-.034.323-.021.429.051.101.066.194.052.307.03.147-.032.294-.068.431-.069.168-.002.357.159.321.265-.042.136-.008.154.106.139.138-.013.297.16.255.264-.063.148-.115.318-.218.437-.171.188-.199.379-.17.539.041.227.057.444.013.704-.035.211-.13.412-.178.615-.016.065-.095.136-.154.204-.155.181-.318.356-.461.55-.053.07-.07.181-.071.263-.003.303.01.606-.113.939-.104.269-.138.528-.085.776.031.141.029.339-.037.498-.104.256-.075.392.162.394.094,0,.198-.011.273.022.159.073.336.091.534.046.39-.085.731-.353,1.066-.623.045-.037.1-.104.116-.159.044-.203.149-.256.314-.233.133.017.246-.067.291-.215.036-.122.038-.246.062-.367.006-.035.028-.088.047-.096.178-.078.313-.288.531-.259.203.025.454-.015.59-.254.117-.209.172-.453.236-.684.095-.317.121-.658.437-.901.094-.072.174-.163.27-.216.114-.064.246-.094.364-.138-.045-.076-.065-.121-.09-.162.352.08.669-.001.982-.205.271-.174.541-.355.8-.547.077-.056.123-.161.207-.278-.282-.054-.52-.11-.767-.139-.242-.028-.305-.172-.16-.386.056.013.106.033.155.034.343.004.686.007,1.028.019.043,0,.095.013.123-.012.146-.113.28-.064.424-.051.132.012.277-.007.365-.17.075.103.143.115.226-.023.03-.047.124-.059.189-.089.065-.03.182-.068.183-.095,0-.097-.006-.229-.065-.274-.119-.087-.134-.181-.092-.314.014-.04.023-.082.039-.152-.087.038-.144.063-.201.088-.235.11-.42.115-.477-.02-.045-.117-.109-.279-.09-.362.037-.173-.047-.297-.03-.451.005-.058-.007-.123.019-.171.067-.123-.01-.166-.075-.231-.071-.068-.126-.152-.19-.226.013-.017.031-.033.047-.048.052.023.104.073.156.063.159-.022.154.086.156.184.006.053-.007.111-.012.174.175-.033.214.095.224.205.007.173.001.319.121.469.106.135.192.225.374.221.043.001.12.078.111.111-.037.14.049.184.144.228.071.033.137.073.203.104.251.122.504.244.704.342.111.146.188.258.27.367-.025.006-.064.019-.106.03-.005.016-.011.027-.015.043.098.048.197.097.295.146-.118.025-.19.035-.262.05-.009.018-.026.038-.036.056.069.076.127.168.213.22.031.016.125-.062.22-.111-.004.03.001.079-.017.111-.151.237-.261.497-.303.766-.048.326-.066.658-.09.988-.006.084.012.172.016.261.072-.025.14-.051.207-.073.006-.002.016.003.018,0,.219-.159.485-.277.566-.557.03-.109.071-.134.177-.153.331-.064.661-.143.989-.215.112-.027.223-.059.332-.086-.009-.009-.02-.021-.031-.026.108-.089.214-.177.279-.233.098.032.151.052.207.069-.049.101-.105.218-.158.336.017.01.032.018.051.024.04-.061.083-.119.123-.18.033.17.028.329.03.487,0,.023.024.041.029.062.023.096.091.222.054.284-.114.203.079.274.158.356.103.105.124.181.073.309-.04.092-.075.192-.086.292-.016.157-.063.268-.197.386-.109.091-.249.252-.128.453.043.065.047.178.015.248-.138.324-.065.603.153.869.114-.212.125-.648.017-.856-.111-.21.043-.404.026-.607-.003-.02.056-.042.084-.063.096-.084.25-.121.246-.293.001-.018.076-.058.097-.046.041.019.071.064.107.099-.052.039-.093.071-.112.087.093.228.183.436.275.647.016-.004.036-.012.056-.014.01-.026.021-.052.035-.076.021-.052.048-.105.069-.158.026.052.047.106.075.154.061.114.068.261.27.242.173-.012.254-.106.316-.235.106-.235-.009-.466-.068-.69-.054-.198-.034-.288.163-.362.076-.023.138-.055.215.025.035.03.184-.026.192-.007.069.158.227.167.345.246.137.094.246.075.33,0,.061.052.112.13.165.137.234.024.476.055.7.033.174-.02.335-.111.499-.177.22-.083.274-.291.136-.494-.01-.016-.011-.03-.022-.061.073.026.122.045.202.076-.017-.173-.032-.326-.047-.479.088-.005.172-.021.26-.017.084.011.162.043.248.068.01-.016.02-.032.03-.048-.076-.08-.148-.212-.233-.229-.313-.066-.542-.25-.498-.53.085.001.17-.001.27-.002.1.329.423.177.632.318-.067.059-.125.111-.2.175.215.024.403.054.506.251.03.058.003.14,0,.208.006.087.142.174-.051.25-.126.05-.104.254.005.312.087.047.209.092.282.065.06-.022.099-.141.104-.23.008-.124-.024-.261-.043-.413.074.02.127.04.176.043.081-.001.178.008.249-.024.187-.086.273-.069.459.081.094.078.226.161.326.157.332-.011.657-.051.981-.077.021-.002.055-.013.054-.027.007-.22.205-.219.338-.294.056-.03.109-.112.102-.173-.012-.078-.085-.214-.139-.229-.223-.05-.292-.194-.312-.395.083.014.165.031.247.045-2.153-4.428-6.683-7.488-11.946-7.488Z" fill="#f3f3f3"/>
        <path d="M36.807,26.6c.05-.181.097-.348.142-.517-.02-.013-.038-.023-.061-.033-.042.059-.107.113-.129.18-.061.187-.113.377-.148.571-.033.174-.038.353-.048.532-.004.077.008.158.013.237-.014.004-.028.002-.042.005-.008-.056-.02-.109-.025-.157-.166-.036-.229.015-.245.183-.012.139.017.31-.125.414-.09.064-.193.112-.274.185-.23.202-.452.412-.69.629-.251-.074-.339-.024-.364.243-.071-.01-.148-.02-.223-.033-.007.02-.012.049-.011.054-.079.016-.143.033-.211.043-.099.014-.207.057-.296.03-.213-.068-.422-.034-.637-.027-.077.001-.154-.026-.235-.038.005-.017.007-.032.009-.046-.115.02-.237.019-.343.064-.1.045-.177.143-.304.045-.1-.074-.249-.105-.308-.201-.167-.268-.387-.449-.687-.534-.078-.021-.169.015-.255.003-.186-.027-.372-.07-.561-.099-.034-.004-.087.019-.105.045-.145.215-.33.14-.523.096-.29-.061-.576-.155-.874-.111-.054.006-.099.051-.146.079.053.031.104.082.161.09.252.037.503.063.754.095-.002.025,0,.048-.005.071-.118.023-.238.056-.36.059-.105.003-.212-.045-.317-.048-.201.002-.402.022-.603.03-.09.005-.183.019-.274.012-.173-.005-.348.075-.511-.06-.08-.066-.189-.131-.285-.137-.111-.002-.227.049-.333.095-.169.074-.338.154-.492.248-.14.084-.288.177-.387.298-.067.086-.104.175-.226.185-.327.041-.606.183-.865.376-.022.018-.062.009-.093.008-.156-.006-.317-.036-.466-.014-.177.024-.349.112-.526.136-.132.021-.14.078-.143.189-.005.071-.066.193-.108.198-.144.016-.341.044-.43-.036-.202-.17-.345-.4-.304-.702.027-.185-.072-.338-.217-.452-.029-.021-.091-.006-.145-.006-.021-.067-.031-.162-.08-.228-.049-.065-.131-.123-.209-.144-.196-.052-.401-.08-.599-.123-.244-.052-.481-.141-.726-.161-.177-.013-.36.053-.536.1-.179.049-.368.176-.535.032-.226-.197-.42-.43-.633-.642-.243-.239-.387-.551-.665-.767-.137-.111-.229-.313-.276-.489-.035-.134-.097-.216-.189-.298-.041-.032-.078-.075-.097-.119-.076-.143-.194-.173-.314-.045-.089-.236-.172-.46-.261-.69-.03.016-.066.038-.105.057l-.143-.128c.098-.192.035-.344-.136-.31-.143.028-.201-.051-.289-.109-.076-.047-.172-.084-.26-.093-.111-.014-.14.138-.056.278-.075.035-.15.07-.249.121.046-.104.07-.168.103-.246-.426.108-.593.27-.541.505.171-.046.341-.092.503-.135-.012.032-.032.084-.057.153.147-.002.218.05.209.192-.007.182-.003.362-.007.558.12-.038.204-.065.307-.096.026.228.053.456.076.675.04.009.054.011.063.014.069.03.139.06.209.091-.049.037-.118.072-.138.118-.022.061-.018.145,0,.209.01.025.089.032.139.049-.123.191-.236.364-.346.539-.075.126-.031.22.102.263.032.007.065.005.1.014.003.056.003.105.003.158.087-.024.159-.045.229-.063.076-.018.149-.033.225-.041.031-.005.066.016.101.026-.021.024-.037.053-.061.074-.054.042-.106.082-.177.131-.138-.086-.281-.058-.48.151-.11.116-.011.221.044.34.072.171.065.376.095.564-.002.009-.016.018-.021.029-.096.161-.065.425.082.536.142.111.191.23.129.4-.045.116-.101.232-.12.355-.032.186-.208.303-.12.558.118.353.282.655.548.91.048.043.118.084.129.137.031.205.053.413.061.619.01.186.223.452.405.47.04.004.102-.006.115-.032.086-.149.235-.112.364-.147.123-.029.248-.09.355-.161.068-.052.114-.145.161-.227.047-.076.073-.165.121-.236.021-.035.068-.046.107-.065.006,0,.018.01.026.013,0,.043-.001.085,0,.15.114-.049.204-.107.302-.127.115-.02.133-.058.102-.161-.065-.209.131-.313.208-.464.018-.032.141-.013.212-.02.01.127.03.236.027.341-.002.164.148.159.233.219.248.19.552.145.752-.095.136-.163.304-.254.538-.227.088.009.19-.061.281-.103.064-.029.118-.072.204-.124-.004.04-.008.063-.013.074.107-.011.223-.026.344-.041-.002-.141.024-.284.233-.313.051-.008.09-.076.133-.112.027-.024.056-.068.084-.07.122-.004.141-.115.209-.173.173-.157-.043-.162-.061-.237-.007-.028-.017-.058-.044-.142.117.067.188.114.266.147.038.018.107.042.134.024.096-.07.147-.427.093-.546-.065-.149-.018-.231.132-.285.061-.02.124-.072.163-.128.058-.077.081-.185.145-.251.119-.12.408-.107.534.011.093.088.172.191.265.28.03.027.094.057.122.044.107-.06.212-.122.304-.201.087-.073.153-.164.212-.229.11.099.202.164.274.251.166.192.161.198.389.064-.02-.061-.048-.108-.057-.158-.014-.109-.058-.234-.023-.327.04-.104.139-.22.236-.256.242-.09.5-.101.737.036.088.052.176.115.248.19.15.15.401.236.376.514-.014.154-.02.309-.058.453-.031.112-.102.209-.148.302-.069.035-.164.063-.223.128-.08.089-.119.227-.211.306-.203.178-.43.335-.646.502.212.189.252.467.174.757-.031.106.019.242.059.353.037.103.149.181.162.28.022.149.005.311-.021.459-.015.089-.079.166-.12.247-.015.029-.039.067-.032.095.021.078.056.147.086.222.069.169-.108.688-.272.793-.003.003-.011,0-.017,0-.025-.05-.051-.099-.095-.181-.12.306-.222.575-.337.864.085-.01.133-.016.181-.021.013-.349.26-.504.526-.357-.014.057-.031.112-.052.19.356-.014.31-.351.502-.528-.037.16-.037.31-.106.41-.145.215-.325.403-.487.607-.048.059-.081.126-.111.196-.059.119-.106.244-.154.362-.015.046-.042.113-.021.137.04.057.112.138.163.135.132-.016.263-.06.383-.114.155-.071.3-.166.43-.239.052.062.077.123.112.127.025.002.051,0,.076.002.18-.051.36-.104.537-.163-.003-.025-.005-.049-.013-.081-.008-.045,0-.108.024-.14.104-.116.221-.227.331-.338q.227.214.452.066c.025-.015.059-.012.084-.027.118-.083.244-.158.353-.249.117-.1.202-.249.332-.315.262-.136.541-.23.813-.341.015.019.027.035.042.049-.014.106-.029.212-.045.321.167-.095.328-.196.49-.298,0-.036.004-.074.004-.11.007-.133.107-.167.207-.17.057-.001.117.019.183.04.027-.018.052-.04.079-.059-.006-.053-.011-.096-.015-.124.109-.037.212-.074.323-.108,0,0,.001,0,.001,0,.157-.114.315-.227.466-.348-.008-.007-.013-.02-.022-.022-.052-.02-.134-.007-.189.024-.06.037-.099.104-.15.161-.015-.008-.029-.015-.047-.02.008-.111.034-.222.017-.329-.009-.067-.064-.138.025-.165.036-.01.125.053.144.102.071.16.145.108.216.011.035-.044.049-.102.071-.157-.012-.005-.026-.013-.038-.018-.063.046-.129.089-.191.135-.012-.016-.027-.029-.039-.04.17-.213.322-.442.514-.631.183-.18.409-.317.616-.475-.039.18-.102.323-.302.359-.059.012-.13.109-.149.178-.017.06.027.137.042.204.157-.104.314-.157.434-.157.102-.099.201-.199.299-.301-.009-.011-.011-.022-.022-.034.02.006.032,0,.05.003.334-.348.646-.715.941-1.098-.03-.019-.068-.042-.097-.06-.045.051-.089.093-.137.14-.014-.044-.03-.08-.04-.111-.062.003-.116.009-.169.015.057-.094.131-.157.207-.218.139-.107.334-.179.411-.314.143-.254.302-.455.572-.558.013-.006.019-.015.031-.021.035-.057.07-.115.105-.173.075-.166.154-.329.28-.462.635-1.168,1.095-2.444,1.357-3.791-.073.147-.11.15-.224.053Z" fill="#f3f3f3"/>
      </g>
    </g>
  </g>
</svg>