<?xml version="1.0" encoding="UTF-8"?>
<svg id="Layer_2" data-name="Layer 2" xmlns="http://www.w3.org/2000/svg" viewBox="0 0 40.065 48">
  <g id="Icon">
    <g>
      <g>
        <path d="M35.699,34.478c-.69,0-1.25.56-1.25,1.25,0,4.004-3.004,7.328-6.987,7.733l-5.883.596v2.512l6.135-.622c5.266-.534,9.235-4.928,9.235-10.22,0-.69-.56-1.25-1.25-1.25Z" fill="#e8eae9"/>
        <ellipse cx="20.033" cy="45.47" rx="3.118" ry="2.53" fill="#415a6b"/>
      </g>
      <g>
        <path d="M4.651,27.249c-.958-2.139-1.483-4.474-1.483-6.887C3.168,11.064,10.734,3.499,20.033,3.499s16.864,7.565,16.864,16.863c0,2.413-.525,4.748-1.483,6.887h3.249c.804-2.176,1.234-4.5,1.234-6.887C39.897,9.409,30.986.499,20.033.499S.168,9.409.168,20.362c0,2.386.43,4.711,1.234,6.887h3.249Z" fill="#e8eae9"/>
        <g>
          <g>
            <path d="M8.188,21.767c-4.536.088-8.188,3.786-8.188,8.344s3.652,8.256,8.188,8.344v-16.687Z" fill="#f3705a"/>
            <path d="M9.864,40.236c-.984,0-1.782-.798-1.782-1.782v-16.687c0-.984.797-1.781,1.782-1.781s1.782.797,1.782,1.781v16.687c0,.984-.798,1.782-1.782,1.782Z" fill="#e8eae9"/>
          </g>
          <g>
            <path d="M31.876,21.767c4.536.088,8.188,3.786,8.188,8.344s-3.652,8.256-8.188,8.344v-16.687Z" fill="#f3705a"/>
            <path d="M30.201,40.236c.984,0,1.782-.798,1.782-1.782v-16.687c0-.984-.798-1.781-1.782-1.781s-1.782.797-1.782,1.781v16.687c0,.984.797,1.782,1.782,1.782Z" fill="#e8eae9"/>
          </g>
        </g>
        <path d="M31.679,4.216l-1.678,2.587c-.141.217-.429.269-.642.121-2.649-1.843-5.865-2.924-9.325-2.924s-6.676,1.082-9.325,2.924c-.213.148-.501.096-.642-.121l-1.678-2.587c-.136-.209-.083-.493.122-.634C11.791,1.319,15.763,0,20.033,0s8.243,1.319,11.524,3.582c.205.141.258.425.122.634Z" fill="#f3705a"/>
      </g>
    </g>
  </g>
</svg>