<?xml version="1.0" encoding="UTF-8"?>
<svg id="Layer_2" data-name="Layer 2" xmlns="http://www.w3.org/2000/svg" viewBox="0 0 46.695 48">
  <g id="Icon">
    <g>
      <path d="M24.642.014C13.112.424,4.141,10.25,4.141,21.788L.125,31.157c-.431,1.006.307,2.126,1.402,2.126h2.614v6.37c0,1.603,1.299,2.902,2.902,2.902h4.705v5.445h21.132c.116-3.777,1.96-7.295,5.03-9.523,5.322-3.862,8.785-10.12,8.785-17.199h0C46.695,9.268,36.747-.417,24.642.014Z" fill="#e8eae9"/>
      <g>
        <path d="M36.721,22.7v-3.851l-3.144-1.243c-.097-.305-.219-.597-.354-.877l1.341-3.096-2.718-2.718-3.108,1.341c-.28-.134-.573-.244-.865-.353l-1.255-3.157h-3.839l-1.243,3.157c-.305.11-.597.232-.877.366l-3.096-1.353-2.718,2.718,1.341,3.108c-.134.28-.256.573-.354.865l-3.156,1.243v3.851l3.156,1.243c.098.292.22.585.354.865l-1.341,3.108,2.718,2.718,3.108-1.341c.28.134.573.244.865.353l1.243,3.157h3.839l1.255-3.157c.292-.097.573-.219.853-.353l3.12,1.341,2.718-2.718-1.341-3.096c.134-.28.256-.573.354-.877l3.144-1.243ZM24.702,24.338c-1.973,0-3.563-1.599-3.563-3.563s1.59-3.563,3.563-3.563,3.554,1.599,3.554,3.563-1.59,3.563-3.554,3.563Z" fill="#8ad7f8"/>
        <path d="M24.705,14.664c-3.383,0-6.111,2.743-6.111,6.11s2.727,6.11,6.111,6.11,6.095-2.743,6.095-6.11-2.728-6.11-6.095-6.11ZM24.702,24.338c-1.973,0-3.563-1.599-3.563-3.563s1.591-3.563,3.563-3.563,3.554,1.599,3.554,3.563-1.59,3.563-3.554,3.563Z" fill="#55c0eb"/>
      </g>
    </g>
  </g>
</svg>