<?xml version="1.0" encoding="UTF-8"?>
<svg id="Layer_2" data-name="Layer 2" xmlns="http://www.w3.org/2000/svg" viewBox="0 0 31.729 48">
  <g id="Icon">
    <g>
      <path d="M19.403,44.461c0,1.952-1.587,3.539-3.538,3.539s-3.539-1.587-3.539-3.539h7.077Z" fill="#344a5e"/>
      <path d="M22.645,34.291c.528-2.547,1.887-4.868,3.858-6.649,3.288-2.97,5.322-7.303,5.222-12.105C31.553,7.286,24.837.385,16.592.016,7.499-.391,0,6.871,0,15.875c0,4.65,2,8.835,5.19,11.734,1.978,1.798,3.356,4.124,3.891,6.681h13.564Z" fill="#f3f3f3"/>
      <path d="M14.864,33.986h2v-15.418l4.036-4.045c.389-.39.388-1.021,0-1.41h0c-.39-.39-1.021-.39-1.411,0l-3.624,3.625-3.625-3.625c-.389-.39-1.021-.39-1.411,0-.389.389-.39,1.02,0,1.41l4.036,4.045v15.418Z" fill="#ffd15c"/>
      <path d="M9.081,34.291v8.028c0,1.183.959,2.142,2.142,2.142h9.279c1.183,0,2.142-.959,2.142-2.142v-8.028h-13.564Z" fill="#415a6b"/>
      <g>
        <path d="M7.363,35.902c.103.881.901,1.512,1.783,1.409l14.084-1.646c.881-.103,1.512-.901,1.409-1.783h0c-.103-.882-.901-1.512-1.783-1.409l-14.084,1.646c-.881.103-1.512.901-1.409,1.783h0Z" fill="#344a5e"/>
        <path d="M24.64,39.039c-.103-.881-.901-1.512-1.783-1.409l-14.084,1.646c-.882.103-1.512.901-1.409,1.783h0c.103.882.901,1.513,1.783,1.41l14.084-1.646c.882-.103,1.512-.901,1.409-1.783h0Z" fill="#344a5e"/>
      </g>
    </g>
  </g>
</svg>