<?xml version="1.0" encoding="UTF-8"?>
<svg id="Layer_2" data-name="Layer 2" xmlns="http://www.w3.org/2000/svg" viewBox="0 0 48 48">
  <g id="Icon">
    <g>
      <g>
        <g>
          <rect x="2.607" y="12.636" width="42.785" height="32.523" rx="3" ry="3" fill="#415a6b"/>
          <rect x="5.608" y="15.636" width="36.785" height="23.824" fill="#8ad7f8"/>
        </g>
        <path d="M0,42.318c0,3.138,2.544,5.682,5.682,5.682h36.636c3.138,0,5.682-2.544,5.682-5.682H0Z" fill="#344a5e"/>
      </g>
      <g>
        <g>
          <path d="M37.145,0H10.855c-1.657,0-3,1.343-3,3v36.46h32.29V3c0-1.657-1.343-3-3-3Z" fill="#f3f3f3"/>
          <rect x="11.422" y="17.704" width="25.156" height="1.629" fill="#ced6e0"/>
          <rect x="11.422" y="13.036" width="25.156" height="1.629" fill="#ced6e0"/>
          <rect x="11.422" y="22.371" width="9.41" height="1.629" fill="#ced6e0"/>
          <rect x="11.422" y="8.368" width="25.156" height="1.629" fill="#ced6e0"/>
          <rect x="11.422" y="3.7" width="15.804" height="1.629" fill="#ffd15c"/>
        </g>
        <g>
          <polygon points="37.453 32.183 28.764 26.704 29.96 36.908 31.78 34.461 33.321 36.904 36.001 35.214 34.46 32.771 37.453 32.183" fill="#f3705a"/>
          <g>
            <path d="M29.684,22.647h-.002c-.215-.049-.428.085-.477.3l-.289,1.275c-.049.215.086.428.301.477h.002c.215.049.428-.086.477-.3l.289-1.275c.049-.215-.086-.428-.301-.477Z" fill="#ffd15c"/>
            <path d="M27.095,23.309c-.118-.186-.364-.242-.55-.124h-.002c-.186.119-.242.365-.125.551l.698,1.106c.117.186.364.242.55.124h.002c.186-.119.242-.365.125-.552l-.698-1.106Z" fill="#ffd15c"/>
            <path d="M26.758,26.252v-.003c.049-.215-.085-.428-.3-.477l-1.275-.289c-.215-.049-.428.086-.477.301v.003c-.049.215.085.428.3.477l1.275.289c.215.049.428-.086.477-.301Z" fill="#ffd15c"/>
            <path d="M27.025,27.8c-.117-.186-.364-.242-.55-.125l-1.106.697c-.186.118-.242.364-.125.55v.002c.119.186.365.242.551.125l1.106-.697c.186-.118.242-.364.125-.55v-.002Z" fill="#ffd15c"/>
            <path d="M28.311,28.709h-.002c-.215-.049-.428.086-.477.3l-.289,1.275c-.049.215.086.428.301.477h.002c.215.049.428-.085.477-.3l.289-1.275c.049-.215-.086-.428-.301-.477Z" fill="#ffd15c"/>
            <path d="M32.521,27.145l-1.275-.289c-.215-.049-.428.086-.477.301v.002c-.049.215.085.429.3.477l1.275.289c.215.049.428-.086.477-.301v-.002c.049-.215-.085-.428-.3-.477Z" fill="#ffd15c"/>
            <path d="M32.284,24.486v-.002c-.119-.186-.365-.242-.551-.125l-1.106.697c-.186.118-.242.364-.125.55v.002c.119.186.365.242.551.125l1.106-.697c.186-.118.242-.364.125-.55Z" fill="#ffd15c"/>
          </g>
        </g>
      </g>
    </g>
  </g>
</svg>