<?xml version="1.0" encoding="UTF-8"?>
<svg id="Layer_2" data-name="Layer 2" xmlns="http://www.w3.org/2000/svg" viewBox="0 0 48 35.057">
  <g id="Icon">
    <g>
      <path d="M6.741,1.662v23.051h34.517V1.662c0-.918-.744-1.662-1.662-1.662H8.403c-.918,0-1.662.744-1.662,1.662Z" fill="#415a6b"/>
      <rect x="9.241" y="2.499" width="29.517" height="19.713" fill="#fff"/>
      <path d="M6.741,24.719L.389,32.33c-.903,1.082-.134,2.727,1.276,2.727h44.67c1.409,0,2.179-1.644,1.276-2.727l-6.352-7.612H6.741Z" fill="#e8eae9"/>
      <polygon points="17.357 31.734 20.437 28.042 27.563 28.042 30.643 31.734 17.357 31.734" fill="#ced6e0"/>
      <g>
        <g>
          <rect x="16.187" y="14.956" width="2.73" height="4.707" fill="#66c6b9"/>
          <rect x="20.618" y="13.187" width="2.729" height="6.475" fill="#ffd15c"/>
          <rect x="25.05" y="10.948" width="2.73" height="8.715" fill="#8ad7f8"/>
          <rect x="29.481" y="8.144" width="2.73" height="11.519" fill="#f3705a"/>
        </g>
        <polygon points="29.48 5.36 27.73 7.78 27.37 6.97 16.28 11.94 15.79 10.84 26.88 5.87 26.51 5.05 29.48 5.36" fill="#415a6b"/>
      </g>
    </g>
  </g>
</svg>