<?xml version="1.0" encoding="UTF-8"?>
<svg id="Layer_2" data-name="Layer 2" xmlns="http://www.w3.org/2000/svg" viewBox="0 0 48 36.369">
  <g id="Icon">
    <g>
      <polygon points="41.706 25.692 6.294 25.692 0 33.054 48 33.054 41.706 25.692" fill="#ced6e0"/>
      <polygon points="18.471 31.055 21.346 27.691 26.654 27.691 29.529 31.055 18.471 31.055" fill="#adb3ba"/>
      <g>
        <path d="M8.294,0h31.413c1.105,0,2,.895,2,2v23.692H6.294V2c0-1.105.896-2,2-2Z" fill="#415a6b"/>
        <rect x="8.794" y="2.5" width="30.412" height="20.692" fill="#8ad7f8"/>
      </g>
      <path d="M48,33.054H0c0,1.83,1.484,3.314,3.314,3.314h41.371c1.831,0,3.314-1.484,3.314-3.314h0Z" fill="#adb3ba"/>
      <path d="M32.162,18.743c-5.441,1.179-10.883,1.179-16.325,0-1.632-3.931-1.632-7.862,0-11.793,5.442-1.179,10.884-1.179,16.325,0,1.632,3.931,1.632,7.862,0,11.793Z" fill="#fff"/>
      <path d="M21.32,10.113v5.465c0,.598.686.936,1.16.571l3.552-2.733c.375-.289.375-.854,0-1.143l-3.552-2.733c-.474-.365-1.16-.027-1.16.571Z" fill="#f3705a"/>
    </g>
  </g>
</svg>