<?xml version="1.0" encoding="UTF-8"?>
<svg id="Layer_2" data-name="Layer 2" xmlns="http://www.w3.org/2000/svg" viewBox="0 0 34.857 48">
  <g id="Icon">
    <g>
      <path d="M7.883,22.404v-8.123c0-5.318,4.327-9.645,9.645-9.645s9.646,4.327,9.646,9.645v8.123h4.636v-8.123c0-7.875-6.407-14.282-14.283-14.282S3.247,6.407,3.247,14.282v8.123h4.636Z" fill="#415a6b"/>
      <path d="M17.428,48c9.625,0,17.428-7.803,17.428-17.428v-9.292c0-2.74-2.163-4.985-4.998-4.985h0c-2.835,0-5.134,2.221-5.134,4.961-4.789-.669-9.653-.669-14.442,0,0-2.74-2.298-4.961-5.134-4.961S0,18.51,0,21.25v9.322c0,9.626,7.803,17.429,17.428,17.429h0Z" fill="#e8eae9"/>
      <path d="M19.096,34.305l1.484,3.987h-6.143l1.484-3.987c-.892-.522-1.484-1.507-1.484-2.62,0-1.704,1.368-3.072,3.072-3.072,1.692,0,3.072,1.368,3.072,3.072,0,1.113-.591,2.086-1.484,2.62Z" fill="#415a6b"/>
    </g>
  </g>
</svg>