<?xml version="1.0" encoding="UTF-8"?>
<svg id="Layer_2" data-name="Layer 2" xmlns="http://www.w3.org/2000/svg" viewBox="0 0 48 48">
  <g id="Icon">
    <g>
      <path d="M43.357,27.182v-10.542c0-1.689-1.369-3.058-3.058-3.058h-21.952l-1.852-3.492c-.53-1-1.57-1.625-2.702-1.625h-7.052c-1.689,0-3.058,1.369-3.058,3.058v15.66h39.675Z" fill="#f7b64c"/>
      <path d="M32.075,0l8.623,8.623v24.772H7.302V3c0-1.657,1.343-3,3-3h21.772Z" fill="#f3f3f3"/>
      <polygon points="32.075 0 40.697 8.623 32.075 8.623 32.075 0" fill="#ced6e0"/>
      <path d="M47.948,23.67l-4.145,21.953c-.26,1.379-1.465,2.377-2.868,2.377H6.091c-1.4,0-2.603-.994-2.867-2.369L.053,29.096c-.345-1.8,1.034-3.468,2.866-3.468h27.049l3.289-4.278c.552-.719,1.407-1.14,2.314-1.14h9.508c1.829,0,3.207,1.663,2.868,3.46Z" fill="#ffd15c"/>
      <g>
        <circle cx="24" cy="14.806" r="8.075" transform="translate(-3.44 21.307) rotate(-45)" fill="#f3705a"/>
        <polygon points="20.977 10.309 20.977 19.302 28.214 14.805 20.977 10.309" fill="#f3f3f3"/>
      </g>
    </g>
  </g>
</svg>