<?xml version="1.0" encoding="UTF-8"?>
<svg id="Layer_2" data-name="Layer 2" xmlns="http://www.w3.org/2000/svg" viewBox="0 0 48 48">
  <g id="Icon">
    <g>
      <path d="M44.443,40.197c2.198-2.261,3.557-5.343,3.557-8.745,0-6.934-5.621-12.556-12.556-12.556s-12.556,5.621-12.556,12.556,5.621,12.556,12.556,12.556c.699,0,1.381-.072,2.049-.182l9.67,4.174-2.72-7.803Z" fill="#8ad7f8"/>
      <path d="M37.627,19.098c-.71-.125-1.437-.202-2.183-.202-6.934,0-12.556,5.621-12.556,12.556,0,1.862.416,3.623,1.143,5.212,7.518-2.504,13.034-9.348,13.595-17.565Z" fill="#55c0eb"/>
      <path d="M17.722,0C7.934,0,0,7.934,0,17.722c0,5.613,2.617,10.607,6.689,13.855l-3.508,11.32,12.362-7.6c.716.088,1.44.148,2.179.148,9.788,0,17.722-7.934,17.722-17.722S27.51,0,17.722,0Z" fill="#f3705a"/>
      <g>
        <path d="M8.371,12.405h18.702c.66,0,1.195-.535,1.195-1.195s-.535-1.195-1.195-1.195H8.371c-.66,0-1.195.535-1.195,1.195s.535,1.195,1.195,1.195Z" fill="#fff"/>
        <path d="M27.073,16.527H8.371c-.66,0-1.195.535-1.195,1.195s.535,1.195,1.195,1.195h18.702c.66,0,1.195-.535,1.195-1.195s-.535-1.195-1.195-1.195Z" fill="#fff"/>
        <path d="M18.848,23.04h-10.477c-.66,0-1.195.535-1.195,1.195s.535,1.195,1.195,1.195h10.477c.66,0,1.195-.535,1.195-1.195s-.535-1.195-1.195-1.195Z" fill="#fff"/>
      </g>
    </g>
  </g>
</svg>