<?xml version="1.0" encoding="UTF-8"?>
<svg id="Layer_2" data-name="Layer 2" xmlns="http://www.w3.org/2000/svg" viewBox="0 0 29.343 48">
  <g id="Icon">
    <g>
      <path d="M2.331,21.117H.426v9.07c0,.526.426.952.952.952h3.131v-1.905h-2.179v-8.118Z" fill="#415a6b"/>
      <rect y="18.181" width="4.082" height="3.464" rx=".571" ry=".571" transform="translate(4.082 39.826) rotate(180)" fill="#415a6b"/>
      <g>
        <path d="M25.465,46.522c-2.997-3.249-6.893-5.069-10.925-4.977-3.94.038-7.655,1.801-10.457,4.961l-1.628-1.443c3.216-3.628,7.501-5.65,12.064-5.695.052-.001.104-.001.156-.001,4.614,0,9.008,2.013,12.391,5.68l-1.601,1.475Z" fill="#ced6e0"/>
        <rect x="13.584" y="36.592" width="2.177" height="9.193" fill="#ced6e0"/>
        <rect x="12.091" y="25.113" width="5.161" height="2.058" fill="#415a6b"/>
        <path d="M26.029,4.22c-2.065,5.724-2.806,12.042-2.48,18.955.056,1.268-.976,2.323-2.245,2.323h-13.265c-1.268,0-2.301-1.055-2.245-2.323.326-6.913-.415-13.232-2.48-18.955-.449-1.235.269-2.592,1.537-2.929C8.129.415,11.395-.011,14.66,0h.022c3.266-.011,6.532.415,9.809,1.291,1.268.337,1.986,1.695,1.537,2.929Z" fill="#66c6b9"/>
        <path d="M27.012,21.117v8.118h-2.178v1.905h3.13c.526,0,.952-.426.952-.952v-9.07h-1.904Z" fill="#415a6b"/>
        <rect x="25.261" y="18.181" width="4.082" height="3.464" rx=".571" ry=".571" fill="#415a6b"/>
        <path d="M22.859,26.966H6.485c-1.779,0-3.221,1.442-3.221,3.221s1.442,3.221,3.221,3.221h16.374c1.779,0,3.221-1.442,3.221-3.221s-1.442-3.221-3.221-3.221Z" fill="#4ec0aa"/>
        <rect x="12.73" y="33.408" width="3.882" height="3.43" fill="#344a5e"/>
        <g>
          <circle cx="3.389" cy="45.784" r="2.216" fill="#344a5e"/>
          <path d="M28.17,45.784c0,1.224-.992,2.216-2.216,2.216s-2.216-.992-2.216-2.216.992-2.216,2.216-2.216,2.216.992,2.216,2.216Z" fill="#344a5e"/>
        </g>
        <circle cx="14.767" cy="45.784" r="2.216" fill="#344a5e"/>
      </g>
    </g>
  </g>
</svg>