<?xml version="1.0" encoding="UTF-8"?>
<svg id="Layer_2" data-name="Layer 2" xmlns="http://www.w3.org/2000/svg" viewBox="0 0 48 42.955">
  <g id="Icon">
    <g>
      <path d="M29.494,20.986l-1.351-14.312c-.215-2.275-2.124-4.012-4.409-4.012h-10.206c-2.285,0-4.194,1.738-4.409,4.012l-1.351,14.312h21.727Z" fill="#415a6b"/>
      <g>
        <rect y="18.007" width="48" height="4.175" fill="#ffd15c"/>
        <g>
          <g>
            <rect x="6.022" y="40.77" width="3.675" height="2.185" fill="#ffd15c"/>
            <rect x="38.303" y="40.77" width="3.675" height="2.185" fill="#ffd15c"/>
          </g>
          <rect x="3.214" y="22.182" width="41.573" height="18.588" fill="#f7b64c"/>
        </g>
      </g>
      <polyline points="41.083 16.878 44.178 11.291 39.238 2.661" fill="none" stroke="#ced6e0" stroke-miterlimit="10" stroke-width="1.5"/>
      <circle cx="44.178" cy="11.291" r="1.499" fill="#415a6b"/>
      <circle cx="44.178" cy="11.291" r=".601" fill="#344a5e"/>
      <path d="M35.434,18.007h11.298c0-1.247-1.011-2.258-2.258-2.258h-6.782c-1.247,0-2.258,1.011-2.258,2.258Z" fill="#e8eae9"/>
      <g>
        <path d="M35.548,7.57c-.753.753-1.975.753-2.728,0s-.753-1.975,0-2.728l2.728,2.728Z" fill="#ffd15c"/>
        <g>
          <path d="M37.489,9.511l-6.61-6.61c1.829-1.829,4.791-1.829,6.62,0,1.818,1.818,1.819,4.781-.01,6.61Z" fill="#f3705a"/>
          <path d="M39.759.631c-.842-.842-2.206-.842-3.048,0l-1.524,1.524,3.048,3.048,1.524-1.524c.842-.842.841-2.206,0-3.048Z" fill="#f3705a"/>
        </g>
      </g>
    </g>
  </g>
</svg>