<?xml version="1.0" encoding="UTF-8"?>
<svg id="Layer_2" data-name="Layer 2" xmlns="http://www.w3.org/2000/svg" viewBox="0 0 39.186 48">
  <g id="Icon">
    <g>
      <g>
        <g>
          <path d="M.376,7.506l1.957-.704.385,1.069-1.422.512,3.09,8.59c.106.296-.047.621-.342.727-.295.106-.621-.047-.727-.342L.034,8.233c-.106-.295.047-.621.342-.727Z" fill="#344a5e"/>
          <path d="M13.921,20.698L8.011,4.269c-.631-1.755-2.565-2.665-4.32-2.034h0c-1.754.631-2.665,2.565-2.034,4.32l5.088,14.144h7.176Z" fill="#415a6b"/>
          <rect x="4.378" y="12.897" width="6.752" height="1.264" transform="translate(-4.122 3.424) rotate(-19.789)" fill="#344a5e"/>
        </g>
        <g>
          <path d="M22.931,8.383c.017-.161.026-.326.026-.497L18.49,0l-4.432,7.884c0,.171.01.337.028.498l8.845.002Z" fill="#f7b64c"/>
          <polygon points="20.184 8.382 20.098 7.482 18.49 0 16.914 7.481 16.841 8.382 20.184 8.382" fill="#ffd15c"/>
          <path d="M22.984,20.698l-.028-12.813c-.325.313-.777.499-1.265.499-.675,0-1.267-.361-1.594-.903-.324.542-.914.902-1.59.902-.675,0-1.267-.361-1.594-.903-.324.541-.914.902-1.59.902-.488,0-.935-.187-1.267-.5l.028,12.815h8.899Z" fill="#f05540"/>
          <path d="M20.127,20.698l-.029-13.216c-.324.542-.914.902-1.59.902-.675,0-1.267-.361-1.594-.903l.029,13.217h3.183Z" fill="#f3705a"/>
          <path d="M16.856,2.908L18.49.002l1.646,2.907c-1.012.571-2.266.571-3.28,0Z" fill="#344a5e"/>
          <path d="M19.19,3.259L18.491.004v-.002s-.001,0-.001,0l-.686,3.256c.457.097.929.097,1.386,0Z" fill="#415a6b"/>
        </g>
        <g>
          <path d="M34.921,20.698l3.911-12.786c.161-.528-.136-1.087-.664-1.249l-7.962-2.435c-.528-.161-1.087.136-1.249.664l-4.834,15.806h10.797Z" fill="#8ad7f8"/>
          <rect x="28.333" y="6.458" width="2.831" height="1.379" transform="translate(3.391 -8.388) rotate(17.006)" fill="#55c0eb"/>
          <rect x="27.296" y="9.776" width="1.873" height="1.38" transform="translate(4.295 -7.799) rotate(17.005)" fill="#55c0eb"/>
          <rect x="26.218" y="13.374" width="2.831" height="1.38" transform="translate(5.322 -7.467) rotate(17.006)" fill="#55c0eb"/>
          <rect x="25.181" y="16.691" width="1.873" height="1.38" transform="translate(6.226 -6.879) rotate(17.006)" fill="#55c0eb"/>
        </g>
      </g>
      <g>
        <path d="M32.538,45.398l3.991-21.31H4.196l3.991,21.31c.282,1.508,1.599,2.602,3.134,2.602h18.081c1.535,0,2.852-1.093,3.134-2.602Z" fill="#e8eae9"/>
        <polygon points="35.765 28.166 36.529 24.088 4.196 24.088 4.96 28.166 35.765 28.166" fill="#ced6e0"/>
        <path d="M36.528,25.151H4.196c-1.468,0-2.657-1.19-2.657-2.657s1.19-2.657,2.657-2.657h32.332c1.468,0,2.657,1.19,2.657,2.657s-1.19,2.657-2.657,2.657Z" fill="#e8eae9"/>
      </g>
    </g>
  </g>
</svg>