<?xml version="1.0" encoding="UTF-8"?>
<svg id="Layer_2" data-name="Layer 2" xmlns="http://www.w3.org/2000/svg" viewBox="0 0 48 48">
  <g id="Icon">
    <g>
      <g>
        <path d="M13.623,20.36h-4.927c-.553,0-1,.448-1,1v13.251h2v-12.251h3.927v-2Z" fill="#415a6b"/>
        <path d="M39.304,20.36h-4.101v2h3.101v12.251h2v-13.251c0-.552-.447-1-1-1Z" fill="#415a6b"/>
      </g>
      <g>
        <g>
          <circle cx="8.696" cy="39.304" r="8.696" transform="translate(-6.337 1.962) rotate(-9.452)" fill="#ffd15c"/>
          <g>
            <path d="M5.78,39.304c0,.754-.611,1.365-1.365,1.365s-1.365-.611-1.365-1.365.611-1.365,1.365-1.365,1.365.611,1.365,1.365Z" fill="#f3f3f3"/>
            <path d="M10.061,39.304c0,.754-.611,1.365-1.365,1.365s-1.365-.611-1.365-1.365.611-1.365,1.365-1.365,1.365.611,1.365,1.365Z" fill="#f3f3f3"/>
            <path d="M14.342,39.304c0,.754-.611,1.365-1.365,1.365s-1.365-.611-1.365-1.365.611-1.365,1.365-1.365,1.365.611,1.365,1.365Z" fill="#f3f3f3"/>
          </g>
        </g>
        <g>
          <circle cx="39.304" cy="39.304" r="8.696" transform="translate(-8.005 10.123) rotate(-13.333)" fill="#f3705a"/>
          <g>
            <path d="M36.389,39.304c0,.754-.611,1.365-1.365,1.365s-1.365-.611-1.365-1.365.611-1.365,1.365-1.365,1.365.611,1.365,1.365Z" fill="#f3f3f3"/>
            <path d="M40.67,39.304c0,.754-.611,1.365-1.365,1.365s-1.365-.611-1.365-1.365.611-1.365,1.365-1.365,1.365.611,1.365,1.365Z" fill="#f3f3f3"/>
            <path d="M44.951,39.304c0,.754-.611,1.365-1.365,1.365s-1.365-.611-1.365-1.365.611-1.365,1.365-1.365,1.365.611,1.365,1.365Z" fill="#f3f3f3"/>
          </g>
        </g>
      </g>
      <g>
        <g>
          <path d="M33.321,0h-12.791l-8.232,8.232v19.72c0,1.314,1.065,2.38,2.38,2.38h18.643c1.314,0,2.38-1.066,2.38-2.38V2.38c0-1.314-1.066-2.38-2.38-2.38Z" fill="#f3f3f3"/>
          <rect x="15.868" y="25.104" width="16.262" height="1.658" fill="#ced6e0"/>
          <rect x="15.868" y="19.852" width="16.262" height="1.658" fill="#ced6e0"/>
          <rect x="15.868" y="14.6" width="16.262" height="1.658" fill="#ced6e0"/>
          <rect x="23.233" y="9.348" width="8.898" height="1.658" fill="#ced6e0"/>
        </g>
        <polygon points="20.53 0 12.299 8.232 20.53 8.232 20.53 0" fill="#adb3ba"/>
      </g>
    </g>
  </g>
</svg>