<?xml version="1.0" encoding="UTF-8"?>
<svg id="Layer_2" data-name="Layer 2" xmlns="http://www.w3.org/2000/svg" viewBox="0 0 48.001 47.996">
  <g id="Icon">
    <g>
      <path d="M.001,12.236v32.759c0,1.66,1.34,3,3,3h33.432l11.568-11.568V12.236H.001Z" fill="#f3f3f3"/>
      <path d="M48.001,36.428h-8.568c-1.66,0-3,1.34-3,3v8.568s11.568-11.568,11.568-11.568Z" fill="#adb3ba"/>
      <path d="M48,12.236V3c0-1.657-1.343-3-3-3H3C1.343,0,0,1.343,0,3v9.236h48Z" fill="#66c6b9"/>
      <path d="M12.98,6.118c0,1.359-1.102,2.461-2.461,2.461s-2.461-1.102-2.461-2.461,1.102-2.461,2.461-2.461,2.461,1.102,2.461,2.461Z" fill="#fff"/>
      <circle cx="37.481" cy="6.118" r="2.461" fill="#fff"/>
      <path d="M23.415,41.166v-1.946c-2.436-.248-4.623-1.217-6.559-2.905l1.946-2.319c1.493,1.298,3.029,2.07,4.613,2.319v-5.172c-2.009-.479-3.48-1.111-4.413-1.893-.933-.782-1.399-1.942-1.399-3.479s.536-2.794,1.612-3.773c1.076-.977,2.476-1.51,4.2-1.599v-1.333h1.705v1.359c1.955.143,3.803.809,5.546,2l-1.734,2.453c-1.174-.835-2.443-1.351-3.812-1.547v5.012h.08c2.044.481,3.545,1.129,4.504,1.946.961.818,1.441,2.005,1.441,3.559s-.551,2.823-1.653,3.799c-1.102.979-2.558,1.511-4.372,1.6v1.919h-1.705ZM21.534,23.958c-.453.399-.679.897-.679,1.493s.178,1.066.534,1.412c.354.347,1.031.68,2.026,1v-4.613c-.801.072-1.428.307-1.881.707ZM27.147,35.648c.497-.408.746-.923.746-1.546s-.195-1.115-.586-1.48c-.393-.364-1.122-.706-2.187-1.026v4.798c.853-.088,1.527-.337,2.026-.746Z" fill="#344a5e"/>
    </g>
  </g>
</svg>