<?xml version="1.0" encoding="UTF-8"?>
<svg id="Layer_2" data-name="Layer 2" xmlns="http://www.w3.org/2000/svg" viewBox="0 0 29.457 48">
  <g id="Icon">
    <g>
      <rect x="0" width="29.456" height="48" rx="3" ry="3" fill="#415a6b"/>
      <rect y="5.876" width="29.457" height="33.302" fill="#e8eae9"/>
      <g>
        <rect x="2.5" y="30.078" width="6.6" height="6.6" rx="1.1" ry="1.1" fill="#f3705a"/>
        <rect x="11.429" y="30.078" width="6.6" height="6.6" rx="1.1" ry="1.1" fill="#66c6b9"/>
        <rect x="20.357" y="30.078" width="6.6" height="6.6" rx="1.1" ry="1.1" fill="#ffd15c"/>
      </g>
      <path d="M17.094,43.589c0,1.306-1.059,2.365-2.366,2.365s-2.365-1.059-2.365-2.365,1.059-2.366,2.365-2.366,2.366,1.059,2.366,2.366Z" fill="#344a5e"/>
      <path d="M19.864,21.04c.379,0,.71-.303.999-.909.289-.606.434-1.367.434-2.284,0-1.991-.572-3.637-1.708-4.943-1.144-1.305-2.68-1.956-4.595-1.956s-3.534.682-4.85,2.053c-1.309,1.367-1.963,3.007-1.963,4.919s.613,3.503,1.853,4.774c1.233,1.268,2.755,1.905,4.581,1.905,1.426,0,2.68-.524,3.761-1.567l.868,1.502c-.558.496-1.281.892-2.156,1.195s-1.702.455-2.473.455c-2.356,0-4.333-.785-5.918-2.359-1.584-1.571-2.383-3.541-2.383-5.904s.84-4.381,2.507-6.052c1.674-1.671,3.686-2.507,6.049-2.507s4.319.802,5.904,2.411c1.578,1.609,2.37,3.613,2.37,6.011,0,1.553-.324,2.797-.964,3.737-.641.937-1.488,1.405-2.528,1.405-.537,0-1.026-.162-1.474-.486-.441-.324-.751-.734-.916-1.226-.778.999-1.763,1.502-2.955,1.502s-2.225-.451-3.107-1.354c-.882-.902-1.323-2.049-1.323-3.441s.393-2.559,1.192-3.513c.799-.951,1.846-1.426,3.141-1.426.441,0,.854.093,1.254.286.393.189.675.375.84.558l.275.275v-.868h2.645v6.751c0,.706.214,1.058.641,1.058ZM16.599,17.847c0-.706-.186-1.292-.558-1.757s-.861-.699-1.467-.699c-.613,0-1.095.234-1.453.699-.358.465-.537,1.04-.537,1.722,0,.686.179,1.281.537,1.791.358.506.847.761,1.474.761.62,0,1.109-.245,1.467-.73.358-.486.537-1.082.537-1.788Z" fill="#415a6b"/>
      <path d="M17.35,3.618h-5.244c-.374,0-.678-.303-.678-.678h0c0-.374.303-.678.678-.678h5.244c.374,0,.678.303.678.678h0c0,.374-.303.678-.678.678Z" fill="#344a5e"/>
    </g>
  </g>
</svg>