<?xml version="1.0" encoding="UTF-8"?>
<svg id="Layer_2" data-name="Layer 2" xmlns="http://www.w3.org/2000/svg" viewBox="0 0 47.999 48">
  <g id="Icon">
    <g>
      <g>
        <path d="M42.844,44.846l-1.75,1.74c-4.21,4.2-16.5-1.27-27.46-12.22C2.684,23.406-2.786,11.116,1.414,6.906l1.75-1.74,13.7,13.7-4.18,4.17c-1.3,1.3.39,5.11,3.78,8.5,3.39,3.39,7.2,5.08,8.5,3.78l4.18-4.17,13.7,13.7Z" fill="#f3705a"/>
        <path d="M29.75,30.527l-1.044,1.044,13.699,13.699,1.044-1.044c1.311-1.311,1.311-3.436,0-4.746l-8.953-8.953c-1.311-1.311-3.436-1.311-4.746,0Z" fill="#e8eae9"/>
        <path d="M3.773,4.549l-1.044,1.044,13.699,13.699,1.044-1.044c1.311-1.311,1.311-3.436,0-4.746L8.519,4.549c-1.311-1.311-3.436-1.311-4.746,0Z" fill="#e8eae9"/>
      </g>
      <g>
        <g>
          <path d="M28.606,12.415v10.295c0,1.127.912,2.049,2.049,2.049h8.126l6,3.503v-3.503h1.168c1.127,0,2.049-.922,2.049-2.049v-10.295c0-1.137-.922-2.049-2.049-2.049h-15.294c-1.137,0-2.049.912-2.049,2.049Z" fill="#ffd15c"/>
          <path d="M47.999,12.416v10.295c0,1.127-.922,2.049-2.049,2.049h-1.168v3.503l-6.003-3.503h-8.123c-1.137,0-2.049-.922-2.049-2.049v-10.295c0-1.137.912-2.049,2.049-2.049h15.294c1.127,0,2.049.912,2.049,2.049Z" fill="#ffd15c"/>
          <path d="M39.23,10.367v1.977c0,1.69-1.373,3.073-3.073,3.073h-7.55v-3.001c0-1.137.912-2.049,2.049-2.049h8.574Z" fill="#f7b64c"/>
          <path d="M31.455,17.559c0,.923.748,1.671,1.671,1.671s1.671-.748,1.671-1.671-.748-1.671-1.671-1.671-1.671.748-1.671,1.671Z" fill="#fff"/>
          <g>
            <path d="M41.8,17.559c0,.923.748,1.671,1.671,1.671s1.671-.748,1.671-1.671-.748-1.671-1.671-1.671-1.671.748-1.671,1.671Z" fill="#fff"/>
            <path d="M36.628,17.559c0,.923.748,1.671,1.671,1.671s1.671-.748,1.671-1.671-.748-1.671-1.671-1.671-1.671.748-1.671,1.671Z" fill="#fff"/>
          </g>
        </g>
        <g>
          <path d="M38.207,2.049v10.295c0,1.127-.912,2.049-2.049,2.049h-8.126l-6,3.503v-3.503h-1.168c-1.127,0-2.049-.922-2.049-2.049V2.049c0-1.137.922-2.049,2.049-2.049h15.294c1.137,0,2.049.912,2.049,2.049Z" fill="#8ad7f8"/>
          <g>
            <g>
              <path d="M25.014,7.192c0,.923-.748,1.671-1.671,1.671s-1.671-.748-1.671-1.671.748-1.671,1.671-1.671,1.671.748,1.671,1.671Z" fill="#fff"/>
              <path d="M30.186,7.192c0,.923-.748,1.671-1.671,1.671s-1.671-.748-1.671-1.671.748-1.671,1.671-1.671,1.671.748,1.671,1.671Z" fill="#fff"/>
            </g>
            <path d="M35.359,7.192c0,.923-.748,1.671-1.671,1.671s-1.671-.748-1.671-1.671.748-1.671,1.671-1.671,1.671.748,1.671,1.671Z" fill="#fff"/>
          </g>
        </g>
      </g>
    </g>
  </g>
</svg>