<?xml version="1.0" encoding="UTF-8"?>
<svg id="Layer_2" data-name="Layer 2" xmlns="http://www.w3.org/2000/svg" viewBox="0 0 48 48.001">
  <g id="Icon">
    <g>
      <path d="M25.893,34.384v-2.193h-2v2.193c-1.532.439-2.663,1.836-2.663,3.507,0,2.02,1.644,3.662,3.663,3.662s3.662-1.643,3.662-3.662c0-1.671-1.131-3.068-2.662-3.507ZM24.893,39.553c-.917,0-1.663-.746-1.663-1.662s.746-1.663,1.663-1.663,1.662.746,1.662,1.663-.746,1.662-1.662,1.662Z" fill="#e8eae9"/>
      <path d="M4.285,4.5h41.215v25.601c0,1.656-1.344,3-3,3H7.285c-1.656,0-3-1.344-3-3V4.5h0Z" fill="#e8eae9"/>
      <g>
        <rect x="9.184" y="14.863" width="5.465" height="13.268" fill="#66c6b9"/>
        <rect x="17.835" y="23.253" width="5.465" height="4.878" fill="#415a6b"/>
        <rect x="26.485" y="14.863" width="5.465" height="13.268" fill="#f3705a"/>
        <rect x="35.135" y="9.716" width="5.465" height="18.415" fill="#8ad7f8"/>
      </g>
      <path d="M45.5,5H4.285c-1.381,0-2.5-1.119-2.5-2.5S2.904,0,4.285,0h41.215c1.381,0,2.5,1.119,2.5,2.5s-1.119,2.5-2.5,2.5Z" fill="#415a6b"/>
      <g>
        <path d="M21.352,43.732H1.991c1.859-2.773,2.852-6.036,2.852-9.375v-4.934c0-3.774,3.059-6.833,6.833-6.833h0c3.774,0,6.833,3.059,6.833,6.833v4.949c0,3.329.987,6.584,2.837,9.352l.005.008Z" fill="#f3705a"/>
        <path d="M15.201,39.591l-.867,8.41h-7.233v-8.41s.01-.003.015-.005c.856-.261,1.455-1.031,1.455-1.926v-3.03l3.1-2.44,3.1,2.44v3.029c0,.886.588,1.646,1.431,1.918l-1.001.013Z" fill="#f7b64c"/>
        <path d="M14.49,40.811v7.19h-5.69v-7.26c.73.75,1.74,1.22,2.87,1.22,1.1,0,2.09-.44,2.82-1.15Z" fill="#e8eae9"/>
        <path d="M23.343,48v-3.179c0-1.668-1.035-3.161-2.598-3.746l-5.395-2.019-1.803,8.945h9.797Z" fill="#415a6b"/>
        <path d="M0,48v-3.179c0-1.668,1.035-3.161,2.598-3.746l5.395-2.019,1.803,8.945H0Z" fill="#415a6b"/>
        <path d="M17.478,32.538c-.228,1.062-.871,1.838-1.437,1.733-.565-.105-.839-1.052-.611-2.114.228-1.062.871-1.838,1.437-1.733.565.105.839,1.052.611,2.114Z" fill="#ffd15c"/>
        <path d="M5.865,32.538c.228,1.062.871,1.838,1.437,1.733.565-.105.839-1.052.611-2.114-.228-1.062-.871-1.838-1.437-1.733-.565.105-.839,1.052-.611,2.114Z" fill="#ffd15c"/>
        <path d="M16.726,30.485c0,4.403-2.263,7.973-5.054,7.973s-5.054-3.57-5.054-7.973c0-.158,0-1.081.008-1.23v-.008c.233-.058,4.767-.509,6.143-2.656,1.216,1.022,2.07,1.55,3.88,1.816.039.275.054,1.322.07,1.613.008.15.008.308.008.466Z" fill="#ffd15c"/>
        <polygon points="6.195 44.007 8.582 48 10.669 48 8.365 38.457 5.785 41.877 7.785 42.107 6.195 44.007" fill="#344a5e"/>
        <polygon points="14.762 48 17.148 44.007 15.558 42.107 17.558 41.877 14.978 38.457 12.675 48 14.762 48" fill="#344a5e"/>
      </g>
    </g>
  </g>
</svg>