<?xml version="1.0" encoding="UTF-8"?>
<svg id="Layer_2" data-name="Layer 2" xmlns="http://www.w3.org/2000/svg" viewBox="0 0 48 48">
  <g id="Icon">
    <g>
      <path d="M2.291,4.302h43.418v25.205c0,1.656-1.344,3-3,3H5.291c-1.656,0-3-1.344-3-3V4.302h0Z" fill="#f3f3f3"/>
      <g>
        <g>
          <rect x="8.477" y="34.692" width="6.154" height="6.401" fill="#f7b64c"/>
          <path d="M23.108,48l-.385-1.779c-.297-1.368-1.204-2.524-2.462-3.137l-5.067-2.468-3.636-.396-3.644.396-5.067,2.468c-1.258.613-2.166,1.769-2.462,3.136l-.386,1.779h23.108Z" fill="#66c6b9"/>
          <g>
            <g>
              <path d="M17.457,32.732c-.221.924-.834,1.592-1.374,1.514-.542-.077-.827-.876-.633-1.808.2-.958.829-1.685,1.397-1.599.567.085.837.943.609,1.893Z" fill="#ffd15c"/>
              <path d="M5.652,32.732c.221.924.833,1.592,1.374,1.514.542-.077.827-.876.633-1.808-.2-.958-.829-1.685-1.397-1.599-.567.085-.837.943-.609,1.893Z" fill="#ffd15c"/>
            </g>
            <path d="M15.588,35.342c-1.594,2.873-4.031,2.56-4.031,2.56,0,0-2.437.312-4.04-2.56-1.602-2.865-3.063-10.64,4.04-10.889,7.103.25,5.634,8.024,4.031,10.889Z" fill="#415a6b"/>
          </g>
        </g>
        <path d="M14.874,40.037v-1.083c0-.712-1.486-1.289-3.319-1.289s-3.319.577-3.319,1.289v1.083h6.639Z" fill="#e8eae9"/>
        <path d="M16.502,41.279s-3.781-.905-4.944-.844c-1.172-.061-4.952.844-4.952.844.7-1.111,1.78-1.955,3.043-2.297.662-.183,1.324-.297,1.909-.304.578.008,1.24.122,1.902.304,1.27.342,2.343,1.187,3.043,2.297Z" fill="#4ec0aa"/>
      </g>
      <g>
        <g>
          <rect x="33.368" y="34.692" width="6.154" height="6.401" fill="#f7b64c"/>
          <path d="M48,48l-.386-1.779c-.297-1.368-1.204-2.524-2.462-3.137l-5.067-2.468-3.636-.396-3.644.396-5.067,2.468c-1.258.613-2.166,1.769-2.462,3.136l-.386,1.779h23.109Z" fill="#66c6b9"/>
          <g>
            <g>
              <path d="M42.348,32.732c-.221.924-.833,1.592-1.374,1.514-.542-.077-.827-.876-.633-1.808.2-.958.829-1.685,1.397-1.599.567.085.837.943.609,1.893Z" fill="#ffd15c"/>
              <path d="M30.543,32.732c.221.924.833,1.592,1.374,1.514.541-.077.827-.876.633-1.808-.2-.958-.829-1.685-1.397-1.599-.567.085-.837.943-.609,1.893Z" fill="#ffd15c"/>
            </g>
            <path d="M40.48,35.342c-1.594,2.873-4.031,2.56-4.031,2.56,0,0-2.437.312-4.04-2.56-1.602-2.865-3.063-10.64,4.04-10.889,7.103.25,5.634,8.024,4.031,10.889Z" fill="#415a6b"/>
          </g>
        </g>
        <path d="M39.766,40.037v-1.083c0-.712-1.486-1.289-3.319-1.289s-3.32.577-3.32,1.289v1.083h6.639Z" fill="#e8eae9"/>
        <path d="M41.394,41.279s-3.781-.905-4.944-.844c-1.172-.061-4.952.844-4.952.844.7-1.111,1.78-1.955,3.043-2.297.662-.183,1.324-.297,1.909-.304.578.008,1.24.122,1.902.304,1.27.342,2.343,1.187,3.043,2.297Z" fill="#4ec0aa"/>
      </g>
      <path d="M45.849,0H2.151C.963,0,0,.963,0,2.151h0c0,1.188.963,2.151,2.151,2.151h43.698c1.188,0,2.151-.963,2.151-2.151h0c0-1.188-.963-2.151-2.151-2.151Z" fill="#415a6b"/>
      <g>
        <path d="M13.13,8.184c-3.829,0-6.933,3.104-6.933,6.933s3.104,6.933,6.933,6.933,6.933-3.104,6.933-6.933h-6.933v-6.933Z" fill="#f3705a"/>
        <path d="M14.487,6.827v6.933h6.933c0-3.829-3.104-6.933-6.933-6.933Z" fill="#ffd15c"/>
      </g>
      <g>
        <rect x="24.891" y="9.175" width="16.463" height="2.236" fill="#ced6e0"/>
        <rect x="24.891" y="13.999" width="16.463" height="2.236" fill="#ced6e0"/>
        <rect x="24.891" y="18.822" width="8.084" height="2.236" fill="#ced6e0"/>
      </g>
    </g>
  </g>
</svg>