<?xml version="1.0" encoding="UTF-8"?>
<svg id="Layer_2" data-name="Layer 2" xmlns="http://www.w3.org/2000/svg" viewBox="0 0 48 48">
  <g id="Icon">
    <g>
      <polygon points="37.313 43.169 10.687 43.169 12.531 39.623 35.469 39.623 37.313 43.169" fill="#344a5e"/>
      <path d="M9.514,35.817l-3.608,7.056c-1.199,2.344.504,5.127,3.137,5.127h0c1.323,0,2.535-.741,3.137-1.919l5.248-10.264h-7.914Z" fill="#415a6b"/>
      <path d="M38.486,35.817h-7.914l5.248,10.264c.602,1.178,1.814,1.919,3.137,1.919h0c2.633,0,4.336-2.783,3.137-5.127l-3.608-7.056Z" fill="#415a6b"/>
      <path d="M45.649,0H2.351C1.052,0,0,1.052,0,2.351s1.052,2.351,2.351,2.351h43.298c1.298,0,2.351-1.053,2.351-2.351s-1.052-2.351-2.351-2.351Z" fill="#f3705a"/>
      <path d="M45.649,32.255H2.351c-1.298,0-2.351,1.052-2.351,2.351s1.052,2.351,2.351,2.351h43.298c1.298,0,2.351-1.052,2.351-2.351s-1.052-2.351-2.351-2.351Z" fill="#f3705a"/>
      <rect x="2.351" y="4.702" width="43.298" height="27.553" fill="#f3f3f3"/>
      <g>
        <g>
          <rect x="27.222" y="8.767" width="14.427" height="2.124" fill="#415a6b"/>
          <rect x="27.222" y="14.533" width="14.427" height="2.124" fill="#ced6e0"/>
          <rect x="27.222" y="20.299" width="14.427" height="2.124" fill="#ced6e0"/>
          <rect x="27.222" y="26.065" width="14.427" height="2.124" fill="#ced6e0"/>
        </g>
        <g>
          <path d="M9.766,17.826c.294-2.501,2.257-4.474,4.757-4.769v-3.403c-4.365.313-7.86,3.798-8.172,8.173h3.415Z" fill="#f3705a"/>
          <path d="M15.795,9.654v3.403c1.034.121,1.97.521,2.744,1.135l2.406-2.406c-1.401-1.215-3.185-1.992-5.15-2.132Z" fill="#ffd15c"/>
          <path d="M19.439,15.093c.735.932,1.191,2.093,1.191,3.369,0,3.028-2.442,5.47-5.47,5.47-2.797,0-5.076-2.111-5.393-4.834h-3.415c.328,4.586,4.151,8.205,8.808,8.205,4.885,0,8.841-3.956,8.841-8.841,0-2.211-.816-4.227-2.157-5.777l-2.405,2.408Z" fill="#8ad7f8"/>
        </g>
      </g>
    </g>
  </g>
</svg>