<?xml version="1.0" encoding="UTF-8"?>
<svg id="Layer_2" data-name="Layer 2" xmlns="http://www.w3.org/2000/svg" viewBox="0 0 48 48">
  <g id="Icon">
    <g>
      <rect x="23" y="37.731" width="2" height="3.891" fill="#ced6e0"/>
      <path d="M2.477,4.953v30.365c0,1.657,1.343,3,3,3h37.046c1.657,0,3-1.343,3-3V4.953H2.477Z" fill="#f3f3f3"/>
      <rect x="0" y="0" width="48" height="4.954" rx="2.477" ry="2.477" fill="#f3705a"/>
      <path d="M24,48c-2.034,0-3.688-1.655-3.688-3.689s1.654-3.689,3.688-3.689,3.689,1.655,3.689,3.689-1.655,3.689-3.689,3.689ZM24,42.622c-.931,0-1.688.758-1.688,1.689s.758,1.689,1.688,1.689,1.689-.758,1.689-1.689-.758-1.689-1.689-1.689Z" fill="#ced6e0"/>
      <g>
        <rect x="25.781" y="22.458" width="4.756" height="9.871" fill="#f3705a"/>
        <rect x="17.463" y="17.315" width="4.756" height="15.013" fill="#415a6b"/>
        <rect x="9.145" y="25.732" width="4.755" height="6.596" fill="#66c6b9"/>
        <rect x="34.1" y="10.52" width="4.755" height="21.808" fill="#8ad7f8"/>
      </g>
    </g>
  </g>
</svg>