<?xml version="1.0" encoding="UTF-8"?>
<svg id="Layer_2" data-name="Layer 2" xmlns="http://www.w3.org/2000/svg" viewBox="0 0 48 48">
  <g id="Icon">
    <g>
      <path d="M37.941,24c0-.586.286-1.141.776-1.465.632-.417,1.021-.985,1.021-1.609,0-1.31-1.68-2.362-3.747-2.362-2.053,0-3.735,1.052-3.735,2.362,0,.624.39,1.193,1.024,1.609.246.163.438.382.572.636.133.252.204.538.204.83h-10.058v10.057c-.586,0-1.141-.286-1.466-.776-.417-.632-.985-1.022-1.609-1.022-1.31,0-2.362,1.68-2.362,3.747,0,2.053,1.052,3.735,2.362,3.735.624,0,1.193-.39,1.609-1.024.163-.246.382-.438.636-.572.252-.133.538-.204.83-.204v10.057h21.001c1.657,0,3-1.343,3-3v-21h-10.058Z" fill="#8ad7f8"/>
      <path d="M29.436,11.992c0,2.069-1.052,3.747-2.365,3.747-.626,0-1.191-.391-1.608-1.017-.322-.496-.878-.782-1.461-.782v10.058h-10.024c0-.583.287-1.139.774-1.46.635-.417,1.026-.982,1.026-1.608,0-1.313-1.686-2.364-3.747-2.364s-3.738,1.052-3.738,2.364c0,.626.391,1.191,1.026,1.608.243.165.435.382.574.635.13.252.2.539.2.826H0V3.004C0,1.347,1.343.004,3,.004h21.002v10.057c.287,0,.574-.078.826-.209.252-.13.469-.322.635-.574.417-.635.982-1.017,1.608-1.017,1.313,0,2.365,1.678,2.365,3.729Z" fill="#ffd15c"/>
      <path d="M45,0h-21.002s0,10.057,0,10.057c.292,0,.578-.071.83-.204.253-.134.472-.326.636-.572.417-.634.985-1.024,1.61-1.024,1.31,0,2.362,1.682,2.362,3.735,0,2.066-1.052,3.747-2.362,3.747-.625,0-1.193-.39-1.61-1.022-.324-.49-.88-.776-1.465-.776v10.057h10.058c0-.294-.071-.58-.203-.832-.135-.253-.327-.472-.573-.634-.634-.419-1.024-.985-1.024-1.611,0-1.308,1.682-2.362,3.736-2.362,2.067,0,3.747,1.054,3.747,2.362,0,.626-.39,1.193-1.022,1.611-.49.323-.776.878-.776,1.465h10.058V3C48,1.343,46.657,0,45,0Z" fill="#f3705a"/>
      <path d="M20.96,32.26c.626,0,1.193.39,1.611,1.022.323.49.878.776,1.466.776v-10.057h-10.058c0-.586.286-1.141.776-1.465.632-.417,1.022-.985,1.022-1.609,0-1.31-1.681-2.362-3.747-2.362-2.053,0-3.735,1.052-3.735,2.362,0,.624.39,1.193,1.024,1.609.246.163.438.382.572.636.132.252.204.538.204.83H.035v21c0,1.657,1.343,3,3,3h21.002v-10.057c-.294,0-.58.071-.832.204-.253.134-.472.326-.634.572-.419.634-.985,1.024-1.611,1.024-1.308,0-2.362-1.682-2.362-3.735,0-2.066,1.054-3.747,2.362-3.747Z" fill="#415a6b"/>
    </g>
  </g>
</svg>