<?xml version="1.0" encoding="UTF-8"?>
<svg id="Layer_2" data-name="Layer 2" xmlns="http://www.w3.org/2000/svg" viewBox="0 0 45.623 48">
  <g id="Icon">
    <g>
      <path d="M24.306.013C13.161.41,4.489,9.908,4.489,21.06L.083,32.905c-.317.853.314,1.761,1.224,1.761h3.182v3.747c0,1.503,1.218,2.721,2.721,2.721h2.541v6.866h22.904c1.274-4.996,3.892-9.606,7.478-13.464,3.406-3.664,5.49-8.57,5.49-13.969h0C45.623,8.959,36.007-.403,24.306.013Z" fill="#f3f3f3"/>
      <g>
        <circle cx="24.971" cy="20.166" r="14.468" transform="translate(-6.946 23.564) rotate(-45)" fill="#f3705a"/>
        <g>
          <path d="M23.985,14.938c.295-.379.661-.568,1.099-.568s.791.16,1.061.479c.269.32.404.72.404,1.2s-.126.871-.379,1.174l-1.718,1.768c-.572.59-.947,1.057-1.123,1.401-.177.345-.265.863-.265,1.554v1.502h3.839v-1.124c0-.455.059-.796.177-1.024.118-.227.357-.517.72-.871.362-.354.745-.732,1.149-1.136.084-.085.248-.27.492-.556.244-.286.4-.501.467-.644.067-.142.185-.379.354-.707.168-.328.253-.829.253-1.503,0-1.515-.493-2.702-1.478-3.561-.985-.859-2.265-1.288-3.839-1.288s-2.884.48-3.928,1.44-1.659,2.282-1.843,3.965h4.016c.067-.623.248-1.123.543-1.503Z" fill="#fff"/>
          <path d="M27.256,27.074c0,1.228-.995,2.223-2.223,2.223s-2.223-.995-2.223-2.223.995-2.223,2.223-2.223,2.223.995,2.223,2.223Z" fill="#fff"/>
        </g>
      </g>
    </g>
  </g>
</svg>