<?xml version="1.0" encoding="UTF-8"?>
<svg id="Layer_2" data-name="Layer 2" xmlns="http://www.w3.org/2000/svg" viewBox="0 0 48 48">
  <g id="Icon">
    <g>
      <g>
        <path d="M2.5,0h25.154l11.078,11.079v34.421c0,1.381-1.119,2.5-2.5,2.5H2.5c-1.381,0-2.5-1.119-2.5-2.5V2.5C0,1.119,1.119,0,2.5,0Z" fill="#f3f3f3"/>
        <g>
          <rect x="4" y="27.125" width="30.731" height="2.198" fill="#ced6e0"/>
          <rect x="4" y="34.116" width="30.731" height="2.198" fill="#ced6e0"/>
          <rect x="4" y="41.108" width="30.731" height="2.198" fill="#ced6e0"/>
        </g>
        <polygon points="27.654 0 38.732 11.079 27.654 11.079 27.654 0" fill="#ced6e0"/>
        <g>
          <path d="M14.663,2.999v9.549H5.114c0-5.274,4.275-9.549,9.549-9.549Z" fill="#ffd15c"/>
          <path d="M15.777,4.113c5.274,0,9.549,4.275,9.549,9.549s-4.275,9.549-9.549,9.549c-2.637,0-5.024-1.069-6.752-2.797l6.752-6.752V4.113Z" fill="#f3705a"/>
          <path d="M13.549,13.662l-6.752,6.752c-1.728-1.728-2.797-4.115-2.797-6.752h9.549Z" fill="#55c0eb"/>
        </g>
      </g>
      <g>
        <path d="M46.855,27.448c.708.311,1.145,1.036,1.145,1.81v7.111c0,5.691-4.069,10.546-9.631,11.569-.245.045-.502.045-.748,0-5.562-1.023-9.631-5.878-9.631-11.569v-7.111c0-.774.437-1.499,1.145-1.81,5.645-2.479,12.074-2.479,17.719,0Z" fill="#415a6b"/>
        <path d="M30.595,36.794c-.006-.144-.037-.281-.037-.426v-6.735c2.351-.97,4.894-1.478,7.437-1.478v8.639h-7.4Z" fill="#8ad7f8"/>
        <g>
          <path d="M37.995,28.155h0c2.543,0,5.087.508,7.438,1.478v6.734c0,.146-.03.283-.037.427h-7.402v-8.639Z" fill="#fff"/>
          <path d="M37.995,36.794v8.601s0,0,0,0c-4.19-.81-7.206-4.341-7.399-8.601h7.4Z" fill="#fff"/>
        </g>
        <path d="M45.397,36.794c-.194,4.261-3.209,7.791-7.402,8.601v-8.601h7.402Z" fill="#8ad7f8"/>
      </g>
    </g>
  </g>
</svg>