<?xml version="1.0" encoding="UTF-8"?>
<svg id="Layer_2" data-name="Layer 2" xmlns="http://www.w3.org/2000/svg" viewBox="0 0 48 48">
  <g id="Icon">
    <g>
      <rect width="39.971" height="48" rx="3" ry="3" fill="#f3f3f3"/>
      <g>
        <rect x="5" y="5" width="29.971" height="2.183" fill="#66c6b9"/>
        <rect x="5" y="12.163" width="29.971" height="2.183" fill="#ced6e0"/>
        <rect x="5" y="19.327" width="29.971" height="2.183" fill="#ced6e0"/>
        <rect x="5" y="26.49" width="29.971" height="2.183" fill="#ced6e0"/>
        <rect x="5" y="33.653" width="29.971" height="2.183" fill="#ced6e0"/>
        <rect x="5" y="40.817" width="15.41" height="2.183" fill="#ced6e0"/>
      </g>
      <g>
        <g>
          <path d="M46.729,40.594l-7.595-7.595-6.135,6.135,7.595,7.595c1.694,1.694,4.441,1.694,6.135,0h0c1.694-1.694,1.694-4.441,0-6.135Z" fill="#f3705a"/>
          <path d="M32.999,39.134l1.584,1.585c1.276-.661,2.473-1.524,3.542-2.593s1.932-2.266,2.593-3.542l-1.585-1.585-6.135,6.135Z" fill="#f05540"/>
          <path d="M36.074,19.869c4.473,4.47,4.473,11.72,0,16.192s-11.724,4.474-16.197.004-4.473-11.72,0-16.192,11.724-4.474,16.197-.004Z" fill="#8ad7f8"/>
          <path d="M37.211,37.211c-5.095,5.095-13.385,5.095-18.48,0-5.095-5.095-5.095-13.385,0-18.48,5.095-5.095,13.385-5.095,18.48,0,5.095,5.095,5.095,13.385,0,18.48ZM21.019,21.019c-3.834,3.834-3.833,10.071,0,13.904s10.07,3.834,13.904,0c3.834-3.833,3.833-10.071,0-13.904-3.833-3.833-10.07-3.834-13.904,0Z" fill="#415a6b"/>
        </g>
        <ellipse cx="27.971" cy="22.753" rx="3.187" ry="1.874" fill="#fff"/>
      </g>
    </g>
  </g>
</svg>