<?xml version="1.0" encoding="UTF-8"?>
<svg id="Layer_2" data-name="Layer 2" xmlns="http://www.w3.org/2000/svg" viewBox="0 0 47.924 48">
  <g id="Icon">
    <g>
      <g>
        <path d="M12.355,48L0,35.645V3C0,1.343,1.343,0,3,0h34.014c1.657,0,3,1.343,3,3v42c0,1.657-1.343,3-3,3H12.355Z" fill="#f3f3f3"/>
        <polygon points="12.355 48 0 35.645 12.355 35.645 12.355 48" fill="#8ad7f8"/>
      </g>
      <g>
        <rect x="5" y="18.964" width="11.924" height="2.49" fill="#ced6e0"/>
        <rect x="5" y="12.162" width="30.014" height="2.49" fill="#ced6e0"/>
        <rect x="5" y="5.36" width="30.014" height="2.49" fill="#ced6e0"/>
      </g>
      <g>
        <path d="M27.306,31.764c1.546,1.941,3.425,4.05,5.553,6.178,6.771,6.771,13.398,11.122,14.802,9.719,1.404-1.404-2.947-8.031-9.718-14.802-2.128-2.128-4.237-4.007-6.178-5.553l-4.458,4.458Z" fill="#415a6b"/>
        <path d="M31.904,27.418c-1.422-1.139-2.76-2.109-3.941-2.847l-3.39,3.39c.738,1.182,1.707,2.52,2.846,3.942l4.485-4.485Z" fill="#f3705a"/>
        <g>
          <polygon points="27.197 24.742 25.762 21.738 19.967 19.967 21.738 25.762 24.741 27.197 27.197 24.742" fill="#ffd15c"/>
          <path d="M23.34,24.044c-.194-.194-.194-.509,0-.703.194-.194.509-.194.703,0s.194.509,0,.703c-.194.194-.509.194-.703,0Z" fill="#f7b64c"/>
        </g>
        <path d="M24.249,27.462l3.213-3.213c.227-.227.595-.227.822,0s.227.595,0,.822l-3.213,3.213c-.227.227-.595.227-.822,0s-.227-.595,0-.822Z" fill="#f05540"/>
      </g>
    </g>
  </g>
</svg>