<?xml version="1.0" encoding="UTF-8"?>
<svg id="Layer_2" data-name="Layer 2" xmlns="http://www.w3.org/2000/svg" viewBox="0 0 48 48">
  <g id="Icon">
    <g>
      <g>
        <path d="M33.711,30.795l-10.618,4.653,3.475,5.341,4.865-4.457c-.44-2.036.372-4.261,2.278-5.537Z" fill="#ced6e0"/>
        <path d="M28.624,48l6.102-6.101c2.194-2.194,3.414-5.178,3.387-8.28-3.103-.028-6.087,1.192-8.281,3.386l-6.102,6.101,4.894,4.894Z" fill="#f3705a"/>
        <path d="M11.279,16.484l-4.004,4.992,5.277,3.434,4.654-10.618c-1.357,2.026-3.791,2.825-5.927,2.192Z" fill="#ced6e0"/>
        <path d="M0,19.378l6.102-6.101c2.194-2.194,5.178-3.414,8.281-3.386.028,3.103-1.192,6.086-3.386,8.28l-6.102,6.101L0,19.378Z" fill="#f3705a"/>
        <rect x="25.837" y="41.271" width="2.324" height="6.922" transform="translate(-23.721 32.189) rotate(-44.997)" fill="#ffd15c"/>
        <rect x="2.107" y="17.543" width="2.324" height="6.921" transform="translate(-13.893 8.462) rotate(-44.997)" fill="#ffd15c"/>
        <path d="M19.484,38.86C51.659,26.733,47.81-.258,47.898.101c.36.088-26.62-3.746-38.765,28.409l10.351,10.35Z" fill="#f3f3f3"/>
        <path d="M10.082,26.172c-.323.762-.644,1.531-.948,2.338l10.351,10.35c.807-.304,1.576-.624,2.339-.947l-11.741-11.74Z" fill="#415a6b"/>
        <path d="M33.247,24.579c-2.713,2.713-7.111,2.713-9.823,0-2.713-2.712-2.712-7.11,0-9.823,2.713-2.712,7.111-2.712,9.823,0s2.712,7.11,0,9.823Z" fill="#415a6b"/>
        <path d="M31.993,23.325c-2.02,2.02-5.296,2.02-7.316,0-2.02-2.02-2.02-5.296,0-7.316s5.296-2.02,7.316,0,2.02,5.296,0,7.316Z" fill="#8ad7f8"/>
        <g>
          <path d="M31.929,23.377v-7.421c-.58-.562-1.261-.947-1.983-1.184v9.788c.721-.236,1.402-.621,1.983-1.184Z" fill="#55c0eb"/>
          <path d="M27.595,14.565v10.204c.395.057.792.063,1.19.028v-10.26c-.397-.035-.794-.029-1.19.028Z" fill="#55c0eb"/>
        </g>
        <path d="M31.116,3.148l13.741,13.74c.353-.789.673-1.569.952-2.334l-12.359-12.359c-.765.28-1.545.599-2.334.952Z" fill="#ffd15c"/>
        <path d="M45.797,14.542C48.751,6.445,47.854-.077,47.898.101c.178.044-6.34-.85-14.437,2.106l12.336,12.335Z" fill="#f3705a"/>
      </g>
      <g>
        <path d="M12.864,42.674c-2.082,2.081-12.864,5.325-12.864,5.325,0,0,3.245-10.781,5.326-12.863s5.456-2.081,7.538,0,2.081,5.456,0,7.537Z" fill="#ffd15c"/>
        <path d="M12.864,39.527c-1.212,1.212-7.493,3.102-7.493,3.102,0,0,1.89-6.28,3.102-7.492,1.212-1.212,3.178-1.212,4.39,0,1.212,1.212,1.212,3.178,0,4.39Z" fill="#f7b64c"/>
      </g>
    </g>
  </g>
</svg>