<?xml version="1.0" encoding="UTF-8"?>
<svg id="Layer_2" data-name="Layer 2" xmlns="http://www.w3.org/2000/svg" viewBox="0 0 48 48">
  <g id="Icon">
    <g>
      <path d="M47.377,42.489l-17.751-25.877V3.846h-11.252v12.765L.623,42.489c-1.602,2.336.07,5.511,2.903,5.511h40.948c2.833,0,4.505-3.175,2.903-5.511Z" fill="#e8eae9"/>
      <path d="M24.679,27.526c-2.831-1.467-5.235-3.669-8.712-.324v2.157h8.712v-1.832Z" fill="#4ec0aa"/>
      <path d="M15.967,27.192l-11.529,16.808h39.124l-11.53-16.808c-7.282-4.925-10.082,5.756-16.065,0Z" fill="#66c6b9"/>
      <rect x="18.374" y="3.846" width="11.252" height="1.881" fill="#ced6e0"/>
      <path d="M31.539,1.923h0c0-1.062-.861-1.923-1.923-1.923h-11.232c-1.062,0-1.923.861-1.923,1.923h0c0,1.062.861,1.923,1.923,1.923h11.232c1.062,0,1.923-.861,1.923-1.923Z" fill="#e8eae9"/>
      <path d="M22.169,39.522c0,1.02-.827,1.846-1.846,1.846s-1.846-.827-1.846-1.846.826-1.846,1.846-1.846,1.846.827,1.846,1.846Z" fill="#4ec0aa"/>
      <circle cx="27.098" cy="33.074" r="2.906" fill="#4ec0aa"/>
      <path d="M17.387,33.074c0,.512-.415.926-.926.926s-.926-.415-.926-.926.415-.926.926-.926.926.415.926.926Z" fill="#4ec0aa"/>
      <path d="M33.094,41.032c0,.602-.488,1.091-1.091,1.091s-1.091-.488-1.091-1.091.488-1.091,1.091-1.091,1.091.488,1.091,1.091Z" fill="#4ec0aa"/>
      <path d="M27.284,20.55c.08.603-.343,1.157-.946,1.237s-1.157-.343-1.237-.946.343-1.157.946-1.238,1.157.343,1.237.946Z" fill="#66c6b9"/>
      <path d="M25.076,11.58c.119.893-.508,1.713-1.4,1.832-.893.119-1.713-.508-1.832-1.4-.119-.893.508-1.713,1.401-1.832.892-.119,1.712.508,1.831,1.401Z" fill="#66c6b9"/>
    </g>
  </g>
</svg>