<?xml version="1.0" encoding="UTF-8"?>
<svg id="Layer_2" data-name="Layer 2" xmlns="http://www.w3.org/2000/svg" viewBox="0 0 48 48">
  <g id="Icon">
    <g>
      <g>
        <path d="M25.442,37.23v-3.866l-2.993-.973c-.202-.682-.469-1.337-.802-1.95l1.449-2.777-2.734-2.734-2.799,1.425c-.614-.334-1.268-.601-1.95-.803l-.94-2.994h-3.866l-.973,2.993c-.682.202-1.336.469-1.95.802l-2.777-1.449-2.733,2.734,1.425,2.799c-.334.614-.601,1.268-.803,1.949l-2.995.941v3.866l2.993.973c.202.682.469,1.336.802,1.95l-1.449,2.777,2.734,2.734,2.8-1.426c.614.334,1.268.601,1.95.803l.94,2.994h3.866l.973-2.993c.682-.202,1.336-.469,1.95-.802l2.776,1.449,2.734-2.734-1.425-2.798c.334-.614.601-1.269.804-1.951l2.994-.94ZM12.721,39.698c-2.441,0-4.419-1.979-4.419-4.419s1.978-4.419,4.419-4.419,4.419,1.979,4.419,4.419-1.978,4.419-4.419,4.419Z" fill="#8ad7f8"/>
        <path d="M12.721,28.402c-3.798,0-6.877,3.079-6.877,6.877s3.079,6.877,6.877,6.877,6.877-3.079,6.877-6.877-3.079-6.877-6.877-6.877ZM12.721,39.698c-2.441,0-4.419-1.979-4.419-4.419s1.978-4.419,4.419-4.419,4.419,1.979,4.419,4.419-1.978,4.419-4.419,4.419Z" fill="#55c0eb"/>
      </g>
      <g>
        <path d="M46.21,23.048l1.777-4.297-2.879-2.457c.089-.851.093-1.701.005-2.537l2.887-2.42-1.782-4.295-3.766.298c-.529-.653-1.133-1.251-1.798-1.789l.331-3.76L36.687.013l-2.457,2.879c-.851-.089-1.701-.093-2.536-.005l-2.42-2.888-4.295,1.782.297,3.767c-.653.529-1.25,1.133-1.789,1.798l-3.761-.331-1.777,4.297,2.88,2.458c-.089.851-.093,1.701-.005,2.536l-2.888,2.42,1.782,4.295,3.767-.298c.529.653,1.133,1.251,1.798,1.789l-.331,3.76,4.297,1.777,2.457-2.879c.851.089,1.701.093,2.536.005l2.419,2.887,4.295-1.782-.297-3.765c.653-.529,1.251-1.133,1.79-1.799l3.76.331ZM31.5,18.58c-1.96-.811-2.891-3.056-2.081-5.016.81-1.959,3.056-2.891,5.015-2.081,1.96.81,2.891,3.056,2.081,5.015-.81,1.96-3.056,2.891-5.015,2.081Z" fill="#f3705a"/>
        <path d="M35.481,8.956c-3.355-1.388-7.201.207-8.588,3.563-1.388,3.356.207,7.201,3.563,8.588,3.355,1.388,7.201-.207,8.588-3.563,1.388-3.355-.207-7.201-3.563-8.588ZM31.5,18.58c-1.96-.811-2.891-3.056-2.081-5.016.81-1.959,3.056-2.891,5.015-2.081,1.96.81,2.891,3.056,2.081,5.015-.81,1.96-3.056,2.891-5.015,2.081Z" fill="#ffd15c"/>
      </g>
    </g>
  </g>
</svg>