<?xml version="1.0" encoding="UTF-8"?>
<svg id="Layer_2" data-name="Layer 2" xmlns="http://www.w3.org/2000/svg" viewBox="0 0 48 48">
  <g id="Icon">
    <g>
      <g>
        <rect x="9.365" y=".004" width="32.199" height="47.996" fill="#f3f3f3"/>
        <g>
          <rect x="14.643" y="5.039" width="22.454" height="2.346" fill="#ced6e0"/>
          <rect x="14.643" y="11.071" width="22.454" height="2.346" fill="#ced6e0"/>
          <rect x="14.643" y="17.104" width="10.976" height="2.346" fill="#ced6e0"/>
        </g>
        <path d="M9.367,0h-4.684C2.097,0,0,2.097,0,4.684v38.632c0,2.587,2.097,4.684,4.684,4.684h4.684V0Z" fill="#f3705a"/>
      </g>
      <g>
        <g>
          <path d="M33.067,40.292v-1.763l-2.118-.449c-.171-.836-.503-1.613-.957-2.301l1.183-1.819-1.247-1.246-1.821,1.185c-.687-.452-1.463-.782-2.297-.953l-.45-2.124h-1.763l-.45,2.122c-.835.17-1.611.501-2.299.954l-1.82-1.184-1.247,1.246,1.183,1.819c-.455.688-.786,1.465-.957,2.301l-2.118.449v1.763l2.118.449c.171.837.503,1.613.957,2.301l-1.183,1.818,1.247,1.246,1.82-1.184c.688.453,1.464.783,2.298.954l.45,2.122h1.763l.45-2.124c.834-.171,1.61-.501,2.297-.953l1.822,1.185,1.247-1.246-1.184-1.82c.455-.688.786-1.464.957-2.301l2.118-.449ZM24.473,43.101c-2.03,0-3.68-1.65-3.68-3.69s1.65-3.69,3.68-3.69,3.69,1.65,3.69,3.69-1.65,3.69-3.69,3.69Z" fill="#415a6b"/>
          <path d="M24.476,37.566c-1.019,0-1.845.826-1.845,1.845s.826,1.845,1.845,1.845,1.845-.826,1.845-1.845-.826-1.845-1.845-1.845Z" fill="#415a6b"/>
        </g>
        <g>
          <path d="M45.902,33.699l1.631-3.008-1.891-1.922c.076-.368.114-.738.122-1.104l2.236-1.49-.967-3.276-2.688-.031c-.207-.303-.448-.596-.702-.866l.525-2.637-3.002-1.63-1.923,1.879c-.372-.069-.742-.108-1.112-.109l-1.488-2.245-3.279.971-.021,2.692c-.303.207-.591.441-.866.701l-2.641-.539-1.631,3.008,1.892,1.922c-.064.365-.103.734-.115,1.108l-2.244,1.486.974,3.28,2.692.024c.207.303.441.592.702.866l-.536,2.641,3.01,1.634,1.927-1.886c.365.065.742.108,1.104.124l1.492,2.238,3.272-.975.029-2.688c.307-.214.595-.448.858-.705l2.641.539ZM36.672,29.606c-1.223-.664-1.68-2.191-1.015-3.418.663-1.222,2.192-1.671,3.414-1.008,1.223.664,1.68,2.191,1.018,3.413-.665,1.227-2.194,1.676-3.417,1.012Z" fill="#8ad7f8"/>
          <path d="M40.336,22.843c-2.513-1.364-5.655-.434-7.017,2.079-1.362,2.512-.429,5.655,2.084,7.019,2.513,1.364,5.655.434,7.017-2.078,1.362-2.512.429-5.655-2.085-7.019ZM36.672,29.606c-1.223-.664-1.68-2.191-1.015-3.418.663-1.222,2.192-1.671,3.414-1.008,1.223.664,1.68,2.191,1.017,3.413-.665,1.227-2.194,1.676-3.417,1.012Z" fill="#55c0eb"/>
        </g>
      </g>
    </g>
  </g>
</svg>