<?xml version="1.0" encoding="UTF-8"?>
<svg id="Layer_2" data-name="Layer 2" xmlns="http://www.w3.org/2000/svg" viewBox="0 0 48 48">
  <g id="Icon">
    <g>
      <g>
        <g>
          <path d="M40.347,20.88l2.638-1.097-.251-2.716c.546-.422,1.033-.918,1.446-1.451l2.726.242,1.094-2.651-2.101-1.742c.088-.681.087-1.363-.006-2.057l2.101-1.752-1.1-2.646-2.724.255c-.426-.555-.909-1.037-1.454-1.455l.246-2.718-2.651-1.094-1.75,2.104c-.669-.083-1.363-.087-2.048.003L34.763.013l-2.638,1.097.243,2.72c-.546.422-1.025.914-1.438,1.447l-2.734-.239-1.085,2.647,2.101,1.742c-.088.681-.087,1.364.006,2.057l-2.101,1.752,1.1,2.646,2.724-.254c.426.555.909,1.037,1.454,1.454l-.246,2.718,2.642,1.097,1.759-2.108c.669.083,1.355.091,2.04,0l1.757,2.09ZM34.27,11.813c-.754-1.812.105-3.893,1.917-4.647,1.819-.756,3.893.105,4.647,1.917.754,1.812-.098,3.89-1.917,4.647-1.812.754-3.893-.105-4.647-1.917Z" fill="#8ad7f8"/>
          <path d="M35.372,5.206c-2.894,1.203-4.266,4.528-3.062,7.422,1.204,2.894,4.528,4.266,7.422,3.062,2.905-1.208,4.266-4.528,3.062-7.422-1.204-2.894-4.517-4.27-7.422-3.062ZM38.916,13.73c-1.812.754-3.893-.105-4.647-1.917-.754-1.812.105-3.893,1.917-4.647,1.819-.756,3.893.105,4.647,1.917.753,1.812-.098,3.891-1.917,4.647Z" fill="#55c0eb"/>
        </g>
        <g>
          <path d="M34.375,33.099v-4.586l-4.181-1.302c-.289-1.07-.723-2.098-1.259-3.038l2.04-3.892-3.255-3.255-3.878,2.04c-.955-.55-1.967-.969-3.052-1.259l-1.302-4.196h-4.6l-1.302,4.196c-1.085.289-2.098.709-3.053,1.259l-3.877-2.04-3.255,3.255,2.04,3.892c-.535.94-.969,1.968-1.258,3.038l-4.181,1.302v4.586l4.181,1.317c.289,1.071.723,2.083,1.258,3.024l-2.04,3.906,3.255,3.241,3.877-2.04c.955.55,1.968.969,3.053,1.259l1.302,4.195h4.6l1.302-4.195c1.085-.289,2.098-.709,3.052-1.259l3.878,2.04,3.255-3.241-2.04-3.906c.536-.94.97-1.953,1.259-3.024l4.181-1.317ZM17.187,36.039c-2.885,0-5.226-2.341-5.226-5.226s2.341-5.226,5.226-5.226,5.226,2.33,5.226,5.226-2.341,5.226-5.226,5.226Z" fill="#415a6b"/>
          <path d="M17.187,22.329c-4.684,0-8.484,3.782-8.484,8.484s3.8,8.484,8.484,8.484,8.484-3.8,8.484-8.484-3.8-8.484-8.484-8.484ZM17.187,36.039c-2.885,0-5.226-2.341-5.226-5.226s2.341-5.226,5.226-5.226,5.226,2.33,5.226,5.226-2.341,5.226-5.226,5.226Z" fill="#344a5e"/>
        </g>
      </g>
      <g>
        <g>
          <circle cx="34.948" cy="34.948" r="11.552" fill="#f3f3f3"/>
          <path d="M34.948,48c-7.196,0-13.052-5.855-13.052-13.052s5.855-13.052,13.052-13.052,13.052,5.855,13.052,13.052-5.855,13.052-13.052,13.052ZM34.948,24.896c-5.543,0-10.052,4.509-10.052,10.052s4.509,10.052,10.052,10.052,10.052-4.509,10.052-10.052-4.509-10.052-10.052-10.052Z" fill="#f3705a"/>
        </g>
        <path d="M41.513,30.473c-.505-.505-1.324-.505-1.829,0l-6.844,6.845-2.627-2.627c-.505-.505-1.324-.505-1.829,0h0c-.505.505-.505,1.324,0,1.829l3.541,3.541c.505.505,1.324.505,1.829,0l7.759-7.76c.505-.505.505-1.324,0-1.829Z" fill="#66c6b9"/>
      </g>
    </g>
  </g>
</svg>