<?xml version="1.0" encoding="UTF-8"?>
<svg id="Layer_2" data-name="Layer 2" xmlns="http://www.w3.org/2000/svg" viewBox="0 0 48 48">
  <g id="Icon">
    <g>
      <g>
        <path d="M31.977,30.884v-3.997l-4.378-1.261c-.261-.928-.619-1.808-1.094-2.641l2.213-3.997-2.831-2.831-3.997,2.213c-.833-.476-1.713-.833-2.641-1.095l-1.261-4.378h-3.997l-1.261,4.378c-.928.262-1.808.619-2.641,1.095l-3.998-2.213-2.831,2.831,2.213,3.997c-.476.833-.833,1.713-1.095,2.641l-4.377,1.261v3.997l4.377,1.261c.262.928.619,1.808,1.095,2.641l-2.213,3.997,2.831,2.831,3.998-2.213c.832.476,1.713.833,2.641,1.095l1.261,4.378h3.997l1.261-4.378c.928-.262,1.808-.619,2.641-1.095l3.997,2.213,2.831-2.831-2.213-3.997c.476-.833.833-1.713,1.094-2.641l4.378-1.261ZM15.989,34.81c-3.26,0-5.924-2.665-5.924-5.924,0-3.283,2.664-5.924,5.924-5.924,3.283,0,5.924,2.641,5.924,5.924,0,3.26-2.641,5.924-5.924,5.924Z" fill="#ffd15c"/>
        <path d="M43.766,15.604l1.007-2.46-2.377-1.879c.073-.637.075-1.269-.008-1.901l2.369-1.903-1.029-2.456-3.018.355c-.393-.503-.845-.944-1.35-1.339l.327-3.012-2.46-1.007-1.879,2.377c-.637-.073-1.269-.075-1.901.008L31.545.016l-2.456,1.029.355,3.018c-.503.393-.944.845-1.339,1.35l-3.012-.327-1.007,2.46,2.376,1.879c-.073.637-.075,1.269.008,1.901l-2.369,1.903,1.029,2.456,3.018-.354c.392.503.844.944,1.349,1.339l-.327,3.012,2.46,1.007,1.879-2.377c.637.073,1.269.075,1.901-.008l1.902,2.369,2.456-1.029-.355-3.018c.503-.393.944-.845,1.339-1.35l3.012.327ZM32.936,13.991c-2.006-.822-2.975-3.133-2.153-5.139.827-2.021,3.133-2.975,5.139-2.153,2.021.827,2.981,3.118,2.153,5.139-.821,2.006-3.119,2.981-5.139,2.153Z" fill="#8ad7f8"/>
      </g>
      <g>
        <polygon points="34.91 38.541 37.067 40.7 40.673 37.09 38.517 34.931 34.91 38.541" fill="#344a5e"/>
        <path d="M37.164,37.188c-5.106,5.112-13.416,5.112-18.523,0-5.106-5.112-5.107-13.43,0-18.542,5.107-5.112,13.416-5.112,18.523,0,5.106,5.112,5.107,13.43,0,18.542ZM20.929,20.935c-3.845,3.85-3.845,10.113,0,13.962,3.845,3.85,10.102,3.849,13.948,0,3.845-3.85,3.845-10.113,0-13.962-3.845-3.849-10.102-3.849-13.948,0Z" fill="#415a6b"/>
        <path d="M37.04,42.709l4.031,4.035c1.473,1.475,3.865,1.713,5.471.385,1.842-1.523,1.939-4.26.29-5.91l-4.152-4.156c-.547-.547-1.433-.547-1.98,0l-3.661,3.664c-.547.547-.547,1.435,0,1.982Z" fill="#f3705a"/>
      </g>
      <g opacity=".25">
        <path d="M20.929,20.935c-3.845,3.85-3.845,10.113,0,13.962,3.845,3.85,10.102,3.849,13.948,0,3.845-3.85,3.845-10.113,0-13.962-3.845-3.849-10.102-3.849-13.948,0Z" fill="#fff"/>
      </g>
    </g>
  </g>
</svg>