<?xml version="1.0" encoding="UTF-8"?>
<svg id="Layer_2" data-name="Layer 2" xmlns="http://www.w3.org/2000/svg" viewBox="0 0 39.328 48">
  <g id="Icon">
    <g>
      <rect width="39.328" height="48" rx="3" ry="3" fill="#415a6b"/>
      <rect x="4" y="5.402" width="31.328" height="33.705" fill="#fff"/>
      <path d="M21.875,43.553c0,1.221-.99,2.211-2.211,2.211s-2.211-.99-2.211-2.211.99-2.211,2.211-2.211,2.211.99,2.211,2.211Z" fill="#344a5e"/>
      <g>
        <g>
          <rect x="8.002" y="28.315" width="2.918" height="6.787" fill="#f3705a"/>
          <rect x="13.106" y="23.539" width="2.918" height="11.563" fill="#ffd15c"/>
          <rect x="18.211" y="30.636" width="2.918" height="4.467" fill="#66c6b9"/>
          <rect x="23.315" y="23.185" width="2.918" height="11.918" fill="#415a6b"/>
          <rect x="28.42" y="18.159" width="2.918" height="16.944" fill="#ced6e0"/>
        </g>
        <path d="M26.832,12.835l1.056,1.056-8.196,8.196-4.396-4.397c-.391-.391-1.024-.391-1.414,0l-6.553,6.552,1.414,1.414,5.846-5.845,4.396,4.397c.391.39,1.024.39,1.414,0l8.903-8.902,1.056,1.056,1.29-4.816-4.816,1.29Z" fill="#f3705a"/>
      </g>
    </g>
  </g>
</svg>