<?xml version="1.0" encoding="UTF-8"?>
<svg id="Layer_2" data-name="Layer 2" xmlns="http://www.w3.org/2000/svg" viewBox="0 0 48 48">
  <g id="Icon">
    <g>
      <rect width="48" height="35.894" rx="3" ry="3" fill="#415a6b"/>
      <rect x="4" y="4" width="35.601" height="27.894" fill="#fff"/>
      <g>
        <path d="M17.84,21.424c-2.909,0-5.275-2.366-5.275-5.275s2.366-5.274,5.275-5.274,5.274,2.366,5.274,5.274-2.366,5.275-5.274,5.275ZM17.84,12.374c-2.082,0-3.775,1.693-3.775,3.774s1.693,3.775,3.775,3.775,3.774-1.693,3.774-3.775-1.693-3.774-3.774-3.774Z" fill="#415a6b"/>
        <path d="M17.84,24.587c-4.653,0-8.438-3.785-8.438-8.439s3.785-8.438,8.438-8.438,8.437,3.785,8.437,8.438-3.785,8.439-8.437,8.439ZM17.84,9.211c-3.826,0-6.938,3.112-6.938,6.938s3.112,6.939,6.938,6.939,6.937-3.112,6.937-6.939-3.112-6.938-6.937-6.938Z" fill="#415a6b"/>
      </g>
      <g>
        <path d="M17.84,21.424c-2.909,0-5.275-2.366-5.275-5.275s2.366-5.274,5.275-5.274,5.274,2.366,5.274,5.274-2.366,5.275-5.274,5.275ZM17.84,12.374c-2.082,0-3.775,1.693-3.775,3.774s1.693,3.775,3.775,3.775,3.774-1.693,3.774-3.775-1.693-3.774-3.774-3.774Z" fill="#415a6b"/>
        <path d="M17.84,24.587c-4.653,0-8.438-3.785-8.438-8.439s3.785-8.438,8.438-8.438,8.437,3.785,8.437,8.438-3.785,8.439-8.437,8.439ZM17.84,9.211c-3.826,0-6.938,3.112-6.938,6.938s3.112,6.939,6.938,6.939,6.937-3.112,6.937-6.939-3.112-6.938-6.937-6.938Z" fill="#415a6b"/>
      </g>
      <path d="M35.765,48c.647-2.171.99-4.423.99-6.695v-9.524c0-1.345-.919-2.592-2.247-2.808-1.692-.275-3.154,1.024-3.154,2.664v-.784c0-1.345-.919-2.592-2.247-2.808-1.692-.275-3.154,1.024-3.154,2.664v-.784c0-1.345-.919-2.592-2.247-2.808-1.692-.275-3.154,1.024-3.154,2.664v-12.164c0-1.345-.919-2.592-2.247-2.808-1.692-.275-3.154,1.024-3.154,2.664v17.736l-3.03-4.267c-.866-1.22-2.547-1.511-3.754-.651s-1.483,2.547-.616,3.767l6.539,9.207c1.004,1.414,1.659,3.038,1.922,4.737h19.555Z" fill="#ffd15c"/>
      <circle cx="43.801" cy="17.947" r="2.035" fill="#344a5e"/>
    </g>
  </g>
</svg>