<?xml version="1.0" encoding="UTF-8"?>
<svg id="Layer_2" data-name="Layer 2" xmlns="http://www.w3.org/2000/svg" viewBox="0 0 33.107 48">
  <g id="Icon">
    <g>
      <path d="M10.656,43.706c.726,2.481,3.014,4.294,5.729,4.294s5.003-1.813,5.729-4.294h-11.458Z" fill="#344a5e"/>
      <path d="M8.798,37.887h15.153v-1.807c.656-2.999,2.125-5.779,4.29-8.043,3.197-3.346,4.985-8.053,4.429-13.167-.824-7.517-6.901-13.594-14.418-14.428C8.361-.651,0,7.065,0,16.727c0,4.339,1.688,8.281,4.439,11.201,2.165,2.314,3.684,5.124,4.359,8.152v1.807Z" fill="#e8eae9"/>
      <g>
        <path d="M16.386,29.128c-6.84,0-12.406-5.565-12.406-12.406s5.565-12.404,12.406-12.404,12.403,5.565,12.403,12.404-5.564,12.406-12.403,12.406Z" fill="#f3705a"/>
        <path d="M16.386,25.833c-5.024,0-9.111-4.087-9.111-9.111s4.087-9.11,9.111-9.11,9.109,4.087,9.109,9.11-4.086,9.111-9.109,9.111Z" fill="#fff"/>
        <path d="M16.386,22.538c-3.207,0-5.816-2.609-5.816-5.816s2.609-5.815,5.816-5.815,5.814,2.609,5.814,5.815-2.608,5.816-5.814,5.816Z" fill="#f3705a"/>
        <path d="M16.386,19.243c-1.39,0-2.521-1.131-2.521-2.521s1.131-2.52,2.521-2.52,2.519,1.13,2.519,2.52-1.129,2.521-2.519,2.521Z" fill="#fff"/>
      </g>
      <g>
        <rect x="8.798" y="37.632" width="15.153" height="6.617" fill="#344a5e"/>
        <g>
          <path d="M24.181,39.077h-15.593c-.834,0-1.511-.676-1.511-1.511h0c0-.834.677-1.511,1.511-1.511h15.593c.835,0,1.511.677,1.511,1.511h0c0,.835-.677,1.511-1.511,1.511Z" fill="#415a6b"/>
          <path d="M24.181,44.249h-15.593c-.834,0-1.511-.676-1.511-1.511h0c0-.835.677-1.511,1.511-1.511h15.593c.835,0,1.511.676,1.511,1.511h0c0,.835-.677,1.511-1.511,1.511Z" fill="#415a6b"/>
        </g>
      </g>
      <path d="M31.548,1.559c-.291-.291-.762-.291-1.053,0l-14.336,14.337c-.291.291-.291.762,0,1.053.291.291.762.291,1.053,0L31.548,2.613c.291-.291.291-.762,0-1.053Z" fill="#415a6b"/>
      <polygon points="25.495 3.563 26.05 7.057 29.545 7.613 33.107 4.05 29.613 3.494 29.058 0 25.495 3.563" fill="#415a6b"/>
    </g>
  </g>
</svg>