<?xml version="1.0" encoding="UTF-8"?>
<svg id="Layer_2" data-name="Layer 2" xmlns="http://www.w3.org/2000/svg" viewBox="0 0 46.589 48.006">
  <g id="Icon">
    <g>
      <g>
        <path d="M8.112,48.006h0c-2.891,0-4.696-3.133-3.245-5.634l8.122-14.001h8.673l-10.306,17.766c-.671,1.157-1.907,1.869-3.245,1.869Z" fill="#415a6b"/>
        <path d="M37.067,48.006h0c2.891,0,4.696-3.133,3.245-5.634l-8.122-14.001h-8.673l10.306,17.766c.671,1.157,1.907,1.869,3.245,1.869Z" fill="#415a6b"/>
      </g>
      <g>
        <path d="M22.589,45.179C10.133,45.179,0,35.045,0,22.589S10.133,0,22.589,0s22.589,10.134,22.589,22.589-10.133,22.59-22.589,22.59Z" fill="#66c6b9"/>
        <path d="M22.589,39.097c-9.102,0-16.508-7.405-16.508-16.508S13.487,6.082,22.589,6.082s16.508,7.405,16.508,16.508-7.405,16.508-16.508,16.508Z" fill="#fff"/>
        <path d="M22.589,33.015c-5.749,0-10.426-4.677-10.426-10.426s4.677-10.426,10.426-10.426,10.426,4.677,10.426,10.426-4.677,10.426-10.426,10.426Z" fill="#66c6b9"/>
        <circle cx="22.59" cy="22.589" r="4.344" fill="#fff"/>
      </g>
      <g>
        <polygon points="24.963 15.647 22.357 22.857 29.738 20.781 24.963 15.647" fill="#f3705a"/>
        <path d="M28.051,18.968L45.081,3.131c.417-.387.44-1.039.053-1.456-.387-.417-1.039-.44-1.456-.053l-17.029,15.837,1.403,1.508Z" fill="#415a6b"/>
        <polygon points="38.464 7.877 41.837 9.173 46.589 4.753 43.217 3.457 42.169 0 37.416 4.42 38.464 7.877" fill="#f3705a"/>
      </g>
    </g>
  </g>
</svg>