<?xml version="1.0" encoding="UTF-8"?>
<svg id="Layer_2" data-name="Layer 2" xmlns="http://www.w3.org/2000/svg" viewBox="0 0 42.093 48">
  <g id="Icon">
    <g>
      <path d="M41.97,26.757c.828-5.469-2.641-8.798-6.931-8.584.131-.749.262-1.51.404-2.259H0c2.009,11.057,3.388,23.399,7.954,27.786h19.535c1.593-1.522,2.794-4.019,3.769-7.086,5.127-.198,9.736-4.387,10.712-9.857ZM39.046,26.27c-.583,3.496-3.721,6.765-6.931,7.3.951-3.733,1.676-8.026,2.401-12.353,3.747-.645,5.028,2.485,4.53,5.053Z" fill="#e8eae9"/>
      <g>
        <path d="M12.132,12.255h0c-.517,0-.936-.419-.936-.936v-5.473c0-.517.419-.936.936-.936h0c.517,0,.936.419.936.936v5.473c0,.517-.419.936-.936.936Z" fill="#8ad7f8"/>
        <path d="M17.722,7.345h0c-.517,0-.936-.419-.936-.936V.936c0-.517.419-.936.936-.936h0c.517,0,.936.419.936.936v5.473c0,.517-.419.936-.936.936Z" fill="#8ad7f8"/>
        <path d="M23.311,12.255h0c-.517,0-.936-.419-.936-.936v-5.473c0-.517.419-.936.936-.936h0c.517,0,.936.419.936.936v5.473c0,.517-.419.936-.936.936Z" fill="#8ad7f8"/>
      </g>
      <polygon points="35.242 43.697 .202 43.697 2.859 48 32.585 48 35.242 43.697" fill="#415a6b"/>
      <g>
        <path d="M14.671,21.231h-5.077l-1.843,1.855v7.574c0,.519.421.94.94.94h6.884c.519,0,.939-.421.939-.94v-7.574l-1.843-1.855ZM12.127,25.881c-.65,0-1.178-.528-1.178-1.189,0-.65.528-1.178,1.178-1.178.66,0,1.188.528,1.188,1.178,0,.66-.528,1.189-1.188,1.189Z" fill="#ffd15c"/>
        <path d="M11.559,15.914v8.548c0,.32.256.576.571.576.32,0,.576-.256.576-.576v-8.548h-1.146Z" fill="#415a6b"/>
      </g>
    </g>
  </g>
</svg>