<?xml version="1.0" encoding="UTF-8"?>
<svg id="Layer_2" data-name="Layer 2" xmlns="http://www.w3.org/2000/svg" viewBox="0 0 45.767 48">
  <g id="Icon">
    <g>
      <path d="M41.863,41.657H3.904c3.645-5.436,5.592-11.834,5.592-18.38v-9.674C9.496,6.203,15.494.205,22.893.205h0c7.399,0,13.397,5.998,13.397,13.397v9.703c0,6.528,1.936,12.909,5.563,18.336l.01.015Z" fill="#344a5e"/>
      <path d="M18.55,48l-4.636-14.464-6.684,2.312c-4.327,1.497-7.23,5.573-7.23,10.151v2h18.55Z" fill="#66c6b9"/>
      <path d="M45.767,48v-1.997c0-4.579-2.903-8.654-7.23-10.151l-6.694-2.316-4.636,14.464h18.559Z" fill="#66c6b9"/>
      <polygon points="27.171 48 31.314 34.961 16.103 34.961 18.592 48 27.171 48" fill="#ced6e0"/>
      <polygon points="29.462 24.213 22.884 19.025 16.304 24.213 16.304 29.774 22.883 34.962 29.463 29.774 29.462 24.213" fill="#f7b64c"/>
      <path d="M32.793,15.684c0,8.632-4.436,15.632-9.91,15.632s-9.91-7-9.91-15.632c0-.31,0-2.119.015-2.412v-.016c.457-.114,9.346-.998,12.044-5.208,2.384,2.003,4.058,3.04,7.607,3.56.076.538.107,2.592.137,3.163.015.294.015.604.015.914Z" fill="#ffd15c"/>
      <path d="M35.408,20.465c-.34-.026-.645.231-.673.577-.213,2.792-2.393,4.997-5.181,5.243l-4.733.418v1.259l4.842-.427c3.402-.301,6.06-2.991,6.321-6.396.026-.346-.232-.646-.577-.673Z" fill="#e8eae9"/>
      <g>
        <polygon points="29.463 29.774 22.883 34.962 28.364 41.424 31.315 33.818 29.463 29.774" fill="#f3f3f3"/>
        <polygon points="30.952 48 34.421 40.195 31.304 37.47 36.225 37.019 30.166 31.314 26.139 48 30.952 48" fill="#4ec0aa"/>
      </g>
      <path d="M10.629,17.645c-1.046-4.252.174-8.789,3.326-11.941,2.385-2.385,5.555-3.699,8.928-3.699s6.543,1.314,8.928,3.699c3.152,3.151,4.373,7.689,3.326,11.941h2.052c1.01-4.787-.426-9.825-3.961-13.359C30.465,1.522,26.791,0,22.882,0s-7.582,1.522-10.345,4.286c-3.535,3.534-4.971,8.573-3.961,13.359h2.053Z" fill="#f3705a"/>
      <g>
        <path d="M33.601,22.581c2.064.346,4.018-1.046,4.364-3.11s-1.046-4.018-3.11-4.364l-1.254,7.474Z" fill="#f3705a"/>
        <path d="M32.353,23.541c.629.105,1.223-.318,1.329-.947l1.254-7.474c.105-.629-.318-1.223-.947-1.329-.629-.105-1.223.318-1.329.947l-1.254,7.474c-.105.629.318,1.224.947,1.329Z" fill="#e8eae9"/>
      </g>
      <g>
        <path d="M12.166,22.581c-2.064.346-4.018-1.046-4.364-3.11-.346-2.064,1.046-4.018,3.11-4.364l1.254,7.474Z" fill="#f3705a"/>
        <path d="M13.415,23.541c-.629.105-1.223-.318-1.329-.947l-1.254-7.474c-.105-.629.318-1.223.947-1.329.629-.105,1.223.318,1.329.947l1.254,7.474c.105.629-.318,1.224-.947,1.329Z" fill="#e8eae9"/>
      </g>
      <path d="M25.315,27.442c0,.816-.784,1.477-1.75,1.477s-1.75-.661-1.75-1.477.784-1.477,1.75-1.477,1.75.661,1.75,1.477Z" fill="#344a5e"/>
      <g>
        <polygon points="16.303 29.774 22.883 34.962 17.401 41.424 14.451 33.818 16.303 29.774" fill="#f3f3f3"/>
        <polygon points="14.814 48 11.345 40.195 14.462 37.47 9.541 37.019 15.599 31.314 19.627 48 14.814 48" fill="#4ec0aa"/>
      </g>
    </g>
  </g>
</svg>