<?xml version="1.0" encoding="UTF-8"?>
<svg id="Layer_2" data-name="Layer 2" xmlns="http://www.w3.org/2000/svg" viewBox="0 0 48 48">
  <g id="Icon">
    <g>
      <g>
        <g>
          <path d="M8.417,29.034v-2.077h0c-2.701-2.483-3.845-6.292-2.791-9.806.891-2.97,2.499-5.742,4.781-8.025,3.63-3.63,8.46-5.63,13.59-5.63s9.96,2,13.59,5.63c2.284,2.284,3.893,5.059,4.783,8.031,1.052,3.511-.088,7.316-2.783,9.8v2.077h8.164c-.127-.508-.29-1.001-.515-1.463-.769-1.581-1.033-3.352-1.054-5.109-.067-5.67-2.289-11.269-6.475-15.455C35.517,2.806,29.937.496,23.997.496s-11.51,2.31-15.71,6.51C3.978,11.323,1.752,17.143,1.821,22.993c.019,1.586-.38,3.144-1.062,4.576-.221.464-.395.955-.522,1.464h8.179Z" fill="#415a6b"/>
          <path d="M10.446,9.164c.177.177.46.176.641.003,3.496-3.335,8.064-5.167,12.913-5.167s9.417,1.832,12.913,5.167c.181.173.464.174.641-.003l2.173-2.173c.184-.184.184-.49-.004-.671C35.473,2.241,29.909,0,24.001,0s-11.475,2.241-15.724,6.32c-.188.181-.189.486-.004.671l2.173,2.173Z" fill="#55c0eb"/>
        </g>
        <path d="M43.88,32.741c-.548-.039-1.035.358-1.084.909l-.743,8.449-16.806,2.263v2.018l17.866-2.406c.463-.062.821-.438.862-.904l.813-9.246c.049-.55-.358-1.036-.908-1.084Z" fill="#415a6b"/>
        <rect x="7.647" y="20.485" width="4.513" height="19.97" rx="2.208" ry="2.208" fill="#e8eae9"/>
        <g>
          <path d="M8.415,22.547c-.155-.009-.31-.024-.468-.024-4.389,0-7.947,3.558-7.947,7.947s3.558,7.947,7.947,7.947c.158,0,.313-.015.468-.024v-15.846Z" fill="#55c0eb"/>
          <path d="M39.585,22.547c.156-.009.31-.024.468-.024,4.389,0,7.947,3.558,7.947,7.947s-3.558,7.947-7.947,7.947c-.158,0-.313-.015-.468-.024v-15.846Z" fill="#55c0eb"/>
        </g>
        <rect x="35.84" y="20.485" width="4.513" height="19.97" rx="2.208" ry="2.208" transform="translate(76.192 60.94) rotate(180)" fill="#e8eae9"/>
        <path d="M28.079,45.483c0,1.39-1.64,2.517-3.662,2.517s-3.662-1.127-3.662-2.517,1.64-2.517,3.662-2.517,3.662,1.127,3.662,2.517Z" fill="#e8eae9"/>
      </g>
      <g>
        <path d="M23.997,16.846c-6.09,0-11.03,4.03-11.03,9,0,2.77,1.54,5.26,3.95,6.91v6.5l7.08-4.4c6.09,0,11.02-4.04,11.02-9.01s-4.93-9-11.02-9Z" fill="#ffd15c"/>
        <g>
          <path d="M19.853,25.847c0,1.059-.859,1.918-1.918,1.918s-1.918-.859-1.918-1.918.859-1.918,1.918-1.918,1.918.859,1.918,1.918Z" fill="#fff"/>
          <path d="M25.91,25.847c0,1.059-.859,1.918-1.918,1.918s-1.918-.859-1.918-1.918.859-1.918,1.918-1.918,1.918.859,1.918,1.918Z" fill="#fff"/>
          <path d="M31.966,25.847c0,1.059-.859,1.918-1.918,1.918s-1.918-.859-1.918-1.918.859-1.918,1.918-1.918,1.918.859,1.918,1.918Z" fill="#fff"/>
        </g>
      </g>
    </g>
  </g>
</svg>