<?xml version="1.0" encoding="UTF-8"?>
<svg id="Layer_2" data-name="Layer 2" xmlns="http://www.w3.org/2000/svg" viewBox="0 0 48 48">
  <g id="Icon">
    <g>
      <g>
        <g>
          <path d="M42.228,6.619H5.772c-1.091,0-1.976.885-1.976,1.976v28.437h40.408V8.595c0-1.091-.884-1.976-1.976-1.976Z" fill="#e8eae9"/>
          <rect x="6.759" y="9.583" width="34.481" height="24.487" fill="#8ad7f8"/>
          <g>
            <path d="M27.949,34.069c-.608-4.439-1.715-4.685-1.715-4.685l-4.812-2.262-4.014,1.252-4.024-1.252-4.807,2.262s-1.109.247-1.719,4.685h21.091Z" fill="#344a5e"/>
            <polygon points="19.742 34.069 19.841 27.615 17.406 28.373 14.989 27.621 15.087 34.069 19.742 34.069" fill="#ced6e0"/>
            <polygon points="15.95 34.069 18.858 34.069 18.086 30.653 18.78 29.729 17.406 28.373 16.033 29.729 16.723 30.653 15.95 34.069" fill="#f3705a"/>
            <path d="M14.807,23.757v1.664c.188,1.365,2.598,2.902,2.598,2.902,0,0,2.41-1.537,2.598-2.902v-1.664s-5.196,0-5.196,0Z" fill="#f7b64c"/>
            <polygon points="17.405 28.323 20.004 25.421 20.915 27.005 19.22 30.653 17.405 28.323" fill="#e8eae9"/>
            <polygon points="20.419 34.069 22.846 29.85 21.441 29.144 22.893 28.516 20.498 26.242 18.645 34.069 20.419 34.069" fill="#415a6b"/>
            <polygon points="17.405 28.323 14.807 25.421 13.896 27.005 15.591 30.653 17.405 28.323" fill="#e8eae9"/>
            <polygon points="11.964 29.85 14.392 34.069 16.166 34.069 14.313 26.242 11.918 28.516 13.37 29.144 11.964 29.85" fill="#415a6b"/>
            <path d="M17.409,17.876c0,2.286-.939,4.14-2.096,4.14s-2.096-1.853-2.096-4.14.939-4.14,2.096-4.14,2.096,1.853,2.096,4.14Z" fill="#415a6b"/>
            <ellipse cx="18.04" cy="17.394" rx="3.826" ry="4.513" fill="#415a6b"/>
            <path d="M21.964,19.925c-.179.834-.684,1.443-1.128,1.361-.444-.083-.659-.826-.48-1.66.179-.834.684-1.443,1.128-1.361.444.083.659.826.48,1.66Z" fill="#ffd15c"/>
            <path d="M21.024,16.932c-.214-.65-1.004-.848-1.565-.456-.549.383-1.247.615-2.096.615-.813,0-1.488-.212-2.027-.565-.553-.362-1.306-.154-1.505.476-.208.659-.324,1.387-.324,2.151,0,2.992,1.76,5.418,3.932,5.418s3.933-2.426,3.933-5.418c0-.793-.125-1.545-.348-2.222Z" fill="#ffd15c"/>
            <path d="M12.846,19.925c.179.834.684,1.443,1.128,1.361.444-.083.659-.826.48-1.66-.179-.834-.684-1.443-1.128-1.361-.444.083-.659.826-.48,1.66Z" fill="#ffd15c"/>
            <path d="M19.728,22.748c-.556-1.488-2.081-1.706-2.313-1.734-.232.028-1.757.246-2.308,1.734-.528-.426-1.168-1.502-1.599-2.795,0,.028.005,5.92,3.908,5.957,3.899-.037,3.908-5.901,3.908-5.957-.431,1.293-1.066,2.369-1.595,2.795ZM18.277,23.555s-1.08.334-.538-.315c.269-.325.181-.528.023-.649-.097-.079-.222-.116-.348-.121-.125.005-.246.042-.348.121-.153.121-.241.324.028.649.538.649-.542.315-.542.315,0,0-1.789-1.321.862-1.766,2.652.445.862,1.766.862,1.766Z" fill="#415a6b"/>
          </g>
          <path d="M47.829,45.225l-3.625-8.193H3.796L.171,45.225c-.578,1.306.378,2.775,1.807,2.775h44.044c1.428,0,2.385-1.469,1.807-2.775Z" fill="#e8eae9"/>
          <polygon points="18.353 45.036 20.582 39.996 27.418 39.996 29.647 45.036 18.353 45.036" fill="#ced6e0"/>
        </g>
        <path d="M46.5,0h-17.911c-.829,0-1.5.672-1.5,1.5v12.859c0,.828.671,1.5,1.5,1.5h1.394v6.376l7.898-6.376h8.62c.829,0,1.5-.672,1.5-1.5V1.5c0-.828-.671-1.5-1.5-1.5Z" fill="#f3705a"/>
      </g>
      <g>
        <rect x="31.089" y="4.139" width="12.911" height="2.218" fill="#fff"/>
        <rect x="31.089" y="9.502" width="12.911" height="2.218" fill="#fff"/>
      </g>
    </g>
  </g>
</svg>