<?xml version="1.0" encoding="UTF-8"?>
<svg id="Layer_2" data-name="Layer 2" xmlns="http://www.w3.org/2000/svg" viewBox="0 0 48 48">
  <g id="Icon">
    <g>
      <g>
        <path d="M46.915,16.263l1.043-2.469-2.343-2.119c.068-.595.074-1.188.016-1.772l2.368-2.082-1.008-2.483-3.15.158c-.365-.459-.784-.88-1.247-1.259l.202-3.152L40.329.042l-2.117,2.34c-.596-.068-1.191-.075-1.777-.016l-2.08-2.365-2.483,1.008.158,3.149c-.459.366-.88.784-1.259,1.247l-3.152-.202-1.043,2.469,2.34,2.116c-.068.596-.076,1.191-.017,1.778l-2.365,2.08,1.009,2.483,3.145-.158c.367.461.787.882,1.251,1.262l-.201,3.149,2.469,1.043,2.118-2.343c.594.067,1.188.075,1.772.016l2.082,2.367,2.483-1.008-.158-3.145c.461-.366.883-.787,1.263-1.251l3.148.202ZM35.974,13.783c-1.682-.711-2.471-2.653-1.761-4.336.714-1.69,2.656-2.479,4.339-1.768,1.69.714,2.479,2.656,1.765,4.346-.711,1.683-2.653,2.471-4.343,1.757Z" fill="#415a6b"/>
        <path d="M31.402,29.798l3.395-2.903c-.134-.603-.291-1.206-.491-1.787l-4.377-.826-.804-1.385,1.496-4.176c-.424-.469-.871-.916-1.34-1.34l-4.177,1.496-1.385-.804-.804-4.377c-.603-.201-1.206-.357-1.809-.491l-2.903,3.395h-1.608l-2.881-3.395c-.625.134-1.206.29-1.809.491l-.804,4.377-1.384.804-4.199-1.496c-.446.424-.893.871-1.317,1.34l1.474,4.176-.804,1.385-4.377.826c-.179.581-.357,1.184-.491,1.787l3.395,2.903v1.608l-3.395,2.881c.134.625.312,1.228.491,1.809l4.377.804.804,1.385-1.474,4.199c.424.469.871.916,1.317,1.318l4.199-1.474,1.384.804.804,4.378c.603.201,1.184.357,1.809.491l2.881-3.395h1.608l2.903,3.395c.603-.134,1.206-.29,1.809-.491l.804-4.378,1.385-.804,4.177,1.474c.469-.402.915-.849,1.34-1.318l-1.496-4.199.804-1.385,4.377-.804c.201-.581.357-1.184.491-1.809l-3.395-2.881v-1.608ZM17.385,41.3c-5.899,0-10.685-4.786-10.685-10.685s4.787-10.711,10.685-10.711,10.71,4.786,10.71,10.711-4.786,10.685-10.71,10.685Z" fill="#8ad7f8"/>
        <path d="M17.386,41.3c-5.899,0-10.685-4.786-10.685-10.685s4.786-10.711,10.685-10.711,10.71,4.786,10.71,10.711-4.786,10.685-10.71,10.685Z" fill="#f3f3f3"/>
        <path d="M18.04,29.5v-4.858c0-.356-.287-.643-.643-.643s-.641.287-.641.643v4.858h1.284Z" fill="#f3705a"/>
        <path d="M21.37,29.96h-4.211v1.284h4.211c.355,0,.643-.287.643-.643s-.287-.641-.643-.641Z" fill="#f3705a"/>
        <g>
          <path d="M17.396,32.222c-.893,0-1.618-.725-1.618-1.618s.725-1.622,1.618-1.622,1.622.725,1.622,1.622-.725,1.618-1.622,1.618Z" fill="#415a6b"/>
          <path d="M17.397,31.299c-.384,0-.696-.312-.696-.696s.312-.697.696-.697.697.312.697.697-.312.696-.697.696Z" fill="#344a5e"/>
        </g>
        <g>
          <path d="M18.031,22.099c0,.35-.283.633-.633.633s-.633-.283-.633-.633.283-.633.633-.633.633.283.633.633Z" fill="#ced6e0"/>
          <path d="M18.031,39.105c0,.35-.283.633-.633.633s-.633-.283-.633-.633.283-.633.633-.633.633.283.633.633Z" fill="#ced6e0"/>
        </g>
        <g>
          <path d="M25.901,31.235c-.35,0-.633-.283-.633-.633s.283-.633.633-.633.633.283.633.633-.283.633-.633.633Z" fill="#ced6e0"/>
          <path d="M8.896,31.235c-.349,0-.633-.283-.633-.633s.283-.633.633-.633.633.283.633.633-.283.633-.633.633Z" fill="#ced6e0"/>
        </g>
      </g>
      <path d="M39.241,6.056c-2.58-1.09-5.56.12-6.65,2.71-1.09,2.58.12,5.55,2.69,6.64,2.6,1.1,5.57-.11,6.66-2.69,1.1-2.59-.11-5.57-2.7-6.66ZM40.321,12.026c-.71,1.68-2.66,2.47-4.35,1.76-1.68-.71-2.47-2.66-1.76-4.34.72-1.69,2.66-2.48,4.34-1.77,1.69.72,2.48,2.66,1.77,4.35Z" fill="#344a5e"/>
    </g>
  </g>
</svg>