<?xml version="1.0" encoding="UTF-8"?>
<svg id="Layer_2" data-name="Layer 2" xmlns="http://www.w3.org/2000/svg" viewBox="0 0 48 48">
  <g id="Icon">
    <g>
      <path d="M8.157,35.428c-4.51,0-8.157-3.648-8.157-8.146,0-4.149,3.1-7.575,7.12-8.076-.921-4.044-.245-8.437,2.237-12.166C14.159-.208,23.924-2.177,31.173,2.624c4.277,2.843,6.724,7.435,7.015,12.201,5.465.256,9.812,4.766,9.812,10.302,0,5.687-4.615,10.302-10.313,10.302H8.157Z" fill="#f3f3f3"/>
      <polygon points="19.384 48 28.616 48 28.616 37.041 33.448 37.041 23.994 24.47 14.552 37.041 19.384 37.041 19.384 48" fill="#f3705a"/>
    </g>
  </g>
</svg>