<?xml version="1.0" encoding="UTF-8"?>
<svg id="Layer_2" data-name="Layer 2" xmlns="http://www.w3.org/2000/svg" viewBox="0 0 48 48">
  <g id="Icon">
    <g>
      <g>
        <rect width="40" height="40" rx="3" ry="3" fill="#e8eae9"/>
        <rect x="3.333" y="10.068" width="33.333" height="26.599" fill="#fff"/>
        <g>
          <rect x="6.667" y="14.096" width="26.667" height="1.85" fill="#ced6e0"/>
          <g>
            <rect x="6.667" y="19.66" width="9.889" height="1.85" fill="#ced6e0"/>
            <rect x="6.667" y="25.224" width="9.889" height="1.85" fill="#ced6e0"/>
            <rect x="6.667" y="30.789" width="9.889" height="1.85" fill="#ced6e0"/>
          </g>
        </g>
        <g>
          <path d="M7.401,5.034c0,1.123-.911,2.034-2.034,2.034s-2.034-.911-2.034-2.034.911-2.034,2.034-2.034,2.034.911,2.034,2.034Z" fill="#ffd15c"/>
          <path d="M13.157,5.034c0,1.123-.911,2.034-2.034,2.034s-2.034-.911-2.034-2.034.911-2.034,2.034-2.034,2.034.911,2.034,2.034Z" fill="#8ad7f8"/>
          <path d="M18.912,5.034c0,1.123-.911,2.034-2.034,2.034s-2.034-.911-2.034-2.034.911-2.034,2.034-2.034,2.034.911,2.034,2.034Z" fill="#f3705a"/>
        </g>
      </g>
      <g>
        <rect x="33.612" y="34.12" width="5.669" height="4.652" transform="translate(-15.097 36.446) rotate(-45)" fill="#344a5e"/>
        <g>
          <path d="M35.84,41.607l5.198,5.198c1.593,1.593,4.175,1.593,5.767,0,1.593-1.593,1.593-4.175,0-5.767l-5.198-5.198-5.767,5.767Z" fill="#f3705a"/>
          <rect x="35.345" y="38.434" width="8.156" height="1.979" transform="translate(-16.33 39.425) rotate(-45.002)" fill="#f05540"/>
        </g>
        <path d="M41.907,36.14l-5.767,5.767c-.515.515-1.35.515-1.865,0-.515-.515-.515-1.35,0-1.865l5.767-5.767c.515-.515,1.35-.515,1.865,0,.515.515.515,1.35,0,1.865Z" fill="#f3705a"/>
      </g>
      <g>
        <circle cx="26.624" cy="26.624" r="11.565" fill="#fff"/>
        <g>
          <rect x="16.34" y="19.108" width="16.993" height="2.955" fill="#ced6e0"/>
          <rect x="16.34" y="24.672" width="16.993" height="2.955" fill="#ced6e0"/>
          <rect x="16.34" y="30.236" width="16.993" height="2.955" fill="#ced6e0"/>
        </g>
        <path d="M35.923,35.923c-5.127,5.128-13.471,5.128-18.598,0s-5.128-13.471,0-18.598,13.471-5.128,18.598,0,5.127,13.471,0,18.598ZM19.568,19.568c-3.891,3.891-3.891,10.221,0,14.112,3.891,3.891,10.221,3.891,14.112,0s3.891-10.221,0-14.112-10.221-3.891-14.112,0Z" fill="#415a6b"/>
      </g>
    </g>
  </g>
</svg>