<?xml version="1.0" encoding="UTF-8"?>
<svg id="Layer_2" data-name="Layer 2" xmlns="http://www.w3.org/2000/svg" viewBox="0 0 48 48">
  <g id="Icon">
    <g>
      <rect width="48" height="48" rx="3" ry="3" fill="#e8eae9"/>
      <rect x="4" y="13.333" width="40" height="30.663" fill="#fff"/>
      <g>
        <path d="M9.769,6.664c0,1.322-1.072,2.394-2.394,2.394s-2.394-1.072-2.394-2.394,1.072-2.394,2.394-2.394,2.394,1.072,2.394,2.394Z" fill="#f3705a"/>
        <path d="M16.885,6.664c0,1.322-1.072,2.394-2.394,2.394s-2.394-1.072-2.394-2.394,1.072-2.394,2.394-2.394,2.394,1.072,2.394,2.394Z" fill="#55c0eb"/>
        <path d="M24,6.664c0,1.322-1.072,2.394-2.394,2.394s-2.394-1.072-2.394-2.394,1.072-2.394,2.394-2.394,2.394,1.072,2.394,2.394Z" fill="#ffd15c"/>
      </g>
      <g>
        <path d="M12.985,31.62h-1.703l-2.011-5.913h1.703l1.156,3.571,1.152-3.571h1.596l1.152,3.571,1.156-3.571h1.714l-2.011,5.913h-1.714l-1.091-3.22-1.098,3.22Z" fill="#415a6b"/>
        <path d="M22.9,31.62h-1.703l-2.011-5.913h1.703l1.156,3.571,1.152-3.571h1.596l1.152,3.571,1.156-3.571h1.714l-2.011,5.913h-1.714l-1.091-3.22-1.098,3.22Z" fill="#415a6b"/>
        <path d="M32.814,31.62h-1.703l-2.011-5.913h1.703l1.156,3.571,1.152-3.571h1.596l1.152,3.571,1.156-3.571h1.714l-2.011,5.913h-1.714l-1.091-3.22-1.098,3.22Z" fill="#415a6b"/>
      </g>
    </g>
  </g>
</svg>