<?xml version="1.0" encoding="UTF-8"?>
<svg id="Layer_2" data-name="Layer 2" xmlns="http://www.w3.org/2000/svg" viewBox="0 0 48.012 48.001">
  <g id="Icon">
    <g>
      <g>
        <ellipse cx="24.008" cy="24.001" rx="23.999" ry="24.005" transform="translate(-8.13 34.935) rotate(-63.782)" fill="#55c0eb"/>
        <g>
          <path d="M1.811,32.622c.009-.057.011-.104.016-.147.047.04.05.098.077.128.121.127.15.007.177-.084-.005-.006-.091-.039-.139-.056-.012-.159.105-.321.272-.362.022.073.033.152.061.225.051.135.218.216.308.151.123-.095.238-.194.331-.267.195.148.39.296.588.442.14.099.481.093.61-.014.033-.03.045-.09.064-.136.02-.045.026-.117.058-.13.092-.05.084-.12.079-.198-.002-.069.007-.138.016-.207.097.149.15.299.227.439.138.255.213.259.505.253.261-.011.517-.117.781-.037.057.014.124-.003.186-.02.152-.033.3-.113.45-.105.251.015.419-.072.576-.258.061-.072.187-.109.286-.122.113-.015.249-.011.354.031.246.096.523.121.712.335.071.079.156.123.27.152.191.047.33-.079.501-.08.271-.004.482-.173.712-.283.154-.073.273-.215.408-.333.123-.101.231-.231.423-.147.034.013.09-.016.137-.019.142-.013.285-.038.429-.026.383.021.692-.094.915-.418.065-.092.09-.181.004-.269-.107-.112-.141-.247-.137-.399,0-.078-.018-.154-.015-.235.002-.156-.056-.274-.16-.389-.099-.103-.162-.239-.243-.358-.051-.081-.105-.152-.173-.251.097-.099.02-.239-.019-.374-.026-.108-.073-.22-.135-.313-.127-.182-.33-.042-.488-.113.004-.014.014-.046.021-.08.014.003.034.013.048.011.102-.01.203-.025.305-.034-.043-.071-.082-.146-.134-.215-.052-.069-.118-.136-.197-.223.066,0,.098.005.127,0,.139-.005.321.05.296-.202-.004-.029.032-.062.048-.093.081-.135.159-.255.139-.435-.032-.296-.094-.571-.309-.789-.113-.118-.279-.204-.196-.417.013-.022-.029-.062-.036-.1-.007-.032-.017-.073,0-.098.114-.208.041-.379-.092-.545.122-.133.131-.202.035-.356-.056-.092-.076-.163.108-.197-.14-.099-.257-.174-.366-.257-.069-.058-.135-.125-.193-.194-.051-.069-.082-.163-.136-.229-.072-.078-.178-.136-.097-.27.015-.02-.011-.067-.021-.096-.027-.097-.054-.193-.089-.305-.015.02-.049.05-.079.083-.009-.003-.02-.015-.034-.025-.227-.147-.251-.136-.377.089-.016.037-.088.042-.139.06-.011-.018-.021-.036-.035-.057.04-.053.075-.118.126-.158.078-.06.166-.102.25-.156-.002-.009-.011-.018-.016-.03.054.011.109.028.163.04.018-.132-.03-.155-.116-.17-.112-.026-.222-.074-.323-.125-.105-.048-.196-.125-.301-.162-.051-.02-.122.012-.186.026-.07.014-.141.039-.213.045-.081.008-.164-.005-.248-.006.004-.075.008-.161.006-.242-.004-.162-.104-.248-.249-.336-.127-.073-.318-.114-.333-.293-.013-.148.018-.308.06-.456.018-.077.086-.155.149-.206.111-.09.234-.174.364-.243.199-.103.246-.196.119-.433-.09-.172-.26-.304-.394-.452l-.181-.199c.241-.092.444-.166.642-.252.148-.062.289-.13.429-.208.033-.019.077-.097.063-.118-.054-.083-.119-.162-.191-.229-.191-.174-.393-.238-.61-.041-.006.006-.009.008-.015.008-.095-.002-.207.028-.283-.014-.107-.057-.176-.188-.279-.247-.194-.11-.242-.309-.212-.464.061-.309.152-.628.419-.849.06-.049.109-.11.158-.172.071-.086.143-.146.268-.105.029.007.076-.019.1-.047.034-.036.045-.096.081-.129.075-.069.22-.189.234-.174.1.086.175.017.261-.016.099.158.225.181.346.077.05.037.084.062.111.092.118.13.303.249.333.397.042.198.209.279.251.428.047-.064.093-.123.139-.193-.019-.027-.051-.069-.081-.114.046.008.08.027.104.054.13.125.265.244.377.379.058.069.075.174.115.26.029.062.054.144.107.178.182.121.209.339.053.508-.082.086-.162.186-.202.293-.066.159-.094.328-.139.496.085.099.18.09.271.013.081-.074.169-.154.226-.249.122-.193.224-.402.335-.602.064-.118.422-.245.533-.214.12.035.246.047.37.067.028.007.064-.003.089.007.173.052.341.103.515.161.034-.036.07-.069.079-.083.071.024.128.038.185.058.004-.014.01-.031.017-.042-.024-.045-.045-.086-.074-.148.053.034.096.057.152.088.083-.164.168-.324.252-.488,0,0,.017.018.019.021.081-.062.159-.122.234-.185-.04.102-.1.168-.159.244-.052.07-.099.14-.152.221.179-.058.395-.056.487-.289,0,.043-.001.09-.003.13.168-.004.33-.013.395-.166.115.072.222.135.328.204.009-.014.016-.025.022-.042-.056-.037-.115-.078-.173-.118.009-.014.019-.028.025-.039.185.124.367.246.529.358.041-.082.061-.194.117-.217.141-.057.277-.18.454-.076.059.035.143.024.226.037.051.135.196.192.363.127.02-.008.052-.003.072.006.146.082.289.167.408.231-.009.008-.057.04-.123.084-.048-.017-.122-.038-.199-.056-.185-.047-.296.087-.222.301.366-.101.634.158.942.291.019-.04.029-.065.048-.093l.003-.003-.003-.003-.003.003c-.042-.089-.04-.184-.156-.239-.088-.036-.143-.394-.09-.469.069-.101.073-.265.249-.26-.053-.095-.098-.181-.14-.264.012-.005.023-.01.032-.019.03.039.053.101.093.114.097.034.224.089.292.049.118-.058.061-.176-.013-.264-.104-.126-.223-.233-.386-.273-.205-.05-.408-.103-.662-.165.248,0,.456-.001.661,0,.023.001.042.034.064.041.06.017.12.029.18.035.083.007.203-.025.25.021.204.206.39.429.581.652.115.138.25.263.434.284.193.018.374.018.535.165.15.134.304.11.447-.042.045-.047.07-.13.122-.144.093-.024.128-.078.106-.157-.02-.064-.069-.119-.112-.19.024-.022.061-.061.118-.124-.096-.051-.174-.095-.259-.14,0-.067.028-.091.095-.059.073.038.147.071.22.103l.033-.03c-.066-.194-.131-.388-.199-.596q.082-.085.034-.229c-.007-.026-.009-.058-.002-.087.017-.103.033-.206.042-.269.081-.008.187.006.215-.03.065-.092.085-.21.131-.317.029-.059.075-.106.109-.159-.035-.002-.075-.004-.11-.005.029-.01.056-.017.091-.027-.021-.042-.042-.077-.051-.092.036-.033.075-.057.094-.085.038-.067.064-.136.094-.206.046-.119.093-.244.13-.366.01-.031-.008-.07-.015-.108-.094.024-.209.019-.272.076-.097.088-.203.129-.327.132-.038.001-.073-.038-.111-.037-.098-.005-.194,0-.303,0,.027-.134.049-.237.072-.352-.064-.052-.139-.111-.208-.169.058.003.146.022.159-.001.072-.127.313-.201.153-.42.047.04.088.079.124.113l.29-.263c-.039-.036-.078-.062-.099-.097-.035-.051-.04-.118-.079-.16-.066-.073-.055-.127-.01-.206.047-.076.052-.174.073-.259.093-.14.054-.353-.125-.405-.12-.035-.195-.099-.232-.219-.025-.088-.058-.168-.101-.245-.021-.041-.068-.081-.111-.086-.166-.031-.258.08-.21.29-.308-.023-.379.256-.532.428-.11.133-.217.192-.37.121-.116-.055-.171.006-.152.105.05.225-.059.39-.177.558-.077.103-.154.206-.225.304l.055.06c-.023.005-.047.015-.073.017-.049,0-.106-.02-.15-.007-.17.055-.337.047-.505-.004-.074-.021-.149-.03-.226-.043l.03.033c-.158.226-.316.447-.477.676-.043,0-.098.001-.147.002-.028.048-.054.093-.089.157-.05-.098-.055-.237-.181-.133-.037-.06-.064-.107-.091-.155.138-.109.148-.183.056-.327.04-.047.076-.08.096-.12.032-.068.031-.16.08-.21.158-.16.332-.307.51-.469-.078-.105-.144-.189-.206-.276-.057-.081-.159-.169-.156-.244.019-.161-.056-.28-.107-.415-.018-.044-.024-.099-.022-.146.033-.383-.002-.737-.365-.942.088-.14.173-.283.266-.418.071-.103.072-.187-.015-.29-.036-.039-.056-.164-.029-.189.178-.15.369-.285.557-.418.075-.051.155-.091.259-.152.224.083.473.011.7-.09.087.053.172.147.259.145.066,0,.135-.112.199-.169.042.083.111.098.203.042.074-.046.124-.058.183.043.043.066.167.129.248.122.169-.021.328-.088.506-.14-.136-.223-.341-.412-.186-.696.043.126.065.26.091.391.012.05.021.108.051.147.06.066.46.034.516-.039.015-.019.011-.054.021-.08.01-.031.02-.063.028-.091.028.013.065.023.09.045.036.028.063.064.104.109-.214.189.071.211.085.342.041-.065.072-.115.131-.202-.002.101-.002.156-.003.251.199-.005.39.004.575-.021.058-.009.118-.101.153-.166.08-.149.142-.305.204-.449.163.149.266.177.295-.069.044-.007.09-.01.145-.016-.083-.14-.123-.269.03-.38.015-.014.015-.074.002-.095-.1-.141-.2-.275-.309-.419-.13.112-.278.186-.226.37-.062.04-.116.072-.161.102-.051-.02-.115-.072-.156-.057-.171.067-.344.137-.502.236-.098.062-.171.073-.263.002.031-.111.065-.214.096-.319.038-.134.138-.164.261-.149.006,0,.018-.016.021-.025.062-.144.138-.285.188-.436.031-.094-.037-.138-.124-.113-.059.02-.107.064-.157.093-.08.039-.157.076-.26.126.088-.152.16-.261.217-.379.029-.054.021-.129.119-.124.012,0,.042-.088.029-.12-.028-.085-.082-.163-.116-.231.097-.039.18-.069.282-.108,0,0,.031.022.064.046.03-.137.042-.269.091-.38.048-.11.14-.198.208-.299.022-.031.029-.065.042-.099.024-.077.051-.151.081-.239-.006,0-.019-.015-.036-.028-.02-.015-.039-.031-.047-.04.021-.074.035-.131.052-.191-.017-.012-.03-.028-.047-.04-.121.055-.242.115-.375.175-.107-.106-.297,0-.382.253-.038.007-.081.008-.123.023-.118.041-.216.102-.194.253.029.183-.056.382.073.524-.121.049-.248.104-.415.173.087.048.129.07.178.092-.079.198-.368.208-.552.005-.089.108-.178.217-.273.336-.116-.291.185-.3.264-.449-.026-.01-.054-.023-.085-.033.101-.18.035-.313-.205-.426-.039.096-.078.187-.12.28.05.043.089.079.138.128-.045.03-.077.048-.155.097.001-.15-.002-.263-.001-.39-.028.048-.05.084-.059.098-.147-.137-.281-.291-.436-.414-.103-.077-.155-.146-.117-.269.034-.108.009-.19-.083-.261-.064-.047-.087-.284-.044-.357.167-.284.11-.304-.119-.399-.037-.016-.073-.044-.113-.052-.091-.016-.189-.026-.29-.04.004.283.009.289.151.215.035.051.064.101.086.137.084-.01.157-.021.23-.032.002.015.004.029.004.041-.119.075-.232.073-.358-.006-.124-.069-.262-.01-.315.121-.039.085-.075.173-.13.245-.024.028-.099.012-.165.018.018-.066.025-.106.033-.146.12.029.165,0,.139-.12-.009-.058.015-.123.02-.184.004-.032.02-.057.013-.083-.016-.079-.042-.155-.082-.273-.36-.081-.58-.372-.727-.728.162-.125.249-.017.389.082.025-.166.058-.306.062-.442,0-.049-.082-.146-.106-.141-.118.041-.119-.058-.139-.111-.112-.323-.261-.634-.285-.987-.007-.093-.101-.19-.175-.26-.028-.024-.12.032-.18.026-.066-.006-.134-.044-.176-.06.108-.131.196-.233.316-.375-.161.036-.271.059-.383.088-.038.007-.088.036-.116.023-.025-.016-.051-.08-.044-.109.047-.131.108-.258.155-.388.034-.097.05-.2.072-.297-.023-.007-.046-.014-.072-.018-.02.057-.04.119-.07.19-.093-.048-.238.078-.325-.096-.021-.047-.133-.056-.238-.093q.281-.007.318-.129c-.273-.074-.551-.15-.83-.226-1.558.683-3.022,1.534-4.386,2.517.002.005.005.014.007.019-.013.161-.03.319-.031.475-.001.023.061.049.1.074.016-.031.046-.058.054-.093.011-.049.002-.101.001-.15l.052.003c0,.139-.002.277-.002.41.014.009.022.018.033.025.071-.097.142-.195.211-.296-.008.057-.037.105-.054.154-.023.071-.068.144-.065.213.01.156-.012.297-.104.419-.019.028-.043.056-.051.09-.029.114-.057.228-.077.346-.007.034.011.067.015.102-.064.014-.135.034-.208.05l.069.076c-.014.046-.046.102-.042.154,0,.049.045.097.071.145-.044.012-.091.028-.17.05.079.044.121.067.166.092-.063.052-.126.086-.174.136-.03.027-.044.073-.057.113-.055.176-.084.363-.184.525-.006.011.015.035.023.056.017.061-.069.355-.122.376-.191.069-.108.148-.026.244.03.039.02.114.032.169-.017.005-.035.01-.05.012l-.198-.382c-.015.008-.029.016-.044.024.018.044.036.088.044.109-.053.032-.124.069-.122.078.049.127.078.238.039.389-.036.148.025.319.043.479-.106.035-.396.492-.391.57-.068.029-.129.046-.174.081-.156.12-.312.245-.465.368-.108.093-.217.186-.323.282-.096.082-.187.17-.281.255-.034.036-.073.072-.095.114-.05.079-.08.167-.133.242-.108.154-.119.324-.025.403-.045.035-.11.061-.132.109-.062.15-.107.307-.155.466-.017.06.005.145-.029.181-.118.119-.024.21.005.321.041.166.099.346.074.506-.035.192-.154.371-.232.558-.058.136-.145.259-.099.426.017.067-.002.156-.031.227-.02.057-.077.097-.12.147-.047-.046-.08-.076-.113-.107-.007.138-.001.272.042.386.059.156.05.291-.074.398-.036.027-.084.065-.086.1.002.202.012.408.019.616.126.029.184-.052.158-.221-.008-.07-.012-.16.022-.207.201-.282.187-.638.325-.94.01-.02.002-.052.004-.075-.001-.274.1-.504.323-.701-.011.17.157.293.036.458-.087.123-.143.268-.219.408.005.018.02.059.021.096-.007.193-.022.389-.025.585-.001.09.038.181-.089.23-.024.01-.009.129-.004.196,0,.049.03.1.025.149-.024.198-.065.395-.075.591-.01.213-.085.386-.279.457-.124.052-.15.12-.129.222.047.222.012.463.162.658.019.027.017.067.027.102.037.137.074.269.113.404.037.126.083.255.132.382.06.144.088.328.262.379.234.063.314.249.292.468-.045.46.172.809.418,1.141-.018.071-.036.143-.051.217-.031.155.036.331-.137.45-.033.024-.037.166-.006.187.123.087.096.233.072.31-.044.134.01.211.066.309.034.062.057.136.07.211.011.067.011.139.016.223.037.01.083.019.126.029q.048-.159.352-.061c.011.078.024.16.043.242-.099.134-.153.287-.237.425-.085.143-.3.179-.337.411-.111-.026-.226-.048-.34-.071-.017,0-.032.001-.046.004-.248.104-.534-.011-.775.136-.006.006-.023-.007-.029-.002-.075.063-.153.123-.212.198-.012.011.056.092.088.146q-.061.055-.329.045c-.144-.007-.346.171-.344.313.016.339-.089.649-.242.947-.08.161-.126.341-.195.508-.048.11-.111.217-.16.327-.019.04-.033.085-.038.128-.03.27.041.525.118.78.082.267.152.556-.11.777-.329.287-.666.572-1.003.85-.111.09-.234.174-.363.231-.369.17-.706.382-.964.704-.021.025-.049.056-.081.068-.287.145-.567.317-.869.414-.249.078-.453.175-.602.393-.028.048-.099.068-.146.1-.066.048-.144.085-.211.131.185.634.404,1.252.639,1.863.058-.02.119-.021.192.024Z" fill="#f3f3f3"/>
          <path d="M47.549,19.331c-.03.01-.063.017-.09.035q-.233.167-.469.016c-.037-.02-.07-.045-.106-.065-.216-.135-.237-.131-.314.09-.282.037-.282-.237-.437-.404-.045.155-.082.282-.118.404-.041.135-.082.261-.122.404-.069-.065-.102-.126-.147-.139-.143-.037-.2-.135-.245-.257-.028-.073-.081-.139-.126-.208-.053-.086-.037-.151.037-.22.102-.098.131-.212.057-.347-.012-.029-.029-.069-.016-.09.11-.22-.049-.347-.164-.49-.11-.135-.261-.155-.408-.061-.147-.078-.294-.159-.441-.237-.094-.053-.22,0-.233.106-.012.077-.012.167.012.241.037.118-.004.155-.114.188-.257.073-.502.029-.743-.069-.147-.057-.171-.122-.086-.265-.522-.171-.763-.171-1.085.02.053.029.098.053.163.09-.078.037-.114.053-.184.086-.004-.102,0-.184-.012-.261-.016-.09-.053-.176-.074-.249-.041.057-.086.151-.11.151-.106-.02-.237-.024-.253-.151-.09-.02-.163-.037-.245-.057q-.131.139-.057.269.159-.094.216,0c-.102.045-.204.09-.327.147-.025.118-.306.22-.641.159.11-.106.184-.237.29-.269.102-.029.179-.049.233-.143.049-.077.106-.155.159-.233.114-.171.212-.359.445-.404.02-.004.037-.02.053-.033.082-.09.175-.175.245-.273.061-.082.126-.184.135-.281.012-.122-.061-.249.037-.363.012-.016,0-.065-.012-.09-.041-.082-.09-.159-.135-.241-.016.012-.045.033-.078.057-.02-.077-.016-.159-.053-.208-.159-.22-.343-.396-.649-.335-.033.004-.073,0-.106-.004-.106-.016-.184.016-.224.118-.057.135-.155.163-.306.118.053-.069.106-.131.155-.2.118-.167.086-.245-.11-.277-.061-.008-.122-.037-.184-.057,0-.012.004-.025.004-.037-.041.016-.086.033-.131.049.037-.073.094-.122.147-.171.094-.094.077-.237-.041-.302-.061-.037-.131-.061-.196-.094-.139-.069-.261-.012-.347.09-.114.135-.216.282-.302.437-.049.09-.065.2-.082.302-.008.061.02.131.033.196-.171.029-.31.049-.465.073.078.122.241.184.143.351-.069-.057-.131-.11-.225-.192-.061.094-.106.188-.175.249-.053.049-.143.061-.216.069-.037.004-.077-.045-.13-.077.057-.102-.016-.118-.123-.106-.118.012-.236.029-.355.049-.053.008-.102.033-.155.049.033.037.065.069.114.122-.053.02-.094.045-.139.061-.179.061-.355.13-.535.184-.139.041-.257.106-.334.233-.066.106-.151.172-.314.135.049.045.069.065.073.069-.049.098-.09.188-.135.278-.053-.037-.102-.069-.155-.106-.139.155.078.147.098.229-.041.041-.077.082-.114.122.016.016.029.024.041.037.049.061.139.118.139.18.004.11-.09.155-.204.175-.298.045-.596.102-.894.155-.18.033-.265.261-.171.424.037.061.053.139.053.212-.004.127.024.212.155.286.143.086.261.224.38.347.033.033.049.11.029.147-.086.196-.024.375.02.563.02.09.049.196-.082.249-.024.008-.033.065-.045.098-.135-.041-.159-.131-.139-.245.024-.192-.086-.412.138-.555.037-.02.037-.102.053-.163-.041-.008-.065-.012-.094-.016-.163-.004-.298-.033-.4-.2-.123-.2-.335-.245-.567-.171-.053.016-.098.049-.147.074.029.041.061.086.09.131q-.167.175-.322-.004c-.123.069-.041.171-.004.224.078.106.167.22.343.184.02.065.045.131.077.224-.233-.094-.428-.171-.584-.233-.008-.118-.02-.196-.02-.269.004-.094-.004-.196.024-.282.057-.175.008-.367-.147-.461-.004.033-.016.065-.008.086.09.249-.02.408-.22.53-.012.004-.02.012-.024.02-.098.102-.143.212-.069.351.053.102.102.204.147.31.024.057.061.127.045.175-.102.273-.135.547-.041.869.078.004.2.049.294.016.11-.037.18-.016.273.029.192.094.245.257.261.433-.045.073-.106.159-.09.224.016.065.11.114.167.171-.159.016-.249-.033-.224-.143.057-.245-.037-.437-.168-.629-.061.021-.118.041-.18.057-.29.09-.302.139-.216.424.024.09-.012.208-.045.302-.033.09-.094.171-.143.257-.024.041-.049.09-.081.127-.086.09-.176.175-.265.265-.061.02-.151.004-.237-.004-.143-.008-.171-.082-.135-.245.086.131.172.237.29.094.012-.094.012-.253.041-.257.155-.029.13-.176.196-.253.135-.155.081-.359.139-.534.008-.024-.025-.069-.049-.094-.261-.29-.045-.637-.115-.947-.004-.008.012-.016.012-.029.041-.196.069-.4-.065-.563-.09-.11-.11-.196-.045-.318.09-.171.135-.351.102-.543-.008-.045-.049-.106-.086-.118-.188-.049-.384-.086-.596-.135-.033.114-.081.212-.098.318-.037.29-.118.555-.363.747-.041.029-.061.094-.069.147-.012.065-.004.131-.004.216.033.012.082.037.143.065-.041.212-.077.424-.122.661.208-.024.274.094.314.249.02.069.086.126.139.204-.045.09-.094.196-.147.314-.102-.127-.18-.257-.29-.347-.302-.237-.62-.453-1.012-.534-.118-.021-.228-.045-.29.065-.029.049.016.147.041.216.032.098.069.192-.045.261-.073.049-.159.082-.135.2,0,.016-.053.045-.086.069-.012-.033-.029-.065-.033-.102-.02-.086-.033-.175-.053-.298-.118.102-.188.171-.269.229-.053.037-.122.077-.175.073-.192-.02-.367-.024-.457.253-.07-.106-.127-.163-.147-.233-.017-.069.004-.151.008-.228-.012-.008-.029-.016-.045-.029-.045.057-.094.114-.143.171-.151-.098-.106.053-.118.09-.098.024-.18.024-.245.061-.184.11-.355.241-.538.347-.11.065-.184.147-.188.265-.008.155-.106.225-.196.282-.082-.041-.155-.061-.2-.11-.245-.245-.208-.363.127-.457.008-.004.016-.016.02-.02-.025-.351-.212-.396-.678-.437.2.114.192.278.167.441-.012.065-.033.131-.037.2-.004.041,0,.102.025.126.11.102.086.208.053.331-.025.09-.033.18-.053.294-.037-.041-.069-.073-.098-.114-.09-.135-.253-.139-.359-.016-.078.082-.163.159-.257.224-.167.118-.179.155-.094.347.041.09.082.184.122.273-.008.012-.02.024-.028.037-.253-.102-.502-.204-.784-.318-.004.065-.037.159-.004.212.045.078.139.131.208.196.012-.012.024-.02.032-.033.025.073.045.147.066.216-.143.057-.327.008-.441-.098-.069-.065-.155-.118-.233-.175-.02-.098-.053-.204-.074-.31-.008-.041,0-.09.012-.135.024-.114.061-.22-.049-.326-.167-.163-.318-.339-.474-.51.008-.012.017-.025.025-.037.041.024.086.049.126.069.163.094.318.2.49.265.18.074.375.094.559.155.139.049.269.041.384-.041.155-.106.331-.237.31-.437-.029-.273-.147-.522-.465-.608-.073-.02-.147-.073-.208-.126-.131-.114-.249-.241-.375-.355-.041-.033-.102-.069-.147-.065-.245.025-.457-.057-.649-.196-.024-.016-.037-.053-.053-.086.008-.004.02-.008.029-.012.041.016.082.037.126.057q.041-.11-.188-.188c-.025.041-.049.086-.057.102h-.327c-.086-.098-.147-.167-.229-.261.229.106.314-.037.424-.192-.143-.086-.273-.159-.437-.253-.037.086-.073.167-.11.245-.016-.004-.033-.008-.049-.012.016-.098.033-.196.049-.306-.041-.016-.094-.041-.147-.069-.057.151-.106.286-.155.42-.016-.004-.032-.008-.045-.012-.008-.09-.012-.175-.02-.294-.114.188-.212.343-.306.498-.017-.008-.033-.016-.045-.024.053-.135.11-.269.163-.396-.053-.024-.11-.057-.18-.098-.02.024-.082.073-.082.09.074.118-.041.155-.089.216-.061.082-.122.159-.171.22-.106-.033-.212-.065-.339-.102.049.106.082.175.114.245-.175-.094-.278-.041-.331.208-.016-.098-.024-.163-.041-.241-.041.049-.09.114-.098.114-.183-.106-.106.102-.163.131-.029-.008-.053-.012-.086-.02.016.053.029.09.049.159-.114-.069-.196-.122-.306-.188-.032.098-.065.192-.106.314.09-.02.126-.033.155-.037.098.2-.069.245-.196.318.074.024.122.041.175.057-.004.016-.008.029-.008.041h-.224v.245c-.045-.057-.065-.09-.11-.147-.024.09-.037.155-.057.216-.02.045-.049.114-.078.118-.118.02-.127.11-.155.188-.016.045-.029.11-.061.122-.224.11-.13.375-.261.526-.053.061-.082.139-.114.212-.012.033-.004.069-.012.102-.008.037-.012.098-.032.106-.118.049-.167.126-.13.253-.225.02-.225.237-.339.359.041.053.082.106.123.155-.066-.004-.123-.061-.155-.049-.102.041-.2.098-.294.163-.081.053-.151.122-.233.192.037.02.074.045.102.061-.102.061-.175.11-.249.159-.069.049-.139.098-.221.155.02.012.061.041.098.065-.081.029-.163.167-.135.249.008.025.041.057.061.053.135-.012.269-.033.404-.049-.024.041-.049.086-.078.131-.114-.122-.233-.033-.335,0-.057.016-.086.094.012.159.041.024.004.155.004.237q.188-.208.285-.196c-.143.069-.216.208-.159.298-.057.041-.11.082-.167.122.004.012.012.025.016.037.061-.012.123-.029.18-.041-.016.082-.061.139-.102.196-.017.029-.037.086-.029.094.102.09.2.188.318.253.045.024.131-.033.2-.053.188-.061.212-.326.441-.347.012,0,.029-.073.033-.11.008-.053.008-.11.016-.18.049.143.094.261.131.384.078.261.114.534.278.767.086.122.049.253-.086.318-.069.033-.139.065-.233.11.086.106.155.192.249.302.049-.127.081-.204.122-.31.065.196.184.09.269.11.078-.208.078-.204.306-.261.029-.008.078-.025.081-.045.057-.261.114-.526.151-.788.012-.09.11-.269.2-.257.123.02.114-.057.126-.122-.118-.016-.229-.033-.335-.045.004-.02.008-.041.008-.057.094.016.188.057.273.045.106-.012.184-.098.155-.212-.041-.184-.196-.29-.359-.233.032-.277.061-.539.094-.8,0-.008,0-.021.008-.029.138-.184.236-.4.465-.518.126-.065.224-.192.322-.306.033-.033.037-.114.016-.163-.057-.155.033-.282.082-.412.032-.078.114-.139.175-.208.106.012.216.021.327.033.008-.02.016-.041.024-.061.037.045.077.086.106.135.049.09.102.18.123.273.008.029-.082.082-.13.122-.008.008-.021.02-.029.033-.127.188-.249.383-.38.567-.041.057-.114.098-.18.135-.114.061-.196.229-.175.355.029.208.114.412.045.632-.025.073.004.175.106.233.094.057.225.061.286.18.008.024.098.024.139.012.09-.024.171-.078.261-.102.229-.069.461-.13.69-.196.016.008.029.012.041.016-.094.143-.025.167.073.188.069.012.135.049.18.065-.159.073-.31.147-.518.245-.18-.049-.428-.102-.677.049-.086.053-.172.09-.147.2.025.106.008.261.22.2-.02.188-.041.355-.061.514-.216.012-.237-.18-.355-.282-.053.037-.135.061-.167.114-.11.175-.188.359-.131.579.029.102.033.216.049.371-.183-.135-.241-.033-.31.069-.037.053-.114.078-.171.118-.025-.049-.045-.094-.074-.151-.249-.024-.804.192-.877.363-.069-.057-.135-.114-.176-.147.012-.069.02-.114.029-.167-.2.09-.371.167-.559.257.008-.077.008-.114.012-.131-.078-.029-.163-.029-.196-.073-.086-.118-.106-.233-.061-.351.057.065.094.114.147.143.02.012.098-.025.098-.041,0-.057-.021-.11-.033-.171-.069.024-.118.037-.208.061.02-.057.061-.114.114-.175.045-.053.094-.106.163-.188-.196.008-.196-.073-.151-.196.029-.077.025-.171.041-.298-.127.094-.212.151-.294.212-.241.175-.281.449-.102.69.02.024.02.065.025.102.02.135.033.273.049.412-.008-.016-.017-.029-.025-.041-.033.057-.069.118-.102.18-.11-.094-.2-.094-.265.049-.008,0-.037-.012-.053-.012-.175-.008-.237.045-.257.22-.004.045-.029.09-.045.135-.008,0-.016-.004-.025-.004v-.151c-.012-.004-.028-.008-.045-.012-.049.139-.098.273-.167.457-.082.037-.225.094-.363.163-.041.016-.102.061-.102.09,0,.147-.09.212-.204.265-.037.016-.074.041-.102.074-.09.11-.18.118-.302.033-.028-.02-.077-.02-.131-.037.025.122.041.22.065.343-.098-.004-.192.016-.253-.016-.159-.082-.277-.016-.4.049-.004.171.102.208.237.237.151.033.302.09.314.286.004.029.033.078.061.086.167.057.127.204.143.322.012.082,0,.163,0,.245-.004.273-.094.351-.363.326-.335-.029-.669-.065-1-.069-.098,0-.2.094-.294.151-.012.004,0,.053.008.077.008.033.024.065.033.098.09.31.008.604-.081.898-.037.118-.021.188.118.196-.008.118-.012.233-.02.347.041,0,.066,0,.086-.004.196-.041.379-.057.482.183.033.082.126.114.204.033.106-.106.237-.147.371-.114.257.057.367-.167.534-.269.078-.045.106-.175.163-.273-.106-.069-.082-.151-.029-.261.11-.237.306-.359.518-.473.11-.061.176-.131.126-.273-.037-.098-.008-.208.102-.224.123-.016.249.012.371.024.057.008.122.045.159.029.151-.082.298-.171.428-.278.069-.057.114-.061.192-.033.127.041.188.114.229.245.029.102.114.192.188.278.041.045.106.073.159.114.159.118.318.241.477.363.086.065.2.114.249.204.045.082.147.184.053.306-.106.135-.343.204-.514.151-.053-.016-.118.016-.175.029.029.045.049.106.09.135.106.074.22.135.335.192.074.041.118.02.131-.069.008-.094.024-.188.037-.282.016.016.029.029.045.041.045-.012.102-.012.127-.041.049-.061.057-.151.11-.2.086-.077.073-.122.004-.204-.029-.037-.021-.122.004-.171.012-.024.102-.037.143-.02.061.024.114.077.196.135-.061-.298-.327-.306-.502-.433.004-.041.008-.082.012-.126-.265.004-.363-.053-.453-.306-.049-.127-.118-.216-.233-.282-.155-.09-.069-.245-.078-.367,0-.045.139-.094.216-.147.033.118.053.196.086.306.053-.077.078-.11.114-.159.065.102.123.192.18.282.045.073.074.184.139.212.118.049.229.082.327.188.114.122.265.208.347.269.033.204.037.351.082.486.037.098.131.175.192.265.057.082.102.167.159.265-.081.196.094.408.347.388-.012-.053-.025-.102-.033-.155.037-.016.077-.033.114-.049-.016-.049-.033-.09-.061-.163.082.037.131.057.184.082.004-.029.008-.057.016-.09.029.016.061.029.106.049-.106-.245-.204-.306-.322-.261-.016-.074-.029-.151-.041-.228-.012-.057-.025-.118-.033-.155.094.029.167.049.245.073.004-.049.012-.098.02-.163.159-.159.339-.012.514.008-.028.143-.057.273-.082.408.008.004.012.012.021.016.028-.033.061-.069.102-.118.012.057.025.102.033.147.008.049.012.094.016.147-.037-.008-.069-.012-.126-.025.02.041.024.078.037.082.118.02.131.118.175.204.053.094.082.241.257.184.033-.008.09.024.123.053.171.147.245.131.327-.082.012,0,.032-.008.045-.004.073.037.147.077.22.118.188.106.31.094.482-.037.037-.029.09-.033.139-.041.065-.004.135,0,.196,0-.008.073-.016.159-.02.245-.008.102.008.212-.024.306-.077.225-.179.441-.269.661-.073.176-.314.269-.453.151-.09-.077-.176-.086-.269-.057-.102.024-.196.069-.298.09-.078.016-.159.025-.237.012-.18-.033-.355-.078-.531-.122-.175-.049-.347-.102-.522-.155-.02-.008-.033-.037-.053-.053-.061-.037-.114-.094-.18-.106-.143-.029-.269.012-.384.118-.094.082-.106.159-.078.273.012.041-.032.122-.069.139-.069.029-.159.053-.224.033-.159-.045-.314-.106-.465-.171-.057-.029-.123-.069-.147-.118-.098-.196-.274-.265-.465-.253-.278.016-.457-.171-.731-.29.09-.073.155-.122.212-.18.069-.065.139-.171.057-.241-.114-.102-.078-.167-.004-.257.016-.024.02-.057.032-.106-.061.029-.102.045-.151.065-.037-.151-.126-.147-.241-.094-.11.053-.221.082-.355.041-.106-.033-.233.016-.351.029-.045.004-.09.024-.131.02-.318-.057-.624.016-.91.139-.278.118-.514.347-.853.253-.02-.008-.053.012-.074.008-.082-.02-.175-.033-.237-.077-.127-.098-.164-.106-.208.037-.069.233-.22.379-.429.502-.236.139-.363.388-.355.649.004.2-.061.318-.196.424-.216.18-.526.245-.641.543-.012.024-.049.037-.069.061-.025.033-.049.065-.069.102-.147.265-.298.53-.437.804-.045.094-.102.2,0,.31.069.073.127.167.045.282-.016.024.017.078.02.114.008.127.02.253.017.379-.004.078-.057.151-.065.225-.008.135-.061.228-.192.286.102.126.192.245.151.42-.032.135.102.175.184.241.016.012.053.004.069.021.135.151.273.302.404.457.037.045.082.106.077.163-.004.131.082.196.167.261.188.147.376.298.58.42.212.13.416.277.702.126.22-.118.474-.122.714-.029.11.041.196.033.294-.016.318-.155.641-.286,1.004-.282.204,0,.314.078.371.273.029.106.102.163.22.147.098-.012.196-.029.298-.041.245-.024.408.167.359.404-.024.118-.032.241-.057.359-.017.09-.057.171-.078.261-.016.049-.041.122-.016.155.147.196.306.379.453.571.082.106.155.224.212.343.057.126.102.261.139.396.028.098.025.208.041.31.016.073.033.155.065.22.057.102.086.355.004.424-.221.188-.277.453-.339.706-.065.253-.081.502.102.743.327.416.449.914.51,1.432.025.204.025.432.192.579.151.127.208.29.282.457.057.127.118.253.184.375.066.118.102.233-.029.322.021.047.042.087.063.13.479.029.954.073,1.441.073.09,0,.177-.013.267-.014.101-.053.216-.08.303-.149.265-.2.465-.461.633-.751.057-.102.143-.188.22-.277.155-.159.2-.384.155-.563-.041-.159.02-.176.114-.22.078-.037.159-.057.229-.102.069-.045.163-.11.172-.171.02-.249.057-.51-.082-.743-.073-.118-.053-.196.057-.273.098-.073.188-.155.282-.237.073-.065.135-.167.22-.196.216-.074.412-.167.522-.367.053-.094.098-.22.082-.322-.041-.216-.061-.424.008-.641.02-.061-.004-.159-.049-.208-.147-.159-.224-.326-.167-.547.012-.049.012-.135-.016-.155-.115-.094-.09-.2-.045-.31.041-.094.098-.18.131-.278.11-.359.432-.543.661-.8.171-.196.408-.335.608-.506.326-.29.6-.62.747-1.04.016-.045.045-.09.078-.131.151-.2.216-.424.224-.673.004-.143-.061-.131-.155-.09-.077.033-.155.053-.236.073-.175.045-.347.11-.526.122-.139.012-.27.024-.4.082-.025.008-.082-.029-.118-.057-.086-.065-.163-.139-.245-.208.11-.077.11-.147.004-.249-.094-.094-.184-.196-.282-.286-.065-.057-.135-.118-.216-.151-.159-.061-.265-.151-.302-.331-.029-.122-.07-.281-.155-.347-.192-.135-.204-.31-.224-.514-.012-.139-.082-.282-.155-.404-.074-.118-.278-.171-.163-.371,0-.008-.016-.025-.029-.037-.077-.127-.163-.249-.237-.379-.139-.237-.163-.53-.363-.735-.037-.037-.033-.114-.049-.175.094.098.143.212.212.314.037.057.102.094.155.139.032-.061.069-.122.086-.155.041.045.106.098.143.167.139.232.265.469.396.706.016.029.032.065.061.077.204.106.269.294.294.502.02.167.041.318.22.416.086.045.135.159.196.249.057.082.118.167.163.261.069.131.147.261.184.4.057.192.074.392.114.584.008.037.057.098.082.094.114-.008.233-.037.343-.065.049-.008.094-.045.139-.061.106-.033.221-.053.322-.094.139-.057.273-.135.412-.192.143-.057.298-.098.441-.151.049-.02.086-.065.126-.102.061-.057.114-.131.184-.167.167-.086.4-.029.506-.241.008-.016.053-.008.074-.021.118-.09.237-.176.347-.273.02-.024-.008-.094.008-.135.021-.057.049-.135.098-.155.167-.082.237-.233.306-.383.008-.021-.004-.065-.02-.082-.139-.139-.269-.286-.474-.335-.139-.037-.208-.151-.212-.294-.004-.061.004-.122.008-.22-.147.155-.27.29-.396.42-.029.029-.065.073-.102.078-.126.016-.257.033-.384.02-.045-.004-.098-.082-.114-.135-.016-.065.008-.135.004-.204-.004-.041-.025-.086-.041-.127-.012,0-.029,0-.041.004-.033.073-.066.147-.098.224-.053-.082-.061-.167-.086-.253-.016-.049-.045-.102-.078-.147-.085-.106-.188-.2-.261-.314-.147-.229-.139-.257.029-.453.016-.016.029-.037.029-.041.098.045.208.057.261.122.094.106.155.241.233.363.025.037.049.082.082.106.126.09.257.167.388.249.094.057.445.053.514-.004.114-.098.175-.094.204.041.045.188.167.224.327.237.11.008.216.033.327.049.118.02.237.053.351.049.29-.008.575-.033.861-.049.033-.004.074.012.098.033.131.135.265.269.388.416.082.102.175.118.29.09l.073-.012c.004.016.012.033.016.049-.09.037-.183.074-.335.135.094.074.172.118.237.18.2.188.388.139.461-.122.012-.041.049-.073.086-.127.004.114.008.188.013.261.008.086.02.167.024.249.017.318.049.629.184.922.204.449.4.898.604,1.342.033.078.074.147.126.212.074.102.147.086.208-.025.029-.053.082-.094.122-.139.02-.02.041-.041.057-.065.049-.069.098-.139.167-.237-.037-.237.151-.498.065-.783-.016-.049-.02-.106-.004-.155.016-.045.057-.086.098-.114.114-.082.241-.143.347-.228.257-.208.502-.428.751-.645.074-.065.204-.131.208-.196,0-.18.131-.2.228-.257.155.127.298-.02.441-.024.057,0,.114-.106.184-.184.11-.012.151.086.196.2.053.139.106.306.212.388.139.106.208.249.265.384.057.139.025.31.033.49.147.098.38.012.469-.2.208.037.216.196.229.363.004.09.02.192.061.269.123.233.143.465.098.714-.029.155-.037.314-.053.445.065.053.114.086.159.127.167.167.269.359.294.604.037.347.306.526.579.685.041.024.114.004.172.008-.008-.057-.008-.118-.025-.171-.037-.11-.102-.216-.11-.331-.016-.253-.18-.543-.421-.604-.155-.037-.192-.131-.241-.249-.041-.106-.037-.253-.221-.257.004-.09-.004-.167.012-.241.041-.188.094-.371.147-.555.008-.028.053-.069.078-.069.037.004.078.033.102.065.016.029.012.077.021.127.159-.029.294.016.355.147.082.163.175.278.367.302.057.008.123.053.086.151-.025.065-.004.143-.004.216.016.008.028.012.045.021.069-.074.135-.147.208-.212.086-.073.131-.171.274-.2.18-.041.391-.118.359-.388-.029-.204-.045-.412-.082-.612-.016-.069-.082-.127-.135-.184-.159-.175-.326-.339-.482-.514-.024-.033-.024-.114-.004-.163.078-.224.228-.4.461-.469.098-.029.212-.004.281-.004.057.106.102.188.147.269.012-.008.024-.016.037-.024q-.016-.212.204-.265c.057-.012.114-.024.167-.037.082-.02.175-.012.188-.127.057.016.102-.122.175-.02.008.012.045.012.065.008.102-.029.208-.053.306-.086.069-.029.143-.065.2-.11.114-.09.212-.196.327-.282.151-.114.31-.22.298-.441,0-.012.004-.033.012-.041.237-.204.392-.457.453-.775-.074-.033-.143-.061-.221-.094.074-.045.143-.09.221-.135-.033-.041-.057-.073-.078-.106.029-.033.053-.061.065-.077-.077-.114-.159-.212-.212-.322-.086-.167-.098-.38-.335-.445.057-.082.094-.143.143-.196.053-.057.159-.114.171-.143.045-.143.188-.11.265-.184.033-.033.082-.045.126-.069-.008-.012-.016-.029-.024-.045-.045-.004-.102.004-.135-.016-.167-.106-.306-.074-.445.049-.02.02-.102.004-.135-.02-.073-.065-.147-.139-.204-.216-.037-.045-.069-.114-.057-.155.012-.041.086-.065.13-.094.057-.029.127-.045.176-.086.139-.122.261-.257.404-.375.029-.029.126-.029.143-.004.024.041.028.114.008.159-.025.065-.082.118-.135.184.123.069.061.139-.008.212.118-.057.216-.127.318-.184.077-.041.163-.098.241-.094.098,0,.192.057.306.098-.041.118-.082.237-.122.351.032.033.061.069.09.102.192-.09.261-.045.29.176-.041.024-.078.049-.131.077.265.175.004.384.066.596.143-.057.294-.106.437-.171.208-.098.232-.171.204-.4-.029-.241-.155-.428-.323-.588-.135-.131-.118-.208.033-.298.155-.094.359-.159.343-.408,0-.033.041-.069.069-.102.118-.127.245-.253.368-.384.057.041.114.11.183.135.225.078.38-.073.494-.216.194-.248.401-.489.568-.757.207-.806.371-1.627.494-2.464-.007-.012-.019-.022-.026-.035-.074-.135-.176-.143-.302-.114-.004.065-.008.122-.017.18-.077.016-.151.033-.216.049-.016-.069-.029-.139-.049-.224-.037.065-.061.102-.086.143-.008-.004-.016-.008-.029-.008-.004-.082-.008-.163-.012-.233-.11-.02-.208-.041-.318-.061.024-.053.024-.069.036-.082.323-.335.649-.669.975-1.004.037-.041.061-.098.098-.139.048-.051.092-.108.137-.163.045-.602.091-1.203.091-1.816,0-1.599-.164-3.158-.463-4.67Z" fill="#f3f3f3"/>
        </g>
      </g>
      <rect y="15.635" width="48" height="16.73" rx="3" ry="3" fill="#415a6b"/>
      <g>
        <path d="M9.465,27.902h-2.249l-2.654-7.804h2.248l1.524,4.715,1.523-4.715h2.104l1.523,4.715,1.523-4.715h2.263l-2.655,7.804h-2.263l-1.435-4.25-1.451,4.25Z" fill="#fff"/>
        <path d="M22.55,27.902h-2.249l-2.654-7.804h2.248l1.524,4.715,1.523-4.715h2.104l1.523,4.715,1.523-4.715h2.263l-2.655,7.804h-2.263l-1.435-4.25-1.451,4.25Z" fill="#fff"/>
        <path d="M35.633,27.902h-2.249l-2.654-7.804h2.248l1.524,4.715,1.523-4.715h2.104l1.523,4.715,1.523-4.715h2.263l-2.655,7.804h-2.263l-1.435-4.25-1.451,4.25Z" fill="#fff"/>
      </g>
    </g>
  </g>
</svg>