<?xml version="1.0" encoding="UTF-8"?>
<svg id="Layer_2" data-name="Layer 2" xmlns="http://www.w3.org/2000/svg" viewBox="0 0 48 42.246">
  <g id="Icon">
    <g>
      <rect width="48" height="42.246" rx="3" ry="3" fill="#e8eae9"/>
      <path d="M6.063,30.226c-2.75-8.266-2.75-16.533,0-24.799,11.958-1.901,23.916-1.901,35.874,0,2.751,8.266,2.751,16.533,0,24.799-11.958,1.901-23.916,1.901-35.874,0Z" fill="#f3705a"/>
      <path d="M28.641,16.959l-8.03-5.803c-.707-.511-1.695-.006-1.695.867v11.605c0,.872.988,1.378,1.695.867l8.03-5.803c.591-.427.591-1.306,0-1.733Z" fill="#fff"/>
      <path d="M42.484,38.465H5.516c-.837,0-1.516-.679-1.516-1.516h0c0-.837.679-1.516,1.516-1.516h36.967c.837,0,1.516.679,1.516,1.516h0c0,.837-.679,1.516-1.516,1.516Z" fill="#fff"/>
      <path d="M14.31,35.433H5.516c-.837,0-1.516.679-1.516,1.516s.679,1.516,1.516,1.516h8.794v-3.032Z" fill="#415a6b"/>
      <path d="M17.311,36.949c0,1.658-1.344,3.001-3.001,3.001s-3.001-1.344-3.001-3.001,1.344-3.001,3.001-3.001,3.001,1.344,3.001,3.001Z" fill="#8ad7f8"/>
      <path d="M15.8,36.949c0,.823-.667,1.49-1.49,1.49s-1.49-.667-1.49-1.49.667-1.49,1.49-1.49,1.49.667,1.49,1.49Z" fill="#55c0eb"/>
    </g>
  </g>
</svg>