<?xml version='1.0' encoding='utf-8'?>
<svg xmlns="http://www.w3.org/2000/svg" id="Layer_2" data-name="Layer 2" viewBox="0 0 18.008 19.92">
  <g id="Layer_1-2" data-name="Layer 1">
    <path d="M9.14,4.98c.125,0,.5-.374.5-.498,0-.249-.375-.622-.5-.622-.375,0-.749.373-.749.622,0,.125.375.498.749.498h0ZM9.14,14.691c-.375,0-.749.125-.749.498s.375.498.749.498c.125,0,.5-.125.5-.498s-.375-.498-.5-.498h0ZM14.011,9.337c-.25,0-.375.125-.375.498s.125.498.375.498c.375,0,.5-.125.5-.498s-.125-.498-.5-.498h0ZM3.894,9.337c-.125,0-.375.125-.375.498s.25.498.375.498c.375,0,.624-.125.624-.498s-.25-.498-.624-.498h0ZM12.512,5.478c-.125,0-.5.249-.5.498,0,.374.375.498.5.498.375,0,.749-.125.749-.498,0-.249-.375-.498-.749-.498h0ZM5.518,13.073c-.375,0-.5.249-.5.623,0,.249.125.498.5.498.25,0,.375-.249.375-.498,0-.374-.125-.623-.375-.623h0ZM12.512,13.073c-.125,0-.5.249-.5.623,0,.249.375.498.5.498.375,0,.749-.249.749-.498,0-.374-.375-.623-.749-.623h0ZM5.768,6.35c.125-.125.125-.498,0-.623-.125-.249-.5-.249-.625,0-.25.125-.25.498,0,.623.125.373.5.373.625,0h0ZM.272,18.177c-.5.498-.25,1.245.25,1.618.25.125.375.125.624.125s.749-.125.874-.498l1.249-2.117c-.5-.498-.874-.996-1.374-1.618l-1.624,2.49H.272ZM17.883,18.177l-1.624-2.49c-.5.623-.874,1.121-1.499,1.618l1.249,2.117c.25.373.625.498.874.498.125,0,.5,0,.624-.125.5-.373.625-1.12.375-1.618h0ZM.522,6.723C1.396,3.86,3.645,1.743,6.267.747c-.624-.374-1.249-.747-1.998-.747-.625,0-1.249.249-1.749.498-.25-.125-.624-.249-.874-.249C.772.249.147.872.147,1.743c0,.249.125.623.375.996C.147,3.237.023,3.86.023,4.731c0,.623.125,1.494.5,1.992h0ZM15.385,2.988c.874.872,1.499,1.992,1.998,3.113.125-.498.375-.996.375-1.494,0-.747-.25-1.494-.5-1.867.125-.374.25-.747.25-.996,0-.871-.624-1.494-1.374-1.494-.5,0-.749.125-.999.249-.625-.249-.999-.498-1.624-.498-.874,0-1.499.374-2.123.498,1.249.498,2.498,1.245,3.497,1.992.125.249.25.374.5.498h0ZM17.258,9.835C17.258,4.98,13.636.996,9.14.996S.772,4.98.772,9.835s3.872,8.84,8.368,8.84,8.118-3.984,8.118-8.84h0ZM9.14,16.31c-3.497,0-6.12-2.739-6.12-6.474,0-3.486,2.623-6.474,6.12-6.474,3.247,0,6.12,2.988,6.12,6.474,0,3.735-2.873,6.474-6.12,6.474h0ZM12.637,9.213h-2.248c-.125-.249-.375-.498-.624-.498v-2.241c0-.249-.375-.623-.625-.623-.5,0-.874.374-.874.623v2.241c-.375.125-.625.622-.625,1.12,0,.872.625,1.494,1.499,1.494.5,0,.749-.374,1.124-.623h2.373c.25,0,.624-.374.624-.747,0-.498-.375-.747-.624-.747h0Z" fill="#D6E101" fill-rule="evenodd" />
  </g>
</svg>