<?xml version="1.0" encoding="UTF-8"?>
<svg id="Layer_2" data-name="Layer 2" xmlns="http://www.w3.org/2000/svg" viewBox="0 0 17.28 20.04">
  <g id="Layer_1-2" data-name="Layer 1">
    <path d="M11.896,15.281h-2.755q-.25,0-.25.376v2.254q0,.25.25.25h2.755s.25,0,.25-.25v-2.254c0-.376-.25-.376-.25-.376h0ZM11.395,17.66h-2.003v-1.753h2.003v1.753h0ZM7.889,15.281h-2.504q-.25,0-.25.376v2.254q0,.25.25.25h2.504q.25,0,.25-.25v-2.254q0-.376-.25-.376h0ZM7.638,17.66h-1.878v-1.753h1.878v1.753h0ZM7.889,11.147h-2.504c-.25,0-.25.25-.25.25v2.756q0,.25.25.25h2.504q.25,0,.25-.25v-2.756s0-.25-.25-.25h0ZM7.638,13.903h-1.878v-2.004h1.878v2.004h0ZM4.007,15.281H1.377s-.376,0-.376.376v2.254c0,.25.376.25.376.25h2.63q.25,0,.25-.25v-2.254q0-.376-.25-.376h0ZM3.757,17.66h-1.878v-1.753h1.878v1.753h0ZM15.527,8.642h-2.63s-.25,0-.25.25v1.378l.25.376h2.63c.376,0,.376-.376.376-.376v-1.378q0-.25-.376-.25h0ZM15.277,10.02h-2.129v-.751h2.129v.751h0ZM9.141,11.147c-.25,0-.25.25-.25.25v2.756q0,.25.25.25h2.755s.25,0,.25-.25v-2.756l-.25-.25h-2.755ZM11.395,13.903h-2.003v-2.004h2.003v2.004h0ZM4.007,11.147H1.377l-.376.25v2.756c0,.25.376.25.376.25h2.63q.25,0,.25-.25v-2.756s0-.25-.25-.25h0ZM3.757,13.903h-1.878v-2.004h1.878v2.004h0ZM11.896,8.642h-2.755q-.25,0-.25.25v1.378s0,.376.25.376h2.755l.25-.376v-1.378c0-.25-.25-.25-.25-.25h0ZM11.395,10.02h-2.003v-.751h2.003v.751h0ZM15.652,0H1.377C.626,0,0,.877,0,1.628v16.784c0,.877.626,1.628,1.377,1.628h14.275c.877,0,1.628-.751,1.628-1.628V1.628c0-.751-.751-1.628-1.628-1.628h0ZM16.529,18.412c0,.626-.376.877-.877.877H1.377c-.501,0-.751-.25-.751-.877V1.628c0-.501.25-1.002.751-1.002h14.275c.501,0,.877.501.877,1.002v16.784h0ZM15.527,11.147h-2.63l-.25.25v6.513c0,.25.25.25.25.25h2.63q.376,0,.376-.25v-3.757q0-.25-.376-.25-.25,0-.25.25v3.507h-2.129v-5.761h2.129v.877q0,.25.25.25.376,0,.376-.25v-1.378s0-.25-.376-.25h0ZM15.527,1.628H1.377s-.376.25-.376.626v5.135l.376.25h2.63c.25,0,.25-.25.25-.25q0-.25-.25-.25H1.878V2.505h13.398v4.634H5.384q-.25,0-.25.25s0,.25.25.25h10.143c.376,0,.376-.25.376-.25V2.254c0-.376,0-.626-.376-.626h0ZM14.4,3.632q.25,0,.25-.376s0-.25-.25-.25h-1.503l-.25.25c0,.376.25.376.25.376h1.503ZM12.897,6.388h1.503c.25,0,.25-.25.25-.25,0-.376,0-.626-.25-.626h-1.503s-.25.25-.25.626l.25.25h0ZM12.647,5.26l.25.25c.376,0,.626-.25.626-.25v-1.127s-.25-.25-.626-.25l-.25.25v1.127h0Z" fill="#282828" fill-rule="evenodd"/>
  </g>
</svg>