<?xml version="1.0" encoding="UTF-8"?>
<svg id="Layer_2" data-name="Layer 2" xmlns="http://www.w3.org/2000/svg" viewBox="0 0 18.72 20.04">
  <g id="Layer_1-2" data-name="Layer 1">
    <path d="M15.101,10.396c-.25,0-.624-.25-.998-.25h-.25c-2.246.25-4.118,2.004-4.243,4.384v1.628c.499,2.129,2.371,3.883,4.493,3.883,2.496,0,4.618-2.38,4.618-5.01,0-2.129-1.498-4.133-3.619-4.634h0ZM14.102,18.287c-1.622,0-2.995-1.503-2.995-3.257,0-1.628,1.373-3.257,2.995-3.257,1.747,0,3.12,1.628,3.12,3.257,0,1.753-1.373,3.257-3.12,3.257h0ZM15.85,13.652l-2.122,2.38-1.123-1.252-.624.877,1.747,2.004,2.995-3.256-.874-.751h0ZM3.245,3.507h.499c.374,0,.499-.125.499-.501V.501c0-.376-.125-.501-.499-.501h-.499c-.125,0-.499.125-.499.501v2.505c0,.376.374.501.499.501h0ZM11.357,3.507h.499c.25,0,.499-.125.499-.501V.501c0-.376-.25-.501-.499-.501h-.499c-.25,0-.624.125-.624.501v2.505c0,.376.374.501.624.501h0ZM1.248,13.778v-7.64h12.605v2.881h.25c.374,0,.749.25.998.25V3.131c0-.752-.499-1.253-1.123-1.253h-.998v1.253c0,.751-.499,1.252-1.123,1.252h-.499c-.749,0-1.248-.501-1.248-1.252v-1.253h-5.117v1.253c0,.751-.499,1.252-1.123,1.252h-.499c-.749,0-1.248-.501-1.248-1.252v-1.253h-.998c-.624,0-1.123.501-1.123,1.253v11.899c0,.626.499,1.252,1.123,1.252h7.238v-1.628H2.122c-.499,0-.874-.376-.874-.877h0ZM4.118,7.139c-.624,0-1.123.626-1.123,1.378s.499,1.252,1.123,1.252,1.123-.501,1.123-1.252-.499-1.378-1.123-1.378h0ZM7.613,7.139c-.624,0-1.123.626-1.123,1.378s.499,1.252,1.123,1.252c.499,0,1.123-.501,1.123-1.252s-.624-1.378-1.123-1.378h0ZM9.859,8.517c0,.751.624,1.252,1.123,1.252.624,0,1.123-.501,1.123-1.252s-.499-1.378-1.123-1.378c-.499,0-1.123.626-1.123,1.378h0ZM7.613,10.897c-.624,0-1.123.626-1.123,1.252,0,.751.499,1.253,1.123,1.253.499,0,1.123-.501,1.123-1.253,0-.626-.624-1.252-1.123-1.252h0ZM4.118,10.897c-.624,0-1.123.626-1.123,1.252,0,.751.499,1.253,1.123,1.253s1.123-.501,1.123-1.253c0-.626-.499-1.252-1.123-1.252h0Z" fill="#282828" fill-rule="evenodd"/>
  </g>
</svg>