<?xml version="1.0" encoding="UTF-8"?>
<svg id="Layer_2" data-name="Layer 2" xmlns="http://www.w3.org/2000/svg" viewBox="0 0 18.6 20.04">
  <g id="Layer_1-2" data-name="Layer 1">
    <path d="M15.23,10.521c-.375-.125-.874-.125-1.124-.125h-.25c-2.497,0-4.369,2.129-4.369,4.634v.25c0,.501,0,1.002.25,1.378.624,2.004,2.247,3.382,4.369,3.382,2.497,0,4.494-2.129,4.494-4.76,0-2.255-1.373-4.259-3.37-4.76h0ZM14.106,18.412c-1.748,0-2.996-1.378-2.996-3.131,0-1.879,1.248-3.257,2.996-3.257,1.498,0,2.996,1.378,2.996,3.257,0,1.753-1.498,3.131-2.996,3.131h0ZM14.605,13.026h-1.248v1.628h-1.498v1.127h1.498v1.753h1.248v-1.753h1.498v-1.127h-1.498v-1.628h0ZM3.495,3.632h.25c.374,0,.749-.125.749-.501V.626c0-.25-.375-.626-.749-.626h-.25c-.375,0-.624.376-.624.626v2.505c0,.376.25.501.624.501h0ZM11.485,3.632h.375c.375,0,.499-.125.499-.501V.626c0-.25-.125-.626-.499-.626h-.375c-.375,0-.499.376-.499.626v2.505c0,.376.125.501.499.501h0ZM1.248,13.652v-7.515h12.608v3.006s.25-.125.375-.125c.25,0,.624.125.874.125V3.006c0-.626-.374-1.127-.999-1.127h-.999v1.253c0,.751-.624,1.378-1.248,1.378h-.499c-.624,0-1.248-.626-1.248-1.378v-1.253h-5.118v1.253c0,.751-.499,1.378-1.248,1.378h-.25c-.874,0-1.248-.626-1.248-1.378v-1.253h-.999c-.749,0-1.248.501-1.248,1.127v12.024c0,.751.499,1.252,1.248,1.252h6.991v-1.503H2.247c-.499,0-.999-.626-.999-1.127h0ZM3.995,7.39c-.499,0-.999.501-.999,1.127s.499,1.378.999,1.378c.624,0,1.248-.751,1.248-1.378s-.624-1.127-1.248-1.127h0ZM7.615,7.39c-.624,0-1.123.501-1.123,1.127s.499,1.378,1.123,1.378,1.124-.751,1.124-1.378-.499-1.127-1.124-1.127h0ZM9.987,8.517c0,.626.499,1.378,1.123,1.378s.999-.751.999-1.378-.374-1.127-.999-1.127-1.123.501-1.123,1.127h0ZM7.615,11.022c-.624,0-1.123.751-1.123,1.378s.499,1.127,1.123,1.127,1.124-.501,1.124-1.127-.499-1.378-1.124-1.378h0ZM3.995,11.022c-.499,0-.999.751-.999,1.378s.499,1.127.999,1.127c.624,0,1.248-.501,1.248-1.127s-.624-1.378-1.248-1.378h0Z" fill="#282828" fill-rule="evenodd"/>
  </g>
</svg>