<?xml version="1.0" encoding="UTF-8"?>
<svg id="Layer_2" data-name="Layer 2" xmlns="http://www.w3.org/2000/svg" viewBox="0 0 16.08 20.04">
  <g id="Layer_1-2" data-name="Layer 1">
    <path d="M3.711,7.765c.247.251.371.501.371.752.866,2.254,2.474,4.008,4.329,4.008s3.587-1.753,4.329-4.008c.124-.25.124-.501.247-.877,0,0,0-.25.247-.25.124-.501.124-1.127-.371-1.378v-.125c0-2.755-.371-5.887-4.453-5.887C4.206,0,3.958,2.881,3.958,6.012h0c-.371.376-.495.877-.247,1.378v.376h0ZM12.493,7.139v.25c-.124.25-.124.376-.247.626,0,0-.247,0-.247.125-.495,2.129-1.855,3.632-3.587,3.632-1.608,0-3.216-1.503-3.711-3.632l-.124-.125c0-.251-.124-.376-.124-.626-.247,0-.247-.125-.247-.125-.124-.376-.124-.751,0-.751h0c.247,0,.247-.125.247-.125l.742.125s.247,0,.247-.125l.371-1.002c.495,0,2.474.501,3.958.501.495,0,.99,0,1.237-.25l.247.877h.247l.866-.125.124.125h0c.247,0,.247.376,0,.626h0ZM16.08,19.414c0,.376-.124.376-.247.376l-14.719.25c-.124,0-.247-.25-.247-.376,0-2.129.247-4.008.99-5.386.124.25.247.501.495.626h0v.25s.618.501,1.608.501c.742,0,1.608-.376,2.35-1.378.247-.25.247-.376.247-.626,0-.125,0-.501-.247-.626.742.125,1.361.376,2.103.376,1.484,0,2.969-.501,3.834-1.628.124-.125.247-.125.495,0,2.103,1.378,3.34,4.259,3.34,7.64h0ZM2.845,14.529C0,11.272,0,7.765,0,7.765c.247-1.879,2.35-1.879,2.598-1.879.371.376.495,1.879.495,2.129s-1.113.501-1.113.501c.495,1.753,1.732,4.133,1.732,4.133.495-.501.99-.626.99-.626,1.113.501,1.113,1.628,1.113,1.628-1.732,2.38-2.598,1.628-2.969.877h0Z" fill="#282828" fill-rule="evenodd"/>
  </g>
</svg>