<?xml version="1.0" encoding="UTF-8"?>
<svg id="Layer_2" data-name="Layer 2" xmlns="http://www.w3.org/2000/svg" viewBox="0 0 20.04 17.16">
  <g id="Layer_1-2" data-name="Layer 1">
    <path d="M19.163,2.004H6.513V.501c0-.376-.25-.501-.501-.501h-3.507c-.376,0-.501.125-.501.501v1.503h-1.002c-.501,0-1.002.501-1.002,1.002v13.277c0,.501.501.877,1.002.877h18.161c.626,0,.877-.376.877-.877V3.006c0-.501-.251-1.002-.877-1.002h0ZM2.881.877h2.756v1.127h-2.756V.877h0ZM18.286,15.281H1.754V3.883h16.533v11.398h0ZM10.145,13.277c1.879,0,3.507-1.754,3.507-3.883s-1.628-3.758-3.507-3.758c-2.129,0-3.632,1.628-3.632,3.758s1.503,3.883,3.632,3.883h0ZM10.145,7.515c1.002,0,1.753.751,1.753,1.879,0,1.002-.751,1.879-1.753,1.879-1.127,0-1.879-.877-1.879-1.879,0-1.127.751-1.879,1.879-1.879h0ZM14.78,7.766h2.254c.376,0,.501-.125.501-.501v-2.004c0-.376-.125-.501-.501-.501h-2.254c-.125,0-.501.125-.501.501v2.004c0,.376.376.501.501.501h0ZM15.28,5.762h1.253v1.253h-1.253v-1.253h0Z" fill="#282828" fill-rule="evenodd"/>
  </g>
</svg>