<?xml version="1.0" encoding="UTF-8"?>
<svg id="Layer_2" data-name="Layer 2" xmlns="http://www.w3.org/2000/svg" viewBox="0 0 19.92 16.2">
  <g id="Layer_1-2" data-name="Layer 1">
    <path d="M18.426,5.777c.124-.377.124-.879.124-1.256,0-2.512-1.992-4.521-4.357-4.521-2.49,0-4.482,2.009-4.482,4.395-.498-.377-.996-.628-1.618-.628-1.121,0-2.117.754-2.49,1.758.374,0,.622-.126.996-.126,1.494,0,2.863.628,3.859,1.633.622.628.996,1.256,1.245,1.884h6.723c.871,0,1.494-.628,1.494-1.507s-.622-1.633-1.494-1.633h0ZM13.446,10.298c-.622,0-1.245.251-1.867.628,0-.628-.125-1.381-.373-2.009-.747-1.758-2.615-2.888-4.607-2.888-.374,0-.747,0-1.12.126-2.241.377-3.984,2.511-3.984,4.898,0,.502.125,1.005.249,1.507-.996,0-1.743.879-1.743,1.758,0,1.005.872,1.884,1.867,1.884h11.578c1.619,0,2.988-1.381,2.988-3.014s-1.37-2.888-2.988-2.888h0Z" fill="#282828" fill-rule="evenodd"/>
  </g>
</svg>