<?xml version="1.0" encoding="UTF-8"?>
<svg id="Layer_2" data-name="Layer 2" xmlns="http://www.w3.org/2000/svg" viewBox="0 0 18.595 19.972">
  <g id="Layer_1-2" data-name="Layer 1">
    <path d="M18.221.563c-.624-.751-1.622-.751-2.371,0l-3.37,3.882s-1.498-.501-3.12-1.002c.374-.876,0-1.377-.25-1.753-.749-.375-1.373-.125-1.872.877-1.248-.376-2.371-.626-2.746-.626-.998,0-2.746,2.003-2.621,2.379.25.501,7.363,3.631,7.363,3.631l-4.493,5.009c-.25.125-.374.376-.374.376,0,0-2.496-1.127-3.12-1.377-.499-.375-1.248,1.377-1.248,1.377l3.37,2.003q0,.25-.125.25c-.374.25-.499.751-.374,1.002.374.125.874.125,1.123-.375h0l.374.125,2.246,3.631s1.622-.25,1.123-1.127c-.25-1.002-1.622-3.882-1.622-3.882l.25-.125,4.867-5.009.125.125s3.245,7.513,3.744,8.014c.499.501,2.496-1.377,2.496-2.63-.25-.375-.499-1.502-.998-3.13.125,0,.25,0,.25-.125.998-.876.998-1.502.749-2.129-.374-.501-.998-.626-1.872-.125-.499-1.878-1.123-3.506-1.123-3.506h0l3.619-3.506c.499-.751.499-1.628,0-2.254h0Z" fill="#282828" fill-rule="evenodd"/>
  </g>
</svg>