<?xml version="1.0" encoding="UTF-8"?>
<svg id="Layer_2" data-name="Layer 2" xmlns="http://www.w3.org/2000/svg" viewBox="0 0 20.04 15.72">
  <g id="Layer_1-2" data-name="Layer 1">
    <path d="M19.038,7.486h-2.254V1.622c0-.873-.751-1.622-1.628-1.622H5.135c-1.002,0-1.503.749-1.879,1.622v2.121h-1.628c-.751,0-1.628.499-1.628,1.372v8.983c0,.749.877,1.622,1.628,1.622h5.135c.877,0,1.378-.624,1.628-1.123h5.762q.25,0,.25-.25v-.873c0-.499-.501-.749-1.127-.749h-.751v-1.373h2.63v3.244c0,.499.376,1.123.877,1.123h3.006c.501,0,1.002-.624,1.002-1.123v-5.989c0-.499-.501-1.123-1.002-1.123h0ZM7.64,14.098c0,.499-.251.749-.877.749H1.628c-.501,0-.751-.25-.751-.749h6.764ZM7.64,13.225H.877v-7.361h6.764v7.361h0ZM7.64,5.365H.877v-.25c0-.499.251-.873.751-.873h5.135c.626,0,.877.374.877.873v.25h0ZM13.276,13.225c.376,0,.626.25.626.25v.624h-5.511v-.873h4.885ZM8.392,12.726v-1.373h3.257v1.373h-3.257ZM15.155,10.48h-6.763v-.749h6.763v.749h0ZM15.155,8.609v.25h-6.763v-3.743c0-.873-.751-1.372-1.628-1.372h-2.63V1.622c0-.624.501-.873,1.002-.873h10.02c.626,0,.877.25.877.873v5.864c-.501,0-.877.624-.877,1.123h0ZM19.289,14.597q0,.25-.251.25h-3.006s-.251,0-.251-.25v-.25h3.507v.25h0ZM19.289,13.474h-3.507v-3.743h3.507v3.743h0ZM19.289,8.858h-3.507v-.25c0-.25.251-.25.251-.25h3.006q.251,0,.251.25v.25h0Z" fill="#282828" fill-rule="evenodd"/>
  </g>
</svg>