<?xml version="1.0" encoding="UTF-8"?>
<svg id="Layer_2" data-name="Layer 2" xmlns="http://www.w3.org/2000/svg" viewBox="0 0 18.375 20.04">
  <g id="Layer_1-2" data-name="Layer 1">
    <path d="M3.997,4.008c.998,0,1.747-.751,1.747-1.879s-.749-2.129-1.747-2.129-1.872,1.002-1.872,2.129.874,1.879,1.872,1.879h0ZM14.73,4.008c1.123,0,1.997-.751,1.997-1.879s-.874-2.129-1.997-2.129-1.997,1.002-1.997,2.129.874,1.879,1.997,1.879h0ZM15.728,4.384c-.125,0-.25-.125-.624-.125l-.374.501-.499-.501c-.25,0-.749.376-.749.376-1.498.877-2.122,2.38-2.87,5.761,0,.125,0,.501.25.626,0,.501,0,1.002-.125,1.127-.25.125-.624-.125-.749-.376-.125-.125-.25-.125-.499-.25.499-.125.874-.626.874-1.378,0-.626-.499-1.127-1.123-1.127h-.125c-.624,0-1.123.501-1.123,1.127,0,.877.374,1.252.874,1.378-.125.125-.374.125-.499.25,0,.25-.499.501-.749.376-.25-.125-.25-.626,0-1.127.125-.125.125-.376.125-.501.25-4.76-2.995-6.262-3.37-6.262l-.374.501-.624-.501C3.124,4.259-.121,5.761.004,10.521c0,.376.25.626.749.626s.749-.25.749-.751c0-.877,0-1.503.125-2.004,0,0,.25-.376.374-.626v1.378c-.374.877-1.248,4.885-1.248,5.511,0,.376.624.501,1.373.751v3.632c0,.501.25,1.002.749,1.002s.874-.501.874-1.002v-3.507h.25v3.507c0,.501.374,1.002.874,1.002.374,0,.749-.501.749-1.002v-3.632c.749-.25,1.373-.376,1.373-.751,0-.626-.874-4.634-1.123-5.511v-1.378c0,.251.25.626.25.626.125.501.125,1.127.125,2.004,0,.25.125.626.374.751-.125.877,0,1.252.499,1.628.125.125.499.125.749.125h.125v6.513c0,.25.374.626.624.626.374,0,.499-.376.499-.626v-3.257h.125v3.257c0,.25.125.626.499.626.25,0,.624-.376.624-.626v-6.513h.125c.25,0,.624,0,.749-.125.499-.376.624-.751.499-1.628q.125,0,.125-.125c.125,0,.125-.125.25-.376.125-1.127.499-1.879.624-2.63v2.505c0,.376,0,.501.125.626v7.891c0,.501.499,1.002.998,1.002.374,0,.874-.501.874-1.002,0,.501.374,1.002.874,1.002.624,0,.874-.501.874-1.002v-7.891c.25-.125.25-.25.25-.626v-2.505s.374.751.125,2.38c0,.25.25.751.749.751s.749-.25.749-.626c.25-3.632-1.373-5.26-2.621-6.137h0ZM9.239,11.773c-.125-.125-.25-.125-.25-.25h.374l-.125.25h0ZM14.73,9.895c-.125,0-.125-.125-.125-.376q0-.125.125-.125c.125,0,.25,0,.25.125,0,.25-.125.376-.25.376h0ZM14.73,9.143c-.125,0-.125-.25-.125-.376,0,0,0-.125.125-.125s.25.125.25.125c0,.125-.125.376-.25.376h0ZM14.73,8.267q-.125,0-.125-.125c0-.125,0-.376.125-.376s.25.251.25.376-.125.125-.25.125h0ZM14.73,7.515l-.374-2.129.374-.376.25.376-.25,2.129h0Z" fill="#282828" fill-rule="evenodd"/>
  </g>
</svg>