<?xml version="1.0" encoding="UTF-8"?>
<svg id="Layer_2" data-name="Layer 2" xmlns="http://www.w3.org/2000/svg" viewBox="0 0 17.4 19.932">
  <g id="Layer_1-2" data-name="Layer 1">
    <path d="M14.646,11.595c0,.249-.25.622-.501.747h.501c-.125,1.12-.501,2.115-1.001,3.111-.626-.124-1.001-.249-1.502-.249.125-.996.125-1.867.125-2.862h.376c-.25-.125-.376-.498-.501-.747-.25-.747-.751-1.244-1.127-1.867.125.373.125.871.125,1.244h-2.504v-2.489h1.252c-.25-.498-.501-.871-.751-1.369-.125.124-.376.124-.501.124v-1.369c0-.125-.125-.374-.125-.622-.25-.622-.25-1.244,0-1.867h-.626C3.63,3.381,0,7.115,0,11.719c0,4.48,3.63,8.213,7.886,8.213,4.381,0,7.886-3.733,7.886-8.213,0-.498,0-1.12-.125-1.742-.376.498-.751.871-1.001,1.618h0ZM4.506,5.497c-.125.498-.125.871-.25,1.493-.376-.125-.751-.125-1.127-.249.501-.498.876-.871,1.377-1.245h0ZM2.378,7.737c.501.125,1.127.249,1.753.374-.125.995-.25,1.866-.25,2.862H1.252c.125-1.12.376-2.24,1.127-3.236h0ZM2.253,15.452c-.626-.996-.876-1.991-1.001-3.111h2.629c0,.871.125,1.867.25,2.738-.626.125-1.252.249-1.878.373h0ZM3.004,16.448c.501,0,.876-.125,1.252-.125.125.498.125.996.25,1.493-.501-.249-1.001-.747-1.502-1.369h0ZM7.386,18.812c-.376,0-1.001-.125-1.502-.249-.125-.747-.376-1.618-.501-2.364.626-.125,1.252-.125,2.003-.125v2.738h0ZM7.386,14.83c-.751,0-1.502.124-2.128.124-.125-.871-.125-1.742-.125-2.613h2.253v2.489h0ZM7.386,10.972h-2.253c0-.871,0-1.867.125-2.738.626.249,1.377.249,2.128.249v2.489h0ZM7.386,7.239c-.751,0-1.377-.124-2.003-.124.125-.871.376-1.618.501-2.24.501-.249,1.127-.249,1.502-.373v2.738h0ZM10.265,18.314c-.626.249-1.127.373-1.627.498v-2.738c.626,0,1.502,0,2.128.125-.125.747-.25,1.493-.501,2.115h0ZM10.891,15.079c-.626-.125-1.502-.249-2.253-.249v-2.489h2.504c0,.871-.125,1.742-.25,2.738h0ZM11.767,17.692c0-.498.125-.871.125-1.369.376,0,.626.125.876.125-.25.498-.626.871-1.001,1.244h0ZM13.019.021c-2.253.374-3.881,2.614-3.505,5.102.376,2.489,2.629,3.111,3.63,6.098.125.124.501.124.626,0,1.001-3.236,3.63-3.858,3.63-6.969C17.4,1.763,15.397-.228,13.019.021h0ZM13.519,6.368c-1.252,0-2.253-.995-2.253-2.115,0-1.244,1.001-2.115,2.253-2.115,1.001,0,2.003.871,2.003,2.115,0,1.12-1.001,2.115-2.003,2.115h0Z" fill="#282828" fill-rule="evenodd"/>
  </g>
</svg>