<?xml version="1.0" encoding="UTF-8"?>
<svg id="Layer_2" data-name="Layer 2" xmlns="http://www.w3.org/2000/svg" viewBox="0 0 14.64 19.92">
  <g id="Layer_1-2" data-name="Layer 1">
    <path d="M9.134,16.061h-3.629c-.501,0-.751.374-.751.623,0,.498.25.871.751.871h3.629c.375,0,.626-.374.626-.871,0-.249-.25-.623-.626-.623h0ZM8.884,18.302h-3.128c-.375,0-.751.249-.751.747s.375.871.751.871h3.128c.25,0,.751-.374.751-.871s-.5-.747-.751-.747h0ZM7.257,2.49c-2.628,0-4.63,2.365-4.63,5.229,0,1.121.375,2.49,1.001,3.611.626,1.369,1.126,2.365,1.126,3.486,0,.125.125.374.375.374h4.505c.125,0,.375-.249.375-.374,0-1.12.375-2.365,1.001-3.486.501-1.121,1.126-2.49,1.126-3.611,0-2.864-2.127-5.229-4.88-5.229h0ZM1.877,5.478h.25c.125,0,.125-.125.125-.125.125-.374.25-.623.626-.996v-.374s0-.124-.125-.124l-1.001-.623h-.25s-.25,0-.25.125l-.626.996c0,.125,0,.374.25.498l1.001.623h0ZM6.882,1.867h1.126q.25-.125.25-.374V.374c0-.249-.25-.374-.375-.374h-1.126c-.125,0-.375.125-.375.374v1.494h.501ZM3.754,2.988h.375c.25-.374.626-.498.876-.623l.25-.249v-.249l-.626-.996c0-.249-.25-.249-.375-.249h-.125l-1.001.747c-.125,0-.125.125-.125.125v.125l.626,1.245c0,.125.125.125.125.125h0ZM12.263,5.354l.25.125h.25l1.001-.623c.125-.125.25-.374.125-.498l-.626-.996q0-.125-.125-.125h-.25l-1.001.623-.25.124q0,.249.25.374c.125.374.25.623.375.996h0ZM9.635,2.365c.375.125.626.249,1.001.623h.125q.125,0,.125-.125l.626-1.245c.125-.125,0-.249,0-.249l-1.126-.747h-.125q-.125,0-.125.249l-.626.996c0,.125-.125.125,0,.249,0,0,0,.249.125.249h0ZM1.752,8.591s.125-.249,0-.249v-1.121c.125-.249,0-.249,0-.374H.375c-.25,0-.375,0-.375.125v1.37c0,.249.125.374.375.374h1.251l.125-.125h0ZM14.39,6.847h-1.627v1.743c.25,0,.25.125.375.125h1.251c.125,0,.25-.125.25-.374v-1.37c0-.125-.125-.125-.25-.125h0ZM12.763,9.96l-.25-.125h-.125c0,.125-.125.125-.125.125-.125.498-.375.872-.501,1.245,0,.125,0,.249.125.498l1.001.498h.125q.25,0,.25-.249l.626-.996v-.125q0-.125-.25-.374l-.876-.498h0ZM2.252,10.209q0-.249-.125-.374-.25,0-.25.125l-1.001.498c0,.249-.25.249-.25.374v.125l.626.996c0,.249.25.249.375.249h.125l1.001-.498c0-.249.125-.373,0-.498-.25-.374-.375-.747-.5-.996h0Z" fill="#282828" fill-rule="evenodd"/>
  </g>
</svg>