<?xml version="1.0" encoding="UTF-8"?>
<svg id="Layer_2" data-name="Layer 2" xmlns="http://www.w3.org/2000/svg" viewBox="0 0 15.12 20.04">
  <g id="Layer_1-2" data-name="Layer 1">
    <path d="M4.124,4.76h3.124c.25,0,.625-.25.625-.501v-.501c0-.125-.375-.25-.625-.25h-3.124c-.25,0-.625.25-.625.626,0,.25.375.626.625.626h0ZM4.124,7.014h6.873c.25,0,.5-.125.5-.626,0-.376-.25-.626-.5-.626h-6.873c-.25,0-.625.25-.625.626,0,.501.375.626.625.626h0ZM4.124,9.519h6.873c.25,0,.5-.25.5-.626s-.25-.626-.5-.626h-6.873c-.25,0-.625.25-.625.626s.375.626.625.626h0ZM7.747,15.406l-.125-.125c-.125,0-.25.125-.25.125-1.375.877-5.123,3.632-5.123,3.632-.125.25-.125.501-.125.626.125.125.375.376.5.376h9.872c.125,0,.5-.25.5-.376s0-.376-.25-.626c0,0-3.624-2.756-4.998-3.632h0ZM14.87,9.77c-.125,0-.25,0-.375.125l-.625.376V2.254c0-1.252-.875-2.254-2.124-2.254H3.499C2.374,0,1.375,1.002,1.375,2.254v8.016l-.625-.376c-.125-.125-.25-.125-.5-.125-.125.125-.25.376-.25.501v8.267c0,.125.125.25.25.501h.5l5.373-4.259c.125,0,.25-.125.25-.376,0-.125-.125-.25-.25-.376l-3.624-2.881V2.254c0-.626.375-1.002,1-1.002h8.247c.5,0,1,.376,1,1.002v8.893l-3.624,2.881c-.125.125-.125.25-.125.376,0,.25,0,.376.125.376l5.373,4.259h.375c.125-.25.25-.376.25-.501v-8.267c0-.125-.125-.376-.25-.501h0Z" fill="#282828" fill-rule="evenodd"/>
  </g>
</svg>