<?xml version="1.0" encoding="UTF-8"?>
<svg id="Layer_2" data-name="Layer 2" xmlns="http://www.w3.org/2000/svg" viewBox="0 0 18.78 20.04">
  <g id="Layer_1-2" data-name="Layer 1">
    <path d="M18.216,17.034l-2.994-3.382c-.125-.125-.25-.125-.374-.125-.25,0-.374.125-.499.376-.499.501-.873.877-1.372,1.252-.125.125-.125.376-.125.501s0,.25.125.501l3.244,3.382c.25.25.499.501.998.501.25,0,.499,0,.749-.25.125-.125.624-.376.749-.751.125-.626.125-1.503-.499-2.004h0ZM15.471,8.141C15.471,3.507,11.978,0,7.736,0,3.369,0,0,3.507,0,8.141s3.369,8.392,7.736,8.392c4.242,0,7.736-3.758,7.736-8.392h0ZM9.108,2.38v-.125c.125,0,.25,0,.25.125h.125s.125,0,.374.251c0,.125-.25.25-.25.501l.25.125c-.374-.376-.624-.501-1.123-.626q.125-.251.374-.251h0ZM6.613,2.38c.25-.125.624-.25.873-.25h.499v.125h.125c-.125,0-.25.125-.374.125v.501c.125.376,0,.501,0,.626h-.25c-.125-.25-.374-.25-.624-.376h-.125c-.125,0-.25-.25-.25-.376,0,0,0-.125.125-.376h0ZM8.484,12.4q0,.125-.25.376v.626c-.125.751-.25.751-.25.751h-.25c-3.119,0-5.739-2.505-5.739-6.012,0-1.002.374-2.129.749-2.881,0,.125.25.376.374.626,0,.125.125.125.125.125l.125.125c.25.25.374.25.499.376,0,0,.125,0,.125.125,0,0,.125.25.125.376q.25,0,.25.125s.125,0,.125.25c0,0,0,.125.125.125.125.125.374.125.499.125.25.125.374.125.624.125q.125.251.25.376c.499.125.749.501,1.248.626h.25l.25.25s0,.25-.25.25v.25c-.125.376,0,.877.374,1.378,0,0,.125.25.25.25,0,.125.125.25.374.501v.751h0ZM9.358,13.903q0,.125-.125.125c.125,0,.125-.125.125-.125,0-.125.25-.376.624-.501.25-.376.624-.626.873-1.002.374-.376.499-.501.624-.751.374-.501.624-1.002.624-1.378,0-.501-.499-.501-.873-.626-.25,0-.374,0-.499-.125,0,0,0-.25-.125-.25q0-.125-.125-.125c-.25-.376-.499-.501-.873-.626h-.25c-.25-.25-.624-.501-.873-.501-.374,0-.499.125-.499.25h-.125c0-.125-.125-.125-.374-.125-.125,0-.25,0-.25-.125q-.125-.251-.125-.376v-.501h-.624s.125-.501.25-.626h.499v.125c.125,0,.125.25.25.25l.25-.25c.125-.125.125-.25.125-.25v-.25c0-.125.125-.125.125-.25l.125-.25c.125-.125.125-.25.374-.376.125-.25.374-.376.749-.376l.125-.125c.499-.25.749-.25.873-.376v-.376c-.125,0-.125-.125-.25-.125v-.501c.125.376.499.501.624.501s.25,0,.25-.125l.125-.25.25-.125s.125,0,.125.125c1.372,1.252,1.996,2.881,1.996,4.634,0,2.63-1.497,4.885-3.993,5.761h0Z" fill="#282828" fill-rule="evenodd"/>
  </g>
</svg>