<?xml version="1.0" encoding="UTF-8"?>
<svg id="Layer_2" data-name="Layer 2" xmlns="http://www.w3.org/2000/svg" viewBox="0 0 18.72 19.92">
  <g id="Layer_1-2" data-name="Layer 1">
    <path d="M12.854,0c-3.245,0-5.866,2.864-5.866,6.225,0,.871.125,1.618.374,2.241L.25,16.061c-.25.249-.25.498-.25.871v1.743c0,.747.499,1.245,1.123,1.245h1.747c.25,0,.499-.125.749-.249l.749-.996h1.498c.624,0,1.123-.498,1.123-1.245v-1.245h1.123c.749,0,1.248-.498,1.248-1.245v-1.369l1.248-1.494c.749.249,1.498.374,2.246.374,3.245,0,5.866-2.739,5.866-6.225,0-3.362-2.621-6.225-5.866-6.225h0ZM12.854,11.205c-.874,0-1.747-.249-2.371-.623l-.25.249-.624.747-1.248.996c-.125.374-.25.623-.25.996v1.369h-1.123c-.624,0-1.123.623-1.123,1.245v1.245h-1.498c-.25,0-.624.125-.749.498l-.874.747h-1.622v-1.743l6.739-7.221.998-.996c-.499-.623-.749-1.494-.749-2.49,0-2.739,2.122-4.98,4.742-4.98s4.618,2.241,4.618,4.98c0,2.863-1.997,4.98-4.618,4.98h0ZM16.224,5.229c-.624-.996-1.498-1.743-2.371-2.49-.125-.125-.374-.125-.499-.125-.749.249-1.373.996-1.622,1.743v.125c0,.249,0,.374.125.498.624.996,1.373,1.743,2.246,2.49.125.125.374.125.499.125.874-.249,1.373-.996,1.747-1.743v-.249c0-.125,0-.249-.125-.374h0ZM14.477,7.096c-.874-.747-1.622-1.618-2.246-2.615.25-.622.624-.996,1.248-1.369.874.747,1.747,1.618,2.246,2.49-.125.747-.749,1.12-1.248,1.494h0Z" fill="#282828" fill-rule="evenodd"/>
  </g>
</svg>