<?xml version="1.0" encoding="UTF-8"?>
<svg id="Layer_2" data-name="Layer 2" xmlns="http://www.w3.org/2000/svg" viewBox="0 0 20.04 13.707">
  <g id="Layer_1-2" data-name="Layer 1">
    <path d="M20.04,4.51h-9.143C9.644,1.9,6.763.906,4.133.036c-.751-.249-1.002.87-.376.994,2.255.746,4.634,1.616,5.887,3.48H0v9.197h20.04V4.51h0ZM14.404,5.877h1.753v1.616h-1.753v-1.616h0ZM14.779,8.487v1.74h-1.753v-1.74h1.753ZM11.773,5.877h1.753v1.616h-1.753v-1.616h0ZM12.149,8.487v1.74h-1.753v-1.74h1.753ZM9.143,5.877h1.753v1.616h-1.753v-1.616h0ZM9.519,8.487v1.74h-1.753v-1.74h1.753ZM6.513,5.877h1.753v1.616h-1.753v-1.616h0ZM6.889,8.487v1.74h-1.753v-1.74h1.753ZM3.883,5.877h1.753v1.616h-1.753v-1.616h0ZM1.253,5.877h1.753v1.616h-1.753v-1.616h0ZM2.505,8.487h1.753v1.74h-1.753v-1.74h0ZM16.533,12.962H3.382v-1.74h13.151v1.74h0ZM17.41,10.227h-1.753v-1.74h1.753v1.74h0ZM18.787,7.493h-1.753v-1.616h1.753v1.616h0Z" fill="#282828" fill-rule="evenodd"/>
  </g>
</svg>