<?xml version="1.0" encoding="UTF-8"?>
<svg id="Layer_2" data-name="Layer 2" xmlns="http://www.w3.org/2000/svg" viewBox="0 0 15.164 19.92">
  <g id="Layer_1-2" data-name="Layer 1">
    <path d="M12.742,11.952c-.5,0-.625-.622-.25-.871s.75-.374,1.124-.498c.5-.125.874-.249,1.249-.498.25-.623.375-1.245.25-1.992-.125-1.121-.375-2.241-.375-3.362-1.374.872-2.998,1.245-3.373,2.988-.125.374-.625,1.369-1.249,1.121-.375-.374-.125-.996.125-1.245.5-.747,1.124-1.245,1.124-2.241,0-.747-.5-1.494-.999-2.116-.874-1.121-1.999-1.992-2.748-3.113v-.125.125-.125.125c-.874,1.121-1.999,1.992-2.748,3.113-.5.623-1.124,1.369-.999,2.116,0,.996.625,1.494,1.124,2.241.125.249.375.872,0,1.245-.5.249-.999-.747-1.124-1.121-.5-1.743-1.999-2.116-3.373-2.988-.125,1.121-.375,2.241-.5,3.362,0,.747.125,1.369.25,1.992.375.249.874.374,1.249.498.375.125.874.249,1.124.498.375.249.375.871-.25.871-.75-.125-1.499-.871-2.373-.871.5,2.116,1.499,3.984,3.498,4.855.75.249.999.125,1.624-.374.5-.374.874-.747,1.499-.996.25,0,.625.125.625-.125v-.747c.125-2.49.25-3.984.375-6.474,0,2.49.25,3.984.375,6.474v.747c0,.249.25.125.5.125.625.249.999.623,1.499.996.625.498.999.623,1.749.374,1.999-.872,2.998-2.739,3.373-4.855-.874,0-1.499.747-2.373.871h0ZM6.995,19.92h1.124v-4.98h-1.124v4.98h0Z" fill="#282828" fill-rule="evenodd"/>
  </g>
</svg>