<?xml version="1.0" encoding="UTF-8"?>
<svg id="Layer_2" data-name="Layer 2" xmlns="http://www.w3.org/2000/svg" viewBox="0 0 17.795 19.92">
  <g id="Layer_1-2" data-name="Layer 1">
    <path d="M8.898,0c-1.499.623-2.499,2.864-2.499,4.482,0,1.494.999,3.735,2.499,4.358,1.624-.623,2.499-2.864,2.499-4.358,0-1.618-.875-3.859-2.499-4.482h0ZM10.147,10.956c1.249,1.12,3.748.871,5.122,0,1.249-.747,2.749-2.615,2.499-4.233-1.249-1.12-3.623-.871-4.997-.125-1.374.747-2.873,2.739-2.624,4.358h0ZM12.771,13.073c-1.374.747-2.873,2.615-2.624,4.233,1.249,1.121,3.748.872,5.122.125,1.249-.747,2.749-2.739,2.499-4.357-1.249-1.121-3.623-.872-4.997,0h0ZM5.15,6.598c-1.374-.747-3.873-.996-5.122.125-.25,1.619,1.249,3.486,2.624,4.233,1.374.871,3.748,1.12,4.997,0,.25-1.619-1.249-3.611-2.499-4.358h0ZM5.15,13.073c-1.374-.872-3.873-1.121-5.122,0-.25,1.618,1.249,3.611,2.624,4.357,1.374.747,3.748.996,4.997-.125.25-1.618-1.249-3.486-2.499-4.233h0ZM8.898,9.711c-.25,0-.5.125-.5.374v9.586c0,.125.25.249.5.249s.5-.125.5-.249v-9.586c0-.249-.25-.374-.5-.374h0Z" fill="#282828" fill-rule="evenodd"/>
  </g>
</svg>