<?xml version="1.0" encoding="UTF-8"?>
<svg id="Layer_2" data-name="Layer 2" xmlns="http://www.w3.org/2000/svg" viewBox="0 0 16.8 19.92">
  <g id="Layer_1-2" data-name="Layer 1">
    <path d="M8.901,10.832h-3.134l-1.881,3.859h1.755l-2.131,5.229,6.143-7.345h-1.505l.752-1.743h0ZM13.791,4.357c-.752,0-1.379.249-1.881.747-.125-2.864-2.382-5.104-5.14-5.104C3.887,0,1.504,2.365,1.504,5.229c0,.498.125.996.251,1.494-1.003,0-1.755.872-1.755,1.743,0,1.12.752,1.867,1.755,1.867h12.036c1.63,0,3.009-1.369,3.009-2.988s-1.379-2.988-3.009-2.988h0Z" fill="#282828" fill-rule="evenodd"/>
  </g>
</svg>