<?xml version="1.0" encoding="UTF-8"?>
<svg id="Layer_2" data-name="Layer 2" xmlns="http://www.w3.org/2000/svg" viewBox="0 0 16.473 19.92">
  <g id="Layer_1-2" data-name="Layer 1">
    <path d="M16.227,13.197c-.251-.747-1.002-1.618-1.879-1.618-1.629-.249-3.508.871-4.886,2.739-3.258,4.607-6.139,4.856-7.016,4.856-.752,0-1.378-.249-1.378-.498-.501-.623.376-1.619.877-2.241.501.249.752.622,1.378.622.501,0,1.002-.373,1.629-.622l4.511-4.855h.626c.752,0,1.629-.249,2.381-.996.501-.623,1.128-1.743,1.128-2.49,0-.872-.626-1.867-1.128-2.49-1.378-1.245-3.508-1.245-4.886,0-.752.623-1.002,1.618-1.002,2.49v.249L1.693,13.197c-.251.623-.626,1.12-.626,1.618,0,.623,0,.872.376,1.37,0,0-.376.249-.626.871-.752.996-.501,1.619-.251,2.117.251.498.877.747,1.879.747.877,0,1.879-.249,3.508-.996,1.378-.872,2.756-2.241,4.135-4.109,1.253-1.867,2.631-2.615,4.009-2.615.877.249,1.378.498,1.629,1.245.501,1.12,0,2.739-1.378,4.357-.251.249-.752.872-1.002,1.37v.498c.251,0,.501,0,.501-.249.251-.249.752-.747,1.128-1.37,1.253-1.618,1.879-3.486,1.253-4.855h0ZM7.833,6.225c.626-.623,1.378-.872,2.255-.872.501,0,1.253.249,1.879.872.501.498.752.996.752,1.867,0,.747-.251,1.369-.752,1.867-.251.249-.626.623-.877.623l-3.759-3.611c.251-.249.251-.498.501-.747h0ZM7.081,7.594l3.258,3.237h-.251c-.877,0-1.629-.249-2.255-.872-.501-.498-.752-1.12-.752-1.867v-.498h0ZM6.83,9.213c0,.498.251.996.752,1.37.251.498.877.747,1.128.747l-4.135,4.357-2.13-2.241,4.385-4.233h0ZM1.944,14.069l2.13,2.116h-.752c-.626,0-.877,0-1.128-.249-.251-.249-.501-.872-.501-1.121s.251-.498.251-.747h0ZM1.693,6.972h.251c.626-.249.877-.498.877-.871.251-.498.251-.747.251-.996L1.693,1.867l2.756-.996.752,2.116c-.251-.249-.501-.249-.752,0-.877.249-1.128.996-.877,1.867.251.498.877.747,1.378.747h.501c.251-.249.501-.498.877-.747v-1.12L4.951.249q0-.249-.251-.249h-.251L1.192,1.369c-.251,0-.251.249-.251.249l1.002,2.365c-.251,0-.501,0-.752.374-.877.249-1.378.996-1.128,1.494.251.871.877,1.12,1.629,1.12h0ZM5.703,4.606l-.501.498c-.501,0-.752-.249-1.128-.498,0-.623,0-.871.626-1.12h.251c.251,0,.501.249.752.498v.623h0ZM1.192,4.855h.501c.251,0,.501,0,.501.498.376,0,0,.249,0,.498l-.251.249c-.501.374-1.002,0-1.002-.249-.251-.498,0-.996.251-.996h0Z" fill="#282828" fill-rule="evenodd"/>
  </g>
</svg>