<?xml version="1.0" encoding="UTF-8"?>
<svg id="Layer_2" data-name="Layer 2" xmlns="http://www.w3.org/2000/svg" viewBox="0 0 18.84 20.04">
  <g id="Layer_1-2" data-name="Layer 1">
    <path d="M18.84,2.38c0-.626-.251-1.252-.628-1.753-.377-.376-.879-.626-1.507-.626s-1.13.25-1.633.626l-5.778,5.386-1.382-1.503c-.251-.376-.628-.376-.879-.125l-2.763,1.503c-.126.125-.251.25-.377.626,0,.125.126.376.251.626l.251.25L.126,10.771q-.126.125-.126.25c0,.25,0,.376.126.376l1.382,1.628c.126,0,.377.125.502,0l.628-.25-.251.752c0,.125,0,.25.126.501l2.01,2.254c.251.125.502.125.628,0l1.13-.751-.754,1.378c-.126.125-.126.25,0,.376l.879,1.002c.251.125.502.125.628,0l.126-.125-.126.251c0,.125,0,.25.126.501l.879,1.002c.126,0,.251.125.251.125h0c.126,0,.377-.125.377-.125l3.266-4.509.251.25c.251.125.377.125.502.125h.126c.251,0,.377-.125.628-.376l1.382-2.756c.126-.376,0-.751-.126-1.002l-1.633-1.628,5.275-6.012c.251-.376.502-1.002.502-1.628h0ZM8.29,19.038l-.377-.501.502-1.378c0-.125,0-.25-.126-.376-.126,0-.251-.25-.377,0l-1.005.751-.628-.501,1.382-2.505c.126-.125.126-.25,0-.376-.251-.125-.377-.125-.502,0l-2.135,1.378-1.884-1.879.628-1.503c0-.125,0-.25-.251-.501,0-.125-.251-.125-.251,0l-1.256.626-1.13-1.002,4.145-3.256,6.28,6.763-3.014,4.259h0ZM12.56,13.778l-6.657-7.014,1.256-.751,6.029,6.262-.628,1.503h0ZM17.082,3.006h0l-5.024,5.887-1.507-1.754,5.526-5.386h0c.377-.376.754-.376,1.005,0,.251.125.377.25.377.626,0,.125-.126.376-.377.626h0Z" fill="#282828" fill-rule="evenodd"/>
  </g>
</svg>