<?xml version="1.0" encoding="UTF-8"?>
<svg id="Layer_2" data-name="Layer 2" xmlns="http://www.w3.org/2000/svg" viewBox="0 0 19.009 20.106">
  <g id="Layer_1-2" data-name="Layer 1">
    <path d="M18.599,3.273c-.502-1.251-1.004-1.752-2.007-2.253-1.004-.25-1.756-.25-2.76.25-.878.25-1.505,1.001-1.505,1.001l-6.9,7.76s-.627,1.126-.627,2.128c0,.626.376,1.251.502,1.502l.125.125s.753.876,1.756.876c.753,0,1.631-.751,1.631-.751l6.147-7.009s.376-.5.502-.876c0-.626-.251-1.001-.753-.876-.502,0-.878.501-.878.501l-5.896,6.633s-.376.501-.627.501c-.627,0-1.004-.501-1.004-1.001.251-.25.502-.626.502-.626l7.025-7.76s.753-.626,1.505-.626c1.505,0,2.007,1.252,2.133,1.877,0,.876-.251,1.502-.251,1.502,0,0-.376.375-.627.876-2.007,2.127-9.158,10.262-9.158,10.262,0,0-.627.501-1.255.751-.753.375-1.882.25-2.384-.125-.878-.375-1.631-1.251-1.882-2.002-.376-1.126-.376-2.127-.125-2.753.125-.876.502-1.502.502-1.502L11.197,1.771s.251-.5.251-.876c.125-.5-.251-1.001-.753-.876l-.753.5L1.537,10.032s-.753,1.001-1.255,2.128c-.376,1.251-.376,2.753,0,4.255.627,1.377,1.505,2.503,2.885,3.129,1.505.751,2.76.751,4.015,0,.878-.25,1.505-1.126,1.505-1.126l9.158-10.012s.502-.876,1.004-1.877c.376-1.001,0-2.628-.251-3.254h0Z" fill="#282828" fill-rule="evenodd"/>
  </g>
</svg>