<?xml version="1.0" encoding="UTF-8"?>
<svg id="Layer_2" data-name="Layer 2" xmlns="http://www.w3.org/2000/svg" viewBox="0 0 20.103 20.014">
  <g id="Layer_1-2" data-name="Layer 1">
    <path d="M18.478,14.886l-2.376-2.752c-.875-.5-1.876-.5-2.501,0l-1,1.126c-.625.5-1.376.5-2.001,0l-4.002-3.753c-.5-.625-.5-1.376,0-1.876l1.126-1.126c.75-.5.75-1.876,0-2.502l-2.501-2.377c-.5-.876-1.876-.876-2.376,0l-.875.75C-.657,4.879-.657,8.881,1.97,11.383l6.753,6.755c2.501,2.502,6.503,2.502,9.004,0l.75-.75c.875-.876.875-2.001,0-2.502h0ZM3.595,2.377c.25-.25.625-.25.875,0l2.376,2.502c.25.25.25.5,0,.75l-.25.625-3.502-3.503.5-.375h0ZM9.598,17.388l-6.753-6.88c-1.876-1.876-2.251-4.878-.625-7.005l3.627,3.503c-1.126.875-.875,2.502,0,3.252l4.002,3.878c.75,1.001,2.376,1.001,3.252.25l3.252,3.252c-1.876,1.626-4.877,1.626-6.753-.25h0ZM17.727,16.512l-.375.25-3.502-3.252.625-.5c.25-.25.5-.25.75,0l2.501,2.752c.25.25.25.5,0,.75h0ZM10.224,0c-.25,0-.625.25-.625.5s.375.5.625.5c4.752,0,8.504,4.128,8.504,8.881,0,.25.375.5.625.5.5,0,.75-.25.75-.5C20.103,4.253,15.601,0,10.224,0h0ZM10.224,3.502c3.502,0,6.503,3.002,6.503,6.38,0,.25.25.5.5.5s.5-.25.5-.5c0-4.253-3.502-7.38-7.504-7.38-.25,0-.625.25-.625.5s.375.5.625.5h0ZM10.224,5.879c2.126,0,4.002,1.626,4.002,4.003,0,.25.25.5.5.5s.625-.25.625-.5c0-3.002-2.251-5.379-5.127-5.379-.25,0-.625.25-.625.5,0,.625.375.876.625.876h0ZM10.224,8.006c.75,0,1.626.875,1.626,1.876,0,.25.25.5.5.5.5,0,.75-.25.75-.5,0-1.626-1.251-2.877-2.876-2.877-.25,0-.625.25-.625.5s.375.5.625.5h0Z" fill="#282828" fill-rule="evenodd"/>
  </g>
</svg>