<?xml version='1.0' encoding='utf-8'?>
<svg xmlns="http://www.w3.org/2000/svg" width="92" height="91" xml:space="preserve" overflow="hidden"><defs><clipPath id="clip0"><rect x="2849" y="1688" width="92" height="91" fill="#ff0000" /></clipPath></defs><g clip-path="url(#clip0)" transform="translate(-2849 -1688)"><path d="M2926.05 1714.16 2927.2 1715.3 2927.78 1716.44 2928.35 1717.58 2928.35 1743.74 2927.78 1744.88 2927.2 1745.44 2926.62 1746.01 2926.05 1746.58 2915.12 1751.7 2915.12 1714.16 2926.05 1714.16 2926.05 1714.16ZM2872 1707.91 2873.15 1707.91 2874.3 1708.48 2875.45 1709.61 2875.45 1711.32 2875.45 1756.25 2875.45 1757.96 2874.3 1758.52 2873.15 1759.09 2872 1759.66 2870.28 1759.09 2869.7 1758.52 2869.12 1757.96 2868.55 1756.25 2868.55 1711.32 2869.12 1709.61 2869.7 1708.48 2870.28 1707.91 2872 1707.91 2872 1707.91 2872 1707.91ZM2891.55 1707.91 2893.28 1707.91 2893.85 1708.48 2894.43 1709.61 2895 1711.32 2895 1756.25 2894.43 1757.96 2893.85 1758.52 2893.28 1759.09 2891.55 1759.66 2890.4 1759.09 2889.25 1758.52 2888.68 1757.96 2888.68 1756.25 2888.68 1711.32 2888.68 1709.61 2889.25 1708.48 2890.4 1707.91 2891.55 1707.91 2891.55 1707.91 2891.55 1707.91ZM2853.02 1688 2851.88 1688.57 2850.15 1689.71 2849.57 1691.41 2849 1691.98 2849 1693.12 2849 1774.45 2849 1775.02 2849.57 1776.16 2850.15 1777.29 2851.88 1779 2853.02 1779 2911.1 1779 2911.68 1779 2913.4 1777.29 2914.55 1776.16 2915.12 1775.02 2915.12 1774.45 2915.12 1765.92 2931.23 1758.52 2933.53 1757.39 2935.25 1756.25 2936.98 1754.54 2938.13 1752.27 2939.85 1750.56 2940.43 1748.29 2941 1746.01 2941 1743.74 2941 1717.58 2940.43 1714.16 2939.85 1711.32 2938.13 1708.48 2936.4 1705.63 2934.1 1703.93 2931.23 1702.79 2928.35 1701.65 2924.9 1701.08 2915.12 1701.08 2915.12 1693.12 2915.12 1691.98 2914.55 1691.41 2913.4 1689.71 2911.68 1688.57 2911.1 1688 2853.02 1688 2853.02 1688Z" fill="#ff0000" fill-rule="evenodd" /></g><g id="main"><path d="M2926.05 1714.16 2927.2 1715.3 2927.78 1716.44 2928.35 1717.58 2928.35 1743.74 2927.78 1744.88 2927.2 1745.44 2926.62 1746.01 2926.05 1746.58 2915.12 1751.7 2915.12 1714.16 2926.05 1714.16 2926.05 1714.16ZM2872 1707.91 2873.15 1707.91 2874.3 1708.48 2875.45 1709.61 2875.45 1711.32 2875.45 1756.25 2875.45 1757.96 2874.3 1758.52 2873.15 1759.09 2872 1759.66 2870.28 1759.09 2869.7 1758.52 2869.12 1757.96 2868.55 1756.25 2868.55 1711.32 2869.12 1709.61 2869.7 1708.48 2870.28 1707.91 2872 1707.91 2872 1707.91 2872 1707.91ZM2891.55 1707.91 2893.28 1707.91 2893.85 1708.48 2894.43 1709.61 2895 1711.32 2895 1756.25 2894.43 1757.96 2893.85 1758.52 2893.28 1759.09 2891.55 1759.66 2890.4 1759.09 2889.25 1758.52 2888.68 1757.96 2888.68 1756.25 2888.68 1711.32 2888.68 1709.61 2889.25 1708.48 2890.4 1707.91 2891.55 1707.91 2891.55 1707.91 2891.55 1707.91ZM2853.02 1688 2851.88 1688.57 2850.15 1689.71 2849.57 1691.41 2849 1691.98 2849 1693.12 2849 1774.45 2849 1775.02 2849.57 1776.16 2850.15 1777.29 2851.88 1779 2853.02 1779 2911.1 1779 2911.68 1779 2913.4 1777.29 2914.55 1776.16 2915.12 1775.02 2915.12 1774.45 2915.12 1765.92 2931.23 1758.52 2933.53 1757.39 2935.25 1756.25 2936.98 1754.54 2938.13 1752.27 2939.85 1750.56 2940.43 1748.29 2941 1746.01 2941 1743.74 2941 1717.58 2940.43 1714.16 2939.85 1711.32 2938.13 1708.48 2936.4 1705.63 2934.1 1703.93 2931.23 1702.79 2928.35 1701.65 2924.9 1701.08 2915.12 1701.08 2915.12 1693.12 2915.12 1691.98 2914.55 1691.41 2913.4 1689.71 2911.68 1688.57 2911.1 1688 2853.02 1688 2853.02 1688Z" fill="#ff0000" fill-rule="evenodd" /><rect x="2849" y="1688" width="92" height="91" fill="#ff0000" /></g></svg>