<?xml version="1.0" encoding="UTF-8"?>
<svg id="Layer_2" data-name="Layer 2" xmlns="http://www.w3.org/2000/svg" viewBox="0 0 15.6 20.061">
  <g id="Layer_1-2" data-name="Layer 1">
    <path d="M3.37,17.401c.499-.375.749-1.001.749-1.502,0-1.001-.624-1.627-1.373-1.627s-1.498.626-1.498,1.627c0,.501.374,1.127.874,1.502-1.123.25-1.872,1.252-1.872,2.003,0,.876,4.992.876,4.992,0,0-.751-.874-1.753-1.872-2.003h0ZM8.362,17.401c.499-.375.874-1.001.874-1.502,0-1.001-.749-1.627-1.498-1.627s-1.373.626-1.373,1.627c0,.501.374,1.127.749,1.502-.998.25-1.872,1.252-1.872,2.003,0,.876,4.992.876,4.992,0,0-.751-.874-1.753-1.872-2.003h0ZM13.354,17.401c.499-.375.749-1.001.749-1.502,0-1.001-.624-1.627-1.373-1.627-.874,0-1.373.626-1.373,1.627,0,.501.374,1.127.749,1.502-.998.25-1.872,1.252-1.872,2.003,0,.876,4.992.876,4.992,0,0-.751-.874-1.753-1.872-2.003h0ZM13.728,0H1.747C.749,0,0,.876,0,2.128v7.261c0,1.001.749,1.878,1.747,1.878h1.622v-.751h-1.622c-.624,0-1.123-.501-1.123-1.127V2.128c0-.626.499-1.377,1.123-1.377h11.981c.624,0,1.123.751,1.123,1.377v7.261c0,.626-.499,1.127-1.123,1.127h-6.49l.125.751h6.365c.998,0,1.872-.876,1.872-1.878V2.128c0-1.252-.874-2.128-1.872-2.128h0ZM6.614,3.255c0-.626-.499-1.127-1.248-1.127-.624,0-1.123.501-1.123,1.127s.499,1.377,1.123,1.377c.749,0,1.248-.751,1.248-1.377h0ZM3.37,5.258h-.125v.125h-.125v.125l-.624,3.505c-.125.25,0,.501.25.501h.125c.125,0,.374-.125.374-.376l.749-3.004.125-.125v3.255l-.374,4.757c0,.25.25.501.499.501.374,0,.624-.125.624-.501l.374-4.256h.374l.25,4.256c0,.375.25.501.499.501h.125c.25,0,.499-.25.499-.501l-.374-4.757v-3.255c.25.125.374.125.374.125l2.122.751c0,.125.125.125.125.125.25,0,.374-.125.499-.375,0-.25-.125-.501-.374-.626l-2.122-.876s-.998-.25-1.622-.375l-.125.25.125,2.629-.25.626-.374-.626.374-2.629-.125-.25c-.874.125-1.747.375-1.872.375v.125h0ZM9.235,9.389h.624v-2.128h-.624v2.128h0ZM10.234,6.134v3.255h.874v-3.255h-.874ZM11.482,5.007v4.382h.624v-4.382h-.624Z" fill="#282828" fill-rule="evenodd"/>
  </g>
</svg>