<?xml version="1.0" encoding="UTF-8"?>
<svg id="Layer_2" data-name="Layer 2" xmlns="http://www.w3.org/2000/svg" viewBox="0 0 19.92 20.04">
  <g id="Layer_1-2" data-name="Layer 1">
    <path d="M4.856,10.521h.747v.877h1.121v1.002H1.867v-1.002h1.12v-2.004h1.868v1.127h0ZM17.181,19.289h.747v-1.253h-.747v1.253h0ZM5.602,10.521h1.121v-1.127h-1.121v1.127h0ZM19.173,19.289h.747v-1.253h-.747v1.253h0ZM7.594,20.04h1.743v-.751h-1.743v.751h0ZM16.185,20.04v-.751h-.872v.751h.872ZM12.326,20.04h.872v-2.004h-.872v2.004h0ZM4.856,7.515v1.127h2.739v-1.127h-2.739ZM3.735,8.642v-1.127h-1.867v1.879h1.12v-.751h.747ZM6.723,6.763H0V0h6.723v6.763h0ZM5.602,1.002H.996v4.634h4.607V1.002h0ZM1.867,18.036h2.988v-2.63H1.867v2.63h0ZM11.33,17.284v.751h.996v-.751h-.996ZM4.856,1.879H1.867v3.006h2.988V1.879h0ZM19.92,0v6.763h-6.723V0h6.723ZM19.173,1.002h-4.855v4.634h4.855V1.002h0ZM0,13.151h6.723v6.889H0v-6.889h0ZM.996,19.289h4.607v-5.01H.996v5.01h0ZM.996,7.515h-.996v4.885h.996v-4.885h0ZM13.197,12.4v.752h1.12v-.752h-1.12ZM10.583,16.157v-.751h-1.245v.751h-1.743v1.879h1.743v1.253h1.245v-2.004h.747v-1.127h-.747ZM7.594,3.758h1.743v-.751h-1.743v.751h0ZM15.313,11.398h1.867v1.002h.747v-3.006h-.747v-1.879h-.996v3.006h-2.988v.877h1.12v1.002h.996v-1.002h0ZM16.185,14.279h-.872v-1.127h-.996v2.254h-2.988v.751h1.867v1.879h1.12v1.253h.996v-2.004h3.859v-1.127h-2.988v-1.879h0ZM16.185,14.279h.996v-1.879h-.996v1.879h0ZM8.591,14.279v-1.127h.747v-.752h1.245v-1.002h.747v-2.004h2.988v-1.879h-1.12v1.127h-.872v-3.758h-.996v-1.879h.996V0h-.996v1.879h-.747V0h-2.988v1.879h.996v-.877h.747v2.004h1.245v2.63h.747v1.127h-.747v1.879h-1.245v-1.879h-.747v-1.127h-.996v1.879h.996v1.127h-.996v2.755h.996v-2.004h.747v2.004h-.747v1.002h-.996v3.006h1.743v-1.127h-.747ZM19.173,15.406v-1.127h-1.992v1.127h1.992ZM17.928,1.879h-2.615v3.006h2.615V1.879h0ZM10.583,14.279h1.743v-1.127h-.996v-.752h-.747v1.879h0ZM12.326,12.4v-1.002h-.996v1.002h.996ZM17.928,8.642h1.992v-1.127h-1.992v1.127h0ZM19.173,16.157h.747v-.751h-.747v.751h0ZM19.173,10.521h.747v-1.127h-.747v1.127h0ZM10.583,5.636h-1.245v1.127h1.245v-1.127h0Z" fill="#282828" fill-rule="evenodd"/>
  </g>
</svg>