<?xml version="1.0" encoding="UTF-8"?>
<svg id="Layer_2" data-name="Layer 2" xmlns="http://www.w3.org/2000/svg" viewBox="0 0 16.32 20.04">
  <g id="Layer_1-2" data-name="Layer 1">
    <path d="M15.074,0H1.121C.498,0,0,.501,0,1.252v17.535c0,.501.498,1.252,1.121,1.252h10.465l4.734-5.01V1.252c0-.751-.498-1.252-1.246-1.252h0ZM11.337,18.287v-3.507h3.239l-3.239,3.507h0ZM14.825,13.402h-3.488c-.498,0-1.246.501-1.246,1.378v3.758H1.37V1.252h13.455v12.149h0ZM2.865,5.01h10.714c.249,0,.498-.626.498-.877,0-.626-.249-.877-.498-.877H2.865c-.249,0-.498.25-.498.877,0,.25.249.877.498.877h0ZM2.865,8.016h10.714c.249,0,.498-.376.498-.626,0-.501-.249-.751-.498-.751H2.865c-.249,0-.498.25-.498.751,0,.25.249.626.498.626h0ZM2.865,11.398h10.714c.249,0,.498-.501.498-.751,0-.501-.249-.751-.498-.751H2.865c-.249,0-.498.25-.498.751,0,.25.249.751.498.751h0ZM2.865,14.654h5.232c.498,0,.747-.25.747-.626,0-.501-.249-.751-.747-.751H2.865c-.249,0-.498.25-.498.751,0,.376.249.626.498.626h0Z" fill="#282828" fill-rule="evenodd"/>
  </g>
</svg>