<?xml version="1.0" encoding="UTF-8"?>
<svg id="Layer_2" data-name="Layer 2" xmlns="http://www.w3.org/2000/svg" viewBox="0 0 16.08 20.04">
  <g id="Layer_1-2" data-name="Layer 1">
    <path d="M14.824,7.515c0-.25-.126-.376-.251-.501,0-.25-.251-.25-.251-.376-.126-.25-.377-.376-.377-.626-.126-.125-.251-.501-.251-.877-.251-.376,0-.751,0-1.127.126-.751.628-1.378,1.131-2.004.251-.376.503-.501.879-.877.251,0,.251-.125.377-.125q-.126-.25-.126-.376c-.251,0-.377.125-.628.125,0,.25-.126.25-.126.25l-.126.125v-.125q.126-.25.251-.25c.251-.125.377-.125.628-.376q-.251,0-.251-.125v-.25c-.377.25-.628.376-.879.376-.628.376-1.131.751-1.633,1.252-.754.626-1.131,1.127-1.382,1.879-.377.501-.628,1.503-.628,2.129v1.127c.251.376.251.751.377,1.127.251.376.251.501.377.877,0,.25.126.376.126.501v.376c0,.25,0,.376-.126.626,0,.125-.126.125-.377.376q-.126.125-.377.376c-.628.25-1.382.626-2.01.877l-1.382,3.006c.377-.125.628-.125,1.005-.25.126,0,.377-.25.377-.25h.126c0,.25.251.376.251.501q0,.25.126.25v.125h-.126c-.628.25-1.256.626-1.759.751-.251,0-.377.25-.754.25l-1.507,3.632c.126,0,.377-.25.628-.25.754-.376,1.382-.501,2.136-.877,1.256-.752,2.638-1.503,3.769-2.38s2.261-1.753,3.015-3.131c.251-.626.503-1.378.628-2.129.251-.751,0-1.628-.126-2.38-.251-.376-.377-.877-.754-1.253h0ZM12.814,3.131c.126-.125.377-.501.503-.752l.126-.125.251-.25s0,.25.126.25c-.377.501-.628.877-.879,1.378-.126.626-.377,1.002-.377,1.503h-.251c0-.751.126-1.252.502-2.004h0ZM12.437,13.277c-.377.376-.628.751-1.256,1.127-.126-.376-.251-.501-.251-.751.503-.376,1.005-.626,1.508-1.253.126-.125.377-.501.754-.751l.503.376c-.377.626-.754,1.002-1.256,1.253h0ZM13.693,10.02c0-.501-.251-1.002-.377-1.628-.126-.125-.377-.376-.377-.752-.126-.125-.377-.376-.377-.501s.251-.125.251-.125l.126-.25v.25c.251.125.251.25.377.501.126.125.126.376.377.501.251.626.503,1.252.503,2.004h-.503ZM9.547,8.392c0-2.756-2.261-5.135-4.774-5.135S0,5.636,0,8.392c0,.877.126,1.628.503,2.38l4.271,9.269,4.271-9.269c.377-.751.503-1.503.503-2.38h0ZM4.774,11.272c-1.508,0-2.513-1.252-2.513-2.881,0-1.503,1.005-2.756,2.513-2.756,1.382,0,2.513,1.252,2.513,2.756,0,1.628-1.131,2.881-2.513,2.881h0Z" fill="#282828" fill-rule="evenodd"/>
  </g>
</svg>