<?xml version="1.0" encoding="UTF-8"?>
<svg id="Layer_2" data-name="Layer 2" xmlns="http://www.w3.org/2000/svg" viewBox="0 0 13.738 19.92">
  <g id="Layer_1-2" data-name="Layer 1">
    <path d="M5.346,7.719v1.618l3.108.125v-1.618l-3.108-.125h0ZM6.838,0c-.87,0-1.492.747-1.492,1.743v.125l3.108-.125c-.124-.996-.746-1.743-1.616-1.743h0ZM5.346,19.049c0,.498.373.871.87.871h1.492c.249,0,.746-.374.746-.871v-3.611l-3.108.125v3.486h0ZM13.551,4.357l-.995-1.245c-.124-.249-.497-.374-.87-.374L1.119,3.486c-.622,0-1.119.498-1.119,1.245s.497,1.245,1.119,1.245l10.568.747c.373,0,.746,0,.87-.373l.995-1.245c.249-.249.249-.623,0-.747h0ZM12.308,11.081l-10.319-.747h-.124c-.373,0-.746,0-.87.374l-.87,1.245c-.124.249-.124.623,0,.747l.87,1.245c.124.249.497.373.87.373h.124l10.319-.622c.746,0,1.243-.623,1.243-1.37s-.497-1.245-1.243-1.245h0Z" fill="#282828" fill-rule="evenodd"/>
  </g>
</svg>