<?xml version="1.0" encoding="UTF-8"?>
<svg id="Layer_2" data-name="Layer 2" xmlns="http://www.w3.org/2000/svg" viewBox="0 0 20.04 16.825">
  <g id="Layer_1-2" data-name="Layer 1">
    <path d="M18.286,6.007C13.777,1.478,6.388,1.478,1.879,6.007l-1.879-1.761C5.636-1.415,14.529-1.415,20.04,4.245l-1.754,1.761h0ZM17.41,6.887l-1.879,1.887c-3.006-3.019-7.891-3.019-10.897,0l-1.879-1.887c4.008-4.025,10.521-4.025,14.654,0h0ZM14.654,9.655l-1.879,1.887c-1.503-1.51-3.883-1.51-5.386,0l-1.879-1.887c2.505-2.516,6.638-2.516,9.143,0h0ZM10.02,11.667c1.503,0,2.63,1.132,2.63,2.642,0,1.384-1.127,2.516-2.63,2.516-1.378,0-2.505-1.132-2.505-2.516,0-1.51,1.127-2.642,2.505-2.642h0Z" fill="#282828" fill-rule="evenodd"/>
  </g>
</svg>