<?xml version="1.0" encoding="UTF-8"?>
<svg id="Layer_2" data-name="Layer 2" xmlns="http://www.w3.org/2000/svg" viewBox="0 0 15.96 19.92">
  <g id="Layer_1-2" data-name="Layer 1">
    <path d="M9.551,5.603h5.278l.88-.996c.251,0,.251-.125.251-.125q0-.249-.251-.249l-.88-.996-.251-.125h-5.027c-.126,0-.251.125-.251.249v2.116c0,.125.126.125.251.125h0ZM15.709,8.84l-.88-.996h-5.278c-.126,0-.251,0-.251.125v1.992c0,.125.126.374.251.374h5.027l.251-.249.88-.996q.251,0,.251-.124s0-.125-.251-.125h0ZM6.66,7.968v-2.116l-.126-.249H1.131L.126,6.723s-.126,0-.126.249c0,0,.126,0,.126.125l1.005.996h5.404s.126,0,.126-.125h0ZM9.425,18.426h-.754V1.743l-.503-1.494c0-.249-.126-.249-.126-.249q-.126,0-.126.249l-.628,1.494v16.683h-.88c-.251,0-.628.374-.628.872,0,.373.377.622.628.622h3.016c.503,0,.628-.249.628-.622,0-.498-.126-.872-.628-.872h0Z" fill="#282828" fill-rule="evenodd"/>
  </g>
</svg>