<?xml version='1.0' encoding='utf-8'?>
<svg xmlns="http://www.w3.org/2000/svg" id="Layer_2" data-name="Layer 2" viewBox="0 0 19.08 19.92">
  <g id="Layer_1-2" data-name="Layer 1">
    <path d="M16.318,3.611v1.867l-1.004-.623-.251-.498-1.632.996,1.255-2.241-1.757.996v-1.992l-1.255,2.241v-1.992h-.628l-1.004-.498,1.632-.996V.249l-1.883,1.12V0h-.628v1.369L7.406.249v.623l1.506.996-1.004.498h-.502v1.992l-1.381-2.241v1.992l-1.757-.996,1.381,2.241-1.632-.996-.377.498-1.004.623v-1.867l-.502-.374v2.241l-1.13-.747-.377.498,1.13.747-1.757.996.502.374,1.632-.871v1.12l-.377.498,1.757.996H.879l1.757.872-1.757.996h2.636l-1.757.996.377.498v1.121l-1.632-.872-.502.374,1.757.996-1.13.622.377.498,1.13-.623v2.117l.502-.249v-1.868l1.004.623.377.498,1.632-.996-1.255,2.241,1.632-.996v1.992l1.381-2.241v1.867h.502l1.004.623-1.506.872v.747l1.883-1.12v1.245h.502v-1.245l1.883,1.12v-.747l-1.632-.872,1.004-.623h.628v-1.867l1.381,2.241-.126-1.992,1.757.996-1.255-2.241,1.632.996.251-.498,1.004-.623v1.868l.628.249v-2.117l1.13.623.251-.498-1.13-.622,1.883-.996-.502-.374-1.632.872v-1.121l.251-.498-1.632-.996h2.636l-1.757-.996,1.757-.996h-2.636l1.632-.872-.251-.498v-1.245l1.506.996.628-.374-1.883-1.12,1.13-.623-.251-.498-1.13.747v-2.241l-.628.374h0ZM8.536,3.86l1.004-.623,1.004.623v2.365l-1.004-.623-1.004.623v-2.365h0ZM4.644,6.101l2.008,1.12-1.004.623v1.121l-2.008-1.121v-1.245l1.004-.498h0ZM4.644,13.944l-1.004-.623v-1.121l2.008-1.12v1.12l1.004.623-2.008,1.121h0ZM10.544,16.185l-1.004.498-1.004-.498v-2.365l1.004.622,1.004-.622v2.365h0ZM11.799,10.707l.125.623-.753.249-1.13-.623v1.245l-.502.498-.628-.498v-1.245l-1.13.623-.628-.249.125-.623,1.13-.747-1.13-.623-.125-.747.628-.249,1.13.747v-1.369l.628-.374.502.374v1.369l1.13-.747.753.374-.125.622-1.13.623,1.13.747h0ZM14.31,6.101l1.13.498-.126,1.245-2.008,1.121v-1.121l-1.004-.623,2.008-1.12h0ZM14.436,13.944l-2.134-1.245,1.004-.498v-1.12l2.008,1.12.126,1.121-1.004.623h0Z" fill="#00ABF6" fill-rule="evenodd" />
  </g>
</svg>