<?xml version="1.0" encoding="UTF-8"?>
<svg id="Layer_2" data-name="Layer 2" xmlns="http://www.w3.org/2000/svg" viewBox="0 0 16.32 20.04">
  <g id="Layer_1-2" data-name="Layer 1">
    <path d="M8.16,4.509c.753,0,1.255-.501,1.255-1.378,0-.752-.502-1.628-1.255-1.628-.879,0-1.632.877-1.632,1.628,0,.877.753,1.378,1.632,1.378h0ZM8.16,2.004c.251,0,.753.626.753,1.127,0,.25-.502.877-.753.877-.628,0-1.13-.626-1.13-.877,0-.501.502-1.127,1.13-1.127h0ZM8.16,1.002l.251-.25V.25l-.251-.25c-.251,0-.251.25-.251.25v.501s0,.25.251.25h0ZM6.026,1.378l.251.25v.25c.251,0,.251-.25.251-.25.251,0,.251-.25,0-.25l-.251-.376c0-.25-.251-.25-.251,0-.251,0-.251.376,0,.376h0ZM5.649,3.507c.377,0,.377-.25.377-.25,0-.376,0-.626-.377-.626h-.502s-.251.25-.251.626l.251.25h.502ZM6.277,4.509l-.251.25c-.251,0-.251.376,0,.626h.251l.251-.25c.251-.376.251-.626,0-.626h-.251ZM7.909,5.386v.501s0,.25.251.25l.251-.25v-.501l-.251-.25c-.251,0-.251.25-.251.25h0ZM9.415,4.509v.626l.377.25h.502v-.626l-.251-.25h-.628ZM10.043,3.257l.251.25h.502l.377-.25c0-.376-.377-.626-.377-.626h-.502s-.251.25-.251.626h0ZM10.043,1.628l.251-.25v-.376c-.251-.25-.502-.25-.502,0l-.377.376v.25l.377.25s0-.25.251-.25h0ZM15.818,12.65l-.502-2.755-.628-2.505-.251-.25H1.632l-.251.25-.628,2.505-.502,2.755-.251,2.505v1.002q0,.25.251.25h6.779v2.004h-2.134q-.251,0-.251.25v.751H1.632s-.251,0-.251.376c0,.25.251.25.251.25h12.805s.251,0,.251-.25c0-.376-.251-.376-.251-.376h-3.013v-.751q0-.25-.251-.25h-2.134v-2.004h7.03s.251,0,.251-.25v-1.002l-.502-2.505h0ZM15.567,14.78h-4.645v-1.879h4.394l.251,1.879h0ZM10.671,8.016h3.515l.251,1.879h-3.766v-1.879h0ZM14.688,10.396l.377,2.004h-4.143l-.251-2.004h4.017ZM6.277,8.016h3.515l.251,1.879h-4.017l.251-1.879h0ZM6.026,10.396h4.017v2.004h-4.017v-2.004h0ZM10.42,12.901v1.879h-4.645l.251-1.879h4.394ZM1.883,8.016h3.892l-.377,1.879H1.632l.251-1.879h0ZM1.381,10.396h4.017v2.004H1.13l.251-2.004h0ZM10.922,18.913v.501h-5.775v-.501h5.775ZM7.909,18.412v-2.004h.502v2.004h-.502ZM15.818,15.907H.502v-.501h1.381s.251,0,.251-.25c0-.376-.251-.376-.251-.376H.502l.251-1.879h4.394v1.879h-1.883c-.251,0-.502,0-.502.376,0,.25.251.25.502.25h12.554v.501h0Z" fill="#282828" fill-rule="evenodd"/>
  </g>
</svg>