<?xml version="1.0" encoding="UTF-8"?>
<svg id="Layer_2" data-name="Layer 2" xmlns="http://www.w3.org/2000/svg" viewBox="0 0 20.008 19.08">
  <g id="Layer_1-2" data-name="Layer 1">
    <path d="M19.708,8.106l-5.259,3.866,2.003,6.111c.125.25,0,.624-.25.873-.125.125-.25.125-.501.125-.125,0-.25,0-.501-.125l-5.134-3.866-5.259,3.866c-.25.125-.626.125-1.002,0-.25-.25-.376-.624-.25-.873l2.003-6.111L.3,8.106c-.25-.125-.376-.499-.25-.873.125-.374.376-.499.751-.499h6.511L9.315.624c0-.374.376-.624.751-.624s.626.25.751.624l2.003,6.111h6.386c.376,0,.751.125.751.499.125.374,0,.748-.25.873h0Z" fill="#282828" fill-rule="evenodd"/>
  </g>
</svg>