<?xml version="1.0" encoding="UTF-8"?>
<svg id="Layer_2" data-name="Layer 2" xmlns="http://www.w3.org/2000/svg" viewBox="0 0 9.48 19.92">
  <g id="Layer_1-2" data-name="Layer 1">
    <path d="M8.108,2.864H1.247c-.624,0-1.247.623-1.247,1.494v1.37c0,.747.374,1.245.873,1.494v9.835c0,.996.998,2.864,3.867,2.864,2.495,0,3.493-1.867,3.617-2.739V7.221c.624-.249,1.123-.747,1.123-1.494v-1.37c0-.871-.748-1.494-1.372-1.494h0ZM8.108,5.354c0,.249-.249.374-.499.374s-.499.249-.499.498v10.707s-.249,1.619-2.37,1.619c-2.495,0-2.495-1.619-2.495-1.619V6.225c0-.249-.125-.498-.374-.498h-.125c-.249,0-.499-.125-.499-.374v-.498c0-.249.249-.498.499-.498h5.863c.249,0,.499.249.499.498v.498h0ZM2.994,16.559s0,1.369,1.622,1.369c1.497,0,1.622-1.369,1.622-1.369v-4.607h-3.243v4.607h0ZM3.992,9.088c0,.498.499.996.998.996.374,0,.748-.498.748-.996s-.374-.871-.748-.871c-.499,0-.998.374-.998.871h0ZM3.742,6.847c.499,0,.873-.373.873-.871s-.374-.872-.873-.872-.748.374-.748.872.249.871.748.871h0ZM6.362,2.116c.374,0,.748-.374.748-.871s-.374-.872-.748-.872c-.499,0-.873.374-.873.872s.374.871.873.871h0ZM3.493.996c.125,0,.374-.249.374-.498s-.249-.498-.374-.498c-.249,0-.499.249-.499.498s.249.498.499.498h0Z" fill="#282828" fill-rule="evenodd"/>
  </g>
</svg>