<?xml version="1.0" encoding="UTF-8"?>
<svg id="Layer_2" data-name="Layer 2" xmlns="http://www.w3.org/2000/svg" viewBox="0 0 12.406 20.059">
  <g id="Layer_1-2" data-name="Layer 1">
    <path d="M10.636,6.034H1.778C.78,6.034.032,6.911.032,7.913l.873,10.393c0,1.002.873,1.753,1.747,1.753h7.36c.873,0,1.497-.751,1.497-1.753l.873-10.393c0-1.002-.873-1.878-1.747-1.878h0ZM3.899,16.928c0,.626-.374.876-.749.876-.499,0-.998-.25-.998-.876v-8.264c0-.375.499-.751.998-.751.374,0,.749.376.749.751v8.264h0ZM6.893,16.928c0,.626-.374.876-.873.876s-.873-.25-.873-.876v-8.264c0-.375.374-.751.873-.751s.873.376.873.751v8.264h0ZM10.012,16.928c0,.626-.499.876-.998.876s-.749-.25-.749-.876v-8.264c0-.375.25-.751.749-.751s.998.376.998.751v8.264h0ZM1.279,5.158l10.23-2.88c.624-.125.998-.876.873-1.377-.125-.626-.749-1.002-1.248-.876l-3.244.876c-.25-.501-.873-.751-1.372-.626l-1.248.375c-.499.125-.873.626-.998,1.252L.656,2.904c-.499.125-.749.751-.624,1.377.125.626.624,1.002,1.248.876h0Z" fill="#282828" fill-rule="evenodd"/>
  </g>
</svg>