<?xml version="1.0" encoding="UTF-8"?>
<svg id="Layer_2" data-name="Layer 2" xmlns="http://www.w3.org/2000/svg" viewBox="0 0 19.991 18.12">
  <g id="Layer_1-2" data-name="Layer 1">
    <path d="M10.017,0l-5.259,5.249h3.381v5.499h3.882v-5.499h3.256L10.017,0h0ZM19.409,12.372l-3.13-2.374h-2.003l3.381,2.874h-3.506c-.125,0-.376,0-.376.125l-.751,2.25h-6.01l-.751-2.25q-.125-.125-.25-.125h-3.631l3.381-2.874h-1.878l-3.256,2.374c-.376.25-.626.875-.626,1.5l.501,3.249c.125.625.751,1,1.377,1h16.403c.501,0,1.127-.375,1.127-1l.501-3.249c.25-.625-.125-1.25-.501-1.5h0Z" fill="#282828" fill-rule="evenodd"/>
  </g>
</svg>