<?xml version="1.0" encoding="UTF-8"?>
<svg id="Layer_2" data-name="Layer 2" xmlns="http://www.w3.org/2000/svg" viewBox="0 0 20.04 21.84">
  <g id="Layer_1-2" data-name="Layer 1">
    <path d="M16.909,0c-1.753,0-3.131,1.757-3.131,3.389v10.418h2.505v8.033h3.758V3.389c0-1.632-1.378-3.389-3.131-3.389h0ZM8.266,0c-.501,0-.751.502-.751.753v4.895c0,.251-.25.251-.626.251-.25,0-.626,0-.626-.251V.753c0-.251-.25-.753-.752-.753-.25,0-.376.502-.376.753v4.895c0,.251-.501.251-.752.251-.376,0-.626,0-.626-.251V.753c0-.251-.25-.753-.626-.753-.25,0-.751.502-.751.753v4.895c0,.251-.125.251-.376.251-.501,0-.752,0-.752-.251V.753c0-.251-.125-.753-.626-.753-.376,0-.626.502-.626.753v6.025c0,.753.376,1.004,1.127,1.506.626.502,1.253,1.255,1.253,2.636v10.92h3.883v-10.92c0-1.381.877-2.134,1.503-2.636.501-.502,1.127-.753,1.127-1.506V.753c0-.251-.501-.753-.626-.753h0Z" fill="#282828" fill-rule="evenodd"/>
  </g>
</svg>