<?xml version="1.0" encoding="UTF-8"?>
<svg id="Layer_2" data-name="Layer 2" xmlns="http://www.w3.org/2000/svg" viewBox="0 0 19.911 13.68">
  <g id="Layer_1-2" data-name="Layer 1">
    <path d="M7.84,5.721c0-1.119-.871-2.239-1.618-2.736l-.249.498c.498.498.996,1.368.996,2.239h.871ZM1.618,5.721h.747c0-.871.622-1.741,1.12-2.239l-.249-.498c-.871.498-1.618,1.617-1.618,2.736h0ZM8.338,5.721v.498h.498c.498-1.865-.747-3.98-2.613-4.477l-.249.497c1.244.498,2.364,1.865,2.364,3.482h0ZM1.12,6.218c-.373-1.865.747-3.482,2.364-3.98l-.249-.497C1.369,2.239,0,4.353.498,6.218h.622ZM19.662,8.581c.249,0,.249-.249.249-.497v-1.119c0-.249,0-.498-.249-.498h-2.987v-2.985c.249-.249.498-.622.498-1.119s-.498-.746-.747-.746c-.622,0-1.12.249-1.12.746s.249.871.498,1.119v2.985h-5.6s-.249.249-.249.498v1.119c0,.249.249.497.249.497h.498v4.602h-4.853v-3.482c.622-.249,1.12-.622,1.618-.871l-.498-.498c-.249.249-.747.498-1.12.746v-.746l.373-.249-.373-.622h-.249v-.249l2.738,1.119c.249.249.498,0,.498,0l.249-.497v-.622l-3.484-2.114-.249-4.353-.249-.249h-.747l-.373.249-.249,4.353L.249,7.213v.622l.249.497s.249.249.622,0l2.613-1.119v.249h-.249l-.249.622s.249.249.498.249l-.249.746q-.249-.249-.498-.498c-.249,0-.622,0-.622-.249l-.498.498c.249.249.498.249.871.249.249.373.498.622.747.622v3.482H0v.497h19.911v-.497h-.498v-4.602h.249ZM4.604,1.244h.249v3.233h-.249V1.244h0ZM4.853,5.099s.249.249.249.498l-.249.249h-.249q-.249-.249-.249-.497c.249,0,.249-.249.498-.249h0ZM4.356,6.716h.747v1.119h-.747v-1.119h0ZM4.356,8.581h.747v.498h-.747v-.498h0ZM1.12,7.835l2.613-1.99s0,.373.249.373l-2.862,1.617h0ZM3.982,13.183l.373-3.482c0,.249.249.249.498.249,0,0,.249,0,.249-.249l.249,3.482h-1.369ZM5.6,5.845l2.738,1.99-2.987-1.617c.249,0,.249-.373.249-.373h0ZM16.427,2.114s0,.249.249.249q0,.249-.249.249,0,.249-.249.249l-.373-.249c0-.249.373-.497.622-.497h0ZM13.938,13.183h-1.244v-2.736h1.244v2.736h0ZM18.542,13.183h-3.982v-2.985q0-.249-.249-.249h-1.991q-.249,0-.249.249v2.985h-.747v-4.602h7.218v4.602h0ZM10.702,7.835v-.622h8.711v.622h-8.711ZM15.556,12.312h1.867c.249,0,.498,0,.498-.249v-1.741c0-.249-.249-.249-.498-.249h-1.867q-.249,0-.249.249v1.741q0,.249.249.249h0ZM15.804,10.571h1.369v1.244h-1.369v-1.244h0ZM14.436,4.353l.622-.498c-.622-.622-.622-1.741,0-2.487l-.622-.622c-.249.622-.498,1.119-.498,1.99,0,.497.249,1.119.498,1.617h0ZM17.92,4.353c.249-.498.498-1.119.498-1.617,0-.871-.249-1.368-.498-1.99l-.498.622c.498.746.498,1.865,0,2.487l.498.498h0ZM14.311,4.602c-1.369-1.119-1.369-2.985,0-4.104l-.622-.498c-1.369,1.368-1.369,3.855,0,5.223l.622-.622h0ZM18.293,4.602l.498.622c1.369-1.368,1.369-3.855,0-5.223l-.498.498c1.244,1.119,1.244,2.985,0,4.104h0Z" fill="#282828" fill-rule="evenodd"/>
  </g>
</svg>