<?xml version="1.0" encoding="UTF-8"?>
<svg id="Layer_2" data-name="Layer 2" xmlns="http://www.w3.org/2000/svg" viewBox="0 0 20.04 20.04">
  <g id="Layer_1-2" data-name="Layer 1">
    <path d="M19.664,17.41l-4.133-4.008c1.002-1.503,1.503-3.131,1.503-4.885,0-1.127-.251-2.255-.751-3.257-.376-1.127-1.002-2.004-1.753-2.756-.752-.751-1.628-1.378-2.756-1.753-1.002-.501-2.129-.751-3.257-.751s-2.255.25-3.257.751c-1.127.376-2.004,1.002-2.755,1.753-.752.752-1.378,1.628-1.754,2.756-.501,1.002-.751,2.129-.751,3.257s.251,2.254.751,3.256c.376,1.127,1.002,2.004,1.754,2.756.751.751,1.628,1.378,2.755,1.879,1.002.376,2.129.626,3.257.626,1.753,0,3.382-.501,4.76-1.503l4.133,4.133c.376.25.626.376,1.127.376.376,0,.751-.125,1.127-.376.251-.376.376-.626.376-1.127,0-.376-.125-.752-.376-1.127h0ZM12.275,12.4c-1.002,1.002-2.255,1.503-3.758,1.503s-2.755-.501-3.883-1.503c-1.002-1.127-1.503-2.38-1.503-3.883s.501-2.756,1.503-3.758c1.127-1.127,2.38-1.628,3.883-1.628s2.756.501,3.758,1.628c1.127,1.002,1.628,2.254,1.628,3.758s-.501,2.755-1.628,3.883h0ZM12.024,7.765h-2.756v-2.755s0-.125-.125-.25c0,0-.125-.125-.251-.125h-.751c-.125,0-.251.125-.251.125-.125.125-.125.25-.125.25v2.755h-2.756q-.125,0-.25.125t-.125.25v.751c0,.125,0,.25.125.25q.125.125.25.125h2.756v2.755q0,.125.125.25c0,.125.125.125.251.125h.751c.125,0,.251,0,.251-.125q.125-.125.125-.25v-2.755h2.756s.125,0,.251-.125c0,0,.125-.125.125-.25v-.751c0-.125-.125-.125-.125-.25-.125-.125-.251-.125-.251-.125h0Z" fill="#282828" fill-rule="evenodd"/>
  </g>
</svg>