<?xml version='1.0' encoding='utf-8'?>
<svg xmlns="http://www.w3.org/2000/svg" id="Layer_2" data-name="Layer 2" viewBox="0 0 164.404 179.82">
  <g id="Color" fill="#00ABF6">
    <path d="M95.973,33.491c-3.55,3.55-8.455,5.747-13.872,5.747s-10.322-2.196-13.872-5.747-5.747-8.455-5.747-13.872,2.196-10.322,5.747-13.872c3.55-3.55,8.455-5.747,13.872-5.747s10.322,2.196,13.872,5.747c3.551,3.55,5.746,8.455,5.746,13.872s-2.195,10.322-5.746,13.872h0ZM82.101,27.042c2.05,0,3.906-.831,5.249-2.174s2.174-3.199,2.174-5.249-.83-3.906-2.174-5.249c-1.343-1.343-3.199-2.174-5.249-2.174s-3.906.831-5.249,2.174c-1.343,1.343-2.174,3.199-2.174,5.249s.831,3.906,2.174,5.249c1.343,1.343,3.199,2.174,5.249,2.174Z" />
    <polygon points="20.113 94.964 48.775 115.078 0 123.626 20.113 94.964" fill-rule="evenodd" />
    <polygon points="144.291 94.964 115.629 115.078 164.404 123.626 144.291 94.964" fill-rule="evenodd" />
  </g>
  <g id="Grey" fill="#D3D3D3">
    <path d="M32.239,121.779c2.475,8.038,6.886,15.417,12.972,21.503,9.818,9.818,23.003,15.28,36.89,15.28s27.072-5.462,36.891-15.28c6.094-6.094,10.509-13.485,12.981-21.537l14.852,2.603c-3.061,11.064-8.943,21.235-17.237,29.529-12.633,12.632-29.618,19.669-47.486,19.669s-34.853-7.037-47.486-19.669c-8.286-8.286-14.164-18.444-17.229-29.496l14.853-2.603Z" fill-rule="evenodd" />
    <path d="M74.85,41.834v131.154l7.493,6.832,7.492-6.832V41.671c-2.458.861-5.068,1.312-7.733,1.312-2.492,0-4.935-.395-7.251-1.15Z" />
    <path d="M72.323,72.137c-2.069,0-3.747,1.677-3.747,3.746s1.678,3.747,3.747,3.747h20.038c2.069,0,3.746-1.678,3.746-3.747s-1.677-3.746-3.746-3.746h-20.038Z" />
  </g>
</svg>