<?xml version='1.0' encoding='utf-8'?>
<svg xmlns="http://www.w3.org/2000/svg" id="Layer_2" data-name="Layer 2" viewBox="0 0 160.703 179.817">
  <g id="Color" fill="#00ABF6">
    <path d="M136.905,153.896v-14.268c3.178-.331,6.352-.693,9.522-1.089,2.954-.37,5.909-.795,8.857-1.215,1.807-.257,3.613-.517,5.419-.78v14.233c-2.117.313-4.235.619-6.354.922-2.748.392-5.501.786-8.255,1.131-3.06.382-6.122.741-9.189,1.065Z" fill="#FE2001" />
    <path d="M95.458,156.609v-14.287c1.898-.051,3.796-.112,5.692-.183,1.848-.068,3.694-.145,5.541-.232v14.281c-1.878.089-3.756.17-5.635.239-1.866.069-3.731.131-5.599.182Z" fill="#FE2001" />
    <path d="M54.013,156.189v-14.281c1.85.087,3.7.164,5.551.233,1.894.07,3.788.131,5.682.182v14.287c-1.863-.05-3.726-.112-5.588-.181-1.882-.07-3.764-.151-5.645-.24Z" fill="#FE2001" />
    <path d="M0,150.771v-14.214c1.683.244,3.367.482,5.049.721,3.071.434,6.149.876,9.227,1.261,3.17.396,6.345.759,9.523,1.09v14.268c-3.067-.325-6.13-.684-9.19-1.066-2.956-.369-5.912-.8-8.86-1.223-1.917-.275-3.833-.554-5.749-.836Z" fill="#FE2001" />
    <path d="M160.703,110.224v-14.233c-1.806.264-3.612.522-5.419.78-2.948.42-5.903.845-8.857,1.215-3.17.395-6.345.758-9.522,1.089v14.269c3.067-.326,6.13-.685,9.189-1.066,2.754-.345,5.507-.739,8.255-1.131,2.119-.303,4.237-.608,6.354-.922Z" fill="#FE2001" />
    <path d="M106.692,115.635v-14.281c-1.847.087-3.693.164-5.541.232-1.896.07-3.794.133-5.692.183v14.287c1.867-.051,3.732-.112,5.599-.182,1.879-.069,3.757-.15,5.635-.239Z" fill="#FE2001" />
    <path d="M65.245,116.056v-14.287c-1.894-.05-3.788-.111-5.682-.182-1.851-.068-3.701-.146-5.551-.233v14.281c1.881.089,3.763.17,5.645.24,1.862.068,3.725.131,5.588.181Z" fill="#FE2001" />
    <path d="M23.799,113.343v-14.269c-3.178-.331-6.352-.693-9.523-1.09-3.078-.384-6.155-.825-9.227-1.261-1.683-.238-3.367-.477-5.049-.721v14.214c1.916.282,3.832.561,5.749.836,2.948.423,5.904.853,8.86,1.224,3.06.382,6.123.74,9.19,1.066Z" fill="#FE2001" />
  </g>
  <g id="Grey" fill="#282828">
    <path d="M106.692,98.555v-3.319c0-1.487,1.206-2.693,2.692-2.693h.051c3.998-.209,8.09-.473,12.269-.788,4.245-.321,8.329-.677,12.241-1.067v-.009c1.478-.147,2.798.933,2.946,2.412.01.096.014.191.013.285v2.888c3.067-.325,6.13-.684,9.189-1.066,2.939-.367,5.88-.79,8.813-1.208,1.933-.275,3.865-.552,5.797-.835v-20.567h0c0-.658-.239-1.318-.724-1.837l-.005.004c-21.674-23.226-22.542-64.464-22.577-67.842.005-.072.009-.145.009-.218,0-1.487-1.206-2.693-2.693-2.693h-26.558c-1.487,0-2.692,1.206-2.692,2.693h.011c0,17.352-3.24,27.801-8.1,33.846-4.251,5.287-9.874,7.173-15.617,7.427v49.329c3.802-.008,7.376-.048,10.718-.12.096-.01.193-.016.292-.016,1.487,0,2.692,1.206,2.692,2.692v3.125c1.867-.051,3.732-.112,5.599-.182,1.879-.069,3.757-.15,5.635-.24Z" fill="#282828" />
    <path d="M23.799,96.263v-2.905c0-1.487,1.206-2.692,2.693-2.692.164,0,.325.015.48.042,3.849.383,7.863.731,12.034,1.047,4.242.321,8.394.587,12.449.799l-.136,2.683.14-2.689c1.438.075,2.554,1.266,2.553,2.689v3.319c1.881.09,3.763.171,5.645.24,1.862.069,3.725.131,5.588.182v-3.125h0v-.059c.033-1.487,1.266-2.666,2.752-2.633v.01c3.408.075,7.059.116,10.949.125v-49.329c-5.743-.254-11.366-2.14-15.617-7.427-4.838-6.019-8.07-16.401-8.099-33.616.006-.076.01-.152.01-.229,0-1.487-1.205-2.693-2.693-2.693h-26.558c-1.48,0-2.685,1.197-2.693,2.68l.011.003c0,.127-.003,43.749-22.484,67.965C.317,71.137,0,71.825,0,72.586v20.581c1.809.262,3.619.52,5.428.775,3.056.433,6.119.871,9.181,1.254,3.06.383,6.123.741,9.19,1.066Z" fill="#282828" />
    <path d="M106.692,120.218v-1.785c-1.847.087-3.693.165-5.541.232-1.896.07-3.794.133-5.692.183v2.04c0,1.535-.885,2.514-2.16,3.083-.77.343-1.763.507-2.549.522-3.133.065-6.079.103-8.993.116v9.239c3.802-.008,7.376-.048,10.718-.12.096-.01.193-.016.292-.016,1.487,0,2.692,1.206,2.692,2.693v3.124c1.867-.051,3.732-.112,5.599-.182,1.879-.069,3.757-.15,5.635-.24v-3.319c0-1.487,1.206-2.693,2.692-2.693h.051c3.998-.209,8.09-.473,12.269-.788,4.245-.321,8.329-.678,12.241-1.068v-.008c1.478-.148,2.798.933,2.946,2.412.01.096.014.191.013.285v2.888c3.067-.325,6.13-.684,9.189-1.066,2.939-.367,5.88-.79,8.813-1.208,1.933-.275,3.865-.552,5.797-.835v-20.646c-1.99.294-3.982.581-5.975.865-2.763.394-5.532.791-8.302,1.138-3.17.395-6.345.758-9.522,1.089v3.146c0,1.468-1.174,2.661-2.634,2.692-4.027.4-7.943.746-11.743,1.037-3.907.299-7.96.561-12.148.785-1.237.066-2.113-.253-2.849-1.093-.641-.733-.839-1.505-.839-2.504Z" fill="#282828" />
    <path d="M50.982,123.85c-4.255-.224-8.383-.486-12.375-.788-4.013-.304-8.141-.666-12.377-1.09l.263-2.672-.268,2.68c-1.395-.139-2.434-1.319-2.425-2.694v-3.132c-3.178-.331-6.352-.693-9.523-1.089-2.969-.371-5.939-.805-8.901-1.23-1.791-.258-3.583-.517-5.374-.78v20.666c1.809.262,3.619.519,5.428.775,3.056.432,6.119.871,9.181,1.254,3.06.383,6.123.741,9.19,1.066v-2.905c0-1.487,1.206-2.692,2.693-2.692.164,0,.325.014.48.042,3.849.383,7.863.731,12.034,1.047,4.242.321,8.394.587,12.449.799l-.136,2.683.14-2.689c1.438.075,2.554,1.266,2.553,2.689h0v3.319c1.881.09,3.763.171,5.645.24,1.862.069,3.725.131,5.588.182v-3.124h0v-.06c.033-1.487,1.266-2.666,2.752-2.633v.01c3.408.075,7.059.116,10.949.125v-9.235c-3.529-.005-7.049-.049-10.837-.131-.057.003-.114.005-.171.005-1.487,0-2.693-1.205-2.693-2.692v-2.947c-1.894-.05-3.788-.111-5.682-.182-1.851-.068-3.701-.146-5.551-.233v2.745c0,1.487-1.206,2.693-2.693,2.693-.115,0-.228-.008-.338-.021Z" fill="#282828" />
    <path d="M81.756,165.163c2.914-.013,5.86-.052,8.993-.116.786-.017,1.779-.18,2.549-.522,1.275-.569,2.16-1.549,2.16-3.084v-2.039c1.898-.05,3.796-.112,5.692-.183,1.848-.067,3.694-.145,5.541-.231v1.784c0,.999.198,1.77.839,2.504.735.84,1.611,1.159,2.849,1.093,4.188-.225,8.241-.487,12.148-.785,3.8-.291,7.716-.637,11.743-1.037,1.46-.031,2.634-1.225,2.634-2.692v-3.146c3.178-.331,6.352-.693,9.522-1.089,2.77-.347,5.539-.743,8.302-1.138,1.992-.284,3.984-.571,5.975-.866v16.045c0,1.391-1.054,2.535-2.406,2.678-24.374,4.9-50.461,7.395-76.541,7.48v-14.654Z" fill="#282828" />
    <path d="M0,169.616v-16.008c1.791.264,3.583.522,5.374.78,2.962.425,5.932.858,8.901,1.229,3.17.395,6.345.758,9.523,1.089v3.132c-.009,1.375,1.03,2.556,2.425,2.694l.268-2.68-.263,2.672c4.237.423,8.364.786,12.377,1.09,3.993.302,8.121.564,12.375.788.11.014.223.021.338.021,1.487,0,2.693-1.206,2.693-2.693v-2.744c1.85.086,3.7.164,5.551.232,1.894.07,3.788.132,5.682.182v2.947c0,1.487,1.206,2.692,2.693,2.692.058,0,.115-.002.171-.005,3.788.082,7.308.126,10.837.131v14.65c-26.165-.086-52.337-2.596-76.78-7.528l-.007.01c-1.294-.261-2.182-1.409-2.16-2.683Z" fill="#282828" />
  </g>
</svg>