<?xml version='1.0' encoding='utf-8'?>
<svg xmlns="http://www.w3.org/2000/svg" id="Layer_2" data-name="Layer 2" viewBox="0 0 179.82 37.07">
  <g id="Color">
    <polygon points="21.43 6.936 22.373 14.054 27.686 23.255 38.837 37.07 33.99 23.191 28.65 13.942 21.43 6.936" fill="#FF0000" />
    <path d="M38.63,0l-11.228,13.976-1.873,3.244c-.754,1.312-.302,2.987,1.011,3.741,1.312.754,2.987.302,3.742-1.011l3.499-6.062L38.63,0Z" fill="#FF0000" />
    <polygon points="66.127 6.936 67.07 14.054 72.382 23.255 83.534 37.07 78.686 23.191 73.347 13.942 66.127 6.936" fill="#FF0000" />
    <path d="M83.326,0l-11.227,13.976-1.872,3.244c-.754,1.312-.302,2.987,1.01,3.741,1.312.754,2.988.302,3.742-1.011l3.499-6.062,4.849-13.89Z" fill="#FF0000" />
    <polygon points="110.823 6.936 111.767 14.054 117.078 23.255 128.23 37.07 123.383 23.191 118.043 13.942 110.823 6.936" fill="#FF0000" />
    <path d="M128.022,0l-11.228,13.976-1.872,3.244c-.754,1.312-.302,2.987,1.011,3.741,1.311.754,2.987.302,3.741-1.011l3.499-6.062,4.849-13.89Z" fill="#FF0000" />
    <polygon points="155.519 6.936 156.463 14.054 161.775 23.255 172.927 37.07 168.079 23.191 162.739 13.942 155.519 6.936" fill="#FF0000" />
    <path d="M172.72,0l-11.227,13.976-1.873,3.244c-.754,1.312-.302,2.987,1.011,3.741,1.311.754,2.987.302,3.741-1.011l3.499-6.062,4.85-13.89Z" fill="#FF0000" />
    <polygon points="24.301 30.135 23.357 23.018 18.045 13.815 6.894 0 11.741 13.88 17.081 23.129 24.301 30.135" fill="#FF0000" />
    <path d="M7.101,37.07l11.227-13.977,1.873-3.243c.754-1.312.302-2.987-1.011-3.741-1.312-.754-2.987-.302-3.742,1.01l-3.499,6.061-4.848,13.89Z" fill="#FF0000" />
    <polygon points="68.997 30.135 68.054 23.018 62.742 13.815 51.59 0 56.437 13.88 61.777 23.129 68.997 30.135" fill="#FF0000" />
    <path d="M51.797,37.07l11.227-13.977,1.873-3.243c.754-1.312.302-2.987-1.011-3.741-1.312-.754-2.987-.302-3.741,1.01l-3.499,6.061-4.849,13.89Z" fill="#FF0000" />
    <polygon points="113.693 30.135 112.75 23.018 107.438 13.815 96.286 0 101.134 13.88 106.474 23.129 113.693 30.135" fill="#FF0000" />
    <path d="M96.494,37.07l11.226-13.977,1.873-3.243c.754-1.312.302-2.987-1.011-3.741-1.312-.754-2.987-.302-3.741,1.01l-3.499,6.061-4.849,13.89Z" fill="#FF0000" />
    <polygon points="158.39 30.135 157.447 23.018 152.135 13.815 140.982 0 145.83 13.88 151.17 23.129 158.39 30.135" fill="#FF0000" />
    <path d="M141.19,37.07l11.227-13.977,1.873-3.243c.754-1.312.302-2.987-1.01-3.741-1.312-.754-2.988-.302-3.742,1.01l-3.499,6.061-4.849,13.89Z" fill="#FF0000" />
  </g>
  <g id="Grey">
    <path d="M4.587,13.948c-2.534,0-4.587,2.054-4.587,4.587s2.054,4.588,4.587,4.588h170.645c2.534,0,4.588-2.055,4.588-4.588s-2.054-4.587-4.588-4.587H4.587Z" fill="#FF0000" />
  </g>
</svg>