<?xml version="1.0" encoding="UTF-8"?>
<svg id="Layer_2" data-name="Layer 2" xmlns="http://www.w3.org/2000/svg" viewBox="0 0 179.819 179.797">
  <g id="Color">
    <polygon points="62.981 89.15 90.648 116.817 69.981 137.484 52.736 120.239 42.314 109.817 62.981 89.15" fill="#64b5f6" fill-rule="evenodd"/>
    <polygon points="0 110.317 23.718 134.036 54.161 125.637 30.442 101.919 0 110.317" fill="#64b5f6" fill-rule="evenodd"/>
    <polygon points="69.48 179.797 45.762 156.08 54.161 125.637 77.879 149.355 69.48 179.797" fill="#64b5f6" fill-rule="evenodd"/>
  </g>
  <g id="Grey">
    <path d="M170.923,10.875c12.174,13.221,11.853,33.992-.967,46.811l-49.082,49.083-27.225,9.075-13.848-13.848L170.923,10.875h0ZM63.98,86.175l13.842,13.842L168.944,8.895c-13.221-12.174-33.992-11.852-46.812.968l-48.959,48.959-9.192,27.353Z" fill="#424242" fill-rule="evenodd"/>
  </g>
</svg>