<?xml version="1.0" encoding="UTF-8"?>
<svg id="Layer_2" data-name="Layer 2" xmlns="http://www.w3.org/2000/svg" viewBox="0 0 144.465 179.82">
  <g id="Color">
    <polygon points="27.403 47.145 16.804 0 6.21 47.145 27.403 47.145" fill="#64b5f6" fill-rule="evenodd"/>
    <polygon points="82.83 47.145 72.231 0 61.638 47.145 82.83 47.145" fill="#64b5f6" fill-rule="evenodd"/>
    <polygon points="138.258 47.145 127.659 0 117.065 47.145 138.258 47.145" fill="#64b5f6" fill-rule="evenodd"/>
  </g>
  <g id="Grey">
    <path d="M4.019,171.783h25.573c2.218,0,4.019,1.801,4.019,4.019h0c0,2.218-1.801,4.019-4.018,4.019H4.019C1.801,179.82,0,178.02,0,175.802H0C0,173.583,1.801,171.783,4.019,171.783Z" fill="#424242"/>
    <path d="M0,93.038v72.909c0,3.209,2.627,5.835,5.835,5.835h21.94c3.208,0,5.835-2.627,5.835-5.835v-72.909H0Z" fill="#424242" fill-rule="evenodd"/>
    <path d="M5.811,49.954C3.912,69.108.195,74.257.008,90.229h33.594c-.187-15.901-3.901-21.19-5.81-40.274H5.811Z" fill="#424242" fill-rule="evenodd"/>
    <rect x="55.427" y="171.783" width="33.61" height="8.038" rx="4.019" ry="4.019" fill="#424242"/>
    <path d="M55.427,93.038v72.909c0,3.209,2.627,5.835,5.835,5.835h21.94c3.208,0,5.835-2.627,5.835-5.835v-72.909h-33.61Z" fill="#424242" fill-rule="evenodd"/>
    <path d="M61.239,49.954c-1.899,19.154-5.617,24.303-5.804,40.274h33.594c-.187-15.901-3.901-21.19-5.81-40.274h-21.979Z" fill="#424242" fill-rule="evenodd"/>
    <rect x="110.854" y="171.783" width="33.61" height="8.038" rx="4.019" ry="4.019" fill="#424242"/>
    <path d="M110.854,93.038v72.909c0,3.209,2.627,5.835,5.835,5.835h21.94c3.208,0,5.835-2.627,5.835-5.835v-72.909h-33.61Z" fill="#424242" fill-rule="evenodd"/>
    <path d="M116.666,49.954c-1.898,19.154-5.616,24.303-5.804,40.274h33.595c-.187-15.901-3.902-21.19-5.811-40.274h-21.98Z" fill="#424242" fill-rule="evenodd"/>
  </g>
</svg>