<?xml version="1.0" encoding="UTF-8"?>
<svg id="Layer_2" data-name="Layer 2" xmlns="http://www.w3.org/2000/svg" viewBox="0 0 106.929 179.82">
  <g id="Color">
    <path d="M24.731,87.175h57.468c3.56,0,6.471,2.913,6.471,6.472v79.702c0,3.559-2.911,6.471-6.471,6.471H24.731c-3.56,0-6.471-2.912-6.471-6.471v-79.702c0-3.559,2.911-6.472,6.471-6.472h0ZM32.697,101.932c-1.552,0-2.81,1.258-2.81,2.81s1.258,2.81,2.81,2.81h41.536c1.552,0,2.81-1.258,2.81-2.81s-1.258-2.81-2.81-2.81h-41.536ZM32.697,121.103c-1.552,0-2.81,1.258-2.81,2.81s1.258,2.81,2.81,2.81h41.536c1.552,0,2.81-1.258,2.81-2.81s-1.258-2.81-2.81-2.81h-41.536ZM32.697,140.274c-1.552,0-2.81,1.258-2.81,2.81s1.258,2.81,2.81,2.81h41.536c1.552,0,2.81-1.258,2.81-2.81s-1.258-2.81-2.81-2.81h-41.536ZM32.697,159.444c-1.552,0-2.81,1.258-2.81,2.81s1.258,2.81,2.81,2.81h41.536c1.552,0,2.81-1.258,2.81-2.81s-1.258-2.81-2.81-2.81h-41.536Z" fill="#64b5f6" fill-rule="evenodd"/>
  </g>
  <g id="Grey">
    <path d="M53.464,70.541c3.377,0,6.434,1.369,8.646,3.582,2.212,2.212,3.581,5.27,3.581,8.646,0,.541-.035,1.074-.104,1.597h-5.962c.132-.51.202-1.046.202-1.597,0-1.757-.713-3.349-1.864-4.5s-2.742-1.864-4.5-1.864-3.348.712-4.499,1.864-1.864,2.743-1.864,4.5c0,.551.07,1.087.202,1.597h-5.962c-.068-.523-.103-1.056-.103-1.597,0-3.376,1.369-6.434,3.581-8.646,2.213-2.212,5.27-3.582,8.646-3.582Z" fill="#424242"/>
    <path d="M99.788,6.322v.002c-.054-.026-.106-.054-.155-.083h0l-.012-.006-.05-.03-.01-.007-.052-.032c-.651-.334-1.389-.391-2.065-.209-.723.193-1.367.652-1.757,1.328l.009.011c-.034.059-.07.115-.106.17l-5.27,9.126.007.004c-.031.054-.064.106-.099.158-.314.642-.364,1.363-.186,2.029.192.717.653,1.359,1.336,1.754l.004-.006c.055.032.106.065.158.099.643.314,1.363.364,2.029.186.718-.192,1.361-.654,1.757-1.339l5.369-9.3c.393-.68.47-1.468.276-2.188-.18-.67-.586-1.273-1.184-1.667h0ZM102.341,1.046l.009.004.047.023.013.006h0c.053.026.104.054.155.084l-.003.006.003.002-.003.005c2.089,1.209,3.491,3.149,4.068,5.302.578,2.159.334,4.543-.872,6.632l-5.369,9.299c-1.204,2.084-3.147,3.486-5.308,4.065-2.054.55-4.314.354-6.328-.71-.181-.078-.354-.175-.518-.29-1.967-1.211-3.292-3.094-3.851-5.179-.551-2.056-.354-4.319.714-6.335.044-.101.094-.2.149-.296h.009l5.267-9.123c.029-.059.061-.119.094-.177l.006.003.003-.003.005.003c1.208-2.089,3.148-3.491,5.302-4.068,2.081-.558,4.374-.35,6.408.747Z" fill="#424242"/>
    <path d="M77.054,44.845c-1.967-1.211-3.293-3.094-3.852-5.181-.577-2.153-.333-4.533.871-6.62l-.008-.011c.033-.058.069-.114.105-.169l5.27-9.126-.006-.003c.057-.099.119-.192.184-.281,1.217-1.932,3.077-3.233,5.131-3.784,2.105-.564,4.424-.346,6.476.784v-.003c.054.026.105.054.156.083h0l.011.007.05.029.011.007c.048.029.095.06.142.092,1.967,1.211,3.293,3.094,3.852,5.18.577,2.153.333,4.533-.871,6.62l.008.012c-.034.058-.069.114-.106.17l-5.164,8.944c-.067.138-.144.27-.232.395-1.21,1.968-3.095,3.296-5.182,3.855-2.079.557-4.368.351-6.401-.744-.131-.061-.256-.131-.376-.21l-.067-.045h0ZM78.86,38.153c.181.674.599,1.283,1.216,1.682.042.022.083.044.124.067l-.004.006.003.002h.001c.68.393,1.468.469,2.188.276.674-.18,1.283-.599,1.682-1.216.021-.041.044-.082.067-.123l.006.003.002-.003h0l5.267-9.123c.028-.06.06-.119.094-.177l.006.003.002-.003.005.002c.39-.68.465-1.468.271-2.19-.181-.674-.6-1.283-1.217-1.682-.041-.021-.082-.044-.123-.067l.004-.006-.003-.002h-.001c-.68-.393-1.468-.469-2.188-.276-.665.178-1.263.58-1.659,1.169-.027.057-.058.114-.09.17h-.008l-5.268,9.123c-.029.059-.06.118-.094.176l-.006-.003-.002.003-.005-.003c-.39.681-.465,1.469-.271,2.191Z" fill="#424242"/>
    <path d="M77.395,45.05c-.1-.051-.196-.108-.288-.17-.642-.314-1.363-.363-2.027-.185-.672.18-1.279.597-1.679,1.211-.065.126-.138.246-.219.36l-5.093,8.82c-.065.142-.141.279-.228.408-.312.642-.362,1.362-.184,2.027.18.672.597,1.279,1.211,1.678.095.048.185.103.274.161l.015.01c.642.314,1.362.363,2.027.185.717-.192,1.359-.653,1.755-1.336l-.006-.003c.046-.079.095-.155.147-.229l5.23-9.059h0l.003-.005-.012-.007c.032-.054.064-.107.1-.158.314-.642.363-1.364.185-2.029-.181-.672-.597-1.279-1.212-1.679h0ZM73.568,39.038c2.054-.55,4.314-.354,6.328.711.18.078.353.174.518.289,1.967,1.211,3.292,3.094,3.851,5.18.551,2.053.353,4.314-.711,6.328-.08.186-.181.365-.301.534l-5.097,8.827c-.037.081-.078.162-.124.241h-.009c-1.203,2.085-3.146,3.486-5.307,4.065-2.056.551-4.318.353-6.335-.715h-.004s-.002-.003-.002-.003l-.058-.026-.017-.007-.052-.025-.01-.005h0c-.053-.026-.105-.054-.155-.083v-.008c-2.085-1.203-3.486-3.146-4.065-5.307-.551-2.056-.353-4.317.714-6.334.044-.101.094-.2.15-.298l.011.006,5.233-9.064c.037-.082.079-.163.125-.242h.008c1.204-2.084,3.146-3.486,5.308-4.064Z" fill="#424242"/>
    <path d="M51.501,72.161c-.733,1.435-.164,3.195,1.272,3.928,1.436.734,3.195.165,3.929-1.271.01-.019,0,0,.031-.055l.009.005c.013-.023.024-.044.036-.067h0c.033-.057.065-.116.094-.176l5.267-9.123h.008c.032-.056.062-.112.09-.169.396-.59.994-.992,1.659-1.17.722-.193,1.51-.118,2.19.271l-.003.005.004.002-.004.006c.041.023.081.045.123.067.617.399,1.035,1.008,1.216,1.682.194.722.119,1.51-.27,2.191l-.005-.003-.002.003-.007-.003c-.033.058-.065.117-.094.177l-5.267,9.123h-.009c-.03.052-.059.106-.085.159-.081.119-.178.238-.288.358-.149.161-.31.3-.476.414-1.329.917-1.662,2.737-.745,4.066.917,1.328,2.737,1.662,4.065.745.532-.366,1.023-.788,1.462-1.262.346-.375.67-.8.966-1.275.065-.087.124-.178.179-.274l-.006-.003,5.27-9.126c.037-.055.072-.112.106-.17l-.008-.012c1.204-2.086,1.448-4.467.871-6.62-.56-2.087-1.887-3.972-3.855-5.183-.159-.111-.33-.207-.511-.285-2.016-1.065-4.276-1.262-6.331-.711-2.053.55-3.914,1.852-5.131,3.784l-.018.025-.004.005c-.1.137-.186.283-.262.436l-5.164,8.944c-.036.055-.072.112-.105.17l.005.003c-.038.06-.075.121-.109.184h0s-.004.009-.004.009l.009.005c-.016.028-.049.092-.1.19h0ZM56.735,74.755h0c-.003.005-.004.006,0,0Z" fill="#424242"/>
    <path d="M7.141,6.322v.002c.054-.026.104-.054.155-.083h0l.012-.006.05-.03.011-.007.051-.032c.651-.334,1.389-.391,2.065-.209.723.193,1.366.652,1.757,1.328l-.009.011c.034.059.07.115.106.17l5.269,9.126-.007.004c.032.054.064.106.099.158.314.642.364,1.363.185,2.029-.191.717-.652,1.359-1.335,1.754l-.004-.006c-.054.032-.106.065-.158.099-.642.314-1.363.364-2.029.186-.718-.192-1.362-.654-1.757-1.339l-5.369-9.3c-.393-.68-.47-1.468-.276-2.188.18-.67.587-1.273,1.184-1.667h0ZM4.588,1.046l-.009.004-.047.023-.013.006h0c-.053.026-.104.054-.155.084l.003.006-.003.002.003.005C2.279,2.385.876,4.325.299,6.478c-.578,2.159-.334,4.543.872,6.632l5.369,9.299c1.203,2.084,3.146,3.486,5.308,4.065,2.054.55,4.313.354,6.328-.71.181-.078.353-.175.518-.29,1.966-1.211,3.292-3.094,3.85-5.179.551-2.056.354-4.319-.714-6.335-.044-.101-.094-.2-.149-.296h-.009l-5.267-9.123c-.029-.059-.061-.119-.094-.177l-.006.003-.003-.003-.005.003c-1.209-2.089-3.148-3.491-5.302-4.068C8.915-.259,6.622-.051,4.588,1.046Z" fill="#424242"/>
    <path d="M29.875,44.845c1.967-1.211,3.293-3.094,3.852-5.181.577-2.153.333-4.533-.872-6.62l.009-.011c-.033-.058-.069-.114-.105-.169l-5.27-9.126.006-.003c-.057-.099-.118-.192-.184-.281-1.217-1.932-3.077-3.233-5.131-3.784-2.104-.564-4.424-.346-6.476.784v-.003c-.054.026-.105.054-.156.083h0l-.011.007-.05.029-.011.007c-.048.029-.095.06-.141.092-1.968,1.211-3.294,3.094-3.853,5.18-.577,2.153-.333,4.533.871,6.62l-.008.012c.034.058.069.114.106.17l5.164,8.944c.067.138.144.27.232.395,1.21,1.968,3.094,3.296,5.182,3.855,2.079.557,4.368.351,6.401-.744.131-.061.257-.131.376-.21l.067-.045h0ZM28.07,38.153c-.181.674-.6,1.283-1.216,1.682-.042.022-.083.044-.124.067l.004.006-.003.002h0c-.68.393-1.468.469-2.187.276-.674-.18-1.283-.599-1.682-1.216-.021-.041-.044-.082-.067-.123l-.006.003-.002-.003h0l-5.267-9.123c-.029-.06-.061-.119-.095-.177l-.006.003-.002-.003-.005.002c-.39-.68-.465-1.468-.271-2.19.181-.674.6-1.283,1.217-1.682.041-.021.082-.044.123-.067l-.004-.006.004-.002h0c.68-.393,1.468-.469,2.187-.276.665.178,1.264.58,1.658,1.169.028.057.059.114.091.17h.008l5.268,9.123c.029.059.06.118.094.176l.006-.003.002.003.005-.003c.39.681.465,1.469.271,2.191Z" fill="#424242"/>
    <path d="M29.534,45.05c.1-.051.195-.108.288-.17.642-.314,1.362-.363,2.027-.185.672.18,1.279.597,1.679,1.211.065.126.138.246.219.36l5.092,8.82c.065.142.142.279.228.408.312.642.363,1.362.184,2.027-.18.672-.597,1.279-1.211,1.678-.095.048-.186.103-.274.161l-.015.01c-.642.314-1.362.363-2.027.185-.717-.192-1.359-.653-1.755-1.336l.006-.003c-.046-.079-.095-.155-.146-.229l-5.23-9.059h0l-.003-.005.012-.007c-.032-.054-.064-.107-.099-.158-.315-.642-.364-1.364-.187-2.029.181-.672.597-1.279,1.212-1.679h0ZM33.362,39.038c-2.054-.55-4.313-.354-6.328.711-.18.078-.352.174-.518.289-1.967,1.211-3.292,3.094-3.851,5.18-.551,2.053-.353,4.314.711,6.328.08.186.181.365.301.534l5.097,8.827c.037.081.078.162.124.241h.008c1.204,2.085,3.147,3.486,5.308,4.065,2.056.551,4.318.353,6.335-.715h.004s.002-.003.002-.003l.058-.026.017-.007.053-.025.009-.005h0c.053-.026.104-.054.155-.083v-.008c2.085-1.203,3.486-3.146,4.065-5.307.551-2.056.353-4.317-.714-6.334-.045-.101-.094-.2-.15-.298l-.011.006-5.233-9.064c-.037-.082-.079-.163-.125-.242h-.008c-1.204-2.084-3.146-3.486-5.308-4.064Z" fill="#424242"/>
    <path d="M55.427,72.161c.734,1.435.165,3.195-1.271,3.928-1.436.734-3.195.165-3.929-1.271-.01-.019,0,0-.031-.055l-.009.005c-.013-.023-.024-.044-.036-.067h-.001c-.033-.057-.065-.116-.095-.176l-5.267-9.123h-.008c-.032-.056-.062-.112-.09-.169-.396-.59-.994-.992-1.659-1.17-.722-.193-1.51-.118-2.19.271l.003.005-.004.002.004.006c-.041.023-.081.045-.123.067-.617.399-1.035,1.008-1.217,1.682-.193.722-.118,1.51.271,2.191l.005-.003.003.003.006-.003c.033.058.064.117.094.177l5.267,9.123h.009c.03.052.059.106.085.159.081.119.178.238.288.358.149.161.31.3.477.414,1.328.917,1.661,2.737.744,4.066-.917,1.328-2.737,1.662-4.065.745-.532-.366-1.023-.788-1.462-1.262-.346-.375-.67-.8-.966-1.275-.064-.087-.124-.178-.179-.274l.006-.003-5.269-9.126c-.037-.055-.072-.112-.106-.17l.009-.012c-1.205-2.086-1.449-4.467-.872-6.62.559-2.087,1.887-3.972,3.855-5.183.159-.111.33-.207.511-.285,2.016-1.065,4.276-1.262,6.331-.711,2.054.55,3.914,1.852,5.131,3.784l.019.025.003.005c.1.137.187.283.262.436l5.163,8.944c.037.055.073.112.106.17l-.005.003c.039.06.075.121.109.184h0s.004.009.004.009l-.009.005c.016.028.049.092.099.19h0ZM50.195,74.755h0c.003.005.004.006,0,0Z" fill="#424242"/>
  </g>
</svg>