<?xml version='1.0' encoding='utf-8'?>
<svg xmlns="http://www.w3.org/2000/svg" id="Layer_2" data-name="Layer 2" viewBox="0 0 148.547 179.819">
  <g id="Color" fill="#00ABF6">
    <path d="M18.234,71.179c2.644,0,4.786,11.952,4.786,26.695s-2.143,26.695-4.786,26.695-4.787-11.952-4.787-26.695,2.144-26.695,4.787-26.695Z" fill-rule="evenodd" />
    <polygon points="18.234 119.268 18.173 119.3 12.301 122.36 12.301 132.125 18.234 129.031 24.167 132.125 24.167 122.36 18.295 119.3 18.234 119.268" fill-rule="evenodd" />
    <path d="M130.314,71.179c2.644,0,4.786,11.952,4.786,26.695s-2.143,26.695-4.786,26.695-4.787-11.952-4.787-26.695,2.144-26.695,4.787-26.695Z" fill-rule="evenodd" />
    <polygon points="130.314 119.268 130.252 119.3 124.38 122.36 124.38 132.125 130.314 129.031 136.246 132.125 136.246 122.36 130.374 119.3 130.314 119.268" fill-rule="evenodd" />
    <path d="M74.273,51.146c-2.324,0-4.116,5.16-4.633,6.856-1.69,5.554-2.249,12.1-2.249,17.883s.559,12.329,2.249,17.883c.517,1.696,2.309,6.856,4.633,6.856s4.116-5.16,4.633-6.856c1.691-5.554,2.249-12.1,2.249-17.883s-.558-12.329-2.249-17.883c-.517-1.696-2.309-6.856-4.633-6.856Z" fill-rule="evenodd" />
  </g>
  <g id="Grey" fill="#282828">
    <path d="M54.728,58.636L0,97.408v22.311l54.728-20.135v39.157l-33.303,23.593v13.576l33.303-12.252v12.251l11.727,3.91h15.637l11.727-3.91v-12.251l33.302,12.252v-13.576l-33.302-23.593v-39.157l54.728,20.135v-22.311l-54.728-38.772L74.273,0l-19.545,58.636h0ZM74.273,47.4c4.686,0,7.081,5.783,8.216,9.512,1.803,5.918,2.412,12.809,2.412,18.974s-.609,13.055-2.412,18.974c-1.135,3.728-3.53,9.512-8.216,9.512s-7.081-5.783-8.216-9.512c-1.803-5.919-2.412-12.81-2.412-18.974s.609-13.056,2.412-18.974c1.135-3.728,3.53-9.512,8.216-9.512h0ZM67.217,148.546h14.875l-7.438,23.455-7.438-23.455Z" fill-rule="evenodd" fill="#D3D3D3" />
  </g>
</svg>