<?xml version='1.0' encoding='utf-8'?>
<svg xmlns="http://www.w3.org/2000/svg" id="Layer_2" data-name="Layer 2" viewBox="0 0 145.978 179.819">
  <g id="Color">
    <rect y="38.867" width="24.849" height="15.921" fill="#D6E101" />
    <rect y="128.777" width="24.849" height="15.921" fill="#D6E101" />
    <rect x="27.658" y="128.777" width="43.926" height="15.921" fill="#D6E101" />
    <rect x="27.658" y="38.867" width="43.926" height="15.921" fill="#D6E101" />
    <rect x="74.394" y="38.867" width="43.926" height="15.921" fill="#D6E101" />
    <rect x="74.394" y="128.777" width="43.926" height="15.921" fill="#D6E101" />
    <rect x="121.129" y="128.777" width="24.849" height="15.921" fill="#D6E101" />
    <rect x="121.129" y="38.867" width="24.849" height="15.921" fill="#D6E101" />
    <path d="M72.989,66.269c6.983,0,13.305,2.831,17.881,7.407,4.576,4.576,7.407,10.897,7.407,17.88s-2.831,13.305-7.407,17.881c-4.576,4.576-10.898,7.406-17.881,7.406s-13.304-2.83-17.88-7.406c-4.576-4.576-7.407-10.898-7.407-17.881s2.831-13.304,7.407-17.88c4.576-4.576,10.898-7.407,17.88-7.407h0ZM72.989,72.336l-2.81,19.22c0,1.111.645,2.072,1.582,2.528l14.249,4.994-10.211-9.137-2.81-17.605Z" fill="#D6E101" />
  </g>
  <g id="Grey">
    <path d="M73.487,91.644v.068l.125.044-.125-.112h0ZM73.487,119.647c7.291-.128,14.202-3.058,19.369-8.225,5.284-5.284,8.229-12.393,8.229-19.867s-2.945-14.582-8.229-19.867c-5.167-5.166-12.078-8.097-19.369-8.225v-5.865h43.926v68.368h-43.926v-6.319Z" fill="#00ABF6" fill-rule="evenodd" />
    <path d="M0,21.963v14.095h24.849v-14.095c0-7.452,3.33-14.161,8.577-18.711-3.342-2.061-7.269-3.252-11.463-3.252C9.883,0,0,9.883,0,21.963Z" fill="#00ABF6" fill-rule="evenodd" />
    <rect y="57.599" width="24.849" height="68.368" fill="#00ABF6" />
    <path d="M0,157.856c0,12.08,9.883,21.963,21.963,21.963,4.193,0,8.121-1.191,11.463-3.252-5.247-4.55-8.578-11.259-8.578-18.711v-10.349H0v10.349Z" fill="#00ABF6" fill-rule="evenodd" />
    <path d="M27.658,157.856c0,12.08,9.883,21.963,21.963,21.963s21.963-9.883,21.963-21.963v-10.349H27.658v10.349Z" fill="#00ABF6" fill-rule="evenodd" />
    <path d="M27.658,57.599v68.368h43.926v-6.349c-6.956-.345-13.51-3.243-18.463-8.195-5.284-5.284-8.229-12.393-8.229-19.867s2.945-14.582,8.229-19.867c4.953-4.952,11.506-7.85,18.463-8.194v-5.896H27.658Z" fill="#00ABF6" fill-rule="evenodd" />
    <path d="M27.658,21.963v14.095h43.926v-14.095c0-12.08-9.883-21.963-21.963-21.963s-21.963,9.883-21.963,21.963Z" fill="#00ABF6" fill-rule="evenodd" />
    <path d="M74.394,21.963v14.095h43.926v-14.095c0-12.08-9.883-21.963-21.963-21.963s-21.963,9.883-21.963,21.963Z" fill="#00ABF6" fill-rule="evenodd" />
    <path d="M74.394,157.856c0,12.08,9.883,21.963,21.963,21.963s21.963-9.883,21.963-21.963v-10.349h-43.926v10.349Z" fill="#00ABF6" fill-rule="evenodd" />
    <path d="M121.129,157.856c0,7.452-3.33,14.161-8.578,18.711,3.342,2.06,7.27,3.252,11.463,3.252,12.08,0,21.963-9.883,21.963-21.963v-10.349h-24.849v10.349Z" fill="#00ABF6" fill-rule="evenodd" />
    <rect x="121.129" y="57.599" width="24.849" height="68.368" fill="#00ABF6" />
    <path d="M112.552,3.252c5.247,4.55,8.578,11.259,8.578,18.711v14.095h24.849v-14.095c0-12.08-9.883-21.963-21.963-21.963-4.193,0-8.121,1.191-11.463,3.252Z" fill="#00ABF6" fill-rule="evenodd" />
  </g>
</svg>