<?xml version='1.0' encoding='utf-8'?>
<svg xmlns="http://www.w3.org/2000/svg" id="Layer_2" data-name="Layer 2" viewBox="0 0 179.82 110.424">
  <g id="Color">
    <path d="M43.329,72.393c10.502,0,19.016,8.514,19.016,19.015s-8.514,19.017-19.016,19.017-19.015-8.514-19.015-19.017,8.514-19.015,19.015-19.015h0ZM43.329,87.54c-2.136,0-3.868,1.731-3.868,3.867s1.731,3.868,3.868,3.868,3.868-1.731,3.868-3.868-1.731-3.867-3.868-3.867h0ZM43.329,79.399c-1.068,0-1.934.865-1.934,1.934s.866,1.934,1.934,1.934,1.934-.865,1.934-1.934-.866-1.934-1.934-1.934h0ZM43.329,99.549c-1.068,0-1.934.865-1.934,1.934s.866,1.934,1.934,1.934,1.934-.865,1.934-1.934-.866-1.934-1.934-1.934h0ZM53.728,85.403c-.534-.925-1.716-1.241-2.641-.707-.925.533-1.241,1.716-.707,2.641.534.925,1.716,1.242,2.641.708.925-.534,1.241-1.717.707-2.642h0ZM36.279,95.478c-.534-.925-1.717-1.242-2.641-.708-.925.534-1.242,1.717-.708,2.641.534.926,1.716,1.242,2.641.708.925-.533,1.242-1.716.708-2.641h0ZM53.728,97.411c.534-.924.217-2.106-.707-2.641-.925-.534-2.107-.217-2.641.708-.534.925-.217,2.107.707,2.641.925.534,2.107.218,2.641-.708h0ZM36.279,87.337c.534-.925.217-2.107-.708-2.641-.925-.534-2.107-.218-2.641.707-.534.925-.217,2.107.708,2.642.924.534,2.107.217,2.641-.708Z" fill="#FF931D" fill-rule="evenodd" />
    <path d="M136.991,72.393c10.502,0,19.015,8.514,19.015,19.015s-8.513,19.017-19.015,19.017-19.016-8.514-19.016-19.017,8.514-19.015,19.016-19.015h0ZM136.991,87.54c-2.136,0-3.868,1.731-3.868,3.867s1.731,3.868,3.868,3.868,3.868-1.731,3.868-3.868-1.732-3.867-3.868-3.867h0ZM136.991,79.399c-1.068,0-1.934.865-1.934,1.934s.866,1.934,1.934,1.934,1.934-.865,1.934-1.934-.866-1.934-1.934-1.934h0ZM136.991,99.549c-1.068,0-1.934.865-1.934,1.934s.866,1.934,1.934,1.934,1.934-.865,1.934-1.934-.866-1.934-1.934-1.934h0ZM147.39,85.403c-.534-.925-1.716-1.241-2.641-.707-.925.533-1.242,1.716-.708,2.641.534.925,1.716,1.242,2.641.708.925-.534,1.242-1.717.707-2.642h0ZM129.94,95.478c-.534-.925-1.716-1.242-2.641-.708-.925.534-1.242,1.717-.707,2.641.534.926,1.716,1.242,2.641.708.925-.533,1.241-1.716.708-2.641h0ZM147.39,97.411c.534-.924.217-2.106-.707-2.641-.925-.534-2.107-.217-2.641.708-.534.925-.217,2.107.708,2.641.924.534,2.107.218,2.641-.708h0ZM129.94,87.337c.534-.925.217-2.107-.708-2.641-.925-.534-2.107-.218-2.641.707-.534.925-.217,2.107.707,2.642.925.534,2.107.217,2.641-.708Z" fill="#FF931D" fill-rule="evenodd" />
  </g>
  <g id="Grey">
    <path d="M174.207,91.407v-53.298h-53.32c-.091,2.274-.483,4.475-1.135,6.562h-22.688c-1.441,0-2.61,1.168-2.61,2.61v15.427h-35.042v-24.6L6.113,46.31v45.098h15.3c0-12.103,9.813-21.916,21.916-21.916s21.916,9.813,21.916,21.916h49.829c0-12.103,9.813-21.916,21.916-21.916s21.916,9.813,21.916,21.916h15.3Z" fill="#808080" fill-rule="evenodd" />
    <path d="M69.452,10.306c.494-1.521-.338-3.154-1.858-3.648-1.521-.494-3.154.338-3.649,1.858l-10.654,32.602c-.495,1.52.337,3.154,1.858,3.649,1.521.494,3.154-.338,3.649-1.858l10.655-32.603Z" fill="#808080" />
    <path d="M124.732,25.06c0-1.067-.866-1.934-1.934-1.934s-1.934.866-1.934,1.934v14.623c0,1.067.866,1.934,1.934,1.934s1.934-.866,1.934-1.934v-14.623Z" fill="#808080" />
    <path d="M136.109,2.901c0-1.603-1.299-2.901-2.901-2.901s-2.901,1.299-2.901,2.901v35.208c0,1.602,1.299,2.901,2.901,2.901s2.901-1.299,2.901-2.901V2.901Z" fill="#808080" />
    <path d="M134.931,5.516c-1.283-.95-3.094-.682-4.045.601-.951,1.283-.682,3.095.601,4.046,13.092,10.864,26.184,21.728,39.276,32.594l3.322.087.123-4.733-.437-.363L134.931,5.516Z" fill="#808080" />
    <path d="M8.779,92.845c1.602,0,2.901-1.299,2.901-2.9s-1.299-2.901-2.901-2.901H2.901c-1.602,0-2.901,1.299-2.901,2.901s1.299,2.9,2.901,2.9h5.878Z" fill="#808080" />
    <path d="M56.86,61.416c-.684.818-.576,2.035.242,2.72.817.684,2.035.575,2.719-.242l18.887-22.631c.684-.817-.085-1.436-.903-2.121-.818-.684-1.374-1.174-2.058-.356l-18.888,22.631Z" fill="#808080" />
    <path d="M73.53,28.819c.066-.057.135-.11.204-.161l1.141,1.556-1.143-1.561c.073-.053.148-.1.226-.142,1.327-.835,3.016-.748,4.771.101,1.438.694,2.993,1.942,4.393,3.599.267.316.555.685.861,1.105,1.489,2.042,2.482,4.22,2.884,6.09.499,2.322.119,4.342-1.26,5.508-.066.056-.135.11-.205.16l-1.141-1.556,1.143,1.561c-.073.053-.148.101-.226.143-1.327.835-3.016.747-4.772-.101-1.438-.694-2.992-1.942-4.393-3.599-.267-.316-.555-.685-.862-1.106-1.489-2.042-2.482-4.22-2.884-6.089-.499-2.323-.119-4.343,1.26-5.508h0ZM76.044,31.754l-.027.02-.002-.003c-.191.18-.166.836.032,1.755.298,1.384,1.062,3.035,2.22,4.624.2.273.433.567.696.879,1.05,1.242,2.153,2.148,3.124,2.617.505.243.868.367,1.008.332l.027-.02.002.003c.191-.18.165-.835-.032-1.754-.298-1.385-1.062-3.036-2.22-4.624-.199-.273-.432-.568-.695-.879-1.05-1.242-2.153-2.148-3.123-2.617-.505-.243-.868-.368-1.009-.333Z" fill="#808080" />
    <path d="M176.919,92.845c1.602,0,2.901-1.299,2.901-2.9s-1.299-2.901-2.901-2.901h-5.878c-1.602,0-2.901,1.299-2.901,2.901s1.299,2.9,2.901,2.9h5.878Z" fill="#808080" />
  </g>
</svg>