<?xml version='1.0' encoding='utf-8'?>
<svg xmlns="http://www.w3.org/2000/svg" id="Layer_2" data-name="Layer 2" viewBox="0 0 179.82 177.807">
  <g id="Color" fill="#00ABF6">
    <path d="M6.375,104.016c0,1.601,1.299,2.9,2.9,2.9s2.9-1.299,2.9-2.9v-13.079c0-1.602-1.299-2.9-2.9-2.9s-2.9,1.299-2.9,2.9v13.079Z" />
    <path d="M20.952,93.935c0,1.602,1.299,2.9,2.9,2.9s2.9-1.298,2.9-2.9v-13.079c0-1.602-1.299-2.9-2.9-2.9s-2.9,1.299-2.9,2.9v13.079Z" />
    <path d="M34.702,84.423c0,1.602,1.299,2.9,2.9,2.9s2.9-1.298,2.9-2.9v-13.079c0-1.602-1.299-2.9-2.9-2.9s-2.9,1.299-2.9,2.9v13.079Z" />
    <path d="M48.452,74.912c0,1.602,1.299,2.9,2.9,2.9s2.9-1.298,2.9-2.9v-13.079c0-1.602-1.299-2.9-2.9-2.9s-2.9,1.299-2.9,2.9v13.079Z" />
    <path d="M173.445,104.016c0,1.601-1.299,2.9-2.9,2.9s-2.9-1.299-2.9-2.9v-13.079c0-1.602,1.299-2.9,2.9-2.9s2.9,1.299,2.9,2.9v13.079Z" />
    <path d="M158.868,93.935c0,1.602-1.298,2.9-2.9,2.9s-2.9-1.298-2.9-2.9v-13.079c0-1.602,1.299-2.9,2.9-2.9s2.9,1.299,2.9,2.9v13.079Z" />
    <path d="M145.118,84.423c0,1.602-1.299,2.9-2.9,2.9s-2.9-1.298-2.9-2.9v-13.079c0-1.602,1.299-2.9,2.9-2.9s2.9,1.299,2.9,2.9v13.079Z" />
    <path d="M131.368,74.912c0,1.602-1.299,2.9-2.9,2.9s-2.9-1.298-2.9-2.9v-13.079c0-1.602,1.299-2.9,2.9-2.9s2.9,1.299,2.9,2.9v13.079Z" />
    <path d="M83.112,70.22c0,5.658.554,12.069,2.225,17.499.515,1.675,2.282,6.701,4.573,6.701s4.059-5.026,4.574-6.701c1.671-5.43,2.224-11.84,2.224-17.499s-.553-12.069-2.224-17.498c-.516-1.675-2.283-6.701-4.574-6.701s-4.059,5.026-4.573,6.701c-1.671,5.43-2.225,11.84-2.225,17.498Z" fill-rule="evenodd" />
  </g>
  <g id="Grey" fill="#282828">
    <path d="M89.91,0c9.169,17.027,19.98,39.605,19.98,58.644l69.93,48.406v23.683l-69.93-18.261v32.036l33.3,17.526v11.278l-33.3-3.33v-12.246c0,10.989-8.991,12.246-19.98,12.246h0c-10.989,0-19.98-1.257-19.98-12.246v12.246l-33.299,3.33v-11.278l33.299-17.526v-32.036L0,130.732v-23.683l69.93-48.406c0-19.038,10.811-41.616,19.98-58.644h0ZM80.304,70.22c0,5.947.592,12.619,2.348,18.325.989,3.217,3.167,8.685,7.259,8.685s6.27-5.468,7.26-8.685c1.755-5.706,2.348-12.377,2.348-18.325s-.593-12.619-2.348-18.325c-.99-3.217-3.168-8.685-7.26-8.685s-6.27,5.468-7.259,8.685c-1.756,5.706-2.348,12.377-2.348,18.325Z" fill-rule="evenodd" fill="#D3D3D3" />
    <polygon points="82.672 167.212 97.148 167.456 97.148 177.807 82.672 177.807 82.672 167.212" fill-rule="evenodd" fill="#D3D3D3" />
  </g>
</svg>