<?xml version='1.0' encoding='utf-8'?>
<svg xmlns="http://www.w3.org/2000/svg" id="Layer_2" data-name="Layer 2" viewBox="0 0 179.82 80.636">
  <g id="Color" fill="#00ABF6">
    <path d="M80.586,14.795h12.523c.407,0,.74.333.74.741v3.487h-14.004v-3.487c0-.408.333-.741.741-.741h0ZM93.85,21.833v3.127h-14.004v-3.127h14.004ZM93.85,27.77v3.127h-14.004v-3.127h14.004ZM93.85,33.707v3.127h-14.004v-3.127h14.004ZM93.85,39.644v3.127h-14.004v-3.127h14.004ZM93.85,45.58v3.127h-14.004v-3.127h14.004ZM93.85,51.517v3.127h-14.004v-3.127h14.004ZM93.85,57.454v2.267c0,.408-.333.741-.74.741h-12.523c-.407,0-.741-.333-.741-.741v-2.267h14.004Z" fill-rule="evenodd" />
  </g>
  <g id="Grey" fill="#282828">
    <path d="M133.666,33.072c.306-1.57-.718-3.092-2.289-3.399-1.57-.306-3.092.718-3.398,2.288l-8.849,45.219c-.306,1.57.719,3.092,2.289,3.399,1.57.306,3.092-.719,3.398-2.289l8.849-45.219Z" fill="#D3D3D3" />
    <path d="M118.233,74.836c-1.601,0-2.899,1.298-2.899,2.9s1.298,2.9,2.899,2.9h7.613c1.602,0,2.9-1.298,2.9-2.9s-1.299-2.9-2.9-2.9h-7.613Z" fill="#D3D3D3" />
    <path d="M133.666,31.962c-.307-1.57-1.829-2.595-3.399-2.288-1.57.307-2.595,1.829-2.288,3.399l8.849,45.219c.306,1.57,1.828,2.595,3.397,2.289,1.571-.307,2.596-1.829,2.289-3.399l-8.848-45.219Z" fill="#D3D3D3" />
    <path d="M143.41,80.636c1.601,0,2.9-1.298,2.9-2.9s-1.299-2.9-2.9-2.9h-7.612c-1.602,0-2.9,1.298-2.9,2.9s1.299,2.9,2.9,2.9h7.612Z" fill="#D3D3D3" />
    <polygon points="0 9.874 7.325 15.097 39.169 15.097 39.169 28.153 9.875 33.376 0 43.821 0 9.874" fill-rule="evenodd" fill="#D3D3D3" />
    <path d="M47.106,38.599l-7.937-10.445v-13.057s8.022-10.445,8.022-10.445h64.624s0,33.947,0,33.947h-15.157v-21.93h.63c1.034,0,1.873-.839,1.873-1.873s-.839-1.873-1.873-1.873h-20.883c-1.035,0-1.874.838-1.874,1.873s.839,1.873,1.874,1.873h.63v21.93h-29.929Z" fill-rule="evenodd" fill="#D3D3D3" />
    <rect x="109.245" y="10.896" width="42.21" height="21.458" fill="#D3D3D3" />
    <rect x="148.394" y="16.689" width="31.426" height="9.873" fill="#D3D3D3" />
    <polygon points="151.455 0 151.455 11.29 137.147 11.29 151.455 0" fill-rule="evenodd" fill="#D3D3D3" />
    <path d="M55.106,37.471h-8.395l-12.627,22.639s-.08,2.182,5.691,2.571c3.726.251,6.769,3.384,7.956,3.032.651-.193.999-1.193,1.133-3.783.206-4.005,2.059-10.96,3.693-16.432,1.35-4.52,2.55-8.027,2.55-8.027Z" fill-rule="evenodd" fill="#D3D3D3" />
    <path d="M56.341,38.13c-.258-1.034-1.307-1.663-2.341-1.404-1.034.258-1.663,1.307-1.404,2.341.008.034,2.908,11.689,10.025,11.728,1.063.004,1.929-.855,1.933-1.918.004-1.064-.854-1.93-1.918-1.934-4.099-.023-6.287-8.787-6.294-8.813Z" fill="#D3D3D3" />
  </g>
</svg>