<?xml version="1.0" encoding="UTF-8"?>
<svg id="Layer_2" data-name="Layer 2" xmlns="http://www.w3.org/2000/svg" viewBox="0 0 174.2 152.067">
  <g id="Color">
    <path d="M102.912,99.32c9.826.546,18.214,1.476,24.172,2.656,3.43.56,1.39,1.047-.564,1.415-6.633,1.252-16.113,2.212-27.171,2.721-2.753.126-5.521.224-8.284.289-2.814.067-5.663.106-8.524.115-3.072.01-6.11-.026-9.089-.098-2.86-.068-5.743-.176-8.601-.311-10.788-.51-20.023-1.473-26.495-2.722-2.705-.404-3.967-.685-.519-1.375,5.795-1.161,13.916-2.084,23.434-2.641-.503-1.106-.781-2.335-.781-3.604,0-.945.151-1.882.448-2.773-.142-.348-.268-.704-.38-1.066-9.817.582-18.193,1.539-24.184,2.738-8.012,1.605-12.702,4.308-12.702,7.98,0,3.729,4.92,6.473,13.28,8.087,6.768,1.308,16.371,2.312,27.549,2.84,2.744.129,5.669.236,8.776.311,2.991.071,6.085.107,9.265.098,2.998-.01,5.902-.049,8.7-.115,2.967-.071,5.782-.169,8.431-.29,11.432-.525,21.28-1.527,28.225-2.837,8.494-1.603,13.501-4.341,13.501-8.093,0-3.692-4.761-6.408-12.878-8.015-6.17-1.222-14.805-2.186-24.9-2.756-.116.379-.248.753-.396,1.118.297.891.447,1.828.447,2.773,0,1.25-.27,2.46-.758,3.554Z" fill="#64b5f6"/>
  </g>
  <g id="Grey">
    <path d="M64.55,103.281c.26-.865,1.765-1.567,3.735-1.778l.026-.244c-1.874,0-3.508-1.126-4.368-2.794l-.117-.258c-.299-.656-.474-1.363-.518-2.082v-.004s-.003-.039-.003-.039l-.003-.06-.003-.097v-.017s0-.008,0-.008c0-.045-.002-.089-.002-.134v-.03s0-.018,0-.018v-.072s0-.025,0-.025v-.034s0-.014,0-.014v-.017s.002-.029.002-.029v-.03s.003-.02.003-.02v-.01l.002-.029v-.03s.003-.026.003-.026v-.003l.002-.03v-.015s.002-.016.002-.016h0l.005-.06.002-.019v-.01c.014-.14.03-.278.053-.416l.005-.03c.019-.117.042-.235.069-.352l.006-.026v-.003s.015-.059.015-.059l.007-.028h0s.008-.029.008-.029c.015-.059.03-.116.047-.174l.006-.019.003-.011.017-.057.006-.02.003-.009.009-.028.002-.007.008-.022.007-.021.002-.007.01-.029.003-.008.006-.019c.11-.324.247-.634.408-.926-.874-1.525-1.435-3.877-1.435-6.516,0-.897.065-1.762.186-2.572-.136.018-.273.028-.412.028-.621,0-1.212-.189-1.744-.53-.503.298-1.055.463-1.634.463-2.345,0-4.245-2.7-4.245-6.031,0-1.517.393-2.902,1.045-3.962-.596.452-1.275.709-1.998.709-1.53,0-2.872-1.151-3.619-2.878-.634,3.035-2.153,5.175-3.93,5.175-1.22,0-2.318-1.01-3.093-2.625-.664,2.9-2.148,4.922-3.874,4.922-2.345,0-4.245-3.728-4.245-8.328,0-.662.039-1.307.114-1.925-1.493-.249-2.844-.974-3.919-2.028-.102,4.502-3.466,8.117-7.601,8.117-4.199,0-7.603-3.728-7.603-8.328,0-.394.025-.782.074-1.162-1.135.738-2.46,1.162-3.876,1.162-4.199,0-7.603-3.728-7.603-8.328,0-3.032,1.48-5.687,3.693-7.143-.229.023-.461.035-.695.035-4.199,0-7.604-3.728-7.604-8.327,0-3.929,2.484-7.222,5.827-8.099-1.952-1.507-3.228-3.995-3.228-6.811,0-4.6,3.404-8.328,7.603-8.328,1.102,0,2.15.258,3.096.72.972-3.374,3.852-5.822,7.254-5.822.553,0,1.092.065,1.61.188.556-3.475,2.332-6.017,4.437-6.017,1.839,0,3.427,1.939,4.17,4.743.516-1.874,1.301-3.072,2.181-3.072,1.275,0,2.352,2.514,2.696,5.959.844-1.662,2.058-2.706,3.406-2.706.636,0,1.241.232,1.793.651-.148-.563-.229-1.158-.229-1.773,0-3.513,2.601-6.36,5.809-6.36,2.195,0,4.107,1.335,5.094,3.304.936-2.094,2.459-3.456,4.179-3.456,2.208,0,4.091,2.246,4.824,5.4.423-1.862,1.066-3.052,1.786-3.052.599,0,4.863,1.687,6.21,2.604-.041-.29-.063-.586-.063-.889,0-3.129,2.316-5.666,5.174-5.666s5.173,2.537,5.173,5.666c0,.668-.105,1.309-.299,1.903,1.152-.771,2.509-1.217,3.96-1.217.851,0,1.669.152,2.433.435-.293-.886-.453-1.842-.453-2.838,0-4.599,3.404-8.327,7.603-8.327,1.973,0,3.771.823,5.122,2.173,1.15-.767,2.502-1.209,3.947-1.209,4.199,0,7.603,3.729,7.603,8.327,0,.133-.003.265-.009.395.27-.031.543-.048.82-.048,1.637,0,3.153.566,4.394,1.53.418-3.606,1.909-6.274,3.686-6.274,1.317,0,2.478,1.468,3.16,3.698.565-3.044,1.93-5.189,3.522-5.189,2.1,0,3.802,3.728,3.802,8.327,0,.749-.046,1.475-.13,2.165,1.273-1.052,2.856-1.676,4.573-1.676,2.05,0,3.91.889,5.277,2.333-.098-.659-.148-1.351-.148-2.061,0-4.6,2.15-8.328,4.805-8.328s4.805,3.728,4.805,8.328c0,.295-.01.586-.026.873,1.394-1.753,3.446-2.861,5.736-2.861,4.199,0,7.603,3.728,7.603,8.327,0,.384-.024.762-.07,1.133,3.618.64,6.382,4.076,6.382,8.22,0,1.134-.207,2.215-.582,3.199.093-.004.186-.006.279-.006,4.199,0,7.604,3.728,7.604,8.327,0,3.712-2.218,6.856-5.281,7.932v.007c0,4.385-3.093,7.977-7.021,8.303.451.693.703,1.465.703,2.279,0,2.993-3.404,5.419-7.603,5.419-2.363,0-4.475-.768-5.869-1.974-.454,4.123-3.659,7.319-7.547,7.319-.196,0-.391-.008-.583-.024-.272,4.33-3.564,7.75-7.585,7.75-3.186,0-5.915-2.146-7.045-5.191-1.071.632-2.296.99-3.598.99-.782,0-1.536-.13-2.245-.369-1.053,3.217-3.86,5.52-7.16,5.52-.908,0-1.779-.175-2.587-.495-.888,3.521-3.832,6.107-7.33,6.107-.774,0-1.522-.128-2.227-.363.226,1.064.352,2.251.352,3.502,0,2.639-.56,4.99-1.434,6.516.164.298.303.613.414.944l.002.008.01.028.003.008.007.02.007.023.002.007.009.028.003.009.006.019.007.024.002.005.009.028.003.011.005.018.008.026v.003s.009.028.009.028l.003.013.005.017.008.027v.002l.008.028c.032.126.061.253.086.38l.006.029.015.089.003.017.003.013c.011.069.022.139.03.208l.002.012.002.018c.007.06.014.119.02.179l.002.029.002.011v.019s.008.09.008.09l.002.029v.004s.002.026.002.026l.002.021v.009l.002.029v.03s.002.027.002.027v.032s.002.017.002.017v.044s.001.004.001.004v.025s0,.023,0,.023v.037s.001.012.001.012v.048c0,.046-.001.091-.002.136v.019l-.004.104-.002.052-.003.039-.002.038c-.046.696-.216,1.381-.5,2.018l-.115.256c-.855,1.687-2.499,2.83-4.387,2.83l-.109.23c2.041.193,3.611.91,3.873,1.798l-.39.018c-2.739.126-5.48.223-8.223.288-2.821.067-5.644.105-8.466.114-3.004.01-6.009-.024-9.013-.097-2.847-.067-5.692-.174-8.536-.308l-.433-.021Z" fill="#424242" fill-rule="evenodd"/>
    <path d="M139.639,152.067H24.519c-1.87,0-3.386-1.66-3.386-3.709s1.516-3.708,3.386-3.708h0c-.615-.671-.996-1.6-.996-2.626,0-2.049,1.517-3.709,3.386-3.709.468,0,.912.104,1.317.291-.042-.233-.064-.475-.064-.723,0-2.048,1.516-3.708,3.386-3.708,1.273,0,2.384.771,2.962,1.91.574-1.152,1.69-1.934,2.974-1.934.865,0,1.655.355,2.254.941-.003-.063-.004-.127-.004-.191,0-2.048,1.516-3.708,3.385-3.708.497,0,.969.117,1.393.327-.168-.44-.261-.924-.261-1.431,0-2.048,1.516-3.708,3.386-3.708.694,0,1.34.229,1.877.622.082-1.968,1.565-3.536,3.383-3.536,1.244,0,2.332.735,2.92,1.832.454-.248.966-.388,1.508-.388.939,0,1.789.419,2.402,1.096.103-1.945,1.577-3.488,3.38-3.488.167,0,.331.014.492.039-.452-.781-.714-1.708-.714-2.701,0-1.353.486-2.583,1.277-3.489l.206.009c2.946.14,5.893.243,8.843.313,3.112.074,6.227.108,9.34.099,2.92-.01,5.84-.047,8.758-.116,2.832-.067,5.663-.162,8.493-.292l.2-.01c.79.907,1.274,2.135,1.274,3.486,0,.993-.262,1.92-.713,2.701.16-.025.324-.039.491-.039,1.803,0,3.276,1.543,3.38,3.488.614-.677,1.464-1.096,2.403-1.096.541,0,1.053.14,1.507.388.588-1.097,1.676-1.832,2.921-1.832,1.816,0,3.3,1.568,3.382,3.536.537-.393,1.183-.622,1.878-.622,1.869,0,3.385,1.66,3.385,3.708,0,.507-.093.99-.261,1.431.425-.21.897-.327,1.393-.327,1.87,0,3.386,1.66,3.386,3.708,0,.064-.002.128-.004.191.599-.586,1.388-.941,2.254-.941,1.283,0,2.399.781,2.974,1.934.578-1.139,1.688-1.91,2.961-1.91,1.87,0,3.386,1.66,3.386,3.708,0,.248-.021.489-.064.723.405-.187.851-.291,1.317-.291,1.87,0,3.386,1.66,3.386,3.709,0,1.026-.381,1.955-.996,2.626h0c1.871,0,3.387,1.66,3.387,3.708s-1.516,3.709-3.387,3.709Z" fill="#424242" fill-rule="evenodd"/>
  </g>
</svg>