<?xml version='1.0' encoding='utf-8'?>
<svg xmlns="http://www.w3.org/2000/svg" id="Layer_2" data-name="Layer 2" viewBox="0 0 118.342 179.82">
  <g id="Color" fill="#00ABF6">
    <path d="M59.207,120.834c2.918,0,5.283,2.036,5.283,4.954s-2.365,7.726-5.283,7.726-5.284-4.809-5.284-7.726,2.366-4.954,5.284-4.954Z" fill-rule="evenodd" />
    <path d="M56.056,134.842h6.302c2.434,0,4.551,1.428,5.555,3.487.396.813.619,1.726.619,2.686,0,5.503-.832,10.875,0,16.511h-18.649c1.008-5.46.832-10.35,0-16.511,0-3.395,2.778-6.174,6.174-6.174Z" fill-rule="evenodd" />
    <path d="M57.614,157.526c0-1.565-1.269-2.833-2.833-2.833s-2.833,1.268-2.833,2.833v19.46c0,1.565,1.269,2.834,2.833,2.834s2.833-1.269,2.833-2.834v-19.46Z" />
    <path d="M66.466,157.526c0-1.565-1.268-2.833-2.833-2.833s-2.834,1.268-2.834,2.833v19.46c0,1.565,1.269,2.834,2.834,2.834s2.833-1.269,2.833-2.834v-19.46Z" />
    <path d="M65.373,137.642c-.872.571-1.116,1.74-.546,2.612s1.74,1.116,2.612.546l6.974-4.565-1.033-1.578,1.035,1.58c.357-.234.609-.568.743-.941l3.305-7.195c.432-.946.016-2.062-.93-2.494-.945-.432-2.062-.016-2.494.93l-3.139,6.835-6.526,4.271Z" />
    <path d="M50.539,140.554c.872.566,2.038.319,2.604-.553.566-.872.318-2.038-.553-2.605l-6.211-4.022-3.181-6.846c-.436-.945-1.556-1.358-2.501-.922-.945.436-1.358,1.556-.922,2.501l3.362,7.236c.139.356.387.675.732.898l.003-.005,6.666,4.317Z" />
  </g>
  <g id="Grey" fill="#282828">
    <path d="M3.381,40.385c-.489-.601-2.31-2.611-2.707-2.458-.135.053-.233,1.615-.331,1.884-.353.966-.363,2.362.116,2.951l46.601,59.727c.656.807,1.842.93,2.648.273.807-.656.929-1.842.273-2.648-15.533-19.909-31.067-39.818-46.6-59.729Z" fill="#D3D3D3" />
    <path d="M26.093,35.661c-.383-.966-1.477-1.438-2.442-1.056-.966.384-1.438,1.477-1.055,2.443l24.175,64.945c.383.966,1.477,1.438,2.442,1.056.966-.384,1.438-1.477,1.055-2.442L26.093,35.661Z" fill="#D3D3D3" />
    <path d="M49.342,34.646c-.017-1.039-.872-1.868-1.912-1.852-1.039.016-1.868.872-1.852,1.911l1.06,66.624c.016,1.039.872,1.868,1.911,1.852,1.039-.017,1.868-.872,1.852-1.911l-1.06-66.625Z" fill="#D3D3D3" />
    <path d="M78.175,105.49c-.012-.779-.654-1.4-1.434-1.389-.779.012-1.401.653-1.389,1.434l.442,22.876c.012.779.654,1.401,1.433,1.39.779-.013,1.401-.654,1.389-1.434l-.442-22.877Z" fill="#D3D3D3" />
    <path d="M43.418,105.009c.027-.779-.582-1.434-1.361-1.461-.779-.027-1.433.582-1.461,1.361l-.873,23.431c-.027.779.582,1.434,1.362,1.461.779.027,1.433-.582,1.46-1.361l.873-23.431Z" fill="#D3D3D3" />
    <path d="M46.376,106.141c-.162-.764-.913-1.253-1.677-1.091-.764.162-1.252.913-1.091,1.677l6.483,30.395c.162.764.913,1.252,1.677,1.09s1.252-.913,1.09-1.677l-6.482-30.394Z" fill="#D3D3D3" />
    <path d="M74.513,106.956c.153-.767-.345-1.513-1.112-1.666-.767-.152-1.513.346-1.666,1.112l-6.009,30.148c-.153.767.345,1.513,1.112,1.665.767.153,1.513-.345,1.666-1.112l6.009-30.147Z" fill="#D3D3D3" />
    <path d="M59.171,32.643c-10.842.014-11.803,11.888-11.803,10.435,0-6.362-5.292-11.519-11.822-11.519-4.816,0-7.809,2.252-9.388,4.814l-.708,1.149-2.576.158c-.16-.392-.342-.773-.543-1.142-1.992-3.655-5.916-6.155-10.428-6.062C2.927,30.659.049,41.759.045,41.736-1.274,18.833,26.516,0,59.17,0h.002c32.654,0,60.444,18.833,59.125,41.736-.003.022-2.882-11.077-11.858-11.261-4.513-.093-8.436,2.407-10.428,6.062-.201.369-.383.751-.543,1.142l-2.575-.158-.708-1.149c-1.58-2.562-4.572-4.814-9.388-4.814-6.529,0-11.822,5.157-11.822,11.519,0,1.452-.961-10.422-11.803-10.435Z" fill-rule="evenodd" fill="#D3D3D3" />
    <path d="M114.961,40.385c.49-.601,2.31-2.611,2.707-2.458.135.053.232,1.615.33,1.884.353.966.363,2.362-.116,2.951l-46.6,59.727c-.655.807-1.842.93-2.648.273-.807-.656-.929-1.842-.273-2.648,15.533-19.909,31.067-39.818,46.6-59.729Z" fill="#D3D3D3" />
    <path d="M92.249,35.661c.383-.966,1.476-1.438,2.442-1.056.966.384,1.438,1.477,1.055,2.443l-24.176,64.945c-.383.966-1.476,1.438-2.442,1.056-.966-.384-1.438-1.477-1.055-2.442l24.176-64.946Z" fill="#D3D3D3" />
    <path d="M69,34.646c.017-1.039.873-1.868,1.912-1.852,1.039.016,1.868.872,1.852,1.911l-1.06,66.624c-.017,1.039-.872,1.868-1.911,1.852-1.039-.017-1.869-.872-1.852-1.911l1.059-66.625Z" fill="#D3D3D3" />
    <path d="M44.113,100.479h30.114c2.28,0,4.145,1.865,4.145,4.145h0c0,2.28-1.865,4.144-4.145,4.144h-30.114c-2.279,0-4.144-1.864-4.144-4.144h0c0-2.28,1.865-4.145,4.144-4.145Z" fill-rule="evenodd" fill="#D3D3D3" />
  </g>
</svg>