<?xml version='1.0' encoding='utf-8'?>
<svg xmlns="http://www.w3.org/2000/svg" id="Layer_2" data-name="Layer 2" viewBox="0 0 179.799 152.399">
  <g id="Color" fill="#00ABF6">
    <path d="M89.749,0c30.994,0,5.718,132.2,0,152.399C84.648,132.124,58.757,0,89.749,0Z" fill-rule="evenodd" />
  </g>
  <g id="Grey" fill="#282828">
    <path d="M72.297,29.165c-5.367.042-10.429.163-15.2.352l6.601,27.016c2.835.071,5.765.119,8.791.142-.083-1.401-.159-2.803-.225-4.205-.364-7.728-.475-15.575.033-23.305h0ZM54.242,29.638l6.552,26.813c-78.809-2.45-81-23.343-6.552-26.813Z" fill-rule="evenodd" fill="#D3D3D3" />
    <path d="M107.319,29.163c5.445.04,10.575.163,15.409.354l-6.605,27.016c-2.875.071-5.842.12-8.909.142.08-1.409.152-2.818.214-4.227.341-7.723.425-15.564-.109-23.285h0ZM125.582,29.638l-6.556,26.812c78.777-2.453,80.974-23.339,6.556-26.812Z" fill-rule="evenodd" fill="#D3D3D3" />
    <path d="M78.751,110.299c-8.112,2.171-28.333,8.295-25.588,14.747,2.268,5.329,17.578,9.915,29.717,8.598-.565-2.931-1.111-5.866-1.641-8.803-.873-4.835-1.704-9.684-2.488-14.542Z" fill-rule="evenodd" fill="#D3D3D3" />
    <path d="M101.025,110.302c8.311,2.249,28.181,8.358,25.463,14.744-2.263,5.318-17.52,9.898-29.647,8.605.578-2.924,1.132-5.852,1.669-8.782.887-4.842,1.726-9.699,2.515-14.567Z" fill-rule="evenodd" fill="#D3D3D3" />
  </g>
</svg>