<?xml version='1.0' encoding='utf-8'?>
<svg xmlns="http://www.w3.org/2000/svg" id="Layer_2" data-name="Layer 2" viewBox="0 0 182.63 182.629">
  <g id="Color" fill="#00ABF6">
    <path d="M59.144,77.187l-9.85-9.85c-3.101-3.101-3.101-8.176,0-11.277l6.766-6.767c3.102-3.101,8.176-3.101,11.277,0l9.85,9.85-18.043,18.044Z" fill-rule="evenodd" fill="#FE2001" />
    <rect x="104.294" y="94.457" width="25.517" height="45.188" transform="translate(-48.484 117.054) rotate(-45.001)" fill="#FE2001" />
    <path d="M131.078,182.629l51.552-51.552-1.012-1.013c-14.177-14.176-37.375-14.176-51.552,0h0c-14.177,14.177-14.177,37.376,0,51.553l1.012,1.012Z" fill-rule="evenodd" fill="#FE2001" />
  </g>
  <g id="Grey" fill="#282828">
    <rect x="71.862" y="64.148" width="25.517" height="40.945" transform="translate(-35.051 84.621) rotate(-45)" fill="#D6E101" />
    <rect x="2.456" y="122.723" width="90.22" height="13.362" transform="translate(-77.571 71.537) rotate(-45)" fill="#D6E101" />
    <path d="M1.748,142.899l49.646-49.646c1.165-1.165,2.698-1.747,4.228-1.747h0c.097,0,.192.004.287.014,1.436.066,2.852.644,3.941,1.733l23.871,23.871c1.16,1.16,1.74,2.69,1.74,4.22l-2.801.008h2.809s0,.043,0,.043c-.011,1.516-.593,3.031-1.748,4.185l-49.646,49.646c-1.16,1.16-2.69,1.739-4.22,1.74l-.008-2.802v2.81c-.097,0-.193-.005-.288-.015-1.436-.066-2.852-.644-3.941-1.733L1.748,151.355c-1.16-1.16-1.74-2.69-1.74-4.221l2.801-.007H0c0-.097.005-.193.015-.288.066-1.436.644-2.852,1.733-3.94h0ZM55.368,97.226L5.722,146.872c-.055.054-.089.121-.103.19v.064s-.007,0-.007,0h0c.002.092.039.184.11.254l23.87,23.871c.055.055.122.089.19.102h.064s0,.007,0,.007h.001c.091-.002.183-.039.254-.11l49.646-49.646c.065-.065.1-.154.102-.244v-.01h.008c-.001-.092-.039-.184-.109-.255l-23.871-23.871c-.055-.055-.122-.089-.191-.102h-.063s0,0,0,0c-.094,0-.186.034-.255.102h0ZM55.91,91.519l2.523,2.795c0-1.455-1.106-2.651-2.523-2.795Z" fill="#D6E101" />
    <path d="M14.298,134.322c-1.093-1.093-2.866-1.093-3.958,0-1.093,1.093-1.093,2.865,0,3.958l28.353,28.354c1.093,1.093,2.865,1.093,3.958,0,1.093-1.093,1.093-2.865,0-3.958l-28.353-28.353Z" fill="#D6E101" />
    <path d="M25.131,123.488c-1.097-1.097-2.876-1.097-3.973,0s-1.097,2.876,0,3.974l28.354,28.354c1.097,1.097,2.876,1.097,3.974,0,1.097-1.097,1.097-2.877,0-3.974l-28.354-28.353Z" fill="#D6E101" />
    <path d="M35.957,112.662c-1.097-1.097-2.876-1.097-3.973,0-1.097,1.098-1.097,2.877,0,3.974l28.353,28.354c1.097,1.097,2.876,1.097,3.973,0,1.097-1.097,1.097-2.876,0-3.974l-28.353-28.354Z" fill="#D6E101" />
    <path d="M46.776,101.844c-1.093-1.093-2.865-1.093-3.958,0-1.093,1.093-1.093,2.865,0,3.958l28.353,28.354c1.093,1.093,2.865,1.093,3.958,0,1.093-1.093,1.093-2.866,0-3.958l-28.353-28.354Z" fill="#D6E101" />
    <rect x="84.295" y="40.885" width="90.22" height="13.362" transform="translate(4.268 105.435) rotate(-45)" fill="#D6E101" />
    <path d="M142.899,1.747l-49.646,49.647c-1.165,1.164-1.747,2.698-1.747,4.228h0c0,.097.005.193.014.287.067,1.436.644,2.852,1.733,3.941l23.871,23.87c1.16,1.16,2.689,1.74,4.221,1.74l.007-2.801v2.81h.043c1.516-.012,3.031-.594,4.185-1.748l49.646-49.646c1.16-1.159,1.739-2.689,1.74-4.22l-2.802-.008h2.81c0-.097-.005-.193-.015-.288-.066-1.436-.644-2.852-1.733-3.94L151.355,1.747c-1.16-1.159-2.689-1.739-4.221-1.739l-.007,2.802V0c-.097,0-.193.005-.288.014-1.436.067-2.851.644-3.94,1.733h0ZM97.226,55.368L146.872,5.721c.054-.054.121-.088.19-.102h.064s0-.007,0-.007h.001c.091.002.183.039.254.109l23.87,23.871c.054.054.089.121.103.191v.063s.007,0,.007,0v.002c-.002.091-.039.183-.11.253l-49.646,49.646c-.065.065-.154.099-.245.102h-.01s0,0,0,0h0v.007c-.091-.002-.184-.039-.254-.109l-23.871-23.871c-.055-.055-.089-.122-.103-.191v-.064h0c0-.094.034-.187.102-.254h0ZM91.519,55.909l2.795,2.523c-1.454,0-2.651-1.105-2.795-2.523Z" fill="#D6E101" />
    <path d="M134.323,14.297c-1.093-1.093-1.093-2.865,0-3.958,1.093-1.093,2.865-1.093,3.958,0l28.353,28.353c1.093,1.093,1.093,2.865,0,3.958-1.093,1.093-2.865,1.093-3.958,0l-28.353-28.354Z" fill="#D6E101" />
    <path d="M123.489,25.131c-1.097-1.097-1.097-2.877,0-3.974,1.098-1.097,2.876-1.097,3.974,0l28.353,28.354c1.097,1.097,1.097,2.876,0,3.974-1.097,1.097-2.876,1.097-3.974,0l-28.353-28.354Z" fill="#D6E101" />
    <path d="M112.663,35.957c-1.097-1.097-1.097-2.876,0-3.974,1.097-1.097,2.876-1.097,3.974,0l28.354,28.353c1.097,1.098,1.097,2.877,0,3.974-1.097,1.098-2.876,1.098-3.973,0l-28.354-28.354Z" fill="#D6E101" />
    <path d="M101.844,46.776c-1.092-1.093-1.092-2.866,0-3.958s2.865-1.093,3.958,0l28.354,28.353c1.093,1.093,1.093,2.865,0,3.958-1.093,1.093-2.865,1.093-3.958,0l-28.354-28.353Z" fill="#D6E101" />
  </g>
</svg>