<?xml version="1.0" encoding="UTF-8"?>
<svg id="Layer_2" data-name="Layer 2" xmlns="http://www.w3.org/2000/svg" viewBox="0 0 170.992 179.82">
  <g id="Color">
    <path d="M121.667,148.063l8.582.1c.131-.692.537-1.916,1.021-2.9.261-.53.552-1.025.851-1.391.222-.271.461-.495.719-.657.306-1.322.251-2.193-.041-2.732-.196-.362-.568-.584-1.031-.709-.648-.176-1.453-.177-2.282-.083-2.314.262-4.399.906-4.425.94-1.64,2.282-2.486,3.608-2.917,4.788-.287.788-.406,1.586-.476,2.645Z" fill="#64b5f6"/>
    <path d="M162.532,151.6l.744-4.721c-2.236-1.121-3.416-2.127-4.533-3.08-.773-.658-1.512-1.288-2.631-1.902-.394.226-.877.495-1.409.792-1.871,1.04-4.653,1.529-4.658,2.019.136.722-.275,1.453-.99,1.698h0c-.192.065-.429.438-.648.948-.245.567-.4,1.23-.425,1.859.521.81.532,1.934.545,3.112.008.864-.064,1.787-.031,1.867.475.061.912.346,1.147.803l-.003.002c.02.037.081.073.164.106.221.089.524.129.833.148,7.315.465,7.287.137,7.26-.185-.139-1.629-.274-3.237,4.636-3.468Z" fill="#64b5f6"/>
    <path d="M22.407,126.131c-.502.182-.999.365-1.491.555-8.039,3.096-14.71,7.38-17.64,13.279.109.223.266.367.443.46.279.145.666.212,1.06.245,9.646.794,9.575-.291,9.505-1.355-.152-2.341-.304-4.647,7.056-4.647,4.468,0,7.249-.836,8.676-1.957.476-.373.76-.752.872-1.109.09-.286.069-.576-.052-.846-.253-.569-.889-1.104-1.853-1.489-1.268-.509-2.426-1.012-3.486-1.509-1.059-.496-1.994-.976-2.826-1.438-.097-.054-.184-.117-.265-.187Z" fill="#64b5f6"/>
    <path d="M119.909,179.82h27.13c-.933-3.383-2.178-6.983-3.453-9.745-1.064-2.301-2.013-3.92-2.572-4.056-.148-.036-.361.091-.644.436-.502.613-.997,1.672-1.457,3.284-1.004,3.512-1.914,4.349-3.615,3.862-.585-.167-1.053-.528-1.653-.993-1.093-.845-2.833-2.19-6.081-2.19h-.51c-2.239,0-3.929.311-5.164.853-1.045.458-1.752,1.082-2.19,1.816-.441.74-.632,1.638-.632,2.623,0,1.286.322,2.696.842,4.109Z" fill="#64b5f6"/>
    <path d="M31.73,179.82h13.437c.244-1.181.844-3.108,1.519-4.573.316-.685.663-1.307,1.024-1.77.291-.373.606-.663.948-.85.368-1.688.467-3.046.355-4.126-.142-1.364-.628-2.217-1.314-2.707-.743-.53-1.779-.725-2.914-.717-1.717.013-3.627.492-5.216,1.028-3.188,1.073-3.332,1.343-4.734,3.981-.086.161-.177.333-.693,1.283-1.107,2.037-1.695,3.515-2.02,5.072-.211,1.01-.32,2.083-.392,3.377Z" fill="#64b5f6"/>
    <path d="M135.215,34.47c.742,2.074,1.355,4.208,1.824,6.395l-.823.24c-1.508.444-2.281.672-2.943.706-.708.035-1.564-.132-3.322-.475l-.545-.105-12.003-2.329c-.518-.892-.841-1.768-.841-2.535,0-.337.064-.646.21-.911.159-.293.424-.571.812-.826,1.21-.795,3.404-1.293,6.964-1.293h.511c3.186,0,4.797.758,5.878,1.267,1.791.844,2.721,1.28,4.279-.133Z" fill="#64b5f6" fill-rule="evenodd"/>
    <path d="M48.816,14.544c4.801-4.556,10.486-8.225,16.78-10.737.572.302,1.196.611,1.878.928.854.396,1.84.819,2.975,1.27.761.302,1.257.707,1.447,1.13.078.175.093.359.035.54-.08.258-.292.535-.648.814-1.174.919-3.495,1.605-7.253,1.605-6.497,0-6.36,2.068-6.222,4.166.051.762.102,1.538-7.841.891-.307-.025-.604-.076-.816-.185-.124-.064-.231-.17-.3-.34-.011-.028-.023-.056-.036-.082Z" fill="#64b5f6" fill-rule="evenodd"/>
    <path d="M87.065,29.41l8.558.099c.145-1.841.919-2.811,1.699-3.787l1.175.934-1.175-.938c.032-.04.066-.077.1-.113.465-.585.91-1.193.993-2.111.051-.568.013-1.02-.096-1.37-.108-.352-.306-.595-.56-.755-.335-.211-.783-.325-1.291-.371-1.44-.129-3.227.281-4.579.7l-.439.135v.004c-.042.014-.086.025-.13.034-.575.177-.876.272-1,.36-.12.085-.313.367-.707.943l-.16.233c-1.133,1.65-1.723,2.705-2.03,3.723-.204.676-.3,1.386-.358,2.281Z" fill="#64b5f6" fill-rule="evenodd"/>
    <path d="M78.858,55.757c-9.589-.089-18.877-.37-26.57-.843-.029-.107-.069-.212-.123-.313-.788-1.49-1.294-2.982-1.243-4.228.003-.026.005-.054.008-.081h-.004c.031-.485.153-.927.388-1.3.239-.379.612-.718,1.145-1,1.264-.668,3.301-.994,6.355-.803l.51.032c3.343.209,5.126,1.426,6.245,2.189.514.351.923.63,1.401.805,1.724.628,2.644.035,3.762-3.029.432-1.184.888-1.943,1.345-2.362.281-.258.543-.333.774-.273.616.158,1.585,1.515,2.642,3.416,1.238,2.226,2.448,5.091,3.366,7.79Z" fill="#64b5f6" fill-rule="evenodd"/>
  </g>
  <g id="Grey">
    <polygon points="49.87 174.004 49.583 174.329 49.582 174.33 49.87 174.004" fill="#424242"/>
    <rect x="48.798" y="174.899" width=".561" height=".002" transform="translate(-109.298 85.931) rotate(-45)" fill="#424242"/>
    <rect x="49.183" y="174.509" width=".481" height=".001" transform="translate(-108.921 86.06) rotate(-45)" fill="#424242"/>
    <path d="M91.293,179.82h25.452c-.43-1.393-.684-2.787-.684-4.109,0-1.495.32-2.912,1.065-4.161.749-1.256,1.904-2.299,3.564-3.026,1.61-.706,3.699-1.111,6.362-1.111h.51c4.26,0,6.504,1.736,7.913,2.825.338.261.601.464.644.476.413.118-.459-.527-.097-1.796.58-2.031,1.272-3.449,2.021-4.364,1.116-1.364,2.381-1.761,3.675-1.447,1.565.381,3.168,2.63,4.592,5.712,1.45,3.14,2.853,7.263,3.841,11.002h17.834c.065,0,.131-.002.197-.007,1.657-.108,2.911-1.541,2.803-3.197h-.006l-2.209-33.489c0-.297-.044-.598-.137-.895h-.005c-2.21-7.086-9.519-12.066-18.554-15.546-10.426-4.015-23.277-6.107-32.704-7.112l-6.984,34.314-19.094-13.838v39.77h0ZM131.631,151.174l-11.418-.132c-.056.004-.112.005-.169.003-.83-.03-1.478-.727-1.447-1.557h.005c.08-2.21.162-3.557.723-5.092.542-1.484,1.494-2.995,3.304-5.515.082-.113,3.463-1.828,6.528-2.174,1.164-.132,2.342-.118,3.386.164,1.228.332,2.259,1.009,2.898,2.189.705,1.302.846,3.158.074,5.771-.048.199-.137.393-.269.565-.242.317-.585.511-.95.571-.109.17-.225.38-.337.608-.418.851-.751,1.777-.759,2.018-.009.254-.017.459-.023.609-.01.194-.018.351-.025.472v.017c-.01.83-.69,1.496-1.52,1.486v-.006h0ZM166.388,146.37l-1.092,6.934.005.005c-.117.746-.765,1.276-1.499,1.269-2.931,0-2.921.121-2.91.243.173,2.037.349,4.111-10.442,3.427-.578-.036-1.189-.13-1.761-.36-.487-.195-.93-.478-1.285-.883-1.832-.647-1.853-2.723-1.872-4.655-.007-.717.312-1.182.149-1.286l-.002.003c-.441-.284-.685-.76-.691-1.247-.073-1.21.185-2.555.658-3.651.492-1.141,1.25-2.081,2.183-2.505,1.192-1.242,3.565-2.563,5.418-3.594.919-.512,1.682-.936,1.948-1.12l-.002-.004c.489-.34,1.11-.348,1.596-.073,1.832.883,2.84,1.741,3.903,2.649,1.115.95,2.303,1.963,4.854,3.113v-.002c.676.305,1.017,1.045.841,1.737Z" fill="#424242"/>
    <path d="M53.62,119.573c-7.852.837-18.078,2.429-27.302,5.258.147.07.296.142.448.212.973.457,2.077.936,3.334,1.438,1.713.687,2.91,1.788,3.473,3.052.422.946.495,1.961.182,2.96-.292.926-.909,1.812-1.883,2.578-1.897,1.49-5.317,2.601-10.531,2.601-4.156,0-4.108.722-4.061,1.453.183,2.784.368,5.618-12.746,4.538-.721-.059-1.482-.211-2.2-.585-.036-.019-.071-.038-.106-.058L.024,176.425c-.017.128-.024.257-.024.389,0,1.661,1.346,3.007,3.006,3.007h25.724c.078-1.513.2-2.765.456-3.987.389-1.857,1.065-3.574,2.327-5.894l.67-1.261c1.906-3.588,2.1-3.953,6.436-5.414,1.822-.613,4.053-1.165,6.154-1.18,1.716-.013,3.352.332,4.664,1.267,1.367.977,2.319,2.519,2.561,4.845.165,1.595-.014,3.588-.647,6.063-.046.266-.163.522-.354.739-.279.316-.664.487-1.056.506-.166.254-.347.601-.53.999-.506,1.099-.959,2.42-1.194,3.316h31.482v-39.77l-19.094,13.838-6.984-34.314Z" fill="#424242"/>
    <path d="M113.351,116.083l-1.06-10.669c-2.922,2.303-6.105,4.265-9.512,5.8-5.453,2.459-11.303,3.753-17.293,3.753s-11.839-1.294-17.292-3.753c-3.394-1.529-6.567-3.483-9.48-5.775l-1.076,10.642,27.859,12.187,27.854-12.185Z" fill="#424242"/>
    <path d="M44.584,52.946c-.164-2.205-2.085-3.859-4.29-3.695-2.206.165-3.86,2.085-3.695,4.291.101,1.304.268,2.612.493,3.872.225,1.257.517,2.525.868,3.756.415,1.452.927,2.862,1.528,4.162.426.92.901,1.785,1.423,2.575.863,5.827,2.516,11.323,4.818,16.321,2.515,5.456,5.812,10.341,9.715,14.438,4.054,4.258,8.752,7.664,13.903,9.985,5.025,2.266,10.463,3.504,16.138,3.504s11.113-1.238,16.139-3.504c5.151-2.321,9.85-5.727,13.904-9.985,3.901-4.097,7.199-8.982,9.714-14.438,2.303-4.998,3.955-10.494,4.818-16.322.523-.789.997-1.654,1.423-2.574.602-1.3,1.114-2.711,1.529-4.162.351-1.229.643-2.497.867-3.754.225-1.259.393-2.566.494-3.871.164-2.205-1.491-4.126-3.696-4.29-2.205-.164-4.126,1.49-4.29,3.695-.075.966-.211,1.999-.4,3.057-.185,1.037-.413,2.041-.679,2.971-.313,1.095-.68,2.115-1.091,3.004-.314.68-.647,1.276-.992,1.759-.506.576-.854,1.304-.961,2.12l3.975.523-3.961-.517c-.706,5.36-2.188,10.422-4.302,15.01-2.149,4.664-4.947,8.818-8.242,12.278-13.938,14.638-34.559,14.638-48.497,0-3.295-3.46-6.093-7.614-8.242-12.278-2.074-4.5-3.538-9.455-4.26-14.702-.04-.789-.313-1.574-.834-2.245l-.01.007c-.396-.514-.778-1.18-1.138-1.955-.411-.889-.777-1.909-1.09-3.004-.266-.93-.495-1.935-.681-2.973-.188-1.059-.324-2.092-.399-3.059Z" fill="#424242"/>
    <path d="M138.165,51.494c0,2.988-28.699,4.416-56.139,4.284-.997-3.117-2.431-6.6-3.916-9.268-1.429-2.569-3.012-4.473-4.521-4.86-1.211-.312-2.428-.06-3.545.966-.793.727-1.523,1.878-2.133,3.549-.305.837.423,1.357.08,1.232-.113-.042-.388-.229-.732-.464-1.382-.943-3.585-2.445-7.748-2.707l-.511-.031c-3.648-.228-6.214.229-7.94,1.143-1.022.54-1.769,1.239-2.283,2.056-.519.824-.785,1.738-.846,2.709l1.497.095-1.5-.095c-.003.039-.004.077-.003.115-.065,1.418.31,2.949.957,4.465-9.648-.715-16.057-1.778-16.057-3.189,0-13.401,5.237-25.606,13.818-34.767.322.392.709.685,1.134.904.636.328,1.312.461,1.955.514,11.401.931,11.234-1.594,11.071-4.072-.033-.489-.064-.972,3.227-.972,4.494,0,7.451-.963,9.096-2.252.865-.677,1.413-1.462,1.671-2.282.283-.897.216-1.807-.164-2.653-.504-1.12-1.564-2.092-3.08-2.693-.689-.273-1.346-.549-1.971-.826,5.02-1.555,10.366-2.394,15.912-2.394,21.79,0,40.488,12.936,48.501,31.383-.841.949-1.142.808-1.781.507-1.331-.627-3.314-1.56-7.157-1.56h-.511c-4.183,0-6.926.692-8.607,1.798-.822.54-1.41,1.182-1.799,1.895-.404.741-.586,1.53-.586,2.344,0,1.542.664,3.172,1.673,4.707l-.006.003c.249.38.641.609,1.059.665l12.562,2.436.545.107c1.983.387,2.95.575,4.026.52,1.032-.052,1.919-.313,3.648-.823.277-.081.405-.12.522-.154.383,2.501.582,5.062.582,7.667h0ZM97.028,32.52v.006c.83.01,1.511-.656,1.521-1.485v-.018c.007-.12.016-.276.024-.472.008-.15.016-.355.024-.609.036-1.055.551-1.701,1.07-2.351h.003c.031-.039.061-.08.088-.122.746-.936,1.476-1.914,1.638-3.719.088-.976.005-1.807-.213-2.51-.341-1.1-.985-1.879-1.828-2.411-.762-.481-1.666-.73-2.629-.816-1.913-.172-4.1.315-5.719.817l-.438.135v.002h0l-.002-.006c-.043.013-.084.028-.124.044-.89.273-1.365.429-1.861.78-.559.397-.852.824-1.447,1.695l-.16.233c-1.321,1.926-2.024,3.207-2.429,4.545-.403,1.334-.476,2.613-.547,4.575h-.006c-.03.829.618,1.526,1.448,1.557.057.002.113,0,.169-.003l11.418.132Z" fill="#424242" fill-rule="evenodd"/>
    <path d="M88.483,134.065c0-2.137-5.976-2.326-5.976-.188v45.943h5.976v-45.755Z" fill="#424242"/>
    <polygon points="108.504 149.053 114.712 118.554 84.596 131.727 108.504 149.053" fill="#424242"/>
    <polygon points="62.487 149.053 56.28 118.554 86.396 131.727 62.487 149.053" fill="#424242"/>
  </g>
</svg>