<?xml version="1.0" encoding="UTF-8"?>
<svg id="Layer_2" data-name="Layer 2" xmlns="http://www.w3.org/2000/svg" viewBox="0 0 183.566 98.686">
  <g id="Color">
    <path d="M27.743,65.751h128.079c9.058,0,16.468,7.411,16.468,16.468h0c0,9.058-7.41,16.467-16.468,16.467H27.743c-9.057,0-16.467-7.409-16.467-16.467h0c0-9.057,7.41-16.468,16.467-16.468h0ZM35.799,73.751c-4.677,0-8.467,3.791-8.467,8.468s3.79,8.468,8.467,8.468,8.468-3.791,8.468-8.468-3.791-8.468-8.468-8.468h0ZM63.791,73.751c-4.676,0-8.467,3.791-8.467,8.468s3.791,8.468,8.467,8.468,8.468-3.791,8.468-8.468-3.791-8.468-8.468-8.468h0ZM91.783,73.751c-4.676,0-8.467,3.791-8.467,8.468s3.791,8.468,8.467,8.468,8.468-3.791,8.468-8.468-3.791-8.468-8.468-8.468h0ZM119.775,73.751c-4.677,0-8.468,3.791-8.468,8.468s3.791,8.468,8.468,8.468,8.467-3.791,8.467-8.468-3.791-8.468-8.467-8.468h0ZM147.767,73.751c-4.676,0-8.468,3.791-8.468,8.468s3.792,8.468,8.468,8.468,8.468-3.791,8.468-8.468-3.791-8.468-8.468-8.468Z" fill="#64b5f6" fill-rule="evenodd"/>
  </g>
  <g id="Grey">
    <path d="M0,72.703c0,2.586,2.097,4.683,4.683,4.683s4.683-2.097,4.683-4.683c0-6.047,4.948-10.995,10.995-10.995h142.845c3.019,0,5.767,1.238,7.762,3.233,1.995,1.995,3.233,4.743,3.233,7.762,0,2.586,2.097,4.683,4.684,4.683s4.683-2.097,4.683-4.683c0-5.603-2.289-10.695-5.978-14.384-3.688-3.687-8.779-5.976-14.384-5.976H20.36c-11.198,0-20.36,9.162-20.36,20.36Z" fill="#424242"/>
    <path d="M61.912,22.186h54.773c19.162,0,34.84,15.678,34.84,34.84H27.072c0-19.162,15.678-34.84,34.84-34.84h0ZM54.066,33.791v11.629h11.629v-11.629h-11.629ZM83.484,33.791v11.629h11.628v-11.629h-11.628ZM112.901,33.791v11.629h11.629v-11.629h-11.629Z" fill="#424242" fill-rule="evenodd"/>
    <path d="M112.131,22.724h-45.665c0-11.959,9.542-21.744,21.206-21.744h3.254c11.663,0,21.205,9.785,21.205,21.744Z" fill="#424242" fill-rule="evenodd"/>
    <polygon points="107.864 16.604 101.134 6.963 178.884 0 178.884 10.037 107.864 16.604" fill="#424242" fill-rule="evenodd"/>
  </g>
</svg>