<?xml version="1.0" encoding="UTF-8"?>
<svg id="Layer_2" data-name="Layer 2" xmlns="http://www.w3.org/2000/svg" viewBox="0 0 179.821 149.58">
  <g id="Color">
    <path d="M172.219,67.387c0-1.596-1.294-2.89-2.89-2.89s-2.89,1.294-2.89,2.89v69.668c0,1.597,1.294,2.89,2.89,2.89s2.89-1.293,2.89-2.89v-69.668Z" fill="#64b5f6"/>
    <path d="M169.329,6.407c5.794,0,10.491,14.092,10.491,31.473s-4.697,31.472-10.491,31.472-10.49-14.09-10.49-31.472,4.696-31.473,10.49-31.473h0ZM169.329,30.593c-1.064,0-1.927,3.263-1.927,7.287s.863,7.287,1.927,7.287,1.927-3.263,1.927-7.287-.863-7.287-1.927-7.287Z" fill="#64b5f6" fill-rule="evenodd"/>
  </g>
  <g id="Grey">
    <path d="M.001,143.27c.135,7.229,10.614,8.844,12.609,1.574l18.622-50.532,17.277,50.422c.355,1.392,1.148,2.607,2.281,3.49,3.048,2.372,7.487,1.542,9.471-1.796.872-1.468,1.127-3.195.708-4.852-1.37-5.419-2.91-10.801-4.425-16.181-1.549-5.503-3.097-11.007-4.547-16.537-3.287-12.539-6.407-16.937-6.726-22.626,0-10.005-2.389-38.512,9.986-40.597l28.976-4.883c4.157-.701,7.902-2.339,7.195-7.511-.64-4.684-4.451-5.395-8.418-5.395-2.69,0-5.858,1.161-8.545,1.669-10.212,1.929-20.309,3.813-30.721,4.26-6.654.285-13.521.097-20.194.097-3.533,0-6.427,2.891-6.427,6.424v45.832c-.522,6.659-3.81,10.297-7.302,22.699-1.578,5.602-3.259,11.173-4.94,16.744C3.668,129.597-.075,139.311.001,143.27Z" fill="#424242" fill-rule="evenodd"/>
    <polygon points="91.515 34.009 81.564 28.322 86.258 18.228 86.831 16.922 88.243 16.922 109.097 16.922 111.269 16.922 111.269 19.095 111.269 22.674 111.269 24.809 102.26 24.838 94.788 28.01 91.515 34.009" fill="#424242"/>
    <path d="M44.775,12.619c0,7.484-6.086,17.42-13.57,17.42s-13.579-9.935-13.579-17.42S23.718,0,31.204,0s13.57,5.134,13.57,12.619Z" fill="#424242"/>
  </g>
</svg>