<?xml version="1.0" encoding="UTF-8"?>
<svg id="Layer_2" data-name="Layer 2" xmlns="http://www.w3.org/2000/svg" viewBox="0 0 124.342 179.82">
  <g id="Color">
    <path d="M32.54,31.64h5.59c1.492-3.715,3.06-30.205-2.795-30.205-5.5,0-4.319,26.408-2.795,30.205Z" fill="#64b5f6" fill-rule="evenodd"/>
    <polygon points="35.637 29.223 29.853 31.276 29.853 37.693 35.637 35.64 35.637 29.223" fill="#64b5f6" fill-rule="evenodd"/>
    <polygon points="35.138 29.223 40.921 31.276 40.921 37.693 35.138 35.64 35.138 29.223" fill="#64b5f6" fill-rule="evenodd"/>
    <path d="M92.259,30.205h5.589c1.493-3.716,3.061-30.205-2.794-30.205-5.5,0-4.319,26.408-2.795,30.205Z" fill="#64b5f6" fill-rule="evenodd"/>
    <polygon points="95.355 27.787 89.571 29.841 89.571 36.258 95.355 34.204 95.355 27.787" fill="#64b5f6" fill-rule="evenodd"/>
    <polygon points="94.856 27.787 100.64 29.841 100.64 36.258 94.856 34.204 94.856 27.787" fill="#64b5f6" fill-rule="evenodd"/>
    <path d="M112.243,71.997h5.59c1.492-3.716,3.06-30.205-2.795-30.205-5.5,0-4.319,26.408-2.795,30.205Z" fill="#64b5f6" fill-rule="evenodd"/>
    <polygon points="115.34 69.579 109.557 71.633 109.557 78.05 115.34 75.996 115.34 69.579" fill="#64b5f6" fill-rule="evenodd"/>
    <polygon points="114.841 69.579 120.624 71.633 120.624 78.05 114.841 75.996 114.841 69.579" fill="#64b5f6" fill-rule="evenodd"/>
    <path d="M8.548,71.997h5.589c1.492-3.716,3.059-30.205-2.795-30.205-5.5,0-4.32,26.408-2.794,30.205Z" fill="#64b5f6" fill-rule="evenodd"/>
    <polygon points="11.645 69.579 5.861 71.633 5.861 78.05 11.645 75.996 11.645 69.579" fill="#64b5f6" fill-rule="evenodd"/>
    <polygon points="11.145 69.579 16.929 71.633 16.929 78.05 11.145 75.996 11.145 69.579" fill="#64b5f6" fill-rule="evenodd"/>
  </g>
  <g id="Grey">
    <path d="M62.17,29.301l16.361,49.082v98.165l-9.816,3.273h-13.088s-9.816-3.273-9.816-3.273v-98.165l16.36-49.082h0ZM56.264,153.643l6.225,19.633,6.226-19.633h-12.451ZM62.17,71.33c-3.614,0-6.544,9.622-6.544,21.492s2.93,21.492,6.544,21.492,6.544-9.622,6.544-21.492-2.93-21.492-6.544-21.492Z" fill="#424242" fill-rule="evenodd"/>
    <polygon points="46.809 112.284 47.027 77.54 0 110.837 0 129.512 46.809 112.284" fill="#424242" fill-rule="evenodd"/>
    <polygon points="76.658 111.972 76.159 76.634 124.342 110.837 124.342 129.512 76.658 111.972" fill="#424242" fill-rule="evenodd"/>
    <polygon points="76.564 165.605 76.408 143.906 81.141 147.284 106.406 165.184 106.406 176.547 80.204 166.907 76.564 165.605" fill="#424242" fill-rule="evenodd"/>
    <polygon points="46.715 165.948 47.995 143.874 17.934 165.184 17.934 176.547 44.567 166.749 46.715 165.948" fill="#424242" fill-rule="evenodd"/>
  </g>
</svg>