<?xml version='1.0' encoding='utf-8'?>
<svg xmlns="http://www.w3.org/2000/svg" id="Layer_2" data-name="Layer 2" viewBox="0 0 1536 1117.377">
  <g id="Color" fill="#00ABF6">
    <path d="M1451.668,343.385c-7.437-25.793-31.385-43.801-58.212-43.801h-276.438v316.927h413.422l-78.773-273.125ZM1285.851,391.395l-68.381,147.513c-2.859,6.15-8.956,9.779-15.328,9.779-2.374,0-4.789-.506-7.089-1.572-8.45-3.914-12.132-13.957-8.208-22.407l68.381-147.513c3.914-8.461,13.957-12.132,22.407-8.218,8.461,3.924,12.132,13.957,8.218,22.418ZM1400.039,391.395l-68.381,147.513c-2.848,6.15-8.956,9.779-15.318,9.779-2.384,0-4.789-.506-7.089-1.572-8.461-3.914-12.142-13.957-8.218-22.407l68.382-147.513c3.924-8.461,13.957-12.132,22.418-8.218,8.45,3.924,12.132,13.957,8.207,22.418Z" fill="#00ABF6" />
    <path d="M392.672,986.753c-.021-.19-.053-.38-.084-.58-8.366-54.593-55.659-96.549-112.552-96.549s-104.197,41.955-112.563,96.549c-.032.211-.063.422-.095.633-.812,5.454-1.224,11.024-1.224,16.689,0,62.79,51.091,113.881,113.881,113.881s113.871-51.091,113.871-113.881c0-5.686-.422-11.277-1.234-16.742ZM280.035,1076.002c-39.982,0-72.506-32.524-72.506-72.506s32.524-72.496,72.506-72.496,72.496,32.524,72.496,72.496-32.524,72.506-72.496,72.506Z" fill="#00ABF6" />
    <path d="M1326.509,889.625c-62.79,0-113.871,51.08-113.871,113.871s51.08,113.881,113.871,113.881,113.871-51.091,113.871-113.881-51.08-113.871-113.871-113.871ZM1326.509,1076.002c-39.972,0-72.506-32.524-72.506-72.506s32.535-72.496,72.506-72.496,72.506,32.524,72.506,72.496-32.524,72.506-72.506,72.506Z" fill="#00ABF6" />
    <path d="M1536,650.268v256.341c0,33.41-27.175,60.585-60.585,60.585h-5.792c-16.215-63.909-74.226-111.328-143.114-111.328s-126.889,47.42-143.114,111.328h-66.367v-316.927h418.971Z" fill="#00ABF6" />
    <path d="M1309.63,200.324v65.502h-75.218v-65.502c0-20.74,16.879-37.609,37.609-37.609s37.609,16.869,37.609,37.609Z" fill="#00ABF6" />
  </g>
  <g id="Grey" fill="#282828">
    <path d="M318.773,1003.495c0,21.373-17.375,38.748-38.738,38.748s-38.748-17.375-38.748-38.748,17.375-38.738,38.748-38.738,38.738,17.375,38.738,38.738Z" fill="#282828" />
    <path d="M1365.257,1003.495c0,21.373-17.386,38.748-38.748,38.748s-38.748-17.375-38.748-38.748,17.385-38.738,38.748-38.738,38.748,17.375,38.748,38.738Z" fill="#282828" />
    <path d="M1083.228,799.638v167.557H423.149c-16.225-63.909-74.236-111.328-143.114-111.328s-126.899,47.42-143.124,111.328H33.452c-18.451,0-33.452-15.001-33.452-33.442v-134.115h1083.228Z" fill="#282828" />
    <path d="M1423.532,86.632l-35.425,35.425c-3.292,3.291-7.617,4.948-11.931,4.948s-8.64-1.656-11.931-4.948c-6.593-6.593-6.593-17.28,0-23.873l35.425-35.425c6.583-6.593,17.269-6.593,23.863,0,6.593,6.593,6.593,17.28,0,23.873Z" fill="#282828" />
    <path d="M1187.193,98.184c6.593,6.593,6.593,17.28,0,23.873-3.291,3.291-7.606,4.948-11.931,4.948s-8.64-1.656-11.931-4.948l-35.425-35.425c-6.593-6.593-6.593-17.28,0-23.873,6.593-6.593,17.28-6.593,23.863,0l35.425,35.425Z" fill="#282828" />
    <path d="M1288.9,16.879v50.099c0,9.326-7.553,16.879-16.879,16.879s-16.879-7.553-16.879-16.879V16.879c0-9.315,7.564-16.879,16.879-16.879s16.879,7.564,16.879,16.879Z" fill="#282828" />
    <path d="M33.452,195.671c-18.451,0-33.452,15.012-33.452,33.452v536.756h1083.228V195.671H33.452ZM996.67,625.329c9.326,0,16.879,7.553,16.879,16.879s-7.553,16.879-16.879,16.879H86.558c-9.315,0-16.879-7.564-16.879-16.879s7.564-16.879,16.879-16.879h76.789v-289.097h-76.789c-9.315,0-16.879-7.564-16.879-16.879s7.564-16.879,16.879-16.879h910.112c9.326,0,16.879,7.553,16.879,16.879s-7.553,16.879-16.879,16.879h-76.789v289.097h76.789Z" fill="#282828" />
    <rect x="197.106" y="336.232" width="97.551" height="289.097" fill="#282828" />
    <rect x="328.415" y="336.232" width="114.651" height="289.097" fill="#282828" />
    <rect x="476.825" y="336.232" width="129.589" height="289.097" fill="#282828" />
    <rect x="640.172" y="336.232" width="114.641" height="289.097" fill="#282828" />
    <rect x="788.571" y="336.232" width="97.551" height="289.097" fill="#282828" />
  </g>
</svg>