<?xml version="1.0" encoding="UTF-8"?>
<svg id="Layer_2" data-name="Layer 2" xmlns="http://www.w3.org/2000/svg" viewBox="0 0 104.895 179.82">
  <g id="Color">
    <path d="M72.842,0c7.876,4.176,14.197,10.434,18.449,17.872,4.252,7.436,6.441,16.065,6.058,24.988-.351,8.174-2.844,15.95-7.049,22.647-4.202,6.69-10.119,12.305-17.323,16.158l-3.512-6.601c6.029-3.226,10.987-7.933,14.513-13.548,3.524-5.612,5.613-12.13,5.907-18.98.321-7.459-1.52-14.692-5.091-20.939-3.565-6.237-8.854-11.478-15.435-14.967l3.482-6.631Z" fill="#64b5f6"/>
    <path d="M69.357,11.384c5.422,3.069,9.756,7.6,12.655,12.955l-.012.006c2.896,5.35,4.384,11.527,4.123,17.896-.242,5.896-1.959,11.504-4.854,16.333-2.913,4.857-7.02,8.936-12.022,11.738l-3.629-6.543c3.836-2.149,6.993-5.29,9.241-9.039,2.267-3.78,3.61-8.17,3.8-12.782.206-5.01-.957-9.853-3.219-14.03h-.015c-2.26-4.175-5.592-7.681-9.727-10.02l3.658-6.514Z" fill="#64b5f6"/>
    <path d="M65.952,22.668c2.931,1.912,5.266,4.746,6.813,8.096,1.494,3.232,2.266,6.977,2.132,10.841-.125,3.636-1.046,7.101-2.593,10.073-1.598,3.07-3.875,5.636-6.657,7.364l-3.922-6.367c1.619-1.006,2.977-2.561,3.965-4.459,1.039-1.996,1.657-4.35,1.744-6.847.092-2.675-.436-5.253-1.459-7.467-.97-2.098-2.373-3.835-4.092-4.955l4.068-6.279Z" fill="#64b5f6"/>
    <path d="M35.535,6.631c-6.58,3.488-11.868,8.729-15.435,14.967-3.571,6.247-5.411,13.48-5.091,20.939.295,6.85,2.384,13.368,5.907,18.98,3.525,5.615,8.483,10.322,14.514,13.548l-3.513,6.601c-7.204-3.854-13.121-9.468-17.322-16.158-4.205-6.697-6.698-14.474-7.05-22.647-.383-8.923,1.807-17.553,6.058-24.988C17.857,10.434,24.177,4.176,32.053,0l3.482,6.631Z" fill="#64b5f6"/>
    <path d="M39.196,17.897c-4.135,2.34-7.468,5.846-9.727,10.02h-.015c-2.262,4.178-3.424,9.02-3.219,14.03.189,4.612,1.533,9.002,3.801,12.782,2.248,3.749,5.404,6.89,9.24,9.039l-3.629,6.543c-5.002-2.803-9.109-6.881-12.022-11.738-2.895-4.829-4.611-10.437-4.853-16.333-.262-6.369,1.227-12.547,4.122-17.896l-.011-.006c2.898-5.355,7.232-9.886,12.654-12.955l3.658,6.514Z" fill="#64b5f6"/>
    <path d="M43.011,28.947c-1.718,1.12-3.121,2.857-4.092,4.955-1.022,2.214-1.551,4.792-1.458,7.467.086,2.497.705,4.851,1.743,6.847.988,1.898,2.346,3.453,3.966,4.459l-3.922,6.367c-2.783-1.728-5.06-4.294-6.658-7.364-1.547-2.973-2.467-6.438-2.593-10.073-.133-3.864.639-7.608,2.132-10.841,1.549-3.35,3.883-6.184,6.813-8.096l4.068,6.279Z" fill="#64b5f6"/>
  </g>
  <g id="Grey">
    <path d="M44.955,78.672h3.746v-27.216c-1.588-.568-3.013-1.487-4.185-2.666-2.03-2.041-3.286-4.853-3.286-7.952s1.256-5.911,3.286-7.952c2.037-2.048,4.842-3.315,7.931-3.315s5.893,1.267,7.931,3.315c2.03,2.041,3.285,4.853,3.285,7.952s-1.255,5.911-3.285,7.952c-1.171,1.178-2.597,2.098-4.184,2.666v27.216h3.747l3.722,3.693,41.232,97.455h-8.356l-8.048-18.691c-4.116-5.314-9.301-9.584-15.135-12.594-6.346-3.273-13.473-5.05-20.837-5.05s-14.562,1.795-20.936,5.101c-6.363,3.3-11.952,8.109-16.219,14.144l-7.439,17.09H0l41.209-97.517,3.746-3.632Z" fill="#424242"/>
  </g>
</svg>