<?xml version="1.0" encoding="UTF-8"?>
<svg id="Layer_2" data-name="Layer 2" xmlns="http://www.w3.org/2000/svg" viewBox="0 0 148.087 179.819">
  <g id="Color">
    <path d="M74.043,48.309c15.869,0,30.236,6.433,40.635,16.832,10.399,10.399,16.832,24.767,16.832,40.635s-6.433,30.236-16.832,40.636c-10.399,10.399-24.766,16.832-40.635,16.832s-30.235-6.433-40.635-16.832c-10.399-10.399-16.832-24.767-16.832-40.636s6.433-30.235,16.832-40.635c10.399-10.399,24.766-16.832,40.635-16.832h0ZM112.276,67.544c-9.785-9.784-23.302-15.836-38.232-15.836s-28.448,6.052-38.232,15.836c-9.784,9.784-15.836,23.302-15.836,38.231s6.052,28.448,15.836,38.232,23.302,15.836,38.232,15.836,28.448-6.052,38.232-15.836c9.784-9.784,15.836-23.301,15.836-38.232s-6.052-28.447-15.836-38.231Z" fill="#64b5f6"/>
    <path d="M74.043,104.441c-.341,0-.683.13-.944.391-.26.261-.39.603-.39.943,0,.318.108.634.325.882.022.02.044.041.065.062l-1.246,1.246,1.246-1.239c.256.256.598.384.944.384.319,0,.634-.108.882-.325.02-.022.041-.045.062-.066l1.246,1.247-1.24-1.246c.256-.256.384-.599.384-.944,0-.341-.13-.683-.391-.943-.26-.261-.602-.391-.944-.391Z" fill="#64b5f6"/>
    <path d="M70.607,102.339c.949-.949,2.193-1.424,3.436-1.424s2.488.475,3.437,1.424c.949.949,1.423,2.193,1.423,3.436,0,1.236-.474,2.478-1.423,3.43l-.003.004h0l.004.004c-.04.04-.082.078-.126.114-.936.872-2.125,1.309-3.311,1.309-1.236,0-2.477-.474-3.43-1.423l-.003-.004h0l-.003.004c-.041-.041-.079-.083-.115-.127-.872-.935-1.309-2.125-1.309-3.311,0-1.243.475-2.487,1.424-3.436Z" fill="#64b5f6"/>
    <path d="M38.42,138.918l22.131-32.066-.004-.003c.405-.587,1.103-.852,1.762-.734l8.812.96-.186,1.749.191-1.753c.867.095,1.518.803,1.568,1.644l1.025,8.906h.002c.083.72-.281,1.39-.872,1.729l-32.066,22.131-.999-1.445,1.001,1.45c-.801.554-1.899.353-2.452-.449-.457-.662-.399-1.526.087-2.119Z" fill="#64b5f6"/>
    <path d="M75.119,92.283l32.066-22.131c.592-.486,1.457-.545,2.119-.088.801.554,1.003,1.651.45,2.453l-1.451-1.002,1.446.999-22.13,32.066c-.341.591-1.01.955-1.73.872v-.002s-8.906-1.025-8.906-1.025c-.842-.051-1.55-.701-1.645-1.568l1.752-.191-1.749.186-.959-8.812c-.118-.659.147-1.356.734-1.762l.003.005Z" fill="#64b5f6"/>
    <path d="M77.569,56.413c0-1.946-1.579-3.525-3.526-3.525s-3.526,1.579-3.526,3.525v8.122c0,1.947,1.579,3.526,3.526,3.526s3.526-1.579,3.526-3.526v-8.122Z" fill="#64b5f6"/>
    <path d="M77.569,147.017c0-1.947-1.579-3.526-3.526-3.526s-3.526,1.579-3.526,3.526v8.122c0,1.947,1.579,3.525,3.526,3.525s3.526-1.578,3.526-3.525v-8.122Z" fill="#64b5f6"/>
    <path d="M24.681,102.25c-1.947,0-3.525,1.578-3.525,3.525s1.578,3.526,3.525,3.526h8.122c1.947,0,3.526-1.579,3.526-3.526s-1.579-3.525-3.526-3.525h-8.122Z" fill="#64b5f6"/>
    <path d="M115.285,102.25c-1.948,0-3.526,1.578-3.526,3.525s1.579,3.526,3.526,3.526h8.122c1.947,0,3.526-1.579,3.526-3.526s-1.579-3.525-3.526-3.525h-8.122Z" fill="#64b5f6"/>
    <path d="M40.386,69.625c-.688-.688-1.805-.688-2.493,0-.688.688-.688,1.805,0,2.493l5.743,5.742c.688.688,1.805.688,2.493,0,.688-.687.688-1.804,0-2.492l-5.743-5.743Z" fill="#64b5f6"/>
    <path d="M104.452,133.691c-.688-.688-1.805-.688-2.493,0-.688.688-.688,1.805,0,2.493l5.743,5.742c.688.688,1.805.688,2.493,0,.688-.688.688-1.805,0-2.493l-5.743-5.742Z" fill="#64b5f6"/>
  </g>
  <g id="Grey">
    <path d="M80.489,26.414c0-2.544-3.675-4.606-8.208-4.606s-8.208,2.062-8.208,4.606v11.289c0,2.544,3.675,4.606,8.208,4.606s8.208-2.062,8.208-4.606v-11.289Z" fill="#424242"/>
    <path d="M74.043,31.732c19.702,0,38.428,7.758,52.357,21.687,13.929,13.929,21.687,32.655,21.687,52.356s-7.759,38.428-21.687,52.356c-13.929,13.93-32.655,21.687-52.357,21.687s-38.427-7.758-52.356-21.687C7.758,144.203,0,125.477,0,105.775s7.758-38.428,21.687-52.356c13.929-13.929,32.655-21.687,52.356-21.687h0ZM116.428,63.392c-11.28-11.28-26.43-17.556-42.384-17.556s-31.104,6.275-42.384,17.556c-11.28,11.28-17.555,26.43-17.555,42.384s6.275,31.105,17.555,42.385c11.28,11.28,26.43,17.556,42.384,17.556s31.105-6.275,42.384-17.556c11.28-11.28,17.556-26.43,17.556-42.385s-6.275-31.103-17.556-42.384Z" fill="#424242" fill-rule="evenodd"/>
    <path d="M78.514,9.633c-1.595-1.595-3.799-2.581-6.233-2.581s-4.639.986-6.233,2.581-2.581,3.799-2.581,6.233.987,4.639,2.581,6.233c1.595,1.594,3.799,2.581,6.233,2.581s4.638-.987,6.233-2.581c1.595-1.595,2.582-3.799,2.582-6.233s-.987-4.639-2.582-6.233Z" fill="#424242"/>
    <path d="M72.281,0c4.381,0,8.348,1.775,11.219,4.646,2.871,2.872,4.647,6.839,4.647,11.22s-1.776,8.348-4.647,11.219c-2.871,2.871-6.838,4.647-11.219,4.647s-8.348-1.776-11.219-4.647c-2.871-2.871-4.647-6.838-4.647-11.219s1.776-8.348,4.647-11.22c2.872-2.871,6.838-4.646,11.219-4.646Z" fill="#424242"/>
  </g>
</svg>