<?xml version="1.0" encoding="UTF-8"?>
<svg id="Layer_2" data-name="Layer 2" xmlns="http://www.w3.org/2000/svg" viewBox="0 0 225.836 209.484">
  <g id="Color">
    <rect x="142.522" y="99.061" width="15.999" height="16.003" transform="translate(24.557 242.163) rotate(-82.428)" fill="none"/>
    <rect x="146.741" y="67.343" width="16.003" height="15.999" transform="translate(59.726 218.846) rotate(-82.452)" fill="none"/>
    <polygon points="123.156 173.484 115.156 189.484 143.156 209.484 219.156 209.484 208.758 181.484 123.156 173.484" fill="#00abf6"/>
    <path d="M125.195,105.594l-6.039,24.922,12,22.969-4,11.203,15.164,1.812v-.016l67.719,9,15.797-118.922-107.438-14.117,1.477,41.836,5.32,21.312ZM183.547,71.102l15.859,2.109-2.109,15.859-15.859-2.109,2.109-15.859ZM179.336,102.82l15.859,2.109-2.109,15.859-15.859-2.109,2.109-15.859ZM175.094,134.68l15.859,2.109-2.102,15.859-15.867-2.109,2.109-15.859ZM147.867,66.359l15.859,2.102-2.109,15.867-15.859-2.109,2.109-15.859ZM143.641,98.078l15.867,2.109-2.109,15.859-15.859-2.109,2.102-15.859Z" fill="#00abf6"/>
  </g>
  <g id="Earthquake">
    <path d="M107.156,135.484l7.68-32.641L98.477,10.086l-19.578,3.461-2.391-13.547L17.422,10.422l2.391,13.562L0,27.484l27.156,154,81.797-14.438,10.203-13.562-12-18ZM27.172,43.383l15.758-2.781,2.781,15.758-15.758,2.781-2.781-15.758ZM32.734,74.898l15.75-2.781,2.781,15.758-15.75,2.781-2.781-15.758ZM46.625,153.68l-2.781-15.758,15.758-2.781,2.781,15.758-15.758,2.781ZM68.188,68.648l15.75-2.781,2.781,15.758-15.758,2.781-2.773-15.758ZM73.742,100.164l15.758-2.781,2.773,15.75-15.75,2.781-2.781-15.75ZM82.078,147.43l-2.781-15.758,15.758-2.781,2.781,15.758-15.758,2.781Z" fill="#282828"/>
    <polygon points="23.156 187.883 3.156 209.484 91.156 209.484 87.156 193.484 101.555 177.484 23.156 187.883" fill="#282828"/>
  </g>
</svg>