<?xml version="1.0" encoding="UTF-8"?>
<svg id="Layer_2" data-name="Layer 2" xmlns="http://www.w3.org/2000/svg" viewBox="0 0 179.82 118.392">
  <g id="Color">
    <path d="M163.037,86.931h10.413c1.955,0,3.54-1.584,3.54-3.539s-1.585-3.54-3.54-3.54h-10.413v7.079Z" fill="#64b5f6"/>
    <path d="M158.688,53.973c.878-3.649,5.149-5.598,9.585-5.922,1.195-.087,2.42-.065,3.58.065,1.247.142,2.43.407,3.449.798,3.064,1.175,4.961,3.344,4.429,6.617h.01c-.027.165-.065.325-.112.479l-7.032,28.042-3.429-.857,3.433.861c-.475,1.896-2.398,3.048-4.294,2.572-1.379-.346-2.364-1.457-2.616-2.767l-7.031-28.038h-.005c-.159-.632-.136-1.268.035-1.851Z" fill="#64b5f6"/>
    <path d="M168.273,118.339c-4.436-.323-8.707-2.272-9.585-5.921-.171-.584-.194-1.22-.035-1.853h.005s7.031-28.037,7.031-28.037c.252-1.309,1.237-2.421,2.616-2.767,1.896-.476,3.819.676,4.294,2.572l-3.433.861,3.429-.857,7.032,28.042c.047.154.085.313.112.477l-.01.002c.532,3.272-1.364,5.441-4.429,6.617-1.019.391-2.202.656-3.449.797-1.16.132-2.385.153-3.58.065Z" fill="#64b5f6"/>
    <path d="M66.673,51.326l7.854-18.85c.478-1.39,1.797-2.389,3.349-2.389h12.389c1.955,0,3.54,1.585,3.54,3.54v17.698h-27.132Z" fill="#64b5f6"/>
    <path d="M86.725,30.088c0,.977.792,1.769,1.77,1.769s1.77-.792,1.77-1.769V1.77c0-.978-.793-1.77-1.77-1.77s-1.77.792-1.77,1.77v28.318Z" fill="#64b5f6"/>
  </g>
  <g id="Grey">
    <path d="M28.318,55.072h107.329c.928,0,1.773.358,2.404.943l19.865,15.468.008-.011c.895.697,1.364,1.739,1.365,2.793h0v18.251c0,1.246-.643,2.341-1.616,2.972l-19.856,15.461-2.171-2.779,2.175,2.793c-.647.504-1.413.747-2.175.747H28.318c-7.791,0-14.872-3.186-20.003-8.316-5.13-5.131-8.315-12.211-8.315-20.002h0c0-7.792,3.185-14.872,8.315-20.003,5.131-5.131,12.212-8.316,20.003-8.316h0ZM44.247,79.852c-2.598.015-4.309,2.695-3.2,5.055.598,1.246,1.818,2.017,3.2,2.024h7.08c2.599-.015,4.309-2.695,3.2-5.055-.598-1.246-1.818-2.017-3.2-2.024h-7.08ZM115.044,86.931c2.598-.015,4.308-2.695,3.2-5.055-.598-1.246-1.819-2.017-3.2-2.024h-7.08c-2.599.015-4.309,2.695-3.2,5.055.598,1.246,1.819,2.017,3.2,2.024h7.08ZM93.805,86.931c2.599-.015,4.309-2.695,3.2-5.055-.597-1.246-1.818-2.017-3.2-2.024h-7.08c-2.599.015-4.309,2.695-3.2,5.055.598,1.246,1.818,2.017,3.2,2.024h7.08ZM72.566,86.931c2.599-.015,4.309-2.695,3.2-5.055-.598-1.246-1.818-2.017-3.2-2.024h-7.08c-2.599.015-4.309,2.695-3.2,5.055.598,1.246,1.818,2.017,3.2,2.024h7.08Z" fill="#424242"/>
  </g>
</svg>