<?xml version='1.0' encoding='utf-8'?>
<svg xmlns="http://www.w3.org/2000/svg" id="Layer_2" data-name="Layer 2" viewBox="0 0 1285.176 1536">
  <g id="Color">
    <rect x="126.224" y="1150.101" width="227.573" height="385.899" fill="#FE2001" />
    <rect x="931.39" y="1150.101" width="227.573" height="385.899" fill="#FE2001" />
    <rect x="659.478" y="1150.101" width="238.154" height="385.899" fill="#FE2001" />
    <rect x="387.555" y="1150.101" width="238.164" height="385.899" fill="#FE2001" />
    <path d="M958.861,810.282h-428.255l-25.92-127.437h299.087c75.713,0,140.603,54.667,155.087,127.437Z" fill="#FE2001" />
    <rect x="164.086" y="272.408" width="335.852" height="50.384" fill="#FE2001" />
    <polygon points="550.787 99.386 533.306 152.134 130.729 152.134 113.248 99.386 550.787 99.386" fill="#FE2001" />
    <polygon points="522.113 185.892 504.633 238.65 159.392 238.65 141.911 185.892 522.113 185.892" fill="#FE2001" />
  </g>
  <g id="Grey">
    <path d="M1285.176,844.04v691.96h-92.455v-402.778c0-9.315-7.553-16.879-16.879-16.879H109.345c-9.326,0-16.879,7.564-16.879,16.879v402.778H0v-691.96h123.102c.137.011.285.011.422.011.127,0,.243,0,.369-.011h392.545c.127.011.243.011.369.011.137,0,.285,0,.422-.011h767.947Z" fill="#282828" />
    <polygon points="496.162 810.282 144.158 810.282 236.487 356.55 403.844 356.55 467.488 669.373 496.162 810.282" fill="#282828" />
    <rect x="194.405" width="275.214" height="65.628" fill="#282828" />
    <path d="M1256.102,83.773c-9.199,15.55-23.42,31.036-41.122,44.782-25.952,20.149-55.1,37.704-80.819,53.19-18.345,11.045-28.114,26.173-30.752,47.61-3.112,25.234-6.71,50.901-10.201,75.735-5.211,37.102-10.602,75.46-14.485,113.502-2.426,23.768-9.674,35.393-26.732,42.905-.084.032-.169.074-.243.106l-17.248-184.826c-.549-5.897-4.146-11.066-9.463-13.64-5.328-2.564-11.615-2.163-16.563,1.066l-41.639,27.154c-6.625,4.325-13.102,8.914-19.348,13.345-13.451,9.537-26.152,18.546-39.729,24.675-50.268,22.671-74.247,61.408-75.481,121.909-.327,16.373-1.023,26.616-3.587,30.562-1.34,2.057-4.61,4.262-9.484,6.889-1.308-4.114-2.627-8.197-3.924-12.227-7.553-23.388-14.674-45.468-19.137-68.213-7.817-39.866-34.887-62.347-58.771-82.191-4.536-3.766-8.819-7.332-13.039-11.024-14.105-12.385-28.568-23.557-43.896-35.372-1.466-1.139-2.954-2.289-4.452-3.45,9.073-6.34,15.951-6.773,25.53-3.27,10.138,3.703,20.371,5.876,30.277,7.975,10.106,2.152,19.664,4.178,28.135,7.617,13.345,5.401,26.131,8.123,38.632,8.123,21.131,0,41.396-7.785,61.978-23.525,22.956-17.565,47.684-33.125,73.867-49.593,11.657-7.332,23.694-14.906,35.889-22.861,4.948-3.228,7.849-8.809,7.648-14.716-.201-5.908-3.481-11.277-8.64-14.157l-162.092-90.556c17.449-11.815,33.252-13.029,54.066-5.538,37.619,13.545,76.578,24.348,114.261,34.813,21.257,5.897,43.232,11.995,64.573,18.483,19.263,5.855,35.72,3.323,53.349-8.218,28.705-18.767,62.938-40.647,99.123-60.512,12.142-6.667,26.469-10.634,38.4-10.634.095,0,.19.011.285.011,13.841.074,26.173,4.051,28.789,6.815,2.131,4.083,1.013,18.852-3.956,27.26Z" fill="#282828" />
  </g>
</svg>