<?xml version="1.0" encoding="UTF-8"?>
<svg id="Layer_2" data-name="Layer 2" xmlns="http://www.w3.org/2000/svg" viewBox="0 0 50.045 37.084">
  <g id="Grey">
    <polygon points="12.674 5.058 15.448 10.805 18.046 5.127 21.166 0 9.455 0 12.674 5.058" fill="#282828"/>
    <polygon points="34.599 10.806 37.342 5.11 40.59 0 28.878 0 31.971 5.072 34.599 10.806" fill="#282828"/>
    <polygon points="34.835 12.786 30.861 25.362 26.705 35.878 50.045 12.536 34.835 12.786" fill="#282828"/>
    <polygon points="39.036 5.988 35.714 11.209 49.575 11.437 41.608 .644 39.036 5.988" fill="#282828"/>
    <polygon points="14.331 11.209 11.039 6.043 8.436 .645 .47 11.437 14.331 11.209" fill="#282828"/>
    <polygon points="19.195 25.396 15.208 12.786 0 12.536 23.342 35.878 19.195 25.396" fill="#282828"/>
  </g>
  <g id="Color">
    <polygon points="16.592 11.173 25.016 11.034 33.454 11.173 30.315 6.028 27.553 0 27.535 0 22.512 0 22.49 0 19.76 5.972 16.592 11.173" fill="#00abf6"/>
    <polygon points="25.026 12.947 16.379 12.805 21.064 24.682 25.023 37.084 28.97 24.715 33.664 12.805 25.035 12.947 25.026 12.947" fill="#00abf6"/>
  </g>
</svg>