<?xml version="1.0" encoding="UTF-8"?>
<svg id="Layer_2" data-name="Layer 2" xmlns="http://www.w3.org/2000/svg" viewBox="0 0 1536 1189.851">
  <g id="Color">
    <rect x="165.004" y="347.794" width="171.017" height="107.024" fill="#63b5f6"/>
    <rect x="165.004" y="605.528" width="171.017" height="107.024" fill="#63b5f6"/>
    <rect x="165.004" y="863.251" width="171.017" height="107.024" fill="#63b5f6"/>
    <rect x="1199.979" y="863.251" width="171.007" height="107.024" fill="#63b5f6"/>
    <rect x="1199.979" y="605.528" width="171.007" height="107.024" fill="#63b5f6"/>
    <rect x="1199.979" y="347.794" width="171.007" height="107.024" fill="#63b5f6"/>
    <path d="M845.981,768.844h-155.963c-25.087,0-45.5,20.413-45.5,45.5v252.142h246.952v-252.142c0-25.087-20.403-45.5-45.489-45.5ZM712.731,928.362c0,9.315-7.553,16.879-16.879,16.879s-16.879-7.564-16.879-16.879v-21.384c0-9.326,7.553-16.879,16.879-16.879s16.879,7.553,16.879,16.879v21.384Z" fill="#63b5f6"/>
    <rect x="587.889" y="528.063" width="108.417" height="88.014" fill="#63b5f6"/>
    <rect x="587.889" y="305.153" width="108.417" height="88.003" fill="#63b5f6"/>
    <rect x="839.694" y="305.153" width="108.417" height="88.003" fill="#63b5f6"/>
    <rect x="839.694" y="528.063" width="108.417" height="88.014" fill="#63b5f6"/>
  </g>
  <g id="Grey">
    <rect y="1100.255" width="1536" height="89.596" fill="#424242"/>
    <path d="M46.354,251.583v814.913h416.735V251.583H46.354ZM369.779,987.154c0,9.326-7.564,16.879-16.879,16.879h-204.775c-9.315,0-16.879-7.553-16.879-16.879v-140.782c0-9.326,7.564-16.879,16.879-16.879h204.775c9.315,0,16.879,7.553,16.879,16.879v140.782ZM369.779,729.431c0,9.326-7.564,16.879-16.879,16.879h-204.775c-9.315,0-16.879-7.553-16.879-16.879v-140.782c0-9.326,7.564-16.879,16.879-16.879h204.775c9.315,0,16.879,7.553,16.879,16.879v140.782ZM369.779,471.698c0,9.326-7.564,16.879-16.879,16.879h-204.775c-9.315,0-16.879-7.553-16.879-16.879v-140.782c0-9.315,7.564-16.879,16.879-16.879h204.775c9.315,0,16.879,7.564,16.879,16.879v140.782Z" fill="#424242"/>
    <path d="M1072.911,251.583v814.913h416.735V251.583h-416.735ZM1404.744,987.154c0,9.326-7.554,16.879-16.879,16.879h-204.765c-9.315,0-16.879-7.553-16.879-16.879v-140.782c0-9.326,7.564-16.879,16.879-16.879h204.765c9.326,0,16.879,7.553,16.879,16.879v140.782ZM1404.744,729.431c0,9.326-7.554,16.879-16.879,16.879h-204.765c-9.315,0-16.879-7.553-16.879-16.879v-140.782c0-9.326,7.564-16.879,16.879-16.879h204.765c9.326,0,16.879,7.553,16.879,16.879v140.782ZM1404.744,471.698c0,9.326-7.554,16.879-16.879,16.879h-204.765c-9.315,0-16.879-7.553-16.879-16.879v-140.782c0-9.315,7.564-16.879,16.879-16.879h204.765c9.326,0,16.879,7.564,16.879,16.879v140.782Z" fill="#424242"/>
    <polygon points="723.007 0 473.618 217.825 18.451 217.825 194.384 0 723.007 0" fill="#424242"/>
    <polygon points="1517.549 217.825 1062.382 217.825 812.993 0 1341.616 0 1517.549 217.825" fill="#424242"/>
    <path d="M768,5.538l-271.153,236.825v824.123h113.913v-252.142c0-43.706,35.562-79.258,79.258-79.258h155.963c43.696,0,79.248,35.552,79.248,79.258v252.142h113.924V242.363L768,5.538ZM730.064,632.957c0,9.326-7.553,16.879-16.879,16.879h-142.175c-9.326,0-16.879-7.553-16.879-16.879v-121.772c0-9.315,7.553-16.879,16.879-16.879h142.175c9.326,0,16.879,7.564,16.879,16.879v121.772ZM730.064,410.036c0,9.326-7.553,16.879-16.879,16.879h-142.175c-9.326,0-16.879-7.553-16.879-16.879v-121.762c0-9.326,7.553-16.879,16.879-16.879h142.175c9.326,0,16.879,7.553,16.879,16.879v121.762ZM981.869,632.957c0,9.326-7.553,16.879-16.879,16.879h-142.175c-9.326,0-16.879-7.553-16.879-16.879v-121.772c0-9.315,7.553-16.879,16.879-16.879h142.175c9.326,0,16.879,7.564,16.879,16.879v121.772ZM981.869,410.036c0,9.326-7.553,16.879-16.879,16.879h-142.175c-9.326,0-16.879-7.553-16.879-16.879v-121.762c0-9.326,7.553-16.879,16.879-16.879h142.175c9.326,0,16.879,7.553,16.879,16.879v121.762Z" fill="#424242"/>
  </g>
</svg>