<?xml version='1.0' encoding='utf-8'?>
<svg xmlns="http://www.w3.org/2000/svg" id="Layer_2" data-name="Layer 2" viewBox="0 0 20.04 19.44">
  <g id="Layer_1-2" data-name="Layer 1">
    <path d="M.877,3.489h10.771c0,.997.752,1.869,1.628,1.869h1.754c.877,0,1.503-.872,1.503-1.869h2.505c.501,0,1.002-.249,1.002-.748s-.501-.872-1.002-.872h-2.505c0-.997-.626-1.869-1.503-1.869h-1.754c-.877,0-1.628.872-1.628,1.869H.877c-.501,0-.877.374-.877.872s.376.748.877.748h0ZM13.276,1.869h1.754v1.62h-1.754v-1.62h0ZM19.038,8.848h-10.646c0-.872-.877-1.62-1.753-1.62h-1.753c-.877,0-1.503.748-1.503,1.62H.877c-.501,0-.877.499-.877.997s.376.748.877.748h2.505c0,.997.626,1.869,1.503,1.869h1.753c.877,0,1.753-.872,1.753-1.869h10.646c.501,0,1.002-.249,1.002-.748s-.501-.997-1.002-.997h0ZM6.638,10.592h-1.753v-1.745h1.753v1.745h0ZM19.038,15.951h-5.762c0-.997-.751-1.62-1.628-1.62h-1.628c-.877,0-1.628.623-1.628,1.62H.877c-.501,0-.877.374-.877.872s.376.872.877.872h7.515c0,.997.752,1.745,1.628,1.745h1.628c.877,0,1.628-.748,1.628-1.745h5.762c.501,0,1.002-.374,1.002-.872s-.501-.872-1.002-.872h0ZM11.648,17.695h-1.628v-1.745h1.628v1.745h0Z" fill="#D3D3D3" fill-rule="evenodd" />
  </g>
</svg>