<?xml version='1.0' encoding='utf-8'?>
<svg xmlns="http://www.w3.org/2000/svg" id="Layer_2" data-name="Layer 2" viewBox="0 0 15.96 19.92">
  <g id="Layer_1-2" data-name="Layer 1">
    <path d="M15.711,10.333l-1.122-.623v-.623c0-.373-.374-.747-.748-.747s-.623.249-.623.498l-1.122-.623v-.498c0-.374-.249-.872-.623-.872s-.623.374-.623.623l-.997-.623c-.125-1.369-.249-2.739-.374-3.735-.249-.872-.374-1.619-.499-2.116-.125-.249-.374-.996-.997-.996-.499,0-.873.747-.997.996-.125.498-.374,1.245-.499,2.116-.125.996-.249,2.365-.374,3.735l-.873.623c0-.249-.249-.623-.623-.623s-.748.498-.748.872v.498l-1.122.623c0-.249-.374-.498-.499-.498-.374,0-.748.374-.748.747v.623l-1.247.623c-.249.125-.249.249-.249.498v1.992c0,.125,0,.249.125.374h.499l5.486-2.116c0,1.867.249,3.61.374,4.855.125.249.125.498.125.747l-2.868,1.743s-.125.125-.125.249v.996c0,.125.125.125.125.249h.249l3.367-1.245c.125.249.374.374.623.374.374,0,.623-.125.623-.374l3.367,1.245h.249c0-.125.125-.125.125-.249v-.996c0-.125-.125-.249-.125-.249l-2.868-1.743c0-.249,0-.498.125-.747.125-1.245.374-2.988.374-4.855l5.486,2.116h.499c.125-.125.125-.249.125-.374v-1.992c0-.249-.125-.374-.249-.498h0Z" fill="#D3D3D3" fill-rule="evenodd" />
  </g>
</svg>