<?xml version='1.0' encoding='utf-8'?>
<svg xmlns="http://www.w3.org/2000/svg" id="Layer_2" data-name="Layer 2" viewBox="0 0 19.92 18.84">
  <g id="Layer_1-2" data-name="Layer 1">
    <path d="M5.229,7.486H.498c-.249,0-.498.125-.498.374v10.48c0,.25.249.499.498.499h4.731c.249,0,.498-.25.498-.499V7.86c0-.25-.249-.374-.498-.374h0ZM4.357,12.352H1.37v-3.493h2.988v3.493h0ZM12.326,4.741h-4.855c-.249,0-.374.25-.374.499v13.101c0,.25.124.499.374.499h4.855c.249,0,.498-.25.498-.499V5.24c0-.25-.249-.499-.498-.499h0ZM11.454,13.101h-2.988v-6.987h2.988v6.987h0ZM19.422,0h-4.731c-.249,0-.498.25-.498.499v17.842c0,.25.249.499.498.499h4.731c.249,0,.498-.25.498-.499V.499c0-.25-.249-.499-.498-.499h0ZM18.551,10.106h-2.988V1.373h2.988v8.734h0Z" fill="#D3D3D3" fill-rule="evenodd" />
  </g>
</svg>