<?xml version='1.0' encoding='utf-8'?>
<svg xmlns="http://www.w3.org/2000/svg" id="Layer_2" data-name="Layer 2" viewBox="0 0 15 20.04">
  <g id="Layer_1-2" data-name="Layer 1">
    <path d="M1.875,0C1.375,0,.75.25.5.626c-.375.376-.5.877-.5,1.378h0v16.283c0,1.002.75,1.753,1.75,1.753h13.25V0H1.875ZM.625,18.287V3.382c.375.125.75.25,1,.25v15.781c-.5-.125-1-.626-1-1.127h0ZM14.375,19.414H2.375V3.632h.875v8.392c0,.376.25.376.5.501h.25l.125-.125h.125l1.5-2.505,1.375,2.505c.125.125.25.125.5.125h0c.25-.125.375-.125.375-.501V3.632h6.375v15.781h0ZM7.375,3.257h-.125v.125h0v8.141l-1.5-2.881-1.75,2.881V3.382l.625-1.002h3.25l-.5.877h0ZM8.25,3.006l.625-1.378h-4.75l-.625,1.378h-1.5c-.625,0-1.25-.376-1.375-1.002,0-.376.125-.626.375-.877.25-.376.5-.376.875-.376h12.5v.25h-1.75c-.125,0-.25.125-.25.376,0,.125.125.25.25.25h1.75v.376h-1.375c-.125,0-.375.125-.375.376,0,.125.25.251.375.251h1.375v.376h-6.125Z" fill="#D3D3D3" fill-rule="evenodd" />
  </g>
</svg>