<?xml version='1.0' encoding='utf-8'?>
<svg xmlns="http://www.w3.org/2000/svg" id="Layer_2" data-name="Layer 2" viewBox="0 0 20.04 13.56">
  <g id="Layer_1-2" data-name="Layer 1">
    <path d="M4.258,8.957c-1.127,0-2.129.995-2.129,2.239,0,1.368,1.002,2.364,2.129,2.364,1.253,0,2.129-.995,2.129-2.364,0-1.244-.877-2.239-2.129-2.239h0ZM4.258,12.316c-.501,0-1.002-.498-1.002-1.12,0-.498.501-.995,1.002-.995.626,0,1.127.498,1.127.995,0,.622-.501,1.12-1.127,1.12h0ZM15.531,8.957c-1.252,0-2.255.995-2.255,2.239,0,1.368,1.002,2.364,2.255,2.364s2.255-.995,2.255-2.364c0-1.244-1.002-2.239-2.255-2.239h0ZM15.531,12.316c-.626,0-1.002-.498-1.002-1.12,0-.498.376-.995,1.002-.995.501,0,1.002.498,1.002.995,0,.622-.501,1.12-1.002,1.12h0ZM19.414,8.833h-.251V2.986c0-.373-.25-.622-.626-.622H7.765c-.25,0-.376.124-.501.249l-2.129,3.11H1.503c-.25,0-.626.249-.626.622v2.488h-.376c-.25,0-.501.249-.501.746v.622c0,.249.25.498.501.498h1.002v-.249c.125-.125.125-.249.125-.373.125-.124.125-.249.25-.373,0,0,.125-.124.125-.373q.125-.125.25-.249t.25-.125c.501-.498,1.127-.746,1.753-.746.752,0,1.378.249,1.879.746.501.373.877,1.12,1.002,1.742v.124h5.636v-.124c.125-.622.501-1.368,1.002-1.742.376-.498,1.002-.746,1.753-.746.626,0,1.378.249,1.879.746.501.373.877,1.12.877,1.742l.125.124h1.002c.376,0,.626-.373.626-.622v-.622c0-.498-.251-.746-.626-.746h0ZM10.02,5.349c0,.249-.25.498-.501.498h-2.505c-.25,0-.501-.373-.25-.498l1.002-1.866c.125-.125.25-.249.501-.249h1.253c.25,0,.501.249.501.747v1.368h0ZM17.911,5.349c0,.249-.125.373-.501.373h-5.386c-.251,0-.501-.125-.501-.373v-1.368c0-.125.125-.373.125-.498.125-.125.25-.125.376-.125h5.386c.125,0,.25,0,.376.125.125.124.125.373.125.498v1.368h0ZM9.018,1.742h8.893c.501,0,.752-.373.752-.747,0-.498-.251-.995-.752-.995h-8.893c-.376,0-.752.498-.752.995,0,.373.376.747.752.747h0Z" fill="#D3D3D3" fill-rule="evenodd" />
  </g>
</svg>