<?xml version='1.0' encoding='utf-8'?>
<svg xmlns="http://www.w3.org/2000/svg" id="Layer_2" data-name="Layer 2" viewBox="0 0 20.04 17.096">
  <g id="Layer_1-2" data-name="Layer 1">
    <path d="M3.257,1.726L.877.098C.376-.152,0,.098,0,.599v3.255c0,.501.376.751.877.501l2.38-1.502c.501-.376.501-.876,0-1.127h0ZM19.038.599H6.263c-.501,0-1.002.501-1.002,1.127v1.001c0,.626.501,1.127,1.002,1.127h12.775c.501,0,1.002-.501,1.002-1.127v-1.001c0-.626-.501-1.127-1.002-1.127h0ZM.877,10.613l2.38-1.502c.501-.25.501-.751,0-1.001l-2.38-1.127c-.501-.375-.877,0-.877.501v2.629c0,.626.376.876.877.501h0ZM19.038,6.983H6.263c-.501,0-1.002.501-1.002,1.001v1.127c0,.5.501,1.001,1.002,1.001h12.775c.501,0,1.002-.501,1.002-1.001v-1.127c0-.501-.501-1.001-1.002-1.001h0ZM3.257,14.369l-2.38-1.502c-.501-.376-.877-.125-.877.375v3.255c0,.501.376.751.877.501l2.38-1.502c.501-.375.501-.876,0-1.127h0ZM19.038,13.242H6.263c-.501,0-1.002.501-1.002,1.126v1.001c0,.626.501,1.127,1.002,1.127h12.775c.501,0,1.002-.501,1.002-1.127v-1.001c0-.626-.501-1.126-1.002-1.126h0Z" fill="#D3D3D3" fill-rule="evenodd" />
  </g>
</svg>