<?xml version='1.0' encoding='utf-8'?>
<svg xmlns="http://www.w3.org/2000/svg" id="Layer_2" data-name="Layer 2" viewBox="0 0 19.92 15.6">
  <g id="Layer_1-2" data-name="Layer 1">
    <path d="M7.221,0h-.747l-.747.125-.747.125-.622.125-.622.25-.622.25-.498.375-.498.374-.498.375-.374.374-.373.499-.374.499-.125.499-.249.624-.125.499v.999l.125.374.125.499.124.374.125.375.249.375.249.374.374.375-.374.749-.498.624-.373.499-.125.25v.125l.125.125h.622l.498-.125.747-.125.747-.25.622-.374.871.374.872.25.996.125,1.12.125h.747l.622-.125.747-.125.622-.125.622-.25.622-.374.498-.25.498-.374.498-.375.498-.499.373-.374.249-.499.249-.499.125-.624.125-.499v-1.123l-.125-.499-.125-.624-.249-.499-.249-.499-.373-.499-.498-.374-.498-.375-.498-.374-.498-.375-.622-.25-.622-.25-.622-.125-.747-.125-.622-.125h-.747ZM15.438,4.867v1.373l-.125.624-.249.624-.249.624-.373.624-.374.624-.498.499-.498.375-.622.499-.622.374-.622.375-.747.25-.872.25-.747.125-.747.125h-1.494l-.498-.125.249.499.249.25.249.374.249.375.747.499.872.499.871.375.996.374,1.12.125.996.125.996-.125.996-.125.996-.25.871-.375.623.25.747.374.747.125.498.125h.498l.124-.125v-.125l.125-.125-.125-.125-.498-.499-.373-.624-.374-.749.249-.374.373-.375.125-.374.249-.375.125-.375.124-.499v-.375l.125-.499-.125-.374v-.499l-.124-.374-.125-.375-.125-.374-.249-.375-.249-.375-.249-.374-.373-.25-.374-.375-.622-.624-.996-.374-.872-.375h0Z" fill="#D3D3D3" fill-rule="evenodd" />
  </g>
</svg>