<?xml version='1.0' encoding='utf-8'?>
<svg xmlns="http://www.w3.org/2000/svg" id="Layer_2" data-name="Layer 2" viewBox="0 0 19.92 17.64">
  <g id="Layer_1-2" data-name="Layer 1">
    <polygon points="9.897 0 8.895 0 7.893 .125 6.891 .375 6.014 .625 5.137 1.001 4.26 1.376 3.508 1.877 2.756 2.377 2.13 2.877 1.629 3.628 1.128 4.254 .752 5.004 .376 5.755 .125 6.506 0 7.256 0 8.132 0 8.883 .125 9.633 .251 10.259 .501 11.009 .877 11.635 1.253 12.135 1.629 12.761 2.005 13.261 1.879 14.012 1.629 14.762 1.253 15.388 .877 15.888 .251 16.764 0 17.14 0 17.265 0 17.39 .125 17.515 .251 17.64 1.253 17.515 2.005 17.39 2.756 17.14 3.508 16.889 4.26 16.639 4.761 16.264 5.638 15.638 6.64 15.888 7.642 16.139 8.77 16.264 9.897 16.389 10.9 16.264 11.902 16.264 12.779 16.014 13.781 15.763 14.658 15.388 15.535 15.013 16.287 14.512 17.039 13.887 17.665 13.386 18.166 12.761 18.667 12.01 19.168 11.385 19.419 10.634 19.669 9.883 19.92 9.008 19.92 8.132 19.92 7.256 19.669 6.506 19.419 5.755 19.168 5.004 18.667 4.254 18.166 3.628 17.665 2.877 17.039 2.377 16.287 1.877 15.535 1.376 14.658 1.001 13.781 .625 12.779 .375 11.902 .125 10.9 0 9.897 0 9.897 0 9.897 0 9.897 0 9.897 0" fill="#D3D3D3" fill-rule="evenodd" />
  </g>
</svg>