<?xml version='1.0' encoding='utf-8'?>
<svg xmlns="http://www.w3.org/2000/svg" id="Layer_2" data-name="Layer 2" viewBox="0 0 19.92 19.92">
  <g id="Layer_1-2" data-name="Layer 1">
    <path d="M18.052,4.855c-.249-1.618-1.618-2.988-3.237-2.988-.622,0-.871.249-1.369.249-.872-1.245-2.117-2.116-3.486-2.116s-2.739.872-3.486,1.867c-.622-.249-1.12-.498-1.618-.498-1.867,0-3.237,1.37-3.237,3.237v.249c-1.121.623-1.618,1.619-1.618,2.739,0,1.618,1.37,2.739,2.988,2.739h3.486v2.365h.498v-2.365h1.37v5.104h.498v-5.104h1.867v.747h.871v-.747h.996v3.984h.872v-3.984h3.486c1.618,0,2.988-1.121,2.988-2.739,0-1.369-.872-2.116-1.868-2.739h0ZM16.932,9.711H2.988c-1.37,0-2.49-.996-2.49-2.116s.498-1.867,1.618-2.116h.249l-.249-.374v-.498c0-1.369,1.121-2.739,2.739-2.739,1.37,0,2.366,1.37,2.366,2.739h.871c0-.747-.622-1.618-1.121-2.49.498-.747,1.619-1.245,2.988-1.245s2.366.747,3.237,1.867v.249h.249c.498-.249.747-.249,1.369-.249.996,0,2.117.747,2.615,1.867h-.498c-.498,0-1.121,0-1.37.249l.249.623c.374,0,.622-.374,1.121-.374,1.37,0,2.116,1.121,2.116,2.49,0,1.121-.747,2.116-2.116,2.116h0ZM1.867,7.594h-.622c0,.747.622,1.494,1.743,1.494v-.747c-.622,0-1.121-.249-1.121-.747h0ZM4.731,2.615c-.996,0-1.743.872-1.743,1.992h.498c0-.871.498-1.369,1.245-1.369v-.623h0ZM6.349,16.434c0,.622-.498,1.12-.996,1.12h-1.37c0-.498-.498-.747-.747-.747-.622,0-1.121.498-1.121.996s.498.747,1.121.747c.249,0,.747-.249.747-.498h1.37c.747,0,1.618-.747,1.618-1.618v-3.113h-.622v3.113h0ZM3.237,18.052c-.374,0-.374-.249-.374-.249q0-.249.374-.249s.249,0,.249.249l-.249.249h0ZM8.715,18.052v-1.743h-.498v1.743c-.498.249-.747.623-.747,1.121,0,.249.498.747.996.747.622,0,1.12-.498,1.12-.747,0-.498-.249-.872-.871-1.121h0ZM8.466,19.422c-.249,0-.249-.249-.249-.249,0-.249,0-.498.249-.498s.249.249.249.498c0,0,0,.249-.249.249h0ZM11.454,11.579h-.747v6.474c-.249.249-.498.498-.498,1.121,0,.249.498.747.996.747.249,0,.872-.498.872-.747,0-.623-.249-.872-.622-1.121v-6.474h0ZM11.205,19.422c-.249,0-.498-.249-.498-.249,0-.374.249-.623.498-.623,0,0,.249.249.249.623l-.249.249h0ZM16.683,16.683c-.623,0-.872.249-1.121.871h-1.37c-.622,0-.871-.623-.871-1.12v-1.619h-.747v1.619c0,.871.747,1.618,1.618,1.618h1.37c.249.249.498.498,1.121.498.498,0,.747-.249.747-.747s-.249-1.12-.747-1.12h0ZM16.683,18.052c-.374,0-.374-.249-.374-.249q0-.249.374-.249s.249,0,.249.249l-.249.249h0ZM10.956,5.354l.498.623c.622-.872.622-1.619,0-2.49-.498-.498-1.618-.498-2.366,0l.498.622c.498-.373,1.121-.373,1.37,0,.498.249.498.996,0,1.245h0ZM16.932,5.976v.498c.498,0,.747.498.747.996,0,.623-.249.872-.747.872v.747c.747,0,1.494-.747,1.494-1.618,0-.996-.747-1.494-1.494-1.494h0ZM12.45,8.093c-.622,0-.872-.498-.872-.996h-.747c0,.996.747,1.494,1.618,1.494.996,0,1.494-.498,1.494-1.494h-.498c0,.498-.498.996-.996.996h0ZM5.603,5.603c-.872,0-1.618.623-1.618,1.494h.747c0-.374.374-.871.872-.871s1.12.498,1.12.871h.498c0-.871-.498-1.494-1.618-1.494h0Z" fill="#D3D3D3" fill-rule="evenodd" />
  </g>
</svg>