<?xml version='1.0' encoding='utf-8'?>
<svg xmlns="http://www.w3.org/2000/svg" id="Layer_2" data-name="Layer 2" viewBox="0 0 20.04 22.8">
  <g id="Layer_1-2" data-name="Layer 1">
    <path d="M20.04,6.479c-2.755.997-5.01,1.744-6.764,4.111-1.628,2.243-4.133,2.99-6.638,1.495v7.849h-1.378V.748c0-.374.376-.748.626-.748.376,0,.751.374.751.748,1.378,2.243,3.883,2.741,6.638,2.741,4.008.249,6.764,2.99,6.764,2.99h0ZM8.016,15.823v1.495c1.503.249,2.505.872,2.505,1.869,0,1.121-2.004,2.118-4.634,2.118-2.505,0-4.509-.997-4.509-2.118,0-.997,1.002-1.62,2.505-1.869v-1.495c-2.38.374-3.883,1.744-3.883,3.364,0,2.118,2.38,3.613,5.887,3.613s6.012-1.495,6.012-3.613c0-1.62-1.503-2.99-3.883-3.364h0Z" fill="#D3D3D3" fill-rule="evenodd" />
  </g>
</svg>