<?xml version='1.0' encoding='utf-8'?>
<svg xmlns="http://www.w3.org/2000/svg" id="Layer_2" data-name="Layer 2" viewBox="0 0 20.04 19.92">
  <g id="Layer_1-2" data-name="Layer 1">
    <path d="M3.507,2.005c-.751,0-1.378.752-1.378,1.629,0,.752.626,1.378,1.378,1.378.877,0,1.628-.626,1.628-1.378,0-.877-.751-1.629-1.628-1.629h0ZM3.507,4.385c-.376,0-.751-.376-.751-.752,0-.626.376-.877.751-.877.626,0,.877.25.877.877,0,.376-.25.752-.877.752h0ZM16.784,2.756c-.251,0-.251.125-.251.25,0,.25,0,.376.251.376.125,0,.25-.125.25-.376,0-.125-.125-.25-.25-.25h0ZM15.406,2.756c-.25,0-.376.125-.376.25,0,.25.125.376.376.376s.376-.125.376-.376c0-.125-.125-.25-.376-.25h0ZM17.41,3.759c-.251,0-.376.125-.376.376,0,.125.125.251.376.251.125,0,.25-.125.25-.251,0-.25-.125-.376-.25-.376h0ZM16.032,3.759c-.125,0-.25.125-.25.376,0,.125.125.251.25.251.25,0,.501-.125.501-.251,0-.25-.25-.376-.501-.376h0ZM14.028,2.756c-.125,0-.25.125-.25.25,0,.25.125.376.25.376.25,0,.376-.125.376-.376,0-.125-.125-.25-.376-.25h0ZM14.78,3.759c-.251,0-.376.125-.376.376,0,.125.125.251.376.251.125,0,.25-.125.25-.251,0-.25-.125-.376-.25-.376h0ZM12.775,2.756c-.25,0-.376.125-.376.25,0,.25.125.376.376.376.125,0,.376-.125.376-.376,0-.125-.25-.25-.376-.25h0ZM13.402,3.759c-.25,0-.25.125-.25.376,0,.125,0,.251.25.251s.376-.125.376-.251c0-.25-.125-.376-.376-.376h0ZM11.398,2.756c-.25,0-.376.125-.376.25,0,.25.125.376.376.376s.376-.125.376-.376c0-.125-.125-.25-.376-.25h0ZM12.024,3.759c-.125,0-.251.125-.251.376,0,.125.125.251.251.251.25,0,.376-.125.376-.251,0-.25-.125-.376-.376-.376h0ZM3.507,11.401c.877,0,1.628-.751,1.628-1.503,0-.877-.751-1.503-1.628-1.503-.751,0-1.378.626-1.378,1.503,0,.752.626,1.503,1.378,1.503h0ZM3.507,9.02c.626,0,.877.376.877.877,0,.376-.25.752-.877.752-.376,0-.751-.376-.751-.752,0-.501.376-.877.751-.877h0ZM3.507,14.783c-.751,0-1.378.626-1.378,1.378,0,.877.626,1.629,1.378,1.629.877,0,1.628-.752,1.628-1.629,0-.752-.751-1.378-1.628-1.378h0ZM3.507,17.039c-.376,0-.751-.251-.751-.877,0-.376.376-.752.751-.752.626,0,.877.376.877.752,0,.626-.25.877-.877.877h0ZM20.04,5.512V1.629c0-.877-.626-1.629-1.503-1.629H1.628C.751,0,0,.752,0,1.629v3.884c0,.501.25.877.626,1.253-.376.25-.626.752-.626,1.127v4.009c0,.376.25.877.626,1.128-.376.25-.626.752-.626,1.253v3.884c0,.877.751,1.629,1.628,1.629h9.269c.877,0,1.879.125,2.756.125,3.006,0,6.012-.752,6.388-2.13v-9.647c-.125-.376-.626-.752-1.253-1.127.752-.25,1.253-.877,1.253-1.503h0ZM.751,7.893c0-.376.376-.877.877-.877h6.889c-.626.376-1.002.752-1.127,1.127v4.51H1.628c-.501,0-.877-.376-.877-.752v-4.009h0ZM1.628,19.043c-.501,0-.877-.376-.877-.877v-3.884c0-.501.376-1.002.877-1.002h5.762v4.635h.125v.125l.125.125q.125.125.125.25h0c.125.125.376.251.501.376h.125c0,.125.125.25.376.25H1.628ZM19.414,17.54c-.125.877-2.505,1.754-5.761,1.754-1.002,0-1.879-.125-2.63-.251-1.753-.376-2.63-.877-2.881-1.253v-.125s-.125,0-.125-.125v-1.879h.125c0,.125.125.125.125.125l.125.125h.125c.626.376,1.754.626,2.756.877.376,0,.626.125,1.002.125h2.881c.376,0,.626-.125,1.002-.125,1.253-.25,2.255-.501,2.881-.877.125,0,.125-.125.25-.125l.125-.125v1.879h0ZM19.414,14.282v.376l-.125.125c0,.125-.125.125-.125.125v.125c-.751.626-2.881,1.253-5.511,1.253s-4.634-.626-5.261-1.253c0,0,0-.125-.125-.125v-.125h-.125v-.125h0q-.125,0-.125-.125v-1.879h.125s.125,0,.125.125h.125q0,.125.125.125c.626.376,1.754.752,2.756.877.376.125.626.125,1.002.125q.125,0,.25.125h2.38c0-.125.125-.125.25-.125.376,0,.626,0,1.002-.125,1.253-.251,2.255-.501,2.881-1.002h.25q0-.125.125-.125v1.629h0ZM19.414,11.401h0v.251q0,.125-.125.125v.125s-.125,0-.125.125c-.751.626-2.881,1.253-5.511,1.253s-4.634-.626-5.261-1.253h-.125v-.125c-.125,0-.125-.125-.125-.125v-.125l-.125-.125v-.125h0v-1.754c.125,0,.25.125.25.125,0,0,.125,0,.125.125v.125h.501c0,.125.125.125.125.125h.125c0,.125.125.125.25.125.125.125.25.125.376.125v.125h.376c.125.125.251.125.251.125h.125c.125,0,.25.125.376.125h.751c.125,0,.25,0,.376.125h3.382c.125-.125.25-.125.376-.125h.877c.125,0,.125-.125.251-.125h.125c.125,0,.25,0,.376-.125h.25v-.125c.125,0,.251,0,.376-.125q.125,0,.25-.125h.125s.125,0,.25-.125h.25q.125-.125.25-.125v-.125c.125,0,.125-.125.25-.125v1.754h0ZM19.414,8.519c0,.877-2.505,1.754-5.761,1.754s-5.636-.877-5.636-1.754c0,0,0-.125.125-.125v-.251c.125,0,.25-.25.751-.501l.125-.125h.376c.376-.251.877-.376,1.378-.501.125-.125.25-.125.376-.125h.25c1.503-.251,3.257-.251,4.759,0h0c.25,0,.376,0,.626.125,1.503.376,2.63,1.002,2.63,1.503h0ZM19.414,5.512c0,.501-.501.877-.877.877h-1.628c-.125-.125-.501-.125-.752-.25h-5.01c-.125.125-.376.125-.626.25H1.628c-.501,0-.877-.376-.877-.877V1.629c0-.501.376-.877.877-.877h16.909c.376,0,.877.376.877.877v3.884h0Z" fill="#D3D3D3" fill-rule="evenodd" />
  </g>
</svg>