<?xml version='1.0' encoding='utf-8'?>
<svg xmlns="http://www.w3.org/2000/svg" id="Layer_2" data-name="Layer 2" viewBox="0 0 20.04 20.04">
  <g id="Layer_1-2" data-name="Layer 1">
    <path d="M1.628,4.384c0-.25.25-.25.25-.25h11.022v-.877H1.879c-.501,0-.751.501-.751,1.127v9.644H.376s-.376,0-.376.25v.751c0,.501.376.877.877.877h5.887v-.877H.877v-.501h5.887v-.501H1.628V4.384h0ZM15.656,10.521v-.626h-.752v.626h.752ZM14.529,9.269h4.133c.626,0,1.127-.376,1.127-.877V1.127c0-.626-.501-1.127-1.127-1.127h-4.133c-.501,0-1.127.501-1.127,1.127v7.265c0,.501.626.877,1.127.877h0ZM14.279,1.127c0-.25,0-.626.25-.626h4.133c.25,0,.25.376.25.626v5.636h-4.634V1.127h0ZM14.279,7.264h4.634v1.127s0,.25-.25.25h-4.133c-.25,0-.25-.25-.25-.25v-1.127h0ZM17.159,7.515h-1.002v.877h1.002v-.877h0ZM8.893,7.515c0-1.378-1.002-2.755-2.63-2.755,0,0-.25.376-.25.626v2.129c0,.25.25.25.25.25h2.38q.25,0,.25-.25h0ZM6.763,7.264v-1.628c.877,0,1.378.751,1.628,1.628h-1.628ZM8.266,8.642c0-.25-.25-.25-.626-.25h-1.879v-2.129l-.25-.376c-1.628,0-2.755,1.127-2.755,2.756,0,1.378,1.127,2.755,2.755,2.755,1.378,0,2.755-1.378,2.755-2.755h0ZM5.511,10.521c-1.127,0-1.879-.751-2.129-1.628,0-1.002.751-2.129,1.628-2.129v1.879c0,.25.25.25.501.25h1.879c-.251,1.127-1.002,1.628-1.879,1.628h0ZM9.769,5.636h.501v-.877h-.501c-.25,0-.25.376-.25.376l-.751.501.501.626.501-.626h0ZM12.4,4.76h-1.253v1.002h1.253v-1.002h0ZM11.147,7.014h1.253v-.751h-1.253v.751h0ZM2.505,12.901h3.758v-.751h-3.758v.751h0ZM10.271,9.269h-1.879v.626h1.879v-.626h0ZM10.521,9.77c0,.501.501.751,1.127.751.501,0,1.127-.25,1.127-.751s-.626-1.127-1.127-1.127c-.626,0-1.127.626-1.127,1.127h0ZM11.648,9.269c.25,0,.25.25.25.501,0,0,0,.25-.25.25-.376,0-.376-.25-.376-.25,0-.25,0-.501.376-.501h0ZM16.157,2.38h2.255v-.751h-2.255v.751h0ZM16.157,3.507h2.255v-.501h-2.255v.501h0ZM16.157,4.76h1.002v-.501h-1.002v.501h0ZM17.66,4.76h.751v-.501h-.751v.501h0ZM19.038,11.398h-10.646c-.501,0-1.127.25-1.127.751v6.764c0,.626.626,1.127,1.127,1.127h10.646c.501,0,1.002-.501,1.002-1.127v-6.764c0-.501-.501-.751-1.002-.751h0ZM17.41,19.289h-9.018q-.25,0-.25-.376v-6.764s0-.25.25-.25h9.018v7.39h0ZM19.289,18.913q0,.376-.25.376h-1.127v-7.39h1.127c.25,0,.25.25.25.25v6.764h0ZM18.412,15.907h.501v-.751h-.501v.751h0ZM16.658,18.287v-.752h-.752v-3.507h-.501v3.507h-.877v-2.755h-.501v2.755h-.752v-1.879h-.501v1.879h-.877v-3.006h-.501v3.006h-.752v-1.378h-.626v1.378h-.752v-4.384h-.501v4.634c0,.25.25.501.25.501h7.64Z" fill="#D3D3D3" fill-rule="evenodd" />
  </g>
</svg>