<?xml version='1.0' encoding='utf-8'?>
<svg xmlns="http://www.w3.org/2000/svg" id="Layer_2" data-name="Layer 2" viewBox="0 0 20.04 19.44">
  <g id="Layer_1-2" data-name="Layer 1">
    <path d="M14.905,15.552c-.877.376-1.879.502-2.881.502-1.127,0-2.255-.251-3.257-.752-.877-.627-1.628-1.38-2.255-2.258-.251-.376-.376-.878-.501-1.254h7.891l1.002-1.756H5.761v-1.254h8.141l1.002-1.756H6.262c.376-.627.752-1.254,1.253-1.756,1.253-1.254,2.756-1.756,4.509-1.756,2.129,0,4.008.878,5.636,2.634l2.38-2.383c-1.002-1.129-2.129-2.132-3.632-2.759-1.378-.627-2.881-1.003-4.384-1.003-1.754,0-3.382.502-5.01,1.38-1.503.878-2.756,2.007-3.507,3.386-.376.753-.752,1.505-1.002,2.258h-1.378l-1.127,1.756h2.255v1.254h-1.127l-1.127,1.756h2.38c.376,1.881,1.252,3.512,2.63,4.891,1.754,1.881,4.133,2.759,7.014,2.759,1.503,0,2.881-.251,4.133-.752,1.253-.502,2.505-1.505,3.883-2.759l-2.38-2.508c-1.002,1.003-2.004,1.756-2.755,2.132h0Z" fill="#D3D3D3" fill-rule="evenodd" />
  </g>
</svg>