<?xml version='1.0' encoding='utf-8'?>
<svg xmlns="http://www.w3.org/2000/svg" id="Layer_2" data-name="Layer 2" viewBox="0 0 20.055 12.285">
  <g id="Layer_1-2" data-name="Layer 1">
    <path d="M20.003,6.394C17.875,2.019,13.617-.231,9.11.019,5.103.269,1.346,2.644.094,6.894c-.125,0-.125.125,0,.25-.125,0-.125.25,0,.375,4.383,7.25,14.901,5.5,19.784-.375v-.125c.125-.125.25-.5.125-.625h0ZM1.346,7.019c.877-3.125,3.506-4.875,6.261-5.5-1.753.75-3.256,2.375-3.381,4.5-.125,1.75.626,3.375,1.878,4.625-1.878-.5-3.506-1.625-4.758-3.625h0ZM9.36,10.769c-2.254.125-4.007-2.25-4.007-4.375.125-2,1.503-3.25,3.005-3.875h1.753c1.878.625,3.381,2.375,3.005,4.625-.25,2-1.878,3.5-3.757,3.625h0ZM12.741,10.394c.751-1,1.377-2.125,1.503-3.25.501-2.875-1.628-5.25-4.132-5.75,3.506,0,6.762,1.875,8.515,5.125-1.503,1.75-3.631,3.125-5.885,3.875h0ZM10.737,4.519c-.25,0-.376-.25-.501-.25s-.376-.125-.501-.125v.125c.125.375.125.625.125,1s-.125.5-.376.75c-.376.25-.626.375-.877.25-.501-.25-.751-.375-1.127-.625q0-.25-.125-.375c-.501.625-.626,1.625,0,2.375.751,1,2.129,1.25,3.13.875h.25s.125,0,.25-.25l.125-.125c.376-.5.751-1,.751-1.625,0-.125,0-.25-.125-.5-.125-.625-.501-1.125-1.002-1.5h0Z" fill="#D3D3D3" fill-rule="evenodd" />
  </g>
</svg>