<?xml version='1.0' encoding='utf-8'?>
<svg xmlns="http://www.w3.org/2000/svg" id="Layer_2" data-name="Layer 2" viewBox="0 0 20.04 16.2">
  <g id="Layer_1-2" data-name="Layer 1">
    <path d="M19.664,3.767l-3.006-3.516c-.376-.126-.626-.251-1.002-.251H4.384c-.25,0-.626.125-.751.251L.376,3.767c-.376.377-.376.754-.376,1.005s0,.628.376.879l8.768,10.047c.125.377.501.502,1.002.502.25,0,.626-.125.751-.502l8.768-10.047c.376-.251.376-.628.376-1.005s0-.502-.376-.879h0ZM15.155,1.381l-1.127,1.005-1.002-1.005h2.129ZM15.281,4.646h-2.881l1.628-1.381,1.253,1.381h0ZM13.527,2.888l-1.628,1.381-1.253-1.13,1.628-1.633,1.253,1.381h0ZM11.398,4.646h-2.755l1.503-1.256,1.253,1.256h0ZM11.398,1.381l-1.253,1.13-1.503-1.13h2.755ZM9.644,3.14l-1.503,1.13-1.628-1.381,1.253-1.381,1.879,1.633h0ZM7.64,4.646h-2.881l1.253-1.381,1.628,1.381h0ZM7.014,1.381l-1.002,1.005-1.127-1.005h2.129ZM4.133,1.507l1.378,1.381-1.628,1.758H1.127l3.006-3.139h0ZM1.753,5.4h2.129l4.133,7.158L1.753,5.4h0ZM4.76,5.4h3.006l1.503,8.289L4.76,5.4h0ZM8.517,5.4h3.006l-1.378,8.289-1.628-8.289h0ZM10.771,13.688l1.503-8.289h3.006l-4.509,8.289h0ZM12.024,12.558l4.133-7.158h2.129l-6.263,7.158h0ZM16.157,4.646l-1.628-1.758,1.503-1.381,2.755,3.139h-2.63Z" fill="#D3D3D3" fill-rule="evenodd" />
  </g>
</svg>