<?xml version='1.0' encoding='utf-8'?>
<svg xmlns="http://www.w3.org/2000/svg" id="Layer_2" data-name="Layer 2" viewBox="0 0 18.6 20.04">
  <g id="Layer_1-2" data-name="Layer 1">
    <path d="M.125,8.016v.501c-.125.125-.125.376-.125.501v2.129c0,.125,0,.25.125.376v.501c0,.125.25.376.25.501,0,.376.125.626.25,1.002,0,.125,0,.25.125.501,0,.125.125.25.125.376,0,0,0,.25.25.25,0,.125.125.25.125.501.25.25.374.751.749,1.002.125.25.25.501.375.751.125,0,.125.125.375.25.125.125.25.125.25.376.624.501.999.877,1.623,1.253.125,0,.375.125.499.125.25.25.499.376.874.501.125,0,.125.125.25.125,1.123.376,2.122.501,3.121.501.624,0,1.373,0,2.122-.125.25-.125.624-.125.874-.376.125,0,.25-.125.499-.125.25-.125.375-.25.749-.501.125,0,.25-.125.375-.125.624-.376,1.123-.752,1.623-1.253q.25-.25.375-.376c.125-.125.125-.25.25-.25.125-.25.25-.501.499-.751.125-.25.374-.626.499-.877l.25-.125c.125-.25.125-.376.25-.501v-.25c.125-.125.125-.25.125-.376.125-.25.125-.376.375-.501,0-.376.125-.626.125-1.002.125-.125.125-.376.125-.501s0-.25.125-.501v-3.006c-.125-.125-.125-.376-.125-.501s0-.251-.125-.501c0-.25-.125-.626-.125-.877q-.25-.25-.25-.376c-.125-.125-.125-.25-.25-.626v-.125c-.125-.25-.125-.376-.25-.501-.25-.376-.499-.877-.749-1.127-.25-.376-.375-.501-.499-.626q-.125-.125-.25-.376-.125-.125-.375-.25c-.25-.251-.374-.501-.749-.626-.25-.25-.499-.501-.874-.751-.125-.125-.25-.125-.375-.125,0-.125-.25-.125-.25-.125-.125,0-.125-.125-.25-.125h0c-.125,0-.25-.25-.25-.25h0c-.25,0-.375-.125-.499-.125h0c-.25-.125-.624-.125-.874-.376h-.499c-.375-.125-.999-.125-1.498-.125h-.375c-.999,0-1.997.125-2.871.501-.125,0-.125.125-.25.125h-.125c-.25.25-.375.25-.375.25-.125.125-.25.125-.375.25-.125,0-.374,0-.499.125-.374.376-.999.751-1.498,1.127,0,0,0,.251-.125.251,0,.125-.125.125-.25.25q-.25.25-.375.376c-.125.125-.25.25-.375.626-.375.25-.499.751-.749,1.127,0,.125-.125.25-.125.501-.25,0-.25.125-.25.125-.125.376-.125.501-.25.626v.376c-.125.25-.25.626-.25.877s-.25.376-.25.501H.125ZM7.74.626h0c.125,0,.374.25.374,0h.25c.125,0,.375.376.624.25l.125-.25v-.125h.25c.624,0,1.248,0,1.623.125,0,.25,0,0-.125.25h-.125c-.125.125-.25,0-.499,0,0,.125.25.125.25.125h.375c.125,0,.125.125.375,0,0,0,0-.125.125-.125h.25c0,.125-.125,0-.125.125.125,0,.25,0,.25-.125.25,0,.25.125.25.125.125,0,.25,0,.375.125.125,0,.25.125.624.125h-.499c0,.25.125.25.375.25,0,.125.125.125.125.25,0,.25-.125,0-.375,0-.125,0-.374.25-.374,0,0-.125.125-.125.125-.25h-.125s0,.125-.125.125h-.125c0,.125-.25.125-.25.125-.125,0-.25,0-.375.25h-.125s-.25.125-.375.125c-.125.125-.25.125-.375.25l-.25.251.25.125v.125h.125c.125,0,.25.25.375.376h.375c.125.125.25,0,.25.125s-.125.125-.125.125c.125.25,0,.25,0,.376,0,0,0,.125.125.125s.375-.125.375-.125c0-.125,0-.376.125-.501.375,0,.874-.125.749-.626v-.125c0-.251.125-.251.125-.376,0,0,.125,0,.125-.125,0,0,0-.125.125-.125h.125l.25.125q.125-.125.25-.125s.125.125.125.25h.125c0,.125-.125.125,0,.376h0s0,.125.25.125c0,0,.125,0,.125-.125q.125,0,.25-.251c0,.251.125.251.374.376v.501c0,.125.125.125.25.125v.125q.125,0,.125.25c0,.125-.125.125-.125.376,0,0-.125,0-.125.25.125.125.25,0,.25.125.125,0,0,.125,0,.125.125.25.125.376,0,.376s-.125-.125-.125-.125h-.499s-.125,0-.25-.25c.125-.125.25-.25.499-.501,0,0,.125,0,.125-.125q-.125,0-.375.125-.125,0-.25.25c-.125,0-.25-.25-.499,0,0,0,.25,0,.25.125h-.375v-.125c0-.25-.25-.25-.25,0-.125,0-.375,0-.375.125.25,0,.499-.125.499,0-.125.125-.25.376-.25.501.125,0,.125.125.125.125.125,0,.125-.125.125,0h.125c.125,0,.125-.125.375-.125.125.125-.25.125-.375.25-.125,0-.25,0-.375.25-.25,0-.374.125-.499,0,0-.25.125,0,.25-.25-.25,0-.375,0-.375.25-.375,0-.624,0-.624.25-.125,0,0,.25-.125.25h-.125q-.125.125-.374.125h-.125q0,.125-.125.25h-.125c0,.25,0,.376-.125.376,0,0-.25-.125-.25,0v.501c-.125,0-.25.125-.375.125,0,0-.125.125-.374.125l-.125.25c-.125.125-.374.251-.374.626v.25c0,.25.125.25,0,.376-.25,0-.375-.125-.375-.125-.125-.25,0-.25,0-.376s-.125-.125-.125-.125h-.125c-.125,0-.125-.25-.374-.25h-.375c-.125.25-.125.376-.25.376-.25,0-.25-.125-.374-.125h-.25c-.125,0-.375.125-.499.125,0,.125-.25.125-.25.376v.25s-.125,0-.125.125c0,.25-.25.501,0,.877,0,0,0,.25.125.25,0,.25.125.25.25.25h.499c.125-.25.125-.501.375-.626h.375l.125.125-.125.125v.376c-.125,0-.125.125-.125.125v.125l-.25.25c.375.125.499,0,.749,0,0,0,.125.125.125.25v.125c0,.25-.125.376-.125.501s.375.501.499.501.25-.125.624-.125c0,.125.125.125.125.125q.125,0,.25-.125,0-.25.125-.376h.374l.125-.125c.125,0,.125-.125.125,0,.125,0,0,.125,0,.125.125.125.375-.125.375-.125,0,0,.125.125.25.125,0,0,0,.125.125.125h.624c.25-.125.25,0,.374,0,0,.25,0,0,.25,0-.25.25,0,.25,0,.25v.125q.125,0,.25.125l.125.25c.125.125.374.251.374.251.125,0,.25-.125.25,0,.25,0,.499,0,.624.125,0,.25.125.25.125.25v.25s.25.25.125.376c0,.125.125.125.125.125.25,0,.25.125.25.125h.375l.125.25c.25,0,.25.125.25.125h.25s.125.125.25.125c0,0,.125-.125.125,0q.25,0,.375.25c-1.248,2.004-3.121,3.507-5.368,4.133-.125,0-.125-.125-.125-.376v-.877c-.125,0-.375-.25-.499-.376h-.25c-.125-.125-.499-.376-.499-.501v-.125c-.125-.125-.125-.376-.25-.376-.125-.25-.125-.501-.375-.626-.125-.125-.125-.25-.125-.25-.125-.25-.25-.25-.25-.25v-.25c0-.125.125-.376.125-.376,0-.125-.125-.125-.125-.125,0-.125,0-.376.125-.501v-.125q.125,0,.125-.125.125,0,.125-.25l.25-.125c.125-.125.125-.501,0-.626v-.125c-.25-.25-.25-.376-.25-.376q-.125,0-.25.125v.25c-.125,0-.125-.25-.25-.25h-.25c-.125-.125-.125-.25-.25-.25,0,0-.125,0-.125-.25v-.125c-.125,0-.25-.25-.499-.25,0-.25-.125-.25-.25-.25h-.25c-.25-.125-.375-.376-.624-.376h-.624c-.125-.25-.25-.25-.499-.25,0-.125-.125-.125-.125-.125,0-.125-.125-.125-.125-.125q-.125,0-.25-.25l-.125-.125c0-.125.125-.125.125-.25,0-.25-.125-.376-.374-.501,0-.25-.125-.376-.25-.376v-.125q0-.125-.125-.376l-.125-.125v-.501c-.25-.125-.375,0-.375.125,0,.25.125.25.125.376v.125c0,.25.25.25.25.376s0,.25.125.25c0,.25.125.25,0,.376-.125,0-.125-.125-.125-.125,0,0-.25,0-.25-.25v-.125c0-.125-.25-.125-.25-.25v-.376s0-.125-.125-.125v-.626c0-.25-.125-.25-.125-.376h-.375v-1.127c0-.125.125-.125.125-.25,0,0,0-.25.25-.25,0-.125.125-.25.25-.501.125-.125.125-.25.25-.376,0,0,.25-.25,0-.376l-.125-.125c0-.25.125-.25.125-.25v-.626s.25,0,.25-.125c-.25-.125-.375,0-.375,0v-.501s.125,0,0-.125v-.125c1.123-1.002,2.372-1.628,3.87-2.004h0Z" fill="#D3D3D3" fill-rule="evenodd" />
  </g>
</svg>