<?xml version='1.0' encoding='utf-8'?>
<svg xmlns="http://www.w3.org/2000/svg" id="Layer_2" data-name="Layer 2" viewBox="0 0 20.092 19.612">
  <g id="Layer_1-2" data-name="Layer 1">
    <path d="M20.092,5.765l-3.004,3.133c-1.001-1.128-2.253-2.381-2.128-3.133h-.25v.125l-4.507,4.511c0,.752-.125,1.378-.501,1.754l-6.384,6.892c-.751.752-2.003.752-2.754,0-.751-.877-.751-2.13,0-2.882l6.51-6.767c.376-.501,1.001-.626,1.502-.626l4.507-4.637q0-.125.125-.376h0v-.125h-.125v-.251l-.125-.251v-.125c-.125,0-.125-.125-.125-.125l-.25-.251v-.125c-.125,0-.125-.125-.125-.125h-.125c0-.125-.125-.376-.125-.376q-.125,0-.125-.125h-.25l-.125-.125h0c0-.125-.125-.125-.25-.125v-.251h-.376q0-.125-.125-.125h-.125l-.125-.125h-.25l-.626-.125h-.125c0-.25-.25-.25-.25-.376s.25-.25.376-.25l.376-.251c.25,0,.376,0,.376-.125h1.878l.376.125h.25c.125.251.25.251.626.376h0c.125,0,.25.125.376.251h.125l.25.25c.125,0,.125.125.25.125l.25.125h0l.25.125c0,.251.125.251.125.251.25.125.751.25.876.376l.376.501c.25.125.501.501.626.877.626-.251,1.502.877,2.879,2.381h0Z" fill="#D3D3D3" fill-rule="evenodd" />
  </g>
</svg>