<?xml version='1.0' encoding='utf-8'?>
<svg xmlns="http://www.w3.org/2000/svg" id="Layer_2" data-name="Layer 2" viewBox="0 0 20.124 17.4">
  <g id="Layer_1-2" data-name="Layer 1">
    <path d="M19.748,4.507L15.617.501c-.376-.375-.626-.501-1.001-.501s-.751.125-1.001.501l-1.001.876c-.125.125-.125.375-.25.501l-4.507-.751c-1.878-.501-3.881.876-4.381,2.879l-.125,1.126c-.25,1.127.501,2.128,1.627,2.378,1.001.25,2.253-.501,2.379-1.627l.125-.626,2.003.125,5.258,5.258,1.001,1.001c.125.25.125.5,0,.751-.25.125-.501.125-.626,0l-2.629-2.504c-.125-.25-.501-.25-.626,0-.125,0-.125.375,0,.626l2.629,2.504v.751c-.25.125-.626.125-.751,0l-2.504-2.629c-.25-.125-.626-.125-.751,0-.125.125-.125.501,0,.751l2.629,2.504c.125.125.125.501,0,.626-.125.125-.25.125-.376.125q-.25,0-.376-.125l-2.504-2.503c-.25-.125-.501-.125-.626,0-.25.125-.25.501,0,.626l2.504,2.629c.125,0,.125.375,0,.626-.25.125-.501.125-.751,0L1.972,7.26l-1.252-1.127c0-.25-.376-.25-.626,0-.125.25-.125.501,0,.626l1.252,1.252,1.252,1.252-.626.751c-.25.25-.376.501-.376.876,0,.25.125.626.376.876l.125.25c.25.25.501.375.751.375.125.25.25.501.501.751l.125.125c.25.25.501.375.751.501.125.125.25.501.376.751l.25.125c.25.25.376.375.751.375,0,.25.125.626.376.751l.25.25c.25.25.501.376.876.376.25,0,.626-.125.751-.376l.751-.751,1.753,1.752c.25.25.626.375,1.001.375s.751-.125,1.001-.375c.25-.25.376-.501.376-1.001.376,0,.751-.125,1.001-.25.125-.375.376-.626.376-1.001.376,0,.626-.25,1.001-.375.125-.375.25-.626.376-1.001.25,0,.626-.125.876-.375.626-.501.626-1.502,0-2.003l-.626-.626,4.006-3.881c.501-.626.501-1.377,0-2.003h0ZM3.349,11.266c-.125.25-.376.25-.626,0l-.125-.125c-.125-.125-.125-.376,0-.501l.751-.751.626.751-.626.626h0ZM4.601,12.643c-.125.125-.376.125-.501,0l-.125-.125c-.125-.125-.125-.376,0-.501l.626-.751.626.751-.626.626h0ZM5.978,14.02c-.125.125-.376.125-.501,0l-.25-.125v-.626l.751-.626.626.751-.626.626h0ZM7.229,15.397c0,.125-.25.125-.376,0l-.25-.25c-.125-.125-.125-.375,0-.501l.626-.626.751.626-.751.751h0ZM15.116,9.764l-5.133-5.132c0-.125-.125-.125-.125-.125l-2.629-.125c-.25,0-.501.125-.501.25l-.125,1.127c-.25.626-.876,1.001-1.502.876-.376-.125-.501-.25-.751-.501-.25-.25-.25-.626-.25-.876l.25-1.001c.25-1.627,1.878-2.504,3.38-2.253l4.382.751,5.007,5.007-2.003,2.003h0ZM18.997,5.884l-1.252,1.252-4.507-4.507s-.125-.125-.125-.25.125-.25.125-.375l1.127-.876c0-.125.125-.125.25-.125s.25,0,.376.125l4.006,4.131c.125,0,.125.125.125.25s0,.25-.125.376h0ZM17.87,5.132c-.125,0-.376.25-.376.626,0,.125.25.375.376.375.25,0,.501-.25.501-.375,0-.375-.25-.626-.501-.626h0Z" fill="#D3D3D3" fill-rule="evenodd" />
  </g>
</svg>