<?xml version='1.0' encoding='utf-8'?>
<svg xmlns="http://www.w3.org/2000/svg" id="Layer_2" data-name="Layer 2" viewBox="0 0 19.933 18.468">
  <g id="Layer_1-2" data-name="Layer 1">
    <path d="M18.152,1.699c-2.124-2.244-5.874-2.244-8.248-.125C7.529-.545,3.905-.545,1.781,1.699-.594,4.317-.594,8.182,1.781,10.676c.75.624,6.873,7.231,6.873,7.231.75.748,1.875.748,2.624,0l6.873-7.231c2.374-2.493,2.374-6.358,0-8.977h0ZM17.277,9.678l-6.998,7.231c-.125.374-.5.374-.75,0l-6.873-7.231c-1.875-1.87-1.875-4.987,0-6.982,1.875-1.995,4.499-1.995,6.374-.125l.875.748,1-.748c1.75-1.87,4.499-1.87,6.374.125,1.75,1.995,1.75,5.112,0,6.982h0ZM5.78,3.32c-1.5,0-2.624,1.122-2.624,2.743,0,.125,0,.374.25.374.125,0,.375-.25.375-.374,0-1.247.875-2.244,2-2.244.125,0,.375-.125.375-.374,0-.125-.25-.125-.375-.125h0Z" fill="#D3D3D3" fill-rule="evenodd" />
  </g>
</svg>