<?xml version='1.0' encoding='utf-8'?>
<svg xmlns="http://www.w3.org/2000/svg" id="Layer_2" data-name="Layer 2" viewBox="0 0 15.386 20.066">
  <g id="Layer_1-2" data-name="Layer 1">
    <path d="M9.769,16.81c-.624,0-1.124.501-1.124,1.127s.499,1.252,1.124,1.252,1.124-.626,1.124-1.252-.499-1.127-1.124-1.127h0ZM9.769,18.313c-.375,0-.624-.25-.624-.376,0-.25.25-.501.624-.501.25,0,.499.25.499.501,0,.125-.25.376-.499.376h0ZM11.267,12.428c.624,0,1.248-.626,1.248-1.377s-.624-1.377-1.248-1.377c-.749,0-1.124.626-1.124,1.377s.375,1.377,1.124,1.377h0ZM11.267,10.299c.499,0,.624.376.624.751,0,.25-.125.751-.624.751-.375,0-.624-.501-.624-.751,0-.375.25-.751.624-.751h0ZM3.652,2.661l-.624.626c-.125.25-.125.501,0,.626h.499l.624-.626c.25-.125.25-.376,0-.626h-.499ZM15.386,9.923c0-.25-.25-.501-.499-.626v-.25c.25-.501.499-.626.499-1.252s-.624-1.503-1.498-1.503h-.25c0-.876-.624-1.753-1.498-1.753h-.125c0-.876-.624-1.628-1.498-1.628h-.25c0-.876-.624-1.753-1.498-1.753-.375,0-.874.25-.999.626l-.499-.125-1.248-1.377c-.375-.376-.999-.376-1.498,0L.281,4.414c-.375.376-.375,1.252,0,1.628l1.373,1.252,1.623,1.502c-.375.501-.624.876-.624,1.503,0,.376.25.876.624,1.252l3.62,3.631v.626h-.624v4.257h8.614v-4.257h-.624v-1.002c.624-.751,1.124-1.377,1.124-2.129,0-.626-.25-1.377-.499-1.753v-.25c.25-.125.499-.376.499-.751h0ZM12.141,5.416c.499,0,.874.25.874.876,0,.125-.25.376-.375.626l-1.124-1.252c.25-.25.499-.25.624-.25h0ZM10.518,3.663c.375,0,.874.25.874.876,0,.25-.25.501-.499.626l-.999-1.252c.125-.25.375-.25.624-.25h0ZM8.77,2.035c.499,0,.874.25.874.876,0,.125-.25.376-.375.626l-1.124-1.252c.25-.25.375-.25.624-.25h0ZM1.03,5.416c-.25,0-.25-.375,0-.626L5.025.783s.125,0,.125-.25h.25l.25.25.874.876L1.654,6.292l-.624-.876h0ZM2.278,6.668L6.897,2.035l7.615,7.638c.25.25.25.376,0,.626l-3.995,4.007c-.25.25-.499.25-.624,0l-2.746-2.504h.375c.874,0,1.498-.626,1.498-1.503s-.624-1.753-1.498-1.753h-3.371l-1.873-1.878h0ZM3.277,10.299c0-.376.25-.876.624-.876h3.62c.375,0,.874.25.874.876,0,.376-.499.876-.874.876h-3.371c-.375,0-.874-.501-.874-.876h0ZM11.516,19.44h-4.619v-3.005h2.996c.999,0,1.623.876,1.623,1.878v1.127h0ZM14.263,19.44h-1.873v-1.127c0-.751-.375-1.503-.874-1.878h2.746v3.005h0ZM13.888,14.306h-.25v1.503h-6.117v-1.002l-3.121-3.005h1.873l2.996,3.13c.125.25.624.25.749.25.25,0,.624,0,.874-.25l3.371-3.631c.25.501.499.876.499,1.377,0,.626-.499,1.252-.874,1.628h0ZM14.263,8.546l-.999-1.252c0-.125.375-.376.624-.376.375,0,.874.376.874.876,0,.376-.25.626-.499.751h0Z" fill="#D3D3D3" fill-rule="evenodd" />
  </g>
</svg>