<?xml version='1.0' encoding='utf-8'?>
<svg xmlns="http://www.w3.org/2000/svg" id="Layer_2" data-name="Layer 2" viewBox="0 0 14.155 20.04">
  <g id="Layer_1-2" data-name="Layer 1">
    <path d="M9.614,10.02L13.873,2.004c.376-.501.376-.877,0-1.378-.125-.376-.501-.626-1.002-.626H1.096C.846,0,.47.25.094.626-.031,1.127-.031,1.503.094,2.004l4.509,8.016L.094,18.161c-.125.376-.125.752,0,1.253.376.376.752.626,1.002.626h11.775c.501,0,.877-.25,1.002-.626.376-.501.376-.877,0-1.253l-4.259-8.141h0ZM1.096,18.788l4.885-8.768L1.096,1.378h11.775l-4.635,8.642,4.635,8.768H1.096ZM7.109,10.271l3.758,7.264H3.226l3.883-7.264h0ZM7.109,9.77l-1.879-3.507h3.758l-1.879,3.507h0Z" fill="#D3D3D3" fill-rule="evenodd" />
  </g>
</svg>