<?xml version='1.0' encoding='utf-8'?>
<svg xmlns="http://www.w3.org/2000/svg" id="Layer_2" data-name="Layer 2" viewBox="0 0 16.138 20.04">
  <g id="Layer_1-2" data-name="Layer 1">
    <path d="M15.39,12.901c-.623-1.753-1.62-2.881-2.492-3.507-.125,0-1.62-.751-1.62-.751l-.748-.626-.872,1.002h-.498l-.872-1.002-.748.626-1.246.501-5.982.626q-.125,0-.125.25c-.249,0-.249.125,0,.125.374,1.002.872,1.753.997,2.505v.25c-1.246,1.127-.997,2.255-.623,3.131.125.376.623.501.997.501.249,0,.623,0,.748-.125,0,0,.249,0,.249-.25,0,.626.125,1.002.125,1.127.125,1.628,0,2.38,0,2.38q0,.25.125.376h.249l9.471-.376c.249,0,.374,0,.374-.25v-.751h.249c.125,0,.498-.125.872-.376l1.62-1.754c.374-.376.498-.751.498-1.378-.125,0-.374-1.127-.748-2.255h0ZM12.15,19.038l-8.723.376c0-.501.125-1.754-.374-3.632.498-.376.748-1.002.498-1.753,0,.25.249.25.249.25l.374-.25h.125q.125-.125.125-.376l-.997-2.505q0-.25-.249-.25h-.125v.25l.748,2.255c.125,0,.125.25,0,.25h-.374c-.249-.626-.872-.376-1.246-.376-.249-1.002-.748-2.004-1.246-2.881l9.097-.877c.374.877,1.495,3.883,1.994,7.014-.249.376-.249,1.127.125,1.628v.877h0ZM12.524,15.781l.249-2.129c.125.376.374,1.002.498,1.378l-.748.751h0ZM9.533,7.765c1.62,0,2.991-1.628,2.991-4.509,0-2.129-.872-3.257-2.991-3.257-2.368,0-3.24,1.127-3.24,3.257,0,2.881,1.371,4.509,3.24,4.509h0ZM9.533,15.781c.125,0,.374-.25.374-.626,0-.125-.249-.376-.623-.376l-4.486.25c-.374.125-.498.376-.498.501.125.376.374.626.498.626l4.735-.376h0ZM9.782,17.034l-4.611.125c-.374,0-.623.376-.623.501,0,.25.249.626.623.626l4.611-.376c.249,0,.498-.25.498-.501s-.249-.376-.498-.376h0ZM5.172,13.778c.249.125.374.125.623.125.125,0,.374-.125.374-.376.125,0,.125-.125.125-.376l-.748-1.754c0-.125-.125-.376-.374-.501-.125,0-.249-.25-.498,0q-.374,0-.498.125v.376l.748,2.004s.125.125.249.376h0ZM4.673,11.272h.374v.125l.748,1.754v.25h-.374s-.249,0-.249-.25l-.498-1.754c-.125,0-.125-.125,0-.125h0ZM7.041,13.903h.872l.125-.125q.249-.25,0-.501l-.125-1.002h-.125l-.249-.125h.249l-.374-1.127c0-.125-.249-.376-.249-.376-.125,0-.374-.25-.498,0h-.748q-.125,0-.125.25l.997,3.006h.249ZM7.415,12.525v.125l.125.626v.25h-.374l-.374-1.002h.623ZM6.418,11.022h.374s.249,0,.249.25l.125.626-.125.25h-.374l-.249-1.127h0ZM8.287,12.024c.125.25.498.25.748.25h.125q0,.25.125.25v.376q.249.251,0,.251v.125q-.125,0-.249-.125v-.251h-.623v.251c0,.125.249.376.374.376.249.25.374.25.498.25.374,0,.374-.25.623-.25v-.626l-.249-.376c0-.25-.125-.501-.374-.501-.125-.125-.249-.125-.498-.125q-.125,0-.125-.25h-.249l-.125-.626c0-.125.125-.125.125-.125h.249c0,.125.125.125.125.125v.25h.374q.125,0,.125-.25h-.125c0-.125-.125-.376-.374-.376-.125-.25-.374-.25-.498-.25s-.374,0-.374.25c-.125.25-.125.376-.125.626l.125.376c.249.25.249.376.374.376h0Z" fill="#D3D3D3" fill-rule="evenodd" />
  </g>
</svg>