<?xml version='1.0' encoding='utf-8'?>
<svg xmlns="http://www.w3.org/2000/svg" id="Layer_2" data-name="Layer 2" viewBox="0 0 16.92 20.04">
  <g id="Layer_1-2" data-name="Layer 1">
    <path d="M10.653,9.394c.501.501,1.253.877,1.88.877.877,0,1.504-.376,2.131-.877l1.504-1.879c.627-.501.752-1.127.752-2.004,0-.751-.125-1.503-.752-2.004l-2.507-2.63c-.501-.751-1.128-.877-1.88-.877s-1.379.125-1.88.877l-1.755,1.628c-.877,1.253-1.128,2.756-.125,3.883,0,.125.251.376.251.501l.501.376L.125,16.533c-.125.125-.125.25-.125.626,0,.125,0,.376.125.501l.627.752,1.379,1.503c.251.125.376.125.501.125s.376,0,.501-.125l.251-.376c.251-.125.251-.376.251-.501,0-.376,0-.501-.251-.501l-.251-.501.125-.125.376.25c.125.251.251.376.376.376.376,0,.501-.125.627-.376l.376-.25c0-.25.125-.376.125-.626,0-.125-.125-.25-.125-.501l-1.253-1.127,6.392-6.889.501.626h0ZM9.525,5.26c-.125-.25-.125-.376-.125-.501,0-.376,0-.501.125-.751l1.755-1.628c.125-.25.376-.376.501-.376s.501.125.627.376l2.381,2.505c.251.376.251.877,0,1.127l-1.629,1.879c-.125.25-.251.25-.627.25h-.251c-.251-.25-.376-.376-.376-.376h0l-2.381-2.505h0Z" fill="#D3D3D3" fill-rule="evenodd" />
  </g>
</svg>