<?xml version='1.0' encoding='utf-8'?>
<svg xmlns="http://www.w3.org/2000/svg" id="Layer_2" data-name="Layer 2" viewBox="0 0 20.04 20.04">
  <g id="Layer_1-2" data-name="Layer 1">
    <path d="M17.66,17.284v-5.135h-.501v5.135h-.877v-5.135h-.501v5.135h-4.384c-.25,0-.501.25-.751.501,0,0,0,.376-.25.376h-1.879s0-.376-.376-.376c0-.25-.25-.501-.751-.501H3.006v-8.141c0-.25.25-.626.25-.626h6.263v-.501H3.257c-.501,0-.751.25-.751,1.127v8.141h-.877v-9.018c0-.501.626-1.002,1.127-1.002h6.764v-.626H2.755c-.751,0-1.628.877-1.628,1.628v9.018H.376l-.376.25v1.127c0,.751.626,1.378,1.378,1.378h16.032c.751,0,1.378-.626,1.378-1.378v-1.127l-.251-.25h-.877ZM18.161,18.662c0,.501-.501.751-.751.751H1.378c-.25,0-.501-.25-.501-.751v-.501h6.764c.25.251.501.501.877.501h1.879c.501,0,.751-.25.751-.501h7.014v.501h0ZM4.384,12.4v2.756l.25.25h9.394c.251,0,.251-.25.251-.25v-2.756q0-.25-.251-.25H4.634s-.25,0-.25.25h0ZM5.135,12.65h8.642v1.879H5.135v-1.879h0ZM5.762,14.028h.877v-.877h-.877v.877h0ZM7.139,14.028h.501v-.877h-.501v.877h0ZM8.392,14.028h.751v-.877h-.751v.877h0ZM9.77,14.028h.501v-.877h-.501v.877h0ZM19.038,5.135v-1.127c0-2.129-1.628-4.008-3.758-4.008-2.505,0-4.133,1.879-4.133,4.008v1.127c-.501,0-1.002.501-1.002,1.127v4.008c0,.626.501,1.127,1.002,1.127h7.891c.501,0,1.002-.501,1.002-1.127v-4.008c0-.626-.501-1.127-1.002-1.127h0ZM11.773,4.008c0-1.879,1.628-3.257,3.507-3.257,1.628,0,3.257,1.378,3.257,3.257v1.127h-.877v-1.127c0-1.252-1.127-2.63-2.38-2.63-1.628,0-2.755,1.378-2.755,2.63v1.127h-.751v-1.127h0ZM17.159,4.008v1.127h-4.008v-1.127c0-1.002.751-1.879,2.129-1.879,1.002,0,1.879.877,1.879,1.879h0ZM19.289,10.271c0,.25,0,.626-.251.626h-7.891c-.25,0-.25-.376-.25-.626v-4.008c0-.25,0-.626.25-.626h7.891c.251,0,.251.376.251.626v4.008h0ZM15.28,7.014c-.626,0-1.127.25-1.127.751s.25,1.127.501,1.127v.751h.877v-.751c.25,0,.501-.626.501-1.127s-.501-.751-.752-.751h0ZM15.28,8.267c-.25,0-.626,0-.626-.25s.376-.251.626-.251c0,0,.251,0,.251.251s-.251.25-.251.25h0ZM6.889,5.386h-.752v.501h.752v-.501h0ZM6.889,4.008h-.752v.877h.752v-.877h0ZM6.889,2.63h-.752v.877h.752v-.877h0ZM6.889,1.252h-.752v.877h.752v-.877h0ZM8.141,1.252h-.751v.877h.751v-.877h0ZM9.644,1.252h-1.002v.877h1.002v-.877h0ZM10.897,1.252h-.751v.877h.751v-.877h0Z" fill="#D3D3D3" fill-rule="evenodd" />
  </g>
</svg>