<?xml version='1.0' encoding='utf-8'?>
<svg xmlns="http://www.w3.org/2000/svg" id="Layer_2" data-name="Layer 2" viewBox="0 0 20.04 18.72">
  <g id="Layer_1-2" data-name="Layer 1">
    <path d="M1.628,17.087c1.002-1.131,2.129-2.387,2.38-2.513v-.126.754c.25,1.256,1.378,2.513,2.505,3.015.501.125.877.125,1.002-.126.25-.502-.25-1.885-.501-2.387-.25-.377-.877-1.131-1.628-1.508h-1.127l.125-.126c.626-.502,1.252-1.131,1.879-1.759h.125v.502c0,.251.125.503.125.754.626,1.131,1.503,2.01,2.756,2.638.25.126.626.377.877.377.376,0,.501-.251.501-.628.125-.754-.25-1.256-.626-1.759q-.125-.126-.125-.251c-.501-.754-1.127-1.382-2.004-1.759-.125,0-.251-.125-.501-.125h-.376c-.125.125-.25.125-.376.125h-.125l.125-.125c.501-.503,1.127-1.005,1.628-1.382h0l.376.126v.377c.25.377.376.628.751,1.005.501.628,1.127,1.256,1.879,1.759.25.125,1.002.502,1.628.502.25,0,.501-.125.501-.251.251-.502-.25-1.382-1.503-2.387-.501-.502-1.127-1.131-1.753-1.382h-1.002q-.125,0-.25.125h0l-.25-.251h0c.25-.125.376-.251.501-.377.125-.125.376-.251.752-.628.25-.125.501-.251.626-.377h.125l.25.251h0s.125.125.125.251.125.251.125.377c.25.251.376.377.626.628,1.378,1.256,2.38,1.759,3.257,1.759.25,0,.501,0,.626-.125.25,0,.25-.126.25-.251.125-.754-1.753-2.136-2.254-2.387l-.125-.126c-.501-.251-1.002-.628-1.628-.754-.125,0-.376.125-.626.125l-.125.126-.125-.126v-.125c.752-.503,1.378-1.005,1.879-1.382h0c.125.125.25.251.25.502.125.126.25.251.25.377.501.503,1.002,1.005,1.879,1.382.626.251,1.378.628,2.129.628.125,0,.376,0,.501-.126.125,0,.25-.125.25-.125,0-.377-.25-.754-1.002-1.382h0c-.752-.754-1.503-1.131-2.254-1.382-.376-.125-.751-.125-1.127-.125h0c-.125,0-.25,0-.376.125h0l-.125-.125v-.126c.501-.377,1.002-.879,1.503-1.256v-.126l.125.126c.125,0,.25.251.501.377.125.251.376.502.501.628,1.378.754,2.129.879,2.63.879.25,0,.501-.126.751-.251,0-.879-1.879-1.633-2.505-1.885l-.125-.126c-.501-.126-.877-.251-1.253-.126h-.125v-.125c.251-.126.376-.377.626-.628h0c.125,0,.251.125.251.125.25,0,.626.126.877.126.751.126,1.503-.251,2.129-.754v-.125c.25-.251.877-.754.877-1.131,0-.125-.125-.125-.125-.251-.251-.126-.626-.251-.877-.251-.125,0-.25,0-.501.125-.501,0-1.002.251-1.503.503-.752.377-1.253,1.005-1.879,1.633-.125.251-.376.502-.501.628l-.125.125v-.251h0c0-.125.125-.251.125-.251.25-.377.376-.754.501-.879v-.251c0-.503.125-1.005.125-1.508,0-.628-.501-1.885-.877-1.885-.25,0-.376.126-.501.502-.501,1.131-.501,2.638-.125,3.644.125.126.25.251.25.377h0l.125.879c0,.126-.125.126-.376.377h0c-.376.377-.626.628-.877.754l-.125.125v-.377h0s0-.126.125-.126c.125-.126.125-.251.125-.251.25-.377.25-.754.25-1.256.125-.754,0-1.633-.25-2.387h0c-.125-.377-.501-1.508-1.002-1.508l-.125.125c-.501.377-.501,1.005-.501,1.633-.125.88-.125,2.01.25,2.89.125.126.25.377.376.503.125.125.125.251.251.377h0l.125.628v.125c-.501.377-1.127.754-1.879,1.256v.126-.377h0s0-.125.125-.125c.125-.126.25-.251.376-.503.125-.251.125-.628.125-1.131.125-.754,0-1.633-.251-2.261-.125-.377-.626-1.257-1.002-1.257-.125,0-.251.126-.376.377-.25.628-.25,1.256-.376,1.885v.377c0,.754.25,2.136.877,2.638v.126h0v.502l-.376.251c-.376.377-.626.503-.751.628-.125,0-.376.251-.751.628h-.125v-.126h0c.125-.126.25-.251.376-.251.125-.251.376-.377.501-.503.125-.628.125-1.382.125-2.136,0-.628-.376-2.261-1.002-2.261-.125,0-.376.125-.626.502,0,0-1.002,1.885-.125,3.895l.125.126c.125.251.125.377.25.377h0v.754h0c-.376.377-.877.754-1.252,1.005-.125.126-.25.251-.376.377h-.125v-.377h0c.125-.125.251-.125.251-.251.376-.251.751-.628.751-1.005,0-.754-.125-1.633-.25-2.387-.125-.377-.251-.754-.501-1.005-.125-.251-.251-.377-.376-.377s-.25.125-.501.377c-.125.251-.376.502-.376.628-.25.754-.25,2.01-.25,2.513.125.502.25.879.501,1.256,0,.126.125.126.25.251h.125v.126c-.125.251-.125.502-.125.754h0l-.751.754c-.125,0-.251.126-.376.251l-.125.126v-.251c.376-.754.501-2.387,0-3.392-.25-.502-.626-.754-1.002-.754-.251-.126-.376,0-.626.251-.501.628-.376,2.764-.125,3.267,0,.251.25.502.501.754.251.251.501.377.501.754,0,.126-.125.251-.25.628-.125,0-1.002,1.131-1.879,2.01-.501.628-1.127,1.382-1.253,1.508l.25.377c.251-.251.752-.879,1.378-1.633h0Z" fill="#D3D3D3" fill-rule="evenodd" />
  </g>
</svg>