<?xml version='1.0' encoding='utf-8'?>
<svg xmlns="http://www.w3.org/2000/svg" id="Layer_2" data-name="Layer 2" viewBox="0 0 20.079 16.195">
  <g id="Layer_1-2" data-name="Layer 1">
    <path d="M19.904,9.792c-.125-1.883-.751-3.641-1.753-5.272-.501-.879-1.127-1.632-2.003-2.385-.501-.502-2.003-1.507-1.878,0-.501-.377-1.001-.879-1.627-1.255-.876-.502-2.504-1.004-2.003.753-1.753-.125-3.63,0-5.258.376,1.001.377,2.003.502,3.13.753,1.627.376,3.38.879,4.882,1.758,2.253,1.381,4.006,3.641,5.258,5.9.125.251.751,2.009,1.127,1.758.501-.502.25-1.758.125-2.385h0ZM11.392,4.394C7.761,2.762,2.754,3.264,0,0c0,1.255,1.001,2.636,1.878,3.515.626.502,1.252,1.004,1.878,1.381.25.251.876.377.751.753,0,.628.25,1.256.626,1.758,1.878,2.385,5.508,2.511,8.262,3.138,1.252.377,2.504,1.004,3.505,1.883.626.502,1.127,1.13,1.502,1.757.125.251.626,2.009.751,2.009,1.127,0-1.001-5.147-1.252-5.524-1.502-2.636-3.756-5.022-6.51-6.277h0Z" fill="#D3D3D3" fill-rule="evenodd" />
  </g>
</svg>