<?xml version='1.0' encoding='utf-8'?>
<svg xmlns="http://www.w3.org/2000/svg" id="Layer_2" data-name="Layer 2" viewBox="0 0 11.4 20.04">
  <g id="Layer_1-2" data-name="Layer 1">
    <path d="M11.4,7.014l-.251-.25h-4.134L10.899.501c.251,0,.251-.25,0-.25,0,0,0-.25-.376-.25h-5.136c-.251,0-.251.25-.251.25L0,10.271v.25l.251.25h3.508L0,19.539c0,.25,0,.501.251.501h.251L11.4,7.264v-.25h0ZM1.629,17.911l3.007-7.39v-.25l-.376-.25H.752L5.387.751h4.635l-3.758,6.262q-.376,0,0,.25h4.009L1.629,17.911h0Z" fill="#D3D3D3" fill-rule="evenodd" />
  </g>
</svg>