<?xml version='1.0' encoding='utf-8'?>
<svg xmlns="http://www.w3.org/2000/svg" id="Layer_2" data-name="Layer 2" viewBox="0 0 12.48 20.04">
  <g id="Layer_1-2" data-name="Layer 1">
    <path d="M6.24,0C2.746,0,0,2.881,0,6.262c0,6.262,6.24,13.778,6.24,13.778,0,0,6.24-7.515,6.24-13.778,0-3.382-2.87-6.262-6.24-6.262h0ZM6.24,10.145c-2.122,0-3.869-1.753-3.869-3.883s1.747-3.758,3.869-3.758c1.997,0,3.744,1.628,3.744,3.758s-1.747,3.883-3.744,3.883h0ZM3.744,6.262c0,1.378,1.123,2.505,2.496,2.505,1.248,0,2.371-1.127,2.371-2.505,0-1.252-1.123-2.38-2.371-2.38-1.373,0-2.496,1.127-2.496,2.38h0Z" fill="#D3D3D3" fill-rule="evenodd" />
  </g>
</svg>