<?xml version='1.0' encoding='utf-8'?>
<svg xmlns="http://www.w3.org/2000/svg" id="Layer_2" data-name="Layer 2" viewBox="0 0 14.64 20.04">
  <g id="Layer_1-2" data-name="Layer 1">
    <path d="M7.383,0C3.253,0,0,3.507,0,7.891c0,1.628.25,3.256,1.126,4.634.751,1.253,2.002,2.129,3.128,2.63l2.377,4.634c.25.25.375.25.751.25.125,0,.25,0,.501-.25l2.377-4.634c1.126-.501,2.252-1.378,3.128-2.63.876-1.378,1.251-3.006,1.251-4.634C14.64,3.507,11.262,0,7.383,0h0ZM9.51,13.903c0,.25-.25.25-.375.376l-1.752,3.632-2.002-3.632q-.125-.125-.375-.376c-2.252-.877-3.754-3.257-3.754-6.012C1.251,4.384,3.879,1.503,7.383,1.503c3.253,0,5.881,2.881,5.881,6.388,0,2.755-1.502,5.135-3.754,6.012h0ZM7.257,5.01c-1.627,0-2.753,1.378-2.753,2.881,0,1.628,1.126,3.006,2.753,3.006,1.502,0,2.878-1.378,2.878-3.006,0-1.503-1.376-2.881-2.878-2.881h0ZM7.257,9.519c-.751,0-1.502-.751-1.502-1.628s.751-1.503,1.502-1.503c.626,0,1.376.626,1.376,1.503s-.751,1.628-1.376,1.628h0Z" fill="#D3D3D3" fill-rule="evenodd" />
  </g>
</svg>