<?xml version='1.0' encoding='utf-8'?>
<svg xmlns="http://www.w3.org/2000/svg" id="Layer_2" data-name="Layer 2" viewBox="0 0 19.972 19.179">
  <g id="Layer_1-2" data-name="Layer 1">
    <path d="M14.841,8.592v9.342c0,.748-.501,1.246-1.126,1.246-.751,0-1.377-.498-1.377-1.246v-.498c0,.125-.25.125-.375.125h-4.005c-1.377,0-2.378-1.246-2.378-2.616v-.498h-1.001c-.375,0-.626-.374-.751-.747-2.253-.498-4.005-3.114-2.378-5.48.626-.997,2.002-2.117,1.752-3.612C2.576,3.236,1.074,2.488.198,1.368-.428.62.574-.501,1.199.246c.876,1.121,2.128,1.868,2.753,3.114.751,1.121.751,2.616,0,3.737-.626,1.121-1.877,1.993-1.627,3.239,0,.997.876,1.744,1.502,1.868h0c.125-.374.375-.498.751-.498h1.001v-.249c0-1.495,1.001-2.491,2.378-2.491h4.38v-.374c0-.748.626-1.495,1.377-1.495.626,0,1.126.747,1.126,1.495h0ZM19.972,10.585c0-.623-.501-.996-1.001-.996h-3.629v1.868h3.629c.501,0,1.001-.374,1.001-.872h0ZM18.971,14.82h-3.629v1.868h3.629c.501,0,1.001-.374,1.001-.997,0-.498-.501-.872-1.001-.872h0Z" fill="#D3D3D3" fill-rule="evenodd" />
  </g>
</svg>