<?xml version='1.0' encoding='utf-8'?>
<svg xmlns="http://www.w3.org/2000/svg" id="Layer_2" data-name="Layer 2" viewBox="0 0 17.16 20.04">
  <g id="Layer_1-2" data-name="Layer 1">
    <path d="M10.521,20.04h4.259c.626,0,1.127-.626,1.127-1.252v-10.145h-5.386v11.398h0ZM1.127,18.788c0,.626.501,1.252,1.127,1.252h4.509v-11.398H1.127v10.145h0ZM15.907,4.384h-5.386v3.632h5.386c.752,0,1.253-.626,1.253-1.253v-1.127c0-.877-.501-1.252-1.253-1.252h0ZM0,5.636v1.127c0,.626.501,1.253,1.127,1.253h5.637v-3.632H1.127c-.626,0-1.127.376-1.127,1.252h0ZM5.637,3.883h5.636c1.754,0,2.63-.376,3.131-1.002.25-.25.501-.626.376-1.378-.125-1.002-1.127-1.503-2.38-1.503-.626,0-1.127,0-1.628.125-.501.25-.752.376-1.127.501-.125-.125-.376-.125-.501-.25h-1.127c-.251.125-.376.125-.501.25-.376-.125-.752-.25-1.127-.25-.626-.376-1.127-.376-1.628-.376-1.378,0-2.255.501-2.38,1.503-.125.751.125,1.127.251,1.378.501.626,1.503,1.002,3.006,1.002h0ZM11.148,1.628c.376-.125.752-.125,1.253-.125.752,0,.877.125,1.002.25q0,.125-.125.125c0,.25-.25.501-2.004.501h-.752c0-.125,0-.25-.125-.501.376-.125.501-.125.752-.25h0ZM3.758,1.753c0-.125.251-.25,1.002-.25.251,0,.752,0,1.253.125.251.125.376.125.501.25v.501h-.877c-1.503,0-1.754-.25-1.879-.501v-.125h0Z" fill="#D3D3D3" fill-rule="evenodd" />
  </g>
</svg>