<?xml version='1.0' encoding='utf-8'?>
<svg xmlns="http://www.w3.org/2000/svg" id="Layer_2" data-name="Layer 2" viewBox="0 0 19.92 19.92">
  <g id="Layer_1-2" data-name="Layer 1">
    <path d="M16.558,10.649c.872,0,1.619-.752,1.619-1.629,0-1.002-.747-1.629-1.619-1.629-.996,0-1.743.626-1.743,1.629,0,.877.747,1.629,1.743,1.629h0ZM16.558,7.893c.498,0,.872.626.872,1.127s-.373.877-.872.877-1.12-.376-1.12-.877.622-1.127,1.12-1.127h0ZM5.852,15.034h8.093c.124,0,.249-.25.249-.376,0-.251-.125-.376-.249-.376H5.852c-.125,0-.249.125-.249.376,0,.125.125.376.249.376h0ZM5.852,16.663h8.093c.124,0,.249-.25.249-.25,0-.25-.125-.501-.249-.501H5.852c-.125,0-.249.251-.249.501,0,0,.125.25.249.25h0ZM16.932,5.638V0H2.988v5.638H0v11.276h1.992v1.002h.996v2.004h13.944v-2.004h.996v-1.002h1.992V5.638h-2.988ZM3.61.626h12.575v5.011H3.61V.626h0ZM2.988,17.289h-.249v-2.38c0-.125-.249-.25-.498-.25-.125,0-.249.125-.249.25v1.378H.747v-4.009h2.241v5.011h0ZM16.185,19.294H3.61v-7.016h12.575v7.016h0ZM19.173,16.287h-1.245v-1.378c0-.125-.249-.25-.373-.25s-.374.125-.374.25v2.38h-.249v-5.011h2.241v4.009h0ZM19.173,11.651H.747v-5.387h18.426v5.387h0Z" fill="#D3D3D3" fill-rule="evenodd" />
  </g>
</svg>