<?xml version='1.0' encoding='utf-8'?>
<svg xmlns="http://www.w3.org/2000/svg" id="Layer_2" data-name="Layer 2" viewBox="0 0 20.06 18.36">
  <g id="Layer_1-2" data-name="Layer 1">
    <path d="M6.007.874l-.501-.5h0l-.501-.25h0c-.375-.125-.751-.125-1.252-.125C1.752,0,0,1.624,0,3.872s1.752,4.122,3.755,4.122c.626,0,1.252-.25,1.752-.625-.25,2.248-1.252,5.371-4.881,8.618-.626.375-.751,1.249-.25,1.873.25.375.501.5.876.5s.501-.125.751-.375c4.756-3.872,5.757-7.993,5.882-10.616.25-3.497-.626-5.371-1.502-6.245l-.375-.25h0ZM18.272,1.124l-.125-.25-.751-.5h0l-.375-.25h0c-.25-.125-.876-.125-1.126-.125-2.128,0-3.755,1.624-3.755,3.872s1.627,4.122,3.755,4.122c.501,0,1.126-.25,1.752-.625-.25,2.248-1.252,5.371-5.131,8.618-.501.375-.501,1.249-.25,1.873.375.375.751.5,1.126.5.125,0,.501-.125.751-.375,4.506-3.872,5.757-7.993,5.882-10.616.25-3.497-.876-5.371-1.752-6.245h0Z" fill="#D3D3D3" fill-rule="evenodd" />
  </g>
</svg>