<?xml version='1.0' encoding='utf-8'?>
<svg xmlns="http://www.w3.org/2000/svg" id="Layer_2" data-name="Layer 2" viewBox="0 0 17.294 20.021">
  <g id="Layer_1-2" data-name="Layer 1">
    <path d="M17.169,9.581c-.125,0-.25-.125-.25,0h-.875c-.25.125-.375-.125-.375-.375l-.125-.875q0-.125-.25-.25h-.25l-.875.125c-.125,0-.375-.125-.375-.5l-.125-.75q0-.125-.25-.25h-.5c-.125,0-.375,0-.5-.25v-.25h0c.125-.125.125-.25.125-.25,0-.25,0-.375-.125-.375l-.625-.625c.25-1.501-.5-3.001-1.625-4.127-1.875-1.376-4.625-1-5.875.875q-.25.25-.375.375c-1.25,0-2.875.625-3.5,2.501-1.125,2.251.25,4.502,1.375,5.878l-.625.375c-.25.25-.375.75-.25,1.251l4.25,7.504c.25.375.75.625,1.125.25l2.625-1.501c.125-.125.25-.375.25-.5.125-.25,0-.5,0-.75l-4.375-7.504c0-.125-.25-.375-.375-.5-.375,0-.5,0-.625.125l-1,.625c-.875-1-2.125-3.001-1.375-4.877.5-1,1.25-1.376,2-1.501-.375,1.626.25,3.502,1.5,4.627,1.375,1,2.875,1.125,4.25.625l5.25,4.252c.25.125.375.125.625,0l1.75-.625c.25,0,.375-.25.375-.625l.125-1.876c0-.125-.125-.125-.125-.25h0ZM3.794,11.081c.25.375.125.75-.125,1-.375.25-.875.125-1-.375,0,0,0-.125-.125-.125h.125c.125.125.25.125.375.125.25,0,.375,0,.5-.125s.25-.5.125-.75c0,0,.125.125.125.25h0ZM6.794,3.953c-.25.375-1,.625-1.375.125-.25-.125-.5-.375-.5-.5h.375c.25.125.625,0,.875-.5,0-.25-.25-.5-.5-.75q-.125,0-.25-.125c.25-.125.875-.125,1.25.125.5.375.625,1.125.125,1.626h0Z" fill="#D3D3D3" fill-rule="evenodd" />
  </g>
</svg>