<?xml version='1.0' encoding='utf-8'?>
<svg xmlns="http://www.w3.org/2000/svg" id="Layer_2" data-name="Layer 2" viewBox="0 0 18.24 19.92">
  <g id="Layer_1-2" data-name="Layer 1">
    <path d="M5.372,10.956s0,.747-.75,1.618c-.75.747-1.624.872-1.624.872l3.373,3.362h-.375v3.112h6.996v-3.112h-2.124l-5.497-5.852h0ZM12.368,19.298h-5.747v-1.868h5.747v1.868h0ZM2.624,9.088c-.625,0-1.124.498-1.124.996,0,.623.5,1.121,1.124,1.121.5,0,1.124-.498,1.124-1.121,0-.498-.625-.996-1.124-.996h0ZM5.247,10.084v-.249c-.125-1.494-1.249-2.615-2.624-2.615-1.499,0-2.624,1.37-2.624,2.864,0,1.618,1.124,2.739,2.624,2.739s2.624-1.121,2.624-2.739h0ZM2.624,12.325c-1.124,0-1.874-1.12-1.874-2.241,0-1.245.75-2.116,1.874-2.116s1.999.872,1.999,2.116c0,1.121-.875,2.241-1.999,2.241h0ZM18.115,2.116c-.125-.249-.25-.249-.375,0l-1.874,3.611-2.249-.498-1.374-2.615.75-1.867,3.873.249s.125,0,.125-.125c.25,0,.25-.125.25-.125v-.249q-.25-.249-.375-.249l-4.123-.249c-.125,0-.25.125-.25.249l-.625,1.618-1.374.747.25.747-6.746,3.859s.625,0,1.249,1.121c.75,1.245.375,1.867.375,1.867l6.621-3.735.25.498,1.249-.622c.25-.125.375-.125.375-.249h-.125.125c1.624.374,1.749.374,1.749.374h.125q.125,0,.25-.125l1.999-3.86c0-.125,0-.374-.125-.374h0Z" fill="#D3D3D3" fill-rule="evenodd" />
  </g>
</svg>