<?xml version='1.0' encoding='utf-8'?>
<svg xmlns="http://www.w3.org/2000/svg" id="Layer_2" data-name="Layer 2" viewBox="0 0 18.84 20.04">
  <g id="Layer_1-2" data-name="Layer 1">
    <path d="M9.482,0c-1.872,0-3.618.501-5.115,1.628.125,0,.374.25.374.501,1.497-1.002,2.994-1.378,4.741-1.378,4.616,0,8.484,4.133,8.484,9.269s-3.868,9.269-8.484,9.269C4.741,19.289.873,15.155.873,10.02c0-1.879.374-3.758,1.497-5.386-.25,0-.374-.25-.624-.376-1.123,1.628-1.747,3.632-1.747,5.761,0,5.636,4.367,10.02,9.482,10.02,4.991,0,9.358-4.384,9.358-10.02S14.473,0,9.482,0h0ZM2.62,4.384c.25,0,.374.25.624.25.873,0,1.497-.751,1.497-1.628,0-.25-.125-.501-.125-.752-.25-.25-.25-.376-.499-.376-.25-.25-.624-.501-.873-.501-.873,0-1.497.626-1.497,1.628,0,.25.25.626.25.877.125.25.374.25.624.501h0ZM2.246,10.02c0,4.133,3.244,7.64,7.361,7.64,3.868,0,7.112-3.507,7.112-7.64s-3.244-7.64-7.112-7.64c-4.117,0-7.361,3.507-7.361,7.64h0ZM12.851,4.008c.998.751,1.872,1.879,2.62,3.256h-.25s-.25,0-.25-.25h-.25v-.25h-.374v-.25h-.25c-.25,0-.25-.125-.374-.125v.376h-.25s0,.25-.25.25c0,0-.25,0-.25-.25q-.125,0-.125-.25c-.25,0-.25-.125-.25-.125v-.25h.624q0-.25.25-.25v-.25h.25l-.25-.25v-.25s0-.125-.25-.125h-.25v-.25h-.125v-.25l-.25-.25s0-.25.25-.25h0ZM12.352,5.01v-.25h.25s0,.25.25.25q.125.125.125.376v.25h-.125s-.25,0-.25-.25v-.25h-.25l-.125-.125h.125ZM11.728,9.394v-.501c0-.25.25-.25.25-.501h-.25v-.25q.25,0,.25-.25s.25-.125.374-.125q.25-.25.25-.501h.374q.25-.25.499-.25t.374.25h.749c.125.25.374.25.374.501h.624c.25.626.25,1.378.25,2.255,0,2.38-1.123,4.384-2.62,5.511,0-.25.25-.25.25-.376,0,0,0-.25.25-.501v-.25s0-.25-.25-.25v-.25c.25-.125.25-.376.374-.626.25,0,.25-.251.25-.251v-.501c0-.125-.25-.125-.25-.125v-.501s.25,0,.25-.25v-.751h-1.248s-.25,0-.25-.125q-.25,0-.374-.25c-.25,0-.25-.25-.499-.501v-.25c-.25,0,0-.25,0-.376h0ZM11.104,4.008s-.25,0-.25.25h-.25l-.125-.25q.125-.25.374-.25h.25v.25h0ZM9.358,3.131h.25c.374,0,.873,0,1.248.25v.125h-.374c0,.25-.25.25-.25.501l-.25.25h-.25c0-.25-.125-.25-.125-.25v-.877l-.25.25-.25.125q-.25,0-.25-.125h-.749v.125h-.25l-.25.25v.25q0,.25.25.25l.25-.25s.125,0,.125-.25h.499v-.25s.125,0,.125.25h.25v1.002s-.25,0-.25.25h-.125v-.25q-.25,0-.25.25h-.624q-.25.125-.499.125h-.125c0,.25-.25.25-.25,0-.25.25-.499.501-.873.501v.877h-.25v-.376c0-.25-.25-.25-.25-.25-.125,0-.125-.25-.374,0-.25,0-.499,0-.624.25q-.25.25-.25.376v.25l.25.25c.125,0,.125-.25.125-.25,0,.25.25.25.25.25,0,0,0,.25-.25.25q-.125.25,0,.25v.626l.25.25h.25c.25.25.25,0,.25,0q.125,0,.125-.25h.25l.25.25h.25c.125.25.374.25.624.501.25,0,.374.25.374.25.25.25.499.376.499.626,0,0,0,.25.25.25q0,.25.125.25v.25c.25,0,.499,0,.624.25,0,0,.25,0,.25.125,0,.25,0,.751-.25.751l-.125.25v.501h-.25q0,.125-.25.376l-.125.25h-.499c0,.251-.25.251-.25.501s-.125.25-.125.376h-.25c0,.25-.25.25-.499.501l-.125.25c0,.25-.25.25-.25.501,0,.125,0,.626.25.877-.25-.25-.499-.501-.749-.501l-.125-.25v-.125q0-.25-.25-.501v-1.879c.25,0,.25-.25.25-.376l-.25-.25v-.501q-.25-.25-.25-.501-.25,0-.374-.25v-1.127q0-.25.125-.25v-.125q.25-.25.25-.501v-.25l-.25-.25q-.125,0-.125-.25v-.25l-.25-.125v-.501h-.374v-.25l-.25-.25c.998-2.254,3.244-3.632,5.615-3.632h0ZM6.737,7.264v.25h-.374l.125-.25h.25ZM6.114,7.014h-.624c0-.25.125-.25.125-.25h.25c0,.25.25.25.25.25h0Z" fill="#D3D3D3" fill-rule="evenodd" />
  </g>
</svg>