<?xml version='1.0' encoding='utf-8'?>
<svg xmlns="http://www.w3.org/2000/svg" id="Layer_2" data-name="Layer 2" viewBox="0 0 20.04 15.96">
  <g id="Layer_1-2" data-name="Layer 1">
    <path d="M16.658,2.244h.125l.25.125.25.249.125.125.125.249v.873l-.125.125-.25.125-.125.249h-.125l-.25.125h-.626l-.125-.125-.25-.125-.25-.249v-.249l-.125-.25v-.125l.125-.249v-.249l.125-.125.125-.125.125-.125.125-.125.25-.125h.501ZM15.406,0l-.25.125-.501.249-.501.25v.125l-.125.125v.125l.125.125.25.499-.25.374-.25.499h-.626l-.125.125h-.125v.25l-.125.499.125.624v.125h.125l.125.125h.626l.25.499.25.374-.25.499-.125.125v.125l.125.125v.125l.501.25.501.249h.501v-.125l.25-.499.501.125.501-.125.25.499.125.125h.376l.626-.249.376-.25.125-.125v-.374l-.25-.499.25-.374.251-.499h.626l.125-.125h.125v-.125l.125-.624-.125-.499v-.25h-.125l-.125-.125h-.626l-.251-.499-.25-.374.25-.499v-.374l-.125-.125-.376-.25-.626-.249-.125-.125-.125.125h-.125l-.125.125-.25.499-.501-.125-.501.125-.25-.499v-.125h-.25v-.125h0ZM6.763,5.736l.501.125.376.125.376.125.25.25.251.374.25.374.125.374v1.247l-.25.499-.251.374-.501.374-.501.125-.376.125h-.501l-.376-.125h-.376l-.376-.249-.25-.25-.376-.374-.125-.374-.125-.249-.125-.499.125-.374v-.499l.251-.374.25-.499.501-.25.501-.249.376-.125h.376ZM16.658,11.596h.125l.25.125.25.125.125.25.125.249v.873l-.125.125-.25.125-.125.125-.125.125h-.25l-.125.125h-.251l-.25-.125h-.125l-.25-.249-.25-.25v-.125l-.125-.25v-.249l.125-.125v-.249l.125-.25.125-.125.125-.125h.125l.25-.125h.501ZM6.012.998l-.501.125-.25.125-.25.125-.125.125v1.372l-.501.249-.376.249-.501.25-.376.249-.877-.499-.25-.125h-.251l-.25.125-.25.125-.376.499-.376.499-.25.499-.25.623v.499l.125.25.125.125,1.127.499-.125.499v.998l.125.499-1.127.499-.125.249-.125.125v.499l.25.623.25.499.376.499.376.499.25.249h.752l.877-.623.376.374.501.249.376.25.501.125v1.372l.125.249.25.125.25.125h2.38l.25-.125.25-.125.125-.249v-1.372l.501-.125.376-.25.501-.249.376-.374.877.623h.751l.25-.249.376-.499.376-.499.25-.499.25-.623v-.499l-.125-.25-.125-.125-1.127-.499.125-.499v-.998l-.125-.499,1.127-.499.125-.125.125-.25v-.499l-.25-.623-.25-.499-.501-.499-.251-.499-.25-.125-.25-.125h-.25l-.25.125-.877.499-.376-.249-.501-.25-.376-.249-.501-.249v-1.372l-.125-.125-.25-.125-.25-.125-.626-.125h-1.253ZM15.406,9.352h-.25l-.501.249-.501.374v.125l-.125.125v.125l.125.125.25.499-.25.374-.25.374h-.501l-.125.125h-.125l-.125.125v.125l-.125.623.125.499v.25h.125l.125.125h.626l.25.374.25.499-.25.374-.125.125v.25h.125v.125l.501.374.501.249h.501v-.249l.25-.374h1.002l.25.374.125.249h.376l.626-.249.376-.374.125-.125h0v-.374l-.25-.374.25-.499.251-.374h.626l.125-.125.125-.125v-.125l.125-.499-.125-.623v-.125l-.125-.125h-.125l-.125-.125h-.501l-.251-.374-.25-.374.25-.499v-.374l-.125-.125-.376-.374-.626-.249h-.251l-.125.125-.125.125-.25.374h-1.002l-.25-.374v-.125l-.25-.125h0Z" fill="#D3D3D3" fill-rule="evenodd" />
  </g>
</svg>