<?xml version='1.0' encoding='utf-8'?>
<svg xmlns="http://www.w3.org/2000/svg" id="Layer_2" data-name="Layer 2" viewBox="0 0 18.6 20.04">
  <g id="Layer_1-2" data-name="Layer 1">
    <path d="M10.236,20.04h-1.872c-.749,0-1.498-.626-1.498-1.503v-2.38l-1.498,1.753c-.125.25-.624.25-.999.25-.25,0-.624,0-.874-.25l-1.498-1.628c-.499-.501-.499-1.503,0-2.004l1.623-1.628H1.373c-.749,0-1.373-.751-1.373-1.628v-2.004c0-.877.624-1.503,1.373-1.503h2.247l-1.623-1.753c-.499-.501-.499-1.503,0-2.004l1.498-1.503c.25-.376.624-.376.874-.376.374,0,.874,0,.999.376l1.498,1.628V1.503c0-.751.749-1.503,1.498-1.503h1.872c.749,0,1.373.751,1.373,1.503v2.38l1.623-1.628c.125-.376.624-.376.999-.376.25,0,.624,0,.874.376l1.498,1.503c.25.125.25.626.25,1.002s0,.877-.25,1.002l-1.623,1.753h2.247c.749,0,1.373.626,1.373,1.503v2.004c0,.376-.125.877-.499,1.127-.25.25-.624.501-.874.501h-2.247l1.623,1.628c.374.501.374,1.503,0,2.004l-1.498,1.628c-.25.25-.624.25-.874.25-.374,0-.874,0-.999-.25l-1.623-1.753v2.38c0,.877-.624,1.503-1.373,1.503h0ZM6.741,14.78s.125.25.375.25c.125,0,.25.125.624.25.125,0,.25.25.25.501v2.756c0,.125.25.125.375.125h1.872c.125,0,.375,0,.375-.125v-2.756c0-.25.125-.501.25-.501.374-.125.499-.25.624-.25.375-.25.624-.25.749,0l1.748,2.004h.375l1.373-1.503v-.376l-1.872-1.879c-.125-.125-.125-.501,0-.877.125-.125.125-.25.374-.626,0-.25.125-.376.375-.376h2.621l.125-.125v-2.254c0-.125,0-.376-.125-.376h-2.621c-.25,0-.375-.125-.375-.25-.25-.376-.25-.501-.374-.752-.125-.25-.125-.626,0-.877l1.872-1.753v-.376l-1.373-1.503h-.375l-1.748,1.879c-.125.25-.374.25-.749.125-.125-.125-.25-.125-.624-.376-.125,0-.25-.125-.25-.501V1.503c0-.125-.25-.125-.375-.125h-1.872c-.125,0-.375,0-.375.125v2.756c0,.376-.125.501-.25.501-.374.25-.499.25-.624.376-.375.125-.624.125-.874-.125l-1.748-1.879h-.25l-1.373,1.503v.376l1.623,1.753c.375.25.375.626.25.877-.25.251-.25.376-.374.752,0,.125-.125.25-.499.25H1.373c-.125,0-.125.25-.125.376v2.004c0,.25,0,.376.125.376h2.497c.374,0,.499.125.499.376.125.376.125.501.374.626.125.376.125.752-.25.877l-1.623,1.879v.376l1.373,1.503h.25l1.748-2.004c.25,0,.375-.25.499-.25h0ZM9.238,12.901c-1.498,0-2.621-1.378-2.621-2.881,0-1.628,1.123-2.881,2.621-2.881s2.746,1.253,2.746,2.881c0,1.503-1.248,2.881-2.746,2.881h0ZM9.238,8.392c-.874,0-1.498.626-1.498,1.628s.624,1.753,1.498,1.753c.999,0,1.623-.751,1.623-1.753s-.624-1.628-1.623-1.628h0Z" fill="#D3D3D3" fill-rule="evenodd" />
  </g>
</svg>