<?xml version='1.0' encoding='utf-8'?>
<svg xmlns="http://www.w3.org/2000/svg" id="Layer_2" data-name="Layer 2" viewBox="0 0 19.8 19.92">
  <g id="Layer_1-2" data-name="Layer 1">
    <path d="M19.8,9.213h-.623l.623-1.618-.996.125-.623,1.494h-.498l.498-1.494-.996.125-.498,1.369h-.623l.498-1.245-.996.125-.374,1.12h-.996l.747-1.245,2.241-1.37.872.249.498-1.867-1.868-.374-.249.872-2.242,1.245h-1.494l.498-.871,1.245.249.623-.747-1.37-.249.374-.498,1.37.249.623-.872-1.619-.249.374-.498,1.619.249.498-.747-1.619-.374.249-.498-1.37-.871-.374.622-1.121-1.369-.374.872.996,1.245-.249.498-.996-1.121-.374.872.872,1.121-.249.498-.872-.996-.374.871.747.996-.498.872-.747-1.245v-2.615l.623-.747-1.245-1.369-1.37,1.369.623.747v2.49l-.747,1.37-.498-.872.872-.996-.374-.871-.872.996-.374-.498.996-1.121-.498-.872-.996,1.121-.249-.498.996-1.245-.374-.872-1.121,1.369-.249-.622-1.494.871.374.498-1.743.374.623.747,1.619-.249.249.498-1.494.249.623.872,1.37-.249.249.498-1.245.249.498.747,1.245-.249.498.871h-1.494l-2.242-1.245-.249-.872-1.868.374.498,1.867.996-.249,2.242,1.37.747,1.245h-.996l-.498-1.12-.996-.125.498,1.245h-.623l-.498-1.369-.996-.125.623,1.494h-.623l-.623-1.494-.872-.125.498,1.618h-.623v1.619h.623l-.498,1.618.872-.125.623-1.494h.623l-.623,1.494.996-.125.498-1.369h.623l-.498,1.245.996-.125.498-1.12h.996l-.747,1.245-2.242,1.245-.996-.125-.498,1.743,1.868.498.249-.872,2.242-1.245h1.494l-.498.747-1.245-.125-.498.747,1.245.249-.249.498-1.37-.249-.623.872,1.494.249-.249.498-1.619-.249-.623.747,1.743.249-.374.623,1.494.747.249-.498,1.121,1.369.374-.996-.996-1.245.249-.498.996,1.245.498-.996-.996-.996.374-.498.872.996.374-.872-.872-.996.498-.871.747,1.245v2.615l-.623.747,1.37,1.245,1.245-1.245-.623-.747v-2.615l.747-1.245.498.871-.747.996.374.872.872-.996.249.498-.872.996.374.996.996-1.245.249.498-.996,1.245.374.996,1.121-1.369.374.498,1.37-.747-.249-.623,1.619-.249-.498-.747-1.619.249-.374-.498,1.619-.249-.623-.872-1.37.249-.374-.498,1.37-.249-.623-.747-1.245.125-.498-.747h1.494l2.242,1.245.249.872,1.868-.498-.498-1.743-.872.125-2.241-1.245-.747-1.245h.996l.374,1.12.996.125-.498-1.245h.623l.498,1.369.996.125-.498-1.494h.498l.623,1.494.996.125-.623-1.618h.623v-1.619h0ZM12.204,12.325l-.747-1.369-1.37.871.747,1.37-.872,1.618-.996-1.618.872-1.37-1.494-.871-.747,1.369h-1.743l.872-1.494h1.619v-1.619h-1.619l-.872-1.618h1.743l.747,1.37,1.494-.747-.872-1.37.996-1.618.872,1.618-.747,1.37,1.37.747.747-1.37h1.868l-.872,1.618h-1.619v1.619h1.619l.872,1.494h-1.868Z" fill="#D3D3D3" fill-rule="evenodd" />
  </g>
</svg>