<?xml version='1.0' encoding='utf-8'?>
<svg xmlns="http://www.w3.org/2000/svg" id="Layer_2" data-name="Layer 2" viewBox="0 0 19.92 14.64">
  <g id="Layer_1-2" data-name="Layer 1">
    <path d="M10.209,10.26c.622,0,1.12-.25,1.12-.751,0-.25-.498-.876-1.12-.876l-3.486-2.753,2.739,3.629c.249.5.498.751.747.751h0ZM5.976,14.64h7.968v-1.877h-7.968v1.877h0ZM16.932,2.628c-1.868-1.877-4.233-2.628-6.972-2.628S4.855.751,2.988,2.628C1.12,4.505,0,7.257,0,9.76c0,1.877.498,3.504,1.37,4.88h1.867l1.37-.876-.498-.751-1.992.751c-.498-1.001-.747-2.377-.747-4.004v-.626l1.867.375.249-1.126-2.116-.5c.498-1.627,1.369-3.003,2.365-4.379l1.618,1.877.872-.876-1.37-1.877c1.37-.751,2.988-1.627,4.607-1.627v2.252h.996V1.001c1.992,0,3.611.876,4.856,1.627l-1.618,1.877,1.12.876,1.369-1.877c.996,1.376,2.117,2.753,2.366,4.379l-2.117.5.249,1.126,2.117-.375v.626c0,1.627-.249,3.003-.996,4.004l-1.618-.751-.622.751,1.37.876h1.618c.871-1.376,1.369-3.003,1.369-4.88,0-2.503-1.12-5.255-2.988-7.132h0Z" fill="#D3D3D3" fill-rule="evenodd" />
  </g>
</svg>