<?xml version='1.0' encoding='utf-8'?>
<svg xmlns="http://www.w3.org/2000/svg" id="Layer_2" data-name="Layer 2" viewBox="0 0 16.32 20.04">
  <g id="Layer_1-2" data-name="Layer 1">
    <path d="M13.206,16.032h-1.869l.374.501h-7.226l.374-.501h-1.869l-2.99,4.008h1.869l.498-.626h11.586l.498.626h1.869l-3.115-4.008h0ZM3.115,18.287l.623-.752h8.845l.498.752H3.115ZM15.822,0H.872v15.406h14.95V0h0ZM3.987,1.127h8.721v.877H3.987v-.877h0ZM4.609,13.652H1.993v-1.378h2.616v1.378h0ZM14.576,13.652h-2.616v-1.378h2.616v1.378h0ZM14.576,10.771H1.993V3.257h12.583v7.515h0Z" fill="#D3D3D3" fill-rule="evenodd" />
  </g>
</svg>