<?xml version='1.0' encoding='utf-8'?>
<svg xmlns="http://www.w3.org/2000/svg" id="Layer_2" data-name="Layer 2" viewBox="0 0 20.092 20.092">
  <g id="Layer_1-2" data-name="Layer 1">
    <path d="M19.529,19.529c-.751.751-1.878.751-2.629,0l-3.38-3.255c-1.377.876-3.004,1.377-4.757,1.377C4.006,17.651,0,13.645,0,8.888,0,4.006,4.006,0,8.763,0c4.882,0,8.888,4.006,8.888,8.888,0,1.627-.626,3.255-1.502,4.632l3.38,3.38c.751.751.751,1.878,0,2.629h0ZM8.763,2.504c-3.38,0-6.259,2.879-6.259,6.385,0,3.38,2.879,6.259,6.259,6.259,3.505,0,6.384-2.879,6.384-6.259,0-3.505-2.879-6.385-6.384-6.385h0ZM11.267,10.14h-5.007c-.626,0-1.252-.626-1.252-1.252,0-.751.626-1.252,1.252-1.252h5.007c.751,0,1.377.501,1.377,1.252,0,.626-.626,1.252-1.377,1.252h0Z" fill="#D3D3D3" fill-rule="evenodd" />
  </g>
</svg>