<?xml version="1.0" encoding="UTF-8"?>
<svg id="Layer_2" data-name="Layer 2" xmlns="http://www.w3.org/2000/svg" viewBox="0 0 19.92 20.04">
  <g id="Layer_1-2" data-name="Layer 1">
    <path d="M7.594,3.758l-2.615-2.255c-.124-.25-.373-.25-.622,0l-1.245,1.127v-.125c0-.125-.125-.25-.373-.25s-.374.125-.374.25v.752l-.622.501v.501c.125.125.374.125.622,0l2.366-2.129,2.365,2.129c.125.125.249.125.373.125s.125-.125.125-.25c.125-.125,0-.376,0-.376h0ZM6.723,4.634c-.249,0-.249.25-.249.501v2.254h-3.362v-2.254c0-.25-.125-.501-.249-.501-.249,0-.374.25-.374.501v2.505c0,.125.249.376.374.376h3.735c.249,0,.498-.251.498-.376v-2.505c0-.25-.125-.501-.373-.501h0ZM4.731,8.642c-1.245,0-2.241,1.127-2.241,2.38s.996,2.255,2.241,2.255,2.365-1.002,2.365-2.255-1.12-2.38-2.365-2.38h0ZM3.112,11.022c0-.751.498-1.378,1.37-1.628v1.503l-1.245.626c-.125-.125-.125-.376-.125-.501h0ZM3.486,12.149l1.12-.626,1.12.877c-.747.376-1.743.25-2.241-.25h0ZM6.101,11.899l-.996-1.002v-1.503c.498.125.996.501,1.245,1.002.125.501.125,1.127-.249,1.503h0ZM17.928,6.012v-1.127c0-.25-.124-.501-.498-.501h-.872c-.373,0-.622.25-.622.501v1.127h-.622v-2.004c0-.376-.249-.501-.622-.501h-.747c-.373,0-.622.125-.622.501v2.004h-.622v-3.632c0-.25-.373-.626-.622-.626h-.747c-.374,0-.622.376-.622.626v3.632h-.374c-.125,0-.249-.125-.249-.25V1.753c0-.125-.249-.25-.373-.25s-.373.125-.373.25v4.008c0,.501.498.877.996.877h7.594c.249,0,.374-.125.374-.25,0-.25-.125-.376-.374-.376h0ZM12.076,6.012h-.747v-3.632h.747v3.632h0ZM14.691,6.012h-.622v-2.004h.622v2.004h0ZM17.181,6.012h-.623v-.877h.623v.877h0ZM17.928,12.65h-7.594c-.125,0-.249-.125-.249-.376v-.501l.996-1.002c.125-.125.373-.125.498,0l.374.376c.373.376.996.376,1.494,0l1.245-1.503h.498l.373.501c.373.376.996.376,1.494,0l1.12-1.127c.125-.25.125-.501,0-.626h-.373l-1.245,1.252c-.124.125-.373.125-.498,0l-.373-.376c-.374-.376-.996-.376-1.37,0l-1.494,1.378c0,.125-.249.125-.373,0l-.374-.376c-.498-.376-1.12-.376-1.369,0l-.623.626v-2.505c0-.125-.249-.376-.373-.376s-.373.25-.373.376v3.883c0,.626.498,1.002.996,1.002h7.594c.249,0,.374-.125.374-.251,0-.25-.125-.376-.374-.376h0ZM18.302,0H1.743C.747,0,0,.877,0,1.879v13.527c0,1.127.747,1.879,1.743,2.004h5.229v.626h-1.37c-.622,0-1.245.626-1.245,1.378v.25c0,.25.125.376.374.376h10.458c.249,0,.498-.125.498-.376v-.25c0-.751-.622-1.378-1.37-1.378h-1.37v-.626h5.354c.871-.125,1.618-.877,1.618-2.004V1.879c0-1.002-.747-1.879-1.618-1.879h0ZM14.318,18.662c.249,0,.622.25.622.751H4.98c0-.501.374-.751.622-.751h8.715ZM7.594,18.036v-.626h4.731v.626h-4.731ZM18.302,16.783H1.743c-.622-.125-1.12-.626-.996-1.378v-.626h18.426v.626c.125.751-.249,1.252-.871,1.378h0ZM19.173,1.879v12.149H.747V1.879c-.125-.626.373-1.127.996-1.252h16.559c.622.125.996.626.871,1.252h0Z" fill="#282828" fill-rule="evenodd"/>
  </g>
</svg>