<?xml version="1.0" encoding="UTF-8"?>
<svg id="Layer_2" data-name="Layer 2" xmlns="http://www.w3.org/2000/svg" viewBox="0 0 18.835 20.04">
  <g id="Layer_1-2" data-name="Layer 1">
    <path d="M7.858,3.257c-.499,0-.998.501-.998,1.002,0,.626.499,1.127.998,1.127,1.247,0,2.245.751,2.744,2.004.249.376.499.501.873.501.125,0,.374,0,.499-.125.499-.25.624-.877.499-1.503-.873-1.753-2.619-3.006-4.615-3.006h0ZM18.461,17.66l-3.368-3.382c.998-1.628,1.497-3.382,1.497-5.135C16.59,4.133,12.973,0,8.357,0,3.867,0,0,4.133,0,9.143c0,4.76,3.867,8.893,8.357,8.893,1.996,0,3.617-.751,5.114-2.004l3.118,3.632c.374.125.748.376.998.376s.499-.25.873-.376c.499-.501.499-1.503,0-2.004h0ZM13.472,13.151c-.374.376-.624.751-.998,1.127-1.123,1.127-2.495,1.628-4.116,1.628-3.493,0-6.362-3.006-6.362-6.763,0-4.008,2.869-7.014,6.362-7.014s6.486,3.006,6.486,7.014c0,1.378-.499,3.006-1.372,4.008h0Z" fill="#282828" fill-rule="evenodd"/>
  </g>
</svg>