<?xml version="1.0" encoding="UTF-8"?>
<svg id="Layer_2" data-name="Layer 2" xmlns="http://www.w3.org/2000/svg" viewBox="0 0 19.8 20.04">
  <g id="Layer_1-2" data-name="Layer 1">
    <path d="M18.296,6.889c.501-.501.752-1.002.752-1.753,0-1.252-.877-2.254-2.256-2.254-1.253,0-2.256,1.002-2.256,2.254,0,.877.376,1.628,1.003,2.004-.501.376-.752.752-.752,1.378v2.254h-1.253v-1.628c0-1.127-.877-2.255-2.005-2.255.376-.501.627-1.002.627-1.753,0-1.252-1.003-2.254-2.256-2.254s-2.381,1.002-2.381,2.254c0,.751.376,1.252.752,1.753-1.128,0-2.005,1.127-2.005,2.255v1.628h-1.378v-2.254c0-.626-.251-1.002-.627-1.378.627-.376,1.003-1.127,1.003-2.004,0-1.252-1.003-2.254-2.381-2.254-1.253,0-2.13,1.002-2.13,2.254,0,.751.125,1.252.627,1.753-.752,0-1.378.751-1.378,1.628v4.885c0,.751.627,1.503,1.378,1.628v5.01h.627v-5.01h2.882v4.634c0,.125.251.376.376.376h2.005c.251,0,.251-.25.251-.376v-5.26h2.005v5.01h-1.378v.626h3.384v-.626h-1.378v-5.01h2.005v5.26c0,.125.125.376.376.376h2.005c.125,0,.251-.25.251-.376v-4.634h3.008v5.01h.627v-5.01c.752-.125,1.378-.877,1.378-1.628v-4.885c0-.877-.627-1.628-1.504-1.628h0ZM15.163,5.135c0-.877.752-1.503,1.629-1.503s1.629.626,1.629,1.503c0,1.002-.752,1.753-1.629,1.753s-1.629-.751-1.629-1.753h0ZM8.146,5.135c0-.877.752-1.503,1.754-1.503s1.629.626,1.629,1.503c0,1.002-.627,1.753-1.629,1.753s-1.754-.751-1.754-1.753h0ZM10.401,7.515l-.501,1.378-.501-1.378h1.003ZM6.892,9.143c0-.877.752-1.628,1.629-1.628h.125l.877,2.38c0,.125.251.25.376.25s.251-.125.251-.25l.877-2.38h.125c1.003,0,1.629.752,1.629,1.628v1.628h-1.253c-.125,0-.376.125-.376.376v1.252h-2.632v-1.252c0-.25-.125-.376-.376-.376h-1.253v-1.628h0ZM2.882,3.632c1.003,0,1.754.626,1.754,1.503,0,1.002-.752,1.753-1.754,1.753-.752,0-1.504-.751-1.504-1.753,0-.877.752-1.503,1.504-1.503h0ZM2.632,9.519v3.256c0,.125.251.25.251.25h3.008c.627,0,1.003.501,1.003,1.127v5.26h-1.378v-4.634c0-.25,0-.376-.251-.376H1.629c-.501,0-.877-.376-.877-1.002v-4.885c0-.626.376-1.002.877-1.002h1.754c.501,0,.877.376.877,1.002v2.63c0,.125.125.376.376.376h3.258v.877H3.384v-2.881h-.752ZM12.156,13.778h-4.637c0-.25-.125-.501-.251-.752h5.263c-.125.251-.251.501-.376.752h0ZM19.048,13.402c0,.626-.376,1.002-.877,1.002h-3.634c-.251,0-.376.125-.376.376v4.634h-1.378v-5.26c0-.626.501-1.127,1.003-1.127h3.008c.125,0,.376-.125.376-.25v-3.256h-.752v2.881h-4.511v-.877h3.258c.251,0,.376-.25.376-.376v-2.63c0-.626.376-1.002.877-1.002h1.754c.501,0,.877.376.877,1.002v4.885h0ZM10.276,10.771h-.752v.751h.752v-.751h0ZM3.634,2.254h1.253v.752s.125.125.251.125c0,.125.125.125.125.125.125,0,.251-.125.251-.125l1.253-.877h1.504c.125,0,.251-.125.251-.376V.376c0-.25-.125-.376-.251-.376H3.634c-.125,0-.251.125-.251.376v1.503c0,.25.125.376.251.376h0ZM4.01.626h3.885v1.002h-1.253c-.125,0-.251,0-.251.125l-.752.501v-.376c0-.125-.125-.25-.376-.25h-1.253V.626h0ZM12.281.877h-.752v.751h.752v-.751h0ZM13.409.877h-.501v.751h.501v-.751h0ZM14.787.877h-.501v.751h.501v-.751h0Z" fill="#282828" fill-rule="evenodd"/>
  </g>
</svg>