<?xml version="1.0" encoding="UTF-8"?>
<svg id="Layer_2" data-name="Layer 2" xmlns="http://www.w3.org/2000/svg" viewBox="0 0 19.972 20.036">
  <g id="Layer_1-2" data-name="Layer 1">
    <path d="M17.319,3.169l.753-.75c.125,0,.125-.25,0-.375-.125-.25-.376-.25-.502,0l-.627.625C13.429-.454,8.033-.954,4.269,1.795c-.753-.625-1.757-.5-2.384.125-.753.625-.753,1.749,0,2.374-2.886,3.998-2.384,9.371,1.004,12.744,2.008,1.999,4.517,2.999,7.153,2.999,2.51,0,5.019-1,7.027-2.999,3.765-3.748,3.89-9.995.251-13.868h0ZM2.387,2.419c.125-.25.376-.375.753-.375.251,0,.502.125.627.375h.125c.125.25.251.5.251.625h0v.125h0v.25h-.125v.25h-.125l-.125.125q0,.125-.125.125v.125c-.251.125-.502.125-.753.125h-.125l-.125-.125h-.125v-.125h0s-.125,0-.125-.125c-.502-.375-.502-1,0-1.375h0ZM16.567,16.663c-3.514,3.623-9.411,3.623-13.176,0C.253,13.414-.123,8.292,2.387,4.668c.125,0,.125.125.125.125h.125s.125,0,.251.125h.251c.125,0,.251-.125.502-.125h0c.125,0,.125-.125.125-.125,0,0,.125,0,.125-.125h.125c.125-.125.251-.125.376-.125,0-.125.125-.25.125-.25v-.125c0-.125.125-.125.125-.25v-.125h.125v-1.125c-.125,0-.125-.125-.125-.125h0C8.284-.079,13.178.296,16.316,3.169l-1.255,1.25c-2.886-2.624-7.529-2.624-10.415.25-3.012,2.999-3.012,7.746,0,10.745,1.506,1.5,3.388,2.249,5.396,2.249,1.882,0,3.89-.75,5.396-2.249,1.129-1.124,1.882-2.749,2.133-4.373.251-.125.627-.25.753-.5.627-.75.627-1.749,0-2.499-.251-.25-.753-.375-1.129-.375-.251-1.124-.878-1.999-1.506-2.749l1.255-1.25c3.263,3.623,3.263,9.371-.376,12.994h0ZM17.068,8.292c.376,0,.502,0,.753.25.502.5.502,1.125,0,1.499-.125.125-.251.25-.502.25h-.502q-.125,0-.251-.125h0q-.125,0-.251-.125c-.376-.375-.376-1,0-1.499.251-.25.502-.25.627-.25h.125ZM16.441,7.667q-.125,0-.125.125h-.125c-.125.125-.251.25-.376.25-.627.75-.627,1.749,0,2.499.125,0,.251.125.376.25h.125v.125h.251q0,.125.125.125h.251c-.251,1.374-1.004,2.749-2.008,3.873-2.635,2.749-7.153,2.749-9.788,0-2.635-2.624-2.635-7.122,0-9.745,1.255-1.374,3.137-2.124,4.894-2.124,1.631,0,3.263.625,4.643,1.874l-1.506,1.499c-.878-.75-2.008-1.25-3.137-1.25-1.38,0-2.51.5-3.514,1.499-.878.875-1.38,2.124-1.38,3.374s.502,2.499,1.38,3.498c1.004.75,2.133,1.374,3.514,1.374,1.255,0,2.51-.625,3.388-1.374.878-1,1.506-2.249,1.506-3.498,0-1.125-.502-2.374-1.255-3.124l1.38-1.499c.627.625,1.255,1.499,1.38,2.249h0ZM9.665,10.291h.627l2.886-2.874c.627.75,1.004,1.624,1.004,2.624,0,1.125-.502,2.124-1.129,2.999-.878.625-2.008,1.125-3.012,1.125-1.129,0-2.259-.5-2.886-1.125-.878-.875-1.38-1.874-1.38-2.999s.502-2.124,1.38-2.999c.627-.625,1.757-1.125,2.886-1.125,1.004,0,1.882.375,2.635,1l-3.012,2.874v.5h0Z" fill="#282828" fill-rule="evenodd"/>
  </g>
</svg>